G04*
G04 #@! TF.GenerationSoftware,Altium Limited,Altium Designer,22.6.1 (34)*
G04*
G04 Layer_Color=16711935*
%FSLAX44Y44*%
%MOMM*%
G71*
G04*
G04 #@! TF.SameCoordinates,0BC7250A-E466-409B-9AFC-A4DADF5EADDD*
G04*
G04*
G04 #@! TF.FilePolarity,Positive*
G04*
G01*
G75*
%ADD14C,0.4000*%
D14*
X45000Y5000D02*
G03*
X5000Y45000I-45000J-5000D01*
G01*
Y395000D02*
G03*
X45000Y435000I-5000J45000D01*
G01*
X815000Y45000D02*
G03*
X775000Y5000I5000J-45000D01*
G01*
Y435000D02*
G03*
X815000Y395000I45000J5000D01*
G01*
X435000Y5000D02*
G03*
X390000Y45277I-45000J-5000D01*
G01*
D02*
G03*
X345000Y5000I0J-45277D01*
G01*
X50000Y440000D02*
G03*
X45000Y435000I0J-5000D01*
G01*
X5000Y395000D02*
G03*
X0Y390000I0J-5000D01*
G01*
X440000Y440000D02*
G03*
X435000Y435000I0J-5000D01*
G01*
X430000Y425000D02*
G03*
X435000Y430000I0J5000D01*
G01*
X385000Y435000D02*
G03*
X380000Y440000I-5000J0D01*
G01*
X385000Y430000D02*
G03*
X390000Y425000I5000J0D01*
G01*
X775000Y435000D02*
G03*
X770000Y440000I-5000J0D01*
G01*
X820000Y390000D02*
G03*
X815000Y395000I-5000J0D01*
G01*
Y45000D02*
G03*
X820000Y50000I0J5000D01*
G01*
X770000Y0D02*
G03*
X775000Y5000I0J5000D01*
G01*
X435000D02*
G03*
X440000Y0I5000J0D01*
G01*
X340000D02*
G03*
X345000Y5000I0J5000D01*
G01*
X0Y50000D02*
G03*
X5000Y45000I5000J0D01*
G01*
X45000Y5000D02*
G03*
X50000Y0I5000J0D01*
G01*
X340000D01*
X440000D02*
X770000D01*
X820000Y50000D02*
Y390000D01*
X440000Y440000D02*
X770000D01*
X435000Y430000D02*
Y435000D01*
X390000Y425000D02*
X430000D01*
X385000Y430000D02*
Y435000D01*
X50000Y440000D02*
X380000D01*
X0Y50000D02*
Y390000D01*
M02*
