G04*
G04 #@! TF.GenerationSoftware,Altium Limited,Altium Designer,22.6.1 (34)*
G04*
G04 Layer_Color=16711833*
%FSLAX44Y44*%
%MOMM*%
G71*
G04*
G04 #@! TF.SameCoordinates,0BC7250A-E466-409B-9AFC-A4DADF5EADDD*
G04*
G04*
G04 #@! TF.FilePolarity,Positive*
G04*
G01*
G75*
%ADD154C,0.1000*%
D154*
X114571Y316500D02*
G03*
X114571Y316500I-7071J0D01*
G01*
X363747Y269000D02*
X401747D01*
X382747Y230000D02*
Y240000D01*
X377747Y235000D02*
X387747D01*
X401747Y201000D02*
Y269000D01*
X363747Y201000D02*
Y269000D01*
Y201000D02*
X401747D01*
X580500Y165000D02*
X619500D01*
X580500Y225000D02*
X619500D01*
Y165000D02*
Y225000D01*
X580500Y165000D02*
Y225000D01*
X600000Y190000D02*
Y200000D01*
X595000Y195000D02*
X605000D01*
X762000Y137500D02*
X772000D01*
X749000Y113500D02*
Y161500D01*
X785000Y113500D02*
Y161500D01*
X749000D02*
X785000D01*
X749000Y113500D02*
X785000D01*
X767000Y132500D02*
Y142500D01*
X59500Y89992D02*
X105500D01*
Y51992D02*
Y89992D01*
X59500Y51992D02*
Y89992D01*
Y51992D02*
X105500D01*
X77501Y70992D02*
X87500D01*
X82500Y65992D02*
Y75992D01*
X148502Y342500D02*
Y352500D01*
X143502Y347500D02*
X153502D01*
X124502Y366500D02*
X172502D01*
X124502Y328500D02*
X172502D01*
Y366500D01*
X124502Y328500D02*
Y366500D01*
X565000Y250000D02*
Y284000D01*
X609000Y250000D02*
Y284000D01*
X565000Y250000D02*
X609000D01*
X565000Y284000D02*
X609000D01*
X582000Y267000D02*
X592000D01*
X587000Y262000D02*
Y272000D01*
X680000Y359500D02*
X724000D01*
X702000Y337500D02*
Y347500D01*
X697000Y342500D02*
X707000D01*
X724000Y325500D02*
Y359500D01*
X680000Y325500D02*
Y359500D01*
Y325500D02*
X724000D01*
X45000Y153000D02*
X55000D01*
X50000Y148000D02*
Y158000D01*
X5000Y116000D02*
X95000D01*
X5000D02*
Y190000D01*
X95000D01*
Y116000D02*
Y190000D01*
X191000Y284000D02*
X201000D01*
X196000Y279000D02*
Y289000D01*
X205000Y267000D02*
Y301000D01*
X187000Y267000D02*
Y301000D01*
Y267000D02*
X205000D01*
X187000Y301000D02*
X205000D01*
X306000Y140500D02*
Y149500D01*
X301500Y145000D02*
X310500D01*
X292000Y138000D02*
X320000D01*
X292000Y152000D02*
X320000D01*
X292000Y138000D02*
Y152000D01*
X320000Y138000D02*
Y152000D01*
X94500Y136000D02*
Y146000D01*
X115500Y136000D02*
Y146000D01*
X94500Y136000D02*
X115500D01*
X94500Y146000D02*
X115500D01*
X102000Y141000D02*
X108000D01*
X105000Y138000D02*
Y144000D01*
X189002Y123242D02*
Y132742D01*
X184252Y127992D02*
X193752D01*
X173502Y136492D02*
X204502D01*
X173502Y119492D02*
X204502D01*
Y136492D01*
X173502Y119492D02*
Y136492D01*
X677250Y343000D02*
Y355000D01*
X656250Y343000D02*
Y355000D01*
X677250D01*
X656250Y343000D02*
X677250D01*
X663750Y349000D02*
X669750D01*
X666750Y346000D02*
Y352000D01*
X367000Y289000D02*
X420000D01*
X367000Y393000D02*
X420000D01*
Y289000D02*
Y393000D01*
X367000Y289000D02*
Y393000D01*
X393000Y336000D02*
Y346000D01*
X388000Y341000D02*
X398000D01*
X475000Y330000D02*
X485000D01*
X480000Y325000D02*
Y335000D01*
X496000Y304000D02*
Y356000D01*
X464000Y304000D02*
Y356000D01*
Y304000D02*
X496000D01*
X464000Y356000D02*
X496000D01*
X764000Y83497D02*
Y113497D01*
X766500Y98497D02*
X775500D01*
X771000Y93997D02*
Y102998D01*
X778000Y83497D02*
Y113497D01*
X764000Y83497D02*
X778000D01*
X764000Y113497D02*
X778000D01*
X169500Y177500D02*
Y197500D01*
X164500Y184750D02*
Y190250D01*
X161750Y187500D02*
X167250D01*
X159500Y177500D02*
X169500D01*
X159500Y197500D02*
X169500D01*
X159500Y177500D02*
Y197500D01*
X545000Y9250D02*
X575000D01*
X560000Y11750D02*
Y20750D01*
X555500Y16250D02*
X564500D01*
X545000Y23250D02*
X575000D01*
Y9250D02*
Y23250D01*
X545000Y9250D02*
Y23250D01*
X503000Y83750D02*
X517000D01*
X503000Y113750D02*
X517000D01*
X503000Y83750D02*
Y113750D01*
X510000Y94250D02*
Y103250D01*
X505500Y98750D02*
X514500D01*
X517000Y83750D02*
Y113750D01*
X565000Y45000D02*
Y75000D01*
X567500Y60000D02*
X576500D01*
X572000Y55500D02*
Y64500D01*
X579000Y45000D02*
Y75000D01*
X565000Y45000D02*
X579000D01*
X565000Y75000D02*
X579000D01*
X560752Y81250D02*
Y111250D01*
X549252Y96250D02*
X558252D01*
X553752Y91750D02*
Y100750D01*
X546752Y81250D02*
Y111250D01*
X560752D01*
X546752Y81250D02*
X560752D01*
X581758D02*
Y111250D01*
X584258Y96250D02*
X593257D01*
X588758Y91750D02*
Y100750D01*
X595758Y81250D02*
Y111250D01*
X581758Y81250D02*
X595758D01*
X581758Y111250D02*
X595758D01*
X641000Y138000D02*
X671000D01*
X656000Y126500D02*
Y135500D01*
X651500Y131000D02*
X660500D01*
X641000Y124000D02*
X671000D01*
X641000D02*
Y138000D01*
X671000Y124000D02*
Y138000D01*
X611000Y124000D02*
X641000D01*
X626000Y126500D02*
Y135500D01*
X621500Y131000D02*
X630500D01*
X611000Y138000D02*
X641000D01*
Y124000D02*
Y138000D01*
X611000Y124000D02*
Y138000D01*
X644250Y81250D02*
Y111250D01*
X646750Y96250D02*
X655750D01*
X651250Y91750D02*
Y100750D01*
X658250Y81250D02*
Y111250D01*
X644250Y81250D02*
X658250D01*
X644250Y111250D02*
X658250D01*
X637500Y9250D02*
X667500D01*
X652500Y11750D02*
Y20750D01*
X648000Y16250D02*
X657000D01*
X637500Y23250D02*
X667500D01*
Y9250D02*
Y23250D01*
X637500Y9250D02*
Y23250D01*
X669500Y250750D02*
X699500D01*
X684500Y239250D02*
Y248250D01*
X680000Y243750D02*
X689000D01*
X669500Y236750D02*
X699500D01*
X669500D02*
Y250750D01*
X699500Y236750D02*
Y250750D01*
X670750Y282000D02*
X700750D01*
X685750Y270500D02*
Y279500D01*
X681250Y275000D02*
X690250D01*
X670750Y268000D02*
X700750D01*
X670750D02*
Y282000D01*
X700750Y268000D02*
Y282000D01*
X669500Y220750D02*
X699500D01*
X684500Y209250D02*
Y218250D01*
X680000Y213750D02*
X689000D01*
X669500Y206750D02*
X699500D01*
X669500D02*
Y220750D01*
X699500Y206750D02*
Y220750D01*
X718497Y324495D02*
X732497D01*
X718497Y294495D02*
X732497D01*
Y324495D01*
X725497Y304995D02*
Y313995D01*
X720997Y309495D02*
X729997D01*
X718497Y294495D02*
Y324495D01*
X669500Y235750D02*
X699500D01*
X684500Y224250D02*
Y233250D01*
X680000Y228750D02*
X689000D01*
X669500Y221750D02*
X699500D01*
X669500D02*
Y235750D01*
X699500Y221750D02*
Y235750D01*
X728750Y172500D02*
Y202500D01*
X731250Y187500D02*
X740250D01*
X735750Y183000D02*
Y192000D01*
X742750Y172500D02*
Y202500D01*
X728750Y172500D02*
X742750D01*
X728750Y202500D02*
X742750D01*
X670750Y297000D02*
X700750D01*
X685750Y285500D02*
Y294500D01*
X681250Y290000D02*
X690250D01*
X670750Y283000D02*
X700750D01*
X670750D02*
Y297000D01*
X700750Y283000D02*
Y297000D01*
X669500Y205750D02*
X699500D01*
X684500Y194250D02*
Y203250D01*
X680000Y198750D02*
X689000D01*
X669500Y191750D02*
X699500D01*
X669500D02*
Y205750D01*
X699500Y191750D02*
Y205750D01*
X798000Y348000D02*
Y378000D01*
X800500Y363000D02*
X809500D01*
X805000Y358500D02*
Y367500D01*
X812000Y348000D02*
Y378000D01*
X798000Y348000D02*
X812000D01*
X798000Y378000D02*
X812000D01*
X732500Y238492D02*
X762500D01*
X747500Y226992D02*
Y235992D01*
X743000Y231492D02*
X752000D01*
X732500Y224492D02*
X762500D01*
X732500D02*
Y238492D01*
X762500Y224492D02*
Y238492D01*
X732500Y324495D02*
X762500D01*
X747500Y312995D02*
Y321995D01*
X743000Y317495D02*
X752000D01*
X732500Y310495D02*
X762500D01*
X732500D02*
Y324495D01*
X762500Y310495D02*
Y324495D01*
X670750Y381750D02*
X700750D01*
X685750Y384250D02*
Y393250D01*
X681250Y388750D02*
X690250D01*
X670750Y395750D02*
X700750D01*
Y381750D02*
Y395750D01*
X670750Y381750D02*
Y395750D01*
X776000Y378000D02*
X790000D01*
X776000Y348000D02*
X790000D01*
Y378000D01*
X783000Y358500D02*
Y367500D01*
X778500Y363000D02*
X787500D01*
X776000Y348000D02*
Y378000D01*
X710000Y271250D02*
X724000D01*
X710000Y241250D02*
X724000D01*
Y271250D01*
X717000Y251750D02*
Y260750D01*
X712500Y256250D02*
X721500D01*
X710000Y241250D02*
Y271250D01*
X670750Y364250D02*
X700750D01*
X685750Y366750D02*
Y375750D01*
X681250Y371250D02*
X690250D01*
X670750Y378250D02*
X700750D01*
Y364250D02*
Y378250D01*
X670750Y364250D02*
Y378250D01*
Y398000D02*
X700750D01*
X685750Y400500D02*
Y409500D01*
X681250Y405000D02*
X690250D01*
X670750Y412000D02*
X700750D01*
Y398000D02*
Y412000D01*
X670750Y398000D02*
Y412000D01*
X764000Y345000D02*
Y375000D01*
X752500Y360000D02*
X761500D01*
X757000Y355500D02*
Y364500D01*
X750000Y345000D02*
Y375000D01*
X764000D01*
X750000Y345000D02*
X764000D01*
X244000Y320500D02*
X297000D01*
X244000Y424500D02*
X297000D01*
Y320500D02*
Y424500D01*
X244000Y320500D02*
Y424500D01*
X270000Y367500D02*
Y377500D01*
X265000Y372500D02*
X275000D01*
X115500Y397500D02*
Y427500D01*
X118000Y412500D02*
X127000D01*
X122500Y408000D02*
Y417000D01*
X129500Y397500D02*
Y427500D01*
X115500Y397500D02*
X129500D01*
X115500Y427500D02*
X129500D01*
X677502Y50500D02*
X687502D01*
X682502Y45500D02*
Y55500D01*
X666502Y24500D02*
Y76500D01*
X698502Y24500D02*
Y76500D01*
X666502D02*
X698502D01*
X666502Y24500D02*
X698502D01*
X699005Y36500D02*
Y66500D01*
X701505Y51500D02*
X710505D01*
X706005Y47000D02*
Y56000D01*
X713005Y36500D02*
Y66500D01*
X699005Y36500D02*
X713005D01*
X699005Y66500D02*
X713005D01*
X710000Y86503D02*
X740000D01*
X725000Y75002D02*
Y84003D01*
X720500Y79503D02*
X729500D01*
X710000Y72502D02*
X740000D01*
X710000D02*
Y86503D01*
X740000Y72502D02*
Y86503D01*
X188507Y320500D02*
X241507D01*
X188507Y424500D02*
X241507D01*
Y320500D02*
Y424500D01*
X188507Y320500D02*
Y424500D01*
X214508Y367500D02*
Y377500D01*
X209508Y372500D02*
X219508D01*
X173505Y332500D02*
Y362500D01*
X176005Y347500D02*
X185005D01*
X180505Y343000D02*
Y352000D01*
X187505Y332500D02*
Y362500D01*
X173505Y332500D02*
X187505D01*
X173505Y362500D02*
X187505D01*
X204000Y31503D02*
X234000D01*
X219000Y34003D02*
Y43003D01*
X214500Y38503D02*
X223500D01*
X204000Y45503D02*
X234000D01*
Y31503D02*
Y45503D01*
X204000Y31503D02*
Y45503D01*
Y53000D02*
X234000D01*
X219000Y55500D02*
Y64500D01*
X214500Y60000D02*
X223500D01*
X204000Y67000D02*
X234000D01*
Y53000D02*
Y67000D01*
X204000Y53000D02*
Y67000D01*
X503000Y10000D02*
X517000D01*
X503000Y40000D02*
X517000D01*
X503000Y10000D02*
Y40000D01*
X510000Y20500D02*
Y29500D01*
X505500Y25000D02*
X514500D01*
X517000Y10000D02*
Y40000D01*
X486250Y69250D02*
X516250D01*
X501250Y71750D02*
Y80750D01*
X496750Y76250D02*
X505750D01*
X486250Y83250D02*
X516250D01*
Y69250D02*
Y83250D01*
X486250Y69250D02*
Y83250D01*
X324000Y76000D02*
X354000D01*
X339000Y78500D02*
Y87500D01*
X334500Y83000D02*
X343500D01*
X324000Y90000D02*
X354000D01*
Y76000D02*
Y90000D01*
X324000Y76000D02*
Y90000D01*
X359000Y166000D02*
X373000D01*
X359000Y136000D02*
X373000D01*
Y166000D01*
X366000Y146500D02*
Y155500D01*
X361500Y151000D02*
X370500D01*
X359000Y136000D02*
Y166000D01*
Y106000D02*
X373000D01*
X359000Y136000D02*
X373000D01*
X359000Y106000D02*
Y136000D01*
X366000Y116500D02*
Y125500D01*
X361500Y121000D02*
X370500D01*
X373000Y106000D02*
Y136000D01*
X359000Y76000D02*
Y106000D01*
X361500Y91000D02*
X370500D01*
X366000Y86500D02*
Y95500D01*
X373000Y76000D02*
Y106000D01*
X359000Y76000D02*
X373000D01*
X359000Y106000D02*
X373000D01*
X373008Y137000D02*
X403008D01*
X388008Y125500D02*
Y134500D01*
X383508Y130000D02*
X392508D01*
X373008Y123000D02*
X403008D01*
X373008D02*
Y137000D01*
X403008Y123000D02*
Y137000D01*
X373000Y94000D02*
X403000D01*
X388000Y82500D02*
Y91500D01*
X383500Y87000D02*
X392500D01*
X373000Y80000D02*
X403000D01*
X373000D02*
Y94000D01*
X403000Y80000D02*
Y94000D01*
X298253Y282505D02*
Y312505D01*
X300753Y297505D02*
X309753D01*
X305253Y293005D02*
Y302005D01*
X312253Y282505D02*
Y312505D01*
X298253Y282505D02*
X312253D01*
X298253Y312505D02*
X312253D01*
X284250Y282505D02*
X298250D01*
X284250Y312505D02*
X298250D01*
X284250Y282505D02*
Y312505D01*
X291250Y293005D02*
Y302005D01*
X286750Y297505D02*
X295750D01*
X298250Y282505D02*
Y312505D01*
X348000Y298000D02*
Y312000D01*
X318000Y298000D02*
Y312000D01*
Y298000D02*
X348000D01*
X328500Y305000D02*
X337500D01*
X333000Y300500D02*
Y309500D01*
X318000Y312000D02*
X348000D01*
X743750Y188750D02*
X757750D01*
X743750Y218750D02*
X757750D01*
X743750Y188750D02*
Y218750D01*
X750750Y199250D02*
Y208250D01*
X746250Y203750D02*
X755250D01*
X757750Y188750D02*
Y218750D01*
X627000Y264498D02*
X657000D01*
X642000Y266998D02*
Y275998D01*
X637500Y271497D02*
X646500D01*
X627000Y278498D02*
X657000D01*
Y264498D02*
Y278498D01*
X627000Y264498D02*
Y278498D01*
X706250Y172500D02*
X720250D01*
X706250Y202500D02*
X720250D01*
X706250Y172500D02*
Y202500D01*
X713250Y183000D02*
Y192000D01*
X708750Y187500D02*
X717750D01*
X720250Y172500D02*
Y202500D01*
X627747Y296000D02*
X641748D01*
X627747Y326000D02*
X641748D01*
X627747Y296000D02*
Y326000D01*
X634748Y306500D02*
Y315500D01*
X630247Y311000D02*
X639248D01*
X641748Y296000D02*
Y326000D01*
X124000Y171000D02*
Y191000D01*
X114000Y171000D02*
X124000D01*
X114000Y191000D02*
X124000D01*
X116250Y181000D02*
X121750D01*
X119000Y178250D02*
Y183750D01*
X114000Y171000D02*
Y191000D01*
X173505Y136494D02*
Y156495D01*
X178505Y143744D02*
Y149244D01*
X175755Y146494D02*
X181255D01*
X173505Y156495D02*
X183505D01*
X173505Y136494D02*
X183505D01*
Y156495D01*
X153500Y146500D02*
X173500D01*
X160750Y151500D02*
X166250D01*
X163500Y148750D02*
Y154250D01*
X153500Y146500D02*
Y156500D01*
X173500Y146500D02*
Y156500D01*
X153500D02*
X173500D01*
X143500Y146500D02*
X173500D01*
X158500Y135000D02*
Y144000D01*
X154000Y139500D02*
X163000D01*
X143500Y132500D02*
X173500D01*
X143500D02*
Y146500D01*
X173500Y132500D02*
Y146500D01*
X175500Y156500D02*
X195500D01*
X182750Y161500D02*
X188250D01*
X185500Y158750D02*
Y164250D01*
X175500Y156500D02*
Y166500D01*
X195500Y156500D02*
Y166500D01*
X175500D02*
X195500D01*
X175500Y167500D02*
X195500D01*
X182750Y172500D02*
X188250D01*
X185500Y169750D02*
Y175250D01*
X175500Y167500D02*
Y177500D01*
X195500Y167500D02*
Y177500D01*
X175500D02*
X195500D01*
X195502Y173498D02*
X209503D01*
X195502Y143497D02*
X209503D01*
Y173498D01*
X202502Y153997D02*
Y162997D01*
X198002Y158497D02*
X207003D01*
X195502Y143497D02*
Y173498D01*
X191500Y177500D02*
Y197500D01*
X186500Y184750D02*
Y190250D01*
X183750Y187500D02*
X189250D01*
X181500Y177500D02*
X191500D01*
X181500Y197500D02*
X191500D01*
X181500Y177500D02*
Y197500D01*
X170500Y177500D02*
Y197500D01*
X180500D01*
X170500Y177500D02*
X180500D01*
X172750Y187500D02*
X178250D01*
X175500Y184750D02*
Y190250D01*
X180500Y177500D02*
Y197500D01*
X145000Y166500D02*
X165000D01*
X152250Y161500D02*
X157750D01*
X155000Y158750D02*
Y164250D01*
X165000Y156500D02*
Y166500D01*
X145000Y156500D02*
Y166500D01*
Y156500D02*
X165000D01*
X145000Y177500D02*
X165000D01*
X152250Y172500D02*
X157750D01*
X155000Y169750D02*
Y175250D01*
X165000Y167500D02*
Y177500D01*
X145000Y167500D02*
Y177500D01*
Y167500D02*
X165000D01*
X191502Y178500D02*
Y208500D01*
X194002Y193500D02*
X203002D01*
X198502Y189000D02*
Y198000D01*
X205502Y178500D02*
Y208500D01*
X191502Y178500D02*
X205502D01*
X191502Y208500D02*
X205502D01*
X60000Y104500D02*
X90000D01*
X75000Y93000D02*
Y102000D01*
X70500Y97500D02*
X79500D01*
X60000Y90500D02*
X90000D01*
X60000D02*
Y104500D01*
X90000Y90500D02*
Y104500D01*
X95000Y170000D02*
X125000D01*
X110000Y158500D02*
Y167500D01*
X105500Y163000D02*
X114500D01*
X95000Y156000D02*
X125000D01*
X95000D02*
Y170000D01*
X125000Y156000D02*
Y170000D01*
X59000Y23500D02*
X89000D01*
X74000Y26000D02*
Y35000D01*
X69500Y30500D02*
X78500D01*
X59000Y37500D02*
X89000D01*
Y23500D02*
Y37500D01*
X59000Y23500D02*
Y37500D01*
X60000Y51990D02*
X90000D01*
X75000Y40490D02*
Y49490D01*
X70500Y44990D02*
X79500D01*
X60000Y37990D02*
X90000D01*
X60000D02*
Y51990D01*
X90000Y37990D02*
Y51990D01*
X403312Y272062D02*
X417313D01*
X403312Y242062D02*
X417313D01*
Y272062D01*
X410312Y252563D02*
Y261562D01*
X405812Y257062D02*
X414813D01*
X403312Y242062D02*
Y272062D01*
X547000Y360000D02*
X561000D01*
X547000Y390000D02*
X561000D01*
X547000Y360000D02*
Y390000D01*
X554000Y370500D02*
Y379500D01*
X549500Y375000D02*
X558500D01*
X561000Y360000D02*
Y390000D01*
X613747Y326000D02*
X627747D01*
X613747Y356000D02*
X627747D01*
X613747Y326000D02*
Y356000D01*
X620747Y336500D02*
Y345500D01*
X616247Y341000D02*
X625247D01*
X627747Y326000D02*
Y356000D01*
X641750Y343000D02*
X655750D01*
X641750Y373000D02*
X655750D01*
X641750Y343000D02*
Y373000D01*
X648750Y353500D02*
Y362500D01*
X644250Y358000D02*
X653250D01*
X655750Y343000D02*
Y373000D01*
X641750Y342000D02*
X655750D01*
X641750Y312000D02*
X655750D01*
Y342000D01*
X648750Y322500D02*
Y331500D01*
X644250Y327000D02*
X653250D01*
X641750Y312000D02*
Y342000D01*
X490000Y361000D02*
X520000D01*
X505000Y363500D02*
Y372500D01*
X500500Y368000D02*
X509500D01*
X490000Y375000D02*
X520000D01*
Y361000D02*
Y375000D01*
X490000Y361000D02*
Y375000D01*
X547000Y390000D02*
Y420000D01*
X549500Y405000D02*
X558500D01*
X554000Y400500D02*
Y409500D01*
X561000Y390000D02*
Y420000D01*
X547000Y390000D02*
X561000D01*
X547000Y420000D02*
X561000D01*
X461000Y411000D02*
X491000D01*
X476000Y399500D02*
Y408500D01*
X471500Y404000D02*
X480500D01*
X461000Y397000D02*
X491000D01*
X461000D02*
Y411000D01*
X491000Y397000D02*
Y411000D01*
X566000Y361000D02*
X596000D01*
X581000Y363500D02*
Y372500D01*
X576500Y368000D02*
X585500D01*
X566000Y375000D02*
X596000D01*
Y361000D02*
Y375000D01*
X566000Y361000D02*
Y375000D01*
X580000Y151000D02*
X610000D01*
X595000Y153500D02*
Y162500D01*
X590500Y158000D02*
X599500D01*
X580000Y165000D02*
X610000D01*
Y151000D02*
Y165000D01*
X580000Y151000D02*
Y165000D01*
X530000Y153000D02*
Y167000D01*
X560000Y153000D02*
Y167000D01*
X530000D02*
X560000D01*
X540500Y160000D02*
X549500D01*
X545000Y155500D02*
Y164500D01*
X530000Y153000D02*
X560000D01*
X511000Y182000D02*
Y212000D01*
X513500Y197000D02*
X522500D01*
X518000Y192500D02*
Y201500D01*
X525000Y182000D02*
Y212000D01*
X511000Y182000D02*
X525000D01*
X511000Y212000D02*
X525000D01*
X566000Y178000D02*
Y208000D01*
X568500Y193000D02*
X577500D01*
X573000Y188500D02*
Y197500D01*
X580000Y178000D02*
Y208000D01*
X566000Y178000D02*
X580000D01*
X566000Y208000D02*
X580000D01*
X785002Y144576D02*
X815002D01*
X800002Y133076D02*
Y142076D01*
X795502Y137576D02*
X804502D01*
X785002Y130576D02*
X815002D01*
X785002D02*
Y144576D01*
X815002Y130576D02*
Y144576D01*
X522503Y96250D02*
X532503D01*
X527503Y91250D02*
Y101250D01*
X538003Y75250D02*
Y117250D01*
X517002Y75250D02*
Y117250D01*
Y75250D02*
X538003D01*
X517002Y117250D02*
X538003D01*
X579500Y33000D02*
X600500D01*
X579500Y75000D02*
X600500D01*
Y33000D02*
Y75000D01*
X579500Y33000D02*
Y75000D01*
X590000Y49000D02*
Y59000D01*
X585000Y54000D02*
X595000D01*
X560755Y117250D02*
X581755D01*
X560755Y75250D02*
X581755D01*
X560755D02*
Y117250D01*
X581755Y75250D02*
Y117250D01*
X571255Y91250D02*
Y101250D01*
X566255Y96250D02*
X576255D01*
X599500Y118500D02*
X620500D01*
X599500Y76500D02*
X620500D01*
X599500D02*
Y118500D01*
X620500Y76500D02*
Y118500D01*
X610000Y92500D02*
Y102500D01*
X605000Y97500D02*
X615000D01*
X620750Y118500D02*
X641750D01*
X620750Y76500D02*
X641750D01*
X620750D02*
Y118500D01*
X641750Y76500D02*
Y118500D01*
X631250Y92500D02*
Y102500D01*
X626250Y97500D02*
X636250D01*
X772000Y289500D02*
Y310500D01*
X814000Y289500D02*
Y310500D01*
X772000Y289500D02*
X814000D01*
X772000Y310500D02*
X814000D01*
X788000Y300000D02*
X798000D01*
X793000Y295000D02*
Y305000D01*
X768000Y185997D02*
Y206997D01*
X810000Y185997D02*
Y206997D01*
X768000Y185997D02*
X810000D01*
X768000Y206997D02*
X810000D01*
X784000Y196497D02*
X794000D01*
X789000Y191497D02*
Y201497D01*
X765500Y239500D02*
Y260500D01*
X723500Y239500D02*
Y260500D01*
X765500D01*
X723500Y239500D02*
X765500D01*
X739500Y250000D02*
X749500D01*
X744500Y245000D02*
Y255000D01*
X766000Y324497D02*
Y345498D01*
X724000Y324497D02*
Y345498D01*
X766000D01*
X724000Y324497D02*
X766000D01*
X740000Y334997D02*
X750000D01*
X745000Y329997D02*
Y339997D01*
X766750Y264500D02*
Y285500D01*
X724750Y264500D02*
Y285500D01*
X766750D01*
X724750Y264500D02*
X766750D01*
X740750Y275000D02*
X750750D01*
X745750Y270000D02*
Y280000D01*
X241000Y30000D02*
X251000D01*
X246000Y25000D02*
Y35000D01*
X256500Y9000D02*
Y51000D01*
X235500Y9000D02*
Y51000D01*
Y9000D02*
X256500D01*
X235500Y51000D02*
X256500D01*
X262000Y30000D02*
X272000D01*
X267000Y25000D02*
Y35000D01*
X256500Y9000D02*
Y51000D01*
X277500Y9000D02*
Y51000D01*
X256500D02*
X277500D01*
X256500Y9000D02*
X277500D01*
X241000Y73000D02*
X251000D01*
X246000Y68000D02*
Y78000D01*
X235500Y52000D02*
Y94000D01*
X256500Y52000D02*
Y94000D01*
X235500D02*
X256500D01*
X235500Y52000D02*
X256500D01*
X262000Y73000D02*
X272000D01*
X267000Y68000D02*
Y78000D01*
X277500Y52000D02*
Y94000D01*
X256500Y52000D02*
Y94000D01*
Y52000D02*
X277500D01*
X256500Y94000D02*
X277500D01*
X425500Y95000D02*
X446500D01*
X425500Y137000D02*
X446500D01*
Y95000D02*
Y137000D01*
X425500Y95000D02*
Y137000D01*
X436000Y111000D02*
Y121000D01*
X431000Y116000D02*
X441000D01*
X453000Y92000D02*
X463000D01*
X458000Y87000D02*
Y97000D01*
X468500Y71000D02*
Y113000D01*
X447500Y71000D02*
Y113000D01*
Y71000D02*
X468500D01*
X447500Y113000D02*
X468500D01*
X409000Y116000D02*
X419000D01*
X414000Y111000D02*
Y121000D01*
X424500Y95000D02*
Y137000D01*
X403500Y95000D02*
Y137000D01*
Y95000D02*
X424500D01*
X403500Y137000D02*
X424500D01*
X403008Y73500D02*
Y94500D01*
X445008Y73500D02*
Y94500D01*
X403008Y73500D02*
X445008D01*
X403008Y94500D02*
X445008D01*
X419008Y84000D02*
X429008D01*
X424008Y79000D02*
Y89000D01*
X724000Y159248D02*
Y168747D01*
X719250Y163997D02*
X728750D01*
X708500Y172497D02*
X739500D01*
X708500Y155498D02*
X739500D01*
Y172497D01*
X708500Y155498D02*
Y172497D01*
X642000Y282250D02*
Y291750D01*
X637250Y287000D02*
X646750D01*
X626500Y278500D02*
X657500D01*
X626500Y295500D02*
X657500D01*
X626500Y278500D02*
Y295500D01*
X657500Y278500D02*
Y295500D01*
X762502Y207000D02*
X779502D01*
X762502Y238000D02*
X779502D01*
Y207000D02*
Y238000D01*
X762502Y207000D02*
Y238000D01*
X771002Y217750D02*
Y227250D01*
X766252Y222500D02*
X775752D01*
X677250Y330000D02*
Y342000D01*
X656250Y330000D02*
Y342000D01*
X677250D01*
X656250Y330000D02*
X677250D01*
X663750Y336000D02*
X669750D01*
X666750Y333000D02*
Y339000D01*
X688250Y255250D02*
Y264750D01*
X683500Y260000D02*
X693000D01*
X672750Y268500D02*
X703750D01*
X672750Y251500D02*
X703750D01*
Y268500D01*
X672750Y251500D02*
Y268500D01*
X657250Y298748D02*
Y308248D01*
X652500Y303498D02*
X662000D01*
X641750Y311998D02*
X672750D01*
X641750Y294998D02*
X672750D01*
Y311998D01*
X641750Y294998D02*
Y311998D01*
X645000Y193492D02*
Y202492D01*
X640500Y197992D02*
X649500D01*
X631000Y190992D02*
X659000D01*
X631000Y204992D02*
X659000D01*
X631000Y190992D02*
Y204992D01*
X659000Y190992D02*
Y204992D01*
X645000Y207495D02*
Y216495D01*
X640500Y211995D02*
X649500D01*
X631000Y204995D02*
X659000D01*
X631000Y218995D02*
X659000D01*
X631000Y204995D02*
Y218995D01*
X659000Y204995D02*
Y218995D01*
X645000Y221497D02*
Y230497D01*
X640500Y225997D02*
X649500D01*
X631000Y218997D02*
X659000D01*
X631000Y232997D02*
X659000D01*
X631000Y218997D02*
Y232997D01*
X659000Y218997D02*
Y232997D01*
X645000Y235500D02*
Y244500D01*
X640500Y240000D02*
X649500D01*
X631000Y233000D02*
X659000D01*
X631000Y247000D02*
X659000D01*
X631000Y233000D02*
Y247000D01*
X659000Y233000D02*
Y247000D01*
X649000Y406500D02*
Y415500D01*
X644500Y411000D02*
X653500D01*
X635000Y418000D02*
X663000D01*
X635000Y404000D02*
X663000D01*
Y418000D01*
X635000Y404000D02*
Y418000D01*
X649000Y420500D02*
Y429500D01*
X644500Y425000D02*
X653500D01*
X635000Y432000D02*
X663000D01*
X635000Y418000D02*
X663000D01*
Y432000D01*
X635000Y418000D02*
Y432000D01*
X640000Y389500D02*
Y398500D01*
X635500Y394000D02*
X644500D01*
X626000Y387000D02*
X654000D01*
X626000Y401000D02*
X654000D01*
X626000Y387000D02*
Y401000D01*
X654000Y387000D02*
Y401000D01*
X735000Y374000D02*
X749000D01*
X735000Y346000D02*
X749000D01*
X735000D02*
Y374000D01*
X749000Y346000D02*
Y374000D01*
X742000Y355500D02*
Y364500D01*
X737500Y360000D02*
X746500D01*
X134002Y412500D02*
X143002D01*
X138502Y408000D02*
Y417000D01*
X131502Y398500D02*
Y426500D01*
X145502Y398500D02*
Y426500D01*
X131502D02*
X145502D01*
X131502Y398500D02*
X145502D01*
X148500Y412000D02*
X157500D01*
X153000Y407500D02*
Y416500D01*
X160000Y398000D02*
Y426000D01*
X146000Y398000D02*
Y426000D01*
Y398000D02*
X160000D01*
X146000Y426000D02*
X160000D01*
X753002Y16500D02*
X767002D01*
X753002Y44500D02*
X767002D01*
Y16500D02*
Y44500D01*
X753002Y16500D02*
Y44500D01*
X760003Y26000D02*
Y35000D01*
X755502Y30500D02*
X764502D01*
X753002Y72502D02*
X767002D01*
X753002Y44503D02*
X767002D01*
X753002D02*
Y72502D01*
X767002Y44503D02*
Y72502D01*
X760003Y54003D02*
Y63003D01*
X755502Y58502D02*
X764502D01*
X648750Y28750D02*
Y38750D01*
X643750Y33750D02*
X653750D01*
X631750Y24750D02*
X665750D01*
X631750Y42750D02*
X665750D01*
X631750Y24750D02*
Y42750D01*
X665750Y24750D02*
Y42750D01*
X726000Y11500D02*
Y20500D01*
X721500Y16000D02*
X730500D01*
X712000Y23000D02*
X740000D01*
X712000Y9000D02*
X740000D01*
Y23000D01*
X712000Y9000D02*
Y23000D01*
X73000Y310000D02*
X83000D01*
X78000Y305000D02*
Y315000D01*
X69000Y293000D02*
Y327000D01*
X87000Y293000D02*
Y327000D01*
X69000D02*
X87000D01*
X69000Y293000D02*
X87000D01*
X292000Y12000D02*
X306000D01*
X292000Y40000D02*
X306000D01*
Y12000D02*
Y40000D01*
X292000Y12000D02*
Y40000D01*
X299000Y21500D02*
Y30500D01*
X294500Y26000D02*
X303500D01*
X219000Y20000D02*
Y29000D01*
X214500Y24500D02*
X223500D01*
X205000Y17500D02*
X233000D01*
X205000Y31500D02*
X233000D01*
X205000Y17500D02*
Y31500D01*
X233000Y17500D02*
Y31500D01*
X278000Y42000D02*
X292000D01*
X278000Y14000D02*
X292000D01*
X278000D02*
Y42000D01*
X292000Y14000D02*
Y42000D01*
X285000Y23500D02*
Y32500D01*
X280500Y28000D02*
X289500D01*
X294500Y57000D02*
X303500D01*
X299000Y52500D02*
Y61500D01*
X306000Y43000D02*
Y71000D01*
X292000Y43000D02*
Y71000D01*
Y43000D02*
X306000D01*
X292000Y71000D02*
X306000D01*
X218000Y69500D02*
Y78500D01*
X213500Y74000D02*
X222500D01*
X204000Y67000D02*
X232000D01*
X204000Y81000D02*
X232000D01*
X204000Y67000D02*
Y81000D01*
X232000Y67000D02*
Y81000D01*
X278000Y50000D02*
X292000D01*
X278000Y78000D02*
X292000D01*
Y50000D02*
Y78000D01*
X278000Y50000D02*
Y78000D01*
X285000Y59500D02*
Y68500D01*
X280500Y64000D02*
X289500D01*
X488997Y11000D02*
X502997D01*
X488997Y39000D02*
X502997D01*
Y11000D02*
Y39000D01*
X488997Y11000D02*
Y39000D01*
X495997Y20500D02*
Y29500D01*
X491497Y25000D02*
X500497D01*
X471000Y85000D02*
X485000D01*
X471000Y113000D02*
X485000D01*
Y85000D02*
Y113000D01*
X471000Y85000D02*
Y113000D01*
X478000Y94500D02*
Y103500D01*
X473500Y99000D02*
X482500D01*
X531250Y11750D02*
Y20750D01*
X526750Y16250D02*
X535750D01*
X517250Y9250D02*
X545250D01*
X517250Y23250D02*
X545250D01*
X517250Y9250D02*
Y23250D01*
X545250Y9250D02*
Y23250D01*
X488500Y99000D02*
X497500D01*
X493000Y94500D02*
Y103500D01*
X500000Y85000D02*
Y113000D01*
X486000Y85000D02*
Y113000D01*
Y85000D02*
X500000D01*
X486000Y113000D02*
X500000D01*
X306000Y154500D02*
Y163500D01*
X301500Y159000D02*
X310500D01*
X292000Y166000D02*
X320000D01*
X292000Y152000D02*
X320000D01*
Y166000D01*
X292000Y152000D02*
Y166000D01*
X387000Y154500D02*
Y163500D01*
X382500Y159000D02*
X391500D01*
X373000Y152000D02*
X401000D01*
X373000Y166000D02*
X401000D01*
X373000Y152000D02*
Y166000D01*
X401000Y152000D02*
Y166000D01*
X388000Y96500D02*
Y105500D01*
X383500Y101000D02*
X392500D01*
X374000Y108000D02*
X402000D01*
X374000Y94000D02*
X402000D01*
Y108000D01*
X374000Y94000D02*
Y108000D01*
X565000Y33500D02*
Y42500D01*
X560500Y38000D02*
X569500D01*
X551000Y45000D02*
X579000D01*
X551000Y31000D02*
X579000D01*
Y45000D01*
X551000Y31000D02*
Y45000D01*
X388000Y111497D02*
Y120497D01*
X383500Y115997D02*
X392500D01*
X374000Y122997D02*
X402000D01*
X374000Y108997D02*
X402000D01*
Y122997D01*
X374000Y108997D02*
Y122997D01*
X786000Y318731D02*
Y327731D01*
X781500Y323231D02*
X790500D01*
X772000Y316231D02*
X800000D01*
X772000Y330231D02*
X800000D01*
X772000Y316231D02*
Y330231D01*
X800000Y316231D02*
Y330231D01*
X801000Y332734D02*
Y341734D01*
X796500Y337234D02*
X805500D01*
X787000Y330234D02*
X815000D01*
X787000Y344234D02*
X815000D01*
X787000Y330234D02*
Y344234D01*
X815000Y330234D02*
Y344234D01*
X550000Y74000D02*
X564000D01*
X550000Y46000D02*
X564000D01*
X550000D02*
Y74000D01*
X564000Y46000D02*
Y74000D01*
X557000Y55500D02*
Y64500D01*
X552500Y60000D02*
X561500D01*
X466000Y212500D02*
Y221500D01*
X461500Y217000D02*
X470500D01*
X452000Y210000D02*
X480000D01*
X452000Y224000D02*
X480000D01*
X452000Y210000D02*
Y224000D01*
X480000Y210000D02*
Y224000D01*
X466000Y243500D02*
Y252500D01*
X461500Y248000D02*
X470500D01*
X452000Y241000D02*
X480000D01*
X452000Y255000D02*
X480000D01*
X452000Y241000D02*
Y255000D01*
X480000Y241000D02*
Y255000D01*
X300000Y256500D02*
Y265500D01*
X295500Y261000D02*
X304500D01*
X286000Y268000D02*
X314000D01*
X286000Y254000D02*
X314000D01*
Y268000D01*
X286000Y254000D02*
Y268000D01*
X300000Y228500D02*
Y237500D01*
X295500Y233000D02*
X304500D01*
X286000Y240000D02*
X314000D01*
X286000Y226000D02*
X314000D01*
Y240000D01*
X286000Y226000D02*
Y240000D01*
X432250Y212750D02*
Y221750D01*
X427750Y217250D02*
X436750D01*
X418250Y224250D02*
X446250D01*
X418250Y210250D02*
X446250D01*
Y224250D01*
X418250Y210250D02*
Y224250D01*
X432250Y243625D02*
Y252625D01*
X427750Y248125D02*
X436750D01*
X418250Y255125D02*
X446250D01*
X418250Y241125D02*
X446250D01*
Y255125D01*
X418250Y241125D02*
Y255125D01*
X343750Y256500D02*
Y265500D01*
X339250Y261000D02*
X348250D01*
X329750Y254000D02*
X357750D01*
X329750Y268000D02*
X357750D01*
X329750Y254000D02*
Y268000D01*
X357750Y254000D02*
Y268000D01*
X343750Y228500D02*
Y237500D01*
X339250Y233000D02*
X348250D01*
X329750Y226000D02*
X357750D01*
X329750Y240000D02*
X357750D01*
X329750Y226000D02*
Y240000D01*
X357750Y226000D02*
Y240000D01*
X466000Y227500D02*
Y236500D01*
X461500Y232000D02*
X470500D01*
X452000Y225000D02*
X480000D01*
X452000Y239000D02*
X480000D01*
X452000Y225000D02*
Y239000D01*
X480000Y225000D02*
Y239000D01*
X466000Y258500D02*
Y267500D01*
X461500Y263000D02*
X470500D01*
X452000Y256000D02*
X480000D01*
X452000Y270000D02*
X480000D01*
X452000Y256000D02*
Y270000D01*
X480000Y256000D02*
Y270000D01*
X300000Y242500D02*
Y251500D01*
X295500Y247000D02*
X304500D01*
X286000Y254000D02*
X314000D01*
X286000Y240000D02*
X314000D01*
Y254000D01*
X286000Y240000D02*
Y254000D01*
X300000Y214500D02*
Y223500D01*
X295500Y219000D02*
X304500D01*
X286000Y226000D02*
X314000D01*
X286000Y212000D02*
X314000D01*
Y226000D01*
X286000Y212000D02*
Y226000D01*
X432250Y227375D02*
Y236375D01*
X427750Y231875D02*
X436750D01*
X418250Y238875D02*
X446250D01*
X418250Y224875D02*
X446250D01*
Y238875D01*
X418250Y224875D02*
Y238875D01*
X432250Y258250D02*
Y267250D01*
X427750Y262750D02*
X436750D01*
X418250Y269750D02*
X446250D01*
X418250Y255750D02*
X446250D01*
Y269750D01*
X418250Y255750D02*
Y269750D01*
X343750Y242500D02*
Y251500D01*
X339250Y247000D02*
X348250D01*
X329750Y240000D02*
X357750D01*
X329750Y254000D02*
X357750D01*
X329750Y240000D02*
Y254000D01*
X357750Y240000D02*
Y254000D01*
X343750Y214500D02*
Y223500D01*
X339250Y219000D02*
X348250D01*
X329750Y212000D02*
X357750D01*
X329750Y226000D02*
X357750D01*
X329750Y212000D02*
Y226000D01*
X357750Y212000D02*
Y226000D01*
X326000Y285500D02*
Y294500D01*
X321500Y290000D02*
X330500D01*
X312000Y297000D02*
X340000D01*
X312000Y283000D02*
X340000D01*
Y297000D01*
X312000Y283000D02*
Y297000D01*
X159500Y276000D02*
X168500D01*
X164000Y271500D02*
Y280500D01*
X157000Y262000D02*
Y290000D01*
X171000Y262000D02*
Y290000D01*
X157000D02*
X171000D01*
X157000Y262000D02*
X171000D01*
X588000Y238500D02*
Y247500D01*
X583500Y243000D02*
X592500D01*
X574000Y250000D02*
X602000D01*
X574000Y236000D02*
X602000D01*
Y250000D01*
X574000Y236000D02*
Y250000D01*
X550747Y282500D02*
X564747D01*
X550747Y254500D02*
X564747D01*
X550747D02*
Y282500D01*
X564747Y254500D02*
Y282500D01*
X557747Y264000D02*
Y273000D01*
X553247Y268500D02*
X562247D01*
X124000Y93000D02*
X134000D01*
X124000Y114000D02*
X134000D01*
Y93000D02*
Y114000D01*
X124000Y93000D02*
Y114000D01*
X129000Y100500D02*
Y106500D01*
X126000Y103500D02*
X132000D01*
X105997D02*
X111997D01*
X108997Y100500D02*
Y106500D01*
X103997Y93000D02*
Y114000D01*
X113997Y93000D02*
Y114000D01*
X103997D02*
X113997D01*
X103997Y93000D02*
X113997D01*
X115500Y262250D02*
X129500D01*
X115500Y290250D02*
X129500D01*
Y262250D02*
Y290250D01*
X115500Y262250D02*
Y290250D01*
X122500Y271750D02*
Y280750D01*
X118000Y276250D02*
X127000D01*
X135500D02*
X144500D01*
X140000Y271750D02*
Y280750D01*
X133000Y262250D02*
Y290250D01*
X147000Y262250D02*
Y290250D01*
X133000D02*
X147000D01*
X133000Y262250D02*
X147000D01*
X111500Y228000D02*
Y238000D01*
X90500Y228000D02*
Y238000D01*
X111500D01*
X90500Y228000D02*
X111500D01*
X98000Y233000D02*
X104000D01*
X101000Y230000D02*
Y236000D01*
X232500Y172000D02*
Y182000D01*
X253500Y172000D02*
Y182000D01*
X232500Y172000D02*
X253500D01*
X232500Y182000D02*
X253500D01*
X240000Y177000D02*
X246000D01*
X243000Y174000D02*
Y180000D01*
X155005Y240000D02*
X161005D01*
X158005Y237000D02*
Y243000D01*
X163005Y229500D02*
Y250500D01*
X153005Y229500D02*
Y250500D01*
Y229500D02*
X163005D01*
X153005Y250500D02*
X163005D01*
X134002Y229500D02*
X144002D01*
X134002Y250500D02*
X144002D01*
Y229500D02*
Y250500D01*
X134002Y229500D02*
Y250500D01*
X139002Y237000D02*
Y243000D01*
X136002Y240000D02*
X142002D01*
X124000Y229500D02*
X134000D01*
X124000Y250500D02*
X134000D01*
Y229500D02*
Y250500D01*
X124000Y229500D02*
Y250500D01*
X129000Y237000D02*
Y243000D01*
X126000Y240000D02*
X132000D01*
X90500Y218000D02*
Y228000D01*
X111500Y218000D02*
Y228000D01*
X90500Y218000D02*
X111500D01*
X90500Y228000D02*
X111500D01*
X98000Y223000D02*
X104000D01*
X101000Y220000D02*
Y226000D01*
X90500Y208000D02*
Y218000D01*
X111500Y208000D02*
Y218000D01*
X90500Y208000D02*
X111500D01*
X90500Y218000D02*
X111500D01*
X98000Y213000D02*
X104000D01*
X101000Y210000D02*
Y216000D01*
X94500Y126000D02*
Y136000D01*
X115500Y126000D02*
Y136000D01*
X94500Y126000D02*
X115500D01*
X94500Y136000D02*
X115500D01*
X102000Y131000D02*
X108000D01*
X105000Y128000D02*
Y134000D01*
X167003Y103500D02*
X173002D01*
X170002Y100500D02*
Y106500D01*
X165002Y93000D02*
Y114000D01*
X175002Y93000D02*
Y114000D01*
X165002D02*
X175002D01*
X165002Y93000D02*
X175002D01*
X157000Y103500D02*
X163000D01*
X160000Y100500D02*
Y106500D01*
X165000Y93000D02*
Y114000D01*
X155000Y93000D02*
Y114000D01*
Y93000D02*
X165000D01*
X155000Y114000D02*
X165000D01*
X215000Y108000D02*
X221000D01*
X218000Y105000D02*
Y111000D01*
X223000Y97500D02*
Y118500D01*
X213000Y97500D02*
Y118500D01*
Y97500D02*
X223000D01*
X213000Y118500D02*
X223000D01*
X253500Y146000D02*
Y156000D01*
X232500Y146000D02*
Y156000D01*
X253500D01*
X232500Y146000D02*
X253500D01*
X240000Y151000D02*
X246000D01*
X243000Y148000D02*
Y154000D01*
X253500Y159000D02*
Y169000D01*
X232500Y159000D02*
Y169000D01*
X253500D01*
X232500Y159000D02*
X253500D01*
X240000Y164000D02*
X246000D01*
X243000Y161000D02*
Y167000D01*
X185013Y240000D02*
X191012D01*
X188013Y237000D02*
Y243000D01*
X183013Y229500D02*
Y250500D01*
X193013Y229500D02*
Y250500D01*
X183013D02*
X193013D01*
X183013Y229500D02*
X193013D01*
X165007Y240000D02*
X171007D01*
X168008Y237000D02*
Y243000D01*
X173008Y229500D02*
Y250500D01*
X163008Y229500D02*
Y250500D01*
Y229500D02*
X173008D01*
X163008Y250500D02*
X173008D01*
X175010Y240000D02*
X181010D01*
X178010Y237000D02*
Y243000D01*
X173010Y229500D02*
Y250500D01*
X183010Y229500D02*
Y250500D01*
X173010D02*
X183010D01*
X173010Y229500D02*
X183010D01*
X111500Y198000D02*
Y208000D01*
X90500Y198000D02*
Y208000D01*
X111500D01*
X90500Y198000D02*
X111500D01*
X98000Y203000D02*
X104000D01*
X101000Y200000D02*
Y206000D01*
X116000Y103500D02*
X122000D01*
X119000Y100500D02*
Y106500D01*
X124000Y93000D02*
Y114000D01*
X114000Y93000D02*
Y114000D01*
Y93000D02*
X124000D01*
X114000Y114000D02*
X124000D01*
X155500Y77500D02*
X164500D01*
X160000Y73000D02*
Y82000D01*
X167000Y63500D02*
Y91500D01*
X153000Y63500D02*
Y91500D01*
Y63500D02*
X167000D01*
X153000Y91500D02*
X167000D01*
X141497Y77500D02*
X150497D01*
X145997Y73000D02*
Y82000D01*
X138997Y63500D02*
Y91500D01*
X152997Y63500D02*
Y91500D01*
X138997D02*
X152997D01*
X138997Y63500D02*
X152997D01*
X209505Y160000D02*
X223505D01*
X209505Y188000D02*
X223505D01*
Y160000D02*
Y188000D01*
X209505Y160000D02*
Y188000D01*
X216505Y169500D02*
Y178500D01*
X212005Y174000D02*
X221005D01*
X205500Y211003D02*
Y220003D01*
X201000Y215503D02*
X210000D01*
X191500Y222503D02*
X219500D01*
X191500Y208503D02*
X219500D01*
Y222503D01*
X191500Y208503D02*
Y222503D01*
X95000Y170000D02*
X109000D01*
X95000Y198000D02*
X109000D01*
Y170000D02*
Y198000D01*
X95000Y170000D02*
Y198000D01*
X102000Y179500D02*
Y188500D01*
X97500Y184000D02*
X106500D01*
X40997Y87997D02*
X54997D01*
X40997Y115997D02*
X54997D01*
Y87997D02*
Y115997D01*
X40997Y87997D02*
Y115997D01*
X47997Y97497D02*
Y106497D01*
X43497Y101997D02*
X52497D01*
X26995Y87997D02*
X40995D01*
X26995Y115997D02*
X40995D01*
Y87997D02*
Y115997D01*
X26995Y87997D02*
Y115997D01*
X33995Y97497D02*
Y106497D01*
X29495Y101997D02*
X38495D01*
X75000Y12000D02*
Y21000D01*
X70500Y16500D02*
X79500D01*
X61000Y9500D02*
X89000D01*
X61000Y23500D02*
X89000D01*
X61000Y9500D02*
Y23500D01*
X89000Y9500D02*
Y23500D01*
X199000Y107500D02*
Y116500D01*
X194500Y112000D02*
X203500D01*
X185000Y105000D02*
X213000D01*
X185000Y119000D02*
X213000D01*
X185000Y105000D02*
Y119000D01*
X213000Y105000D02*
Y119000D01*
X400562Y274500D02*
Y283500D01*
X396062Y279000D02*
X405062D01*
X386562Y286000D02*
X414562D01*
X386562Y272000D02*
X414562D01*
Y286000D01*
X386562Y272000D02*
Y286000D01*
X415750Y194003D02*
Y203003D01*
X411250Y198503D02*
X420250D01*
X401750Y191503D02*
X429750D01*
X401750Y205503D02*
X429750D01*
X401750Y191503D02*
Y205503D01*
X429750Y191503D02*
Y205503D01*
X346500Y282250D02*
X355500D01*
X351000Y277750D02*
Y286750D01*
X358000Y268250D02*
Y296250D01*
X344000Y268250D02*
Y296250D01*
Y268250D02*
X358000D01*
X344000Y296250D02*
X358000D01*
X372125Y274500D02*
Y283500D01*
X367625Y279000D02*
X376625D01*
X358125Y286000D02*
X386125D01*
X358125Y272000D02*
X386125D01*
Y286000D01*
X358125Y272000D02*
Y286000D01*
X573000Y286500D02*
Y295500D01*
X568500Y291000D02*
X577500D01*
X559000Y284000D02*
X587000D01*
X559000Y298000D02*
X587000D01*
X559000Y284000D02*
Y298000D01*
X587000Y284000D02*
Y298000D01*
X627750Y357000D02*
X641750D01*
X627750Y329000D02*
X641750D01*
X627750D02*
Y357000D01*
X641750Y329000D02*
Y357000D01*
X634750Y338500D02*
Y347500D01*
X630250Y343000D02*
X639250D01*
X420000Y335000D02*
X434000D01*
X420000Y363000D02*
X434000D01*
Y335000D02*
Y363000D01*
X420000Y335000D02*
Y363000D01*
X427000Y344500D02*
Y353500D01*
X422500Y349000D02*
X431500D01*
X462000Y381500D02*
Y390500D01*
X457500Y386000D02*
X466500D01*
X448000Y393000D02*
X476000D01*
X448000Y379000D02*
X476000D01*
Y393000D01*
X448000Y379000D02*
Y393000D01*
X476000Y365000D02*
X490000D01*
X476000Y393000D02*
X490000D01*
Y365000D02*
Y393000D01*
X476000Y365000D02*
Y393000D01*
X483000Y374500D02*
Y383500D01*
X478500Y379000D02*
X487500D01*
X545000Y422500D02*
Y431500D01*
X540500Y427000D02*
X549500D01*
X531000Y420000D02*
X559000D01*
X531000Y434000D02*
X559000D01*
X531000Y420000D02*
Y434000D01*
X559000Y420000D02*
Y434000D01*
X473000Y413500D02*
Y422500D01*
X468500Y418000D02*
X477500D01*
X459000Y411000D02*
X487000D01*
X459000Y425000D02*
X487000D01*
X459000Y411000D02*
Y425000D01*
X487000Y411000D02*
Y425000D01*
X506500Y263500D02*
Y272500D01*
X502000Y268000D02*
X511000D01*
X492500Y275000D02*
X520500D01*
X492500Y261000D02*
X520500D01*
Y275000D01*
X492500Y261000D02*
Y275000D01*
X523000Y243500D02*
Y252500D01*
X518500Y248000D02*
X527500D01*
X509000Y241000D02*
X537000D01*
X509000Y255000D02*
X537000D01*
X509000Y241000D02*
Y255000D01*
X537000Y241000D02*
Y255000D01*
X508000Y214500D02*
Y223500D01*
X503500Y219000D02*
X512500D01*
X494000Y226000D02*
X522000D01*
X494000Y212000D02*
X522000D01*
Y226000D01*
X494000Y212000D02*
Y226000D01*
X539500Y241000D02*
X548500D01*
X544000Y236500D02*
Y245500D01*
X537000Y227000D02*
Y255000D01*
X551000Y227000D02*
Y255000D01*
X537000D02*
X551000D01*
X537000Y227000D02*
X551000D01*
X568500Y222000D02*
X577500D01*
X573000Y217500D02*
Y226500D01*
X580000Y208000D02*
Y236000D01*
X566000Y208000D02*
Y236000D01*
Y208000D02*
X580000D01*
X566000Y236000D02*
X580000D01*
X537000Y227000D02*
Y241000D01*
X509000Y227000D02*
Y241000D01*
X537000D01*
X509000Y227000D02*
X537000D01*
X518500Y234000D02*
X527500D01*
X523000Y229500D02*
Y238500D01*
X777000Y164500D02*
Y173500D01*
X772500Y169000D02*
X781500D01*
X763000Y162000D02*
X791000D01*
X763000Y176000D02*
X791000D01*
X763000Y162000D02*
Y176000D01*
X791000Y162000D02*
Y176000D01*
X735000Y142000D02*
X749000D01*
X735000Y114000D02*
X749000D01*
X735000D02*
Y142000D01*
X749000Y114000D02*
Y142000D01*
X742000Y123500D02*
Y132500D01*
X737500Y128000D02*
X746500D01*
X799002Y147578D02*
Y156579D01*
X794502Y152079D02*
X803502D01*
X785002Y159079D02*
X813002D01*
X785002Y145078D02*
X813002D01*
Y159079D01*
X785002Y145078D02*
Y159079D01*
X790000Y84000D02*
X804000D01*
X790000Y112000D02*
X804000D01*
Y84000D02*
Y112000D01*
X790000Y84000D02*
Y112000D01*
X797000Y93500D02*
Y102500D01*
X792500Y98000D02*
X801500D01*
X799002Y118573D02*
Y127573D01*
X794502Y123073D02*
X803502D01*
X785002Y130073D02*
X813002D01*
X785002Y116073D02*
X813002D01*
Y130073D01*
X785002Y116073D02*
Y130073D01*
X334502Y119997D02*
X344502D01*
X339502Y114997D02*
Y124997D01*
X320003Y89997D02*
Y149997D01*
X359002Y89997D02*
Y149997D01*
X320003D02*
X359002D01*
X320003Y89997D02*
X359002D01*
X502000Y298000D02*
Y358000D01*
X588000Y298000D02*
Y358000D01*
X502000Y298000D02*
X588000D01*
X502000Y358000D02*
X588000D01*
X540000Y328000D02*
X550000D01*
X545000Y323000D02*
Y333000D01*
X576000Y405003D02*
X586000D01*
X581000Y400003D02*
Y410003D01*
X561500Y375003D02*
Y435003D01*
X600500Y375003D02*
Y435003D01*
X561500D02*
X600500D01*
X561500Y375003D02*
X600500D01*
X491005Y375000D02*
X530005D01*
X491005Y435000D02*
X530005D01*
Y375000D02*
Y435000D01*
X491005Y375000D02*
Y435000D01*
X510505Y400000D02*
Y410000D01*
X505505Y405000D02*
X515505D01*
X540000Y197000D02*
X550000D01*
X545000Y192000D02*
Y202000D01*
X525500Y167000D02*
Y227000D01*
X564500Y167000D02*
Y227000D01*
X525500D02*
X564500D01*
X525500Y167000D02*
X564500D01*
X729000Y48500D02*
X739000D01*
X734000Y43500D02*
Y53500D01*
X753000Y25500D02*
Y71500D01*
X715000Y25500D02*
Y71500D01*
Y25500D02*
X753000D01*
X715000Y71500D02*
X753000D01*
X94500Y146000D02*
Y156000D01*
X115500Y146000D02*
Y156000D01*
X94500Y146000D02*
X115500D01*
X94500Y156000D02*
X115500D01*
X102000Y151000D02*
X108000D01*
X105000Y148000D02*
Y154000D01*
X599997Y24497D02*
X631997D01*
X599997Y76498D02*
X631997D01*
Y24497D02*
Y76498D01*
X599997Y24497D02*
Y76498D01*
X615997Y45497D02*
Y55497D01*
X610997Y50497D02*
X620997D01*
X102500Y352500D02*
X112500D01*
X107500Y347500D02*
Y357500D01*
X91500Y326500D02*
Y378500D01*
X123500Y326500D02*
Y378500D01*
X91500D02*
X123500D01*
X91500Y326500D02*
X123500D01*
X161505Y306497D02*
Y316497D01*
X156505Y311497D02*
X166505D01*
X135505Y295497D02*
X187505D01*
X135505Y327497D02*
X187505D01*
X135505Y295497D02*
Y327497D01*
X187505Y295497D02*
Y327497D01*
M02*
