G04*
G04 #@! TF.GenerationSoftware,Altium Limited,Altium Designer,22.6.1 (34)*
G04*
G04 Layer_Color=32768*
%FSLAX44Y44*%
%MOMM*%
G71*
G04*
G04 #@! TF.SameCoordinates,0BC7250A-E466-409B-9AFC-A4DADF5EADDD*
G04*
G04*
G04 #@! TF.FilePolarity,Positive*
G04*
G01*
G75*
%ADD118C,0.1400*%
%ADD154C,0.1000*%
%ADD155C,0.0100*%
%ADD156R,0.6052X1.3950*%
%ADD157R,0.6052X2.7900*%
%ADD158R,1.3950X0.6052*%
D118*
X675750Y173750D02*
X762000D01*
Y196250D01*
X756375D02*
X762000D01*
X756375D02*
Y398750D01*
X762000D01*
Y421250D01*
X675750D02*
X762000D01*
X675750Y173750D02*
Y421250D01*
D154*
X394247Y228500D02*
G03*
X394247Y228500I-5000J0D01*
G01*
X729000Y64000D02*
G03*
X729000Y64000I-5000J0D01*
G01*
X243502Y224499D02*
G03*
X243502Y224499I-2000J0D01*
G01*
X401000Y108000D02*
G03*
X401000Y108000I-5000J0D01*
G01*
X539000Y312000D02*
G03*
X539000Y312000I-5000J0D01*
G01*
X367247Y219500D02*
X398247D01*
X367247Y250500D02*
X398247D01*
Y219500D02*
Y250500D01*
X367247Y219500D02*
Y250500D01*
X180000Y297500D02*
Y362500D01*
X115000D02*
X180000D01*
X115000Y297500D02*
Y362500D01*
Y297500D02*
X180000D01*
X86997Y150498D02*
X111997D01*
X81997Y145498D02*
X86997Y150498D01*
X81997Y120498D02*
Y145498D01*
Y120498D02*
X106997D01*
X111997Y125498D01*
Y150498D01*
X584000Y180500D02*
X616000D01*
X584000Y209500D02*
X616000D01*
Y180500D02*
Y209500D01*
X584000Y180500D02*
Y209500D01*
X347500Y188500D02*
X422500D01*
X347500D02*
Y291500D01*
X422500D01*
Y188500D02*
Y291500D01*
X752000Y128750D02*
Y146250D01*
X782000Y128750D02*
Y146250D01*
X752000D02*
X782000D01*
X752000Y128750D02*
X782000D01*
X74500Y85492D02*
X90500D01*
Y56492D02*
Y85492D01*
X74500Y56492D02*
Y85492D01*
Y56492D02*
X90500D01*
X167500Y390250D02*
Y407750D01*
X136500Y390250D02*
Y407750D01*
X167500D01*
X136500Y390250D02*
X167500D01*
X139752Y362750D02*
X157252D01*
X139752Y332250D02*
X157252D01*
Y362750D01*
X139752Y332250D02*
Y362750D01*
X580000Y251800D02*
Y282200D01*
X594000Y251800D02*
Y282200D01*
X580000Y251800D02*
X594000D01*
X580000Y282200D02*
X594000D01*
X695000Y357500D02*
X709000D01*
X695000Y327500D02*
X709000D01*
Y357500D01*
X695000Y327500D02*
Y357500D01*
X715000Y55000D02*
X765000D01*
X715000Y95000D02*
X765000D01*
X715000Y55000D02*
Y95000D01*
X765000Y55000D02*
Y95000D01*
X67145Y178400D02*
X67145Y184750D01*
X67145Y178400D02*
X75400D01*
Y127600D02*
Y178400D01*
X67145Y127600D02*
X75400D01*
X67145D02*
X67145Y121250D01*
X32855Y184750D02*
X67145D01*
X32855D02*
X32855Y178400D01*
X24600D02*
X32855D01*
X24600Y127600D02*
Y178400D01*
Y127600D02*
X32855D01*
X32855Y121250D02*
X32855Y127600D01*
X32855Y121250D02*
X67145D01*
X202750Y273500D02*
Y294500D01*
X189250Y273500D02*
Y294500D01*
Y273500D02*
X202750D01*
X189250Y294500D02*
X202750D01*
X297500Y140500D02*
X314500D01*
X297500Y149500D02*
X314500D01*
X297500Y140500D02*
Y149500D01*
X314500Y140500D02*
Y149500D01*
X99250Y138000D02*
Y144000D01*
X110750Y138000D02*
Y144000D01*
X99250Y138000D02*
X110750D01*
X99250Y144000D02*
X110750D01*
X579000Y129500D02*
Y143500D01*
X597000Y129500D02*
Y143500D01*
X579000D02*
X597000D01*
X579000Y129500D02*
X597000D01*
X498500Y36000D02*
Y110000D01*
Y36000D02*
X519000D01*
Y40000D01*
X661000D01*
Y36000D02*
Y40000D01*
Y36000D02*
X681500D01*
Y110000D01*
X498500D02*
X681500D01*
X236500Y229500D02*
X261500D01*
X236500Y197500D02*
Y229500D01*
Y197500D02*
X261500D01*
Y229500D01*
Y197500D02*
Y229500D01*
X236500D02*
X261500D01*
X236500Y197500D02*
Y229500D01*
Y197500D02*
X261500D01*
X180252Y132742D02*
X197752D01*
X180252Y123242D02*
X197752D01*
Y132742D01*
X180252Y123242D02*
Y132742D01*
X672250Y346000D02*
Y352000D01*
X661250Y346000D02*
Y352000D01*
X672250D01*
X661250Y346000D02*
X672250D01*
X12000Y200200D02*
Y277200D01*
Y200200D02*
X38300D01*
X12000Y277200D02*
X38300D01*
Y200200D02*
Y277200D01*
X624000Y313000D02*
X656000D01*
X624000Y296000D02*
X656000D01*
X624000D02*
Y313000D01*
X656000Y296000D02*
Y313000D01*
X131500Y75500D02*
Y87500D01*
X111500D02*
X131500D01*
X111500Y75500D02*
Y87500D01*
Y75500D02*
X131500D01*
X284997Y316050D02*
X329997D01*
X284997Y343950D02*
X329997D01*
Y316050D02*
Y343950D01*
X284997Y316050D02*
Y343950D01*
X282500Y379750D02*
X292250Y370000D01*
X282500Y379750D02*
Y425000D01*
X337500D01*
Y379750D02*
Y425000D01*
X327750Y370000D02*
X337500Y379750D01*
X292250Y370000D02*
X327750D01*
X370500Y303000D02*
X415500D01*
X370500Y379000D02*
X415500D01*
Y303000D02*
Y379000D01*
X370500Y303000D02*
Y379000D01*
X494000Y312000D02*
Y348000D01*
X466000Y312000D02*
Y348000D01*
Y312000D02*
X494000D01*
X466000Y348000D02*
X494000D01*
X775500Y89998D02*
Y106997D01*
X766500Y89998D02*
Y106997D01*
Y89998D02*
X775500D01*
X766500Y106997D02*
X775500D01*
X161750Y192750D02*
X167250D01*
X161750Y182250D02*
X167250D01*
X161750D02*
Y192750D01*
X167250Y182250D02*
Y192750D01*
X130000Y132498D02*
X210000D01*
X130000Y212498D02*
X210000D01*
X130000Y132498D02*
Y212498D01*
X210000Y132498D02*
Y212498D01*
X61500Y10500D02*
Y39500D01*
Y10500D02*
X100500D01*
Y39500D01*
X61500D02*
X100500D01*
X551500Y20750D02*
X568500D01*
X551500Y11750D02*
X568500D01*
Y20750D01*
X551500Y11750D02*
Y20750D01*
X505500Y90250D02*
X514500D01*
X505500Y107250D02*
X514500D01*
Y90250D02*
Y107250D01*
X505500Y90250D02*
Y107250D01*
X576500Y51500D02*
Y68500D01*
X567500Y51500D02*
Y68500D01*
Y51500D02*
X576500D01*
X567500Y68500D02*
X576500D01*
X479500Y14500D02*
Y31500D01*
X488500Y14500D02*
Y31500D01*
X479500Y14500D02*
X488500D01*
X479500Y31500D02*
X488500D01*
X500500Y155500D02*
X517500D01*
X500500Y146500D02*
X517500D01*
X500500D02*
Y155500D01*
X517500Y146500D02*
Y155500D01*
X549252Y87750D02*
Y104750D01*
X558252Y87750D02*
Y104750D01*
X549252D02*
X558252D01*
X549252Y87750D02*
X558252D01*
X593257D02*
Y104750D01*
X584258Y87750D02*
Y104750D01*
Y87750D02*
X593257D01*
X584258Y104750D02*
X593257D01*
X647500Y126500D02*
X664500D01*
X647500Y135500D02*
X664500D01*
X647500Y126500D02*
Y135500D01*
X664500Y126500D02*
Y135500D01*
X617500D02*
X634500D01*
X617500Y126500D02*
X634500D01*
Y135500D01*
X617500Y126500D02*
Y135500D01*
X655750Y87750D02*
Y104750D01*
X646750Y87750D02*
Y104750D01*
Y87750D02*
X655750D01*
X646750Y104750D02*
X655750D01*
X644000Y20750D02*
X661000D01*
X644000Y11750D02*
X661000D01*
Y20750D01*
X644000Y11750D02*
Y20750D01*
X676000Y239250D02*
X693000D01*
X676000Y248250D02*
X693000D01*
X676000Y239250D02*
Y248250D01*
X693000Y239250D02*
Y248250D01*
X677250Y270500D02*
X694250D01*
X677250Y279500D02*
X694250D01*
X677250Y270500D02*
Y279500D01*
X694250Y270500D02*
Y279500D01*
X676000Y209250D02*
X693000D01*
X676000Y218250D02*
X693000D01*
X676000Y209250D02*
Y218250D01*
X693000Y209250D02*
Y218250D01*
X720997Y317995D02*
X729997D01*
X720997Y300995D02*
X729997D01*
X720997D02*
Y317995D01*
X729997Y300995D02*
Y317995D01*
X676000Y224250D02*
X693000D01*
X676000Y233250D02*
X693000D01*
X676000Y224250D02*
Y233250D01*
X693000Y224250D02*
Y233250D01*
X740250Y179000D02*
Y196000D01*
X731250Y179000D02*
Y196000D01*
Y179000D02*
X740250D01*
X731250Y196000D02*
X740250D01*
X677250Y285500D02*
X694250D01*
X677250Y294500D02*
X694250D01*
X677250Y285500D02*
Y294500D01*
X694250Y285500D02*
Y294500D01*
X676000Y194250D02*
X693000D01*
X676000Y203250D02*
X693000D01*
X676000Y194250D02*
Y203250D01*
X693000Y194250D02*
Y203250D01*
X809500Y354500D02*
Y371500D01*
X800500Y354500D02*
Y371500D01*
Y354500D02*
X809500D01*
X800500Y371500D02*
X809500D01*
X739000Y226992D02*
X756000D01*
X739000Y235992D02*
X756000D01*
X739000Y226992D02*
Y235992D01*
X756000Y226992D02*
Y235992D01*
X739000Y312995D02*
X756000D01*
X739000Y321995D02*
X756000D01*
X739000Y312995D02*
Y321995D01*
X756000Y312995D02*
Y321995D01*
X677250Y393250D02*
X694250D01*
X677250Y384250D02*
X694250D01*
Y393250D01*
X677250Y384250D02*
Y393250D01*
X778500Y371500D02*
X787500D01*
X778500Y354500D02*
X787500D01*
X778500D02*
Y371500D01*
X787500Y354500D02*
Y371500D01*
X712500Y264750D02*
X721500D01*
X712500Y247750D02*
X721500D01*
X712500D02*
Y264750D01*
X721500Y247750D02*
Y264750D01*
X677250Y375750D02*
X694250D01*
X677250Y366750D02*
X694250D01*
Y375750D01*
X677250Y366750D02*
Y375750D01*
Y409500D02*
X694250D01*
X677250Y400500D02*
X694250D01*
Y409500D01*
X677250Y400500D02*
Y409500D01*
X752500Y351500D02*
Y368500D01*
X761500Y351500D02*
Y368500D01*
X752500D02*
X761500D01*
X752500Y351500D02*
X761500D01*
X447002Y377250D02*
X456753Y367500D01*
X447002Y377250D02*
Y422500D01*
X502002D01*
Y377250D02*
Y422500D01*
X492253Y367500D02*
X502002Y377250D01*
X456753Y367500D02*
X492253D01*
X247500Y334500D02*
X292500D01*
X247500Y410500D02*
X292500D01*
Y334500D02*
Y410500D01*
X247500Y334500D02*
Y410500D01*
X225500Y344000D02*
X270500D01*
X225500Y420000D02*
X270500D01*
X225500Y344000D02*
Y420000D01*
X270500Y344000D02*
Y420000D01*
X121500Y398500D02*
Y415500D01*
X130500Y398500D02*
Y415500D01*
X121500Y398500D02*
X130500D01*
X121500Y415500D02*
X130500D01*
X127000Y404000D02*
Y421000D01*
X118000Y404000D02*
Y421000D01*
Y404000D02*
X127000D01*
X118000Y421000D02*
X127000D01*
X175500Y388500D02*
Y405500D01*
X184500Y388500D02*
Y405500D01*
X175500Y388500D02*
X184500D01*
X175500Y405500D02*
X184500D01*
X219000Y382000D02*
Y418000D01*
X191000Y382000D02*
Y418000D01*
X219000D01*
X191000Y382000D02*
X219000D01*
X48998Y342000D02*
X93997D01*
X48998Y418000D02*
X93997D01*
X48998Y342000D02*
Y418000D01*
X93997Y342000D02*
Y418000D01*
X42495Y347000D02*
Y383000D01*
X14495Y347000D02*
Y383000D01*
X42495D01*
X14495Y347000D02*
X42495D01*
X62500Y301500D02*
Y318500D01*
X53500Y301500D02*
Y318500D01*
X62500D01*
X53500Y301500D02*
X62500D01*
X668502Y32500D02*
Y68500D01*
X696502Y32500D02*
Y68500D01*
X668502D02*
X696502D01*
X668502Y32500D02*
X696502D01*
X710505Y43000D02*
Y60000D01*
X701505Y43000D02*
Y60000D01*
Y43000D02*
X710505D01*
X701505Y60000D02*
X710505D01*
X716500Y75002D02*
X733500D01*
X716500Y84003D02*
X733500D01*
X716500Y75002D02*
Y84003D01*
X733500Y75002D02*
Y84003D01*
X192008Y334500D02*
X237008D01*
X192008Y410500D02*
X237008D01*
Y334500D02*
Y410500D01*
X192008Y334500D02*
Y410500D01*
X185005Y339000D02*
Y356000D01*
X176005Y339000D02*
Y356000D01*
Y339000D02*
X185005D01*
X176005Y356000D02*
X185005D01*
X210500Y43003D02*
X227500D01*
X210500Y34003D02*
X227500D01*
Y43003D01*
X210500Y34003D02*
Y43003D01*
X211500Y53500D02*
X228500D01*
X211500Y62500D02*
X228500D01*
Y53500D02*
Y62500D01*
X211500Y53500D02*
Y62500D01*
Y34500D02*
X228500D01*
X211500Y43500D02*
X228500D01*
Y34500D02*
Y43500D01*
X211500Y34500D02*
Y43500D01*
X210500Y64500D02*
X227500D01*
X210500Y55500D02*
X227500D01*
Y64500D01*
X210500Y55500D02*
Y64500D01*
X505500Y16500D02*
X514500D01*
X505500Y33500D02*
X514500D01*
Y16500D02*
Y33500D01*
X505500Y16500D02*
Y33500D01*
X449574Y25500D02*
X466574D01*
X449574Y34500D02*
X466574D01*
Y25500D02*
Y34500D01*
X449574Y25500D02*
Y34500D01*
X492750Y80750D02*
X509750D01*
X492750Y71750D02*
X509750D01*
Y80750D01*
X492750Y71750D02*
Y80750D01*
X330500Y87500D02*
X347500D01*
X330500Y78500D02*
X347500D01*
Y87500D01*
X330500Y78500D02*
Y87500D01*
X361500Y159500D02*
X370500D01*
X361500Y142500D02*
X370500D01*
X361500D02*
Y159500D01*
X370500Y142500D02*
Y159500D01*
X361500Y112500D02*
X370500D01*
X361500Y129500D02*
X370500D01*
Y112500D02*
Y129500D01*
X361500Y112500D02*
Y129500D01*
X370500Y82500D02*
Y99500D01*
X361500Y82500D02*
Y99500D01*
Y82500D02*
X370500D01*
X361500Y99500D02*
X370500D01*
X379507Y125500D02*
X396508D01*
X379507Y134500D02*
X396508D01*
X379507Y125500D02*
Y134500D01*
X396508Y125500D02*
Y134500D01*
X379500Y82500D02*
X396500D01*
X379500Y91500D02*
X396500D01*
X379500Y82500D02*
Y91500D01*
X396500Y82500D02*
Y91500D01*
X309753Y289005D02*
Y306005D01*
X300753Y289005D02*
Y306005D01*
Y289005D02*
X309753D01*
X300753Y306005D02*
X309753D01*
X286750Y289005D02*
X295750D01*
X286750Y306005D02*
X295750D01*
Y289005D02*
Y306005D01*
X286750Y289005D02*
Y306005D01*
X341500Y300500D02*
Y309500D01*
X324500Y300500D02*
Y309500D01*
X341500D01*
X324500Y300500D02*
X341500D01*
X413500Y180500D02*
X430500D01*
X413500Y171500D02*
X430500D01*
X413500D02*
Y180500D01*
X430500Y171500D02*
Y180500D01*
X482500Y151500D02*
Y168500D01*
X491500Y151500D02*
Y168500D01*
X482500Y151500D02*
X491500D01*
X482500Y168500D02*
X491500D01*
X608500Y157500D02*
Y174500D01*
X599500Y157500D02*
Y174500D01*
X608500D01*
X599500Y157500D02*
X608500D01*
X746250Y195250D02*
X755250D01*
X746250Y212250D02*
X755250D01*
Y195250D02*
Y212250D01*
X746250Y195250D02*
Y212250D01*
X342500Y171500D02*
X359500D01*
X342500Y180500D02*
X359500D01*
Y171500D02*
Y180500D01*
X342500Y171500D02*
Y180500D01*
X633500Y275998D02*
X650500D01*
X633500Y266998D02*
X650500D01*
Y275998D01*
X633500Y266998D02*
Y275998D01*
X623500Y349500D02*
Y366500D01*
X614500Y349500D02*
Y366500D01*
X623500D01*
X614500Y349500D02*
X623500D01*
X708750Y179000D02*
X717750D01*
X708750Y196000D02*
X717750D01*
Y179000D02*
Y196000D01*
X708750Y179000D02*
Y196000D01*
X630247Y302500D02*
X639248D01*
X630247Y319500D02*
X639248D01*
Y302500D02*
Y319500D01*
X630247Y302500D02*
Y319500D01*
X573500Y153500D02*
X590500D01*
X573500Y162500D02*
X590500D01*
Y153500D02*
Y162500D01*
X573500Y153500D02*
Y162500D01*
X109250Y168250D02*
X114750D01*
X109250Y178750D02*
X114750D01*
X109250Y168250D02*
Y178750D01*
X114750Y168250D02*
Y178750D01*
X103500Y166000D02*
Y183000D01*
X94500Y166000D02*
Y183000D01*
X103500D01*
X94500Y166000D02*
X103500D01*
X116250Y175750D02*
Y186250D01*
X121750Y175750D02*
Y186250D01*
X116250D02*
X121750D01*
X116250Y175750D02*
X121750D01*
X175755Y141244D02*
X181255D01*
X175755Y151744D02*
X181255D01*
Y141244D02*
Y151744D01*
X175755Y141244D02*
Y151744D01*
X168750Y148750D02*
Y154250D01*
X158250Y148750D02*
Y154250D01*
X168750D01*
X158250Y148750D02*
X168750D01*
X150000Y135000D02*
X167000D01*
X150000Y144000D02*
X167000D01*
X150000Y135000D02*
Y144000D01*
X167000Y135000D02*
Y144000D01*
X224250Y218250D02*
X229750D01*
X224250Y228750D02*
X229750D01*
X224250Y218250D02*
Y228750D01*
X229750Y218250D02*
Y228750D01*
X224250Y208750D02*
X229750D01*
X224250Y198250D02*
X229750D01*
Y208750D01*
X224250Y198250D02*
Y208750D01*
X126250Y94250D02*
Y99750D01*
X136750Y94250D02*
Y99750D01*
X126250D02*
X136750D01*
X126250Y94250D02*
X136750D01*
X116747Y94250D02*
Y99750D01*
X106247Y94250D02*
Y99750D01*
Y94250D02*
X116747D01*
X106247Y99750D02*
X116747D01*
X190750Y158750D02*
Y164250D01*
X180250Y158750D02*
Y164250D01*
X190750D01*
X180250Y158750D02*
X190750D01*
Y169750D02*
Y175250D01*
X180250Y169750D02*
Y175250D01*
X190750D01*
X180250Y169750D02*
X190750D01*
X198002Y166998D02*
X207003D01*
X198002Y149998D02*
X207003D01*
X198002D02*
Y166998D01*
X207003Y149998D02*
Y166998D01*
X183750Y192750D02*
X189250D01*
X183750Y182250D02*
X189250D01*
X183750D02*
Y192750D01*
X189250Y182250D02*
Y192750D01*
X178250Y182250D02*
Y192750D01*
X172750Y182250D02*
Y192750D01*
Y182250D02*
X178250D01*
X172750Y192750D02*
X178250D01*
X149750Y158750D02*
Y164250D01*
X160250Y158750D02*
Y164250D01*
X149750Y158750D02*
X160250D01*
X149750Y164250D02*
X160250D01*
X149750Y169750D02*
Y175250D01*
X160250Y169750D02*
Y175250D01*
X149750Y169750D02*
X160250D01*
X149750Y175250D02*
X160250D01*
X203002Y185000D02*
Y202000D01*
X194002Y185000D02*
Y202000D01*
Y185000D02*
X203002D01*
X194002Y202000D02*
X203002D01*
X66500Y93000D02*
X83500D01*
X66500Y102000D02*
X83500D01*
X66500Y93000D02*
Y102000D01*
X83500Y93000D02*
Y102000D01*
X101500Y158500D02*
X118500D01*
X101500Y167500D02*
X118500D01*
X101500Y158500D02*
Y167500D01*
X118500Y158500D02*
Y167500D01*
X146500Y22500D02*
X163500D01*
X146500Y13500D02*
X163500D01*
X146500D02*
Y22500D01*
X163500Y13500D02*
Y22500D01*
X65500Y35000D02*
X82500D01*
X65500Y26000D02*
X82500D01*
Y35000D01*
X65500Y26000D02*
Y35000D01*
X66500Y40490D02*
X83500D01*
X66500Y49490D02*
X83500D01*
X66500Y40490D02*
Y49490D01*
X83500Y40490D02*
Y49490D01*
X376500Y82500D02*
X393500D01*
X376500Y91500D02*
X393500D01*
Y82500D02*
Y91500D01*
X376500Y82500D02*
Y91500D01*
X405812Y265562D02*
X414813D01*
X405812Y248563D02*
X414813D01*
X405812D02*
Y265562D01*
X414813Y248563D02*
Y265562D01*
X549500Y366500D02*
X558500D01*
X549500Y383500D02*
X558500D01*
Y366500D02*
Y383500D01*
X549500Y366500D02*
Y383500D01*
X616247Y332500D02*
X625247D01*
X616247Y349500D02*
X625247D01*
Y332500D02*
Y349500D01*
X616247Y332500D02*
Y349500D01*
X644250Y349500D02*
X653250D01*
X644250Y366500D02*
X653250D01*
Y349500D02*
Y366500D01*
X644250Y349500D02*
Y366500D01*
Y335500D02*
X653250D01*
X644250Y318500D02*
X653250D01*
X644250D02*
Y335500D01*
X653250Y318500D02*
Y335500D01*
X560500Y400500D02*
Y417500D01*
X569500Y400500D02*
Y417500D01*
X560500Y400500D02*
X569500D01*
X560500Y417500D02*
X569500D01*
X513500Y383500D02*
X530500D01*
X513500Y374500D02*
X530500D01*
X513500D02*
Y383500D01*
X530500Y374500D02*
Y383500D01*
X496500Y372500D02*
X513500D01*
X496500Y363500D02*
X513500D01*
Y372500D01*
X496500Y363500D02*
Y372500D01*
X558500Y396500D02*
Y413500D01*
X549500Y396500D02*
Y413500D01*
Y396500D02*
X558500D01*
X549500Y413500D02*
X558500D01*
X467500Y399500D02*
X484500D01*
X467500Y408500D02*
X484500D01*
X467500Y399500D02*
Y408500D01*
X484500Y399500D02*
Y408500D01*
X572500Y372500D02*
X589500D01*
X572500Y363500D02*
X589500D01*
Y372500D01*
X572500Y363500D02*
Y372500D01*
X554500Y277500D02*
X571500D01*
X554500Y286500D02*
X571500D01*
Y277500D02*
Y286500D01*
X554500Y277500D02*
Y286500D01*
X519500Y277500D02*
X536500D01*
X519500Y286500D02*
X536500D01*
Y277500D02*
Y286500D01*
X519500Y277500D02*
Y286500D01*
X493500Y238500D02*
Y255500D01*
X502500Y238500D02*
Y255500D01*
X493500Y238500D02*
X502500D01*
X493500Y255500D02*
X502500D01*
X599500Y250500D02*
X616500D01*
X599500Y259500D02*
X616500D01*
Y250500D02*
Y259500D01*
X599500Y250500D02*
Y259500D01*
X586500Y162500D02*
X603500D01*
X586500Y153500D02*
X603500D01*
Y162500D01*
X586500Y153500D02*
Y162500D01*
X536500Y155500D02*
Y164500D01*
X553500Y155500D02*
Y164500D01*
X536500Y155500D02*
X553500D01*
X536500Y164500D02*
X553500D01*
X522500Y188500D02*
Y205500D01*
X513500Y188500D02*
Y205500D01*
Y188500D02*
X522500D01*
X513500Y205500D02*
X522500D01*
X577500Y184500D02*
Y201500D01*
X568500Y184500D02*
Y201500D01*
Y184500D02*
X577500D01*
X568500Y201500D02*
X577500D01*
X731500Y29500D02*
X748500D01*
X731500Y20500D02*
X748500D01*
X731500D02*
Y29500D01*
X748500Y20500D02*
Y29500D01*
X771500Y89500D02*
Y106500D01*
X780500Y89500D02*
Y106500D01*
X771500Y89500D02*
X780500D01*
X771500Y106500D02*
X780500D01*
X735808Y135828D02*
X747829Y123808D01*
X742172Y142192D02*
X754192Y130171D01*
X747829Y123808D02*
X754192Y130171D01*
X735808Y135828D02*
X742172Y142192D01*
X791500Y149500D02*
X808500D01*
X791500Y158500D02*
X808500D01*
Y149500D02*
Y158500D01*
X791500Y149500D02*
Y158500D01*
X761500D02*
X778500D01*
X761500Y149500D02*
X778500D01*
X761500D02*
Y158500D01*
X778500Y149500D02*
Y158500D01*
X791502Y133076D02*
X808502D01*
X791502Y142076D02*
X808502D01*
X791502Y133076D02*
Y142076D01*
X808502Y133076D02*
Y142076D01*
X569000Y9250D02*
Y23250D01*
X551000Y9250D02*
Y23250D01*
Y9250D02*
X569000D01*
X551000Y23250D02*
X569000D01*
X534503Y87250D02*
Y105250D01*
X520503Y87250D02*
Y105250D01*
Y87250D02*
X534503D01*
X520503Y105250D02*
X534503D01*
X583000Y45000D02*
X597000D01*
X583000Y63000D02*
X597000D01*
Y45000D02*
Y63000D01*
X583000Y45000D02*
Y63000D01*
X524000Y9250D02*
Y23250D01*
X506000Y9250D02*
Y23250D01*
Y9250D02*
X524000D01*
X506000Y23250D02*
X524000D01*
X519000Y126000D02*
Y140000D01*
X537000Y126000D02*
Y140000D01*
X519000D02*
X537000D01*
X519000Y126000D02*
X537000D01*
X564255Y105250D02*
X578255D01*
X564255Y87250D02*
X578255D01*
X564255D02*
Y105250D01*
X578255Y87250D02*
Y105250D01*
X656000Y132000D02*
Y146000D01*
X638000Y132000D02*
Y146000D01*
Y132000D02*
X656000D01*
X638000Y146000D02*
X656000D01*
X603000Y106500D02*
X617000D01*
X603000Y88500D02*
X617000D01*
X603000D02*
Y106500D01*
X617000Y88500D02*
Y106500D01*
X624250D02*
X638250D01*
X624250Y88500D02*
X638250D01*
X624250D02*
Y106500D01*
X638250Y88500D02*
Y106500D01*
X653000Y233000D02*
Y247000D01*
X635000Y233000D02*
Y247000D01*
Y233000D02*
X653000D01*
X635000Y247000D02*
X653000D01*
Y254000D02*
Y268000D01*
X635000Y254000D02*
Y268000D01*
Y254000D02*
X653000D01*
X635000Y268000D02*
X653000D01*
Y191000D02*
Y205000D01*
X635000Y191000D02*
Y205000D01*
Y191000D02*
X653000D01*
X635000Y205000D02*
X653000D01*
X784000Y293000D02*
Y307000D01*
X802000Y293000D02*
Y307000D01*
X784000Y293000D02*
X802000D01*
X784000Y307000D02*
X802000D01*
X786000Y199000D02*
X800000D01*
X786000Y229000D02*
X800000D01*
Y199000D02*
Y229000D01*
X786000Y199000D02*
Y229000D01*
X653000Y212000D02*
Y226000D01*
X635000Y212000D02*
Y226000D01*
Y212000D02*
X653000D01*
X635000Y226000D02*
X653000D01*
X780000Y189497D02*
Y203497D01*
X798000Y189497D02*
Y203497D01*
X780000Y189497D02*
X798000D01*
X780000Y203497D02*
X798000D01*
X653000Y276000D02*
Y290000D01*
X635000Y276000D02*
Y290000D01*
Y276000D02*
X653000D01*
X635000Y290000D02*
X653000D01*
Y170000D02*
Y184000D01*
X635000Y170000D02*
Y184000D01*
Y170000D02*
X653000D01*
X635000Y184000D02*
X653000D01*
X797000Y377000D02*
X811000D01*
X797000Y359000D02*
X811000D01*
Y377000D01*
X797000Y359000D02*
Y377000D01*
X753500Y243000D02*
Y257000D01*
X735500Y243000D02*
Y257000D01*
X753500D01*
X735500Y243000D02*
X753500D01*
X754000Y327998D02*
Y341997D01*
X736000Y327998D02*
Y341997D01*
X754000D01*
X736000Y327998D02*
X754000D01*
X653000Y379000D02*
Y393000D01*
X635000Y379000D02*
Y393000D01*
Y379000D02*
X653000D01*
X635000Y393000D02*
X653000D01*
X776000Y377000D02*
X790000D01*
X776000Y359000D02*
X790000D01*
Y377000D01*
X776000Y359000D02*
Y377000D01*
X754750Y268000D02*
Y282000D01*
X736750Y268000D02*
Y282000D01*
X754750D01*
X736750Y268000D02*
X754750D01*
X647000Y364000D02*
X661000D01*
X647000Y346000D02*
X661000D01*
Y364000D01*
X647000Y346000D02*
Y364000D01*
X653000Y400000D02*
Y414000D01*
X635000Y400000D02*
Y414000D01*
Y400000D02*
X653000D01*
X635000Y414000D02*
X653000D01*
X598000Y316500D02*
X612000D01*
X598000Y298500D02*
X612000D01*
Y316500D01*
X598000Y298500D02*
Y316500D01*
X253000Y21000D02*
Y39000D01*
X239000Y21000D02*
Y39000D01*
Y21000D02*
X253000D01*
X239000Y39000D02*
X253000D01*
X260000Y21000D02*
Y39000D01*
X274000Y21000D02*
Y39000D01*
X260000D02*
X274000D01*
X260000Y21000D02*
X274000D01*
X244000Y64000D02*
X258000D01*
X244000Y82000D02*
X258000D01*
X244000Y64000D02*
Y82000D01*
X258000Y64000D02*
Y82000D01*
X265000D02*
X279000D01*
X265000Y64000D02*
X279000D01*
Y82000D01*
X265000Y64000D02*
Y82000D01*
X244000Y39000D02*
X258000D01*
X244000Y21000D02*
X258000D01*
Y39000D01*
X244000Y21000D02*
Y39000D01*
X265000Y21000D02*
X279000D01*
X265000Y39000D02*
X279000D01*
X265000Y21000D02*
Y39000D01*
X279000Y21000D02*
Y39000D01*
X239000Y64000D02*
Y82000D01*
X253000Y64000D02*
Y82000D01*
X239000D02*
X253000D01*
X239000Y64000D02*
X253000D01*
X274000D02*
Y82000D01*
X260000Y64000D02*
Y82000D01*
Y64000D02*
X274000D01*
X260000Y82000D02*
X274000D01*
X429000Y107000D02*
X443000D01*
X429000Y125000D02*
X443000D01*
Y107000D02*
Y125000D01*
X429000Y107000D02*
Y125000D01*
X465000Y83000D02*
Y101000D01*
X451000Y83000D02*
Y101000D01*
Y83000D02*
X465000D01*
X451000Y101000D02*
X465000D01*
X421000Y107000D02*
Y125000D01*
X407000Y107000D02*
Y125000D01*
Y107000D02*
X421000D01*
X407000Y125000D02*
X421000D01*
X415008Y77000D02*
Y91000D01*
X433008Y77000D02*
Y91000D01*
X415008Y77000D02*
X433008D01*
X415008Y91000D02*
X433008D01*
X482250Y138750D02*
X499750D01*
X482250Y129250D02*
X499750D01*
X482250D02*
Y138750D01*
X499750Y129250D02*
Y138750D01*
X553250Y132750D02*
Y150250D01*
X562750Y132750D02*
Y150250D01*
X553250Y132750D02*
X562750D01*
X553250Y150250D02*
X562750D01*
X655750Y153253D02*
Y162753D01*
X638250Y153253D02*
Y162753D01*
Y153253D02*
X655750D01*
X638250Y162753D02*
X655750D01*
X715250Y168747D02*
X732750D01*
X715250Y159248D02*
X732750D01*
Y168747D01*
X715250Y159248D02*
Y168747D01*
X784000Y180500D02*
X790000D01*
X784000Y191500D02*
X790000D01*
X784000Y180500D02*
Y191500D01*
X790000Y180500D02*
Y191500D01*
X797000Y180500D02*
X803000D01*
X797000Y191500D02*
X803000D01*
X797000Y180500D02*
Y191500D01*
X803000Y180500D02*
Y191500D01*
X599250Y275750D02*
X616750D01*
X599250Y266250D02*
X616750D01*
X599250D02*
Y275750D01*
X616750Y266250D02*
Y275750D01*
X633250Y282250D02*
X650750D01*
X633250Y291750D02*
X650750D01*
X633250Y282250D02*
Y291750D01*
X650750Y282250D02*
Y291750D01*
X766252Y213750D02*
X775752D01*
X766252Y231250D02*
X775752D01*
Y213750D02*
Y231250D01*
X766252Y213750D02*
Y231250D01*
X672250Y333000D02*
Y339000D01*
X661250Y333000D02*
Y339000D01*
X672250D01*
X661250Y333000D02*
X672250D01*
X679500Y264750D02*
X697000D01*
X679500Y255250D02*
X697000D01*
Y264750D01*
X679500Y255250D02*
Y264750D01*
X648500Y308248D02*
X666000D01*
X648500Y298748D02*
X666000D01*
Y308248D01*
X648500Y298748D02*
Y308248D01*
X630250Y349250D02*
Y366750D01*
X639750Y349250D02*
Y366750D01*
X630250Y349250D02*
X639750D01*
X630250Y366750D02*
X639750D01*
X425000Y343500D02*
Y408500D01*
X360000D02*
X425000D01*
X360000Y343500D02*
Y408500D01*
Y343500D02*
X425000D01*
X524000Y159800D02*
Y190200D01*
X538000Y159800D02*
Y190200D01*
X524000D02*
X538000D01*
X524000Y159800D02*
X538000D01*
X636500Y193492D02*
X653500D01*
X636500Y202492D02*
X653500D01*
X636500Y193492D02*
Y202492D01*
X653500Y193492D02*
Y202492D01*
X636500Y207495D02*
X653500D01*
X636500Y216495D02*
X653500D01*
X636500Y207495D02*
Y216495D01*
X653500Y207495D02*
Y216495D01*
X636500Y221497D02*
X653500D01*
X636500Y230497D02*
X653500D01*
X636500Y221497D02*
Y230497D01*
X653500Y221497D02*
Y230497D01*
X636500Y235500D02*
X653500D01*
X636500Y244500D02*
X653500D01*
X636500Y235500D02*
Y244500D01*
X653500Y235500D02*
Y244500D01*
X640500Y415500D02*
X657500D01*
X640500Y406500D02*
X657500D01*
Y415500D01*
X640500Y406500D02*
Y415500D01*
Y429500D02*
X657500D01*
X640500Y420500D02*
X657500D01*
Y429500D01*
X640500Y420500D02*
Y429500D01*
X631500Y389500D02*
X648500D01*
X631500Y398500D02*
X648500D01*
X631500Y389500D02*
Y398500D01*
X648500Y389500D02*
Y398500D01*
X630500Y429500D02*
X647500D01*
X630500Y420500D02*
X647500D01*
X630500D02*
Y429500D01*
X647500Y420500D02*
Y429500D01*
X737500Y368500D02*
X746500D01*
X737500Y351500D02*
X746500D01*
X737500D02*
Y368500D01*
X746500Y351500D02*
Y368500D01*
X239500Y316750D02*
X260500D01*
X239500Y303250D02*
X260500D01*
X239500D02*
Y316750D01*
X260500Y303250D02*
Y316750D01*
X216750Y321500D02*
Y342500D01*
X203250Y321500D02*
Y342500D01*
X216750D01*
X203250Y321500D02*
X216750D01*
X69250Y299500D02*
Y320500D01*
X82750Y299500D02*
Y320500D01*
X69250Y299500D02*
X82750D01*
X69250Y320500D02*
X82750D01*
X134002Y404000D02*
Y421000D01*
X143002Y404000D02*
Y421000D01*
X134002D02*
X143002D01*
X134002Y404000D02*
X143002D01*
X157500Y403500D02*
Y420500D01*
X148500Y403500D02*
Y420500D01*
Y403500D02*
X157500D01*
X148500Y420500D02*
X157500D01*
X755502Y22000D02*
X764502D01*
X755502Y39000D02*
X764502D01*
Y22000D02*
Y39000D01*
X755502Y22000D02*
Y39000D01*
X755502Y67003D02*
X764502D01*
X755502Y50003D02*
X764502D01*
X755502D02*
Y67003D01*
X764502Y50003D02*
Y67003D01*
X638250Y27000D02*
X659250D01*
X638250Y40500D02*
X659250D01*
X638250Y27000D02*
Y40500D01*
X659250Y27000D02*
Y40500D01*
X717500Y20500D02*
X734500D01*
X717500Y11500D02*
X734500D01*
Y20500D01*
X717500Y11500D02*
Y20500D01*
X71250Y299500D02*
Y320500D01*
X84750Y299500D02*
Y320500D01*
X71250D02*
X84750D01*
X71250Y299500D02*
X84750D01*
X294500Y17500D02*
X303500D01*
X294500Y34500D02*
X303500D01*
Y17500D02*
Y34500D01*
X294500Y17500D02*
Y34500D01*
X210500Y20000D02*
X227500D01*
X210500Y29000D02*
X227500D01*
X210500Y20000D02*
Y29000D01*
X227500Y20000D02*
Y29000D01*
X280500Y36500D02*
X289500D01*
X280500Y19500D02*
X289500D01*
X280500D02*
Y36500D01*
X289500Y19500D02*
Y36500D01*
X298500Y55500D02*
Y72500D01*
X307500Y55500D02*
Y72500D01*
X298500Y55500D02*
X307500D01*
X298500Y72500D02*
X307500D01*
X216500Y77000D02*
X233500D01*
X216500Y68000D02*
X233500D01*
X216500D02*
Y77000D01*
X233500Y68000D02*
Y77000D01*
X293500Y55500D02*
Y72500D01*
X284500Y55500D02*
Y72500D01*
X293500D01*
X284500Y55500D02*
X293500D01*
X309500Y15500D02*
Y32500D01*
X300500Y15500D02*
Y32500D01*
X309500D01*
X300500Y15500D02*
X309500D01*
X216500Y29000D02*
X233500D01*
X216500Y20000D02*
X233500D01*
X216500D02*
Y29000D01*
X233500Y20000D02*
Y29000D01*
X284500Y15500D02*
Y32500D01*
X293500Y15500D02*
Y32500D01*
X284500Y15500D02*
X293500D01*
X284500Y32500D02*
X293500D01*
X303500Y48500D02*
Y65500D01*
X294500Y48500D02*
Y65500D01*
Y48500D02*
X303500D01*
X294500Y65500D02*
X303500D01*
X209500Y69500D02*
X226500D01*
X209500Y78500D02*
X226500D01*
X209500Y69500D02*
Y78500D01*
X226500Y69500D02*
Y78500D01*
X280500Y55500D02*
X289500D01*
X280500Y72500D02*
X289500D01*
Y55500D02*
Y72500D01*
X280500Y55500D02*
Y72500D01*
X491497Y16500D02*
X500497D01*
X491497Y33500D02*
X500497D01*
Y16500D02*
Y33500D01*
X491497Y16500D02*
Y33500D01*
X448574Y40500D02*
X465574D01*
X448574Y49500D02*
X465574D01*
Y40500D02*
Y49500D01*
X448574Y40500D02*
Y49500D01*
X473500Y90500D02*
X482500D01*
X473500Y107500D02*
X482500D01*
Y90500D02*
Y107500D01*
X473500Y90500D02*
Y107500D01*
X522750Y11750D02*
X539750D01*
X522750Y20750D02*
X539750D01*
X522750Y11750D02*
Y20750D01*
X539750Y11750D02*
Y20750D01*
X448500Y20497D02*
X465500D01*
X448500Y11497D02*
X465500D01*
X448500D02*
Y20497D01*
X465500Y11497D02*
Y20497D01*
X497500Y90500D02*
Y107500D01*
X488500Y90500D02*
Y107500D01*
Y90500D02*
X497500D01*
X488500Y107500D02*
X497500D01*
X297500Y163500D02*
X314500D01*
X297500Y154500D02*
X314500D01*
Y163500D01*
X297500Y154500D02*
Y163500D01*
X378500Y154500D02*
X395500D01*
X378500Y163500D02*
X395500D01*
X378500Y154500D02*
Y163500D01*
X395500Y154500D02*
Y163500D01*
X379500Y105500D02*
X396500D01*
X379500Y96500D02*
X396500D01*
Y105500D01*
X379500Y96500D02*
Y105500D01*
X556500Y42500D02*
X573500D01*
X556500Y33500D02*
X573500D01*
Y42500D01*
X556500Y33500D02*
Y42500D01*
X379500Y120497D02*
X396500D01*
X379500Y111497D02*
X396500D01*
Y120497D01*
X379500Y111497D02*
Y120497D01*
X777500Y318731D02*
X794500D01*
X777500Y327731D02*
X794500D01*
X777500Y318731D02*
Y327731D01*
X794500Y318731D02*
Y327731D01*
X792500Y332734D02*
X809500D01*
X792500Y341734D02*
X809500D01*
X792500Y332734D02*
Y341734D01*
X809500Y332734D02*
Y341734D01*
X552500Y68500D02*
X561500D01*
X552500Y51500D02*
X561500D01*
X552500D02*
Y68500D01*
X561500Y51500D02*
Y68500D01*
X457500Y212500D02*
X474500D01*
X457500Y221500D02*
X474500D01*
X457500Y212500D02*
Y221500D01*
X474500Y212500D02*
Y221500D01*
X457500Y243500D02*
X474500D01*
X457500Y252500D02*
X474500D01*
X457500Y243500D02*
Y252500D01*
X474500Y243500D02*
Y252500D01*
X291500Y265500D02*
X308500D01*
X291500Y256500D02*
X308500D01*
Y265500D01*
X291500Y256500D02*
Y265500D01*
Y237500D02*
X308500D01*
X291500Y228500D02*
X308500D01*
Y237500D01*
X291500Y228500D02*
Y237500D01*
X423750Y221750D02*
X440750D01*
X423750Y212750D02*
X440750D01*
Y221750D01*
X423750Y212750D02*
Y221750D01*
Y252625D02*
X440750D01*
X423750Y243625D02*
X440750D01*
Y252625D01*
X423750Y243625D02*
Y252625D01*
X335250Y256500D02*
X352250D01*
X335250Y265500D02*
X352250D01*
X335250Y256500D02*
Y265500D01*
X352250Y256500D02*
Y265500D01*
X335250Y228500D02*
X352250D01*
X335250Y237500D02*
X352250D01*
X335250Y228500D02*
Y237500D01*
X352250Y228500D02*
Y237500D01*
X457500Y227500D02*
X474500D01*
X457500Y236500D02*
X474500D01*
X457500Y227500D02*
Y236500D01*
X474500Y227500D02*
Y236500D01*
X457500Y258500D02*
X474500D01*
X457500Y267500D02*
X474500D01*
X457500Y258500D02*
Y267500D01*
X474500Y258500D02*
Y267500D01*
X291500Y251500D02*
X308500D01*
X291500Y242500D02*
X308500D01*
Y251500D01*
X291500Y242500D02*
Y251500D01*
Y223500D02*
X308500D01*
X291500Y214500D02*
X308500D01*
Y223500D01*
X291500Y214500D02*
Y223500D01*
X423750Y236375D02*
X440750D01*
X423750Y227375D02*
X440750D01*
Y236375D01*
X423750Y227375D02*
Y236375D01*
Y267250D02*
X440750D01*
X423750Y258250D02*
X440750D01*
Y267250D01*
X423750Y258250D02*
Y267250D01*
X335250Y242500D02*
X352250D01*
X335250Y251500D02*
X352250D01*
X335250Y242500D02*
Y251500D01*
X352250Y242500D02*
Y251500D01*
X335250Y214500D02*
X352250D01*
X335250Y223500D02*
X352250D01*
X335250Y214500D02*
Y223500D01*
X352250Y214500D02*
Y223500D01*
X317500Y294500D02*
X334500D01*
X317500Y285500D02*
X334500D01*
Y294500D01*
X317500Y285500D02*
Y294500D01*
X451500Y150500D02*
Y167500D01*
X460500Y150500D02*
Y167500D01*
X451500Y150500D02*
X460500D01*
X451500Y167500D02*
X460500D01*
X159500Y267500D02*
Y284500D01*
X168500Y267500D02*
Y284500D01*
X159500D02*
X168500D01*
X159500Y267500D02*
X168500D01*
X497500Y166500D02*
Y183500D01*
X506500Y166500D02*
Y183500D01*
X497500Y166500D02*
X506500D01*
X497500Y183500D02*
X506500D01*
X296500Y184500D02*
X313500D01*
X296500Y193500D02*
X313500D01*
Y184500D02*
Y193500D01*
X296500Y184500D02*
Y193500D01*
X555500Y162500D02*
Y179500D01*
X564500Y162500D02*
Y179500D01*
X555500Y162500D02*
X564500D01*
X555500Y179500D02*
X564500D01*
X579500Y247500D02*
X596500D01*
X579500Y238500D02*
X596500D01*
Y247500D01*
X579500Y238500D02*
Y247500D01*
X553247Y277000D02*
X562247D01*
X553247Y260000D02*
X562247D01*
X553247D02*
Y277000D01*
X562247Y260000D02*
Y277000D01*
X307500Y137500D02*
X324500D01*
X307500Y146500D02*
X324500D01*
Y137500D02*
Y146500D01*
X307500Y137500D02*
Y146500D01*
X319500Y161500D02*
X336500D01*
X319500Y152500D02*
X336500D01*
X319500D02*
Y161500D01*
X336500Y152500D02*
Y161500D01*
X126000Y97750D02*
X132000D01*
X126000Y109250D02*
X132000D01*
Y97750D02*
Y109250D01*
X126000Y97750D02*
Y109250D01*
X105997Y97750D02*
Y109250D01*
X111997Y97750D02*
Y109250D01*
X105997D02*
X111997D01*
X105997Y97750D02*
X111997D01*
X156997Y107750D02*
X162997D01*
X156997Y96250D02*
X162997D01*
Y107750D01*
X156997Y96250D02*
Y107750D01*
X118000Y267750D02*
X127000D01*
X118000Y284750D02*
X127000D01*
Y267750D02*
Y284750D01*
X118000Y267750D02*
Y284750D01*
X135500Y267750D02*
Y284750D01*
X144500Y267750D02*
Y284750D01*
X135500D02*
X144500D01*
X135500Y267750D02*
X144500D01*
X167000Y96250D02*
X173000D01*
X167000Y107750D02*
X173000D01*
X167000Y96250D02*
Y107750D01*
X173000Y96250D02*
Y107750D01*
X106750Y230000D02*
Y236000D01*
X95250Y230000D02*
Y236000D01*
X106750D01*
X95250Y230000D02*
X106750D01*
X177000Y96250D02*
X183000D01*
X177000Y107750D02*
X183000D01*
X177000Y96250D02*
Y107750D01*
X183000Y96250D02*
Y107750D01*
X241750Y102000D02*
Y108000D01*
X230250Y102000D02*
Y108000D01*
Y102000D02*
X241750D01*
X230250Y108000D02*
X241750D01*
X230250Y177010D02*
Y183010D01*
X241750Y177010D02*
Y183010D01*
X230250D02*
X241750D01*
X230250Y177010D02*
X241750D01*
X241750Y111000D02*
Y117000D01*
X230250Y111000D02*
Y117000D01*
Y111000D02*
X241750D01*
X230250Y117000D02*
X241750D01*
X237250Y174000D02*
Y180000D01*
X248750Y174000D02*
Y180000D01*
X237250Y174000D02*
X248750D01*
X237250Y180000D02*
X248750D01*
X241750Y121000D02*
Y127000D01*
X230250Y121000D02*
Y127000D01*
Y121000D02*
X241750D01*
X230250Y127000D02*
X241750D01*
X161007Y247750D02*
X167008D01*
X161007Y236250D02*
X167008D01*
Y247750D01*
X161007Y236250D02*
Y247750D01*
X151005D02*
X157005D01*
X151005Y236250D02*
X157005D01*
Y247750D01*
X151005Y236250D02*
Y247750D01*
X161005Y234250D02*
Y245750D01*
X155005Y234250D02*
Y245750D01*
Y234250D02*
X161005D01*
X155005Y245750D02*
X161005D01*
X141003Y247750D02*
X147002D01*
X141003Y236250D02*
X147002D01*
Y247750D01*
X141003Y236250D02*
Y247750D01*
X136002Y234250D02*
X142002D01*
X136002Y245750D02*
X142002D01*
Y234250D02*
Y245750D01*
X136002Y234250D02*
Y245750D01*
X93750Y224500D02*
Y230500D01*
X105250Y224500D02*
Y230500D01*
X93750D02*
X105250D01*
X93750Y224500D02*
X105250D01*
X126000Y234250D02*
X132000D01*
X126000Y245750D02*
X132000D01*
Y234250D02*
Y245750D01*
X126000Y234250D02*
Y245750D01*
X131000Y236250D02*
X137000D01*
X131000Y247750D02*
X137000D01*
X131000Y236250D02*
Y247750D01*
X137000Y236250D02*
Y247750D01*
X95250Y220000D02*
Y226000D01*
X106750Y220000D02*
Y226000D01*
X95250Y220000D02*
X106750D01*
X95250Y226000D02*
X106750D01*
X121000Y236250D02*
X127000D01*
X121000Y247750D02*
X127000D01*
X121000Y236250D02*
Y247750D01*
X127000Y236250D02*
Y247750D01*
X93750Y214500D02*
Y220500D01*
X105250Y214500D02*
Y220500D01*
X93750D02*
X105250D01*
X93750Y214500D02*
X105250D01*
X95250Y210000D02*
Y216000D01*
X106750Y210000D02*
Y216000D01*
X95250Y210000D02*
X106750D01*
X95250Y216000D02*
X106750D01*
X99250Y128000D02*
Y134000D01*
X110750Y128000D02*
Y134000D01*
X99250Y128000D02*
X110750D01*
X99250Y134000D02*
X110750D01*
X167003Y97750D02*
Y109250D01*
X173002Y97750D02*
Y109250D01*
X167003D02*
X173002D01*
X167003Y97750D02*
X173002D01*
X146995Y107750D02*
X152995D01*
X146995Y96250D02*
X152995D01*
Y107750D01*
X146995Y96250D02*
Y107750D01*
X163000Y97750D02*
Y109250D01*
X157000Y97750D02*
Y109250D01*
Y97750D02*
X163000D01*
X157000Y109250D02*
X163000D01*
X221000Y102250D02*
Y113750D01*
X215000Y102250D02*
Y113750D01*
Y102250D02*
X221000D01*
X215000Y113750D02*
X221000D01*
X241750Y131000D02*
Y137000D01*
X230250Y131000D02*
Y137000D01*
Y131000D02*
X241750D01*
X230250Y137000D02*
X241750D01*
X248750Y148000D02*
Y154000D01*
X237250Y148000D02*
Y154000D01*
X248750D01*
X237250Y148000D02*
X248750D01*
X241750Y141000D02*
Y147000D01*
X230250Y141000D02*
Y147000D01*
Y141000D02*
X241750D01*
X230250Y147000D02*
X241750D01*
X248750Y161000D02*
Y167000D01*
X237250Y161000D02*
Y167000D01*
X248750D01*
X237250Y161000D02*
X248750D01*
X185013Y234250D02*
Y245750D01*
X191012Y234250D02*
Y245750D01*
X185013D02*
X191012D01*
X185013Y234250D02*
X191012D01*
X171010Y247750D02*
X177010D01*
X171010Y236250D02*
X177010D01*
Y247750D01*
X171010Y236250D02*
Y247750D01*
X171007Y234250D02*
Y245750D01*
X165007Y234250D02*
Y245750D01*
Y234250D02*
X171007D01*
X165007Y245750D02*
X171007D01*
X181013Y236250D02*
X187013D01*
X181013Y247750D02*
X187013D01*
X181013Y236250D02*
Y247750D01*
X187013Y236250D02*
Y247750D01*
X175010Y234250D02*
Y245750D01*
X181010Y234250D02*
Y245750D01*
X175010D02*
X181010D01*
X175010Y234250D02*
X181010D01*
X105250Y204500D02*
Y210500D01*
X93750Y204500D02*
Y210500D01*
Y204500D02*
X105250D01*
X93750Y210500D02*
X105250D01*
X106750Y200000D02*
Y206000D01*
X95250Y200000D02*
Y206000D01*
X106750D01*
X95250Y200000D02*
X106750D01*
X105250Y194498D02*
Y200497D01*
X93750Y194498D02*
Y200497D01*
Y194498D02*
X105250D01*
X93750Y200497D02*
X105250D01*
X122000Y97750D02*
Y109250D01*
X116000Y97750D02*
Y109250D01*
Y97750D02*
X122000D01*
X116000Y109250D02*
X122000D01*
X159502Y55000D02*
Y72000D01*
X168503Y55000D02*
Y72000D01*
X159502Y55000D02*
X168503D01*
X159502Y72000D02*
X168503D01*
X164500Y69000D02*
Y86000D01*
X155500Y69000D02*
Y86000D01*
Y69000D02*
X164500D01*
X155500Y86000D02*
X164500D01*
X154500Y55000D02*
Y72000D01*
X145500Y55000D02*
Y72000D01*
X154500D01*
X145500Y55000D02*
X154500D01*
X141497Y69000D02*
Y86000D01*
X150497Y69000D02*
Y86000D01*
X141497D02*
X150497D01*
X141497Y69000D02*
X150497D01*
X212005Y165500D02*
X221005D01*
X212005Y182500D02*
X221005D01*
Y165500D02*
Y182500D01*
X212005Y165500D02*
Y182500D01*
X197000Y220003D02*
X214000D01*
X197000Y211003D02*
X214000D01*
Y220003D01*
X197000Y211003D02*
Y220003D01*
X97500Y175500D02*
X106500D01*
X97500Y192500D02*
X106500D01*
Y175500D02*
Y192500D01*
X97500Y175500D02*
Y192500D01*
X43497Y93497D02*
X52497D01*
X43497Y110497D02*
X52497D01*
Y93497D02*
Y110497D01*
X43497Y93497D02*
Y110497D01*
X146500Y28500D02*
X163500D01*
X146500Y37500D02*
X163500D01*
Y28500D02*
Y37500D01*
X146500Y28500D02*
Y37500D01*
X29495Y93497D02*
X38495D01*
X29495Y110497D02*
X38495D01*
Y93497D02*
Y110497D01*
X29495Y93497D02*
Y110497D01*
X117500Y22500D02*
X134500D01*
X117500Y13500D02*
X134500D01*
X117500D02*
Y22500D01*
X134500Y13500D02*
Y22500D01*
X66500Y12000D02*
X83500D01*
X66500Y21000D02*
X83500D01*
X66500Y12000D02*
Y21000D01*
X83500Y12000D02*
Y21000D01*
X307500Y123500D02*
X324500D01*
X307500Y132500D02*
X324500D01*
Y123500D02*
Y132500D01*
X307500Y123500D02*
Y132500D01*
X190500Y107500D02*
X207500D01*
X190500Y116500D02*
X207500D01*
X190500Y107500D02*
Y116500D01*
X207500Y107500D02*
Y116500D01*
X392062Y283500D02*
X409062D01*
X392062Y274500D02*
X409062D01*
Y283500D01*
X392062Y274500D02*
Y283500D01*
X407250Y194003D02*
X424250D01*
X407250Y203003D02*
X424250D01*
X407250Y194003D02*
Y203003D01*
X424250Y194003D02*
Y203003D01*
X355500Y273750D02*
Y290750D01*
X346500Y273750D02*
Y290750D01*
Y273750D02*
X355500D01*
X346500Y290750D02*
X355500D01*
X363625Y283500D02*
X380625D01*
X363625Y274500D02*
X380625D01*
Y283500D01*
X363625Y274500D02*
Y283500D01*
X564500Y286500D02*
X581500D01*
X564500Y295500D02*
X581500D01*
X564500Y286500D02*
Y295500D01*
X581500Y286500D02*
Y295500D01*
X630250Y351500D02*
X639250D01*
X630250Y334500D02*
X639250D01*
X630250D02*
Y351500D01*
X639250Y334500D02*
Y351500D01*
X422500Y340500D02*
X431500D01*
X422500Y357500D02*
X431500D01*
Y340500D02*
Y357500D01*
X422500Y340500D02*
Y357500D01*
X587500Y370500D02*
Y387500D01*
X596500Y370500D02*
Y387500D01*
X587500Y370500D02*
X596500D01*
X587500Y387500D02*
X596500D01*
X542500Y355500D02*
X559500D01*
X542500Y346500D02*
X559500D01*
X542500D02*
Y355500D01*
X559500Y346500D02*
Y355500D01*
X583500Y399500D02*
Y416500D01*
X574500Y399500D02*
Y416500D01*
X583500D01*
X574500Y399500D02*
X583500D01*
X555500D02*
Y416500D01*
X546500Y399500D02*
Y416500D01*
X555500D01*
X546500Y399500D02*
X555500D01*
X514500Y388500D02*
X531500D01*
X514500Y397500D02*
X531500D01*
Y388500D02*
Y397500D01*
X514500Y388500D02*
Y397500D01*
X453500Y390500D02*
X470500D01*
X453500Y381500D02*
X470500D01*
Y390500D01*
X453500Y381500D02*
Y390500D01*
X478500Y370500D02*
X487500D01*
X478500Y387500D02*
X487500D01*
Y370500D02*
Y387500D01*
X478500Y370500D02*
Y387500D01*
X536500Y422500D02*
X553500D01*
X536500Y431500D02*
X553500D01*
X536500Y422500D02*
Y431500D01*
X553500Y422500D02*
Y431500D01*
X464500Y413500D02*
X481500D01*
X464500Y422500D02*
X481500D01*
X464500Y413500D02*
Y422500D01*
X481500Y413500D02*
Y422500D01*
X498000Y272500D02*
X515000D01*
X498000Y263500D02*
X515000D01*
Y272500D01*
X498000Y263500D02*
Y272500D01*
X514500Y243500D02*
X531500D01*
X514500Y252500D02*
X531500D01*
X514500Y243500D02*
Y252500D01*
X531500Y243500D02*
Y252500D01*
X487000Y225500D02*
X504000D01*
X487000Y216500D02*
X504000D01*
X487000D02*
Y225500D01*
X504000Y216500D02*
Y225500D01*
X557500Y244500D02*
X574500D01*
X557500Y235500D02*
X574500D01*
X557500D02*
Y244500D01*
X574500Y235500D02*
Y244500D01*
X580500Y221500D02*
Y230500D01*
X563500Y221500D02*
Y230500D01*
Y221500D02*
X580500D01*
X563500Y230500D02*
X580500D01*
X569500Y252500D02*
Y269500D01*
X560500Y252500D02*
Y269500D01*
X569500D01*
X560500Y252500D02*
X569500D01*
X591500Y226500D02*
X608500D01*
X591500Y235500D02*
X608500D01*
Y226500D02*
Y235500D01*
X591500Y226500D02*
Y235500D01*
X499500Y223500D02*
X516500D01*
X499500Y214500D02*
X516500D01*
Y223500D01*
X499500Y214500D02*
Y223500D01*
X539500Y232500D02*
Y249500D01*
X548500Y232500D02*
Y249500D01*
X539500D02*
X548500D01*
X539500Y232500D02*
X548500D01*
X577500Y213500D02*
Y230500D01*
X568500Y213500D02*
Y230500D01*
Y213500D02*
X577500D01*
X568500Y230500D02*
X577500D01*
X531500Y229500D02*
Y238500D01*
X514500Y229500D02*
Y238500D01*
X531500D01*
X514500Y229500D02*
X531500D01*
X702500Y138500D02*
X719500D01*
X702500Y129500D02*
X719500D01*
X702500D02*
Y138500D01*
X719500Y129500D02*
Y138500D01*
X779500Y172500D02*
X796500D01*
X779500Y163500D02*
X796500D01*
X779500D02*
Y172500D01*
X796500Y163500D02*
Y172500D01*
X698500Y103500D02*
Y120500D01*
X707500Y103500D02*
Y120500D01*
X698500Y103500D02*
X707500D01*
X698500Y120500D02*
X707500D01*
X768500Y164500D02*
X785500D01*
X768500Y173500D02*
X785500D01*
X768500Y164500D02*
Y173500D01*
X785500Y164500D02*
Y173500D01*
X737500Y136500D02*
X746500D01*
X737500Y119500D02*
X746500D01*
X737500D02*
Y136500D01*
X746500Y119500D02*
Y136500D01*
X790502Y156579D02*
X807502D01*
X790502Y147578D02*
X807502D01*
Y156579D01*
X790502Y147578D02*
Y156579D01*
X792500Y89500D02*
X801500D01*
X792500Y106500D02*
X801500D01*
Y89500D02*
Y106500D01*
X792500Y89500D02*
Y106500D01*
X790502Y127573D02*
X807502D01*
X790502Y118573D02*
X807502D01*
Y127573D01*
X790502Y118573D02*
Y127573D01*
X323503Y105497D02*
Y134497D01*
X355503Y105497D02*
Y134497D01*
X323503D02*
X355503D01*
X323503Y105497D02*
X355503D01*
X405000Y99000D02*
Y149000D01*
X365000Y99000D02*
Y149000D01*
Y99000D02*
X405000D01*
X365000Y149000D02*
X405000D01*
X525000Y303000D02*
Y353000D01*
X565000Y303000D02*
Y353000D01*
X525000Y303000D02*
X565000D01*
X525000Y353000D02*
X565000D01*
X552250Y361001D02*
Y391001D01*
X569750Y361001D02*
Y391001D01*
X552250D02*
X569750D01*
X552250Y361001D02*
X569750D01*
X565000Y390503D02*
Y419503D01*
X597000Y390503D02*
Y419503D01*
X565000D02*
X597000D01*
X565000Y390503D02*
X597000D01*
X494505Y390500D02*
X526505D01*
X494505Y419500D02*
X526505D01*
Y390500D02*
Y419500D01*
X494505Y390500D02*
Y419500D01*
X516000Y230500D02*
Y259500D01*
X548000Y230500D02*
Y259500D01*
X516000Y230500D02*
X548000D01*
X516000Y259500D02*
X548000D01*
X529000Y182500D02*
Y211500D01*
X561000Y182500D02*
Y211500D01*
X529000D02*
X561000D01*
X529000Y182500D02*
X561000D01*
X749500Y39750D02*
Y57250D01*
X718500Y39750D02*
Y57250D01*
Y39750D02*
X749500D01*
X718500Y57250D02*
X749500D01*
X643500Y9250D02*
Y23250D01*
X661500Y9250D02*
Y23250D01*
X643500D02*
X661500D01*
X643500Y9250D02*
X661500D01*
X99250Y148000D02*
Y154000D01*
X110750Y148000D02*
Y154000D01*
X99250Y148000D02*
X110750D01*
X99250Y154000D02*
X110750D01*
X601997Y32497D02*
X629997D01*
X601997Y68498D02*
X629997D01*
Y32497D02*
Y68498D01*
X601997Y32497D02*
Y68498D01*
X93500Y334500D02*
Y370500D01*
X121500Y334500D02*
Y370500D01*
X93500D02*
X121500D01*
X93500Y334500D02*
X121500D01*
X143505Y297498D02*
X179505D01*
X143505Y325498D02*
X179505D01*
X143505Y297498D02*
Y325498D01*
X179505Y297498D02*
Y325498D01*
D155*
X56350Y182100D02*
X84300D01*
Y174700D02*
Y182100D01*
X56350Y174700D02*
X84300D01*
X56350Y169400D02*
X84300D01*
Y162000D02*
Y169400D01*
X56350Y162000D02*
X84300D01*
X56350Y156700D02*
X84300D01*
Y149300D02*
Y156700D01*
X56350Y149300D02*
Y156700D01*
Y149300D02*
X84300D01*
X56350Y144000D02*
X84300D01*
Y136600D02*
Y144000D01*
X56350Y136600D02*
X84300D01*
X56350Y131300D02*
X84300D01*
Y123900D02*
Y131300D01*
X56350Y123900D02*
X84300D01*
X15710Y182100D02*
X43660D01*
X56350Y174700D02*
Y182100D01*
X43660Y174700D02*
Y182100D01*
X15710Y174700D02*
Y182100D01*
Y174700D02*
X43660D01*
X15710Y169400D02*
X43660D01*
X56350Y162000D02*
Y169400D01*
X43660Y162000D02*
Y169400D01*
X15710Y162000D02*
Y169400D01*
Y162000D02*
X43660D01*
X15710Y156700D02*
X43660D01*
X15710Y149300D02*
Y156700D01*
X43660Y149300D02*
Y156700D01*
X15710Y149300D02*
X43660D01*
X15710Y144000D02*
X43660D01*
X56350Y136600D02*
Y144000D01*
X15710Y136600D02*
Y144000D01*
X43660Y136600D02*
Y144000D01*
X15710Y136600D02*
X43660D01*
X15710Y131300D02*
X43660D01*
X56350Y123900D02*
Y131300D01*
X15710Y123900D02*
Y131300D01*
X43660Y123900D02*
Y131300D01*
X15710Y123900D02*
X43660D01*
D156*
X581526Y136475D02*
D03*
X566474Y16275D02*
D03*
X521474D02*
D03*
X521526Y132975D02*
D03*
X653474Y139025D02*
D03*
X650474Y240025D02*
D03*
Y261025D02*
D03*
Y198025D02*
D03*
X786526Y300025D02*
D03*
X650474Y219025D02*
D03*
X782527Y196522D02*
D03*
X650474Y283025D02*
D03*
Y177025D02*
D03*
X750973Y249975D02*
D03*
X751473Y334972D02*
D03*
X650474Y386025D02*
D03*
X752223Y274975D02*
D03*
X650474Y407025D02*
D03*
X417534Y84025D02*
D03*
X646026Y16225D02*
D03*
D157*
X288024Y330000D02*
D03*
D158*
X527528Y102723D02*
D03*
X589975Y47527D02*
D03*
X571280Y102723D02*
D03*
X610025Y103973D02*
D03*
X631275D02*
D03*
X803975Y374474D02*
D03*
X782975D02*
D03*
X653975Y361474D02*
D03*
X604975Y313974D02*
D03*
X246025Y36473D02*
D03*
X266975Y23527D02*
D03*
X251025Y66526D02*
D03*
X271975Y79474D02*
D03*
X250975Y36474D02*
D03*
X272025Y23526D02*
D03*
X245975Y66527D02*
D03*
X267025Y79473D02*
D03*
X435975Y109527D02*
D03*
X458025Y98473D02*
D03*
X414025Y122473D02*
D03*
M02*
