G04*
G04 #@! TF.GenerationSoftware,Altium Limited,Altium Designer,22.6.1 (34)*
G04*
G04 Layer_Physical_Order=3*
G04 Layer_Color=3326705*
%FSLAX44Y44*%
%MOMM*%
G71*
G04*
G04 #@! TF.SameCoordinates,0BC7250A-E466-409B-9AFC-A4DADF5EADDD*
G04*
G04*
G04 #@! TF.FilePolarity,Positive*
G04*
G01*
G75*
%ADD11C,0.6000*%
%ADD12C,0.2500*%
%ADD14C,0.4000*%
%ADD105C,0.7000*%
%ADD106C,0.4500*%
%ADD107C,0.5000*%
%ADD121C,0.5500*%
%ADD127C,0.6000*%
%ADD128C,0.7000*%
%ADD130C,0.4500*%
%ADD131C,0.5000*%
%ADD132C,0.5600*%
G36*
X594000Y428000D02*
X596015D01*
X596601Y427413D01*
X598806Y426500D01*
X601194D01*
X603399Y427413D01*
X603985Y428000D01*
X616015D01*
X616601Y427413D01*
X618806Y426500D01*
X621194D01*
X623399Y427413D01*
X623985Y428000D01*
X661015D01*
X661601Y427413D01*
X663807Y426500D01*
X666193D01*
X668399Y427413D01*
X668985Y428000D01*
X681015D01*
X681601Y427413D01*
X683807Y426500D01*
X686193D01*
X688399Y427413D01*
X688985Y428000D01*
X703515D01*
X704101Y427413D01*
X706307Y426500D01*
X708693D01*
X710899Y427413D01*
X711485Y428000D01*
X723515D01*
X724101Y427413D01*
X726307Y426500D01*
X728693D01*
X730899Y427413D01*
X731485Y428000D01*
X743515D01*
X744101Y427413D01*
X746307Y426500D01*
X748693D01*
X750899Y427413D01*
X751485Y428000D01*
X752000D01*
X762000Y418000D01*
Y323485D01*
X761913Y323399D01*
X761000Y321194D01*
Y318806D01*
X761913Y316601D01*
X762000Y316515D01*
Y304192D01*
X761799Y303991D01*
X760943Y302509D01*
X760500Y300856D01*
Y299144D01*
X760943Y297491D01*
X761799Y296009D01*
X762000Y295808D01*
Y293485D01*
X761913Y293399D01*
X761000Y291193D01*
Y288806D01*
X761913Y286601D01*
X762000Y286515D01*
Y277401D01*
X761500Y276194D01*
Y273806D01*
X762000Y272599D01*
Y263474D01*
X761443Y262509D01*
X761000Y260856D01*
Y259144D01*
X761443Y257491D01*
X762000Y256526D01*
Y247401D01*
X761500Y246194D01*
Y243806D01*
X762000Y242599D01*
Y242000D01*
X806883Y197117D01*
X806500Y196194D01*
Y193806D01*
X807413Y191601D01*
X808000Y191015D01*
Y173985D01*
X807413Y173399D01*
X806500Y171194D01*
Y168806D01*
X807413Y166601D01*
X808000Y166015D01*
Y116485D01*
X807413Y115899D01*
X806500Y113694D01*
Y111306D01*
X807413Y109101D01*
X808000Y108515D01*
Y103985D01*
X807413Y103399D01*
X806500Y101194D01*
Y98806D01*
X807413Y96601D01*
X808000Y96015D01*
Y83985D01*
X807413Y83399D01*
X806500Y81194D01*
Y78807D01*
X807176Y77176D01*
X802000Y72000D01*
X800215D01*
X800017Y72114D01*
X796711Y73000D01*
X793288D01*
X789982Y72114D01*
X787018Y70402D01*
X784597Y67982D01*
X782886Y65017D01*
X782000Y61711D01*
Y58288D01*
X782000Y58287D01*
X782000Y42000D01*
X772000Y32000D01*
X706750D01*
X664533Y74217D01*
X663837Y75899D01*
X662149Y77587D01*
X660467Y78283D01*
X652500Y86250D01*
X623551D01*
X622344Y86750D01*
X620156D01*
X618949Y86250D01*
X480152D01*
X478945Y86750D01*
X477055D01*
X475848Y86250D01*
X432250D01*
X428000Y82000D01*
X395301D01*
X394094Y82500D01*
X391906D01*
X390699Y82000D01*
X342000Y82000D01*
X340000Y80000D01*
Y77485D01*
X338913Y76399D01*
X338000Y74194D01*
Y71807D01*
X338913Y69601D01*
X339257Y69257D01*
X338000Y68000D01*
X326778D01*
X326115Y68663D01*
X324094Y69500D01*
X321906D01*
X320912Y69088D01*
X320000Y70000D01*
Y76000D01*
X336000Y92000D01*
X424000D01*
X426000Y94000D01*
X426194D01*
X428399Y94913D01*
X430087Y96601D01*
X431000Y98806D01*
Y99000D01*
X433250Y101250D01*
X660750D01*
X679000Y83000D01*
Y80807D01*
X679913Y78601D01*
X681601Y76913D01*
X683807Y76000D01*
X686000D01*
X700000Y62000D01*
X734000D01*
X746000Y74000D01*
X746193D01*
X748399Y74913D01*
X750087Y76601D01*
X751000Y78807D01*
Y79000D01*
X754000Y82000D01*
X754000Y98000D01*
X768000Y112000D01*
X774283D01*
X774309Y111973D01*
X776055Y111250D01*
X777945D01*
X779691Y111973D01*
X781027Y113309D01*
X781750Y115055D01*
Y116945D01*
X781027Y118691D01*
X780000Y119718D01*
Y150000D01*
X749500Y180500D01*
X749500Y395000D01*
X732000Y412500D01*
X607376Y412500D01*
X607239Y412832D01*
X605832Y414239D01*
X603995Y415000D01*
X602005D01*
X600168Y414239D01*
X598761Y412832D01*
X598624Y412500D01*
X595377D01*
X595239Y412832D01*
X593832Y414239D01*
X591995Y415000D01*
X590005D01*
X588168Y414239D01*
X586761Y412832D01*
X586624Y412500D01*
X578186D01*
X576343Y414343D01*
X575268Y415061D01*
X574000Y415314D01*
X526404D01*
X525691Y416027D01*
X523945Y416750D01*
X522055D01*
X520309Y416027D01*
X518973Y414691D01*
X518250Y412945D01*
Y411055D01*
X518486Y410486D01*
X516000Y408000D01*
X462485D01*
X461399Y409087D01*
X459193Y410000D01*
X456806D01*
X454601Y409087D01*
X453515Y408000D01*
X448000D01*
X446000Y410000D01*
Y418000D01*
X448000Y420000D01*
X464000D01*
X472000Y428000D01*
X488515D01*
X489101Y427413D01*
X491306Y426500D01*
X493694D01*
X495899Y427413D01*
X496485Y428000D01*
X512000D01*
X516000Y432000D01*
X590000D01*
X594000Y428000D01*
D02*
G37*
G36*
X199001Y229000D02*
X200000Y228094D01*
Y225906D01*
X200837Y223885D01*
X201250Y223472D01*
Y193750D01*
X191250Y183750D01*
Y181918D01*
X191225Y181908D01*
X190592Y181275D01*
X190250Y180448D01*
Y179552D01*
X190592Y178725D01*
X191225Y178093D01*
X191250Y178082D01*
Y176250D01*
X188750Y173750D01*
X180000D01*
X178750Y172500D01*
Y163750D01*
X177500Y162500D01*
X150000D01*
X148750Y163750D01*
Y186250D01*
X153046Y190546D01*
X154028Y190953D01*
X155012Y191937D01*
X155419Y192919D01*
X156250Y193750D01*
X188750D01*
X192500Y197500D01*
Y227500D01*
X194000Y229000D01*
X199001Y229000D01*
D02*
G37*
G36*
X191250Y170000D02*
Y166250D01*
X192500Y165000D01*
X218314D01*
X222500Y160814D01*
Y152500D01*
X221250Y151250D01*
X208750D01*
X202500Y157500D01*
X199601D01*
X199046Y157730D01*
X197654D01*
X197099Y157500D01*
X192500D01*
X191250Y156250D01*
Y155000D01*
X188750Y152500D01*
X181250D01*
X180000Y153750D01*
Y162116D01*
X180192Y162308D01*
X180634Y162970D01*
X180789Y163750D01*
Y170789D01*
X181250Y171250D01*
X190000D01*
X191250Y170000D01*
D02*
G37*
G36*
X177500Y158750D02*
Y152500D01*
X180000Y150000D01*
X188750D01*
X190000Y148750D01*
Y145000D01*
X188750Y143750D01*
X171200D01*
X170732Y144217D01*
X169446Y144750D01*
X168054D01*
X167839Y144661D01*
X163750Y148750D01*
Y158750D01*
X165000Y160000D01*
X176250D01*
X177500Y158750D01*
D02*
G37*
%LPC*%
G36*
X768356Y206500D02*
X766644D01*
X764991Y206057D01*
X763509Y205201D01*
X762299Y203991D01*
X761443Y202509D01*
X761000Y200856D01*
Y199144D01*
X761443Y197491D01*
X761571Y197270D01*
X760837Y196000D01*
X759557D01*
X757351Y195087D01*
X755663Y193399D01*
X754750Y191194D01*
Y188806D01*
X755663Y186601D01*
X757351Y184913D01*
X759557Y184000D01*
X761944D01*
X764149Y184913D01*
X765836Y186601D01*
X766750Y188806D01*
Y191194D01*
X766301Y192277D01*
X766374Y192538D01*
X767169Y193500D01*
X768356D01*
X770009Y193943D01*
X771491Y194799D01*
X772701Y196009D01*
X773557Y197491D01*
X774000Y199144D01*
Y200856D01*
X773557Y202509D01*
X772701Y203991D01*
X771491Y205201D01*
X770009Y206057D01*
X768356Y206500D01*
D02*
G37*
G36*
X787194Y99000D02*
X784807D01*
X782601Y98087D01*
X780913Y96399D01*
X780000Y94193D01*
Y91806D01*
X780913Y89601D01*
X782601Y87913D01*
X784807Y87000D01*
X787194D01*
X789399Y87913D01*
X791087Y89601D01*
X792000Y91806D01*
Y94193D01*
X791087Y96399D01*
X789399Y98087D01*
X787194Y99000D01*
D02*
G37*
G36*
X772194Y59000D02*
X769807D01*
X767601Y58087D01*
X765913Y56399D01*
X765000Y54194D01*
Y51807D01*
X765913Y49601D01*
X767601Y47913D01*
X769807Y47000D01*
X772194D01*
X774399Y47913D01*
X776087Y49601D01*
X777000Y51807D01*
Y54194D01*
X776087Y56399D01*
X774399Y58087D01*
X772194Y59000D01*
D02*
G37*
G36*
X174198Y178500D02*
X173302D01*
X172475Y178158D01*
X171842Y177525D01*
X171500Y176698D01*
Y175802D01*
X171557Y175665D01*
X170585Y174693D01*
X170448Y174750D01*
X169552D01*
X169415Y174693D01*
X168443Y175665D01*
X168500Y175802D01*
Y176698D01*
X168157Y177525D01*
X167525Y178158D01*
X166698Y178500D01*
X165802D01*
X164975Y178158D01*
X164342Y177525D01*
X164000Y176698D01*
Y175802D01*
X164342Y174975D01*
X164975Y174343D01*
X165802Y174000D01*
X166698D01*
X166835Y174057D01*
X167807Y173085D01*
X167750Y172948D01*
Y172052D01*
X167807Y171915D01*
X166835Y170943D01*
X166698Y171000D01*
X165802D01*
X164975Y170658D01*
X164342Y170025D01*
X164000Y169198D01*
Y168302D01*
X164342Y167475D01*
X164975Y166842D01*
X165802Y166500D01*
X166698D01*
X167525Y166842D01*
X168157Y167475D01*
X168500Y168302D01*
Y169198D01*
X168443Y169335D01*
X169344Y170236D01*
X170656D01*
X171557Y169335D01*
X171500Y169198D01*
Y168302D01*
X171842Y167475D01*
X172475Y166842D01*
X173302Y166500D01*
X174198D01*
X175025Y166842D01*
X175657Y167475D01*
X176000Y168302D01*
Y169198D01*
X175657Y170025D01*
X175025Y170658D01*
X174198Y171000D01*
X173302D01*
X173165Y170943D01*
X172193Y171915D01*
X172250Y172052D01*
Y172948D01*
X172193Y173085D01*
X173165Y174057D01*
X173302Y174000D01*
X174198D01*
X175025Y174343D01*
X175657Y174975D01*
X176000Y175802D01*
Y176698D01*
X175657Y177525D01*
X175025Y178158D01*
X174198Y178500D01*
D02*
G37*
G36*
X213448Y160250D02*
X212553D01*
X211726Y159908D01*
X211092Y159275D01*
X210750Y158448D01*
Y157552D01*
X211092Y156726D01*
X211726Y156093D01*
X212553Y155750D01*
X213448D01*
X214275Y156093D01*
X214907Y156726D01*
X215250Y157552D01*
Y158448D01*
X214907Y159275D01*
X214275Y159908D01*
X213448Y160250D01*
D02*
G37*
%LPD*%
D11*
X532167Y141374D02*
G03*
X532000Y142000I-5872J-1231D01*
G01*
X532167Y141374D02*
G03*
X540000Y135000I7833J1626D01*
G01*
X524000D02*
G03*
X530860Y138884I0J8000D01*
G01*
Y138884D02*
G03*
X531999Y141989I-4845J3539D01*
G01*
X327603Y244688D02*
X345665Y262750D01*
X440375D02*
X444437Y266812D01*
X345665Y262750D02*
X440375D01*
X346125Y248125D02*
X440375D01*
X333937Y235938D02*
X346125Y248125D01*
X323375Y210750D02*
X348891Y236266D01*
X435172D01*
X661798Y251700D02*
X662048Y251950D01*
X670852D01*
X619148Y251700D02*
X661798D01*
X618348Y252500D02*
X619148Y251700D01*
X670852Y251950D02*
X671402Y252500D01*
X594000Y245000D02*
X601500Y252500D01*
X671402D02*
X682000D01*
X601500D02*
X618348D01*
X682000D02*
X690750Y243750D01*
X588344Y308500D02*
X613000Y333156D01*
X570500Y308500D02*
X588344D01*
X613000Y333156D02*
Y351000D01*
X608191Y355809D02*
X613000Y351000D01*
X583138Y292000D02*
X604000D01*
X561138Y270000D02*
X583138Y292000D01*
X510820Y270000D02*
X561138D01*
X459375Y260000D02*
X500820D01*
X510820Y270000D01*
X493106Y274000D02*
X501106Y282000D01*
X545000D01*
X494098Y301000D02*
X563000D01*
X481098Y288000D02*
X494098Y301000D01*
X467000Y288000D02*
X481098D01*
X480000Y274000D02*
X493106D01*
X563000Y301000D02*
X570500Y308500D01*
X452562Y266812D02*
X459375Y260000D01*
X444437Y266812D02*
X452562D01*
X465266Y236266D02*
X501481D01*
X503997Y233750D01*
X513253Y237000D02*
X543000D01*
X503997Y233750D02*
X510003D01*
X513253Y237000D01*
X327438Y244688D02*
X327603D01*
X663148Y280550D02*
X670852D01*
X670902Y280500D01*
X682750D02*
X713250Y250000D01*
X663098Y280500D02*
X663148Y280550D01*
X670902Y280500D02*
X682750D01*
X639000Y272000D02*
X647500Y280500D01*
X663098D01*
X551000Y245000D02*
X594000D01*
X604000Y292000D02*
X613000Y283000D01*
X461000Y249000D02*
X527000D01*
X699500Y180000D02*
Y180178D01*
X690750Y188928D02*
Y243750D01*
Y188928D02*
X699500Y180178D01*
X713250Y222500D02*
X724500Y211250D01*
X713250Y222500D02*
Y250000D01*
X588000Y272000D02*
X639000D01*
X573000Y257000D02*
X588000Y272000D01*
X527000Y249000D02*
X535000Y257000D01*
X573000D01*
X543000Y237000D02*
X551000Y245000D01*
X455563Y276562D02*
X467000Y288000D01*
X335563Y276562D02*
X455563D01*
X328250Y269250D02*
X335563Y276562D01*
X532000Y135000D02*
X587485D01*
X518000D02*
X532000D01*
Y142000D02*
Y142000D01*
X531999Y141989D02*
X532000Y142000D01*
Y135000D02*
Y142000D01*
X591000Y145000D02*
Y148000D01*
X511000Y142000D02*
X518000Y135000D01*
X470000Y142000D02*
X511000D01*
X591000Y138515D02*
Y145000D01*
X587485Y135000D02*
X591000Y138515D01*
X316875Y269250D02*
X328250D01*
D12*
X462868Y55000D02*
X528750D01*
X542500Y68750D02*
Y77500D01*
X528750Y55000D02*
X542500Y68750D01*
X145000Y242000D02*
X149740Y246740D01*
Y256073D01*
X402000Y297393D02*
X409393Y290000D01*
X398000Y316000D02*
X402000Y312000D01*
Y297393D02*
Y312000D01*
X184000Y316000D02*
X398000D01*
X409393Y290000D02*
X447868D01*
X455934Y298066D01*
X513500Y178000D02*
X517475Y181975D01*
X522366D01*
X522653Y182262D01*
X500500Y186500D02*
X512594D01*
X516094Y190000D02*
X544393D01*
X512594Y186500D02*
X516094Y190000D01*
X496000Y178000D02*
X513500D01*
X591500Y206000D02*
X642000D01*
X580500Y217000D02*
X591500Y206000D01*
X543000Y217000D02*
X580500D01*
X234287Y96287D02*
X235348D01*
X235507Y96447D02*
X411547D01*
X428101Y113000D01*
X234000Y96000D02*
X234287Y96287D01*
X235348D02*
X235507Y96447D01*
X362719Y173719D02*
X385125Y196125D01*
X268350Y176000D02*
X270631Y173719D01*
X268123Y176000D02*
X268350D01*
X270631Y173719D02*
X362719D01*
X443350Y305750D02*
X469296D01*
X474547Y311000D02*
X556000D01*
X469296Y305750D02*
X474547Y311000D01*
X730750Y281250D02*
Y301633D01*
X737000Y307883D01*
X598588Y375500D02*
X617500D01*
X635500Y357500D01*
X660500D01*
X582852Y359764D02*
X598588Y375500D01*
X294179Y197750D02*
X330446D01*
X278000Y213929D02*
X294179Y197750D01*
X330446D02*
X354821Y222125D01*
X328375Y202750D02*
X354250Y228625D01*
X290000Y220000D02*
X307250Y202750D01*
X328375D01*
X288000Y188000D02*
X340438D01*
X268000Y208000D02*
X288000Y188000D01*
X340438D02*
X361562Y209125D01*
X106000Y332000D02*
X133000Y359000D01*
X409000D02*
X418000Y350000D01*
X133000Y359000D02*
X409000D01*
X120500Y124000D02*
X123500D01*
X138750Y139250D02*
Y150000D01*
X115000Y124000D02*
X120500D01*
X123500D02*
X138750Y139250D01*
X120500Y130500D02*
X132500Y142500D01*
Y151875D01*
X109000Y118000D02*
X115000Y124000D01*
X121869Y144869D02*
X124616D01*
X121500Y144500D02*
X121869Y144869D01*
X124616D02*
X128000Y148253D01*
Y156125D01*
X138750Y166875D01*
X132500Y151875D02*
X138750Y158125D01*
X670000Y178000D02*
X687000D01*
X706000Y143250D02*
Y159000D01*
X687000Y178000D02*
X706000Y159000D01*
X735750Y193750D02*
Y248750D01*
X716000Y174000D02*
X735750Y193750D01*
X713250Y271250D02*
X735750Y248750D01*
X743250Y179250D02*
Y268750D01*
X730750Y281250D02*
X743250Y268750D01*
X728934Y164934D02*
X743250Y179250D01*
X713250Y271250D02*
Y300000D01*
X692000Y303750D02*
X709500D01*
X680750Y315000D02*
X692000Y303750D01*
X709500D02*
X713250Y300000D01*
X660500Y357500D02*
X680750Y337250D01*
Y315000D02*
Y337250D01*
X130998Y122998D02*
X143992Y135992D01*
X126383Y118383D02*
X130998Y122998D01*
X119383Y118383D02*
X126383D01*
X143992Y135992D02*
Y142117D01*
X119000Y118000D02*
X119383Y118383D01*
X143992Y142117D02*
X144375Y142500D01*
X25000Y96000D02*
Y165000D01*
Y96000D02*
X45000Y76000D01*
Y57000D02*
Y76000D01*
X667500Y105000D02*
X682500Y90000D01*
X697899D02*
X707899Y80000D01*
X682500Y90000D02*
X697899D01*
X707899Y80000D02*
X731000D01*
X740000Y89000D01*
X680500Y102000D02*
X716000D01*
X671250Y111250D02*
X680500Y102000D01*
X716000D02*
X723000Y95000D01*
X745244Y125756D02*
Y163144D01*
Y125756D02*
X755000Y116000D01*
X777000D01*
X728934Y152066D02*
Y164934D01*
X716000Y118000D02*
Y174000D01*
X574000Y368616D02*
X582852Y359764D01*
X570000Y380000D02*
X574000Y376000D01*
Y368616D02*
Y376000D01*
X545000Y380000D02*
X570000D01*
X570500Y385500D02*
X579000Y394000D01*
X553096Y385500D02*
X570500D01*
X579000Y394000D02*
X625000D01*
X546096Y392500D02*
X553096Y385500D01*
X535500Y392500D02*
X546096D01*
X514000Y357000D02*
Y395000D01*
X482000Y325000D02*
X514000Y357000D01*
X472071Y325000D02*
X482000D01*
X642000Y206000D02*
X670000Y178000D01*
X694727Y122727D02*
Y127727D01*
X692000Y120000D02*
X694727Y122727D01*
X683321Y120000D02*
X692000D01*
X658321Y145000D02*
X683321Y120000D01*
X679000Y136000D02*
X687000Y128000D01*
X674392Y136000D02*
X679000D01*
X649392Y161000D02*
X674392Y136000D01*
X684000Y147000D02*
X687000Y144000D01*
X639463Y178000D02*
X670463Y147000D01*
X684000D01*
X695000Y144000D02*
Y154243D01*
X636145Y190855D02*
X671000Y156000D01*
X693243D01*
X695000Y154243D01*
X684000Y111000D02*
X709000D01*
X645000Y132000D02*
X663000D01*
X684000Y111000D01*
X645000Y145000D02*
X658321D01*
X628000Y162000D02*
X645000Y145000D01*
X642000Y161000D02*
X649392D01*
X633000Y170000D02*
X642000Y161000D01*
X583000Y162000D02*
X628000D01*
X580000Y170000D02*
X633000D01*
X632000Y178000D02*
X639463D01*
X626000Y184000D02*
X632000Y178000D01*
X577855Y190855D02*
X636145D01*
X622000Y155000D02*
X645000Y132000D01*
X587000Y155000D02*
X622000D01*
X576000Y155000D02*
X583000Y162000D01*
X570000Y160000D02*
X580000Y170000D01*
X612000Y178000D02*
X618000Y184000D01*
X579000Y178000D02*
X612000D01*
X566000Y165000D02*
X579000Y178000D01*
X582000Y150000D02*
X587000Y155000D01*
X458000Y132000D02*
X503000D01*
X523750Y111250D01*
X671250D01*
X515000Y105000D02*
X667500D01*
X497000Y123000D02*
X515000Y105000D01*
X472000Y123000D02*
X497000D01*
X209000Y93000D02*
X227000Y111000D01*
X254000D01*
X168000Y93000D02*
X209000D01*
X207000Y103000D02*
X243000Y139000D01*
Y181000D01*
X167000Y103000D02*
X207000D01*
X149000Y74000D02*
X168000Y93000D01*
X212000Y83000D02*
X231000Y102000D01*
X170000Y83000D02*
X212000D01*
X98000Y74000D02*
X149000D01*
X144000Y80000D02*
X167000Y103000D01*
X105000Y80000D02*
X144000D01*
X84000Y101000D02*
X105000Y80000D01*
X73000Y99000D02*
X98000Y74000D01*
X214000Y67000D02*
X237250Y90250D01*
X308000D01*
X122000Y67000D02*
X214000D01*
Y49000D02*
X248000Y83000D01*
X320000D01*
X193000Y49000D02*
X214000D01*
X117000Y62000D02*
X122000Y67000D01*
X184250Y57750D02*
X193000Y49000D01*
X134000Y57750D02*
X184250D01*
X123000Y52000D02*
X174000D01*
X174000Y52000D01*
X123000D02*
X123000Y52000D01*
X109000Y62000D02*
X117000D01*
X39000Y118000D02*
Y154000D01*
X48000Y91000D02*
Y109000D01*
X39000Y118000D02*
X48000Y109000D01*
X59000Y65000D02*
Y80000D01*
X48000Y91000D02*
X59000Y80000D01*
Y65000D02*
X100000Y24000D01*
X61000Y99000D02*
Y143500D01*
X71000Y74000D02*
Y89000D01*
X61000Y99000D02*
X71000Y89000D01*
X61000Y143500D02*
X109000Y191500D01*
X71000Y74000D02*
X113000Y32000D01*
X73000Y99000D02*
Y108000D01*
X84000Y101000D02*
Y108000D01*
X407875Y222125D02*
X425750Y204250D01*
X452562D01*
X354821Y222125D02*
X407875D01*
X475071Y203000D02*
X486071Y214000D01*
X457000Y190000D02*
X470000Y203000D01*
X475071D01*
X465000Y185000D02*
X473000Y193000D01*
X476000D01*
X485000Y202000D01*
X409000Y185000D02*
X465000D01*
X485000Y202000D02*
X495000D01*
X486071Y214000D02*
X534000D01*
X405000Y190000D02*
X457000D01*
X473000Y180000D02*
X486000Y193000D01*
X494000D02*
X500500Y186500D01*
X486000Y193000D02*
X494000D01*
X501000Y208000D02*
X528000D01*
X495000Y202000D02*
X501000Y208000D01*
X490000Y184000D02*
X496000Y178000D01*
X485000Y184000D02*
X490000D01*
X572000Y185000D02*
X577855Y190855D01*
X572000Y180000D02*
Y185000D01*
X562000Y170000D02*
X572000Y180000D01*
X441899Y170000D02*
X562000D01*
X445000Y165000D02*
X566000D01*
X448000Y160000D02*
X570000D01*
X451000Y155000D02*
X576000D01*
X455000Y150000D02*
X582000D01*
X462000Y113000D02*
X472000Y123000D01*
X428101Y113000D02*
X462000D01*
X450000Y124000D02*
X458000Y132000D01*
X386000Y131000D02*
X408000Y153000D01*
X259000Y131000D02*
X386000D01*
X408000Y153000D02*
Y166000D01*
X391000Y126000D02*
X423000Y158000D01*
X258000Y126000D02*
X391000D01*
X423000Y158000D02*
X429899D01*
X263000Y120000D02*
X395000D01*
X417000Y142000D01*
X422000D01*
X398000Y114000D02*
X412000Y128000D01*
X285000Y114000D02*
X398000D01*
X412000Y128000D02*
X416000D01*
X422000Y142000D02*
X445000Y165000D01*
X416000Y128000D02*
X448000Y160000D01*
X280000Y148000D02*
X363000D01*
X405000Y190000D01*
X391000Y158000D02*
X413000Y180000D01*
X380900Y136000D02*
X391000Y146101D01*
Y158000D01*
X408000Y166000D02*
X417000Y175000D01*
X404250Y108250D02*
X451000Y155000D01*
X273811Y108250D02*
X404250D01*
X429899Y158000D02*
X441899Y170000D01*
X407000Y102000D02*
X455000Y150000D01*
X231000Y102000D02*
X407000D01*
X100000Y24000D02*
X265000D01*
X277000Y36000D02*
Y55000D01*
X265000Y24000D02*
X277000Y36000D01*
Y55000D02*
X280520Y58520D01*
X298000Y50000D02*
X321000D01*
X295000Y47000D02*
X298000Y50000D01*
X321000D02*
X329000Y58000D01*
X281000Y17000D02*
X295000Y31000D01*
Y47000D01*
X85000Y17000D02*
X281000D01*
X257000Y38000D02*
Y57000D01*
X265000Y65000D01*
X251000Y32000D02*
X257000Y38000D01*
X45000Y57000D02*
X85000Y17000D01*
X113000Y32000D02*
X251000D01*
X39000Y154000D02*
X45000Y160000D01*
X25000Y165000D02*
X30000Y170000D01*
X45000Y160000D02*
X59000D01*
X30000Y170000D02*
X55000D01*
X59000Y160000D02*
X100000Y201000D01*
Y233000D01*
X109000Y242000D02*
X145000D01*
X100000Y233000D02*
X109000Y242000D01*
X91000Y206000D02*
Y237000D01*
X55000Y170000D02*
X91000Y206000D01*
Y237000D02*
X103000Y249000D01*
X138000D01*
X140713Y251713D01*
X115000Y235000D02*
X150000D01*
X158000Y243000D01*
X109000Y229000D02*
X115000Y235000D01*
X109000Y191500D02*
Y229000D01*
X254000Y111000D02*
X263000Y120000D01*
X260000Y142171D02*
X266171Y136000D01*
X380900D01*
X260000Y142171D02*
Y150868D01*
Y159718D02*
X263000Y156718D01*
Y153868D02*
Y156718D01*
X260000Y150868D02*
X263000Y153868D01*
X355000Y180000D02*
X365000Y190000D01*
X281000Y180000D02*
X355000D01*
X272000Y189000D02*
X281000Y180000D01*
X361562Y209125D02*
X401375D01*
X412750Y197750D01*
X354250Y228625D02*
X419250D01*
X434688Y213188D01*
X256500Y173500D02*
Y180010D01*
Y173500D02*
X271000Y159000D01*
X281000D01*
X283000Y157000D01*
X358000D01*
X259500Y266500D02*
X290000Y236000D01*
X215500Y261000D02*
X221000Y266500D01*
X259500D01*
X206750Y239750D02*
X222000Y255000D01*
X257000D02*
X278000Y234000D01*
X222000Y255000D02*
X257000D01*
X197500Y239750D02*
X206750D01*
X175500Y261000D02*
X215500D01*
X140713Y251713D02*
Y255713D01*
X141000Y256000D01*
X225000Y244000D02*
X252000D01*
X202000Y234000D02*
X215000D01*
X225000Y244000D01*
X202000Y234000D02*
X202000Y234000D01*
X509000Y320000D02*
X563000Y374000D01*
X452000Y320000D02*
X509000D01*
X426000Y346000D02*
X452000Y320000D01*
X495000Y363000D02*
Y393000D01*
X464000Y332000D02*
X495000Y363000D01*
X456101Y332000D02*
X464000D01*
X67000Y287000D02*
Y302000D01*
X63000Y306000D02*
Y386000D01*
Y306000D02*
X67000Y302000D01*
X48000Y302000D02*
Y392000D01*
X41000Y204406D02*
Y295000D01*
X48000Y302000D01*
X41000Y204406D02*
X42500Y202906D01*
Y202500D02*
Y202906D01*
X48250Y254750D02*
X57500Y245500D01*
Y207500D02*
Y245500D01*
X48250Y254750D02*
Y268250D01*
X92000Y312000D02*
Y348000D01*
X82000Y302000D02*
X92000Y312000D01*
X82000Y277000D02*
Y302000D01*
X92000Y348000D02*
X122000Y378000D01*
X48250Y268250D02*
X67000Y287000D01*
X63000Y386000D02*
X92000Y415000D01*
X115000D01*
X123000Y407000D01*
X317000D01*
X81000Y425000D02*
X143000D01*
X155000Y413000D01*
X48000Y392000D02*
X81000Y425000D01*
X100000Y392000D02*
X198000D01*
X206000Y400000D01*
X75000Y367000D02*
X100000Y392000D01*
X155000Y413000D02*
X183000D01*
X185000Y415000D01*
X330000D02*
X337000Y408000D01*
X185000Y415000D02*
X330000D01*
X426243Y382000D02*
X435000Y373243D01*
X320000Y382000D02*
X426243D01*
X302000Y400000D02*
X320000Y382000D01*
X206000Y400000D02*
X302000D01*
X327000Y397000D02*
X433000D01*
X317000Y407000D02*
X327000Y397000D01*
X214000Y378000D02*
X228000Y392000D01*
X286000D02*
X306000Y372000D01*
X228000Y392000D02*
X286000D01*
X306000Y372000D02*
X414000D01*
X75000Y282000D02*
Y367000D01*
X122000Y378000D02*
X214000D01*
X116000Y322000D02*
X138000Y344000D01*
X116000Y284000D02*
Y322000D01*
X138000Y344000D02*
X408000D01*
X104000Y272000D02*
X116000Y284000D01*
X86250Y263382D02*
X94868Y272000D01*
X104000D01*
X105287Y261287D02*
X124000Y280000D01*
X99287Y261287D02*
X105287D01*
X124000Y280000D02*
Y306000D01*
X81250Y265453D02*
X95797Y280000D01*
X100000D01*
X106000Y286000D01*
Y332000D01*
X124000Y306000D02*
X148000Y330000D01*
X408000D01*
X439618Y298382D01*
X162000Y294000D02*
X184000Y316000D01*
X151868Y294000D02*
X162000D01*
X119000Y261132D02*
X151868Y294000D01*
X119000Y261000D02*
Y261132D01*
X290000Y220000D02*
Y236000D01*
X278000Y213929D02*
Y234000D01*
X268000Y208000D02*
Y228000D01*
X252000Y244000D02*
X268000Y228000D01*
X152000Y280000D02*
X258000D01*
X278000Y300000D02*
X381000D01*
X258000Y280000D02*
X278000Y300000D01*
X133000Y261000D02*
X152000Y280000D01*
X381000Y300000D02*
X396000Y285000D01*
X426000Y346000D02*
Y360000D01*
X414000Y372000D02*
X426000Y360000D01*
X444000Y344101D02*
X456101Y332000D01*
X444000Y344101D02*
Y386000D01*
X441000Y415000D02*
Y420000D01*
X337000Y408000D02*
X434000D01*
X441000Y415000D01*
X433000Y397000D02*
X444000Y386000D01*
X435000Y346030D02*
Y373243D01*
Y346030D02*
X456030Y325000D01*
X418000Y331101D02*
X443350Y305750D01*
X418000Y331101D02*
Y350000D01*
X459250Y58618D02*
X462868Y55000D01*
X580000Y46250D02*
X611250D01*
X642500Y77500D01*
X556750Y23000D02*
X580000Y46250D01*
X469000Y23000D02*
X556750D01*
X464000Y40000D02*
X543750D01*
X562500Y58750D02*
X581250D01*
X543750Y40000D02*
X562500Y58750D01*
X581250D02*
X600000Y77500D01*
X568750Y15000D02*
X575000Y21250D01*
X463887Y15000D02*
X568750D01*
X575000Y21250D02*
X586351D01*
X595101Y12500D01*
X423887Y55000D02*
X463887Y15000D01*
X437029Y56000D02*
X448000D01*
X464000Y40000D01*
X446000Y46000D02*
X469000Y23000D01*
X425958Y60000D02*
X439958Y46000D01*
X446000D01*
X428030Y65000D02*
X437029Y56000D01*
X452000Y66000D02*
X459250Y58750D01*
Y58618D02*
Y58750D01*
X434100Y66000D02*
X452000D01*
X430101Y70000D02*
X434100Y66000D01*
X749344Y167245D02*
X749493D01*
X751998Y169750D02*
X752000D01*
X749493Y167245D02*
X751998Y169750D01*
X745244Y163144D02*
X749344Y167245D01*
X446000Y425000D02*
X458940D01*
X441000Y420000D02*
X446000Y425000D01*
X458940D02*
X462961Y429021D01*
X396000Y285000D02*
X451000D01*
X464000Y298000D01*
X549287Y229287D02*
X554000Y234000D01*
X617000D01*
X549287Y224287D02*
Y229287D01*
X554680Y179713D02*
X562713D01*
X563000Y180000D01*
X544393Y190000D02*
X554680Y179713D01*
X549000Y224000D02*
X549287Y224287D01*
X564000Y225000D02*
X617000D01*
X694727Y127727D02*
X695000Y128000D01*
X709000Y111000D02*
X716000Y118000D01*
X618000Y184000D02*
X626000D01*
X476000Y175000D02*
X485000Y184000D01*
X417000Y175000D02*
X476000D01*
X413000Y180000D02*
X473000D01*
X434688Y213188D02*
X478187D01*
X412750Y197750D02*
X446063D01*
X439618Y298382D02*
X447618D01*
X447868Y298132D01*
X540000Y208000D02*
X574000D01*
X534000Y214000D02*
X540000Y208000D01*
Y220000D02*
X543000Y217000D01*
X493406Y228000D02*
X495406Y226000D01*
X493000Y228000D02*
X493406D01*
X495406Y226000D02*
X525000D01*
X485000Y220000D02*
X540000D01*
X478187Y213188D02*
X485000Y220000D01*
X456030Y325000D02*
X472071D01*
X472071Y325000D01*
X595541Y402000D02*
X603000Y409459D01*
X584000Y402000D02*
X595541D01*
X574000Y412000D02*
X584000Y402000D01*
X523000Y412000D02*
X574000D01*
X524879Y405879D02*
X567527D01*
X514000Y395000D02*
X524879Y405879D01*
X567527D02*
X571000Y402406D01*
X539000Y386000D02*
X545000Y380000D01*
X531000Y388000D02*
X535500Y392500D01*
X603000Y409459D02*
Y410000D01*
X571000Y402000D02*
Y402406D01*
X269000Y153000D02*
X269250Y152750D01*
X275250D02*
X280000Y148000D01*
X269250Y152750D02*
X275250D01*
X251000Y119000D02*
X258000Y126000D01*
X276250Y141750D02*
X365750D01*
X276069Y141931D02*
X276250Y141750D01*
X260000Y159718D02*
Y160124D01*
X365750Y141750D02*
X409000Y185000D01*
X252000Y138000D02*
X259000Y131000D01*
X252000Y138000D02*
Y149000D01*
X243000Y181000D02*
X251000Y189000D01*
X198350Y154230D02*
X202445Y150135D01*
Y140555D02*
Y150135D01*
Y140555D02*
X214000Y129000D01*
X198665Y168720D02*
X219280D01*
X219500Y168500D01*
X231000Y157000D01*
X219500Y177540D02*
X223460D01*
X231000Y170000D01*
X198665Y177540D02*
X219500D01*
X120000Y226000D02*
X152045Y193955D01*
Y193920D02*
Y193955D01*
X219500Y183000D02*
X231000D01*
X201250Y187500D02*
X205750Y183000D01*
X219500D01*
X195000Y136000D02*
X208002Y122998D01*
X212000Y119000D01*
X195000Y136000D02*
Y141250D01*
X158875Y122625D02*
Y122998D01*
Y141125D01*
X158750Y141250D02*
X158875Y141125D01*
Y122625D02*
X159000Y122500D01*
X168875Y122998D02*
Y141125D01*
Y122625D02*
Y122998D01*
Y122625D02*
X169000Y122500D01*
X168750Y141250D02*
X168875Y141125D01*
X121500Y157750D02*
X138750Y175000D01*
X121500Y151500D02*
Y157750D01*
X120000Y216000D02*
X120250D01*
X120500Y215750D01*
X138750Y197500D01*
X133314Y221998D02*
X147812Y207500D01*
X132812Y222500D02*
X133314Y221998D01*
X132500Y222500D02*
X132812D01*
X147812Y207500D02*
X148125D01*
X149127Y218874D02*
X157500Y210500D01*
X143543Y221998D02*
X146668Y218874D01*
X143041Y222500D02*
X143543Y221998D01*
X146668Y218874D02*
X149127D01*
X142500Y222500D02*
X143041D01*
X120500Y204500D02*
X134617Y190383D01*
X120000Y205000D02*
X120500Y204500D01*
X134617Y190383D02*
X138367D01*
X120000Y195000D02*
X120500Y194500D01*
X131875Y183125D01*
X138750D01*
X138367Y190383D02*
X138750Y190000D01*
X164688Y207812D02*
Y215812D01*
Y207812D02*
X165000Y207500D01*
X158000Y222500D02*
X164688Y215812D01*
X178000Y221959D02*
Y221998D01*
Y222500D01*
X180000Y207500D02*
Y219959D01*
X178000Y221959D02*
X180000Y219959D01*
X187750Y221998D02*
Y222750D01*
Y203375D02*
Y221998D01*
X187500Y203125D02*
X187750Y203375D01*
Y222750D02*
X188000Y223000D01*
X172500Y203125D02*
Y218000D01*
X172500Y203125D02*
X172500Y203125D01*
X157500Y203125D02*
Y210500D01*
X429100Y77000D02*
X433101Y81000D01*
X465000D01*
X401000Y77000D02*
X429100D01*
X465000Y81000D02*
X471000Y75000D01*
X332500Y27399D02*
X360101Y55000D01*
X423887D01*
X352000Y70000D02*
X430101D01*
X324000Y42000D02*
X352000Y70000D01*
X357071Y60000D02*
X425958D01*
X325287Y28216D02*
X357071Y60000D01*
X265000Y65000D02*
X315000D01*
X280520Y58520D02*
X317520D01*
X271287Y110774D02*
X273811Y108250D01*
X271287Y110774D02*
Y113713D01*
X54000Y261000D02*
X75000Y282000D01*
X66000Y261000D02*
X82000Y277000D01*
X81250Y265382D02*
Y265453D01*
X77000Y261132D02*
X81250Y265382D01*
X77000Y261000D02*
Y261132D01*
X85000Y261000D02*
Y261406D01*
X86250Y262656D02*
Y263382D01*
X85000Y261406D02*
X86250Y262656D01*
X99000Y261000D02*
X99287Y261287D01*
X90000Y139000D02*
X127000Y176000D01*
X90000Y110406D02*
Y139000D01*
Y110406D02*
X92000Y108406D01*
Y108000D02*
Y108406D01*
X355000Y65000D02*
X428030D01*
X317500Y27500D02*
X355000Y65000D01*
X271000Y114000D02*
X271287Y113713D01*
X395875Y196125D02*
X399000Y193000D01*
X385125Y196125D02*
X395875D01*
X304000Y42000D02*
X324000D01*
X332500Y12500D02*
Y27399D01*
X325287Y20287D02*
Y28216D01*
X317500Y12500D02*
Y27500D01*
X595101Y12500D02*
X632500D01*
X325000Y20000D02*
X325287Y20287D01*
X322000Y85000D02*
Y90250D01*
X320000Y83000D02*
X322000Y85000D01*
X251000Y189000D02*
X272000D01*
X358000Y157000D02*
X386000Y185000D01*
X158000Y243000D02*
Y255000D01*
X168000Y222500D02*
X172500Y218000D01*
D14*
X175340Y147000D02*
X179340D01*
X187475Y147546D02*
X187571Y147641D01*
X179886Y147546D02*
X187475D01*
X179340Y147000D02*
X179886Y147546D01*
X167596Y154744D02*
Y157904D01*
Y154744D02*
X175340Y147000D01*
X167500Y158000D02*
X167596Y157904D01*
D105*
X286000Y166000D02*
X346000D01*
X246500Y51500D02*
Y62500D01*
X325500Y73000D02*
X334000D01*
X257000D02*
X325500D01*
X246500Y62500D02*
X257000Y73000D01*
X429000Y89000D02*
X433750Y93750D01*
X657250D01*
X342000Y89000D02*
X429000D01*
X707000Y44000D02*
X762000D01*
X657250Y93750D02*
X707000Y44000D01*
X737500Y422000D02*
X754500Y405000D01*
X533271Y422000D02*
X737500D01*
X518000Y428000D02*
X527271D01*
X533271Y422000D01*
X786000Y103000D02*
X793900D01*
X773000D02*
X786000D01*
X334000Y81000D02*
X342000Y89000D01*
X762000Y44000D02*
Y92000D01*
Y44000D02*
X771000D01*
X793900Y103000D02*
X798000Y107100D01*
Y190000D01*
X762000Y92000D02*
X773000Y103000D01*
X754500Y233500D02*
X798000Y190000D01*
X754500Y233500D02*
Y405000D01*
X505000Y415000D02*
X518000Y428000D01*
X453000Y415000D02*
X505000D01*
X334000Y73000D02*
Y81000D01*
D106*
X186250Y161475D02*
X206855D01*
X209130Y163750D01*
X215382D01*
X215632Y163500D02*
X216500D01*
X215382Y163750D02*
X215632Y163500D01*
X219750Y158000D02*
Y160250D01*
X216500Y163500D02*
X219750Y160250D01*
D107*
X159050Y188550D02*
G03*
X153750Y183250I0J-5300D01*
G01*
X181000Y188500D02*
G03*
X198000Y205500I0J17000D01*
G01*
X440375Y248125D02*
X443984Y244516D01*
X453016D01*
X457500Y249000D01*
X197000Y225000D02*
Y225000D01*
Y225000D02*
X198000Y224000D01*
X159050Y188500D02*
X170000D01*
X181000D01*
X159050D02*
Y188550D01*
X153750Y178125D02*
Y183250D01*
X153620Y166830D02*
Y178125D01*
X186250Y156875D02*
Y161475D01*
Y167500D01*
X198000Y205500D02*
Y224000D01*
X453000Y347000D02*
Y396000D01*
D121*
X317687Y235938D02*
X333937D01*
X317687Y244062D02*
X327438D01*
X316875Y210750D02*
X323375D01*
X435172Y236266D02*
X465266D01*
X457500Y249000D02*
X461000D01*
X509080Y200920D02*
X525606D01*
X509000Y201000D02*
X509080Y200920D01*
X530025Y196500D02*
X563000D01*
X525606Y200920D02*
X530025Y196500D01*
D127*
X197000Y225000D02*
D03*
X591000Y148000D02*
D03*
X509000Y201000D02*
D03*
X532000Y142000D02*
D03*
X563000Y196500D02*
D03*
X545000Y282000D02*
D03*
D128*
X480000Y274000D02*
D03*
X608000Y356000D02*
D03*
X699500Y180000D02*
D03*
X286000Y166000D02*
D03*
X246500Y51500D02*
D03*
X325500Y73000D02*
D03*
X453000Y415000D02*
D03*
Y347000D02*
D03*
Y396000D02*
D03*
X334000Y73000D02*
D03*
X632500Y12500D02*
D03*
X346000Y166000D02*
D03*
X470000Y142000D02*
D03*
X771000Y44000D02*
D03*
X786000Y103000D02*
D03*
X724500Y211250D02*
D03*
X613000Y283000D02*
D03*
D130*
X187571Y147641D02*
D03*
X522653Y182262D02*
D03*
X120500Y130500D02*
D03*
X121500Y144500D02*
D03*
X109000Y118000D02*
D03*
X119000D02*
D03*
X134000Y57750D02*
D03*
X174000Y52000D02*
D03*
X123000D02*
D03*
X268123Y176000D02*
D03*
X175500Y261000D02*
D03*
X149740Y256073D02*
D03*
X141000Y256000D02*
D03*
X197500Y239750D02*
D03*
X202000Y234000D02*
D03*
X777000Y116000D02*
D03*
X752000Y169750D02*
D03*
X563000Y180000D02*
D03*
X549000Y224000D02*
D03*
X564000Y225000D02*
D03*
X687000Y144000D02*
D03*
X695000D02*
D03*
Y128000D02*
D03*
X687000D02*
D03*
X723000Y95000D02*
D03*
X740000Y89000D02*
D03*
X452562Y204250D02*
D03*
X446063Y197750D02*
D03*
X447868Y298132D02*
D03*
X455934Y298066D02*
D03*
X464000Y298000D02*
D03*
X493000Y228000D02*
D03*
X525000Y226000D02*
D03*
X528000Y208000D02*
D03*
X408000Y344000D02*
D03*
X523000Y412000D02*
D03*
X571000Y402000D02*
D03*
X563000Y374000D02*
D03*
X276069Y141931D02*
D03*
X269000Y153000D02*
D03*
X260000Y160124D02*
D03*
X252000Y149000D02*
D03*
X251000Y119000D02*
D03*
X198350Y154230D02*
D03*
X186250Y167500D02*
D03*
Y156250D02*
D03*
X198665Y168720D02*
D03*
Y177540D02*
D03*
X152045Y193920D02*
D03*
X153750Y178125D02*
D03*
X153620Y166830D02*
D03*
X201250Y187500D02*
D03*
X159000Y122500D02*
D03*
X169000D02*
D03*
X120000Y226000D02*
D03*
Y216000D02*
D03*
X132500Y222500D02*
D03*
X142500D02*
D03*
X120000Y205000D02*
D03*
Y195000D02*
D03*
X148125Y207500D02*
D03*
X165000D02*
D03*
X180000D02*
D03*
X187500Y203125D02*
D03*
X172500D02*
D03*
X157500D02*
D03*
X195000Y141250D02*
D03*
X168750D02*
D03*
X158750D02*
D03*
X144375Y142500D02*
D03*
X138750Y150000D02*
D03*
Y158125D02*
D03*
Y166875D02*
D03*
Y175000D02*
D03*
Y183125D02*
D03*
Y190000D02*
D03*
Y197500D02*
D03*
X401000Y77000D02*
D03*
X315000Y65000D02*
D03*
X85000Y261000D02*
D03*
X99000D02*
D03*
X133000D02*
D03*
X119000D02*
D03*
X77000D02*
D03*
X54000D02*
D03*
X66000D02*
D03*
X181000Y188500D02*
D03*
X728934Y152066D02*
D03*
X271000Y114000D02*
D03*
X285000D02*
D03*
X399000Y193000D02*
D03*
X450000Y124000D02*
D03*
X574000Y208000D02*
D03*
X231000Y183000D02*
D03*
Y170000D02*
D03*
Y157000D02*
D03*
X495000Y393000D02*
D03*
X109000Y62000D02*
D03*
X170000Y83000D02*
D03*
X317520Y58520D02*
D03*
X329000Y58000D02*
D03*
X304000Y42000D02*
D03*
X159050Y188550D02*
D03*
X188000Y223000D02*
D03*
X73000Y108000D02*
D03*
X84000D02*
D03*
X92000D02*
D03*
X207000Y103000D02*
D03*
X212000Y119000D02*
D03*
X234000Y96000D02*
D03*
X308000Y90250D02*
D03*
X322000D02*
D03*
X214000Y129000D02*
D03*
X365000Y190000D02*
D03*
X386000Y185000D02*
D03*
X256500Y180010D02*
D03*
X642500Y77500D02*
D03*
X219750Y158000D02*
D03*
X706000Y143250D02*
D03*
X471000Y75000D02*
D03*
X600000Y77500D02*
D03*
X542500D02*
D03*
X332500Y12500D02*
D03*
X325000Y20000D02*
D03*
X317500Y12500D02*
D03*
X158000Y255000D02*
D03*
X57500Y207500D02*
D03*
X42500Y202500D02*
D03*
X127000Y176000D02*
D03*
X556000Y311000D02*
D03*
X531000Y388000D02*
D03*
X170000Y188500D02*
D03*
X178000Y222500D02*
D03*
X168000D02*
D03*
X158000D02*
D03*
X167500Y158000D02*
D03*
X121500Y151500D02*
D03*
D131*
X737000Y307883D02*
D03*
X539000Y386000D02*
D03*
X603000Y410000D02*
D03*
X462961Y429021D02*
D03*
X617000Y225000D02*
D03*
Y234000D02*
D03*
X527000Y428000D02*
D03*
X582852Y359764D02*
D03*
X625000Y394000D02*
D03*
D132*
X317687Y235938D02*
D03*
Y244062D02*
D03*
X316875Y210750D02*
D03*
Y269250D02*
D03*
M02*
