G04*
G04 #@! TF.GenerationSoftware,Altium Limited,Altium Designer,22.6.1 (34)*
G04*
G04 Layer_Physical_Order=2*
G04 Layer_Color=3707366*
%FSLAX44Y44*%
%MOMM*%
G71*
G04*
G04 #@! TF.SameCoordinates,0BC7250A-E466-409B-9AFC-A4DADF5EADDD*
G04*
G04*
G04 #@! TF.FilePolarity,Positive*
G04*
G01*
G75*
%ADD12C,0.2500*%
%ADD13C,0.2000*%
%ADD124O,1.9000X1.8000*%
%ADD127C,0.6000*%
%ADD128C,0.7000*%
%ADD129C,0.5500*%
%ADD130C,0.4500*%
%ADD134C,0.3250*%
%ADD135C,0.2000*%
%ADD138C,0.1250*%
G36*
X770000Y437500D02*
X770497D01*
X771416Y437119D01*
X772119Y436416D01*
X772500Y435497D01*
X772500Y435000D01*
X772968Y432360D01*
X774320Y427172D01*
X776214Y422156D01*
X778628Y417370D01*
X781536Y412866D01*
X784904Y408695D01*
X788695Y404904D01*
X792866Y401536D01*
X797370Y398628D01*
X802157Y396214D01*
X807172Y394320D01*
X812360Y392968D01*
X815000Y392500D01*
X815497D01*
X816416Y392119D01*
X817119Y391416D01*
X817500Y390497D01*
Y379938D01*
X816327Y379451D01*
X816115Y379663D01*
X814094Y380500D01*
X811906D01*
X809884Y379663D01*
X808337Y378116D01*
X807500Y376094D01*
Y373906D01*
X808337Y371884D01*
X809884Y370337D01*
X811906Y369500D01*
X814094D01*
X816115Y370337D01*
X816327Y370549D01*
X817500Y370062D01*
Y50000D01*
Y49503D01*
X817119Y48584D01*
X816416Y47881D01*
X815497Y47500D01*
X815000Y47500D01*
X812360Y47032D01*
X807172Y45680D01*
X802157Y43786D01*
X797370Y41372D01*
X792866Y38464D01*
X788695Y35096D01*
X784904Y31305D01*
X781536Y27134D01*
X778628Y22630D01*
X776214Y17843D01*
X774320Y12828D01*
X772968Y7640D01*
X772500Y5000D01*
Y4503D01*
X772119Y3584D01*
X771416Y2881D01*
X770497Y2500D01*
X439503D01*
X438584Y2881D01*
X437881Y3584D01*
X437662Y4112D01*
X437470Y5274D01*
X437470Y5275D01*
X437470Y5275D01*
X437061Y8157D01*
X435719Y13820D01*
X433699Y19277D01*
X431031Y24449D01*
X427753Y29257D01*
X423914Y33631D01*
X419572Y37506D01*
X414791Y40824D01*
X409642Y43536D01*
X404202Y45602D01*
X398550Y46991D01*
X392772Y47682D01*
X386952Y47665D01*
X381178Y46941D01*
X375535Y45519D01*
X370106Y43422D01*
X364973Y40680D01*
X360211Y37335D01*
X355892Y33435D01*
X352079Y29039D01*
X348829Y24211D01*
X346190Y19024D01*
X344201Y13555D01*
X342893Y7884D01*
X342500Y5000D01*
Y4503D01*
X342119Y3584D01*
X341416Y2881D01*
X340497Y2500D01*
X49503D01*
X48584Y2881D01*
X47881Y3584D01*
X47773Y3843D01*
X47500Y5000D01*
Y5000D01*
X47500D01*
X47500Y5000D01*
X47032Y7640D01*
X45680Y12828D01*
X43786Y17843D01*
X41372Y22630D01*
X38464Y27134D01*
X35096Y31305D01*
X31305Y35096D01*
X27134Y38464D01*
X22630Y41372D01*
X17843Y43786D01*
X12828Y45680D01*
X7640Y47032D01*
X5000Y47500D01*
X5000Y47500D01*
X5000Y47500D01*
X3843Y47773D01*
X3584Y47881D01*
X2881Y48584D01*
X2500Y49503D01*
Y50000D01*
Y390000D01*
Y390497D01*
X2881Y391416D01*
X3584Y392119D01*
X4503Y392500D01*
X5000Y392500D01*
X7640Y392968D01*
X12828Y394320D01*
X17843Y396214D01*
X22630Y398628D01*
X27134Y401536D01*
X31305Y404904D01*
X35096Y408695D01*
X38464Y412866D01*
X41372Y417370D01*
X43786Y422156D01*
X45680Y427172D01*
X47032Y432360D01*
X47500Y435000D01*
Y435497D01*
X47881Y436416D01*
X48584Y437119D01*
X49503Y437500D01*
X380497D01*
X381416Y437119D01*
X382119Y436416D01*
X382500Y435497D01*
Y430000D01*
X382500D01*
X382536Y429265D01*
X382823Y427823D01*
X383386Y426465D01*
X384202Y425242D01*
X385242Y424202D01*
X386465Y423386D01*
X387823Y422823D01*
X389265Y422536D01*
X390000Y422500D01*
X430000Y422500D01*
Y422500D01*
X430735Y422536D01*
X432177Y422823D01*
X433535Y423386D01*
X434758Y424202D01*
X435798Y425242D01*
X436614Y426465D01*
X437177Y427823D01*
X437464Y429265D01*
X437500Y430000D01*
X437500Y435497D01*
X437881Y436416D01*
X438584Y437119D01*
X439503Y437500D01*
X770000D01*
Y437500D01*
D02*
G37*
%LPC*%
G36*
X527597Y431000D02*
X526403D01*
X525301Y430543D01*
X524457Y429699D01*
X524000Y428597D01*
Y427403D01*
X524457Y426301D01*
X525301Y425457D01*
X526403Y425000D01*
X527597D01*
X528699Y425457D01*
X529543Y426301D01*
X530000Y427403D01*
Y428597D01*
X529543Y429699D01*
X528699Y430543D01*
X527597Y431000D01*
D02*
G37*
G36*
X463857Y433521D02*
X462066D01*
X460412Y432836D01*
X459146Y431570D01*
X458461Y429916D01*
Y428126D01*
X459146Y426472D01*
X460412Y425206D01*
X462066Y424521D01*
X463857D01*
X465510Y425206D01*
X466776Y426472D01*
X467461Y428126D01*
Y429916D01*
X466776Y431570D01*
X465510Y432836D01*
X463857Y433521D01*
D02*
G37*
G36*
X167094Y429500D02*
X164906D01*
X162885Y428663D01*
X161337Y427116D01*
X160500Y425094D01*
Y422906D01*
X161337Y420885D01*
X162885Y419337D01*
X164906Y418500D01*
X167094D01*
X169116Y419337D01*
X170663Y420885D01*
X171500Y422906D01*
Y425094D01*
X170663Y427116D01*
X169116Y428663D01*
X167094Y429500D01*
D02*
G37*
G36*
X453696Y418500D02*
X452304D01*
X451017Y417967D01*
X450033Y416983D01*
X449500Y415696D01*
Y414304D01*
X450033Y413017D01*
X451017Y412033D01*
X452304Y411500D01*
X453696D01*
X454983Y412033D01*
X455967Y413017D01*
X456500Y414304D01*
Y415696D01*
X455967Y416983D01*
X454983Y417967D01*
X453696Y418500D01*
D02*
G37*
G36*
X523845Y416250D02*
X522155D01*
X520593Y415603D01*
X519397Y414407D01*
X518750Y412845D01*
Y411155D01*
X519397Y409593D01*
X520593Y408397D01*
X522155Y407750D01*
X523845D01*
X525407Y408397D01*
X526603Y409593D01*
X527250Y411155D01*
Y412845D01*
X526603Y414407D01*
X525407Y415603D01*
X523845Y416250D01*
D02*
G37*
G36*
X603895Y414500D02*
X602105D01*
X600451Y413815D01*
X599185Y412549D01*
X598500Y410895D01*
Y409105D01*
X599185Y407451D01*
X600451Y406185D01*
X602105Y405500D01*
X603895D01*
X605549Y406185D01*
X606815Y407451D01*
X607500Y409105D01*
Y410895D01*
X606815Y412549D01*
X605549Y413815D01*
X603895Y414500D01*
D02*
G37*
G36*
X591895D02*
X590105D01*
X588451Y413815D01*
X587185Y412549D01*
X586500Y410895D01*
Y409105D01*
X587185Y407451D01*
X588451Y406185D01*
X590105Y405500D01*
X591895D01*
X593549Y406185D01*
X594815Y407451D01*
X595500Y409105D01*
Y410895D01*
X594815Y412549D01*
X593549Y413815D01*
X591895Y414500D01*
D02*
G37*
G36*
X615894Y410500D02*
X614104D01*
X612450Y409815D01*
X611184Y408549D01*
X610499Y406895D01*
Y405105D01*
X611184Y403451D01*
X612450Y402185D01*
X614104Y401500D01*
X615894D01*
X617548Y402185D01*
X618814Y403451D01*
X619499Y405105D01*
Y406895D01*
X618814Y408549D01*
X617548Y409815D01*
X615894Y410500D01*
D02*
G37*
G36*
X571845Y406250D02*
X570155D01*
X568593Y405603D01*
X567397Y404407D01*
X566750Y402845D01*
Y401155D01*
X567397Y399593D01*
X568593Y398397D01*
X570155Y397750D01*
X571845D01*
X573407Y398397D01*
X574603Y399593D01*
X575250Y401155D01*
Y402845D01*
X574603Y404407D01*
X573407Y405603D01*
X571845Y406250D01*
D02*
G37*
G36*
X669344Y404250D02*
X667156D01*
X665135Y403413D01*
X663587Y401866D01*
X662750Y399844D01*
Y397656D01*
X663587Y395634D01*
X665135Y394087D01*
X667156Y393250D01*
X669344D01*
X671366Y394087D01*
X672913Y395634D01*
X673750Y397656D01*
Y399844D01*
X672913Y401866D01*
X671366Y403413D01*
X669344Y404250D01*
D02*
G37*
G36*
X453696Y399500D02*
X452304D01*
X451017Y398967D01*
X450033Y397983D01*
X449500Y396696D01*
Y395304D01*
X450033Y394017D01*
X451017Y393033D01*
X452304Y392500D01*
X453696D01*
X454983Y393033D01*
X455967Y394017D01*
X456500Y395304D01*
Y396696D01*
X455967Y397983D01*
X454983Y398967D01*
X453696Y399500D01*
D02*
G37*
G36*
X656895Y398500D02*
X655105D01*
X653451Y397815D01*
X652185Y396549D01*
X651500Y394895D01*
Y393105D01*
X652185Y391451D01*
X653451Y390185D01*
X655105Y389500D01*
X656895D01*
X658549Y390185D01*
X659815Y391451D01*
X660500Y393105D01*
Y394895D01*
X659815Y396549D01*
X658549Y397815D01*
X656895Y398500D01*
D02*
G37*
G36*
X625895D02*
X624105D01*
X622451Y397815D01*
X621185Y396549D01*
X620500Y394895D01*
Y393105D01*
X621185Y391451D01*
X622451Y390185D01*
X624105Y389500D01*
X625895D01*
X627549Y390185D01*
X628815Y391451D01*
X629500Y393105D01*
Y394895D01*
X628815Y396549D01*
X627549Y397815D01*
X625895Y398500D01*
D02*
G37*
G36*
X495845Y397250D02*
X494155D01*
X492593Y396603D01*
X491397Y395407D01*
X490750Y393845D01*
Y392155D01*
X491397Y390593D01*
X492593Y389397D01*
X494155Y388750D01*
X495845D01*
X497407Y389397D01*
X498603Y390593D01*
X499250Y392155D01*
Y393845D01*
X498603Y395407D01*
X497407Y396603D01*
X495845Y397250D01*
D02*
G37*
G36*
X531845Y392250D02*
X530155D01*
X528593Y391603D01*
X527397Y390407D01*
X526750Y388845D01*
Y387155D01*
X527397Y385593D01*
X528593Y384397D01*
X530155Y383750D01*
X531845D01*
X533407Y384397D01*
X533415Y384405D01*
X534913Y384107D01*
X535185Y383451D01*
X536451Y382185D01*
X538105Y381500D01*
X539895D01*
X541549Y382185D01*
X542815Y383451D01*
X543500Y385105D01*
Y386895D01*
X542815Y388549D01*
X541549Y389815D01*
X539895Y390500D01*
X538105D01*
X536451Y389815D01*
X536290Y389654D01*
X534792Y389952D01*
X534603Y390407D01*
X533407Y391603D01*
X531845Y392250D01*
D02*
G37*
G36*
X669344Y388000D02*
X667156D01*
X665135Y387163D01*
X663587Y385616D01*
X662750Y383594D01*
Y381406D01*
X663587Y379384D01*
X665135Y377837D01*
X667156Y377000D01*
X669344D01*
X671366Y377837D01*
X672913Y379384D01*
X673750Y381406D01*
Y383594D01*
X672913Y385616D01*
X671366Y387163D01*
X669344Y388000D01*
D02*
G37*
G36*
X563845Y378250D02*
X562155D01*
X560593Y377603D01*
X559397Y376407D01*
X558750Y374845D01*
Y373155D01*
X559397Y371593D01*
X560593Y370397D01*
X562155Y369750D01*
X563845D01*
X565407Y370397D01*
X566603Y371593D01*
X567250Y373155D01*
Y374845D01*
X566603Y376407D01*
X565407Y377603D01*
X563845Y378250D01*
D02*
G37*
G36*
X282895Y371500D02*
X281105D01*
X279451Y370815D01*
X278830Y370194D01*
X278000Y369667D01*
X277170Y370194D01*
X276549Y370815D01*
X274895Y371500D01*
X273105D01*
X271451Y370815D01*
X270830Y370194D01*
X270000Y369667D01*
X269170Y370194D01*
X268549Y370815D01*
X266895Y371500D01*
X265105D01*
X263451Y370815D01*
X262185Y369549D01*
X261500Y367895D01*
Y366105D01*
X262185Y364451D01*
X263451Y363185D01*
X265105Y362500D01*
X266895D01*
X268549Y363185D01*
X269170Y363806D01*
X270000Y364333D01*
X270830Y363806D01*
X271451Y363185D01*
X273105Y362500D01*
X274895D01*
X276549Y363185D01*
X277170Y363806D01*
X278000Y364333D01*
X278830Y363806D01*
X279451Y363185D01*
X281105Y362500D01*
X282895D01*
X284549Y363185D01*
X285815Y364451D01*
X286500Y366105D01*
Y367895D01*
X285815Y369549D01*
X284549Y370815D01*
X282895Y371500D01*
D02*
G37*
G36*
X793094Y380500D02*
X790906D01*
X788885Y379663D01*
X787337Y378116D01*
X786500Y376094D01*
Y373906D01*
X787337Y371884D01*
X788885Y370337D01*
X790906Y369500D01*
X793094D01*
X795116Y370337D01*
X796663Y371884D01*
X797500Y373906D01*
Y376094D01*
X796663Y378116D01*
X795116Y379663D01*
X793094Y380500D01*
D02*
G37*
G36*
X669106Y374000D02*
X667394D01*
X665741Y373557D01*
X664259Y372701D01*
X663049Y371491D01*
X662193Y370009D01*
X661750Y368356D01*
Y366644D01*
X662193Y364991D01*
X663049Y363509D01*
X664259Y362299D01*
X665741Y361443D01*
X667394Y361000D01*
X669106D01*
X670759Y361443D01*
X672241Y362299D01*
X673451Y363509D01*
X674307Y364991D01*
X674750Y366644D01*
Y368356D01*
X674307Y370009D01*
X673451Y371491D01*
X672241Y372701D01*
X670759Y373557D01*
X669106Y374000D01*
D02*
G37*
G36*
X583747Y364264D02*
X581957D01*
X580303Y363579D01*
X579037Y362313D01*
X578352Y360659D01*
Y358869D01*
X579037Y357215D01*
X580303Y355950D01*
X581957Y355264D01*
X583747D01*
X585401Y355950D01*
X586667Y357215D01*
X587352Y358869D01*
Y360659D01*
X586667Y362313D01*
X585401Y363579D01*
X583747Y364264D01*
D02*
G37*
G36*
X529696Y361500D02*
X528304D01*
X527017Y360967D01*
X526033Y359983D01*
X525500Y358696D01*
Y357304D01*
X526033Y356017D01*
X527017Y355033D01*
X528304Y354500D01*
X529696D01*
X530983Y355033D01*
X531967Y356017D01*
X532500Y357304D01*
Y358696D01*
X531967Y359983D01*
X530983Y360967D01*
X529696Y361500D01*
D02*
G37*
G36*
X608856Y362500D02*
X607144D01*
X605491Y362057D01*
X604009Y361201D01*
X602799Y359991D01*
X601943Y358509D01*
X601500Y356856D01*
Y355144D01*
X601943Y353491D01*
X602799Y352009D01*
X604009Y350799D01*
X605491Y349943D01*
X607144Y349500D01*
X608856D01*
X610509Y349943D01*
X611991Y350799D01*
X613201Y352009D01*
X614057Y353491D01*
X614500Y355144D01*
Y356856D01*
X614057Y358509D01*
X613201Y359991D01*
X611991Y361201D01*
X610509Y362057D01*
X608856Y362500D01*
D02*
G37*
G36*
X769344Y355500D02*
X767156D01*
X765135Y354663D01*
X763587Y353116D01*
X762750Y351094D01*
Y348906D01*
X763587Y346884D01*
X765135Y345337D01*
X767156Y344500D01*
X769344D01*
X771366Y345337D01*
X772913Y346884D01*
X773750Y348906D01*
Y351094D01*
X772913Y353116D01*
X771366Y354663D01*
X769344Y355500D01*
D02*
G37*
G36*
X453696Y350500D02*
X452304D01*
X451017Y349967D01*
X450033Y348983D01*
X449500Y347696D01*
Y346304D01*
X450033Y345017D01*
X451017Y344033D01*
X452304Y343500D01*
X453696D01*
X454983Y344033D01*
X455967Y345017D01*
X456500Y346304D01*
Y347696D01*
X455967Y348983D01*
X454983Y349967D01*
X453696Y350500D01*
D02*
G37*
G36*
X408845Y348250D02*
X407155D01*
X405593Y347603D01*
X404397Y346407D01*
X403750Y344845D01*
Y343155D01*
X404397Y341593D01*
X405593Y340397D01*
X407155Y339750D01*
X408845D01*
X410407Y340397D01*
X411603Y341593D01*
X412250Y343155D01*
Y344845D01*
X411603Y346407D01*
X410407Y347603D01*
X408845Y348250D01*
D02*
G37*
G36*
X700345Y350500D02*
X698655D01*
X697093Y349853D01*
X695897Y348657D01*
X695250Y347095D01*
Y345405D01*
X695897Y343843D01*
X696410Y343330D01*
X696990Y342500D01*
X696410Y341670D01*
X695897Y341157D01*
X695250Y339595D01*
Y337905D01*
X695897Y336343D01*
X697093Y335147D01*
X698655Y334500D01*
X700345D01*
X701907Y335147D01*
X703103Y336343D01*
X703750Y337905D01*
Y339595D01*
X703103Y341157D01*
X702590Y341670D01*
X702010Y342500D01*
X702590Y343330D01*
X703103Y343843D01*
X703750Y345405D01*
Y347095D01*
X703103Y348657D01*
X701907Y349853D01*
X700345Y350500D01*
D02*
G37*
G36*
X596094Y352000D02*
X593906D01*
X591884Y351163D01*
X590337Y349616D01*
X589500Y347594D01*
Y345406D01*
X590337Y343385D01*
X591884Y341837D01*
X593906Y341000D01*
X594296D01*
X595001Y339944D01*
X594734Y339299D01*
Y337111D01*
X595572Y335090D01*
X597119Y333543D01*
X599140Y332705D01*
X601328D01*
X603350Y333543D01*
X604897Y335090D01*
X605734Y337111D01*
Y339299D01*
X604897Y341321D01*
X603350Y342868D01*
X601328Y343705D01*
X600938D01*
X600233Y344761D01*
X600500Y345406D01*
Y347594D01*
X599663Y349616D01*
X598116Y351163D01*
X596094Y352000D01*
D02*
G37*
G36*
X780094Y340500D02*
X777906D01*
X775884Y339663D01*
X774337Y338116D01*
X773500Y336094D01*
Y333906D01*
X774337Y331884D01*
X775884Y330337D01*
X777906Y329500D01*
X780094D01*
X782115Y330337D01*
X783663Y331884D01*
X784500Y333906D01*
Y336094D01*
X783663Y338116D01*
X782115Y339663D01*
X780094Y340500D01*
D02*
G37*
G36*
X17094D02*
X14906D01*
X12885Y339663D01*
X11337Y338116D01*
X10500Y336094D01*
Y333906D01*
X11337Y331884D01*
X12885Y330337D01*
X14906Y329500D01*
X17094D01*
X19116Y330337D01*
X20663Y331884D01*
X21500Y333906D01*
Y336094D01*
X20663Y338116D01*
X19116Y339663D01*
X17094Y340500D01*
D02*
G37*
G36*
X434696Y330500D02*
X433304D01*
X432017Y329967D01*
X431033Y328983D01*
X430500Y327696D01*
Y326304D01*
X431033Y325017D01*
X432017Y324033D01*
X433304Y323500D01*
X434696D01*
X435983Y324033D01*
X436967Y325017D01*
X437500Y326304D01*
Y327696D01*
X436967Y328983D01*
X435983Y329967D01*
X434696Y330500D01*
D02*
G37*
G36*
X441696Y324500D02*
X440304D01*
X439017Y323967D01*
X438033Y322983D01*
X437500Y321696D01*
Y320304D01*
X438033Y319017D01*
X439017Y318033D01*
X440304Y317500D01*
X441696D01*
X442983Y318033D01*
X443967Y319017D01*
X444500Y320304D01*
Y321696D01*
X443967Y322983D01*
X442983Y323967D01*
X441696Y324500D01*
D02*
G37*
G36*
X556845Y315250D02*
X555155D01*
X553593Y314603D01*
X552397Y313407D01*
X551750Y311845D01*
Y310155D01*
X552397Y308593D01*
X553593Y307397D01*
X555155Y306750D01*
X556845D01*
X558407Y307397D01*
X559603Y308593D01*
X560250Y310155D01*
Y311845D01*
X559603Y313407D01*
X558407Y314603D01*
X556845Y315250D01*
D02*
G37*
G36*
X737895Y312383D02*
X736105D01*
X734451Y311698D01*
X733185Y310432D01*
X732500Y308778D01*
Y306987D01*
X733185Y305334D01*
X734451Y304068D01*
X736105Y303383D01*
X737895D01*
X739549Y304068D01*
X740815Y305334D01*
X741500Y306987D01*
Y308778D01*
X740815Y310432D01*
X739549Y311698D01*
X737895Y312383D01*
D02*
G37*
G36*
X241395Y300000D02*
X239605D01*
X237951Y299315D01*
X237250Y298614D01*
X236549Y299315D01*
X234895Y300000D01*
X233105D01*
X231451Y299315D01*
X230750Y298614D01*
X230049Y299315D01*
X228395Y300000D01*
X226605D01*
X224951Y299315D01*
X223685Y298049D01*
X223000Y296395D01*
Y294605D01*
X223685Y292951D01*
X224951Y291685D01*
X226605Y291000D01*
X228395D01*
X230049Y291685D01*
X230750Y292386D01*
X231451Y291685D01*
X233105Y291000D01*
X234895D01*
X236549Y291685D01*
X237250Y292386D01*
X237951Y291685D01*
X239605Y291000D01*
X241395D01*
X243049Y291685D01*
X244315Y292951D01*
X245000Y294605D01*
Y296395D01*
X244315Y298049D01*
X243049Y299315D01*
X241395Y300000D01*
D02*
G37*
G36*
X28711Y323000D02*
X25288D01*
X21981Y322114D01*
X19017Y320402D01*
X16597Y317982D01*
X14885Y315018D01*
X13999Y311711D01*
Y308288D01*
X14885Y304982D01*
X16597Y302017D01*
X19017Y299597D01*
X21981Y297886D01*
X25288Y297000D01*
X28711D01*
X32017Y297886D01*
X34982Y299597D01*
X37402Y302017D01*
X39113Y304982D01*
X39999Y308288D01*
Y311711D01*
X39113Y315018D01*
X37402Y317982D01*
X34982Y320402D01*
X32017Y322114D01*
X28711Y323000D01*
D02*
G37*
G36*
X90696Y302500D02*
X89304D01*
X88017Y301967D01*
X87033Y300983D01*
X86500Y299696D01*
Y298304D01*
X87033Y297017D01*
X88017Y296033D01*
X89304Y295500D01*
X90696D01*
X91983Y296033D01*
X92967Y297017D01*
X93500Y298304D01*
Y299696D01*
X92967Y300983D01*
X91983Y301967D01*
X90696Y302500D01*
D02*
G37*
G36*
X448714Y302382D02*
X447023D01*
X445461Y301735D01*
X444265Y300539D01*
X443618Y298977D01*
Y297286D01*
X444265Y295724D01*
X445461Y294529D01*
X447023Y293882D01*
X448714D01*
X450276Y294529D01*
X451088Y295341D01*
X451950Y295561D01*
X452676Y295314D01*
X453527Y294463D01*
X455089Y293816D01*
X456780D01*
X458342Y294463D01*
X459154Y295275D01*
X460016Y295495D01*
X460742Y295248D01*
X461593Y294397D01*
X463155Y293750D01*
X464845D01*
X466407Y294397D01*
X467603Y295593D01*
X468250Y297155D01*
Y298845D01*
X467603Y300407D01*
X466407Y301603D01*
X464845Y302250D01*
X463155D01*
X461593Y301603D01*
X460780Y300791D01*
X459918Y300571D01*
X459192Y300818D01*
X458342Y301669D01*
X456780Y302316D01*
X455089D01*
X453527Y301669D01*
X452714Y300856D01*
X451852Y300636D01*
X451127Y300884D01*
X450276Y301735D01*
X448714Y302382D01*
D02*
G37*
G36*
X767856Y306500D02*
X766144D01*
X764491Y306057D01*
X763009Y305201D01*
X761799Y303991D01*
X760943Y302509D01*
X760500Y300856D01*
Y299144D01*
X760943Y297491D01*
X761799Y296009D01*
X763009Y294799D01*
X764491Y293943D01*
X766144Y293500D01*
X767856D01*
X769509Y293943D01*
X770991Y294799D01*
X772201Y296009D01*
X773057Y297491D01*
X773500Y299144D01*
Y300856D01*
X773057Y302509D01*
X772201Y303991D01*
X770991Y305201D01*
X769509Y306057D01*
X767856Y306500D01*
D02*
G37*
G36*
X412895Y318500D02*
X411105D01*
X409451Y317815D01*
X408185Y316549D01*
X407500Y314895D01*
Y313105D01*
X408185Y311451D01*
X408806Y310830D01*
X409333Y310000D01*
X408806Y309170D01*
X408185Y308549D01*
X407500Y306895D01*
Y305105D01*
X408185Y303451D01*
X408806Y302830D01*
X409333Y302000D01*
X408806Y301170D01*
X408185Y300549D01*
X407500Y298895D01*
Y297105D01*
X408185Y295451D01*
X409451Y294185D01*
X411105Y293500D01*
X412895D01*
X414549Y294185D01*
X415815Y295451D01*
X416500Y297105D01*
Y298895D01*
X415815Y300549D01*
X415194Y301170D01*
X414667Y302000D01*
X415194Y302830D01*
X415815Y303451D01*
X416500Y305105D01*
Y306895D01*
X415815Y308549D01*
X415194Y309170D01*
X414667Y310000D01*
X415194Y310830D01*
X415815Y311451D01*
X416500Y313105D01*
Y314895D01*
X415815Y316549D01*
X414549Y317815D01*
X412895Y318500D01*
D02*
G37*
G36*
X524646Y293250D02*
X523354D01*
X522159Y292755D01*
X521245Y291841D01*
X520750Y290646D01*
Y289354D01*
X521245Y288159D01*
X522159Y287245D01*
X523354Y286750D01*
X524646D01*
X525841Y287245D01*
X526755Y288159D01*
X527250Y289354D01*
Y290646D01*
X526755Y291841D01*
X525841Y292755D01*
X524646Y293250D01*
D02*
G37*
G36*
X90696Y292250D02*
X89304D01*
X88017Y291717D01*
X87033Y290733D01*
X86500Y289446D01*
Y288054D01*
X87033Y286767D01*
X88017Y285783D01*
X89304Y285250D01*
X90696D01*
X91983Y285783D01*
X92967Y286767D01*
X93500Y288054D01*
Y289446D01*
X92967Y290733D01*
X91983Y291717D01*
X90696Y292250D01*
D02*
G37*
G36*
X668356Y296500D02*
X666644D01*
X664991Y296057D01*
X663509Y295201D01*
X662299Y293991D01*
X661443Y292509D01*
X661000Y290856D01*
Y289144D01*
X661443Y287491D01*
X662299Y286009D01*
X663509Y284799D01*
X664991Y283943D01*
X666644Y283500D01*
X668356D01*
X670009Y283943D01*
X671491Y284799D01*
X672701Y286009D01*
X673557Y287491D01*
X674000Y289144D01*
Y290856D01*
X673557Y292509D01*
X672701Y293991D01*
X671491Y295201D01*
X670009Y296057D01*
X668356Y296500D01*
D02*
G37*
G36*
X600094Y288500D02*
X597906D01*
X595885Y287663D01*
X594337Y286115D01*
X593500Y284094D01*
Y281906D01*
X594337Y279884D01*
X595885Y278337D01*
X597906Y277500D01*
X600094D01*
X602116Y278337D01*
X603663Y279884D01*
X604500Y281906D01*
Y284094D01*
X603663Y286115D01*
X602116Y287663D01*
X600094Y288500D01*
D02*
G37*
G36*
X545995Y287000D02*
X544005D01*
X542168Y286239D01*
X540761Y284832D01*
X540000Y282995D01*
Y281005D01*
X540761Y279168D01*
X542168Y277761D01*
X544005Y277000D01*
X545995D01*
X547832Y277761D01*
X549239Y279168D01*
X550000Y281005D01*
Y282995D01*
X549239Y284832D01*
X547832Y286239D01*
X545995Y287000D01*
D02*
G37*
G36*
X613856Y289500D02*
X612144D01*
X610491Y289057D01*
X609009Y288201D01*
X607799Y286991D01*
X606943Y285509D01*
X606500Y283856D01*
Y282144D01*
X606943Y280491D01*
X607799Y279009D01*
X609009Y277799D01*
X610491Y276943D01*
X612144Y276500D01*
X613856D01*
X615509Y276943D01*
X616991Y277799D01*
X618201Y279009D01*
X619057Y280491D01*
X619500Y282144D01*
Y283856D01*
X619057Y285509D01*
X618201Y286991D01*
X616991Y288201D01*
X615509Y289057D01*
X613856Y289500D01*
D02*
G37*
G36*
X768594Y280500D02*
X766406D01*
X764385Y279663D01*
X762837Y278116D01*
X762000Y276094D01*
Y273906D01*
X762837Y271884D01*
X764385Y270337D01*
X766406Y269500D01*
X768594D01*
X770615Y270337D01*
X772163Y271884D01*
X773000Y273906D01*
Y276094D01*
X772163Y278116D01*
X770615Y279663D01*
X768594Y280500D01*
D02*
G37*
G36*
X481094Y279500D02*
X478906D01*
X476884Y278663D01*
X475337Y277115D01*
X474500Y275094D01*
Y272906D01*
X475337Y270884D01*
X476884Y269337D01*
X478906Y268500D01*
X481094D01*
X483116Y269337D01*
X484663Y270884D01*
X485500Y272906D01*
Y275094D01*
X484663Y277115D01*
X483116Y278663D01*
X481094Y279500D01*
D02*
G37*
G36*
X668094Y276750D02*
X665906D01*
X663885Y275913D01*
X662337Y274366D01*
X661500Y272344D01*
Y270156D01*
X662337Y268134D01*
X663885Y266587D01*
X665906Y265750D01*
X668094D01*
X670116Y266587D01*
X671663Y268134D01*
X672500Y270156D01*
Y272344D01*
X671663Y274366D01*
X670116Y275913D01*
X668094Y276750D01*
D02*
G37*
G36*
X85845Y265250D02*
X84155D01*
X82593Y264603D01*
X81808Y263818D01*
X81000Y263543D01*
X80192Y263818D01*
X79407Y264603D01*
X77845Y265250D01*
X76155D01*
X74593Y264603D01*
X73397Y263407D01*
X72750Y261845D01*
Y260155D01*
X73397Y258593D01*
X74593Y257397D01*
X76155Y256750D01*
X77845D01*
X79407Y257397D01*
X80192Y258182D01*
X81000Y258457D01*
X81808Y258182D01*
X82593Y257397D01*
X84155Y256750D01*
X85845D01*
X87407Y257397D01*
X88603Y258593D01*
X89250Y260155D01*
Y261845D01*
X88603Y263407D01*
X87407Y264603D01*
X85845Y265250D01*
D02*
G37*
G36*
X176345D02*
X174655D01*
X173093Y264603D01*
X171897Y263407D01*
X171250Y261845D01*
Y260155D01*
X171897Y258593D01*
X173093Y257397D01*
X174655Y256750D01*
X176345D01*
X177907Y257397D01*
X179103Y258593D01*
X179750Y260155D01*
Y261845D01*
X179103Y263407D01*
X177907Y264603D01*
X176345Y265250D01*
D02*
G37*
G36*
X119845D02*
X118155D01*
X116593Y264603D01*
X115397Y263407D01*
X114750Y261845D01*
Y260155D01*
X115397Y258593D01*
X116593Y257397D01*
X118155Y256750D01*
X119845D01*
X121407Y257397D01*
X122603Y258593D01*
X123250Y260155D01*
Y261845D01*
X122603Y263407D01*
X121407Y264603D01*
X119845Y265250D01*
D02*
G37*
G36*
X99845D02*
X98155D01*
X96593Y264603D01*
X95397Y263407D01*
X94750Y261845D01*
Y260155D01*
X95397Y258593D01*
X96593Y257397D01*
X98155Y256750D01*
X99845D01*
X101407Y257397D01*
X102603Y258593D01*
X103250Y260155D01*
Y261845D01*
X102603Y263407D01*
X101407Y264603D01*
X99845Y265250D01*
D02*
G37*
G36*
X66845D02*
X65155D01*
X63593Y264603D01*
X62397Y263407D01*
X61750Y261845D01*
Y260155D01*
X62397Y258593D01*
X63593Y257397D01*
X65155Y256750D01*
X66845D01*
X68407Y257397D01*
X69603Y258593D01*
X70250Y260155D01*
Y261845D01*
X69603Y263407D01*
X68407Y264603D01*
X66845Y265250D01*
D02*
G37*
G36*
X54845D02*
X53155D01*
X51593Y264603D01*
X50397Y263407D01*
X49750Y261845D01*
Y260155D01*
X50397Y258593D01*
X51593Y257397D01*
X53155Y256750D01*
X54845D01*
X56407Y257397D01*
X57603Y258593D01*
X58250Y260155D01*
Y261845D01*
X57603Y263407D01*
X56407Y264603D01*
X54845Y265250D01*
D02*
G37*
G36*
X768356Y266500D02*
X766644D01*
X764991Y266057D01*
X763509Y265201D01*
X762299Y263991D01*
X761443Y262509D01*
X761000Y260856D01*
Y259144D01*
X761443Y257491D01*
X762299Y256009D01*
X763509Y254799D01*
X764991Y253943D01*
X766644Y253500D01*
X768356D01*
X770009Y253943D01*
X771491Y254799D01*
X772701Y256009D01*
X773557Y257491D01*
X774000Y259144D01*
Y260856D01*
X773557Y262509D01*
X772701Y263991D01*
X771491Y265201D01*
X770009Y266057D01*
X768356Y266500D01*
D02*
G37*
G36*
X514995Y263000D02*
X513005D01*
X511168Y262239D01*
X509761Y260832D01*
X509000Y258995D01*
Y257005D01*
X509761Y255168D01*
X511168Y253761D01*
X513005Y253000D01*
X514995D01*
X516832Y253761D01*
X518239Y255168D01*
X519000Y257005D01*
Y258995D01*
X518239Y260832D01*
X516832Y262239D01*
X514995Y263000D01*
D02*
G37*
G36*
X30900Y275010D02*
X19100D01*
X16915Y274575D01*
X15063Y273337D01*
X13825Y271485D01*
X13390Y269300D01*
Y258500D01*
X13825Y256315D01*
X15063Y254463D01*
X16915Y253225D01*
X19100Y252790D01*
X30900D01*
X33085Y253225D01*
X34937Y254463D01*
X36175Y256315D01*
X36610Y258500D01*
Y269300D01*
X36175Y271485D01*
X34937Y273337D01*
X33085Y274575D01*
X30900Y275010D01*
D02*
G37*
G36*
X133845Y265250D02*
X132155D01*
X130593Y264603D01*
X129397Y263407D01*
X128750Y261845D01*
Y260155D01*
X129397Y258593D01*
X130593Y257397D01*
X132155Y256750D01*
X133845D01*
X135407Y257397D01*
X135743Y257733D01*
X136819Y257013D01*
X136750Y256845D01*
Y255155D01*
X137397Y253593D01*
X138593Y252397D01*
X140155Y251750D01*
X141845D01*
X143407Y252397D01*
X144603Y253593D01*
X144698Y253822D01*
X146073D01*
X146137Y253666D01*
X147333Y252470D01*
X148895Y251824D01*
X150585D01*
X152148Y252470D01*
X152802Y253125D01*
X154283Y252868D01*
X154397Y252593D01*
X155593Y251397D01*
X157155Y250750D01*
X158845D01*
X160407Y251397D01*
X161603Y252593D01*
X162107Y253809D01*
X163155Y254750D01*
X164845D01*
X166407Y255397D01*
X167603Y256593D01*
X168250Y258155D01*
Y259845D01*
X167603Y261407D01*
X166407Y262603D01*
X164845Y263250D01*
X163155D01*
X161593Y262603D01*
X160397Y261407D01*
X159893Y260191D01*
X158845Y259250D01*
X157155D01*
X155593Y258603D01*
X154938Y257949D01*
X153457Y258205D01*
X153343Y258481D01*
X152148Y259676D01*
X150585Y260324D01*
X148895D01*
X147333Y259676D01*
X146137Y258481D01*
X146042Y258251D01*
X144668D01*
X144603Y258407D01*
X143407Y259603D01*
X141845Y260250D01*
X140155D01*
X138593Y259603D01*
X138257Y259268D01*
X137181Y259987D01*
X137250Y260155D01*
Y261845D01*
X136603Y263407D01*
X135407Y264603D01*
X133845Y265250D01*
D02*
G37*
G36*
X194845Y257750D02*
X193155D01*
X191593Y257103D01*
X190397Y255907D01*
X189750Y254345D01*
Y252655D01*
X190397Y251093D01*
X191593Y249897D01*
X193155Y249250D01*
X194845D01*
X196407Y249897D01*
X196697Y250186D01*
X198027D01*
X198779Y249875D01*
X200221D01*
X201553Y250427D01*
X202573Y251447D01*
X203125Y252779D01*
Y254221D01*
X202573Y255553D01*
X201553Y256573D01*
X200221Y257125D01*
X198779D01*
X198027Y256814D01*
X196697D01*
X196407Y257103D01*
X194845Y257750D01*
D02*
G37*
G36*
X450267Y264300D02*
X448358D01*
X446594Y263569D01*
X445243Y262219D01*
X444512Y260455D01*
Y258545D01*
X445243Y256781D01*
X446587Y255438D01*
X445243Y254094D01*
X444512Y252330D01*
Y250420D01*
X445243Y248656D01*
X446594Y247306D01*
X448358Y246575D01*
X450267D01*
X452032Y247306D01*
X453382Y248656D01*
X454113Y250420D01*
Y252330D01*
X453382Y254094D01*
X452038Y255438D01*
X453382Y256781D01*
X454113Y258545D01*
Y260455D01*
X453382Y262219D01*
X452032Y263569D01*
X450267Y264300D01*
D02*
G37*
G36*
X796711Y268000D02*
X793288D01*
X789982Y267114D01*
X787018Y265402D01*
X784597Y262982D01*
X782886Y260018D01*
X782000Y256711D01*
Y253288D01*
X782886Y249982D01*
X784597Y247018D01*
X787018Y244597D01*
X789982Y242886D01*
X793288Y242000D01*
X796711D01*
X800017Y242886D01*
X802982Y244597D01*
X805402Y247018D01*
X807114Y249982D01*
X808000Y253288D01*
Y256711D01*
X807114Y260018D01*
X805402Y262982D01*
X802982Y265402D01*
X800017Y267114D01*
X796711Y268000D01*
D02*
G37*
G36*
X607895Y248500D02*
X606105D01*
X604451Y247815D01*
X603185Y246549D01*
X602500Y244895D01*
Y243105D01*
X603185Y241451D01*
X604451Y240185D01*
X606105Y239500D01*
X607895D01*
X609549Y240185D01*
X610815Y241451D01*
X611500Y243105D01*
Y244895D01*
X610815Y246549D01*
X609549Y247815D01*
X607895Y248500D01*
D02*
G37*
G36*
X666844Y248000D02*
X664656D01*
X662635Y247163D01*
X661087Y245616D01*
X660250Y243594D01*
Y241406D01*
X661087Y239384D01*
X662635Y237837D01*
X664656Y237000D01*
X666844D01*
X668866Y237837D01*
X670413Y239384D01*
X671250Y241406D01*
Y243594D01*
X670413Y245616D01*
X668866Y247163D01*
X666844Y248000D01*
D02*
G37*
G36*
X198345Y244000D02*
X196655D01*
X195093Y243353D01*
X193897Y242157D01*
X193250Y240595D01*
Y238905D01*
X193897Y237343D01*
X195093Y236147D01*
X196648Y235503D01*
X197579Y235102D01*
X197750Y234845D01*
Y233155D01*
X198397Y231593D01*
X199593Y230397D01*
X201155Y229750D01*
X202845D01*
X204407Y230397D01*
X205603Y231593D01*
X206250Y233155D01*
Y234845D01*
X205603Y236407D01*
X204407Y237603D01*
X202852Y238247D01*
X201921Y238648D01*
X201750Y238905D01*
Y240595D01*
X201103Y242157D01*
X199907Y243353D01*
X198345Y244000D01*
D02*
G37*
G36*
X25500Y249595D02*
X24500D01*
X21628Y249217D01*
X18952Y248109D01*
X16655Y246345D01*
X14892Y244048D01*
X13783Y241372D01*
X13405Y238500D01*
X13783Y235629D01*
X14892Y232953D01*
X16655Y230655D01*
X18952Y228892D01*
X21628Y227783D01*
X24500Y227405D01*
X25500D01*
X28372Y227783D01*
X31047Y228892D01*
X33345Y230655D01*
X35108Y232953D01*
X36217Y235629D01*
X36595Y238500D01*
X36217Y241372D01*
X35108Y244048D01*
X33345Y246345D01*
X31047Y248109D01*
X28372Y249217D01*
X25500Y249595D01*
D02*
G37*
G36*
X493000Y231314D02*
X488000D01*
X486732Y231061D01*
X485657Y230343D01*
X484939Y229268D01*
X484686Y228000D01*
X484939Y226732D01*
X485657Y225657D01*
X486732Y224939D01*
X488000Y224686D01*
X493000D01*
X494268Y224939D01*
X495343Y225657D01*
X496061Y226732D01*
X496314Y228000D01*
X496061Y229268D01*
X495343Y230343D01*
X494268Y231061D01*
X493000Y231314D01*
D02*
G37*
G36*
X668594Y235500D02*
X666406D01*
X664385Y234663D01*
X662837Y233116D01*
X662000Y231094D01*
Y228906D01*
X662837Y226884D01*
X664385Y225337D01*
X666406Y224500D01*
X668594D01*
X670615Y225337D01*
X672163Y226884D01*
X673000Y228906D01*
Y231094D01*
X672163Y233116D01*
X670615Y234663D01*
X668594Y235500D01*
D02*
G37*
G36*
X525597Y229000D02*
X524403D01*
X523301Y228543D01*
X522457Y227699D01*
X522000Y226597D01*
Y225403D01*
X522457Y224301D01*
X523301Y223457D01*
X524403Y223000D01*
X525597D01*
X526699Y223457D01*
X527543Y224301D01*
X528000Y225403D01*
Y226597D01*
X527543Y227699D01*
X526699Y228543D01*
X525597Y229000D01*
D02*
G37*
G36*
X197647Y228250D02*
X196354D01*
X195159Y227755D01*
X194245Y226841D01*
X193750Y225646D01*
Y224354D01*
X194245Y223159D01*
X195159Y222245D01*
X196354Y221750D01*
X197647D01*
X198841Y222245D01*
X199755Y223159D01*
X200250Y224354D01*
Y225646D01*
X199755Y226841D01*
X198841Y227755D01*
X197647Y228250D01*
D02*
G37*
G36*
X120845Y230250D02*
X119155D01*
X117593Y229603D01*
X116397Y228407D01*
X115750Y226845D01*
Y225155D01*
X116397Y223593D01*
X117593Y222397D01*
X119155Y221750D01*
X120845D01*
X122407Y222397D01*
X123603Y223593D01*
X124250Y225155D01*
Y226845D01*
X123603Y228407D01*
X122407Y229603D01*
X120845Y230250D01*
D02*
G37*
G36*
X564845Y229250D02*
X563155D01*
X561593Y228603D01*
X560397Y227407D01*
X559750Y225845D01*
Y224155D01*
X560397Y222593D01*
X561593Y221397D01*
X563155Y220750D01*
X564845D01*
X566407Y221397D01*
X567603Y222593D01*
X568250Y224155D01*
Y225845D01*
X567603Y227407D01*
X566407Y228603D01*
X564845Y229250D01*
D02*
G37*
G36*
X617895Y238500D02*
X616105D01*
X614451Y237815D01*
X613185Y236549D01*
X612500Y234895D01*
Y233105D01*
X613185Y231451D01*
X614451Y230185D01*
X614572Y230135D01*
Y228865D01*
X614451Y228815D01*
X613185Y227549D01*
X612500Y225895D01*
Y224105D01*
X613185Y222451D01*
X614451Y221185D01*
X616105Y220500D01*
X617895D01*
X619549Y221185D01*
X620815Y222451D01*
X621500Y224105D01*
Y225895D01*
X620815Y227549D01*
X619549Y228815D01*
X619428Y228865D01*
Y230135D01*
X619549Y230185D01*
X620815Y231451D01*
X621500Y233105D01*
Y234895D01*
X620815Y236549D01*
X619549Y237815D01*
X617895Y238500D01*
D02*
G37*
G36*
X188845Y227250D02*
X187155D01*
X185593Y226603D01*
X184397Y225407D01*
X183750Y223845D01*
Y222155D01*
X184397Y220593D01*
X185593Y219397D01*
X187155Y218750D01*
X188845D01*
X190407Y219397D01*
X191603Y220593D01*
X192250Y222155D01*
Y223845D01*
X191603Y225407D01*
X190407Y226603D01*
X188845Y227250D01*
D02*
G37*
G36*
X178845Y226750D02*
X177155D01*
X175592Y226103D01*
X174397Y224907D01*
X173750Y223345D01*
Y221655D01*
X174397Y220093D01*
X175592Y218897D01*
X177155Y218250D01*
X178845D01*
X180407Y218897D01*
X181603Y220093D01*
X182250Y221655D01*
Y223345D01*
X181603Y224907D01*
X180407Y226103D01*
X178845Y226750D01*
D02*
G37*
G36*
X168845D02*
X167155D01*
X165592Y226103D01*
X164397Y224907D01*
X163750Y223345D01*
Y221655D01*
X164397Y220093D01*
X165592Y218897D01*
X167155Y218250D01*
X168845D01*
X170407Y218897D01*
X171603Y220093D01*
X172250Y221655D01*
Y223345D01*
X171603Y224907D01*
X170407Y226103D01*
X168845Y226750D01*
D02*
G37*
G36*
X158845D02*
X157155D01*
X155592Y226103D01*
X154397Y224907D01*
X153750Y223345D01*
Y221655D01*
X154397Y220093D01*
X155592Y218897D01*
X157155Y218250D01*
X158845D01*
X160407Y218897D01*
X161603Y220093D01*
X162250Y221655D01*
Y223345D01*
X161603Y224907D01*
X160407Y226103D01*
X158845Y226750D01*
D02*
G37*
G36*
X143345D02*
X141655D01*
X140093Y226103D01*
X138897Y224907D01*
X138250Y223345D01*
Y221655D01*
X138897Y220093D01*
X140093Y218897D01*
X141655Y218250D01*
X143345D01*
X144907Y218897D01*
X146103Y220093D01*
X146750Y221655D01*
Y223345D01*
X146103Y224907D01*
X144907Y226103D01*
X143345Y226750D01*
D02*
G37*
G36*
X133345D02*
X131655D01*
X130093Y226103D01*
X128897Y224907D01*
X128250Y223345D01*
Y221655D01*
X128897Y220093D01*
X130093Y218897D01*
X131655Y218250D01*
X133345D01*
X134907Y218897D01*
X136103Y220093D01*
X136750Y221655D01*
Y223345D01*
X136103Y224907D01*
X134907Y226103D01*
X133345Y226750D01*
D02*
G37*
G36*
X549845Y228250D02*
X548155D01*
X546593Y227603D01*
X545397Y226407D01*
X544750Y224845D01*
Y223155D01*
X545397Y221593D01*
X545637Y221353D01*
X545375Y220721D01*
Y219279D01*
X545927Y217947D01*
X546947Y216927D01*
X548279Y216375D01*
X549721D01*
X551053Y216927D01*
X552073Y217947D01*
X552625Y219279D01*
Y220721D01*
X552363Y221353D01*
X552603Y221593D01*
X553250Y223155D01*
Y224845D01*
X552603Y226407D01*
X551407Y227603D01*
X549845Y228250D01*
D02*
G37*
G36*
X450267Y233425D02*
X448358D01*
X446594Y232694D01*
X445243Y231344D01*
X444512Y229580D01*
Y227670D01*
X445243Y225906D01*
X446587Y224562D01*
X445243Y223219D01*
X444512Y221455D01*
Y219545D01*
X445243Y217781D01*
X446594Y216431D01*
X448358Y215700D01*
X450267D01*
X452032Y216431D01*
X453382Y217781D01*
X454113Y219545D01*
Y221455D01*
X453382Y223219D01*
X452038Y224562D01*
X453382Y225906D01*
X454113Y227670D01*
Y229580D01*
X453382Y231344D01*
X452032Y232694D01*
X450267Y233425D01*
D02*
G37*
G36*
X80845Y222250D02*
X79155D01*
X77593Y221603D01*
X76397Y220407D01*
X75750Y218845D01*
Y217155D01*
X76397Y215593D01*
X77593Y214397D01*
X79155Y213750D01*
X80845D01*
X82407Y214397D01*
X83603Y215593D01*
X84250Y217155D01*
Y218845D01*
X83603Y220407D01*
X82407Y221603D01*
X80845Y222250D01*
D02*
G37*
G36*
X120845Y220250D02*
X119155D01*
X117593Y219603D01*
X116397Y218407D01*
X115750Y216845D01*
Y215155D01*
X116397Y213593D01*
X117593Y212397D01*
X119155Y211750D01*
X120845D01*
X122407Y212397D01*
X123603Y213593D01*
X124250Y215155D01*
Y216845D01*
X123603Y218407D01*
X122407Y219603D01*
X120845Y220250D01*
D02*
G37*
G36*
X617895Y216500D02*
X616105D01*
X614451Y215815D01*
X613185Y214549D01*
X612500Y212895D01*
Y211105D01*
X613185Y209451D01*
X614451Y208185D01*
X616105Y207500D01*
X617895D01*
X619549Y208185D01*
X620815Y209451D01*
X621500Y211105D01*
Y212895D01*
X620815Y214549D01*
X619549Y215815D01*
X617895Y216500D01*
D02*
G37*
G36*
X668094Y216750D02*
X665906D01*
X663885Y215913D01*
X662337Y214366D01*
X661500Y212344D01*
Y210156D01*
X662337Y208134D01*
X663885Y206587D01*
X665906Y205750D01*
X668094D01*
X670116Y206587D01*
X671663Y208134D01*
X672500Y210156D01*
Y212344D01*
X671663Y214366D01*
X670116Y215913D01*
X668094Y216750D01*
D02*
G37*
G36*
X318029Y275050D02*
X315721D01*
X313589Y274167D01*
X311958Y272535D01*
X311075Y270404D01*
Y268096D01*
X311958Y265965D01*
X312950Y264972D01*
X313058Y263283D01*
X312806Y263032D01*
X312075Y261267D01*
Y259358D01*
X312806Y257593D01*
X314149Y256250D01*
X312806Y254907D01*
X312075Y253142D01*
Y251233D01*
X312806Y249468D01*
X313848Y248426D01*
X312771Y247348D01*
X311887Y245216D01*
Y242909D01*
X312771Y240777D01*
X313547Y240000D01*
X312771Y239223D01*
X311887Y237091D01*
Y234784D01*
X312771Y232652D01*
X313848Y231574D01*
X312806Y230532D01*
X312075Y228767D01*
Y226858D01*
X312806Y225093D01*
X314149Y223750D01*
X312806Y222407D01*
X312075Y220642D01*
Y218733D01*
X312806Y216968D01*
X313058Y216717D01*
X312950Y215028D01*
X311958Y214035D01*
X311075Y211904D01*
Y209596D01*
X311958Y207465D01*
X313589Y205833D01*
X315721Y204950D01*
X318029D01*
X320160Y205833D01*
X321792Y207465D01*
X322675Y209596D01*
Y211904D01*
X321792Y214035D01*
X320800Y215028D01*
X320692Y216717D01*
X320944Y216968D01*
X321675Y218733D01*
Y220642D01*
X320944Y222407D01*
X319601Y223750D01*
X320944Y225093D01*
X321675Y226858D01*
Y228767D01*
X321261Y229765D01*
X321046Y230703D01*
X321612Y231660D01*
X322604Y232652D01*
X323488Y234784D01*
Y237091D01*
X322604Y239223D01*
X321827Y240000D01*
X322604Y240777D01*
X323488Y242909D01*
Y245216D01*
X322604Y247348D01*
X321612Y248340D01*
X321046Y249297D01*
X321261Y250235D01*
X321675Y251233D01*
Y253142D01*
X320944Y254907D01*
X319601Y256250D01*
X320944Y257593D01*
X321675Y259358D01*
Y261267D01*
X320944Y263032D01*
X320692Y263283D01*
X320800Y264972D01*
X321792Y265965D01*
X322675Y268096D01*
Y270404D01*
X321792Y272535D01*
X320160Y274167D01*
X318029Y275050D01*
D02*
G37*
G36*
X725356Y217750D02*
X723644D01*
X721991Y217307D01*
X720509Y216451D01*
X719299Y215241D01*
X718443Y213759D01*
X718000Y212106D01*
Y210394D01*
X718443Y208741D01*
X719299Y207259D01*
X720509Y206049D01*
X721991Y205193D01*
X723644Y204750D01*
X725356D01*
X727009Y205193D01*
X728491Y206049D01*
X729701Y207259D01*
X730557Y208741D01*
X731000Y210394D01*
Y212106D01*
X730557Y213759D01*
X729701Y215241D01*
X728491Y216451D01*
X727009Y217307D01*
X725356Y217750D01*
D02*
G37*
G36*
X574845Y212250D02*
X573155D01*
X571593Y211603D01*
X570397Y210407D01*
X569750Y208845D01*
Y207155D01*
X570397Y205593D01*
X571593Y204397D01*
X573155Y203750D01*
X574845D01*
X576407Y204397D01*
X577603Y205593D01*
X578250Y207155D01*
Y208845D01*
X577603Y210407D01*
X576407Y211603D01*
X574845Y212250D01*
D02*
G37*
G36*
X528845D02*
X527155D01*
X525593Y211603D01*
X524397Y210407D01*
X523750Y208845D01*
Y207155D01*
X524397Y205593D01*
X525593Y204397D01*
X527155Y203750D01*
X528845D01*
X530407Y204397D01*
X531603Y205593D01*
X532250Y207155D01*
Y208845D01*
X531603Y210407D01*
X530407Y211603D01*
X528845Y212250D01*
D02*
G37*
G36*
X58345Y211750D02*
X56655D01*
X55093Y211103D01*
X53897Y209907D01*
X53250Y208345D01*
Y206655D01*
X53897Y205093D01*
X55093Y203897D01*
X56655Y203250D01*
X58345D01*
X59907Y203897D01*
X61103Y205093D01*
X61750Y206655D01*
Y208345D01*
X61103Y209907D01*
X59907Y211103D01*
X58345Y211750D01*
D02*
G37*
G36*
X453408Y208500D02*
X451717D01*
X450155Y207853D01*
X448960Y206657D01*
X448312Y205095D01*
Y203405D01*
X448618Y202666D01*
X447646Y201694D01*
X446908Y202000D01*
X445217D01*
X443655Y201353D01*
X442459Y200157D01*
X441813Y198595D01*
Y196905D01*
X442459Y195343D01*
X443655Y194147D01*
X445217Y193500D01*
X446908D01*
X448470Y194147D01*
X449665Y195343D01*
X450312Y196905D01*
Y198595D01*
X450006Y199334D01*
X450979Y200306D01*
X451717Y200000D01*
X453408D01*
X454970Y200647D01*
X456166Y201843D01*
X456813Y203405D01*
Y205095D01*
X456166Y206657D01*
X454970Y207853D01*
X453408Y208500D01*
D02*
G37*
G36*
X120845Y209250D02*
X119155D01*
X117593Y208603D01*
X116397Y207407D01*
X115750Y205845D01*
Y204155D01*
X116397Y202593D01*
X117593Y201397D01*
X119155Y200750D01*
X120845D01*
X122407Y201397D01*
X123603Y202593D01*
X124250Y204155D01*
Y205845D01*
X123603Y207407D01*
X122407Y208603D01*
X120845Y209250D01*
D02*
G37*
G36*
X43345Y206750D02*
X41655D01*
X40093Y206103D01*
X38897Y204907D01*
X38250Y203345D01*
Y201655D01*
X38897Y200093D01*
X40093Y198897D01*
X41655Y198250D01*
X43345D01*
X44907Y198897D01*
X46103Y200093D01*
X46750Y201655D01*
Y203345D01*
X46103Y204907D01*
X44907Y206103D01*
X43345Y206750D01*
D02*
G37*
G36*
X148821Y211000D02*
X147429D01*
X146142Y210467D01*
X145158Y209483D01*
X144625Y208196D01*
Y206804D01*
X145158Y205517D01*
X145831Y204844D01*
Y199897D01*
X145688Y199754D01*
X145250Y198697D01*
Y198079D01*
X144946Y197876D01*
X143802D01*
X143439Y197725D01*
X143331Y197768D01*
X142171Y198387D01*
X141717Y199483D01*
X140732Y200467D01*
X139446Y201000D01*
X138054D01*
X136767Y200467D01*
X135783Y199483D01*
X135250Y198196D01*
Y196804D01*
X135783Y195517D01*
X136767Y194533D01*
X136998Y194437D01*
Y193063D01*
X136767Y192967D01*
X135783Y191983D01*
X135250Y190696D01*
Y189304D01*
X135783Y188017D01*
X136461Y187340D01*
X136652Y186562D01*
X136461Y185785D01*
X135783Y185108D01*
X135250Y183821D01*
Y182429D01*
X135783Y181142D01*
X136767Y180158D01*
X137879Y179697D01*
X137937Y179298D01*
Y178827D01*
X137879Y178428D01*
X136767Y177967D01*
X135783Y176983D01*
X135250Y175696D01*
Y174304D01*
X135783Y173017D01*
X136767Y172033D01*
X137879Y171572D01*
X137937Y171173D01*
Y170702D01*
X137879Y170303D01*
X136767Y169842D01*
X135783Y168858D01*
X135250Y167571D01*
Y166179D01*
X135783Y164892D01*
X136767Y163908D01*
X138054Y163375D01*
X139446D01*
X140732Y163908D01*
X141406Y164581D01*
X141978D01*
X142389Y164170D01*
X142389Y162787D01*
X142337Y162639D01*
X141670Y161972D01*
X140979D01*
X140101Y161797D01*
X139691Y161523D01*
X139446Y161625D01*
X138054D01*
X136767Y161092D01*
X135783Y160108D01*
X135250Y158821D01*
Y157429D01*
X135783Y156142D01*
X136767Y155158D01*
X137879Y154698D01*
X137937Y154298D01*
Y153827D01*
X137879Y153427D01*
X136767Y152967D01*
X135783Y151983D01*
X135250Y150696D01*
Y149304D01*
X135783Y148017D01*
X136767Y147033D01*
X138054Y146500D01*
X139446D01*
X140267Y146840D01*
X140932Y146887D01*
X141751Y146289D01*
X141949Y145024D01*
X141408Y144483D01*
X140875Y143196D01*
Y141804D01*
X141408Y140517D01*
X142392Y139533D01*
X143679Y139000D01*
X145071D01*
X146357Y139533D01*
X147342Y140517D01*
X147875Y141804D01*
Y143196D01*
X147342Y144483D01*
X146669Y145156D01*
Y145728D01*
X146812Y145871D01*
X147250Y146928D01*
Y148072D01*
X146812Y149129D01*
X146004Y149937D01*
X146003Y149938D01*
Y151312D01*
X146004Y151313D01*
X146812Y152121D01*
X147250Y153178D01*
Y154322D01*
X146812Y155379D01*
X146004Y156187D01*
X146003Y156188D01*
Y157562D01*
X146004Y157563D01*
X146812Y158371D01*
X147250Y159428D01*
Y160572D01*
X146812Y161629D01*
X146004Y162437D01*
X146003Y162438D01*
Y163812D01*
X146004Y163813D01*
X146812Y164621D01*
X147250Y165678D01*
Y166822D01*
X146812Y167879D01*
X146004Y168687D01*
X144947Y169125D01*
X143803D01*
X143748Y169102D01*
X143412Y169169D01*
X141406D01*
X140732Y169842D01*
X139621Y170303D01*
X139563Y170702D01*
Y171173D01*
X139621Y171572D01*
X140732Y172033D01*
X141406Y172706D01*
X142603D01*
X142746Y172563D01*
X143803Y172125D01*
X144947D01*
X146004Y172563D01*
X146812Y173371D01*
X147250Y174428D01*
Y175572D01*
X146812Y176629D01*
X146004Y177437D01*
X146003Y177438D01*
Y178812D01*
X146004Y178813D01*
X146812Y179621D01*
X147250Y180678D01*
Y181822D01*
X146812Y182879D01*
X146004Y183687D01*
X146003Y183688D01*
Y185062D01*
X146004Y185063D01*
X146812Y185871D01*
X147250Y186928D01*
Y186965D01*
X148323Y187895D01*
X149467D01*
X150524Y188333D01*
X151332Y189141D01*
X151770Y190198D01*
Y190401D01*
X151789Y190420D01*
X152741D01*
X154028Y190953D01*
X155012Y191937D01*
X155545Y193224D01*
Y194616D01*
X155441Y194866D01*
X156413Y195838D01*
X156928Y195625D01*
X158072D01*
X159129Y196063D01*
X159937Y196871D01*
X160375Y197928D01*
Y199072D01*
X159937Y200129D01*
X159794Y200272D01*
Y200469D01*
X160467Y201142D01*
X161000Y202429D01*
Y203821D01*
X160467Y205108D01*
X159482Y206092D01*
X158196Y206625D01*
X156804D01*
X155517Y206092D01*
X154533Y205108D01*
X154000Y203821D01*
Y202429D01*
X154533Y201142D01*
X155206Y200469D01*
Y200272D01*
X155063Y200129D01*
X154625Y199072D01*
Y197928D01*
X153610Y197060D01*
X152741Y197420D01*
X152173D01*
X151320Y197517D01*
X151000Y198593D01*
Y198697D01*
X150562Y199754D01*
X150419Y199897D01*
Y204844D01*
X151092Y205517D01*
X151625Y206804D01*
Y208196D01*
X151092Y209483D01*
X150107Y210467D01*
X148821Y211000D01*
D02*
G37*
G36*
X509995Y206000D02*
X508005D01*
X506168Y205239D01*
X504761Y203832D01*
X504000Y201995D01*
Y200005D01*
X504761Y198168D01*
X506168Y196761D01*
X508005Y196000D01*
X509995D01*
X511832Y196761D01*
X513239Y198168D01*
X514000Y200005D01*
Y201995D01*
X513239Y203832D01*
X511832Y205239D01*
X509995Y206000D01*
D02*
G37*
G36*
X188196Y206625D02*
X186804D01*
X185517Y206092D01*
X184533Y205108D01*
X184000Y203821D01*
Y202429D01*
X184533Y201142D01*
X185206Y200469D01*
Y200272D01*
X185063Y200129D01*
X184625Y199072D01*
Y197928D01*
X185063Y196871D01*
X185871Y196063D01*
X186928Y195625D01*
X188072D01*
X189128Y196063D01*
X189937Y196871D01*
X190375Y197928D01*
Y199072D01*
X189937Y200129D01*
X189794Y200272D01*
Y200469D01*
X190467Y201142D01*
X191000Y202429D01*
Y203821D01*
X190467Y205108D01*
X189482Y206092D01*
X188196Y206625D01*
D02*
G37*
G36*
X173196D02*
X171804D01*
X170517Y206092D01*
X169533Y205108D01*
X169000Y203821D01*
Y202429D01*
X169533Y201142D01*
X170206Y200469D01*
Y200272D01*
X170063Y200129D01*
X169625Y199072D01*
Y197928D01*
X170063Y196871D01*
X170871Y196063D01*
X171928Y195625D01*
X173072D01*
X174128Y196063D01*
X174937Y196871D01*
X175375Y197928D01*
Y199072D01*
X174937Y200129D01*
X174794Y200272D01*
Y200469D01*
X175467Y201142D01*
X176000Y202429D01*
Y203821D01*
X175467Y205108D01*
X174482Y206092D01*
X173196Y206625D01*
D02*
G37*
G36*
X180696Y211000D02*
X179304D01*
X178017Y210467D01*
X177033Y209483D01*
X176500Y208196D01*
Y206804D01*
X177033Y205517D01*
X177706Y204844D01*
Y200095D01*
X177563Y199952D01*
X177125Y198895D01*
Y197751D01*
X177563Y196695D01*
X178371Y195886D01*
X179428Y195448D01*
X180572D01*
X181628Y195886D01*
X182437Y196695D01*
X182875Y197751D01*
Y198895D01*
X182437Y199952D01*
X182294Y200095D01*
Y204844D01*
X182967Y205517D01*
X183500Y206804D01*
Y208196D01*
X182967Y209483D01*
X181982Y210467D01*
X180696Y211000D01*
D02*
G37*
G36*
X165696D02*
X164304D01*
X163017Y210467D01*
X162033Y209483D01*
X161500Y208196D01*
Y206804D01*
X162033Y205517D01*
X162706Y204844D01*
Y200095D01*
X162563Y199952D01*
X162125Y198895D01*
Y197751D01*
X162563Y196695D01*
X163371Y195886D01*
X164428Y195448D01*
X165572D01*
X166628Y195886D01*
X167437Y196695D01*
X167875Y197751D01*
Y198895D01*
X167437Y199952D01*
X167294Y200095D01*
Y204844D01*
X167967Y205517D01*
X168500Y206804D01*
Y208196D01*
X167967Y209483D01*
X166982Y210467D01*
X165696Y211000D01*
D02*
G37*
G36*
X768356Y206500D02*
X766644D01*
X764991Y206057D01*
X763509Y205201D01*
X762299Y203991D01*
X761443Y202509D01*
X761000Y200856D01*
Y199144D01*
X761443Y197491D01*
X762299Y196009D01*
X763509Y194799D01*
X764991Y193943D01*
X766644Y193500D01*
X768356D01*
X770009Y193943D01*
X771491Y194799D01*
X772701Y196009D01*
X773557Y197491D01*
X774000Y199144D01*
Y200856D01*
X773557Y202509D01*
X772701Y203991D01*
X771491Y205201D01*
X770009Y206057D01*
X768356Y206500D01*
D02*
G37*
G36*
X563995Y201500D02*
X562005D01*
X560168Y200739D01*
X558761Y199332D01*
X558000Y197495D01*
Y195506D01*
X558761Y193668D01*
X560168Y192261D01*
X562005Y191500D01*
X563995D01*
X565832Y192261D01*
X567239Y193668D01*
X568000Y195506D01*
Y197495D01*
X567239Y199332D01*
X565832Y200739D01*
X563995Y201500D01*
D02*
G37*
G36*
X120845Y199250D02*
X119155D01*
X117593Y198603D01*
X116397Y197407D01*
X115750Y195845D01*
Y194155D01*
X116397Y192593D01*
X117593Y191397D01*
X119155Y190750D01*
X120845D01*
X122407Y191397D01*
X123603Y192593D01*
X124250Y194155D01*
Y195845D01*
X123603Y197407D01*
X122407Y198603D01*
X120845Y199250D01*
D02*
G37*
G36*
X201946Y191000D02*
X200554D01*
X199267Y190467D01*
X198594Y189794D01*
X197397D01*
X197253Y189937D01*
X196197Y190375D01*
X195053D01*
X193996Y189937D01*
X193188Y189129D01*
X192750Y188072D01*
Y186928D01*
X193188Y185871D01*
X193996Y185063D01*
X195053Y184625D01*
X196197D01*
X197253Y185063D01*
X197397Y185206D01*
X198594D01*
X199267Y184533D01*
X200554Y184000D01*
X201946D01*
X203232Y184533D01*
X204217Y185517D01*
X204750Y186804D01*
Y188196D01*
X204217Y189483D01*
X203232Y190467D01*
X201946Y191000D01*
D02*
G37*
G36*
X399845Y197250D02*
X398155D01*
X396593Y196603D01*
X395397Y195407D01*
X394750Y193845D01*
Y192155D01*
X395397Y190593D01*
X396593Y189397D01*
X398155Y188750D01*
X399845D01*
X401407Y189397D01*
X402603Y190593D01*
X403250Y192155D01*
Y193845D01*
X402603Y195407D01*
X401407Y196603D01*
X399845Y197250D01*
D02*
G37*
G36*
X159497Y190800D02*
X158602D01*
X157775Y190457D01*
X157142Y189824D01*
X156800Y188997D01*
Y188102D01*
X157142Y187275D01*
X157775Y186642D01*
X158602Y186300D01*
X159497D01*
X160324Y186642D01*
X160957Y187275D01*
X161300Y188102D01*
Y188997D01*
X160957Y189824D01*
X160324Y190457D01*
X159497Y190800D01*
D02*
G37*
G36*
X181448Y190750D02*
X180552D01*
X179725Y190408D01*
X179093Y189775D01*
X178750Y188948D01*
Y188053D01*
X179093Y187225D01*
X179725Y186593D01*
X180552Y186250D01*
X181448D01*
X182274Y186593D01*
X182907Y187225D01*
X183250Y188053D01*
Y188948D01*
X182907Y189775D01*
X182274Y190408D01*
X181448Y190750D01*
D02*
G37*
G36*
X170448D02*
X169552D01*
X168725Y190408D01*
X168092Y189775D01*
X167750Y188948D01*
Y188053D01*
X168092Y187225D01*
X168725Y186593D01*
X169552Y186250D01*
X170448D01*
X171275Y186593D01*
X171907Y187225D01*
X172250Y188053D01*
Y188948D01*
X171907Y189775D01*
X171275Y190408D01*
X170448Y190750D01*
D02*
G37*
G36*
X256000Y242000D02*
X226000D01*
X220000Y236000D01*
Y221250D01*
X206250Y207500D01*
X203750D01*
Y205000D01*
X207000D01*
X222000Y220000D01*
Y234000D01*
X228000Y240000D01*
X254000D01*
X270000Y224000D01*
Y190000D01*
X266000Y186000D01*
X246000D01*
X242000Y190000D01*
X224000D01*
Y188000D01*
X228647D01*
X228899Y186730D01*
X228593Y186603D01*
X227397Y185407D01*
X226750Y183845D01*
Y182155D01*
X227397Y180593D01*
X228593Y179397D01*
X230155Y178750D01*
X231845D01*
X233407Y179397D01*
X234603Y180593D01*
X235250Y182155D01*
Y183845D01*
X234603Y185407D01*
X233407Y186603D01*
X233101Y186730D01*
X233353Y188000D01*
X240000D01*
X244000Y184000D01*
X252684D01*
X253209Y182730D01*
X252897Y182418D01*
X252250Y180856D01*
Y179165D01*
X252897Y177603D01*
X254093Y176407D01*
X255655Y175760D01*
X257345D01*
X258907Y176407D01*
X260103Y177603D01*
X260750Y179165D01*
Y180856D01*
X260103Y182418D01*
X259790Y182730D01*
X260317Y184000D01*
X268000D01*
X272000Y188000D01*
Y226000D01*
X256000Y242000D01*
D02*
G37*
G36*
X365845Y194250D02*
X364155D01*
X362593Y193603D01*
X361397Y192407D01*
X360750Y190845D01*
Y189155D01*
X361397Y187593D01*
X362593Y186397D01*
X364155Y185750D01*
X365845D01*
X367407Y186397D01*
X368603Y187593D01*
X369250Y189155D01*
Y190845D01*
X368603Y192407D01*
X367407Y193603D01*
X365845Y194250D01*
D02*
G37*
G36*
X678094Y195500D02*
X675906D01*
X673885Y194663D01*
X672337Y193116D01*
X671500Y191094D01*
Y188906D01*
X672337Y186884D01*
X673885Y185337D01*
X675906Y184500D01*
X678094D01*
X680116Y185337D01*
X681663Y186884D01*
X682500Y188906D01*
Y191094D01*
X681663Y193116D01*
X680116Y194663D01*
X678094Y195500D01*
D02*
G37*
G36*
X386845Y189250D02*
X385155D01*
X383593Y188603D01*
X382397Y187407D01*
X381750Y185845D01*
Y184155D01*
X382397Y182593D01*
X383593Y181397D01*
X385155Y180750D01*
X386845D01*
X388407Y181397D01*
X389603Y182593D01*
X390250Y184155D01*
Y185845D01*
X389603Y187407D01*
X388407Y188603D01*
X386845Y189250D01*
D02*
G37*
G36*
X610895Y189355D02*
X609105D01*
X607451Y188670D01*
X606185Y187404D01*
X605500Y185750D01*
Y183960D01*
X606185Y182306D01*
X607451Y181040D01*
X609105Y180355D01*
X610895D01*
X612549Y181040D01*
X613815Y182306D01*
X614500Y183960D01*
Y185750D01*
X613815Y187404D01*
X612549Y188670D01*
X610895Y189355D01*
D02*
G37*
G36*
X523498Y186512D02*
X521808D01*
X520246Y185865D01*
X519050Y184670D01*
X518403Y183108D01*
Y181417D01*
X519050Y179855D01*
X520246Y178659D01*
X521808Y178012D01*
X523498D01*
X525061Y178659D01*
X526256Y179855D01*
X526903Y181417D01*
Y183108D01*
X526256Y184670D01*
X525061Y185865D01*
X523498Y186512D01*
D02*
G37*
G36*
X154198Y180375D02*
X153302D01*
X152475Y180033D01*
X151842Y179400D01*
X151500Y178573D01*
Y177677D01*
X151842Y176850D01*
X152475Y176218D01*
X153302Y175875D01*
X154198D01*
X155024Y176218D01*
X155657Y176850D01*
X156000Y177677D01*
Y178573D01*
X155657Y179400D01*
X155024Y180033D01*
X154198Y180375D01*
D02*
G37*
G36*
X563845Y184250D02*
X562155D01*
X560593Y183603D01*
X559397Y182407D01*
X558750Y180845D01*
Y179155D01*
X559397Y177593D01*
X560593Y176397D01*
X562155Y175750D01*
X563845D01*
X565407Y176397D01*
X566603Y177593D01*
X567250Y179155D01*
Y180845D01*
X566603Y182407D01*
X565407Y183603D01*
X563845Y184250D01*
D02*
G37*
G36*
X700356Y186500D02*
X698644D01*
X696991Y186057D01*
X695509Y185201D01*
X694299Y183991D01*
X693443Y182509D01*
X693000Y180856D01*
Y179144D01*
X693443Y177491D01*
X694299Y176009D01*
X695509Y174799D01*
X696991Y173943D01*
X698644Y173500D01*
X700356D01*
X702009Y173943D01*
X703491Y174799D01*
X704701Y176009D01*
X705557Y177491D01*
X706000Y179144D01*
Y180856D01*
X705557Y182509D01*
X704701Y183991D01*
X703491Y185201D01*
X702009Y186057D01*
X700356Y186500D01*
D02*
G37*
G36*
X127696Y179500D02*
X126304D01*
X125017Y178967D01*
X124033Y177983D01*
X123500Y176696D01*
Y175304D01*
X124033Y174017D01*
X125017Y173033D01*
X126304Y172500D01*
X127696D01*
X128983Y173033D01*
X129967Y174017D01*
X130500Y175304D01*
Y176696D01*
X129967Y177983D01*
X128983Y178967D01*
X127696Y179500D01*
D02*
G37*
G36*
X268969Y180250D02*
X267278D01*
X265716Y179603D01*
X264520Y178407D01*
X263874Y176845D01*
Y175155D01*
X264520Y173593D01*
X265716Y172397D01*
X267278Y171750D01*
X268969D01*
X270531Y172397D01*
X271726Y173593D01*
X272373Y175155D01*
Y176845D01*
X271726Y178407D01*
X270531Y179603D01*
X268969Y180250D01*
D02*
G37*
G36*
X680696Y169500D02*
X679304D01*
X678017Y168967D01*
X677033Y167983D01*
X676673Y167115D01*
X675327D01*
X674967Y167983D01*
X673983Y168967D01*
X672696Y169500D01*
X671304D01*
X670017Y168967D01*
X669033Y167983D01*
X668500Y166696D01*
Y165304D01*
X669033Y164017D01*
X670017Y163033D01*
X671304Y162500D01*
X672696D01*
X673983Y163033D01*
X674967Y164017D01*
X675327Y164885D01*
X676673D01*
X677033Y164017D01*
X678017Y163033D01*
X679304Y162500D01*
X680696D01*
X681983Y163033D01*
X682967Y164017D01*
X683500Y165304D01*
Y166696D01*
X682967Y167983D01*
X681983Y168967D01*
X680696Y169500D01*
D02*
G37*
G36*
X231845Y174250D02*
X230155D01*
X228593Y173603D01*
X227397Y172407D01*
X226750Y170845D01*
Y169155D01*
X227397Y167593D01*
X228593Y166397D01*
X230155Y165750D01*
X231845D01*
X233407Y166397D01*
X234603Y167593D01*
X235250Y169155D01*
Y170845D01*
X234603Y172407D01*
X233407Y173603D01*
X231845Y174250D01*
D02*
G37*
G36*
X752845Y174000D02*
X751155D01*
X749593Y173353D01*
X748397Y172157D01*
X747750Y170595D01*
Y168905D01*
X748397Y167343D01*
X749593Y166147D01*
X751155Y165500D01*
X752845D01*
X754407Y166147D01*
X755603Y167343D01*
X756250Y168905D01*
Y170595D01*
X755603Y172157D01*
X754407Y173353D01*
X752845Y174000D01*
D02*
G37*
G36*
X186698Y169750D02*
X185802D01*
X184975Y169408D01*
X184342Y168775D01*
X184000Y167948D01*
Y167052D01*
X184342Y166225D01*
X184975Y165593D01*
X185802Y165250D01*
X186698D01*
X187525Y165593D01*
X188157Y166225D01*
X188500Y167052D01*
Y167948D01*
X188157Y168775D01*
X187525Y169408D01*
X186698Y169750D01*
D02*
G37*
G36*
X154067Y169080D02*
X153172D01*
X152345Y168738D01*
X151713Y168104D01*
X151370Y167278D01*
Y166383D01*
X151713Y165555D01*
X152345Y164923D01*
X153172Y164580D01*
X154067D01*
X154895Y164923D01*
X155527Y165555D01*
X155870Y166383D01*
Y167278D01*
X155527Y168104D01*
X154895Y168738D01*
X154067Y169080D01*
D02*
G37*
G36*
X346696Y169500D02*
X345304D01*
X344017Y168967D01*
X343033Y167983D01*
X342500Y166696D01*
Y165304D01*
X343033Y164017D01*
X344017Y163033D01*
X345304Y162500D01*
X346696D01*
X347983Y163033D01*
X348967Y164017D01*
X349500Y165304D01*
Y166696D01*
X348967Y167983D01*
X347983Y168967D01*
X346696Y169500D01*
D02*
G37*
G36*
X286696D02*
X285304D01*
X284017Y168967D01*
X283033Y167983D01*
X282500Y166696D01*
Y165304D01*
X283033Y164017D01*
X284017Y163033D01*
X285304Y162500D01*
X286696D01*
X287983Y163033D01*
X288967Y164017D01*
X289500Y165304D01*
Y166696D01*
X288967Y167983D01*
X287983Y168967D01*
X286696Y169500D01*
D02*
G37*
G36*
X199361Y181040D02*
X197969D01*
X196682Y180507D01*
X195698Y179523D01*
X195165Y178236D01*
Y177222D01*
X194568Y176625D01*
X194428D01*
X193371Y176187D01*
X192563Y175379D01*
X192125Y174322D01*
Y173178D01*
X192563Y172121D01*
X193371Y171313D01*
X194428Y170875D01*
X195243Y169605D01*
X195165Y169416D01*
Y168437D01*
X194603Y167875D01*
X194428D01*
X193371Y167437D01*
X192563Y166629D01*
X192125Y165572D01*
Y164428D01*
X192563Y163371D01*
X193371Y162563D01*
X194428Y162125D01*
X195572D01*
X196628Y162563D01*
X197437Y163371D01*
X197875Y164428D01*
Y164658D01*
X198437Y165220D01*
X199361D01*
X200648Y165753D01*
X201632Y166737D01*
X202165Y168024D01*
Y169416D01*
X201632Y170703D01*
X200648Y171687D01*
X199361Y172220D01*
X198853D01*
X198590Y172477D01*
X198557Y172915D01*
X199361Y174040D01*
X200648Y174573D01*
X201632Y175557D01*
X202165Y176844D01*
Y178236D01*
X201632Y179523D01*
X200648Y180507D01*
X199361Y181040D01*
D02*
G37*
G36*
X427696Y168500D02*
X426304D01*
X425017Y167967D01*
X424033Y166983D01*
X423500Y165696D01*
Y164304D01*
X424033Y163017D01*
X425017Y162033D01*
X426304Y161500D01*
X427696D01*
X428983Y162033D01*
X429967Y163017D01*
X430500Y164304D01*
Y165696D01*
X429967Y166983D01*
X428983Y167967D01*
X427696Y168500D01*
D02*
G37*
G36*
X260845Y164373D02*
X259155D01*
X257593Y163726D01*
X256397Y162531D01*
X255750Y160969D01*
Y159278D01*
X256397Y157716D01*
X257593Y156521D01*
X259155Y155873D01*
X260845D01*
X262407Y156521D01*
X263603Y157716D01*
X264250Y159278D01*
Y160969D01*
X263603Y162531D01*
X262407Y163726D01*
X260845Y164373D01*
D02*
G37*
G36*
X167948Y160250D02*
X167052D01*
X166225Y159908D01*
X165592Y159275D01*
X165250Y158448D01*
Y157552D01*
X165592Y156726D01*
X166225Y156093D01*
X167052Y155750D01*
X167948D01*
X168775Y156093D01*
X169407Y156726D01*
X169750Y157552D01*
Y158448D01*
X169407Y159275D01*
X168775Y159908D01*
X167948Y160250D01*
D02*
G37*
G36*
X186698Y158500D02*
X185802D01*
X184975Y158158D01*
X184342Y157524D01*
X184000Y156698D01*
Y155802D01*
X184342Y154976D01*
X184975Y154342D01*
X185802Y154000D01*
X186698D01*
X187525Y154342D01*
X188157Y154976D01*
X188500Y155802D01*
Y156698D01*
X188157Y157524D01*
X187525Y158158D01*
X186698Y158500D01*
D02*
G37*
G36*
X220595Y162250D02*
X218905D01*
X217343Y161603D01*
X216147Y160407D01*
X215500Y158845D01*
Y157155D01*
X216147Y155593D01*
X217343Y154397D01*
X218905Y153750D01*
X220595D01*
X222157Y154397D01*
X223353Y155593D01*
X224000Y157155D01*
Y158845D01*
X223353Y160407D01*
X222157Y161603D01*
X220595Y162250D01*
D02*
G37*
G36*
X231845Y161250D02*
X230155D01*
X228593Y160603D01*
X227397Y159407D01*
X226750Y157845D01*
Y156155D01*
X227397Y154593D01*
X228593Y153397D01*
X230155Y152750D01*
X231845D01*
X233407Y153397D01*
X234603Y154593D01*
X235250Y156155D01*
Y157845D01*
X234603Y159407D01*
X233407Y160603D01*
X231845Y161250D01*
D02*
G37*
G36*
X195572Y160375D02*
X194428D01*
X193371Y159937D01*
X192563Y159129D01*
X192125Y158072D01*
Y156928D01*
X192563Y155871D01*
X193371Y155063D01*
X194428Y154625D01*
X194671D01*
X194850Y154446D01*
Y153534D01*
X195383Y152247D01*
X196099Y151531D01*
X195707Y150670D01*
X195459Y150375D01*
X194428D01*
X193371Y149937D01*
X192563Y149129D01*
X192125Y148072D01*
Y146928D01*
X192563Y145871D01*
X192706Y145728D01*
Y143906D01*
X192033Y143233D01*
X191500Y141946D01*
Y140554D01*
X192033Y139267D01*
X193017Y138283D01*
X194304Y137750D01*
X195696D01*
X196982Y138283D01*
X197967Y139267D01*
X198500Y140554D01*
Y141946D01*
X197967Y143233D01*
X197294Y143906D01*
Y145728D01*
X197437Y145871D01*
X197875Y146928D01*
Y148072D01*
X197437Y149129D01*
X196897Y149669D01*
X197616Y150745D01*
X197654Y150730D01*
X199046D01*
X200333Y151263D01*
X201317Y152247D01*
X201850Y153534D01*
Y154926D01*
X201317Y156213D01*
X200333Y157197D01*
X199046Y157730D01*
X198054D01*
X197875Y157909D01*
Y158072D01*
X197437Y159129D01*
X196628Y159937D01*
X195572Y160375D01*
D02*
G37*
G36*
X269845Y157250D02*
X268155D01*
X266593Y156603D01*
X265397Y155407D01*
X264750Y153845D01*
Y152155D01*
X265397Y150593D01*
X266593Y149397D01*
X268155Y148750D01*
X269845D01*
X271407Y149397D01*
X272603Y150593D01*
X273250Y152155D01*
Y153845D01*
X272603Y155407D01*
X271407Y156603D01*
X269845Y157250D01*
D02*
G37*
G36*
X729780Y156316D02*
X728089D01*
X726527Y155669D01*
X725331Y154473D01*
X724684Y152911D01*
Y151221D01*
X725331Y149658D01*
X726527Y148463D01*
X728089Y147816D01*
X729780D01*
X731341Y148463D01*
X732537Y149658D01*
X733184Y151221D01*
Y152911D01*
X732537Y154473D01*
X731341Y155669D01*
X729780Y156316D01*
D02*
G37*
G36*
X695845Y148250D02*
X694155D01*
X692593Y147603D01*
X691808Y146818D01*
X691000Y146543D01*
X690192Y146818D01*
X689407Y147603D01*
X687845Y148250D01*
X686155D01*
X684593Y147603D01*
X683397Y146407D01*
X682750Y144845D01*
Y143155D01*
X683397Y141593D01*
X684593Y140397D01*
X686155Y139750D01*
X687845D01*
X689407Y140397D01*
X690192Y141182D01*
X691000Y141457D01*
X691808Y141182D01*
X692593Y140397D01*
X694155Y139750D01*
X695845D01*
X697407Y140397D01*
X698603Y141593D01*
X699250Y143155D01*
Y144845D01*
X698603Y146407D01*
X697407Y147603D01*
X695845Y148250D01*
D02*
G37*
G36*
X188018Y149891D02*
X187123D01*
X186296Y149549D01*
X185663Y148916D01*
X185321Y148089D01*
Y147194D01*
X185663Y146367D01*
X186296Y145734D01*
X187123Y145391D01*
X188018D01*
X188845Y145734D01*
X189478Y146367D01*
X189821Y147194D01*
Y148089D01*
X189478Y148916D01*
X188845Y149549D01*
X188018Y149891D01*
D02*
G37*
G36*
X591646Y151250D02*
X590354D01*
X589159Y150755D01*
X588245Y149841D01*
X587750Y148646D01*
Y147354D01*
X588245Y146159D01*
X589159Y145245D01*
X590354Y144750D01*
X591646D01*
X592841Y145245D01*
X593755Y146159D01*
X594250Y147354D01*
Y148646D01*
X593755Y149841D01*
X592841Y150755D01*
X591646Y151250D01*
D02*
G37*
G36*
X252845Y153250D02*
X251155D01*
X249593Y152603D01*
X248397Y151407D01*
X247750Y149845D01*
Y148155D01*
X248397Y146593D01*
X249593Y145397D01*
X251155Y144750D01*
X252845D01*
X254407Y145397D01*
X255603Y146593D01*
X256250Y148155D01*
Y149845D01*
X255603Y151407D01*
X254407Y152603D01*
X252845Y153250D01*
D02*
G37*
G36*
X122196Y155000D02*
X120804D01*
X119517Y154467D01*
X118533Y153483D01*
X118000Y152196D01*
Y150804D01*
X118533Y149517D01*
X119299Y148751D01*
X119427Y148000D01*
X119299Y147249D01*
X118533Y146483D01*
X118000Y145196D01*
Y143804D01*
X118533Y142517D01*
X119517Y141533D01*
X120804Y141000D01*
X122196D01*
X123483Y141533D01*
X124467Y142517D01*
X125000Y143804D01*
Y145196D01*
X124467Y146483D01*
X123701Y147249D01*
X123573Y148000D01*
X123701Y148751D01*
X124467Y149517D01*
X125000Y150804D01*
Y152196D01*
X124467Y153483D01*
X123483Y154467D01*
X122196Y155000D01*
D02*
G37*
G36*
X706845Y147500D02*
X705155D01*
X703593Y146853D01*
X702397Y145657D01*
X701750Y144095D01*
Y142405D01*
X702397Y140843D01*
X703593Y139647D01*
X705155Y139000D01*
X706845D01*
X708407Y139647D01*
X709603Y140843D01*
X710250Y142405D01*
Y144095D01*
X709603Y145657D01*
X708407Y146853D01*
X706845Y147500D01*
D02*
G37*
G36*
X532646Y145250D02*
X531353D01*
X530159Y144755D01*
X529245Y143841D01*
X528750Y142647D01*
Y141354D01*
X529245Y140159D01*
X530159Y139245D01*
X531353Y138750D01*
X532646D01*
X533841Y139245D01*
X534755Y140159D01*
X535250Y141354D01*
Y142647D01*
X534755Y143841D01*
X533841Y144755D01*
X532646Y145250D01*
D02*
G37*
G36*
X470696Y145500D02*
X469304D01*
X468017Y144967D01*
X467033Y143983D01*
X466500Y142696D01*
Y141304D01*
X467033Y140017D01*
X468017Y139033D01*
X469304Y138500D01*
X470696D01*
X471983Y139033D01*
X472967Y140017D01*
X473500Y141304D01*
Y142696D01*
X472967Y143983D01*
X471983Y144967D01*
X470696Y145500D01*
D02*
G37*
G36*
X169322Y149750D02*
X168178D01*
X167121Y149312D01*
X166313Y148504D01*
X165875Y147447D01*
Y146303D01*
X166313Y145246D01*
X166456Y145103D01*
Y143906D01*
X165783Y143233D01*
X165250Y141946D01*
Y140554D01*
X165783Y139267D01*
X166767Y138283D01*
X168054Y137750D01*
X169446D01*
X170732Y138283D01*
X171717Y139267D01*
X172250Y140554D01*
Y141946D01*
X171717Y143233D01*
X171044Y143906D01*
Y145103D01*
X171187Y145246D01*
X171625Y146303D01*
Y147447D01*
X171187Y148504D01*
X170378Y149312D01*
X169322Y149750D01*
D02*
G37*
G36*
X159322D02*
X158178D01*
X157121Y149312D01*
X156313Y148504D01*
X155875Y147447D01*
Y146303D01*
X156313Y145246D01*
X156456Y145103D01*
Y143906D01*
X155783Y143233D01*
X155250Y141946D01*
Y140554D01*
X155783Y139267D01*
X156767Y138283D01*
X158054Y137750D01*
X159446D01*
X160732Y138283D01*
X161717Y139267D01*
X162250Y140554D01*
Y141946D01*
X161717Y143233D01*
X161044Y143906D01*
Y145103D01*
X161187Y145246D01*
X161625Y146303D01*
Y147447D01*
X161187Y148504D01*
X160378Y149312D01*
X159322Y149750D01*
D02*
G37*
G36*
X276914Y146181D02*
X275224D01*
X273661Y145534D01*
X272466Y144339D01*
X271819Y142776D01*
Y141086D01*
X272466Y139524D01*
X273661Y138328D01*
X275224Y137681D01*
X276914D01*
X278476Y138328D01*
X279672Y139524D01*
X280319Y141086D01*
Y142776D01*
X279672Y144339D01*
X278476Y145534D01*
X276914Y146181D01*
D02*
G37*
G36*
X695845Y132250D02*
X694155D01*
X692593Y131603D01*
X691808Y130818D01*
X691000Y130543D01*
X690192Y130818D01*
X689407Y131603D01*
X687845Y132250D01*
X686155D01*
X684593Y131603D01*
X683397Y130407D01*
X682750Y128845D01*
Y127155D01*
X683397Y125593D01*
X684593Y124397D01*
X686155Y123750D01*
X687845D01*
X689407Y124397D01*
X690192Y125182D01*
X691000Y125457D01*
X691808Y125182D01*
X692593Y124397D01*
X694155Y123750D01*
X695845D01*
X697407Y124397D01*
X698603Y125593D01*
X699250Y127155D01*
Y128845D01*
X698603Y130407D01*
X697407Y131603D01*
X695845Y132250D01*
D02*
G37*
G36*
X121196Y134000D02*
X119804D01*
X118517Y133467D01*
X117533Y132483D01*
X117000Y131196D01*
Y129804D01*
X117533Y128517D01*
X118517Y127533D01*
X119804Y127000D01*
X121196D01*
X122483Y127533D01*
X123467Y128517D01*
X124000Y129804D01*
Y131196D01*
X123467Y132483D01*
X122483Y133467D01*
X121196Y134000D01*
D02*
G37*
G36*
X584606Y126500D02*
X582894D01*
X581241Y126057D01*
X579759Y125201D01*
X578549Y123991D01*
X577693Y122509D01*
X577632Y122282D01*
X576294Y122195D01*
X575913Y123116D01*
X574366Y124663D01*
X572344Y125500D01*
X570156D01*
X568134Y124663D01*
X566587Y123116D01*
X565750Y121094D01*
Y118906D01*
X566587Y116884D01*
X568134Y115337D01*
X570156Y114500D01*
X572344D01*
X574366Y115337D01*
X575913Y116884D01*
X576294Y117805D01*
X577632Y117718D01*
X577693Y117491D01*
X578549Y116009D01*
X579759Y114799D01*
X581241Y113943D01*
X582894Y113500D01*
X584606D01*
X586259Y113943D01*
X587741Y114799D01*
X588951Y116009D01*
X589807Y117491D01*
X590250Y119144D01*
Y120856D01*
X589807Y122509D01*
X588951Y123991D01*
X587741Y125201D01*
X586259Y126057D01*
X584606Y126500D01*
D02*
G37*
G36*
X214696Y132500D02*
X213304D01*
X212017Y131967D01*
X211033Y130983D01*
X210500Y129696D01*
Y128304D01*
X211033Y127017D01*
X212017Y126033D01*
X213304Y125500D01*
X214256D01*
X215125Y124631D01*
Y124428D01*
X215563Y123371D01*
X216371Y122563D01*
X217428Y122125D01*
X218572D01*
X219629Y122563D01*
X220437Y123371D01*
X220875Y124428D01*
Y125572D01*
X220437Y126629D01*
X219629Y127437D01*
X218572Y127875D01*
X218369D01*
X217500Y128744D01*
Y129696D01*
X216967Y130983D01*
X215983Y131967D01*
X214696Y132500D01*
D02*
G37*
G36*
X450845Y128250D02*
X449155D01*
X447593Y127603D01*
X446397Y126407D01*
X445750Y124845D01*
Y123155D01*
X446397Y121593D01*
X447593Y120397D01*
X449155Y119750D01*
X450845D01*
X452407Y120397D01*
X453603Y121593D01*
X454250Y123155D01*
Y124845D01*
X453603Y126407D01*
X452407Y127603D01*
X450845Y128250D01*
D02*
G37*
G36*
X169845Y126750D02*
X168155D01*
X166593Y126103D01*
X165397Y124907D01*
X164750Y123345D01*
Y121655D01*
X165397Y120093D01*
X166593Y118897D01*
X168155Y118250D01*
X169845D01*
X171407Y118897D01*
X172603Y120093D01*
X173250Y121655D01*
Y123345D01*
X172603Y124907D01*
X171407Y126103D01*
X169845Y126750D01*
D02*
G37*
G36*
X159845D02*
X158155D01*
X156593Y126103D01*
X155397Y124907D01*
X154750Y123345D01*
Y121655D01*
X155397Y120093D01*
X156593Y118897D01*
X158155Y118250D01*
X159845D01*
X161407Y118897D01*
X162603Y120093D01*
X163250Y121655D01*
Y123345D01*
X162603Y124907D01*
X161407Y126103D01*
X159845Y126750D01*
D02*
G37*
G36*
X251845Y123250D02*
X250155D01*
X248593Y122603D01*
X247397Y121407D01*
X246750Y119845D01*
Y118155D01*
X247397Y116593D01*
X248593Y115397D01*
X250155Y114750D01*
X251845D01*
X253407Y115397D01*
X254603Y116593D01*
X255250Y118155D01*
Y119845D01*
X254603Y121407D01*
X253407Y122603D01*
X251845Y123250D01*
D02*
G37*
G36*
X212845D02*
X211155D01*
X209593Y122603D01*
X208397Y121407D01*
X207750Y119845D01*
Y118155D01*
X208397Y116593D01*
X209593Y115397D01*
X211155Y114750D01*
X212845D01*
X214407Y115397D01*
X215603Y116593D01*
X216250Y118155D01*
Y119845D01*
X215603Y121407D01*
X214407Y122603D01*
X212845Y123250D01*
D02*
G37*
G36*
X744845Y116250D02*
X743155D01*
X741593Y115603D01*
X740808Y114818D01*
X740000Y114543D01*
X739193Y114818D01*
X738407Y115603D01*
X736845Y116250D01*
X735155D01*
X733593Y115603D01*
X732397Y114407D01*
X731750Y112845D01*
Y111155D01*
X732397Y109593D01*
X733593Y108397D01*
X735155Y107750D01*
X736845D01*
X738407Y108397D01*
X739193Y109182D01*
X740000Y109457D01*
X740808Y109182D01*
X741593Y108397D01*
X743155Y107750D01*
X744845D01*
X746407Y108397D01*
X747603Y109593D01*
X748250Y111155D01*
Y112845D01*
X747603Y114407D01*
X746407Y115603D01*
X744845Y116250D01*
D02*
G37*
G36*
X659844Y125500D02*
X657656D01*
X655635Y124663D01*
X654087Y123116D01*
X653250Y121094D01*
Y118906D01*
X654087Y116884D01*
X655635Y115337D01*
X657656Y114500D01*
X659844D01*
X661865Y115337D01*
X663413Y116884D01*
X664250Y118906D01*
Y121094D01*
X663413Y123116D01*
X661865Y124663D01*
X659844Y125500D01*
D02*
G37*
G36*
X634844D02*
X632656D01*
X630634Y124663D01*
X629087Y123116D01*
X628250Y121094D01*
Y118906D01*
X629087Y116884D01*
X630634Y115337D01*
X632656Y114500D01*
X634844D01*
X636866Y115337D01*
X638413Y116884D01*
X639250Y118906D01*
Y121094D01*
X638413Y123116D01*
X636866Y124663D01*
X634844Y125500D01*
D02*
G37*
G36*
X609844D02*
X607656D01*
X605634Y124663D01*
X604087Y123116D01*
X603250Y121094D01*
Y118906D01*
X604087Y116884D01*
X605634Y115337D01*
X607656Y114500D01*
X609844D01*
X611866Y115337D01*
X613413Y116884D01*
X614250Y118906D01*
Y121094D01*
X613413Y123116D01*
X611866Y124663D01*
X609844Y125500D01*
D02*
G37*
G36*
X547344D02*
X545156D01*
X543134Y124663D01*
X541587Y123116D01*
X540750Y121094D01*
Y118906D01*
X541587Y116884D01*
X543134Y115337D01*
X545156Y114500D01*
X547344D01*
X549366Y115337D01*
X550913Y116884D01*
X551750Y118906D01*
Y121094D01*
X550913Y123116D01*
X549366Y124663D01*
X547344Y125500D01*
D02*
G37*
G36*
X109845Y122250D02*
X108155D01*
X106593Y121603D01*
X105397Y120407D01*
X104750Y118845D01*
Y117155D01*
X105397Y115593D01*
X106593Y114397D01*
X108155Y113750D01*
X109845D01*
X111407Y114397D01*
X112603Y115593D01*
X113250Y117155D01*
Y118845D01*
X112603Y120407D01*
X111407Y121603D01*
X109845Y122250D01*
D02*
G37*
G36*
X777845Y120250D02*
X776155D01*
X774593Y119603D01*
X773397Y118407D01*
X772750Y116845D01*
Y115155D01*
X773397Y113593D01*
X774593Y112397D01*
X776155Y111750D01*
X777845D01*
X779407Y112397D01*
X780603Y113593D01*
X781250Y115155D01*
Y116845D01*
X780603Y118407D01*
X779407Y119603D01*
X777845Y120250D01*
D02*
G37*
G36*
X92845Y112250D02*
X91155D01*
X89593Y111603D01*
X88808Y110818D01*
X88000Y110543D01*
X87192Y110818D01*
X86407Y111603D01*
X84845Y112250D01*
X83155D01*
X81593Y111603D01*
X80397Y110407D01*
X79750Y108845D01*
Y107155D01*
X80397Y105593D01*
X81593Y104397D01*
X83155Y103750D01*
X84845D01*
X86407Y104397D01*
X87192Y105182D01*
X88000Y105457D01*
X88808Y105182D01*
X89593Y104397D01*
X91155Y103750D01*
X92845D01*
X94407Y104397D01*
X95603Y105593D01*
X96250Y107155D01*
Y108845D01*
X95603Y110407D01*
X94407Y111603D01*
X92845Y112250D01*
D02*
G37*
G36*
X285845Y118250D02*
X284155D01*
X282593Y117603D01*
X281397Y116407D01*
X280750Y114845D01*
Y113155D01*
X281397Y111593D01*
X282593Y110397D01*
X284155Y109750D01*
X285845D01*
X287407Y110397D01*
X288603Y111593D01*
X289250Y113155D01*
Y114845D01*
X288603Y116407D01*
X287407Y117603D01*
X285845Y118250D01*
D02*
G37*
G36*
X271845D02*
X270155D01*
X268593Y117603D01*
X267397Y116407D01*
X266750Y114845D01*
Y113155D01*
X267397Y111593D01*
X268593Y110397D01*
X270155Y109750D01*
X271845D01*
X273407Y110397D01*
X274603Y111593D01*
X275250Y113155D01*
Y114845D01*
X274603Y116407D01*
X273407Y117603D01*
X271845Y118250D01*
D02*
G37*
G36*
X102845Y112250D02*
X101155D01*
X99593Y111603D01*
X98397Y110407D01*
X97750Y108845D01*
Y107155D01*
X98397Y105593D01*
X99593Y104397D01*
X101155Y103750D01*
X102845D01*
X104407Y104397D01*
X105603Y105593D01*
X106250Y107155D01*
Y108845D01*
X105603Y110407D01*
X104407Y111603D01*
X102845Y112250D01*
D02*
G37*
G36*
X73845D02*
X72155D01*
X70593Y111603D01*
X69397Y110407D01*
X68750Y108845D01*
Y107155D01*
X69397Y105593D01*
X70593Y104397D01*
X72155Y103750D01*
X73845D01*
X75407Y104397D01*
X76603Y105593D01*
X77250Y107155D01*
Y108845D01*
X76603Y110407D01*
X75407Y111603D01*
X73845Y112250D01*
D02*
G37*
G36*
X786696Y106500D02*
X785304D01*
X784017Y105967D01*
X783033Y104983D01*
X782500Y103696D01*
Y102304D01*
X783033Y101017D01*
X784017Y100033D01*
X785304Y99500D01*
X786696D01*
X787983Y100033D01*
X788967Y101017D01*
X789500Y102304D01*
Y103696D01*
X788967Y104983D01*
X787983Y105967D01*
X786696Y106500D01*
D02*
G37*
G36*
X207845Y107250D02*
X206155D01*
X204593Y106603D01*
X203397Y105407D01*
X202750Y103845D01*
Y102155D01*
X203397Y100593D01*
X204593Y99397D01*
X206155Y98750D01*
X207845D01*
X209407Y99397D01*
X210603Y100593D01*
X211250Y102155D01*
Y103845D01*
X210603Y105407D01*
X209407Y106603D01*
X207845Y107250D01*
D02*
G37*
G36*
X234845Y100250D02*
X233155D01*
X231593Y99603D01*
X230397Y98407D01*
X229750Y96845D01*
Y95155D01*
X230397Y93593D01*
X231593Y92397D01*
X233155Y91750D01*
X234845D01*
X236407Y92397D01*
X237603Y93593D01*
X238250Y95155D01*
Y96845D01*
X237603Y98407D01*
X236407Y99603D01*
X234845Y100250D01*
D02*
G37*
G36*
X723845Y99250D02*
X722155D01*
X720593Y98603D01*
X719397Y97407D01*
X718750Y95845D01*
Y94155D01*
X719397Y92593D01*
X720593Y91397D01*
X722155Y90750D01*
X723845D01*
X725407Y91397D01*
X726603Y92593D01*
X727250Y94155D01*
Y95845D01*
X726603Y97407D01*
X725407Y98603D01*
X723845Y99250D01*
D02*
G37*
G36*
X322845Y94500D02*
X321155D01*
X319593Y93853D01*
X318397Y92657D01*
X317750Y91095D01*
Y89405D01*
X318397Y87843D01*
X319593Y86647D01*
X321155Y86000D01*
X322845D01*
X324407Y86647D01*
X325603Y87843D01*
X326250Y89405D01*
Y91095D01*
X325603Y92657D01*
X324407Y93853D01*
X322845Y94500D01*
D02*
G37*
G36*
X308845D02*
X307155D01*
X305593Y93853D01*
X304397Y92657D01*
X303750Y91095D01*
Y89405D01*
X304397Y87843D01*
X305593Y86647D01*
X307155Y86000D01*
X308845D01*
X310407Y86647D01*
X311603Y87843D01*
X312250Y89405D01*
Y91095D01*
X311603Y92657D01*
X310407Y93853D01*
X308845Y94500D01*
D02*
G37*
G36*
X740845Y93250D02*
X739155D01*
X737593Y92603D01*
X736397Y91407D01*
X735750Y89845D01*
Y88155D01*
X736397Y86593D01*
X737593Y85397D01*
X739155Y84750D01*
X740845D01*
X742407Y85397D01*
X743603Y86593D01*
X744250Y88155D01*
Y89845D01*
X743603Y91407D01*
X742407Y92603D01*
X740845Y93250D01*
D02*
G37*
G36*
X170845Y87250D02*
X169155D01*
X167593Y86603D01*
X166397Y85407D01*
X165750Y83845D01*
Y82155D01*
X166397Y80593D01*
X167593Y79397D01*
X169155Y78750D01*
X170845D01*
X172407Y79397D01*
X173603Y80593D01*
X174250Y82155D01*
Y83845D01*
X173603Y85407D01*
X172407Y86603D01*
X170845Y87250D01*
D02*
G37*
G36*
X696696Y85500D02*
X695304D01*
X694017Y84967D01*
X693033Y83983D01*
X692500Y82696D01*
Y81304D01*
X693033Y80017D01*
X694017Y79033D01*
X695304Y78500D01*
X696696D01*
X697983Y79033D01*
X698967Y80017D01*
X699500Y81304D01*
Y82696D01*
X698967Y83983D01*
X697983Y84967D01*
X696696Y85500D01*
D02*
G37*
G36*
X478845Y86250D02*
X477155D01*
X475593Y85603D01*
X474397Y84407D01*
X473750Y82845D01*
Y81155D01*
X474397Y79593D01*
X475593Y78397D01*
X477155Y77750D01*
X478845D01*
X480407Y78397D01*
X481603Y79593D01*
X482250Y81155D01*
Y82845D01*
X481603Y84407D01*
X480407Y85603D01*
X478845Y86250D01*
D02*
G37*
G36*
X643345Y81750D02*
X641655D01*
X640093Y81103D01*
X638897Y79907D01*
X638250Y78345D01*
Y76655D01*
X638897Y75093D01*
X640093Y73897D01*
X641655Y73250D01*
X643345D01*
X644907Y73897D01*
X646103Y75093D01*
X646750Y76655D01*
Y78345D01*
X646103Y79907D01*
X644907Y81103D01*
X643345Y81750D01*
D02*
G37*
G36*
X600845D02*
X599155D01*
X597593Y81103D01*
X596397Y79907D01*
X595750Y78345D01*
Y76655D01*
X596397Y75093D01*
X597593Y73897D01*
X599155Y73250D01*
X600845D01*
X602407Y73897D01*
X603603Y75093D01*
X604250Y76655D01*
Y78345D01*
X603603Y79907D01*
X602407Y81103D01*
X600845Y81750D01*
D02*
G37*
G36*
X543345D02*
X541655D01*
X540093Y81103D01*
X538897Y79907D01*
X538250Y78345D01*
Y76655D01*
X538897Y75093D01*
X540093Y73897D01*
X541655Y73250D01*
X543345D01*
X544907Y73897D01*
X546103Y75093D01*
X546750Y76655D01*
Y78345D01*
X546103Y79907D01*
X544907Y81103D01*
X543345Y81750D01*
D02*
G37*
G36*
X401845Y81250D02*
X400155D01*
X398593Y80603D01*
X397397Y79407D01*
X396750Y77845D01*
Y76155D01*
X397397Y74593D01*
X398593Y73397D01*
X400155Y72750D01*
X401845D01*
X403407Y73397D01*
X404603Y74593D01*
X405250Y76155D01*
Y77845D01*
X404603Y79407D01*
X403407Y80603D01*
X401845Y81250D01*
D02*
G37*
G36*
X471845Y79250D02*
X470155D01*
X468593Y78603D01*
X467397Y77407D01*
X466750Y75845D01*
Y74155D01*
X467397Y72593D01*
X468593Y71397D01*
X470155Y70750D01*
X471845D01*
X473407Y71397D01*
X474603Y72593D01*
X475250Y74155D01*
Y75845D01*
X474603Y77407D01*
X473407Y78603D01*
X471845Y79250D01*
D02*
G37*
G36*
X334696Y76500D02*
X333304D01*
X332017Y75967D01*
X331033Y74983D01*
X330500Y73696D01*
Y72304D01*
X331033Y71017D01*
X332017Y70033D01*
X333304Y69500D01*
X334696D01*
X335983Y70033D01*
X336967Y71017D01*
X337500Y72304D01*
Y73696D01*
X336967Y74983D01*
X335983Y75967D01*
X334696Y76500D01*
D02*
G37*
G36*
X326196D02*
X324804D01*
X323517Y75967D01*
X322533Y74983D01*
X322000Y73696D01*
Y72304D01*
X322533Y71017D01*
X323517Y70033D01*
X324804Y69500D01*
X326196D01*
X327483Y70033D01*
X328467Y71017D01*
X329000Y72304D01*
Y73696D01*
X328467Y74983D01*
X327483Y75967D01*
X326196Y76500D01*
D02*
G37*
G36*
X150000Y128000D02*
X148000D01*
Y112000D01*
X144000Y108000D01*
Y74000D01*
X136000Y66000D01*
X110449D01*
X109845Y66250D01*
X108155D01*
X107551Y66000D01*
X106000D01*
X100000Y72000D01*
Y94000D01*
X119750Y113750D01*
X119845D01*
X121407Y114397D01*
X122603Y115593D01*
X123250Y117155D01*
Y117250D01*
X130000Y124000D01*
Y128000D01*
X128000D01*
Y126000D01*
X122505Y120505D01*
X121407Y121603D01*
X119845Y122250D01*
X118155D01*
X116593Y121603D01*
X115397Y120407D01*
X114750Y118845D01*
Y117155D01*
X115397Y115593D01*
X116495Y114495D01*
X98000Y96000D01*
Y70000D01*
X104000Y64000D01*
X104085D01*
X104791Y62944D01*
X104750Y62845D01*
Y61155D01*
X105397Y59593D01*
X106593Y58397D01*
X108155Y57750D01*
X109845D01*
X111407Y58397D01*
X112603Y59593D01*
X113250Y61155D01*
Y62845D01*
X113209Y62944D01*
X113915Y64000D01*
X138000D01*
X146000Y72000D01*
Y106000D01*
X150000Y110000D01*
Y128000D01*
D02*
G37*
G36*
X465845Y65250D02*
X464155D01*
X462593Y64603D01*
X461397Y63407D01*
X460750Y61845D01*
Y60155D01*
X461397Y58593D01*
X462593Y57397D01*
X464155Y56750D01*
X465845D01*
X467407Y57397D01*
X468603Y58593D01*
X469250Y60155D01*
Y61845D01*
X468603Y63407D01*
X467407Y64603D01*
X465845Y65250D01*
D02*
G37*
G36*
X202845Y64250D02*
X201155D01*
X199593Y63603D01*
X198397Y62407D01*
X197750Y60845D01*
Y59155D01*
X198397Y57593D01*
X199593Y56397D01*
X201155Y55750D01*
X202845D01*
X204407Y56397D01*
X205603Y57593D01*
X206250Y59155D01*
Y60845D01*
X205603Y62407D01*
X204407Y63603D01*
X202845Y64250D01*
D02*
G37*
G36*
X315845Y69250D02*
X314155D01*
X312593Y68603D01*
X311397Y67407D01*
X310750Y65845D01*
Y64155D01*
X311397Y62593D01*
X312593Y61397D01*
X313889Y60860D01*
X313270Y59365D01*
Y57674D01*
X313917Y56112D01*
X315112Y54917D01*
X316674Y54270D01*
X318365D01*
X319927Y54917D01*
X321123Y56112D01*
X321770Y57674D01*
Y59365D01*
X321123Y60927D01*
X319927Y62123D01*
X318631Y62660D01*
X319250Y64155D01*
Y65845D01*
X318603Y67407D01*
X317407Y68603D01*
X315845Y69250D01*
D02*
G37*
G36*
X329845Y62250D02*
X328155D01*
X326593Y61603D01*
X325397Y60407D01*
X324750Y58845D01*
Y57155D01*
X325397Y55593D01*
X326593Y54397D01*
X328155Y53750D01*
X329845D01*
X331407Y54397D01*
X332603Y55593D01*
X333250Y57155D01*
Y58845D01*
X332603Y60407D01*
X331407Y61603D01*
X329845Y62250D01*
D02*
G37*
G36*
X134845Y62000D02*
X133155D01*
X131593Y61353D01*
X130397Y60157D01*
X129750Y58595D01*
Y56905D01*
X130397Y55343D01*
X131593Y54147D01*
X133155Y53500D01*
X134845D01*
X136407Y54147D01*
X137603Y55343D01*
X138250Y56905D01*
Y58595D01*
X137603Y60157D01*
X136407Y61353D01*
X134845Y62000D01*
D02*
G37*
G36*
X247196Y55000D02*
X245804D01*
X244517Y54467D01*
X243533Y53483D01*
X243000Y52196D01*
Y50804D01*
X243533Y49517D01*
X244517Y48533D01*
X245804Y48000D01*
X247196D01*
X248483Y48533D01*
X249467Y49517D01*
X250000Y50804D01*
Y52196D01*
X249467Y53483D01*
X248483Y54467D01*
X247196Y55000D01*
D02*
G37*
G36*
X174845Y56250D02*
X173155D01*
X171593Y55603D01*
X170397Y54407D01*
X169750Y52845D01*
Y51155D01*
X170397Y49593D01*
X171593Y48397D01*
X173155Y47750D01*
X174845D01*
X176407Y48397D01*
X177603Y49593D01*
X178250Y51155D01*
Y52845D01*
X177603Y54407D01*
X176407Y55603D01*
X174845Y56250D01*
D02*
G37*
G36*
X123845D02*
X122155D01*
X120593Y55603D01*
X119397Y54407D01*
X118750Y52845D01*
Y51155D01*
X119397Y49593D01*
X120593Y48397D01*
X122155Y47750D01*
X123845D01*
X125407Y48397D01*
X126603Y49593D01*
X127250Y51155D01*
Y52845D01*
X126603Y54407D01*
X125407Y55603D01*
X123845Y56250D01*
D02*
G37*
G36*
X796711Y73000D02*
X793288D01*
X789982Y72114D01*
X787018Y70402D01*
X784597Y67982D01*
X782886Y65017D01*
X782000Y61711D01*
Y58288D01*
X782886Y54982D01*
X784597Y52017D01*
X787018Y49597D01*
X789982Y47886D01*
X793288Y47000D01*
X796711D01*
X800017Y47886D01*
X802982Y49597D01*
X805402Y52017D01*
X807114Y54982D01*
X808000Y58288D01*
Y61711D01*
X807114Y65017D01*
X805402Y67982D01*
X802982Y70402D01*
X800017Y72114D01*
X796711Y73000D01*
D02*
G37*
G36*
X26711D02*
X23288D01*
X19981Y72114D01*
X17017Y70402D01*
X14597Y67982D01*
X12885Y65017D01*
X11999Y61711D01*
Y58288D01*
X12885Y54982D01*
X14597Y52017D01*
X17017Y49597D01*
X19981Y47886D01*
X23288Y47000D01*
X26711D01*
X30017Y47886D01*
X32982Y49597D01*
X35402Y52017D01*
X37113Y54982D01*
X37999Y58288D01*
Y61711D01*
X37113Y65017D01*
X35402Y67982D01*
X32982Y70402D01*
X30017Y72114D01*
X26711Y73000D01*
D02*
G37*
G36*
X475696Y50500D02*
X474304D01*
X473017Y49967D01*
X472033Y48983D01*
X471500Y47696D01*
Y46304D01*
X472033Y45017D01*
X473017Y44033D01*
X474304Y43500D01*
X475696D01*
X476983Y44033D01*
X477967Y45017D01*
X478500Y46304D01*
Y47696D01*
X477967Y48983D01*
X476983Y49967D01*
X475696Y50500D01*
D02*
G37*
G36*
X165597Y48000D02*
X164403D01*
X163301Y47543D01*
X162457Y46699D01*
X162000Y45597D01*
Y44403D01*
X162457Y43301D01*
X163301Y42457D01*
X164403Y42000D01*
X165597D01*
X166699Y42457D01*
X167543Y43301D01*
X168000Y44403D01*
Y45597D01*
X167543Y46699D01*
X166699Y47543D01*
X165597Y48000D01*
D02*
G37*
G36*
X425845Y49250D02*
X424155D01*
X422593Y48603D01*
X421397Y47407D01*
X420750Y45845D01*
Y44155D01*
X421397Y42593D01*
X422593Y41397D01*
X424155Y40750D01*
X425845D01*
X427407Y41397D01*
X428603Y42593D01*
X429250Y44155D01*
Y45845D01*
X428603Y47407D01*
X427407Y48603D01*
X425845Y49250D01*
D02*
G37*
G36*
X149845D02*
X148155D01*
X146593Y48603D01*
X145397Y47407D01*
X144750Y45845D01*
Y44155D01*
X145397Y42593D01*
X146593Y41397D01*
X148155Y40750D01*
X149845D01*
X151407Y41397D01*
X152603Y42593D01*
X153250Y44155D01*
Y45845D01*
X152603Y47407D01*
X151407Y48603D01*
X149845Y49250D01*
D02*
G37*
G36*
X771696Y47500D02*
X770304D01*
X769017Y46967D01*
X768033Y45983D01*
X767500Y44696D01*
Y43304D01*
X768033Y42017D01*
X769017Y41033D01*
X770304Y40500D01*
X771696D01*
X772983Y41033D01*
X773967Y42017D01*
X774500Y43304D01*
Y44696D01*
X773967Y45983D01*
X772983Y46967D01*
X771696Y47500D01*
D02*
G37*
G36*
X304845Y46250D02*
X303155D01*
X301593Y45603D01*
X300397Y44407D01*
X299750Y42845D01*
Y41155D01*
X300397Y39593D01*
X301593Y38397D01*
X303155Y37750D01*
X304845D01*
X306407Y38397D01*
X307603Y39593D01*
X308250Y41155D01*
Y42845D01*
X307603Y44407D01*
X306407Y45603D01*
X304845Y46250D01*
D02*
G37*
G36*
X201845Y43250D02*
X200155D01*
X198593Y42603D01*
X197397Y41407D01*
X196750Y39845D01*
Y38155D01*
X197397Y36593D01*
X198593Y35397D01*
X200155Y34750D01*
X201845D01*
X203407Y35397D01*
X204603Y36593D01*
X205250Y38155D01*
Y39845D01*
X204603Y41407D01*
X203407Y42603D01*
X201845Y43250D01*
D02*
G37*
G36*
X584844Y36750D02*
X582656D01*
X580634Y35913D01*
X579087Y34365D01*
X578250Y32344D01*
Y30156D01*
X579087Y28135D01*
X580634Y26587D01*
X582656Y25750D01*
X584844D01*
X586866Y26587D01*
X588413Y28135D01*
X589250Y30156D01*
Y32344D01*
X588413Y34365D01*
X586866Y35913D01*
X584844Y36750D01*
D02*
G37*
G36*
X325845Y24250D02*
X324155D01*
X322593Y23603D01*
X321397Y22407D01*
X320750Y20845D01*
Y19155D01*
X321397Y17593D01*
X322593Y16397D01*
X324155Y15750D01*
X325845D01*
X327407Y16397D01*
X328603Y17593D01*
X329250Y19155D01*
Y20845D01*
X328603Y22407D01*
X327407Y23603D01*
X325845Y24250D01*
D02*
G37*
G36*
X622344Y26750D02*
X620156D01*
X618134Y25913D01*
X616587Y24365D01*
X615750Y22344D01*
Y20156D01*
X616587Y18134D01*
X618134Y16587D01*
X620156Y15750D01*
X622344D01*
X624366Y16587D01*
X625913Y18134D01*
X626750Y20156D01*
Y22344D01*
X625913Y24365D01*
X624366Y25913D01*
X622344Y26750D01*
D02*
G37*
G36*
X609844D02*
X607656D01*
X605634Y25913D01*
X604087Y24365D01*
X603250Y22344D01*
Y20156D01*
X604087Y18134D01*
X605634Y16587D01*
X607656Y15750D01*
X609844D01*
X611866Y16587D01*
X613413Y18134D01*
X614250Y20156D01*
Y22344D01*
X613413Y24365D01*
X611866Y25913D01*
X609844Y26750D01*
D02*
G37*
G36*
X597344D02*
X595156D01*
X593134Y25913D01*
X591587Y24365D01*
X590750Y22344D01*
Y20156D01*
X591587Y18134D01*
X593134Y16587D01*
X595156Y15750D01*
X597344D01*
X599366Y16587D01*
X600913Y18134D01*
X601750Y20156D01*
Y22344D01*
X600913Y24365D01*
X599366Y25913D01*
X597344Y26750D01*
D02*
G37*
G36*
X760845Y17250D02*
X759155D01*
X757593Y16603D01*
X756397Y15407D01*
X755750Y13845D01*
Y12155D01*
X756397Y10593D01*
X757593Y9397D01*
X759155Y8750D01*
X760845D01*
X762407Y9397D01*
X763603Y10593D01*
X764250Y12155D01*
Y13845D01*
X763603Y15407D01*
X762407Y16603D01*
X760845Y17250D01*
D02*
G37*
G36*
X333345Y16750D02*
X331655D01*
X330093Y16103D01*
X328897Y14907D01*
X328250Y13345D01*
Y11655D01*
X328897Y10093D01*
X330093Y8897D01*
X331655Y8250D01*
X333345D01*
X334907Y8897D01*
X336103Y10093D01*
X336750Y11655D01*
Y13345D01*
X336103Y14907D01*
X334907Y16103D01*
X333345Y16750D01*
D02*
G37*
G36*
X318345D02*
X316655D01*
X315093Y16103D01*
X313897Y14907D01*
X313250Y13345D01*
Y11655D01*
X313897Y10093D01*
X315093Y8897D01*
X316655Y8250D01*
X318345D01*
X319907Y8897D01*
X321103Y10093D01*
X321750Y11655D01*
Y13345D01*
X321103Y14907D01*
X319907Y16103D01*
X318345Y16750D01*
D02*
G37*
G36*
X633594Y18000D02*
X631406D01*
X629384Y17163D01*
X627837Y15616D01*
X627000Y13594D01*
Y11406D01*
X627837Y9384D01*
X629384Y7837D01*
X631406Y7000D01*
X633594D01*
X635616Y7837D01*
X637163Y9384D01*
X638000Y11406D01*
Y13594D01*
X637163Y15616D01*
X635616Y17163D01*
X633594Y18000D01*
D02*
G37*
G36*
X582344D02*
X580156D01*
X578134Y17163D01*
X576587Y15616D01*
X575750Y13594D01*
Y11406D01*
X576587Y9384D01*
X578134Y7837D01*
X580156Y7000D01*
X582344D01*
X584366Y7837D01*
X585913Y9384D01*
X586750Y11406D01*
Y13594D01*
X585913Y15616D01*
X584366Y17163D01*
X582344Y18000D01*
D02*
G37*
%LPD*%
D12*
X194000Y253500D02*
X199500D01*
X549000Y220000D02*
Y224000D01*
X488000Y228000D02*
X493000D01*
D13*
X195000Y157500D02*
X195040D01*
X198310Y154230D01*
X198350D01*
X195000Y165028D02*
X198665Y168692D01*
X195000Y165000D02*
Y165028D01*
X198665Y168692D02*
Y168720D01*
X195000Y173813D02*
X198665Y177477D01*
X195000Y173750D02*
Y173813D01*
X198665Y177477D02*
Y177540D01*
X148895Y190770D02*
X152045Y193920D01*
X195625Y187500D02*
X201250D01*
X148125Y198125D02*
Y207500D01*
X165000Y198323D02*
Y207500D01*
X180000Y198323D02*
Y207500D01*
X187500Y203125D02*
X187500Y203125D01*
Y198500D02*
Y203125D01*
X172500Y203125D02*
X172500Y203125D01*
Y198500D02*
Y203125D01*
X157500Y198500D02*
Y203125D01*
X195000Y141250D02*
Y147500D01*
X168750Y141250D02*
Y146875D01*
X158750Y141250D02*
Y146875D01*
X144375Y142500D02*
Y147500D01*
X142261Y153511D02*
X144136D01*
X138750Y150000D02*
X142261Y153511D01*
X144136D02*
X144375Y153750D01*
X138750Y158125D02*
X139426D01*
X140979Y159678D02*
X144053D01*
X139426Y158125D02*
X140979Y159678D01*
X144053D02*
X144375Y160000D01*
X138750Y166875D02*
X143412D01*
X144037Y166250D01*
X144375D01*
X138750Y175000D02*
X144375D01*
X139228Y182647D02*
X142640D01*
X144037Y181250D01*
X138750Y183125D02*
X139228Y182647D01*
X144037Y181250D02*
X144375D01*
X142025Y189850D02*
X144375Y187500D01*
X138900Y189850D02*
X142025D01*
X138750Y190000D02*
X138900Y189850D01*
X144135Y195240D02*
X144374Y195001D01*
X138750Y197500D02*
X139426D01*
X141687Y195240D01*
X144135D01*
X214000Y129000D02*
X218000Y125000D01*
D124*
X25000Y213100D02*
D03*
D127*
X673750Y16250D02*
D03*
X651250Y77500D02*
D03*
X621250Y81250D02*
D03*
X611250Y77500D02*
D03*
X571250Y76250D02*
D03*
X517500D02*
D03*
X519000Y176000D02*
D03*
X236000Y59000D02*
D03*
Y39000D02*
D03*
X524000Y143000D02*
D03*
X487000Y176500D02*
D03*
X469000Y275000D02*
D03*
X507000Y241000D02*
D03*
X541000Y399000D02*
D03*
X564000Y392000D02*
D03*
X574000Y358000D02*
D03*
X323000Y64000D02*
D03*
X140000Y112500D02*
D03*
X549000Y290000D02*
D03*
X541000D02*
D03*
X393000Y77000D02*
D03*
X126000Y59000D02*
D03*
X113000Y55000D02*
D03*
X219000Y141000D02*
D03*
X180000Y116000D02*
D03*
X509000Y193000D02*
D03*
X563000Y188000D02*
D03*
X540000Y143000D02*
D03*
X599000Y148000D02*
D03*
D128*
X546250Y61250D02*
D03*
X623000Y261000D02*
D03*
Y240000D02*
D03*
X397000Y351000D02*
D03*
X389000D02*
D03*
X395500Y390000D02*
D03*
X388500D02*
D03*
X270000Y423000D02*
D03*
X705000Y171000D02*
D03*
X724500Y237500D02*
D03*
Y226250D02*
D03*
X713250Y206250D02*
D03*
X703250Y198750D02*
D03*
Y213750D02*
D03*
Y228750D02*
D03*
Y243750D02*
D03*
X722000Y290000D02*
D03*
X723250Y340000D02*
D03*
X704500Y331250D02*
D03*
X717000D02*
D03*
X729500Y353750D02*
D03*
X717000D02*
D03*
X704500D02*
D03*
X717000Y405000D02*
D03*
Y388750D02*
D03*
Y371250D02*
D03*
X729500D02*
D03*
Y388750D02*
D03*
Y405000D02*
D03*
X704500Y371250D02*
D03*
Y388750D02*
D03*
Y405000D02*
D03*
X714500Y320000D02*
D03*
X667000Y261250D02*
D03*
X622999Y405999D02*
D03*
X315000Y307000D02*
D03*
X330000Y422000D02*
D03*
X360000Y415000D02*
D03*
X340000D02*
D03*
X289000Y422000D02*
D03*
X56000Y384000D02*
D03*
X110000Y408000D02*
D03*
X180000Y420000D02*
D03*
X282000Y378000D02*
D03*
X255000Y385000D02*
D03*
X274000D02*
D03*
X282000D02*
D03*
X266000D02*
D03*
X245000D02*
D03*
X235000D02*
D03*
X132000Y301000D02*
D03*
X99000Y299000D02*
D03*
X60000Y292000D02*
D03*
X99000Y289000D02*
D03*
X114000Y385000D02*
D03*
X250000Y296000D02*
D03*
X103000Y385000D02*
D03*
X95000Y408000D02*
D03*
X132000Y385000D02*
D03*
X691000Y136000D02*
D03*
X460000Y312750D02*
D03*
Y339000D02*
D03*
X458000Y404000D02*
D03*
X270000Y268000D02*
D03*
X812500Y325000D02*
D03*
Y310000D02*
D03*
Y290000D02*
D03*
Y270000D02*
D03*
Y237500D02*
D03*
Y215000D02*
D03*
Y195000D02*
D03*
Y170000D02*
D03*
Y112500D02*
D03*
Y100000D02*
D03*
Y80000D02*
D03*
X37500Y40000D02*
D03*
X47500Y27500D02*
D03*
X812500Y387500D02*
D03*
X777500Y405000D02*
D03*
X770000Y417500D02*
D03*
X40000Y402500D02*
D03*
X50000Y415000D02*
D03*
X27500Y392500D02*
D03*
X7500Y327500D02*
D03*
Y360000D02*
D03*
Y385000D02*
D03*
Y290000D02*
D03*
X50000Y177500D02*
D03*
Y152500D02*
D03*
Y140000D02*
D03*
X7500Y120000D02*
D03*
Y100000D02*
D03*
Y80000D02*
D03*
X95000Y40000D02*
D03*
X430000Y35000D02*
D03*
X280180Y7000D02*
D03*
X52682Y7682D02*
D03*
X80182D02*
D03*
X100182D02*
D03*
X120182D02*
D03*
X140182D02*
D03*
X160182D02*
D03*
X180182D02*
D03*
X200182D02*
D03*
X220182D02*
D03*
X240182D02*
D03*
X260182D02*
D03*
X297682D02*
D03*
X340000Y20000D02*
D03*
X367500Y47500D02*
D03*
X410000D02*
D03*
X442682Y7682D02*
D03*
X440000Y20000D02*
D03*
X532500Y7500D02*
D03*
X588750D02*
D03*
X350000Y35000D02*
D03*
X652500Y7500D02*
D03*
X692500Y7500D02*
D03*
X767682Y7682D02*
D03*
X767500Y432500D02*
D03*
X747500D02*
D03*
X727500D02*
D03*
X707500D02*
D03*
X685000D02*
D03*
X665000D02*
D03*
X620000D02*
D03*
X492500D02*
D03*
X455000D02*
D03*
X432500Y417500D02*
D03*
X442500Y432500D02*
D03*
X417500Y417500D02*
D03*
X402500D02*
D03*
X387500D02*
D03*
X377500Y432500D02*
D03*
X360000D02*
D03*
X340000D02*
D03*
X322500D02*
D03*
X297500D02*
D03*
X280000D02*
D03*
X260000D02*
D03*
X240000D02*
D03*
X220000D02*
D03*
X200000D02*
D03*
X180000D02*
D03*
X160000D02*
D03*
X140000D02*
D03*
X120000D02*
D03*
X100000D02*
D03*
X80000D02*
D03*
X52500D02*
D03*
X158000Y301000D02*
D03*
X356000Y166000D02*
D03*
X205500Y227000D02*
D03*
X417000Y165000D02*
D03*
X459500Y141500D02*
D03*
X448000Y313000D02*
D03*
X274000Y378000D02*
D03*
X266000D02*
D03*
X752244Y160245D02*
D03*
X616000Y320000D02*
D03*
X796000Y281000D02*
D03*
X685000Y82000D02*
D03*
X706000Y68000D02*
D03*
X768250Y365000D02*
D03*
X378000Y143000D02*
D03*
X277000Y166000D02*
D03*
X493500Y116000D02*
D03*
X436000Y74000D02*
D03*
X646250Y62500D02*
D03*
X658750Y72500D02*
D03*
X596250Y31250D02*
D03*
X553750Y77500D02*
D03*
X521250Y62000D02*
D03*
X475000D02*
D03*
Y31000D02*
D03*
Y8000D02*
D03*
X425000Y100000D02*
D03*
X344000Y73000D02*
D03*
X325000Y10000D02*
D03*
X645999Y120000D02*
D03*
X596250Y120000D02*
D03*
X533750D02*
D03*
X558750D02*
D03*
X767000Y290000D02*
D03*
Y320000D02*
D03*
X739500Y290000D02*
D03*
X689000Y166000D02*
D03*
X771000Y53000D02*
D03*
X745000Y80000D02*
D03*
X623000Y177000D02*
D03*
X786000Y93000D02*
D03*
X625000Y142000D02*
D03*
X760750Y190000D02*
D03*
X724500Y195000D02*
D03*
X84000Y71000D02*
D03*
X157000Y45000D02*
D03*
X623000Y219000D02*
D03*
Y283000D02*
D03*
X722000Y275000D02*
D03*
X703250D02*
D03*
Y290000D02*
D03*
X705000Y320000D02*
D03*
X623000Y320000D02*
D03*
Y198000D02*
D03*
X521000Y368000D02*
D03*
X608000Y366000D02*
D03*
X659000Y320000D02*
D03*
X600000Y432500D02*
D03*
X794000Y355000D02*
D03*
X813000Y347000D02*
D03*
X287000Y45000D02*
D03*
X267000Y51500D02*
D03*
X588750Y77500D02*
D03*
X527500Y73750D02*
D03*
X719000Y25000D02*
D03*
X546250Y31250D02*
D03*
X675000Y7500D02*
D03*
X658750Y62500D02*
D03*
X521250Y31250D02*
D03*
X695000Y320000D02*
D03*
X667000Y320000D02*
D03*
X632000Y377000D02*
D03*
X767500Y245000D02*
D03*
D129*
X373000Y290000D02*
D03*
X372938Y200187D02*
D03*
D130*
X522653Y182262D02*
D03*
X120500Y130500D02*
D03*
X121500Y144500D02*
D03*
Y138500D02*
D03*
X109000Y118000D02*
D03*
X119000D02*
D03*
X175500Y261000D02*
D03*
X194000Y253500D02*
D03*
X154500Y261000D02*
D03*
X563000Y180000D02*
D03*
X549000Y224000D02*
D03*
X564000Y225000D02*
D03*
X723000Y95000D02*
D03*
X740000Y89000D02*
D03*
X528000Y208000D02*
D03*
X523000Y412000D02*
D03*
X571000Y402000D02*
D03*
X563000Y374000D02*
D03*
X198350Y154230D02*
D03*
X192500Y180000D02*
D03*
X198665Y168720D02*
D03*
Y177540D02*
D03*
X152045Y193920D02*
D03*
X166250Y176250D02*
D03*
X173750D02*
D03*
X166250Y168750D02*
D03*
X173750D02*
D03*
X201250Y187500D02*
D03*
X159000Y122500D02*
D03*
X169000D02*
D03*
X144497Y119997D02*
D03*
X120000Y226000D02*
D03*
Y216000D02*
D03*
X132500Y222500D02*
D03*
X142500D02*
D03*
X120000Y205000D02*
D03*
Y195000D02*
D03*
X148125Y207500D02*
D03*
X165000D02*
D03*
X180000D02*
D03*
X187500Y203125D02*
D03*
X172500D02*
D03*
X157500D02*
D03*
X195000Y141250D02*
D03*
X168750D02*
D03*
X158750D02*
D03*
X144375Y142500D02*
D03*
X138750Y150000D02*
D03*
Y158125D02*
D03*
Y166875D02*
D03*
Y175000D02*
D03*
Y183125D02*
D03*
Y190000D02*
D03*
Y197500D02*
D03*
X92000Y261000D02*
D03*
X574000Y208000D02*
D03*
X231000Y183000D02*
D03*
Y170000D02*
D03*
Y157000D02*
D03*
X495000Y393000D02*
D03*
X278000Y114000D02*
D03*
X151250Y147500D02*
D03*
X149000Y227000D02*
D03*
X188000Y223000D02*
D03*
X97000Y113000D02*
D03*
X212000Y119000D02*
D03*
X315000Y90250D02*
D03*
X214000Y129000D02*
D03*
X272000Y147000D02*
D03*
X263000Y180000D02*
D03*
X256000Y155000D02*
D03*
X213000Y158000D02*
D03*
X452562Y197750D02*
D03*
X392000Y189000D02*
D03*
X220000Y194500D02*
D03*
X478000Y75000D02*
D03*
X126000Y260000D02*
D03*
X145500Y261000D02*
D03*
X60000Y256000D02*
D03*
X75000Y224000D02*
D03*
X47500Y207500D02*
D03*
X78000Y113000D02*
D03*
X90000Y182000D02*
D03*
Y163000D02*
D03*
X556000Y311000D02*
D03*
X531000Y388000D02*
D03*
X112000Y186000D02*
D03*
X178000Y222500D02*
D03*
X168000D02*
D03*
X158000D02*
D03*
X192500Y152500D02*
D03*
X121500Y151500D02*
D03*
X170000Y172500D02*
D03*
D134*
X199500Y253500D02*
D03*
X148895Y190770D02*
D03*
X195625Y187500D02*
D03*
X148125Y198125D02*
D03*
X144374Y195001D02*
D03*
X195000Y147500D02*
D03*
Y157500D02*
D03*
Y165000D02*
D03*
Y173750D02*
D03*
X168750Y146875D02*
D03*
X158750D02*
D03*
X144375Y147500D02*
D03*
Y153750D02*
D03*
Y160000D02*
D03*
Y166250D02*
D03*
Y175000D02*
D03*
Y187500D02*
D03*
Y181250D02*
D03*
X157500Y198500D02*
D03*
X549000Y220000D02*
D03*
X218000Y125000D02*
D03*
X172500Y198500D02*
D03*
X187500D02*
D03*
X180000Y198323D02*
D03*
X165000D02*
D03*
D135*
X493000Y228000D02*
D03*
X525000Y226000D02*
D03*
D138*
X488000Y228000D02*
D03*
M02*
