G04*
G04 #@! TF.GenerationSoftware,Altium Limited,Altium Designer,22.6.1 (34)*
G04*
G04 Layer_Color=16776960*
%FSLAX44Y44*%
%MOMM*%
G71*
G04*
G04 #@! TF.SameCoordinates,0BC7250A-E466-409B-9AFC-A4DADF5EADDD*
G04*
G04*
G04 #@! TF.FilePolarity,Positive*
G04*
G01*
G75*
%ADD13C,0.2000*%
%ADD15C,0.1200*%
%ADD107C,0.5000*%
%ADD116C,0.1500*%
%ADD123C,0.2540*%
%ADD154C,0.1000*%
%ADD159R,0.6000X1.6000*%
%ADD160R,1.2000X3.0000*%
%ADD161R,2.2000X1.2000*%
%ADD162R,4.4000X1.6000*%
%ADD163R,1.6000X0.6000*%
G36*
X65744Y28262D02*
X65834D01*
X66080Y28236D01*
X66353Y28197D01*
X66638Y28133D01*
X66948Y28055D01*
X67233Y27951D01*
X67246D01*
X67272Y27938D01*
X67311Y27912D01*
X67363Y27887D01*
X67492Y27822D01*
X67661Y27705D01*
X67855Y27576D01*
X68050Y27407D01*
X68231Y27213D01*
X68399Y26993D01*
Y26980D01*
X68412Y26967D01*
X68438Y26928D01*
X68464Y26889D01*
X68529Y26760D01*
X68607Y26591D01*
X68697Y26384D01*
X68762Y26138D01*
X68827Y25879D01*
X68853Y25594D01*
X67713Y25503D01*
Y25516D01*
Y25542D01*
X67700Y25581D01*
X67687Y25645D01*
X67648Y25788D01*
X67596Y25982D01*
X67518Y26189D01*
X67402Y26397D01*
X67259Y26591D01*
X67078Y26772D01*
X67052Y26785D01*
X66987Y26837D01*
X66858Y26915D01*
X66689Y26993D01*
X66469Y27070D01*
X66210Y27148D01*
X65886Y27200D01*
X65524Y27213D01*
X65342D01*
X65264Y27200D01*
X65161Y27187D01*
X64928Y27161D01*
X64669Y27109D01*
X64409Y27044D01*
X64163Y26941D01*
X64060Y26876D01*
X63956Y26811D01*
X63930Y26798D01*
X63878Y26746D01*
X63801Y26656D01*
X63723Y26552D01*
X63632Y26410D01*
X63555Y26254D01*
X63503Y26073D01*
X63477Y25866D01*
Y25840D01*
Y25788D01*
X63490Y25697D01*
X63516Y25594D01*
X63555Y25464D01*
X63619Y25334D01*
X63697Y25205D01*
X63814Y25075D01*
X63826Y25062D01*
X63891Y25024D01*
X63943Y24985D01*
X63995Y24959D01*
X64073Y24920D01*
X64163Y24868D01*
X64280Y24829D01*
X64409Y24778D01*
X64552Y24726D01*
X64720Y24661D01*
X64902Y24609D01*
X65109Y24544D01*
X65342Y24492D01*
X65601Y24428D01*
X65614D01*
X65666Y24415D01*
X65744Y24402D01*
X65834Y24376D01*
X65951Y24350D01*
X66094Y24311D01*
X66236Y24272D01*
X66391Y24233D01*
X66728Y24143D01*
X67052Y24052D01*
X67207Y24000D01*
X67350Y23948D01*
X67480Y23910D01*
X67583Y23858D01*
X67596D01*
X67622Y23845D01*
X67661Y23819D01*
X67713Y23793D01*
X67855Y23715D01*
X68024Y23612D01*
X68218Y23469D01*
X68412Y23314D01*
X68594Y23132D01*
X68749Y22938D01*
X68762Y22912D01*
X68814Y22847D01*
X68866Y22731D01*
X68943Y22575D01*
X69008Y22394D01*
X69073Y22174D01*
X69112Y21928D01*
X69125Y21669D01*
Y21656D01*
Y21643D01*
Y21604D01*
Y21552D01*
X69099Y21409D01*
X69073Y21228D01*
X69021Y21021D01*
X68956Y20801D01*
X68853Y20567D01*
X68710Y20321D01*
Y20308D01*
X68697Y20295D01*
X68632Y20218D01*
X68542Y20101D01*
X68412Y19972D01*
X68244Y19816D01*
X68037Y19648D01*
X67803Y19492D01*
X67531Y19350D01*
X67518D01*
X67492Y19337D01*
X67454Y19324D01*
X67402Y19298D01*
X67324Y19272D01*
X67233Y19233D01*
X67026Y19181D01*
X66780Y19117D01*
X66482Y19052D01*
X66158Y19013D01*
X65809Y19000D01*
X65601D01*
X65498Y19013D01*
X65381D01*
X65251Y19026D01*
X65096Y19039D01*
X64772Y19091D01*
X64435Y19143D01*
X64099Y19233D01*
X63775Y19350D01*
X63762D01*
X63736Y19363D01*
X63697Y19389D01*
X63645Y19414D01*
X63490Y19492D01*
X63308Y19609D01*
X63101Y19764D01*
X62881Y19946D01*
X62674Y20166D01*
X62479Y20412D01*
Y20425D01*
X62453Y20451D01*
X62441Y20490D01*
X62402Y20542D01*
X62376Y20606D01*
X62337Y20684D01*
X62246Y20878D01*
X62155Y21124D01*
X62078Y21397D01*
X62026Y21707D01*
X62000Y22031D01*
X63114Y22135D01*
Y22122D01*
Y22109D01*
X63127Y22070D01*
Y22018D01*
X63153Y21902D01*
X63192Y21733D01*
X63244Y21565D01*
X63295Y21371D01*
X63386Y21189D01*
X63477Y21021D01*
X63490Y21008D01*
X63529Y20956D01*
X63593Y20865D01*
X63697Y20775D01*
X63826Y20658D01*
X63969Y20542D01*
X64163Y20425D01*
X64371Y20321D01*
X64384D01*
X64397Y20308D01*
X64435Y20295D01*
X64474Y20282D01*
X64604Y20244D01*
X64772Y20192D01*
X64979Y20140D01*
X65213Y20101D01*
X65472Y20075D01*
X65757Y20062D01*
X65873D01*
X66003Y20075D01*
X66158Y20088D01*
X66340Y20114D01*
X66547Y20140D01*
X66754Y20192D01*
X66948Y20257D01*
X66974Y20269D01*
X67039Y20295D01*
X67130Y20347D01*
X67246Y20399D01*
X67363Y20490D01*
X67492Y20580D01*
X67622Y20684D01*
X67726Y20814D01*
X67739Y20826D01*
X67765Y20878D01*
X67803Y20943D01*
X67855Y21047D01*
X67907Y21150D01*
X67946Y21280D01*
X67972Y21422D01*
X67985Y21578D01*
Y21591D01*
Y21656D01*
X67972Y21733D01*
X67959Y21837D01*
X67920Y21941D01*
X67881Y22070D01*
X67816Y22200D01*
X67726Y22316D01*
X67713Y22329D01*
X67674Y22368D01*
X67622Y22420D01*
X67531Y22498D01*
X67428Y22575D01*
X67285Y22666D01*
X67117Y22757D01*
X66922Y22834D01*
X66910Y22847D01*
X66845Y22860D01*
X66741Y22899D01*
X66676Y22912D01*
X66586Y22938D01*
X66495Y22977D01*
X66378Y23003D01*
X66249Y23042D01*
X66094Y23080D01*
X65938Y23119D01*
X65757Y23171D01*
X65549Y23223D01*
X65329Y23275D01*
X65316D01*
X65277Y23288D01*
X65213Y23301D01*
X65135Y23327D01*
X65031Y23353D01*
X64915Y23379D01*
X64656Y23456D01*
X64371Y23547D01*
X64073Y23637D01*
X63814Y23728D01*
X63697Y23780D01*
X63593Y23832D01*
X63580D01*
X63568Y23845D01*
X63490Y23897D01*
X63373Y23961D01*
X63244Y24065D01*
X63088Y24182D01*
X62933Y24324D01*
X62777Y24492D01*
X62648Y24674D01*
X62635Y24700D01*
X62596Y24764D01*
X62544Y24868D01*
X62492Y24998D01*
X62441Y25166D01*
X62389Y25360D01*
X62350Y25568D01*
X62337Y25788D01*
Y25801D01*
Y25814D01*
Y25853D01*
Y25905D01*
X62363Y26034D01*
X62389Y26202D01*
X62428Y26397D01*
X62492Y26617D01*
X62583Y26837D01*
X62712Y27057D01*
Y27070D01*
X62726Y27083D01*
X62790Y27161D01*
X62881Y27265D01*
X62997Y27394D01*
X63153Y27537D01*
X63347Y27692D01*
X63580Y27835D01*
X63840Y27964D01*
X63853D01*
X63878Y27977D01*
X63917Y27990D01*
X63969Y28016D01*
X64034Y28042D01*
X64124Y28068D01*
X64319Y28120D01*
X64565Y28171D01*
X64850Y28223D01*
X65148Y28262D01*
X65485Y28275D01*
X65653D01*
X65744Y28262D01*
D02*
G37*
G36*
X73490Y28145D02*
X73594Y28133D01*
X73723Y28120D01*
X73866Y28094D01*
X74008Y28068D01*
X74345Y27977D01*
X74682Y27848D01*
X74850Y27770D01*
X75019Y27679D01*
X75174Y27563D01*
X75317Y27433D01*
X75330Y27420D01*
X75356Y27407D01*
X75381Y27355D01*
X75433Y27304D01*
X75498Y27239D01*
X75563Y27148D01*
X75628Y27057D01*
X75705Y26941D01*
X75835Y26695D01*
X75964Y26384D01*
X76016Y26228D01*
X76042Y26047D01*
X76068Y25866D01*
X76081Y25671D01*
Y25645D01*
Y25581D01*
X76068Y25477D01*
X76055Y25334D01*
X76029Y25179D01*
X75977Y24998D01*
X75926Y24803D01*
X75848Y24609D01*
X75835Y24583D01*
X75809Y24518D01*
X75757Y24415D01*
X75679Y24272D01*
X75576Y24117D01*
X75446Y23923D01*
X75291Y23728D01*
X75110Y23508D01*
X75084Y23482D01*
X75019Y23404D01*
X74954Y23340D01*
X74889Y23275D01*
X74812Y23197D01*
X74708Y23094D01*
X74604Y22990D01*
X74475Y22873D01*
X74345Y22744D01*
X74190Y22601D01*
X74021Y22459D01*
X73840Y22290D01*
X73633Y22122D01*
X73425Y21941D01*
X73412Y21928D01*
X73387Y21902D01*
X73335Y21863D01*
X73270Y21811D01*
X73192Y21733D01*
X73102Y21656D01*
X72894Y21487D01*
X72674Y21293D01*
X72467Y21099D01*
X72285Y20930D01*
X72208Y20865D01*
X72143Y20801D01*
X72130Y20788D01*
X72091Y20749D01*
X72039Y20697D01*
X71975Y20619D01*
X71910Y20529D01*
X71832Y20438D01*
X71677Y20218D01*
X76094D01*
Y19155D01*
X70148D01*
Y19168D01*
Y19220D01*
Y19298D01*
X70161Y19402D01*
X70174Y19518D01*
X70200Y19648D01*
X70226Y19777D01*
X70278Y19920D01*
Y19933D01*
X70291Y19946D01*
X70317Y20023D01*
X70368Y20140D01*
X70446Y20295D01*
X70550Y20477D01*
X70679Y20684D01*
X70822Y20891D01*
X71003Y21112D01*
Y21124D01*
X71029Y21137D01*
X71094Y21215D01*
X71210Y21332D01*
X71379Y21500D01*
X71573Y21694D01*
X71819Y21928D01*
X72117Y22187D01*
X72441Y22459D01*
X72454Y22472D01*
X72506Y22510D01*
X72583Y22575D01*
X72674Y22653D01*
X72791Y22757D01*
X72933Y22873D01*
X73076Y23003D01*
X73244Y23145D01*
X73568Y23456D01*
X73892Y23767D01*
X74047Y23923D01*
X74190Y24078D01*
X74319Y24220D01*
X74423Y24363D01*
Y24376D01*
X74449Y24389D01*
X74475Y24428D01*
X74501Y24480D01*
X74591Y24622D01*
X74695Y24790D01*
X74786Y24998D01*
X74876Y25218D01*
X74928Y25464D01*
X74954Y25697D01*
Y25710D01*
Y25723D01*
X74941Y25801D01*
X74928Y25930D01*
X74889Y26073D01*
X74837Y26254D01*
X74747Y26436D01*
X74630Y26617D01*
X74475Y26798D01*
X74449Y26824D01*
X74384Y26876D01*
X74293Y26941D01*
X74151Y27032D01*
X73969Y27109D01*
X73762Y27187D01*
X73516Y27239D01*
X73244Y27252D01*
X73166D01*
X73115Y27239D01*
X72959Y27226D01*
X72778Y27187D01*
X72583Y27135D01*
X72363Y27044D01*
X72156Y26928D01*
X71962Y26772D01*
X71936Y26746D01*
X71884Y26682D01*
X71806Y26578D01*
X71729Y26423D01*
X71638Y26241D01*
X71560Y26008D01*
X71508Y25749D01*
X71482Y25451D01*
X70355Y25568D01*
Y25581D01*
X70368Y25619D01*
Y25684D01*
X70381Y25775D01*
X70407Y25879D01*
X70433Y25995D01*
X70472Y26138D01*
X70511Y26280D01*
X70614Y26591D01*
X70770Y26902D01*
X70861Y27057D01*
X70977Y27213D01*
X71094Y27355D01*
X71223Y27485D01*
X71236Y27498D01*
X71262Y27511D01*
X71301Y27550D01*
X71366Y27589D01*
X71444Y27640D01*
X71534Y27692D01*
X71638Y27757D01*
X71767Y27822D01*
X71910Y27887D01*
X72065Y27951D01*
X72234Y28003D01*
X72415Y28055D01*
X72609Y28094D01*
X72817Y28133D01*
X73037Y28145D01*
X73270Y28159D01*
X73400D01*
X73490Y28145D01*
D02*
G37*
G36*
X87429D02*
X87597Y28120D01*
X87791Y28081D01*
X87999Y28029D01*
X88219Y27964D01*
X88426Y27861D01*
X88439D01*
X88452Y27848D01*
X88517Y27809D01*
X88621Y27744D01*
X88750Y27653D01*
X88892Y27524D01*
X89048Y27381D01*
X89191Y27213D01*
X89333Y27018D01*
X89346Y26993D01*
X89398Y26928D01*
X89450Y26811D01*
X89540Y26643D01*
X89618Y26449D01*
X89722Y26228D01*
X89812Y25969D01*
X89890Y25684D01*
Y25671D01*
X89903Y25645D01*
X89916Y25607D01*
X89929Y25542D01*
X89942Y25464D01*
X89955Y25373D01*
X89981Y25257D01*
X89994Y25127D01*
X90020Y24985D01*
X90033Y24829D01*
X90045Y24648D01*
X90071Y24467D01*
X90084Y24259D01*
Y24052D01*
X90097Y23819D01*
Y23573D01*
Y23560D01*
Y23508D01*
Y23417D01*
Y23314D01*
X90084Y23171D01*
Y23016D01*
X90071Y22847D01*
X90058Y22666D01*
X90020Y22252D01*
X89955Y21824D01*
X89877Y21409D01*
X89825Y21215D01*
X89761Y21021D01*
Y21008D01*
X89747Y20982D01*
X89722Y20930D01*
X89696Y20865D01*
X89670Y20775D01*
X89618Y20684D01*
X89514Y20464D01*
X89385Y20231D01*
X89216Y19972D01*
X89022Y19738D01*
X88789Y19518D01*
X88776D01*
X88763Y19492D01*
X88724Y19466D01*
X88672Y19440D01*
X88608Y19402D01*
X88543Y19350D01*
X88349Y19259D01*
X88115Y19168D01*
X87843Y19078D01*
X87519Y19026D01*
X87170Y19000D01*
X87040D01*
X86949Y19013D01*
X86846Y19026D01*
X86716Y19052D01*
X86574Y19078D01*
X86418Y19117D01*
X86263Y19168D01*
X86095Y19220D01*
X85926Y19298D01*
X85758Y19389D01*
X85589Y19492D01*
X85421Y19622D01*
X85265Y19764D01*
X85123Y19920D01*
X85110Y19933D01*
X85084Y19972D01*
X85045Y20036D01*
X84980Y20140D01*
X84916Y20257D01*
X84851Y20412D01*
X84760Y20593D01*
X84683Y20801D01*
X84605Y21034D01*
X84527Y21306D01*
X84449Y21604D01*
X84384Y21941D01*
X84320Y22303D01*
X84281Y22692D01*
X84255Y23119D01*
X84242Y23573D01*
Y23586D01*
Y23637D01*
Y23728D01*
Y23832D01*
X84255Y23974D01*
Y24130D01*
X84268Y24298D01*
X84281Y24492D01*
X84320Y24894D01*
X84384Y25322D01*
X84462Y25749D01*
X84514Y25943D01*
X84566Y26138D01*
Y26151D01*
X84579Y26177D01*
X84605Y26228D01*
X84631Y26293D01*
X84657Y26384D01*
X84708Y26474D01*
X84812Y26695D01*
X84942Y26928D01*
X85110Y27174D01*
X85304Y27420D01*
X85537Y27627D01*
X85550D01*
X85563Y27653D01*
X85602Y27679D01*
X85654Y27705D01*
X85719Y27757D01*
X85796Y27796D01*
X85991Y27899D01*
X86224Y27990D01*
X86496Y28081D01*
X86820Y28133D01*
X87170Y28159D01*
X87286D01*
X87429Y28145D01*
D02*
G37*
G36*
X80459D02*
X80628Y28120D01*
X80822Y28081D01*
X81030Y28029D01*
X81250Y27964D01*
X81457Y27861D01*
X81470D01*
X81483Y27848D01*
X81548Y27809D01*
X81651Y27744D01*
X81781Y27653D01*
X81923Y27524D01*
X82079Y27381D01*
X82221Y27213D01*
X82364Y27018D01*
X82377Y26993D01*
X82429Y26928D01*
X82480Y26811D01*
X82571Y26643D01*
X82649Y26449D01*
X82752Y26228D01*
X82843Y25969D01*
X82921Y25684D01*
Y25671D01*
X82934Y25645D01*
X82947Y25607D01*
X82960Y25542D01*
X82973Y25464D01*
X82985Y25373D01*
X83011Y25257D01*
X83024Y25127D01*
X83050Y24985D01*
X83063Y24829D01*
X83076Y24648D01*
X83102Y24467D01*
X83115Y24259D01*
Y24052D01*
X83128Y23819D01*
Y23573D01*
Y23560D01*
Y23508D01*
Y23417D01*
Y23314D01*
X83115Y23171D01*
Y23016D01*
X83102Y22847D01*
X83089Y22666D01*
X83050Y22252D01*
X82985Y21824D01*
X82908Y21409D01*
X82856Y21215D01*
X82791Y21021D01*
Y21008D01*
X82778Y20982D01*
X82752Y20930D01*
X82726Y20865D01*
X82701Y20775D01*
X82649Y20684D01*
X82545Y20464D01*
X82416Y20231D01*
X82247Y19972D01*
X82053Y19738D01*
X81820Y19518D01*
X81807D01*
X81794Y19492D01*
X81755Y19466D01*
X81703Y19440D01*
X81638Y19402D01*
X81573Y19350D01*
X81379Y19259D01*
X81146Y19168D01*
X80874Y19078D01*
X80550Y19026D01*
X80200Y19000D01*
X80071D01*
X79980Y19013D01*
X79876Y19026D01*
X79747Y19052D01*
X79605Y19078D01*
X79449Y19117D01*
X79294Y19168D01*
X79125Y19220D01*
X78957Y19298D01*
X78788Y19389D01*
X78620Y19492D01*
X78452Y19622D01*
X78296Y19764D01*
X78154Y19920D01*
X78141Y19933D01*
X78115Y19972D01*
X78076Y20036D01*
X78011Y20140D01*
X77946Y20257D01*
X77882Y20412D01*
X77791Y20593D01*
X77713Y20801D01*
X77635Y21034D01*
X77558Y21306D01*
X77480Y21604D01*
X77415Y21941D01*
X77351Y22303D01*
X77312Y22692D01*
X77286Y23119D01*
X77273Y23573D01*
Y23586D01*
Y23637D01*
Y23728D01*
Y23832D01*
X77286Y23974D01*
Y24130D01*
X77299Y24298D01*
X77312Y24492D01*
X77351Y24894D01*
X77415Y25322D01*
X77493Y25749D01*
X77545Y25943D01*
X77597Y26138D01*
Y26151D01*
X77610Y26177D01*
X77635Y26228D01*
X77661Y26293D01*
X77687Y26384D01*
X77739Y26474D01*
X77843Y26695D01*
X77972Y26928D01*
X78141Y27174D01*
X78335Y27420D01*
X78568Y27627D01*
X78581D01*
X78594Y27653D01*
X78633Y27679D01*
X78685Y27705D01*
X78750Y27757D01*
X78827Y27796D01*
X79022Y27899D01*
X79255Y27990D01*
X79527Y28081D01*
X79851Y28133D01*
X80200Y28159D01*
X80317D01*
X80459Y28145D01*
D02*
G37*
G36*
X549303Y381001D02*
X548202D01*
Y388009D01*
X548189Y387996D01*
X548124Y387944D01*
X548046Y387866D01*
X547917Y387775D01*
X547774Y387659D01*
X547593Y387529D01*
X547386Y387387D01*
X547153Y387244D01*
X547140D01*
X547127Y387231D01*
X547049Y387179D01*
X546919Y387115D01*
X546764Y387037D01*
X546583Y386946D01*
X546388Y386856D01*
X546194Y386765D01*
X546000Y386687D01*
Y387749D01*
X546013D01*
X546039Y387775D01*
X546090Y387788D01*
X546155Y387827D01*
X546233Y387866D01*
X546324Y387918D01*
X546544Y388047D01*
X546803Y388190D01*
X547062Y388371D01*
X547334Y388578D01*
X547606Y388799D01*
X547619Y388812D01*
X547632Y388825D01*
X547671Y388863D01*
X547723Y388902D01*
X547839Y389032D01*
X547995Y389187D01*
X548150Y389369D01*
X548318Y389576D01*
X548461Y389783D01*
X548591Y390004D01*
X549303D01*
Y381001D01*
D02*
G37*
G36*
X556658Y370146D02*
X556827Y370120D01*
X557034Y370081D01*
X557267Y370017D01*
X557500Y369939D01*
X557733Y369835D01*
X557746D01*
X557759Y369822D01*
X557837Y369783D01*
X557954Y369706D01*
X558083Y369615D01*
X558239Y369485D01*
X558394Y369343D01*
X558550Y369174D01*
X558679Y368980D01*
X558692Y368954D01*
X558731Y368890D01*
X558783Y368773D01*
X558848Y368630D01*
X558912Y368462D01*
X558964Y368268D01*
X559003Y368047D01*
X559016Y367827D01*
Y367801D01*
Y367724D01*
X559003Y367620D01*
X558977Y367477D01*
X558938Y367309D01*
X558873Y367128D01*
X558796Y366946D01*
X558692Y366765D01*
X558679Y366739D01*
X558640Y366687D01*
X558563Y366597D01*
X558459Y366493D01*
X558329Y366376D01*
X558174Y366247D01*
X557993Y366130D01*
X557772Y366014D01*
X557785D01*
X557811Y366001D01*
X557850Y365988D01*
X557902Y365975D01*
X558044Y365923D01*
X558226Y365845D01*
X558433Y365742D01*
X558640Y365612D01*
X558835Y365444D01*
X559016Y365249D01*
X559029Y365224D01*
X559081Y365146D01*
X559158Y365016D01*
X559236Y364848D01*
X559314Y364641D01*
X559392Y364394D01*
X559443Y364109D01*
X559456Y363798D01*
Y363786D01*
Y363747D01*
Y363682D01*
X559443Y363604D01*
X559431Y363501D01*
X559404Y363384D01*
X559379Y363255D01*
X559353Y363112D01*
X559249Y362801D01*
X559171Y362633D01*
X559094Y362477D01*
X558990Y362309D01*
X558873Y362140D01*
X558744Y361972D01*
X558588Y361817D01*
X558576Y361804D01*
X558550Y361778D01*
X558498Y361739D01*
X558433Y361687D01*
X558355Y361622D01*
X558252Y361558D01*
X558135Y361480D01*
X557993Y361415D01*
X557850Y361337D01*
X557682Y361260D01*
X557513Y361195D01*
X557319Y361130D01*
X557112Y361078D01*
X556892Y361039D01*
X556671Y361013D01*
X556425Y361001D01*
X556309D01*
X556231Y361013D01*
X556127Y361026D01*
X556011Y361039D01*
X555881Y361065D01*
X555739Y361091D01*
X555428Y361169D01*
X555104Y361298D01*
X554935Y361376D01*
X554780Y361467D01*
X554624Y361583D01*
X554469Y361700D01*
X554456Y361713D01*
X554430Y361739D01*
X554391Y361778D01*
X554352Y361829D01*
X554288Y361894D01*
X554223Y361985D01*
X554145Y362076D01*
X554067Y362192D01*
X553990Y362322D01*
X553912Y362451D01*
X553770Y362762D01*
X553653Y363125D01*
X553614Y363319D01*
X553588Y363526D01*
X554689Y363669D01*
Y363656D01*
X554702Y363630D01*
X554715Y363578D01*
X554728Y363513D01*
X554741Y363436D01*
X554767Y363345D01*
X554832Y363151D01*
X554922Y362918D01*
X555039Y362697D01*
X555169Y362490D01*
X555324Y362309D01*
X555350Y362296D01*
X555402Y362244D01*
X555505Y362179D01*
X555635Y362114D01*
X555790Y362037D01*
X555985Y361972D01*
X556205Y361920D01*
X556438Y361907D01*
X556516D01*
X556568Y361920D01*
X556710Y361933D01*
X556892Y361972D01*
X557099Y362037D01*
X557319Y362127D01*
X557539Y362257D01*
X557746Y362438D01*
X557772Y362464D01*
X557837Y362542D01*
X557915Y362659D01*
X558018Y362814D01*
X558122Y363008D01*
X558200Y363229D01*
X558265Y363488D01*
X558290Y363773D01*
Y363786D01*
Y363811D01*
Y363850D01*
X558278Y363902D01*
X558265Y364045D01*
X558226Y364213D01*
X558174Y364420D01*
X558083Y364628D01*
X557954Y364835D01*
X557785Y365029D01*
X557759Y365055D01*
X557695Y365107D01*
X557591Y365185D01*
X557449Y365275D01*
X557267Y365366D01*
X557047Y365444D01*
X556801Y365495D01*
X556529Y365521D01*
X556412D01*
X556321Y365508D01*
X556205Y365495D01*
X556075Y365470D01*
X555920Y365444D01*
X555751Y365405D01*
X555881Y366376D01*
X555946D01*
X555998Y366363D01*
X556166D01*
X556309Y366389D01*
X556477Y366415D01*
X556671Y366454D01*
X556892Y366519D01*
X557099Y366610D01*
X557319Y366726D01*
X557332D01*
X557345Y366739D01*
X557410Y366791D01*
X557500Y366882D01*
X557604Y366998D01*
X557708Y367167D01*
X557798Y367361D01*
X557863Y367581D01*
X557889Y367711D01*
Y367853D01*
Y367866D01*
Y367879D01*
Y367957D01*
X557863Y368060D01*
X557837Y368203D01*
X557785Y368358D01*
X557720Y368527D01*
X557617Y368695D01*
X557474Y368851D01*
X557461Y368863D01*
X557397Y368915D01*
X557306Y368980D01*
X557189Y369058D01*
X557034Y369123D01*
X556853Y369187D01*
X556645Y369239D01*
X556412Y369252D01*
X556309D01*
X556192Y369226D01*
X556036Y369200D01*
X555868Y369148D01*
X555700Y369084D01*
X555518Y368980D01*
X555350Y368851D01*
X555337Y368838D01*
X555285Y368773D01*
X555207Y368682D01*
X555117Y368553D01*
X555026Y368384D01*
X554935Y368177D01*
X554858Y367931D01*
X554806Y367646D01*
X553705Y367840D01*
Y367853D01*
X553718Y367892D01*
X553731Y367944D01*
X553744Y368022D01*
X553770Y368112D01*
X553808Y368216D01*
X553886Y368462D01*
X554016Y368747D01*
X554171Y369032D01*
X554365Y369304D01*
X554612Y369550D01*
X554624Y369563D01*
X554650Y369576D01*
X554689Y369602D01*
X554741Y369641D01*
X554806Y369693D01*
X554897Y369744D01*
X554987Y369796D01*
X555104Y369861D01*
X555363Y369965D01*
X555661Y370068D01*
X556011Y370133D01*
X556192Y370159D01*
X556516D01*
X556658Y370146D01*
D02*
G37*
G36*
X552047Y364939D02*
Y364925D01*
Y364874D01*
Y364809D01*
Y364718D01*
X552034Y364602D01*
Y364472D01*
X552021Y364317D01*
X552008Y364161D01*
X551969Y363811D01*
X551917Y363449D01*
X551839Y363099D01*
X551788Y362931D01*
X551736Y362775D01*
Y362762D01*
X551723Y362736D01*
X551697Y362697D01*
X551671Y362646D01*
X551593Y362503D01*
X551477Y362322D01*
X551321Y362114D01*
X551140Y361907D01*
X550907Y361687D01*
X550622Y361493D01*
X550609D01*
X550583Y361467D01*
X550544Y361454D01*
X550479Y361415D01*
X550401Y361376D01*
X550298Y361337D01*
X550194Y361298D01*
X550065Y361247D01*
X549922Y361195D01*
X549767Y361156D01*
X549598Y361117D01*
X549404Y361078D01*
X549210Y361052D01*
X549002Y361026D01*
X548536Y361001D01*
X548420D01*
X548329Y361013D01*
X548225D01*
X548096Y361026D01*
X547953Y361039D01*
X547811Y361052D01*
X547487Y361104D01*
X547137Y361182D01*
X546800Y361286D01*
X546477Y361428D01*
X546464D01*
X546438Y361454D01*
X546399Y361480D01*
X546347Y361506D01*
X546204Y361609D01*
X546036Y361752D01*
X545842Y361933D01*
X545660Y362140D01*
X545479Y362399D01*
X545336Y362685D01*
Y362697D01*
X545323Y362723D01*
X545311Y362775D01*
X545285Y362840D01*
X545259Y362918D01*
X545233Y363021D01*
X545194Y363138D01*
X545168Y363280D01*
X545142Y363436D01*
X545103Y363604D01*
X545077Y363786D01*
X545051Y363980D01*
X545026Y364200D01*
X545013Y364433D01*
X545000Y364679D01*
Y364939D01*
Y370120D01*
X546191D01*
Y364939D01*
Y364925D01*
Y364887D01*
Y364822D01*
Y364744D01*
X546204Y364654D01*
Y364537D01*
X546217Y364291D01*
X546243Y364006D01*
X546282Y363721D01*
X546334Y363449D01*
X546360Y363332D01*
X546399Y363216D01*
X546412Y363190D01*
X546438Y363125D01*
X546502Y363034D01*
X546580Y362905D01*
X546671Y362775D01*
X546800Y362633D01*
X546956Y362490D01*
X547137Y362374D01*
X547163Y362361D01*
X547228Y362322D01*
X547344Y362283D01*
X547500Y362231D01*
X547681Y362166D01*
X547914Y362127D01*
X548161Y362089D01*
X548433Y362076D01*
X548562D01*
X548640Y362089D01*
X548756D01*
X548873Y362102D01*
X549158Y362153D01*
X549469Y362218D01*
X549767Y362322D01*
X550052Y362464D01*
X550181Y362555D01*
X550298Y362659D01*
X550311Y362672D01*
X550324Y362685D01*
X550350Y362723D01*
X550389Y362775D01*
X550427Y362853D01*
X550479Y362931D01*
X550531Y363047D01*
X550583Y363164D01*
X550635Y363306D01*
X550673Y363475D01*
X550725Y363669D01*
X550764Y363876D01*
X550803Y364109D01*
X550829Y364356D01*
X550855Y364641D01*
Y364939D01*
Y370120D01*
X552047D01*
Y364939D01*
D02*
G37*
G36*
X571659Y361156D02*
X570558D01*
Y368164D01*
X570545Y368151D01*
X570480Y368099D01*
X570402Y368022D01*
X570273Y367931D01*
X570131Y367814D01*
X569949Y367685D01*
X569742Y367542D01*
X569509Y367400D01*
X569496D01*
X569483Y367387D01*
X569405Y367335D01*
X569276Y367270D01*
X569120Y367192D01*
X568939Y367102D01*
X568744Y367011D01*
X568550Y366920D01*
X568356Y366843D01*
Y367905D01*
X568369D01*
X568395Y367931D01*
X568446Y367944D01*
X568511Y367983D01*
X568589Y368022D01*
X568680Y368073D01*
X568900Y368203D01*
X569159Y368345D01*
X569418Y368527D01*
X569690Y368734D01*
X569962Y368954D01*
X569975Y368967D01*
X569988Y368980D01*
X570027Y369019D01*
X570079Y369058D01*
X570195Y369187D01*
X570351Y369343D01*
X570506Y369524D01*
X570675Y369731D01*
X570817Y369939D01*
X570947Y370159D01*
X571659D01*
Y361156D01*
D02*
G37*
G36*
X563731Y370146D02*
X563900Y370120D01*
X564094Y370081D01*
X564301Y370029D01*
X564521Y369965D01*
X564729Y369861D01*
X564742D01*
X564754Y369848D01*
X564819Y369809D01*
X564923Y369744D01*
X565052Y369654D01*
X565195Y369524D01*
X565350Y369382D01*
X565493Y369213D01*
X565635Y369019D01*
X565648Y368993D01*
X565700Y368928D01*
X565752Y368812D01*
X565843Y368643D01*
X565920Y368449D01*
X566024Y368229D01*
X566115Y367970D01*
X566192Y367685D01*
Y367672D01*
X566205Y367646D01*
X566218Y367607D01*
X566231Y367542D01*
X566244Y367464D01*
X566257Y367374D01*
X566283Y367257D01*
X566296Y367128D01*
X566322Y366985D01*
X566335Y366830D01*
X566348Y366648D01*
X566374Y366467D01*
X566387Y366260D01*
Y366053D01*
X566400Y365819D01*
Y365573D01*
Y365560D01*
Y365508D01*
Y365418D01*
Y365314D01*
X566387Y365172D01*
Y365016D01*
X566374Y364848D01*
X566361Y364666D01*
X566322Y364252D01*
X566257Y363824D01*
X566180Y363410D01*
X566128Y363216D01*
X566063Y363021D01*
Y363008D01*
X566050Y362982D01*
X566024Y362931D01*
X565998Y362866D01*
X565972Y362775D01*
X565920Y362685D01*
X565817Y362464D01*
X565687Y362231D01*
X565519Y361972D01*
X565325Y361739D01*
X565091Y361519D01*
X565078D01*
X565065Y361493D01*
X565027Y361467D01*
X564975Y361441D01*
X564910Y361402D01*
X564845Y361350D01*
X564651Y361260D01*
X564418Y361169D01*
X564146Y361078D01*
X563822Y361026D01*
X563472Y361001D01*
X563343D01*
X563252Y361013D01*
X563148Y361026D01*
X563019Y361052D01*
X562876Y361078D01*
X562721Y361117D01*
X562565Y361169D01*
X562397Y361221D01*
X562229Y361298D01*
X562060Y361389D01*
X561892Y361493D01*
X561723Y361622D01*
X561568Y361765D01*
X561425Y361920D01*
X561412Y361933D01*
X561386Y361972D01*
X561348Y362037D01*
X561283Y362140D01*
X561218Y362257D01*
X561153Y362412D01*
X561063Y362594D01*
X560985Y362801D01*
X560907Y363034D01*
X560830Y363306D01*
X560752Y363604D01*
X560687Y363941D01*
X560622Y364304D01*
X560583Y364692D01*
X560558Y365120D01*
X560545Y365573D01*
Y365586D01*
Y365638D01*
Y365729D01*
Y365832D01*
X560558Y365975D01*
Y366130D01*
X560570Y366299D01*
X560583Y366493D01*
X560622Y366894D01*
X560687Y367322D01*
X560765Y367749D01*
X560816Y367944D01*
X560868Y368138D01*
Y368151D01*
X560881Y368177D01*
X560907Y368229D01*
X560933Y368294D01*
X560959Y368384D01*
X561011Y368475D01*
X561115Y368695D01*
X561244Y368928D01*
X561412Y369174D01*
X561607Y369421D01*
X561840Y369628D01*
X561853D01*
X561866Y369654D01*
X561905Y369680D01*
X561956Y369706D01*
X562021Y369757D01*
X562099Y369796D01*
X562293Y369900D01*
X562527Y369991D01*
X562799Y370081D01*
X563122Y370133D01*
X563472Y370159D01*
X563589D01*
X563731Y370146D01*
D02*
G37*
%LPC*%
G36*
X87157Y27252D02*
X87079D01*
X87027Y27239D01*
X86885Y27213D01*
X86716Y27174D01*
X86522Y27096D01*
X86315Y26980D01*
X86211Y26902D01*
X86107Y26824D01*
X86017Y26721D01*
X85926Y26604D01*
Y26591D01*
X85900Y26565D01*
X85874Y26513D01*
X85835Y26449D01*
X85796Y26345D01*
X85745Y26228D01*
X85706Y26086D01*
X85654Y25917D01*
X85602Y25723D01*
X85550Y25503D01*
X85499Y25257D01*
X85460Y24985D01*
X85421Y24674D01*
X85395Y24337D01*
X85382Y23974D01*
X85369Y23573D01*
Y23547D01*
Y23482D01*
Y23365D01*
X85382Y23210D01*
Y23042D01*
X85395Y22834D01*
X85408Y22614D01*
X85434Y22381D01*
X85499Y21876D01*
X85537Y21630D01*
X85589Y21397D01*
X85641Y21176D01*
X85719Y20969D01*
X85796Y20788D01*
X85887Y20632D01*
Y20619D01*
X85913Y20606D01*
X85978Y20516D01*
X86095Y20399D01*
X86237Y20269D01*
X86431Y20140D01*
X86651Y20023D01*
X86898Y19933D01*
X87027Y19920D01*
X87170Y19907D01*
X87247D01*
X87299Y19920D01*
X87429Y19946D01*
X87610Y19998D01*
X87804Y20088D01*
X88025Y20218D01*
X88128Y20295D01*
X88232Y20399D01*
X88336Y20503D01*
X88439Y20632D01*
Y20645D01*
X88465Y20671D01*
X88491Y20710D01*
X88517Y20775D01*
X88569Y20865D01*
X88608Y20982D01*
X88659Y21112D01*
X88711Y21267D01*
X88750Y21461D01*
X88802Y21669D01*
X88854Y21915D01*
X88892Y22174D01*
X88918Y22485D01*
X88944Y22808D01*
X88970Y23171D01*
Y23573D01*
Y23586D01*
Y23599D01*
Y23663D01*
Y23780D01*
X88957Y23935D01*
Y24104D01*
X88944Y24311D01*
X88931Y24531D01*
X88905Y24778D01*
X88841Y25270D01*
X88802Y25516D01*
X88750Y25749D01*
X88698Y25969D01*
X88621Y26177D01*
X88543Y26358D01*
X88452Y26513D01*
Y26526D01*
X88426Y26539D01*
X88400Y26578D01*
X88361Y26630D01*
X88245Y26746D01*
X88102Y26889D01*
X87908Y27018D01*
X87688Y27135D01*
X87571Y27187D01*
X87442Y27226D01*
X87299Y27239D01*
X87157Y27252D01*
D02*
G37*
G36*
X80187D02*
X80110D01*
X80058Y27239D01*
X79915Y27213D01*
X79747Y27174D01*
X79553Y27096D01*
X79345Y26980D01*
X79242Y26902D01*
X79138Y26824D01*
X79047Y26721D01*
X78957Y26604D01*
Y26591D01*
X78931Y26565D01*
X78905Y26513D01*
X78866Y26449D01*
X78827Y26345D01*
X78776Y26228D01*
X78737Y26086D01*
X78685Y25917D01*
X78633Y25723D01*
X78581Y25503D01*
X78529Y25257D01*
X78491Y24985D01*
X78452Y24674D01*
X78426Y24337D01*
X78413Y23974D01*
X78400Y23573D01*
Y23547D01*
Y23482D01*
Y23365D01*
X78413Y23210D01*
Y23042D01*
X78426Y22834D01*
X78439Y22614D01*
X78465Y22381D01*
X78529Y21876D01*
X78568Y21630D01*
X78620Y21397D01*
X78672Y21176D01*
X78750Y20969D01*
X78827Y20788D01*
X78918Y20632D01*
Y20619D01*
X78944Y20606D01*
X79009Y20516D01*
X79125Y20399D01*
X79268Y20269D01*
X79462Y20140D01*
X79682Y20023D01*
X79928Y19933D01*
X80058Y19920D01*
X80200Y19907D01*
X80278D01*
X80330Y19920D01*
X80459Y19946D01*
X80641Y19998D01*
X80835Y20088D01*
X81055Y20218D01*
X81159Y20295D01*
X81263Y20399D01*
X81366Y20503D01*
X81470Y20632D01*
Y20645D01*
X81496Y20671D01*
X81522Y20710D01*
X81548Y20775D01*
X81599Y20865D01*
X81638Y20982D01*
X81690Y21112D01*
X81742Y21267D01*
X81781Y21461D01*
X81833Y21669D01*
X81884Y21915D01*
X81923Y22174D01*
X81949Y22485D01*
X81975Y22808D01*
X82001Y23171D01*
Y23573D01*
Y23586D01*
Y23599D01*
Y23663D01*
Y23780D01*
X81988Y23935D01*
Y24104D01*
X81975Y24311D01*
X81962Y24531D01*
X81936Y24778D01*
X81872Y25270D01*
X81833Y25516D01*
X81781Y25749D01*
X81729Y25969D01*
X81651Y26177D01*
X81573Y26358D01*
X81483Y26513D01*
Y26526D01*
X81457Y26539D01*
X81431Y26578D01*
X81392Y26630D01*
X81276Y26746D01*
X81133Y26889D01*
X80939Y27018D01*
X80719Y27135D01*
X80602Y27187D01*
X80472Y27226D01*
X80330Y27239D01*
X80187Y27252D01*
D02*
G37*
G36*
X563459Y369252D02*
X563381D01*
X563330Y369239D01*
X563187Y369213D01*
X563019Y369174D01*
X562824Y369097D01*
X562617Y368980D01*
X562514Y368902D01*
X562410Y368825D01*
X562319Y368721D01*
X562229Y368605D01*
Y368591D01*
X562203Y368566D01*
X562177Y368514D01*
X562138Y368449D01*
X562099Y368345D01*
X562047Y368229D01*
X562008Y368086D01*
X561956Y367918D01*
X561905Y367724D01*
X561853Y367503D01*
X561801Y367257D01*
X561762Y366985D01*
X561723Y366674D01*
X561697Y366338D01*
X561684Y365975D01*
X561671Y365573D01*
Y365547D01*
Y365483D01*
Y365366D01*
X561684Y365210D01*
Y365042D01*
X561697Y364835D01*
X561710Y364615D01*
X561736Y364381D01*
X561801Y363876D01*
X561840Y363630D01*
X561892Y363397D01*
X561944Y363177D01*
X562021Y362970D01*
X562099Y362788D01*
X562190Y362633D01*
Y362620D01*
X562216Y362607D01*
X562280Y362516D01*
X562397Y362399D01*
X562539Y362270D01*
X562734Y362140D01*
X562954Y362024D01*
X563200Y361933D01*
X563330Y361920D01*
X563472Y361907D01*
X563550D01*
X563602Y361920D01*
X563731Y361946D01*
X563913Y361998D01*
X564107Y362089D01*
X564327Y362218D01*
X564431Y362296D01*
X564534Y362399D01*
X564638Y362503D01*
X564742Y362633D01*
Y362646D01*
X564767Y362672D01*
X564793Y362710D01*
X564819Y362775D01*
X564871Y362866D01*
X564910Y362982D01*
X564962Y363112D01*
X565014Y363267D01*
X565052Y363462D01*
X565104Y363669D01*
X565156Y363915D01*
X565195Y364174D01*
X565221Y364485D01*
X565247Y364809D01*
X565273Y365172D01*
Y365573D01*
Y365586D01*
Y365599D01*
Y365664D01*
Y365780D01*
X565260Y365936D01*
Y366104D01*
X565247Y366312D01*
X565234Y366532D01*
X565208Y366778D01*
X565143Y367270D01*
X565104Y367516D01*
X565052Y367749D01*
X565001Y367970D01*
X564923Y368177D01*
X564845Y368358D01*
X564754Y368514D01*
Y368527D01*
X564729Y368540D01*
X564703Y368579D01*
X564664Y368630D01*
X564547Y368747D01*
X564405Y368890D01*
X564211Y369019D01*
X563990Y369136D01*
X563874Y369187D01*
X563744Y369226D01*
X563602Y369239D01*
X563459Y369252D01*
D02*
G37*
%LPD*%
D13*
X189500Y296000D02*
Y364000D01*
X105500D02*
X189500D01*
X105500Y296000D02*
Y364000D01*
Y296000D02*
X189500D01*
X75997Y115498D02*
Y156497D01*
Y115498D02*
X116997D01*
Y156497D01*
X75997D02*
X116997D01*
X329000Y187000D02*
X441000D01*
X329000D02*
Y293000D01*
X441000D01*
Y187000D02*
Y293000D01*
X136000Y380000D02*
X168000D01*
Y418000D01*
X136000D02*
X168000D01*
X136000Y380000D02*
Y418000D01*
X715000Y41000D02*
Y109000D01*
X765000D01*
Y41000D02*
Y109000D01*
X715000Y41000D02*
X765000D01*
X571000Y128500D02*
Y144500D01*
Y128500D02*
X605000D01*
Y144500D01*
X571000D02*
X605000D01*
X672000Y173500D02*
X762000D01*
Y421500D01*
X672000D02*
X762000D01*
X672000Y173500D02*
Y421500D01*
X764688Y199036D02*
X773188Y194179D01*
X764688Y199036D02*
X773311Y203964D01*
Y194179D02*
Y203964D01*
X497000Y36000D02*
Y114000D01*
Y36000D02*
X683000D01*
Y114000D01*
X497000D02*
X683000D01*
X515679Y24812D02*
X520536Y33312D01*
X525464Y24688D01*
X515679D02*
X525464D01*
X619000Y294500D02*
X661000D01*
X619000D02*
Y314500D01*
X661000D01*
Y294500D02*
Y314500D01*
X274497Y315000D02*
Y345000D01*
Y315000D02*
X340497D01*
Y345000D01*
X274497D02*
X340497D01*
X279000Y363500D02*
X341000D01*
Y431500D01*
X279000D02*
X341000D01*
X279000Y363500D02*
Y431500D01*
X129000Y131498D02*
X211000D01*
Y213498D01*
X129000D02*
X211000D01*
X129000Y131498D02*
Y213498D01*
X55000Y40000D02*
X107000D01*
Y10000D02*
Y40000D01*
X55000Y10000D02*
X107000D01*
X55000D02*
Y40000D01*
X478000Y37000D02*
X490000D01*
X478000Y9000D02*
Y37000D01*
Y9000D02*
X490000D01*
Y37000D01*
X523000Y145000D02*
Y157000D01*
X495000D02*
X523000D01*
X495000Y145000D02*
Y157000D01*
Y145000D02*
X523000D01*
X443503Y361000D02*
X505503D01*
Y429000D01*
X443503D02*
X505503D01*
X443503Y361000D02*
Y429000D01*
X225000Y339000D02*
X271000D01*
Y425000D01*
X225000D02*
X271000D01*
X225000Y339000D02*
Y425000D01*
X120000Y421000D02*
X132000D01*
X120000Y393000D02*
Y421000D01*
Y393000D02*
X132000D01*
Y421000D01*
X174000Y411000D02*
X186000D01*
X174000Y383000D02*
Y411000D01*
Y383000D02*
X186000D01*
Y411000D01*
X190000Y376000D02*
X220000D01*
Y424000D01*
X190000D02*
X220000D01*
X190000Y376000D02*
Y424000D01*
X48498Y337000D02*
X94497D01*
Y423000D01*
X48498D02*
X94497D01*
X48498Y337000D02*
Y423000D01*
X13495Y341000D02*
X43495D01*
Y389000D01*
X13495D02*
X43495D01*
X13495Y341000D02*
Y389000D01*
X52000Y296000D02*
X64000D01*
Y324000D01*
X52000D02*
X64000D01*
X52000Y296000D02*
Y324000D01*
X206000Y52000D02*
Y64000D01*
Y52000D02*
X234000D01*
Y64000D01*
X206000D02*
X234000D01*
X206000Y33000D02*
Y45000D01*
Y33000D02*
X234000D01*
Y45000D01*
X206000D02*
X234000D01*
X444074Y24000D02*
Y36000D01*
Y24000D02*
X472074D01*
Y36000D01*
X444074D02*
X472074D01*
X436000Y170000D02*
Y182000D01*
X408000D02*
X436000D01*
X408000Y170000D02*
Y182000D01*
Y170000D02*
X436000D01*
X481000Y174000D02*
X493000D01*
X481000Y146000D02*
Y174000D01*
Y146000D02*
X493000D01*
Y174000D01*
X598000Y152000D02*
X610000D01*
Y180000D01*
X598000D02*
X610000D01*
X598000Y152000D02*
Y180000D01*
X337000Y170000D02*
Y182000D01*
Y170000D02*
X365000D01*
Y182000D01*
X337000D02*
X365000D01*
X613000Y344000D02*
X625000D01*
Y372000D01*
X613000D02*
X625000D01*
X613000Y344000D02*
Y372000D01*
X568000Y152000D02*
Y164000D01*
Y152000D02*
X596000D01*
Y164000D01*
X568000D02*
X596000D01*
X93000Y160500D02*
X105000D01*
Y188500D01*
X93000D02*
X105000D01*
X93000Y160500D02*
Y188500D01*
X169000Y12000D02*
Y24000D01*
X141000D02*
X169000D01*
X141000Y12000D02*
Y24000D01*
Y12000D02*
X169000D01*
X371000Y81000D02*
Y93000D01*
Y81000D02*
X399000D01*
Y93000D01*
X371000D02*
X399000D01*
X559000Y423000D02*
X571000D01*
X559000Y395000D02*
Y423000D01*
Y395000D02*
X571000D01*
Y423000D01*
X536000Y373000D02*
Y385000D01*
X508000D02*
X536000D01*
X508000Y373000D02*
Y385000D01*
Y373000D02*
X536000D01*
X549000Y276000D02*
Y288000D01*
Y276000D02*
X577000D01*
Y288000D01*
X549000D02*
X577000D01*
X514000Y276000D02*
Y288000D01*
Y276000D02*
X542000D01*
Y288000D01*
X514000D02*
X542000D01*
X492000Y261000D02*
X504000D01*
X492000Y233000D02*
Y261000D01*
Y233000D02*
X504000D01*
Y261000D01*
X594000Y249000D02*
Y261000D01*
Y249000D02*
X622000D01*
Y261000D01*
X594000D02*
X622000D01*
X754000Y19000D02*
Y31000D01*
X726000D02*
X754000D01*
X726000Y19000D02*
Y31000D01*
Y19000D02*
X754000D01*
X770000Y112000D02*
X782000D01*
X770000Y84000D02*
Y112000D01*
Y84000D02*
X782000D01*
Y112000D01*
X730858Y138657D02*
X739343Y147142D01*
X730858Y138657D02*
X750657Y118858D01*
X759142Y127343D01*
X739343Y147142D02*
X759142Y127343D01*
X786000Y148000D02*
Y160000D01*
Y148000D02*
X814000D01*
Y160000D01*
X786000D02*
X814000D01*
X784000Y148000D02*
Y160000D01*
X756000D02*
X784000D01*
X756000Y148000D02*
Y160000D01*
Y148000D02*
X784000D01*
X577000Y8250D02*
Y24250D01*
X543000D02*
X577000D01*
X543000Y8250D02*
Y24250D01*
Y8250D02*
X577000D01*
X532000D02*
Y24250D01*
X498000D02*
X532000D01*
X498000Y8250D02*
Y24250D01*
Y8250D02*
X532000D01*
X511000Y125000D02*
Y141000D01*
Y125000D02*
X545000D01*
Y141000D01*
X511000D02*
X545000D01*
X664000Y131000D02*
Y147000D01*
X630000D02*
X664000D01*
X630000Y131000D02*
Y147000D01*
Y131000D02*
X664000D01*
X661000Y232000D02*
Y248000D01*
X627000D02*
X661000D01*
X627000Y232000D02*
Y248000D01*
Y232000D02*
X661000D01*
Y253000D02*
Y269000D01*
X627000D02*
X661000D01*
X627000Y253000D02*
Y269000D01*
Y253000D02*
X661000D01*
Y190000D02*
Y206000D01*
X627000D02*
X661000D01*
X627000Y190000D02*
Y206000D01*
Y190000D02*
X661000D01*
X777000Y229000D02*
X809000D01*
Y199000D02*
Y229000D01*
X777000Y199000D02*
X809000D01*
X777000D02*
Y229000D01*
X661000Y211000D02*
Y227000D01*
X627000D02*
X661000D01*
X627000Y211000D02*
Y227000D01*
Y211000D02*
X661000D01*
Y275000D02*
Y291000D01*
X627000D02*
X661000D01*
X627000Y275000D02*
Y291000D01*
Y275000D02*
X661000D01*
Y169000D02*
Y185000D01*
X627000D02*
X661000D01*
X627000Y169000D02*
Y185000D01*
Y169000D02*
X661000D01*
X796000Y385000D02*
X812000D01*
X796000Y351000D02*
Y385000D01*
Y351000D02*
X812000D01*
Y385000D01*
X661000Y378000D02*
Y394000D01*
X627000D02*
X661000D01*
X627000Y378000D02*
Y394000D01*
Y378000D02*
X661000D01*
X775000Y385000D02*
X791000D01*
X775000Y351000D02*
Y385000D01*
Y351000D02*
X791000D01*
Y385000D01*
X646000Y372000D02*
X662000D01*
X646000Y338000D02*
Y372000D01*
Y338000D02*
X662000D01*
Y372000D01*
X661000Y399000D02*
Y415000D01*
X627000D02*
X661000D01*
X627000Y399000D02*
Y415000D01*
Y399000D02*
X661000D01*
X597000Y324500D02*
X613000D01*
X597000Y290500D02*
Y324500D01*
Y290500D02*
X613000D01*
Y324500D01*
X243000Y56000D02*
X259000D01*
Y90000D01*
X243000D02*
X259000D01*
X243000Y56000D02*
Y90000D01*
X264000D02*
X280000D01*
X264000Y56000D02*
Y90000D01*
Y56000D02*
X280000D01*
Y90000D01*
X243000Y47000D02*
X259000D01*
X243000Y13000D02*
Y47000D01*
Y13000D02*
X259000D01*
Y47000D01*
X264000Y13000D02*
X280000D01*
Y47000D01*
X264000D02*
X280000D01*
X264000Y13000D02*
Y47000D01*
X434500Y342000D02*
Y410000D01*
X350500D02*
X434500D01*
X350500Y342000D02*
Y410000D01*
Y342000D02*
X434500D01*
X514000Y160000D02*
Y190000D01*
Y160000D02*
X548000D01*
Y190000D01*
X514000D02*
X548000D01*
X651000Y419000D02*
Y431000D01*
X627000D02*
X651000D01*
X627000Y419000D02*
Y431000D01*
Y419000D02*
X651000D01*
X235000Y302000D02*
X265000D01*
X235000D02*
Y318000D01*
X265000D01*
Y302000D02*
Y318000D01*
X202000Y317000D02*
Y347000D01*
X218000D01*
Y317000D02*
Y347000D01*
X202000Y317000D02*
X218000D01*
X84000Y295000D02*
Y325000D01*
X68000Y295000D02*
X84000D01*
X68000D02*
Y325000D01*
X84000D01*
X297000Y76000D02*
X309000D01*
X297000Y52000D02*
Y76000D01*
Y52000D02*
X309000D01*
Y76000D01*
X237000Y66500D02*
Y78500D01*
X213000D02*
X237000D01*
X213000Y66500D02*
Y78500D01*
Y66500D02*
X237000D01*
X283000Y52000D02*
X295000D01*
Y76000D01*
X283000D02*
X295000D01*
X283000Y52000D02*
Y76000D01*
X299000Y12000D02*
X311000D01*
Y36000D01*
X299000D02*
X311000D01*
X299000Y12000D02*
Y36000D01*
X237000Y18500D02*
Y30500D01*
X213000D02*
X237000D01*
X213000Y18500D02*
Y30500D01*
Y18500D02*
X237000D01*
X283000Y36000D02*
X295000D01*
X283000Y12000D02*
Y36000D01*
Y12000D02*
X295000D01*
Y36000D01*
X445074Y39000D02*
Y51000D01*
Y39000D02*
X469074D01*
Y51000D01*
X445074D02*
X469074D01*
X469000Y9997D02*
Y21997D01*
X445000D02*
X469000D01*
X445000Y9997D02*
Y21997D01*
Y9997D02*
X469000D01*
X450000Y171000D02*
X462000D01*
X450000Y147000D02*
Y171000D01*
Y147000D02*
X462000D01*
Y171000D01*
X496000Y187000D02*
X508000D01*
X496000Y163000D02*
Y187000D01*
Y163000D02*
X508000D01*
Y187000D01*
X293000Y183000D02*
Y195000D01*
Y183000D02*
X317000D01*
Y195000D01*
X293000D02*
X317000D01*
X554000Y183000D02*
X566000D01*
X554000Y159000D02*
Y183000D01*
Y159000D02*
X566000D01*
Y183000D01*
X304000Y136000D02*
Y148000D01*
Y136000D02*
X328000D01*
Y148000D01*
X304000D02*
X328000D01*
X340000Y151000D02*
Y163000D01*
X316000D02*
X340000D01*
X316000Y151000D02*
Y163000D01*
Y151000D02*
X340000D01*
X158003Y75500D02*
X170002D01*
X158003Y51500D02*
Y75500D01*
Y51500D02*
X170002D01*
Y75500D01*
X144000Y51500D02*
X156000D01*
Y75500D01*
X144000D02*
X156000D01*
X144000Y51500D02*
Y75500D01*
X143000Y27000D02*
Y39000D01*
Y27000D02*
X167000D01*
Y39000D01*
X143000D02*
X167000D01*
X138000Y12000D02*
Y24000D01*
X114000D02*
X138000D01*
X114000Y12000D02*
Y24000D01*
Y12000D02*
X138000D01*
X304000Y122000D02*
Y134000D01*
Y122000D02*
X328000D01*
Y134000D01*
X304000D02*
X328000D01*
X586000Y391000D02*
X598000D01*
X586000Y367000D02*
Y391000D01*
Y367000D02*
X598000D01*
Y391000D01*
X563000Y345000D02*
Y357000D01*
X539000D02*
X563000D01*
X539000Y345000D02*
Y357000D01*
Y345000D02*
X563000D01*
X573000Y396000D02*
X585000D01*
Y420000D01*
X573000D02*
X585000D01*
X573000Y396000D02*
Y420000D01*
X545000Y396000D02*
X557000D01*
Y420000D01*
X545000D02*
X557000D01*
X545000Y396000D02*
Y420000D01*
X511000Y387000D02*
Y399000D01*
Y387000D02*
X535000D01*
Y399000D01*
X511000D02*
X535000D01*
X507500Y215000D02*
Y227000D01*
X483500D02*
X507500D01*
X483500Y215000D02*
Y227000D01*
Y215000D02*
X507500D01*
X578000Y234000D02*
Y246000D01*
X554000D02*
X578000D01*
X554000Y234000D02*
Y246000D01*
Y234000D02*
X578000D01*
X560000Y220000D02*
X584000D01*
X560000D02*
Y232000D01*
X584000D01*
Y220000D02*
Y232000D01*
X559000Y249000D02*
X571000D01*
Y273000D01*
X559000D02*
X571000D01*
X559000Y249000D02*
Y273000D01*
X588000Y225000D02*
Y237000D01*
Y225000D02*
X612000D01*
Y237000D01*
X588000D02*
X612000D01*
X723000Y128000D02*
Y140000D01*
X699000D02*
X723000D01*
X699000Y128000D02*
Y140000D01*
Y128000D02*
X723000D01*
X800000Y162000D02*
Y174000D01*
X776000D02*
X800000D01*
X776000Y162000D02*
Y174000D01*
Y162000D02*
X800000D01*
X697000Y124000D02*
X709000D01*
X697000Y100000D02*
Y124000D01*
Y100000D02*
X709000D01*
Y124000D01*
X351000Y99000D02*
X419000D01*
X351000D02*
Y149000D01*
X419000D01*
Y99000D02*
Y149000D01*
X542000Y360000D02*
Y392001D01*
Y360000D02*
X580000D01*
Y392001D01*
X542000D02*
X580000D01*
X549000Y220000D02*
Y270000D01*
X515000Y220000D02*
X549000D01*
X515000D02*
Y270000D01*
X549000D01*
X635500Y8250D02*
Y24250D01*
Y8250D02*
X669500D01*
Y24250D01*
X635500D02*
X669500D01*
X311189Y366500D02*
Y376497D01*
X306191Y371498D02*
X316187D01*
X475691Y364000D02*
Y373997D01*
X470693Y368998D02*
X480690D01*
D15*
X143200Y333199D02*
Y327200D01*
X146628D01*
X147285Y332056D02*
X147856Y332342D01*
X148713Y333199D01*
Y327200D01*
X153398Y333199D02*
X152541Y332913D01*
X151969Y332056D01*
X151684Y330628D01*
Y329771D01*
X151969Y328343D01*
X152541Y327486D01*
X153398Y327200D01*
X153969D01*
X154826Y327486D01*
X155397Y328343D01*
X155683Y329771D01*
Y330628D01*
X155397Y332056D01*
X154826Y332913D01*
X153969Y333199D01*
X153398D01*
X157026Y332056D02*
X157597Y332342D01*
X158454Y333199D01*
Y327200D01*
X87200Y138199D02*
Y132200D01*
X90628D01*
X91571Y136770D02*
Y137056D01*
X91856Y137627D01*
X92142Y137913D01*
X92713Y138199D01*
X93856D01*
X94427Y137913D01*
X94713Y137627D01*
X94998Y137056D01*
Y136485D01*
X94713Y135913D01*
X94141Y135056D01*
X91285Y132200D01*
X95284D01*
X98340Y138199D02*
X97484Y137913D01*
X96912Y137056D01*
X96627Y135628D01*
Y134771D01*
X96912Y133343D01*
X97484Y132486D01*
X98340Y132200D01*
X98912D01*
X99769Y132486D01*
X100340Y133343D01*
X100626Y134771D01*
Y135628D01*
X100340Y137056D01*
X99769Y137913D01*
X98912Y138199D01*
X98340D01*
X103682D02*
X102825Y137913D01*
X102254Y137056D01*
X101968Y135628D01*
Y134771D01*
X102254Y133343D01*
X102825Y132486D01*
X103682Y132200D01*
X104253D01*
X105110Y132486D01*
X105682Y133343D01*
X105967Y134771D01*
Y135628D01*
X105682Y137056D01*
X105110Y137913D01*
X104253Y138199D01*
X103682D01*
X429200Y200056D02*
X429771Y200342D01*
X430628Y201199D01*
Y195200D01*
X377388Y243949D02*
Y239664D01*
X377673Y238807D01*
X378244Y238236D01*
X379101Y237950D01*
X379673D01*
X380530Y238236D01*
X381101Y238807D01*
X381387Y239664D01*
Y243949D01*
X383043Y242806D02*
X383615Y243092D01*
X384472Y243949D01*
Y237950D01*
X389156Y243949D02*
X388299Y243663D01*
X387728Y242806D01*
X387443Y241378D01*
Y240521D01*
X387728Y239093D01*
X388299Y238236D01*
X389156Y237950D01*
X389728D01*
X390585Y238236D01*
X391156Y239093D01*
X391442Y240521D01*
Y241378D01*
X391156Y242806D01*
X390585Y243663D01*
X389728Y243949D01*
X389156D01*
X395641D02*
X392784Y239950D01*
X397069D01*
X395641Y243949D02*
Y237950D01*
X140944Y384200D02*
X140658Y384771D01*
X139801Y385628D01*
X145800D01*
X143200Y408199D02*
Y403914D01*
X143486Y403057D01*
X144057Y402486D01*
X144914Y402200D01*
X145485D01*
X146342Y402486D01*
X146913Y403057D01*
X147199Y403914D01*
Y408199D01*
X148856Y407056D02*
X149427Y407342D01*
X150284Y408199D01*
Y402200D01*
X154969Y408199D02*
X154112Y407913D01*
X153541Y407056D01*
X153255Y405628D01*
Y404771D01*
X153541Y403343D01*
X154112Y402486D01*
X154969Y402200D01*
X155540D01*
X156397Y402486D01*
X156968Y403343D01*
X157254Y404771D01*
Y405628D01*
X156968Y407056D01*
X156397Y407913D01*
X155540Y408199D01*
X154969D01*
X160311D02*
X159454Y407913D01*
X158882Y407056D01*
X158597Y405628D01*
Y404771D01*
X158882Y403343D01*
X159454Y402486D01*
X160311Y402200D01*
X160882D01*
X161739Y402486D01*
X162310Y403343D01*
X162596Y404771D01*
Y405628D01*
X162310Y407056D01*
X161739Y407913D01*
X160882Y408199D01*
X160311D01*
X721200Y51056D02*
X721771Y51342D01*
X722628Y52199D01*
Y46200D01*
X731200Y76199D02*
Y71914D01*
X731486Y71057D01*
X732057Y70486D01*
X732914Y70200D01*
X733485D01*
X734342Y70486D01*
X734913Y71057D01*
X735199Y71914D01*
Y76199D01*
X739712D02*
X736856Y72200D01*
X741141D01*
X739712Y76199D02*
Y70200D01*
X743912Y76199D02*
X743055Y75913D01*
X742483Y75056D01*
X742198Y73628D01*
Y72771D01*
X742483Y71343D01*
X743055Y70486D01*
X743912Y70200D01*
X744483D01*
X745340Y70486D01*
X745911Y71343D01*
X746197Y72771D01*
Y73628D01*
X745911Y75056D01*
X745340Y75913D01*
X744483Y76199D01*
X743912D01*
X747825Y74770D02*
Y75056D01*
X748111Y75627D01*
X748396Y75913D01*
X748968Y76199D01*
X750110D01*
X750682Y75913D01*
X750967Y75627D01*
X751253Y75056D01*
Y74485D01*
X750967Y73913D01*
X750396Y73057D01*
X747539Y70200D01*
X751538D01*
X583000Y139999D02*
Y134000D01*
Y139999D02*
X585000D01*
X585857Y139713D01*
X586428Y139142D01*
X586713Y138570D01*
X586999Y137713D01*
Y136285D01*
X586713Y135428D01*
X586428Y134857D01*
X585857Y134286D01*
X585000Y134000D01*
X583000D01*
X588342Y138856D02*
X588913Y139142D01*
X589770Y139999D01*
Y134000D01*
X592741Y138856D02*
X593312Y139142D01*
X594169Y139999D01*
Y134000D01*
X598854Y139999D02*
X597997Y139713D01*
X597425Y138856D01*
X597140Y137428D01*
Y136571D01*
X597425Y135143D01*
X597997Y134286D01*
X598854Y134000D01*
X599425D01*
X600282Y134286D01*
X600853Y135143D01*
X601139Y136571D01*
Y137428D01*
X600853Y138856D01*
X600282Y139713D01*
X599425Y139999D01*
X598854D01*
X750700Y202306D02*
X751271Y202592D01*
X752128Y203449D01*
Y197450D01*
X705700Y303449D02*
X709699Y297450D01*
Y303449D02*
X705700Y297450D01*
X711042Y302306D02*
X711613Y302592D01*
X712470Y303449D01*
Y297450D01*
X717155Y303449D02*
X716298Y303163D01*
X715726Y302306D01*
X715441Y300878D01*
Y300021D01*
X715726Y298593D01*
X716298Y297736D01*
X717155Y297450D01*
X717726D01*
X718583Y297736D01*
X719154Y298593D01*
X719440Y300021D01*
Y300878D01*
X719154Y302306D01*
X718583Y303163D01*
X717726Y303449D01*
X717155D01*
X720782Y302306D02*
X721354Y302592D01*
X722211Y303449D01*
Y297450D01*
X514200Y49056D02*
X514771Y49342D01*
X515628Y50199D01*
Y44200D01*
X582450Y70949D02*
X586449Y64950D01*
Y70949D02*
X582450Y64950D01*
X587792Y69806D02*
X588363Y70092D01*
X589220Y70949D01*
Y64950D01*
X593905Y70949D02*
X593048Y70663D01*
X592476Y69806D01*
X592191Y68378D01*
Y67521D01*
X592476Y66093D01*
X593048Y65236D01*
X593905Y64950D01*
X594476D01*
X595333Y65236D01*
X595904Y66093D01*
X596190Y67521D01*
Y68378D01*
X595904Y69806D01*
X595333Y70663D01*
X594476Y70949D01*
X593905D01*
X599246D02*
X598389Y70663D01*
X597818Y69806D01*
X597532Y68378D01*
Y67521D01*
X597818Y66093D01*
X598389Y65236D01*
X599246Y64950D01*
X599818D01*
X600675Y65236D01*
X601246Y66093D01*
X601532Y67521D01*
Y68378D01*
X601246Y69806D01*
X600675Y70663D01*
X599818Y70949D01*
X599246D01*
X237200Y230056D02*
X237771Y230342D01*
X238628Y231199D01*
Y225200D01*
X240200Y216199D02*
X244199Y210200D01*
Y216199D02*
X240200Y210200D01*
X245827Y214770D02*
Y215056D01*
X246113Y215627D01*
X246399Y215913D01*
X246970Y216199D01*
X248113D01*
X248684Y215913D01*
X248969Y215627D01*
X249255Y215056D01*
Y214485D01*
X248969Y213913D01*
X248398Y213057D01*
X245542Y210200D01*
X249541D01*
X252597Y216199D02*
X251740Y215913D01*
X251169Y215056D01*
X250883Y213628D01*
Y212771D01*
X251169Y211343D01*
X251740Y210486D01*
X252597Y210200D01*
X253169D01*
X254026Y210486D01*
X254597Y211343D01*
X254883Y212771D01*
Y213628D01*
X254597Y215056D01*
X254026Y215913D01*
X253169Y216199D01*
X252597D01*
X256225Y215056D02*
X256796Y215342D01*
X257653Y216199D01*
Y210200D01*
X24000Y271856D02*
X24571Y272142D01*
X25428Y272999D01*
Y267000D01*
X16000Y286999D02*
X19999Y281000D01*
Y286999D02*
X16000Y281000D01*
X21627Y285570D02*
Y285856D01*
X21913Y286427D01*
X22199Y286713D01*
X22770Y286999D01*
X23913D01*
X24484Y286713D01*
X24769Y286427D01*
X25055Y285856D01*
Y285285D01*
X24769Y284713D01*
X24198Y283857D01*
X21342Y281000D01*
X25341D01*
X28397Y286999D02*
X27540Y286713D01*
X26969Y285856D01*
X26683Y284428D01*
Y283571D01*
X26969Y282143D01*
X27540Y281286D01*
X28397Y281000D01*
X28969D01*
X29826Y281286D01*
X30397Y282143D01*
X30682Y283571D01*
Y284428D01*
X30397Y285856D01*
X29826Y286713D01*
X28969Y286999D01*
X28397D01*
X33739D02*
X32882Y286713D01*
X32311Y285856D01*
X32025Y284428D01*
Y283571D01*
X32311Y282143D01*
X32882Y281286D01*
X33739Y281000D01*
X34310D01*
X35167Y281286D01*
X35739Y282143D01*
X36024Y283571D01*
Y284428D01*
X35739Y285856D01*
X35167Y286713D01*
X34310Y286999D01*
X33739D01*
X631200Y307199D02*
Y301200D01*
Y307199D02*
X634913D01*
X631200Y304342D02*
X633485D01*
X635599Y306056D02*
X636170Y306342D01*
X637027Y307199D01*
Y301200D01*
X641712Y307199D02*
X640855Y306913D01*
X640284Y306056D01*
X639998Y304628D01*
Y303771D01*
X640284Y302343D01*
X640855Y301486D01*
X641712Y301200D01*
X642283D01*
X643140Y301486D01*
X643712Y302343D01*
X643997Y303771D01*
Y304628D01*
X643712Y306056D01*
X643140Y306913D01*
X642283Y307199D01*
X641712D01*
X647054D02*
X646197Y306913D01*
X645626Y306056D01*
X645340Y304628D01*
Y303771D01*
X645626Y302343D01*
X646197Y301486D01*
X647054Y301200D01*
X647625D01*
X648482Y301486D01*
X649053Y302343D01*
X649339Y303771D01*
Y304628D01*
X649053Y306056D01*
X648482Y306913D01*
X647625Y307199D01*
X647054D01*
X112200Y85199D02*
X116199Y79200D01*
Y85199D02*
X112200Y79200D01*
X117827Y83770D02*
Y84056D01*
X118113Y84627D01*
X118399Y84913D01*
X118970Y85199D01*
X120113D01*
X120684Y84913D01*
X120969Y84627D01*
X121255Y84056D01*
Y83485D01*
X120969Y82914D01*
X120398Y82057D01*
X117542Y79200D01*
X121541D01*
X124597Y85199D02*
X123740Y84913D01*
X123169Y84056D01*
X122883Y82628D01*
Y81771D01*
X123169Y80343D01*
X123740Y79486D01*
X124597Y79200D01*
X125169D01*
X126026Y79486D01*
X126597Y80343D01*
X126882Y81771D01*
Y82628D01*
X126597Y84056D01*
X126026Y84913D01*
X125169Y85199D01*
X124597D01*
X128511Y83770D02*
Y84056D01*
X128796Y84627D01*
X129082Y84913D01*
X129653Y85199D01*
X130796D01*
X131367Y84913D01*
X131653Y84627D01*
X131939Y84056D01*
Y83485D01*
X131653Y82914D01*
X131082Y82057D01*
X128225Y79200D01*
X132224D01*
X299000Y332999D02*
Y327000D01*
Y332999D02*
X301000D01*
X301856Y332713D01*
X302428Y332142D01*
X302714Y331571D01*
X302999Y330714D01*
Y329285D01*
X302714Y328428D01*
X302428Y327857D01*
X301856Y327286D01*
X301000Y327000D01*
X299000D01*
X304342Y331856D02*
X304913Y332142D01*
X305770Y332999D01*
Y327000D01*
X309026Y331571D02*
Y331856D01*
X309312Y332427D01*
X309598Y332713D01*
X310169Y332999D01*
X311312D01*
X311883Y332713D01*
X312169Y332427D01*
X312454Y331856D01*
Y331285D01*
X312169Y330714D01*
X311597Y329856D01*
X308741Y327000D01*
X312740D01*
X317796Y330999D02*
X317510Y330142D01*
X316939Y329571D01*
X316082Y329285D01*
X315796D01*
X314939Y329571D01*
X314368Y330142D01*
X314083Y330999D01*
Y331285D01*
X314368Y332142D01*
X314939Y332713D01*
X315796Y332999D01*
X316082D01*
X316939Y332713D01*
X317510Y332142D01*
X317796Y330999D01*
Y329571D01*
X317510Y328143D01*
X316939Y327286D01*
X316082Y327000D01*
X315511D01*
X314654Y327286D01*
X314368Y327857D01*
X313000Y423934D02*
X307858D01*
X306285Y397570D02*
X305999Y398142D01*
X305428Y398713D01*
X304856Y398999D01*
X303714D01*
X303143Y398713D01*
X302571Y398142D01*
X302286Y397570D01*
X302000Y396713D01*
Y395285D01*
X302286Y394428D01*
X302571Y393857D01*
X303143Y393286D01*
X303714Y393000D01*
X304856D01*
X305428Y393286D01*
X305999Y393857D01*
X306285Y394428D01*
X307970Y397856D02*
X308541Y398142D01*
X309398Y398999D01*
Y393000D01*
X312655Y397570D02*
Y397856D01*
X312941Y398427D01*
X313226Y398713D01*
X313797Y398999D01*
X314940D01*
X315511Y398713D01*
X315797Y398427D01*
X316083Y397856D01*
Y397285D01*
X315797Y396713D01*
X315226Y395857D01*
X312369Y393000D01*
X316368D01*
X321424Y396999D02*
X321139Y396142D01*
X320567Y395571D01*
X319711Y395285D01*
X319425D01*
X318568Y395571D01*
X317997Y396142D01*
X317711Y396999D01*
Y397285D01*
X317997Y398142D01*
X318568Y398713D01*
X319425Y398999D01*
X319711D01*
X320567Y398713D01*
X321139Y398142D01*
X321424Y396999D01*
Y395571D01*
X321139Y394143D01*
X320567Y393286D01*
X319711Y393000D01*
X319139D01*
X318282Y393286D01*
X317997Y393857D01*
X159950Y173449D02*
Y169164D01*
X160236Y168307D01*
X160807Y167736D01*
X161664Y167450D01*
X162235D01*
X163092Y167736D01*
X163663Y168307D01*
X163949Y169164D01*
Y173449D01*
X165891Y172020D02*
Y172306D01*
X166177Y172877D01*
X166463Y173163D01*
X167034Y173449D01*
X168177D01*
X168748Y173163D01*
X169034Y172877D01*
X169319Y172306D01*
Y171735D01*
X169034Y171164D01*
X168462Y170306D01*
X165606Y167450D01*
X169605D01*
X172661Y173449D02*
X171805Y173163D01*
X171233Y172306D01*
X170948Y170878D01*
Y170021D01*
X171233Y168593D01*
X171805Y167736D01*
X172661Y167450D01*
X173233D01*
X174090Y167736D01*
X174661Y168593D01*
X174947Y170021D01*
Y170878D01*
X174661Y172306D01*
X174090Y173163D01*
X173233Y173449D01*
X172661D01*
X178003D02*
X177146Y173163D01*
X176575Y172306D01*
X176289Y170878D01*
Y170021D01*
X176575Y168593D01*
X177146Y167736D01*
X178003Y167450D01*
X178575D01*
X179431Y167736D01*
X180003Y168593D01*
X180288Y170021D01*
Y170878D01*
X180003Y172306D01*
X179431Y173163D01*
X178575Y173449D01*
X178003D01*
X482430Y17285D02*
X481858Y16999D01*
X481287Y16428D01*
X481001Y15856D01*
Y14714D01*
X481287Y14143D01*
X481858Y13571D01*
X482430Y13286D01*
X483287Y13000D01*
X484715D01*
X485572Y13286D01*
X486143Y13571D01*
X486714Y14143D01*
X487000Y14714D01*
Y15856D01*
X486714Y16428D01*
X486143Y16999D01*
X485572Y17285D01*
X482144Y18970D02*
X481858Y19541D01*
X481001Y20398D01*
X487000D01*
X481001Y25083D02*
X481287Y24226D01*
X482144Y23655D01*
X483572Y23369D01*
X484429D01*
X485857Y23655D01*
X486714Y24226D01*
X487000Y25083D01*
Y25654D01*
X486714Y26511D01*
X485857Y27083D01*
X484429Y27368D01*
X483572D01*
X482144Y27083D01*
X481287Y26511D01*
X481001Y25654D01*
Y25083D01*
X482430Y28997D02*
X482144D01*
X481573Y29282D01*
X481287Y29568D01*
X481001Y30139D01*
Y31282D01*
X481287Y31853D01*
X481573Y32139D01*
X482144Y32424D01*
X482715D01*
X483287Y32139D01*
X484143Y31567D01*
X487000Y28711D01*
Y32710D01*
X503285Y152570D02*
X502999Y153142D01*
X502428Y153713D01*
X501856Y153999D01*
X500714D01*
X500143Y153713D01*
X499571Y153142D01*
X499286Y152570D01*
X499000Y151713D01*
Y150285D01*
X499286Y149428D01*
X499571Y148857D01*
X500143Y148286D01*
X500714Y148000D01*
X501856D01*
X502428Y148286D01*
X502999Y148857D01*
X503285Y149428D01*
X504970Y152856D02*
X505541Y153142D01*
X506398Y153999D01*
Y148000D01*
X511083Y153999D02*
X510226Y153713D01*
X509655Y152856D01*
X509369Y151428D01*
Y150571D01*
X509655Y149143D01*
X510226Y148286D01*
X511083Y148000D01*
X511654D01*
X512511Y148286D01*
X513083Y149143D01*
X513368Y150571D01*
Y151428D01*
X513083Y152856D01*
X512511Y153713D01*
X511654Y153999D01*
X511083D01*
X515282D02*
X518424D01*
X516710Y151713D01*
X517567D01*
X518139Y151428D01*
X518424Y151142D01*
X518710Y150285D01*
Y149714D01*
X518424Y148857D01*
X517853Y148286D01*
X516996Y148000D01*
X516139D01*
X515282Y148286D01*
X514996Y148571D01*
X514711Y149143D01*
X477502Y421434D02*
X472361D01*
X471285Y394571D02*
X470999Y395142D01*
X470428Y395713D01*
X469856Y395999D01*
X468714D01*
X468143Y395713D01*
X467571Y395142D01*
X467286Y394571D01*
X467000Y393713D01*
Y392285D01*
X467286Y391428D01*
X467571Y390857D01*
X468143Y390286D01*
X468714Y390000D01*
X469856D01*
X470428Y390286D01*
X470999Y390857D01*
X471285Y391428D01*
X472970Y394856D02*
X473541Y395142D01*
X474398Y395999D01*
Y390000D01*
X477655Y394571D02*
Y394856D01*
X477940Y395427D01*
X478226Y395713D01*
X478797Y395999D01*
X479940D01*
X480511Y395713D01*
X480797Y395427D01*
X481083Y394856D01*
Y394285D01*
X480797Y393713D01*
X480226Y392856D01*
X477369Y390000D01*
X481368D01*
X484139Y395999D02*
X483282Y395713D01*
X482996Y395142D01*
Y394571D01*
X483282Y393999D01*
X483853Y393713D01*
X484996Y393428D01*
X485853Y393142D01*
X486424Y392571D01*
X486710Y392000D01*
Y391143D01*
X486424Y390571D01*
X486139Y390286D01*
X485282Y390000D01*
X484139D01*
X483282Y390286D01*
X482996Y390571D01*
X482711Y391143D01*
Y392000D01*
X482996Y392571D01*
X483568Y393142D01*
X484425Y393428D01*
X485567Y393713D01*
X486139Y393999D01*
X486424Y394571D01*
Y395142D01*
X486139Y395713D01*
X485282Y395999D01*
X484139D01*
X244285Y377570D02*
X243999Y378142D01*
X243428Y378713D01*
X242857Y378999D01*
X241714D01*
X241143Y378713D01*
X240571Y378142D01*
X240286Y377570D01*
X240000Y376713D01*
Y375285D01*
X240286Y374428D01*
X240571Y373857D01*
X241143Y373286D01*
X241714Y373000D01*
X242857D01*
X243428Y373286D01*
X243999Y373857D01*
X244285Y374428D01*
X245970Y377856D02*
X246541Y378142D01*
X247398Y378999D01*
Y373000D01*
X250940Y378999D02*
X254083D01*
X252369Y376713D01*
X253226D01*
X253797Y376428D01*
X254083Y376142D01*
X254368Y375285D01*
Y374714D01*
X254083Y373857D01*
X253511Y373286D01*
X252654Y373000D01*
X251798D01*
X250940Y373286D01*
X250655Y373571D01*
X250369Y374143D01*
X255711Y377856D02*
X256282Y378142D01*
X257139Y378999D01*
Y373000D01*
X116285Y388570D02*
X115999Y389142D01*
X115428Y389713D01*
X114857Y389999D01*
X113714D01*
X113143Y389713D01*
X112571Y389142D01*
X112286Y388570D01*
X112000Y387714D01*
Y386285D01*
X112286Y385428D01*
X112571Y384857D01*
X113143Y384286D01*
X113714Y384000D01*
X114857D01*
X115428Y384286D01*
X115999Y384857D01*
X116285Y385428D01*
X117970Y388856D02*
X118541Y389142D01*
X119398Y389999D01*
Y384000D01*
X122941Y389999D02*
X126083D01*
X124369Y387714D01*
X125226D01*
X125797Y387428D01*
X126083Y387142D01*
X126368Y386285D01*
Y385714D01*
X126083Y384857D01*
X125511Y384286D01*
X124654Y384000D01*
X123798D01*
X122941Y384286D01*
X122655Y384571D01*
X122369Y385143D01*
X127997Y388570D02*
Y388856D01*
X128282Y389427D01*
X128568Y389713D01*
X129139Y389999D01*
X130282D01*
X130853Y389713D01*
X131139Y389427D01*
X131424Y388856D01*
Y388285D01*
X131139Y387714D01*
X130567Y386856D01*
X127711Y384000D01*
X131710D01*
X171285Y375570D02*
X170999Y376142D01*
X170428Y376713D01*
X169856Y376999D01*
X168714D01*
X168143Y376713D01*
X167571Y376142D01*
X167286Y375570D01*
X167000Y374714D01*
Y373285D01*
X167286Y372428D01*
X167571Y371857D01*
X168143Y371286D01*
X168714Y371000D01*
X169856D01*
X170428Y371286D01*
X170999Y371857D01*
X171285Y372428D01*
X172970Y375856D02*
X173541Y376142D01*
X174398Y376999D01*
Y371000D01*
X177941Y376999D02*
X181083D01*
X179369Y374714D01*
X180226D01*
X180797Y374428D01*
X181083Y374142D01*
X181368Y373285D01*
Y372714D01*
X181083Y371857D01*
X180511Y371286D01*
X179654Y371000D01*
X178797D01*
X177941Y371286D01*
X177655Y371571D01*
X177369Y372143D01*
X185567Y376999D02*
X182711Y373000D01*
X186996D01*
X185567Y376999D02*
Y371000D01*
X201285Y400570D02*
X200999Y401142D01*
X200428Y401713D01*
X199856Y401999D01*
X198714D01*
X198143Y401713D01*
X197571Y401142D01*
X197286Y400570D01*
X197000Y399714D01*
Y398285D01*
X197286Y397428D01*
X197571Y396857D01*
X198143Y396286D01*
X198714Y396000D01*
X199856D01*
X200428Y396286D01*
X200999Y396857D01*
X201285Y397428D01*
X202970Y400856D02*
X203542Y401142D01*
X204398Y401999D01*
Y396000D01*
X207941Y401999D02*
X211083D01*
X209369Y399714D01*
X210226D01*
X210797Y399428D01*
X211083Y399142D01*
X211368Y398285D01*
Y397714D01*
X211083Y396857D01*
X210511Y396286D01*
X209654Y396000D01*
X208797D01*
X207941Y396286D01*
X207655Y396571D01*
X207369Y397143D01*
X216139Y401999D02*
X213282D01*
X212997Y399428D01*
X213282Y399714D01*
X214139Y399999D01*
X214996D01*
X215853Y399714D01*
X216424Y399142D01*
X216710Y398285D01*
Y397714D01*
X216424Y396857D01*
X215853Y396286D01*
X214996Y396000D01*
X214139D01*
X213282Y396286D01*
X212997Y396571D01*
X212711Y397143D01*
X65285Y373570D02*
X64999Y374142D01*
X64428Y374713D01*
X63857Y374999D01*
X62714D01*
X62143Y374713D01*
X61571Y374142D01*
X61286Y373570D01*
X61000Y372714D01*
Y371285D01*
X61286Y370428D01*
X61571Y369857D01*
X62143Y369286D01*
X62714Y369000D01*
X63857D01*
X64428Y369286D01*
X64999Y369857D01*
X65285Y370428D01*
X66970Y373856D02*
X67541Y374142D01*
X68398Y374999D01*
Y369000D01*
X71940Y374999D02*
X75083D01*
X73369Y372714D01*
X74226D01*
X74797Y372428D01*
X75083Y372142D01*
X75368Y371285D01*
Y370714D01*
X75083Y369857D01*
X74511Y369286D01*
X73654Y369000D01*
X72797D01*
X71940Y369286D01*
X71655Y369571D01*
X71369Y370143D01*
X80139Y374142D02*
X79853Y374713D01*
X78996Y374999D01*
X78425D01*
X77568Y374713D01*
X76996Y373856D01*
X76711Y372428D01*
Y371000D01*
X76996Y369857D01*
X77568Y369286D01*
X78425Y369000D01*
X78710D01*
X79567Y369286D01*
X80139Y369857D01*
X80424Y370714D01*
Y371000D01*
X80139Y371856D01*
X79567Y372428D01*
X78710Y372714D01*
X78425D01*
X77568Y372428D01*
X76996Y371856D01*
X76711Y371000D01*
X22285Y373570D02*
X21999Y374142D01*
X21428Y374713D01*
X20856Y374999D01*
X19714D01*
X19143Y374713D01*
X18571Y374142D01*
X18286Y373570D01*
X18000Y372714D01*
Y371285D01*
X18286Y370428D01*
X18571Y369857D01*
X19143Y369286D01*
X19714Y369000D01*
X20856D01*
X21428Y369286D01*
X21999Y369857D01*
X22285Y370428D01*
X23970Y373856D02*
X24541Y374142D01*
X25398Y374999D01*
Y369000D01*
X28940Y374999D02*
X32083D01*
X30369Y372714D01*
X31226D01*
X31797Y372428D01*
X32083Y372142D01*
X32368Y371285D01*
Y370714D01*
X32083Y369857D01*
X31511Y369286D01*
X30654Y369000D01*
X29797D01*
X28940Y369286D01*
X28655Y369571D01*
X28369Y370143D01*
X37710Y374999D02*
X34853Y369000D01*
X33711Y374999D02*
X37710D01*
X46285Y289570D02*
X45999Y290142D01*
X45428Y290713D01*
X44857Y290999D01*
X43714D01*
X43143Y290713D01*
X42571Y290142D01*
X42286Y289570D01*
X42000Y288713D01*
Y287285D01*
X42286Y286428D01*
X42571Y285857D01*
X43143Y285286D01*
X43714Y285000D01*
X44857D01*
X45428Y285286D01*
X45999Y285857D01*
X46285Y286428D01*
X47970Y289856D02*
X48541Y290142D01*
X49398Y290999D01*
Y285000D01*
X52941Y290999D02*
X56083D01*
X54369Y288713D01*
X55226D01*
X55797Y288428D01*
X56083Y288142D01*
X56368Y287285D01*
Y286714D01*
X56083Y285857D01*
X55511Y285286D01*
X54654Y285000D01*
X53797D01*
X52941Y285286D01*
X52655Y285571D01*
X52369Y286143D01*
X59139Y290999D02*
X58282Y290713D01*
X57997Y290142D01*
Y289570D01*
X58282Y288999D01*
X58854Y288713D01*
X59996Y288428D01*
X60853Y288142D01*
X61424Y287571D01*
X61710Y287000D01*
Y286143D01*
X61424Y285571D01*
X61139Y285286D01*
X60282Y285000D01*
X59139D01*
X58282Y285286D01*
X57997Y285571D01*
X57711Y286143D01*
Y287000D01*
X57997Y287571D01*
X58568Y288142D01*
X59425Y288428D01*
X60567Y288713D01*
X61139Y288999D01*
X61424Y289570D01*
Y290142D01*
X61139Y290713D01*
X60282Y290999D01*
X59139D01*
X212285Y59447D02*
X211999Y60019D01*
X211428Y60590D01*
X210856Y60876D01*
X209714D01*
X209143Y60590D01*
X208571Y60019D01*
X208286Y59447D01*
X208000Y58590D01*
Y57162D01*
X208286Y56305D01*
X208571Y55734D01*
X209143Y55163D01*
X209714Y54877D01*
X210856D01*
X211428Y55163D01*
X211999Y55734D01*
X212285Y56305D01*
X213970Y59733D02*
X214541Y60019D01*
X215398Y60876D01*
Y54877D01*
X221226Y60876D02*
X218369Y56876D01*
X222654D01*
X221226Y60876D02*
Y54877D01*
X225139Y60876D02*
X224282Y60590D01*
X223997Y60019D01*
Y59447D01*
X224282Y58876D01*
X224853Y58590D01*
X225996Y58305D01*
X226853Y58019D01*
X227424Y57448D01*
X227710Y56876D01*
Y56020D01*
X227424Y55448D01*
X227139Y55163D01*
X226282Y54877D01*
X225139D01*
X224282Y55163D01*
X223997Y55448D01*
X223711Y56020D01*
Y56876D01*
X223997Y57448D01*
X224568Y58019D01*
X225425Y58305D01*
X226567Y58590D01*
X227139Y58876D01*
X227424Y59447D01*
Y60019D01*
X227139Y60590D01*
X226282Y60876D01*
X225139D01*
X212285Y40447D02*
X211999Y41019D01*
X211428Y41590D01*
X210856Y41876D01*
X209714D01*
X209143Y41590D01*
X208571Y41019D01*
X208286Y40447D01*
X208000Y39590D01*
Y38162D01*
X208286Y37305D01*
X208571Y36734D01*
X209143Y36163D01*
X209714Y35877D01*
X210856D01*
X211428Y36163D01*
X211999Y36734D01*
X212285Y37305D01*
X213970Y40733D02*
X214541Y41019D01*
X215398Y41876D01*
Y35877D01*
X221226Y41876D02*
X218369Y37876D01*
X222654D01*
X221226Y41876D02*
Y35877D01*
X227424Y39876D02*
X227139Y39019D01*
X226567Y38448D01*
X225710Y38162D01*
X225425D01*
X224568Y38448D01*
X223997Y39019D01*
X223711Y39876D01*
Y40162D01*
X223997Y41019D01*
X224568Y41590D01*
X225425Y41876D01*
X225710D01*
X226567Y41590D01*
X227139Y41019D01*
X227424Y39876D01*
Y38448D01*
X227139Y37020D01*
X226567Y36163D01*
X225710Y35877D01*
X225139D01*
X224282Y36163D01*
X223997Y36734D01*
X450358Y31447D02*
X450073Y32019D01*
X449501Y32590D01*
X448930Y32876D01*
X447788D01*
X447216Y32590D01*
X446645Y32019D01*
X446359Y31447D01*
X446074Y30590D01*
Y29162D01*
X446359Y28305D01*
X446645Y27734D01*
X447216Y27162D01*
X447788Y26877D01*
X448930D01*
X449501Y27162D01*
X450073Y27734D01*
X450358Y28305D01*
X452044Y31733D02*
X452615Y32019D01*
X453472Y32876D01*
Y26877D01*
X459871Y32876D02*
X457014D01*
X456728Y30305D01*
X457014Y30590D01*
X457871Y30876D01*
X458728D01*
X459585Y30590D01*
X460156Y30019D01*
X460442Y29162D01*
Y28591D01*
X460156Y27734D01*
X459585Y27162D01*
X458728Y26877D01*
X457871D01*
X457014Y27162D01*
X456728Y27448D01*
X456443Y28019D01*
X462070Y31447D02*
Y31733D01*
X462356Y32304D01*
X462641Y32590D01*
X463213Y32876D01*
X464355D01*
X464927Y32590D01*
X465212Y32304D01*
X465498Y31733D01*
Y31162D01*
X465212Y30590D01*
X464641Y29733D01*
X461785Y26877D01*
X465784D01*
X416285Y177570D02*
X415999Y178142D01*
X415428Y178713D01*
X414856Y178999D01*
X413714D01*
X413143Y178713D01*
X412571Y178142D01*
X412286Y177570D01*
X412000Y176714D01*
Y175285D01*
X412286Y174428D01*
X412571Y173857D01*
X413143Y173286D01*
X413714Y173000D01*
X414856D01*
X415428Y173286D01*
X415999Y173857D01*
X416285Y174428D01*
X417970Y177856D02*
X418541Y178142D01*
X419398Y178999D01*
Y173000D01*
X425797Y178142D02*
X425511Y178713D01*
X424654Y178999D01*
X424083D01*
X423226Y178713D01*
X422655Y177856D01*
X422369Y176428D01*
Y175000D01*
X422655Y173857D01*
X423226Y173286D01*
X424083Y173000D01*
X424369D01*
X425226Y173286D01*
X425797Y173857D01*
X426083Y174714D01*
Y175000D01*
X425797Y175856D01*
X425226Y176428D01*
X424369Y176714D01*
X424083D01*
X423226Y176428D01*
X422655Y175856D01*
X422369Y175000D01*
X430253Y178999D02*
X427397Y175000D01*
X431681D01*
X430253Y178999D02*
Y173000D01*
X485430Y154285D02*
X484858Y153999D01*
X484287Y153428D01*
X484001Y152857D01*
Y151714D01*
X484287Y151143D01*
X484858Y150571D01*
X485430Y150286D01*
X486287Y150000D01*
X487715D01*
X488572Y150286D01*
X489143Y150571D01*
X489714Y151143D01*
X490000Y151714D01*
Y152857D01*
X489714Y153428D01*
X489143Y153999D01*
X488572Y154285D01*
X485144Y155970D02*
X484858Y156541D01*
X484001Y157398D01*
X490000D01*
X484858Y163797D02*
X484287Y163511D01*
X484001Y162654D01*
Y162083D01*
X484287Y161226D01*
X485144Y160655D01*
X486572Y160369D01*
X488000D01*
X489143Y160655D01*
X489714Y161226D01*
X490000Y162083D01*
Y162369D01*
X489714Y163226D01*
X489143Y163797D01*
X488286Y164083D01*
X488000D01*
X487144Y163797D01*
X486572Y163226D01*
X486287Y162369D01*
Y162083D01*
X486572Y161226D01*
X487144Y160655D01*
X488000Y160369D01*
X484001Y168825D02*
Y165968D01*
X486572Y165682D01*
X486287Y165968D01*
X486001Y166825D01*
Y167682D01*
X486287Y168539D01*
X486858Y169110D01*
X487715Y169396D01*
X488286D01*
X489143Y169110D01*
X489714Y168539D01*
X490000Y167682D01*
Y166825D01*
X489714Y165968D01*
X489429Y165682D01*
X488857Y165397D01*
X602553Y158285D02*
X601981Y157999D01*
X601410Y157428D01*
X601124Y156856D01*
Y155714D01*
X601410Y155143D01*
X601981Y154571D01*
X602553Y154286D01*
X603410Y154000D01*
X604838D01*
X605695Y154286D01*
X606266Y154571D01*
X606838Y155143D01*
X607123Y155714D01*
Y156856D01*
X606838Y157428D01*
X606266Y157999D01*
X605695Y158285D01*
X602267Y159970D02*
X601981Y160541D01*
X601124Y161398D01*
X607123D01*
X601981Y167797D02*
X601410Y167511D01*
X601124Y166654D01*
Y166083D01*
X601410Y165226D01*
X602267Y164655D01*
X603695Y164369D01*
X605124D01*
X606266Y164655D01*
X606838Y165226D01*
X607123Y166083D01*
Y166369D01*
X606838Y167226D01*
X606266Y167797D01*
X605409Y168083D01*
X605124D01*
X604267Y167797D01*
X603695Y167226D01*
X603410Y166369D01*
Y166083D01*
X603695Y165226D01*
X604267Y164655D01*
X605124Y164369D01*
X601981Y172824D02*
X601410Y172539D01*
X601124Y171682D01*
Y171111D01*
X601410Y170254D01*
X602267Y169682D01*
X603695Y169397D01*
X605124D01*
X606266Y169682D01*
X606838Y170254D01*
X607123Y171111D01*
Y171396D01*
X606838Y172253D01*
X606266Y172824D01*
X605409Y173110D01*
X605124D01*
X604267Y172824D01*
X603695Y172253D01*
X603410Y171396D01*
Y171111D01*
X603695Y170254D01*
X604267Y169682D01*
X605124Y169397D01*
X345285Y177570D02*
X344999Y178142D01*
X344428Y178713D01*
X343857Y178999D01*
X342714D01*
X342143Y178713D01*
X341571Y178142D01*
X341286Y177570D01*
X341000Y176714D01*
Y175285D01*
X341286Y174428D01*
X341571Y173857D01*
X342143Y173286D01*
X342714Y173000D01*
X343857D01*
X344428Y173286D01*
X344999Y173857D01*
X345285Y174428D01*
X346970Y177856D02*
X347541Y178142D01*
X348398Y178999D01*
Y173000D01*
X354797Y178142D02*
X354511Y178713D01*
X353654Y178999D01*
X353083D01*
X352226Y178713D01*
X351655Y177856D01*
X351369Y176428D01*
Y175000D01*
X351655Y173857D01*
X352226Y173286D01*
X353083Y173000D01*
X353369D01*
X354226Y173286D01*
X354797Y173857D01*
X355083Y174714D01*
Y175000D01*
X354797Y175856D01*
X354226Y176428D01*
X353369Y176714D01*
X353083D01*
X352226Y176428D01*
X351655Y175856D01*
X351369Y175000D01*
X357825Y178999D02*
X356968Y178713D01*
X356682Y178142D01*
Y177570D01*
X356968Y176999D01*
X357539Y176714D01*
X358682Y176428D01*
X359539Y176142D01*
X360110Y175571D01*
X360396Y175000D01*
Y174143D01*
X360110Y173571D01*
X359824Y173286D01*
X358968Y173000D01*
X357825D01*
X356968Y173286D01*
X356682Y173571D01*
X356397Y174143D01*
Y175000D01*
X356682Y175571D01*
X357254Y176142D01*
X358111Y176428D01*
X359253Y176714D01*
X359824Y176999D01*
X360110Y177570D01*
Y178142D01*
X359824Y178713D01*
X358968Y178999D01*
X357825D01*
X617430Y352285D02*
X616858Y351999D01*
X616287Y351428D01*
X616001Y350857D01*
Y349714D01*
X616287Y349143D01*
X616858Y348571D01*
X617430Y348286D01*
X618287Y348000D01*
X619715D01*
X620572Y348286D01*
X621143Y348571D01*
X621714Y349143D01*
X622000Y349714D01*
Y350857D01*
X621714Y351428D01*
X621143Y351999D01*
X620572Y352285D01*
X617144Y353970D02*
X616858Y354541D01*
X616001Y355398D01*
X622000D01*
X616001Y362368D02*
X622000Y359512D01*
X616001Y358369D02*
Y362368D01*
Y365425D02*
X616287Y364568D01*
X617144Y363997D01*
X618572Y363711D01*
X619429D01*
X620857Y363997D01*
X621714Y364568D01*
X622000Y365425D01*
Y365996D01*
X621714Y366853D01*
X620857Y367424D01*
X619429Y367710D01*
X618572D01*
X617144Y367424D01*
X616287Y366853D01*
X616001Y365996D01*
Y365425D01*
X574285Y159447D02*
X573999Y160019D01*
X573428Y160590D01*
X572856Y160875D01*
X571714D01*
X571143Y160590D01*
X570571Y160019D01*
X570286Y159447D01*
X570000Y158590D01*
Y157162D01*
X570286Y156305D01*
X570571Y155734D01*
X571143Y155162D01*
X571714Y154877D01*
X572856D01*
X573428Y155162D01*
X573999Y155734D01*
X574285Y156305D01*
X575970Y159733D02*
X576541Y160019D01*
X577398Y160875D01*
Y154877D01*
X584368Y160875D02*
X581512Y154877D01*
X580369Y160875D02*
X584368D01*
X586282D02*
X589424D01*
X587710Y158590D01*
X588567D01*
X589139Y158305D01*
X589424Y158019D01*
X589710Y157162D01*
Y156591D01*
X589424Y155734D01*
X588853Y155162D01*
X587996Y154877D01*
X587139D01*
X586282Y155162D01*
X585997Y155448D01*
X585711Y156019D01*
X112285Y189571D02*
X111999Y190142D01*
X111428Y190713D01*
X110857Y190999D01*
X109714D01*
X109143Y190713D01*
X108571Y190142D01*
X108286Y189571D01*
X108000Y188713D01*
Y187285D01*
X108286Y186428D01*
X108571Y185857D01*
X109143Y185286D01*
X109714Y185000D01*
X110857D01*
X111428Y185286D01*
X111999Y185857D01*
X112285Y186428D01*
X114256Y189571D02*
Y189856D01*
X114542Y190427D01*
X114827Y190713D01*
X115398Y190999D01*
X116541D01*
X117112Y190713D01*
X117398Y190427D01*
X117684Y189856D01*
Y189285D01*
X117398Y188713D01*
X116827Y187857D01*
X113970Y185000D01*
X117969D01*
X121026Y190999D02*
X120169Y190713D01*
X119598Y189856D01*
X119312Y188428D01*
Y187571D01*
X119598Y186143D01*
X120169Y185286D01*
X121026Y185000D01*
X121597D01*
X122454Y185286D01*
X123025Y186143D01*
X123311Y187571D01*
Y188428D01*
X123025Y189856D01*
X122454Y190713D01*
X121597Y190999D01*
X121026D01*
X126368D02*
X125511Y190713D01*
X124939Y189856D01*
X124654Y188428D01*
Y187571D01*
X124939Y186143D01*
X125511Y185286D01*
X126368Y185000D01*
X126939D01*
X127796Y185286D01*
X128367Y186143D01*
X128653Y187571D01*
Y188428D01*
X128367Y189856D01*
X127796Y190713D01*
X126939Y190999D01*
X126368D01*
X74285Y175570D02*
X73999Y176142D01*
X73428Y176713D01*
X72856Y176999D01*
X71714D01*
X71143Y176713D01*
X70571Y176142D01*
X70286Y175570D01*
X70000Y174713D01*
Y173285D01*
X70286Y172428D01*
X70571Y171857D01*
X71143Y171286D01*
X71714Y171000D01*
X72856D01*
X73428Y171286D01*
X73999Y171857D01*
X74285Y172428D01*
X76256Y175570D02*
Y175856D01*
X76542Y176427D01*
X76827Y176713D01*
X77398Y176999D01*
X78541D01*
X79112Y176713D01*
X79398Y176427D01*
X79684Y175856D01*
Y175285D01*
X79398Y174713D01*
X78827Y173857D01*
X75970Y171000D01*
X79969D01*
X83026Y176999D02*
X82169Y176713D01*
X81597Y175856D01*
X81312Y174428D01*
Y173571D01*
X81597Y172143D01*
X82169Y171286D01*
X83026Y171000D01*
X83597D01*
X84454Y171286D01*
X85025Y172143D01*
X85311Y173571D01*
Y174428D01*
X85025Y175856D01*
X84454Y176713D01*
X83597Y176999D01*
X83026D01*
X86653Y175856D02*
X87225Y176142D01*
X88082Y176999D01*
Y171000D01*
X215429Y231285D02*
X214858Y230999D01*
X214287Y230428D01*
X214001Y229856D01*
Y228714D01*
X214287Y228143D01*
X214858Y227571D01*
X215429Y227286D01*
X216287Y227000D01*
X217715D01*
X218572Y227286D01*
X219143Y227571D01*
X219714Y228143D01*
X220000Y228714D01*
Y229856D01*
X219714Y230428D01*
X219143Y230999D01*
X218572Y231285D01*
X215429Y233256D02*
X215144D01*
X214573Y233541D01*
X214287Y233827D01*
X214001Y234398D01*
Y235541D01*
X214287Y236112D01*
X214573Y236398D01*
X215144Y236684D01*
X215715D01*
X216287Y236398D01*
X217143Y235827D01*
X220000Y232970D01*
Y236969D01*
X214001Y240026D02*
X214287Y239169D01*
X215144Y238598D01*
X216572Y238312D01*
X217429D01*
X218857Y238598D01*
X219714Y239169D01*
X220000Y240026D01*
Y240597D01*
X219714Y241454D01*
X218857Y242025D01*
X217429Y242311D01*
X216572D01*
X215144Y242025D01*
X214287Y241454D01*
X214001Y240597D01*
Y240026D01*
X214858Y247081D02*
X214287Y246796D01*
X214001Y245939D01*
Y245368D01*
X214287Y244510D01*
X215144Y243939D01*
X216572Y243654D01*
X218000D01*
X219143Y243939D01*
X219714Y244510D01*
X220000Y245368D01*
Y245653D01*
X219714Y246510D01*
X219143Y247081D01*
X218286Y247367D01*
X218000D01*
X217143Y247081D01*
X216572Y246510D01*
X216287Y245653D01*
Y245368D01*
X216572Y244510D01*
X217143Y243939D01*
X218000Y243654D01*
X215429Y196285D02*
X214858Y195999D01*
X214287Y195428D01*
X214001Y194856D01*
Y193714D01*
X214287Y193143D01*
X214858Y192571D01*
X215429Y192286D01*
X216287Y192000D01*
X217715D01*
X218572Y192286D01*
X219143Y192571D01*
X219714Y193143D01*
X220000Y193714D01*
Y194856D01*
X219714Y195428D01*
X219143Y195999D01*
X218572Y196285D01*
X215429Y198256D02*
X215144D01*
X214573Y198541D01*
X214287Y198827D01*
X214001Y199398D01*
Y200541D01*
X214287Y201112D01*
X214573Y201398D01*
X215144Y201684D01*
X215715D01*
X216287Y201398D01*
X217143Y200827D01*
X220000Y197970D01*
Y201969D01*
X214001Y205026D02*
X214287Y204169D01*
X215144Y203598D01*
X216572Y203312D01*
X217429D01*
X218857Y203598D01*
X219714Y204169D01*
X220000Y205026D01*
Y205597D01*
X219714Y206454D01*
X218857Y207025D01*
X217429Y207311D01*
X216572D01*
X215144Y207025D01*
X214287Y206454D01*
X214001Y205597D01*
Y205026D01*
Y212653D02*
X220000Y209796D01*
X214001Y208654D02*
Y212653D01*
X127285Y108570D02*
X126999Y109142D01*
X126428Y109713D01*
X125857Y109999D01*
X124714D01*
X124143Y109713D01*
X123571Y109142D01*
X123286Y108570D01*
X123000Y107713D01*
Y106285D01*
X123286Y105428D01*
X123571Y104857D01*
X124143Y104286D01*
X124714Y104000D01*
X125857D01*
X126428Y104286D01*
X126999Y104857D01*
X127285Y105428D01*
X129256Y108570D02*
Y108856D01*
X129541Y109427D01*
X129827Y109713D01*
X130398Y109999D01*
X131541D01*
X132112Y109713D01*
X132398Y109427D01*
X132684Y108856D01*
Y108285D01*
X132398Y107713D01*
X131827Y106856D01*
X128970Y104000D01*
X132969D01*
X136026Y109999D02*
X135169Y109713D01*
X134598Y108856D01*
X134312Y107428D01*
Y106571D01*
X134598Y105143D01*
X135169Y104286D01*
X136026Y104000D01*
X136597D01*
X137454Y104286D01*
X138025Y105143D01*
X138311Y106571D01*
Y107428D01*
X138025Y108856D01*
X137454Y109713D01*
X136597Y109999D01*
X136026D01*
X141082D02*
X140225Y109713D01*
X139939Y109142D01*
Y108570D01*
X140225Y107999D01*
X140796Y107713D01*
X141939Y107428D01*
X142796Y107142D01*
X143367Y106571D01*
X143653Y106000D01*
Y105143D01*
X143367Y104571D01*
X143081Y104286D01*
X142224Y104000D01*
X141082D01*
X140225Y104286D01*
X139939Y104571D01*
X139654Y105143D01*
Y106000D01*
X139939Y106571D01*
X140511Y107142D01*
X141368Y107428D01*
X142510Y107713D01*
X143081Y107999D01*
X143367Y108570D01*
Y109142D01*
X143081Y109713D01*
X142224Y109999D01*
X141082D01*
X101285Y108570D02*
X100999Y109142D01*
X100428Y109713D01*
X99857Y109999D01*
X98714D01*
X98143Y109713D01*
X97571Y109142D01*
X97286Y108570D01*
X97000Y107713D01*
Y106285D01*
X97286Y105428D01*
X97571Y104857D01*
X98143Y104286D01*
X98714Y104000D01*
X99857D01*
X100428Y104286D01*
X100999Y104857D01*
X101285Y105428D01*
X103256Y108570D02*
Y108856D01*
X103541Y109427D01*
X103827Y109713D01*
X104398Y109999D01*
X105541D01*
X106112Y109713D01*
X106398Y109427D01*
X106684Y108856D01*
Y108285D01*
X106398Y107713D01*
X105827Y106856D01*
X102970Y104000D01*
X106969D01*
X110026Y109999D02*
X109169Y109713D01*
X108597Y108856D01*
X108312Y107428D01*
Y106571D01*
X108597Y105143D01*
X109169Y104286D01*
X110026Y104000D01*
X110597D01*
X111454Y104286D01*
X112025Y105143D01*
X112311Y106571D01*
Y107428D01*
X112025Y108856D01*
X111454Y109713D01*
X110597Y109999D01*
X110026D01*
X117367Y107999D02*
X117081Y107142D01*
X116510Y106571D01*
X115653Y106285D01*
X115367D01*
X114510Y106571D01*
X113939Y107142D01*
X113653Y107999D01*
Y108285D01*
X113939Y109142D01*
X114510Y109713D01*
X115367Y109999D01*
X115653D01*
X116510Y109713D01*
X117081Y109142D01*
X117367Y107999D01*
Y106571D01*
X117081Y105143D01*
X116510Y104286D01*
X115653Y104000D01*
X115082D01*
X114225Y104286D01*
X113939Y104857D01*
X150285Y19570D02*
X149999Y20142D01*
X149428Y20713D01*
X148856Y20999D01*
X147714D01*
X147143Y20713D01*
X146571Y20142D01*
X146286Y19570D01*
X146000Y18714D01*
Y17285D01*
X146286Y16428D01*
X146571Y15857D01*
X147143Y15286D01*
X147714Y15000D01*
X148856D01*
X149428Y15286D01*
X149999Y15857D01*
X150285Y16428D01*
X152256Y19570D02*
Y19856D01*
X152541Y20427D01*
X152827Y20713D01*
X153398Y20999D01*
X154541D01*
X155112Y20713D01*
X155398Y20427D01*
X155684Y19856D01*
Y19285D01*
X155398Y18714D01*
X154827Y17857D01*
X151970Y15000D01*
X155969D01*
X157598Y19570D02*
Y19856D01*
X157883Y20427D01*
X158169Y20713D01*
X158740Y20999D01*
X159883D01*
X160454Y20713D01*
X160740Y20427D01*
X161025Y19856D01*
Y19285D01*
X160740Y18714D01*
X160168Y17857D01*
X157312Y15000D01*
X161311D01*
X162654Y19856D02*
X163225Y20142D01*
X164082Y20999D01*
Y15000D01*
X377285Y88447D02*
X376999Y89019D01*
X376428Y89590D01*
X375857Y89876D01*
X374714D01*
X374143Y89590D01*
X373571Y89019D01*
X373286Y88447D01*
X373000Y87590D01*
Y86162D01*
X373286Y85305D01*
X373571Y84734D01*
X374143Y84163D01*
X374714Y83877D01*
X375857D01*
X376428Y84163D01*
X376999Y84734D01*
X377285Y85305D01*
X379256Y88447D02*
Y88733D01*
X379541Y89304D01*
X379827Y89590D01*
X380398Y89876D01*
X381541D01*
X382112Y89590D01*
X382398Y89304D01*
X382684Y88733D01*
Y88162D01*
X382398Y87590D01*
X381827Y86733D01*
X378970Y83877D01*
X382969D01*
X384598Y88447D02*
Y88733D01*
X384883Y89304D01*
X385169Y89590D01*
X385740Y89876D01*
X386883D01*
X387454Y89590D01*
X387740Y89304D01*
X388025Y88733D01*
Y88162D01*
X387740Y87590D01*
X387168Y86733D01*
X384312Y83877D01*
X388311D01*
X392510Y89876D02*
X389654Y85876D01*
X393938D01*
X392510Y89876D02*
Y83877D01*
X563430Y403285D02*
X562858Y402999D01*
X562287Y402428D01*
X562001Y401856D01*
Y400714D01*
X562287Y400143D01*
X562858Y399571D01*
X563430Y399286D01*
X564286Y399000D01*
X565715D01*
X566572Y399286D01*
X567143Y399571D01*
X567714Y400143D01*
X568000Y400714D01*
Y401856D01*
X567714Y402428D01*
X567143Y402999D01*
X566572Y403285D01*
X562001Y405541D02*
Y408684D01*
X564286Y406970D01*
Y407827D01*
X564572Y408398D01*
X564858Y408684D01*
X565715Y408969D01*
X566286D01*
X567143Y408684D01*
X567714Y408112D01*
X568000Y407255D01*
Y406398D01*
X567714Y405541D01*
X567429Y405256D01*
X566857Y404970D01*
X562001Y412026D02*
X562287Y411169D01*
X563144Y410597D01*
X564572Y410312D01*
X565429D01*
X566857Y410597D01*
X567714Y411169D01*
X568000Y412026D01*
Y412597D01*
X567714Y413454D01*
X566857Y414025D01*
X565429Y414311D01*
X564572D01*
X563144Y414025D01*
X562287Y413454D01*
X562001Y412597D01*
Y412026D01*
Y419081D02*
Y416225D01*
X564572Y415939D01*
X564286Y416225D01*
X564001Y417082D01*
Y417939D01*
X564286Y418796D01*
X564858Y419367D01*
X565715Y419653D01*
X566286D01*
X567143Y419367D01*
X567714Y418796D01*
X568000Y417939D01*
Y417082D01*
X567714Y416225D01*
X567429Y415939D01*
X566857Y415653D01*
X516285Y380570D02*
X515999Y381142D01*
X515428Y381713D01*
X514856Y381999D01*
X513714D01*
X513143Y381713D01*
X512571Y381142D01*
X512286Y380570D01*
X512000Y379714D01*
Y378285D01*
X512286Y377428D01*
X512571Y376857D01*
X513143Y376286D01*
X513714Y376000D01*
X514856D01*
X515428Y376286D01*
X515999Y376857D01*
X516285Y377428D01*
X518541Y381999D02*
X521684D01*
X519970Y379714D01*
X520827D01*
X521398Y379428D01*
X521684Y379142D01*
X521969Y378285D01*
Y377714D01*
X521684Y376857D01*
X521112Y376286D01*
X520255Y376000D01*
X519398D01*
X518541Y376286D01*
X518256Y376571D01*
X517970Y377143D01*
X525026Y381999D02*
X524169Y381713D01*
X523597Y380856D01*
X523312Y379428D01*
Y378571D01*
X523597Y377143D01*
X524169Y376286D01*
X525026Y376000D01*
X525597D01*
X526454Y376286D01*
X527025Y377143D01*
X527311Y378571D01*
Y379428D01*
X527025Y380856D01*
X526454Y381713D01*
X525597Y381999D01*
X525026D01*
X532081Y381142D02*
X531796Y381713D01*
X530939Y381999D01*
X530367D01*
X529510Y381713D01*
X528939Y380856D01*
X528653Y379428D01*
Y378000D01*
X528939Y376857D01*
X529510Y376286D01*
X530367Y376000D01*
X530653D01*
X531510Y376286D01*
X532081Y376857D01*
X532367Y377714D01*
Y378000D01*
X532081Y378857D01*
X531510Y379428D01*
X530653Y379714D01*
X530367D01*
X529510Y379428D01*
X528939Y378857D01*
X528653Y378000D01*
X558285Y283570D02*
X557999Y284142D01*
X557428Y284713D01*
X556856Y284999D01*
X555714D01*
X555143Y284713D01*
X554571Y284142D01*
X554286Y283570D01*
X554000Y282714D01*
Y281285D01*
X554286Y280428D01*
X554571Y279857D01*
X555143Y279286D01*
X555714Y279000D01*
X556856D01*
X557428Y279286D01*
X557999Y279857D01*
X558285Y280428D01*
X560541Y284999D02*
X563684D01*
X561970Y282714D01*
X562827D01*
X563398Y282428D01*
X563684Y282142D01*
X563969Y281285D01*
Y280714D01*
X563684Y279857D01*
X563112Y279286D01*
X562255Y279000D01*
X561398D01*
X560541Y279286D01*
X560256Y279571D01*
X559970Y280143D01*
X565312Y283856D02*
X565883Y284142D01*
X566740Y284999D01*
Y279000D01*
X569711Y283856D02*
X570282Y284142D01*
X571139Y284999D01*
Y279000D01*
X522285Y283570D02*
X521999Y284142D01*
X521428Y284713D01*
X520857Y284999D01*
X519714D01*
X519143Y284713D01*
X518571Y284142D01*
X518286Y283570D01*
X518000Y282714D01*
Y281285D01*
X518286Y280428D01*
X518571Y279857D01*
X519143Y279286D01*
X519714Y279000D01*
X520857D01*
X521428Y279286D01*
X521999Y279857D01*
X522285Y280428D01*
X524541Y284999D02*
X527684D01*
X525970Y282714D01*
X526827D01*
X527398Y282428D01*
X527684Y282142D01*
X527969Y281285D01*
Y280714D01*
X527684Y279857D01*
X527112Y279286D01*
X526255Y279000D01*
X525398D01*
X524541Y279286D01*
X524256Y279571D01*
X523970Y280143D01*
X529312Y283856D02*
X529883Y284142D01*
X530740Y284999D01*
Y279000D01*
X533997Y283570D02*
Y283856D01*
X534282Y284427D01*
X534568Y284713D01*
X535139Y284999D01*
X536282D01*
X536853Y284713D01*
X537139Y284427D01*
X537424Y283856D01*
Y283285D01*
X537139Y282714D01*
X536567Y281856D01*
X533711Y279000D01*
X537710D01*
X496429Y242285D02*
X495858Y241999D01*
X495287Y241428D01*
X495001Y240856D01*
Y239714D01*
X495287Y239143D01*
X495858Y238571D01*
X496429Y238286D01*
X497286Y238000D01*
X498715D01*
X499572Y238286D01*
X500143Y238571D01*
X500714Y239143D01*
X501000Y239714D01*
Y240856D01*
X500714Y241428D01*
X500143Y241999D01*
X499572Y242285D01*
X495001Y244541D02*
Y247684D01*
X497286Y245970D01*
Y246827D01*
X497572Y247398D01*
X497858Y247684D01*
X498715Y247969D01*
X499286D01*
X500143Y247684D01*
X500714Y247112D01*
X501000Y246255D01*
Y245398D01*
X500714Y244541D01*
X500429Y244256D01*
X499857Y243970D01*
X496144Y249312D02*
X495858Y249883D01*
X495001Y250740D01*
X501000D01*
X495001Y254282D02*
Y257424D01*
X497286Y255711D01*
Y256567D01*
X497572Y257139D01*
X497858Y257424D01*
X498715Y257710D01*
X499286D01*
X500143Y257424D01*
X500714Y256853D01*
X501000Y255996D01*
Y255139D01*
X500714Y254282D01*
X500429Y253997D01*
X499857Y253711D01*
X602285Y256570D02*
X601999Y257142D01*
X601428Y257713D01*
X600857Y257999D01*
X599714D01*
X599143Y257713D01*
X598571Y257142D01*
X598286Y256570D01*
X598000Y255714D01*
Y254285D01*
X598286Y253428D01*
X598571Y252857D01*
X599143Y252286D01*
X599714Y252000D01*
X600857D01*
X601428Y252286D01*
X601999Y252857D01*
X602285Y253428D01*
X604541Y257999D02*
X607684D01*
X605970Y255714D01*
X606827D01*
X607398Y255428D01*
X607684Y255142D01*
X607969Y254285D01*
Y253714D01*
X607684Y252857D01*
X607112Y252286D01*
X606255Y252000D01*
X605398D01*
X604541Y252286D01*
X604256Y252571D01*
X603970Y253143D01*
X609312Y256856D02*
X609883Y257142D01*
X610740Y257999D01*
Y252000D01*
X616567Y257999D02*
X613711Y254000D01*
X617996D01*
X616567Y257999D02*
Y252000D01*
X735285Y26570D02*
X734999Y27142D01*
X734428Y27713D01*
X733857Y27999D01*
X732714D01*
X732143Y27713D01*
X731571Y27142D01*
X731286Y26570D01*
X731000Y25714D01*
Y24285D01*
X731286Y23428D01*
X731571Y22857D01*
X732143Y22286D01*
X732714Y22000D01*
X733857D01*
X734428Y22286D01*
X734999Y22857D01*
X735285Y23428D01*
X739827Y27999D02*
X736970Y24000D01*
X741255D01*
X739827Y27999D02*
Y22000D01*
X744026Y27999D02*
X743169Y27713D01*
X742598Y26856D01*
X742312Y25428D01*
Y24571D01*
X742598Y23143D01*
X743169Y22286D01*
X744026Y22000D01*
X744597D01*
X745454Y22286D01*
X746025Y23143D01*
X746311Y24571D01*
Y25428D01*
X746025Y26856D01*
X745454Y27713D01*
X744597Y27999D01*
X744026D01*
X750510D02*
X747654Y24000D01*
X751938D01*
X750510Y27999D02*
Y22000D01*
X774429Y91285D02*
X773858Y90999D01*
X773287Y90428D01*
X773001Y89857D01*
Y88714D01*
X773287Y88143D01*
X773858Y87571D01*
X774429Y87286D01*
X775286Y87000D01*
X776715D01*
X777572Y87286D01*
X778143Y87571D01*
X778714Y88143D01*
X779000Y88714D01*
Y89857D01*
X778714Y90428D01*
X778143Y90999D01*
X777572Y91285D01*
X773001Y95827D02*
X777000Y92970D01*
Y97255D01*
X773001Y95827D02*
X779000D01*
X773001Y100026D02*
X773287Y99169D01*
X774144Y98597D01*
X775572Y98312D01*
X776429D01*
X777857Y98597D01*
X778714Y99169D01*
X779000Y100026D01*
Y100597D01*
X778714Y101454D01*
X777857Y102025D01*
X776429Y102311D01*
X775572D01*
X774144Y102025D01*
X773287Y101454D01*
X773001Y100597D01*
Y100026D01*
Y107081D02*
Y104225D01*
X775572Y103939D01*
X775286Y104225D01*
X775001Y105082D01*
Y105939D01*
X775286Y106796D01*
X775858Y107367D01*
X776715Y107653D01*
X777286D01*
X778143Y107367D01*
X778714Y106796D01*
X779000Y105939D01*
Y105082D01*
X778714Y104225D01*
X778429Y103939D01*
X777857Y103653D01*
X740568Y139479D02*
X740770Y140085D01*
Y140893D01*
X740568Y141499D01*
X739760Y142307D01*
X739154Y142509D01*
X738346Y142509D01*
X737740Y142307D01*
X736932Y141903D01*
X735922Y140893D01*
X735518Y140085D01*
X735316Y139479D01*
Y138671D01*
X735518Y138065D01*
X736326Y137257D01*
X736932Y137055D01*
X737740D01*
X738346Y137257D01*
X744789Y137277D02*
X739942Y136469D01*
X742972Y133440D01*
X744789Y137277D02*
X740548Y133035D01*
X747759Y134308D02*
X746951Y134712D01*
X745941Y134510D01*
X744729Y133702D01*
X744123Y133096D01*
X743315Y131884D01*
X743113Y130874D01*
X743517Y130066D01*
X743921Y129662D01*
X744729Y129258D01*
X745739Y129460D01*
X746951Y130268D01*
X747557Y130874D01*
X748365Y132086D01*
X748567Y133096D01*
X748163Y133904D01*
X747759Y134308D01*
X752142Y128713D02*
X752344Y129319D01*
X751940Y130127D01*
X751536Y130531D01*
X750728Y130935D01*
X749718Y130733D01*
X748506Y129925D01*
X747496Y128915D01*
X746890Y127905D01*
Y127097D01*
X747294Y126289D01*
X747496Y126087D01*
X748304Y125683D01*
X749112D01*
X749920Y126087D01*
X750122Y126289D01*
X750526Y127097D01*
Y127905D01*
X750122Y128713D01*
X749920Y128915D01*
X749112Y129319D01*
X748304D01*
X747496Y128915D01*
X792285Y155447D02*
X791999Y156019D01*
X791428Y156590D01*
X790856Y156876D01*
X789714D01*
X789143Y156590D01*
X788571Y156019D01*
X788286Y155447D01*
X788000Y154590D01*
Y153162D01*
X788286Y152305D01*
X788571Y151734D01*
X789143Y151163D01*
X789714Y150877D01*
X790856D01*
X791428Y151163D01*
X791999Y151734D01*
X792285Y152305D01*
X796827Y156876D02*
X793970Y152876D01*
X798255D01*
X796827Y156876D02*
Y150877D01*
X801026Y156876D02*
X800169Y156590D01*
X799597Y155733D01*
X799312Y154305D01*
Y153448D01*
X799597Y152020D01*
X800169Y151163D01*
X801026Y150877D01*
X801597D01*
X802454Y151163D01*
X803025Y152020D01*
X803311Y153448D01*
Y154305D01*
X803025Y155733D01*
X802454Y156590D01*
X801597Y156876D01*
X801026D01*
X808653D02*
X805796Y150877D01*
X804653Y156876D02*
X808653D01*
X763285Y155570D02*
X762999Y156142D01*
X762428Y156713D01*
X761857Y156999D01*
X760714D01*
X760143Y156713D01*
X759571Y156142D01*
X759286Y155570D01*
X759000Y154713D01*
Y153285D01*
X759286Y152428D01*
X759571Y151857D01*
X760143Y151286D01*
X760714Y151000D01*
X761857D01*
X762428Y151286D01*
X762999Y151857D01*
X763285Y152428D01*
X767827Y156999D02*
X764970Y153000D01*
X769255D01*
X767827Y156999D02*
Y151000D01*
X772026Y156999D02*
X771169Y156713D01*
X770598Y155856D01*
X770312Y154428D01*
Y153571D01*
X770598Y152143D01*
X771169Y151286D01*
X772026Y151000D01*
X772597D01*
X773454Y151286D01*
X774025Y152143D01*
X774311Y153571D01*
Y154428D01*
X774025Y155856D01*
X773454Y156713D01*
X772597Y156999D01*
X772026D01*
X777082D02*
X776225Y156713D01*
X775939Y156142D01*
Y155570D01*
X776225Y154999D01*
X776796Y154713D01*
X777939Y154428D01*
X778796Y154142D01*
X779367Y153571D01*
X779653Y153000D01*
Y152143D01*
X779367Y151571D01*
X779081Y151286D01*
X778224Y151000D01*
X777082D01*
X776225Y151286D01*
X775939Y151571D01*
X775654Y152143D01*
Y153000D01*
X775939Y153571D01*
X776510Y154142D01*
X777367Y154428D01*
X778510Y154713D01*
X779081Y154999D01*
X779367Y155570D01*
Y156142D01*
X779081Y156713D01*
X778224Y156999D01*
X777082D01*
X548750Y19749D02*
Y13750D01*
Y19749D02*
X550750D01*
X551606Y19463D01*
X552178Y18892D01*
X552463Y18320D01*
X552749Y17464D01*
Y16035D01*
X552463Y15178D01*
X552178Y14607D01*
X551606Y14036D01*
X550750Y13750D01*
X548750D01*
X554092Y18606D02*
X554663Y18892D01*
X555520Y19749D01*
Y13750D01*
X560205Y19749D02*
X559348Y19463D01*
X558776Y18606D01*
X558491Y17178D01*
Y16321D01*
X558776Y14893D01*
X559348Y14036D01*
X560205Y13750D01*
X560776D01*
X561633Y14036D01*
X562204Y14893D01*
X562490Y16321D01*
Y17178D01*
X562204Y18606D01*
X561633Y19463D01*
X560776Y19749D01*
X560205D01*
X565546D02*
X564689Y19463D01*
X564118Y18606D01*
X563832Y17178D01*
Y16321D01*
X564118Y14893D01*
X564689Y14036D01*
X565546Y13750D01*
X566118D01*
X566975Y14036D01*
X567546Y14893D01*
X567832Y16321D01*
Y17178D01*
X567546Y18606D01*
X566975Y19463D01*
X566118Y19749D01*
X565546D01*
X503750D02*
Y13750D01*
Y19749D02*
X505750D01*
X506606Y19463D01*
X507178Y18892D01*
X507463Y18320D01*
X507749Y17464D01*
Y16035D01*
X507463Y15178D01*
X507178Y14607D01*
X506606Y14036D01*
X505750Y13750D01*
X503750D01*
X509092Y18606D02*
X509663Y18892D01*
X510520Y19749D01*
Y13750D01*
X515205Y19749D02*
X514348Y19463D01*
X513776Y18606D01*
X513491Y17178D01*
Y16321D01*
X513776Y14893D01*
X514348Y14036D01*
X515205Y13750D01*
X515776D01*
X516633Y14036D01*
X517204Y14893D01*
X517490Y16321D01*
Y17178D01*
X517204Y18606D01*
X516633Y19463D01*
X515776Y19749D01*
X515205D01*
X519118Y18320D02*
Y18606D01*
X519404Y19177D01*
X519689Y19463D01*
X520261Y19749D01*
X521403D01*
X521975Y19463D01*
X522260Y19177D01*
X522546Y18606D01*
Y18035D01*
X522260Y17464D01*
X521689Y16607D01*
X518832Y13750D01*
X522832D01*
X520000Y136999D02*
Y131000D01*
Y136999D02*
X522000D01*
X522856Y136713D01*
X523428Y136142D01*
X523713Y135570D01*
X523999Y134713D01*
Y133285D01*
X523713Y132428D01*
X523428Y131857D01*
X522856Y131286D01*
X522000Y131000D01*
X520000D01*
X525342Y135856D02*
X525913Y136142D01*
X526770Y136999D01*
Y131000D01*
X531455Y136999D02*
X530598Y136713D01*
X530026Y135856D01*
X529741Y134428D01*
Y133571D01*
X530026Y132143D01*
X530598Y131286D01*
X531455Y131000D01*
X532026D01*
X532883Y131286D01*
X533454Y132143D01*
X533740Y133571D01*
Y134428D01*
X533454Y135856D01*
X532883Y136713D01*
X532026Y136999D01*
X531455D01*
X535654D02*
X538796D01*
X537082Y134713D01*
X537939D01*
X538510Y134428D01*
X538796Y134142D01*
X539082Y133285D01*
Y132714D01*
X538796Y131857D01*
X538225Y131286D01*
X537368Y131000D01*
X536511D01*
X535654Y131286D01*
X535368Y131571D01*
X535082Y132143D01*
X636000Y141999D02*
Y136000D01*
Y141999D02*
X638000D01*
X638857Y141713D01*
X639428Y141142D01*
X639714Y140570D01*
X639999Y139713D01*
Y138285D01*
X639714Y137428D01*
X639428Y136857D01*
X638857Y136286D01*
X638000Y136000D01*
X636000D01*
X641342Y140856D02*
X641913Y141142D01*
X642770Y141999D01*
Y136000D01*
X647455Y141999D02*
X646598Y141713D01*
X646026Y140856D01*
X645741Y139428D01*
Y138571D01*
X646026Y137143D01*
X646598Y136286D01*
X647455Y136000D01*
X648026D01*
X648883Y136286D01*
X649454Y137143D01*
X649740Y138571D01*
Y139428D01*
X649454Y140856D01*
X648883Y141713D01*
X648026Y141999D01*
X647455D01*
X654510Y141142D02*
X654225Y141713D01*
X653368Y141999D01*
X652796D01*
X651939Y141713D01*
X651368Y140856D01*
X651082Y139428D01*
Y138000D01*
X651368Y136857D01*
X651939Y136286D01*
X652796Y136000D01*
X653082D01*
X653939Y136286D01*
X654510Y136857D01*
X654796Y137714D01*
Y138000D01*
X654510Y138856D01*
X653939Y139428D01*
X653082Y139713D01*
X652796D01*
X651939Y139428D01*
X651368Y138856D01*
X651082Y138000D01*
X632000Y242999D02*
Y237000D01*
Y242999D02*
X634000D01*
X634856Y242713D01*
X635428Y242142D01*
X635714Y241570D01*
X635999Y240714D01*
Y239285D01*
X635714Y238428D01*
X635428Y237857D01*
X634856Y237286D01*
X634000Y237000D01*
X632000D01*
X637342Y241856D02*
X637913Y242142D01*
X638770Y242999D01*
Y237000D01*
X641741Y241856D02*
X642312Y242142D01*
X643169Y242999D01*
Y237000D01*
X646140Y241856D02*
X646711Y242142D01*
X647568Y242999D01*
Y237000D01*
X632000Y263999D02*
Y258000D01*
Y263999D02*
X634000D01*
X634856Y263713D01*
X635428Y263142D01*
X635714Y262570D01*
X635999Y261714D01*
Y260285D01*
X635714Y259428D01*
X635428Y258857D01*
X634856Y258286D01*
X634000Y258000D01*
X632000D01*
X637342Y262856D02*
X637913Y263142D01*
X638770Y263999D01*
Y258000D01*
X641741Y262856D02*
X642312Y263142D01*
X643169Y263999D01*
Y258000D01*
X646425Y262570D02*
Y262856D01*
X646711Y263427D01*
X646997Y263713D01*
X647568Y263999D01*
X648711D01*
X649282Y263713D01*
X649568Y263427D01*
X649853Y262856D01*
Y262285D01*
X649568Y261714D01*
X648996Y260856D01*
X646140Y258000D01*
X650139D01*
X632000Y200999D02*
Y195000D01*
Y200999D02*
X634000D01*
X634856Y200713D01*
X635428Y200142D01*
X635714Y199570D01*
X635999Y198713D01*
Y197285D01*
X635714Y196428D01*
X635428Y195857D01*
X634856Y195286D01*
X634000Y195000D01*
X632000D01*
X637342Y199856D02*
X637913Y200142D01*
X638770Y200999D01*
Y195000D01*
X641741Y199856D02*
X642312Y200142D01*
X643169Y200999D01*
Y195000D01*
X646711Y200999D02*
X649853D01*
X648139Y198713D01*
X648996D01*
X649568Y198428D01*
X649853Y198142D01*
X650139Y197285D01*
Y196714D01*
X649853Y195857D01*
X649282Y195286D01*
X648425Y195000D01*
X647568D01*
X646711Y195286D01*
X646425Y195571D01*
X646140Y196143D01*
X784200Y215199D02*
Y209200D01*
Y215199D02*
X786200D01*
X787057Y214913D01*
X787628Y214342D01*
X787914Y213770D01*
X788199Y212913D01*
Y211485D01*
X787914Y210628D01*
X787628Y210057D01*
X787057Y209486D01*
X786200Y209200D01*
X784200D01*
X789542Y214056D02*
X790113Y214342D01*
X790970Y215199D01*
Y209200D01*
X793941Y214056D02*
X794512Y214342D01*
X795369Y215199D01*
Y209200D01*
X801768Y215199D02*
X798911D01*
X798625Y212628D01*
X798911Y212913D01*
X799768Y213199D01*
X800625D01*
X801482Y212913D01*
X802053Y212342D01*
X802339Y211485D01*
Y210914D01*
X802053Y210057D01*
X801482Y209486D01*
X800625Y209200D01*
X799768D01*
X798911Y209486D01*
X798625Y209771D01*
X798340Y210343D01*
X781300Y224156D02*
X781871Y224442D01*
X782728Y225299D01*
Y219300D01*
X632000Y221999D02*
Y216000D01*
Y221999D02*
X634000D01*
X634856Y221713D01*
X635428Y221142D01*
X635714Y220571D01*
X635999Y219713D01*
Y218285D01*
X635714Y217428D01*
X635428Y216857D01*
X634856Y216286D01*
X634000Y216000D01*
X632000D01*
X637342Y220856D02*
X637913Y221142D01*
X638770Y221999D01*
Y216000D01*
X641741Y220856D02*
X642312Y221142D01*
X643169Y221999D01*
Y216000D01*
X649568Y221142D02*
X649282Y221713D01*
X648425Y221999D01*
X647854D01*
X646997Y221713D01*
X646425Y220856D01*
X646140Y219428D01*
Y218000D01*
X646425Y216857D01*
X646997Y216286D01*
X647854Y216000D01*
X648139D01*
X648996Y216286D01*
X649568Y216857D01*
X649853Y217714D01*
Y218000D01*
X649568Y218857D01*
X648996Y219428D01*
X648139Y219713D01*
X647854D01*
X646997Y219428D01*
X646425Y218857D01*
X646140Y218000D01*
X632000Y285999D02*
Y280000D01*
Y285999D02*
X634000D01*
X634856Y285713D01*
X635428Y285142D01*
X635714Y284570D01*
X635999Y283713D01*
Y282285D01*
X635714Y281428D01*
X635428Y280857D01*
X634856Y280286D01*
X634000Y280000D01*
X632000D01*
X637342Y284856D02*
X637913Y285142D01*
X638770Y285999D01*
Y280000D01*
X641741Y284856D02*
X642312Y285142D01*
X643169Y285999D01*
Y280000D01*
X647568Y285999D02*
X646711Y285713D01*
X646425Y285142D01*
Y284570D01*
X646711Y283999D01*
X647282Y283713D01*
X648425Y283428D01*
X649282Y283142D01*
X649853Y282571D01*
X650139Y282000D01*
Y281143D01*
X649853Y280571D01*
X649568Y280286D01*
X648711Y280000D01*
X647568D01*
X646711Y280286D01*
X646425Y280571D01*
X646140Y281143D01*
Y282000D01*
X646425Y282571D01*
X646997Y283142D01*
X647854Y283428D01*
X648996Y283713D01*
X649568Y283999D01*
X649853Y284570D01*
Y285142D01*
X649568Y285713D01*
X648711Y285999D01*
X647568D01*
X632000Y180999D02*
Y175000D01*
Y180999D02*
X634000D01*
X634856Y180713D01*
X635428Y180142D01*
X635714Y179571D01*
X635999Y178713D01*
Y177285D01*
X635714Y176428D01*
X635428Y175857D01*
X634856Y175286D01*
X634000Y175000D01*
X632000D01*
X637342Y179856D02*
X637913Y180142D01*
X638770Y180999D01*
Y175000D01*
X641741Y179856D02*
X642312Y180142D01*
X643169Y180999D01*
Y175000D01*
X649853Y178999D02*
X649568Y178142D01*
X648996Y177571D01*
X648139Y177285D01*
X647854D01*
X646997Y177571D01*
X646425Y178142D01*
X646140Y178999D01*
Y179285D01*
X646425Y180142D01*
X646997Y180713D01*
X647854Y180999D01*
X648139D01*
X648996Y180713D01*
X649568Y180142D01*
X649853Y178999D01*
Y177571D01*
X649568Y176143D01*
X648996Y175286D01*
X648139Y175000D01*
X647568D01*
X646711Y175286D01*
X646425Y175857D01*
X800001Y356000D02*
X806000D01*
X800001D02*
Y358000D01*
X800287Y358857D01*
X800858Y359428D01*
X801430Y359714D01*
X802287Y359999D01*
X803715D01*
X804572Y359714D01*
X805143Y359428D01*
X805714Y358857D01*
X806000Y358000D01*
Y356000D01*
X801144Y361342D02*
X800858Y361913D01*
X800001Y362770D01*
X806000D01*
X801430Y366026D02*
X801144D01*
X800573Y366312D01*
X800287Y366598D01*
X800001Y367169D01*
Y368312D01*
X800287Y368883D01*
X800573Y369169D01*
X801144Y369454D01*
X801715D01*
X802287Y369169D01*
X803143Y368597D01*
X806000Y365741D01*
Y369740D01*
X801144Y371082D02*
X800858Y371654D01*
X800001Y372511D01*
X806000D01*
X632000Y388999D02*
Y383000D01*
Y388999D02*
X634000D01*
X634856Y388713D01*
X635428Y388142D01*
X635714Y387570D01*
X635999Y386713D01*
Y385285D01*
X635714Y384428D01*
X635428Y383857D01*
X634856Y383286D01*
X634000Y383000D01*
X632000D01*
X637342Y387856D02*
X637913Y388142D01*
X638770Y388999D01*
Y383000D01*
X642026Y387570D02*
Y387856D01*
X642312Y388427D01*
X642598Y388713D01*
X643169Y388999D01*
X644312D01*
X644883Y388713D01*
X645169Y388427D01*
X645454Y387856D01*
Y387285D01*
X645169Y386713D01*
X644597Y385857D01*
X641741Y383000D01*
X645740D01*
X648511Y388999D02*
X647654Y388713D01*
X647368Y388142D01*
Y387570D01*
X647654Y386999D01*
X648225Y386713D01*
X649368Y386428D01*
X650225Y386142D01*
X650796Y385571D01*
X651082Y385000D01*
Y384143D01*
X650796Y383571D01*
X650510Y383286D01*
X649653Y383000D01*
X648511D01*
X647654Y383286D01*
X647368Y383571D01*
X647082Y384143D01*
Y385000D01*
X647368Y385571D01*
X647939Y386142D01*
X648796Y386428D01*
X649939Y386713D01*
X650510Y386999D01*
X650796Y387570D01*
Y388142D01*
X650510Y388713D01*
X649653Y388999D01*
X648511D01*
X779001Y356000D02*
X785000D01*
X779001D02*
Y358000D01*
X779287Y358857D01*
X779858Y359428D01*
X780430Y359714D01*
X781286Y359999D01*
X782715D01*
X783572Y359714D01*
X784143Y359428D01*
X784714Y358857D01*
X785000Y358000D01*
Y356000D01*
X780144Y361342D02*
X779858Y361913D01*
X779001Y362770D01*
X785000D01*
X780430Y366026D02*
X780144D01*
X779573Y366312D01*
X779287Y366598D01*
X779001Y367169D01*
Y368312D01*
X779287Y368883D01*
X779573Y369169D01*
X780144Y369454D01*
X780715D01*
X781286Y369169D01*
X782143Y368597D01*
X785000Y365741D01*
Y369740D01*
X779001Y374510D02*
Y371654D01*
X781572Y371368D01*
X781286Y371654D01*
X781001Y372511D01*
Y373368D01*
X781286Y374225D01*
X781858Y374796D01*
X782715Y375082D01*
X783286D01*
X784143Y374796D01*
X784714Y374225D01*
X785000Y373368D01*
Y372511D01*
X784714Y371654D01*
X784429Y371368D01*
X783857Y371082D01*
X651001Y343000D02*
X657000D01*
X651001D02*
Y345000D01*
X651287Y345857D01*
X651858Y346428D01*
X652430Y346713D01*
X653287Y346999D01*
X654715D01*
X655572Y346713D01*
X656143Y346428D01*
X656714Y345857D01*
X657000Y345000D01*
Y343000D01*
X652144Y348342D02*
X651858Y348913D01*
X651001Y349770D01*
X657000D01*
X652430Y353026D02*
X652144D01*
X651573Y353312D01*
X651287Y353598D01*
X651001Y354169D01*
Y355312D01*
X651287Y355883D01*
X651573Y356169D01*
X652144Y356454D01*
X652715D01*
X653287Y356169D01*
X654144Y355597D01*
X657000Y352741D01*
Y356740D01*
X651001Y362082D02*
X657000Y359225D01*
X651001Y358082D02*
Y362082D01*
X632000Y408999D02*
Y403000D01*
Y408999D02*
X634000D01*
X634856Y408713D01*
X635428Y408142D01*
X635714Y407570D01*
X635999Y406713D01*
Y405285D01*
X635714Y404428D01*
X635428Y403857D01*
X634856Y403286D01*
X634000Y403000D01*
X632000D01*
X637342Y407856D02*
X637913Y408142D01*
X638770Y408999D01*
Y403000D01*
X642026Y407570D02*
Y407856D01*
X642312Y408427D01*
X642598Y408713D01*
X643169Y408999D01*
X644312D01*
X644883Y408713D01*
X645169Y408427D01*
X645454Y407856D01*
Y407285D01*
X645169Y406713D01*
X644597Y405857D01*
X641741Y403000D01*
X645740D01*
X647654Y408999D02*
X650796D01*
X649082Y406713D01*
X649939D01*
X650510Y406428D01*
X650796Y406142D01*
X651082Y405285D01*
Y404714D01*
X650796Y403857D01*
X650225Y403286D01*
X649368Y403000D01*
X648511D01*
X647654Y403286D01*
X647368Y403571D01*
X647082Y404143D01*
X602001Y296000D02*
X608000D01*
X602001D02*
Y298000D01*
X602287Y298857D01*
X602858Y299428D01*
X603430Y299713D01*
X604286Y299999D01*
X605715D01*
X606572Y299713D01*
X607143Y299428D01*
X607714Y298857D01*
X608000Y298000D01*
Y296000D01*
X603144Y301342D02*
X602858Y301913D01*
X602001Y302770D01*
X608000D01*
X602001Y306312D02*
Y309454D01*
X604286Y307740D01*
Y308597D01*
X604572Y309169D01*
X604858Y309454D01*
X605715Y309740D01*
X606286D01*
X607143Y309454D01*
X607714Y308883D01*
X608000Y308026D01*
Y307169D01*
X607714Y306312D01*
X607429Y306026D01*
X606857Y305741D01*
X602001Y312796D02*
X602287Y311939D01*
X603144Y311368D01*
X604572Y311082D01*
X605429D01*
X606857Y311368D01*
X607714Y311939D01*
X608000Y312796D01*
Y313368D01*
X607714Y314225D01*
X606857Y314796D01*
X605429Y315082D01*
X604572D01*
X603144Y314796D01*
X602287Y314225D01*
X602001Y313368D01*
Y312796D01*
X249378Y64000D02*
X255377D01*
X249378D02*
Y66000D01*
X249664Y66856D01*
X250235Y67428D01*
X250806Y67713D01*
X251663Y67999D01*
X253092D01*
X253949Y67713D01*
X254520Y67428D01*
X255091Y66856D01*
X255377Y66000D01*
Y64000D01*
X250521Y69342D02*
X250235Y69913D01*
X249378Y70770D01*
X255377D01*
X249378Y74312D02*
Y77454D01*
X251663Y75740D01*
Y76597D01*
X251949Y77169D01*
X252235Y77454D01*
X253092Y77740D01*
X253663D01*
X254520Y77454D01*
X255091Y76883D01*
X255377Y76026D01*
Y75169D01*
X255091Y74312D01*
X254806Y74026D01*
X254234Y73741D01*
X249378Y79654D02*
Y82796D01*
X251663Y81082D01*
Y81939D01*
X251949Y82510D01*
X252235Y82796D01*
X253092Y83082D01*
X253663D01*
X254520Y82796D01*
X255091Y82225D01*
X255377Y81368D01*
Y80511D01*
X255091Y79654D01*
X254806Y79368D01*
X254234Y79082D01*
X269001Y62000D02*
X275000D01*
X269001D02*
Y64000D01*
X269287Y64857D01*
X269858Y65428D01*
X270430Y65714D01*
X271287Y65999D01*
X272715D01*
X273572Y65714D01*
X274143Y65428D01*
X274714Y64857D01*
X275000Y64000D01*
Y62000D01*
X270144Y67342D02*
X269858Y67913D01*
X269001Y68770D01*
X275000D01*
X269001Y72312D02*
Y75454D01*
X271287Y73740D01*
Y74597D01*
X271572Y75169D01*
X271858Y75454D01*
X272715Y75740D01*
X273286D01*
X274143Y75454D01*
X274714Y74883D01*
X275000Y74026D01*
Y73169D01*
X274714Y72312D01*
X274429Y72026D01*
X273857Y71741D01*
X269001Y79939D02*
X273000Y77082D01*
Y81367D01*
X269001Y79939D02*
X275000D01*
X250001Y19000D02*
X256000D01*
X250001D02*
Y21000D01*
X250287Y21857D01*
X250858Y22428D01*
X251430Y22713D01*
X252286Y22999D01*
X253715D01*
X254572Y22713D01*
X255143Y22428D01*
X255714Y21857D01*
X256000Y21000D01*
Y19000D01*
X251144Y24342D02*
X250858Y24913D01*
X250001Y25770D01*
X256000D01*
X250001Y29312D02*
Y32454D01*
X252286Y30740D01*
Y31597D01*
X252572Y32169D01*
X252858Y32454D01*
X253715Y32740D01*
X254286D01*
X255143Y32454D01*
X255714Y31883D01*
X256000Y31026D01*
Y30169D01*
X255714Y29312D01*
X255429Y29026D01*
X254857Y28741D01*
X250001Y37510D02*
Y34654D01*
X252572Y34368D01*
X252286Y34654D01*
X252001Y35511D01*
Y36368D01*
X252286Y37225D01*
X252858Y37796D01*
X253715Y38082D01*
X254286D01*
X255143Y37796D01*
X255714Y37225D01*
X256000Y36368D01*
Y35511D01*
X255714Y34654D01*
X255429Y34368D01*
X254857Y34082D01*
X270378Y21000D02*
X276377D01*
X270378D02*
Y22999D01*
X270664Y23856D01*
X271235Y24428D01*
X271806Y24713D01*
X272663Y24999D01*
X274092D01*
X274949Y24713D01*
X275520Y24428D01*
X276091Y23856D01*
X276377Y22999D01*
Y21000D01*
X271521Y26342D02*
X271235Y26913D01*
X270378Y27770D01*
X276377D01*
X270378Y31312D02*
Y34454D01*
X272663Y32740D01*
Y33597D01*
X272949Y34169D01*
X273235Y34454D01*
X274092Y34740D01*
X274663D01*
X275520Y34454D01*
X276091Y33883D01*
X276377Y33026D01*
Y32169D01*
X276091Y31312D01*
X275805Y31026D01*
X275234Y30741D01*
X271235Y39510D02*
X270664Y39225D01*
X270378Y38368D01*
Y37796D01*
X270664Y36939D01*
X271521Y36368D01*
X272949Y36082D01*
X274377D01*
X275520Y36368D01*
X276091Y36939D01*
X276377Y37796D01*
Y38082D01*
X276091Y38939D01*
X275520Y39510D01*
X274663Y39796D01*
X274377D01*
X273520Y39510D01*
X272949Y38939D01*
X272663Y38082D01*
Y37796D01*
X272949Y36939D01*
X273520Y36368D01*
X274377Y36082D01*
X479000Y136999D02*
Y131000D01*
Y136999D02*
X482714D01*
X479000Y134142D02*
X481285D01*
X483399Y136999D02*
Y131000D01*
Y136999D02*
X485970D01*
X486827Y136713D01*
X487113Y136427D01*
X487398Y135856D01*
Y135285D01*
X487113Y134713D01*
X486827Y134428D01*
X485970Y134142D01*
X483399D02*
X485970D01*
X486827Y133856D01*
X487113Y133571D01*
X487398Y133000D01*
Y132143D01*
X487113Y131571D01*
X486827Y131286D01*
X485970Y131000D01*
X483399D01*
X488741Y135856D02*
X489312Y136142D01*
X490169Y136999D01*
Y131000D01*
X494854Y136999D02*
X493997Y136713D01*
X493425Y135856D01*
X493140Y134428D01*
Y133571D01*
X493425Y132143D01*
X493997Y131286D01*
X494854Y131000D01*
X495425D01*
X496282Y131286D01*
X496853Y132143D01*
X497139Y133571D01*
Y134428D01*
X496853Y135856D01*
X496282Y136713D01*
X495425Y136999D01*
X494854D01*
X500195D02*
X499338Y136713D01*
X498767Y135856D01*
X498481Y134428D01*
Y133571D01*
X498767Y132143D01*
X499338Y131286D01*
X500195Y131000D01*
X500767D01*
X501624Y131286D01*
X502195Y132143D01*
X502481Y133571D01*
Y134428D01*
X502195Y135856D01*
X501624Y136713D01*
X500767Y136999D01*
X500195D01*
X555001Y132000D02*
X561000D01*
X555001D02*
Y135714D01*
X557858Y132000D02*
Y134285D01*
X555001Y136399D02*
X561000D01*
X555001D02*
Y138970D01*
X555287Y139827D01*
X555573Y140112D01*
X556144Y140398D01*
X556715D01*
X557286Y140112D01*
X557572Y139827D01*
X557858Y138970D01*
Y136399D02*
Y138970D01*
X558144Y139827D01*
X558429Y140112D01*
X559000Y140398D01*
X559857D01*
X560429Y140112D01*
X560714Y139827D01*
X561000Y138970D01*
Y136399D01*
X556144Y141741D02*
X555858Y142312D01*
X555001Y143169D01*
X561000D01*
X555001Y147854D02*
X555287Y146997D01*
X556144Y146425D01*
X557572Y146140D01*
X558429D01*
X559857Y146425D01*
X560714Y146997D01*
X561000Y147854D01*
Y148425D01*
X560714Y149282D01*
X559857Y149853D01*
X558429Y150139D01*
X557572D01*
X556144Y149853D01*
X555287Y149282D01*
X555001Y148425D01*
Y147854D01*
X556144Y151482D02*
X555858Y152053D01*
X555001Y152910D01*
X561000D01*
X636000Y160999D02*
Y155000D01*
Y160999D02*
X639714D01*
X636000Y158142D02*
X638285D01*
X640399Y160999D02*
Y155000D01*
Y160999D02*
X642970D01*
X643827Y160713D01*
X644112Y160427D01*
X644398Y159856D01*
Y159285D01*
X644112Y158714D01*
X643827Y158428D01*
X642970Y158142D01*
X640399D02*
X642970D01*
X643827Y157857D01*
X644112Y157571D01*
X644398Y157000D01*
Y156143D01*
X644112Y155571D01*
X643827Y155286D01*
X642970Y155000D01*
X640399D01*
X645741Y159856D02*
X646312Y160142D01*
X647169Y160999D01*
Y155000D01*
X651854Y160999D02*
X650997Y160713D01*
X650425Y159856D01*
X650140Y158428D01*
Y157571D01*
X650425Y156143D01*
X650997Y155286D01*
X651854Y155000D01*
X652425D01*
X653282Y155286D01*
X653853Y156143D01*
X654139Y157571D01*
Y158428D01*
X653853Y159856D01*
X653282Y160713D01*
X652425Y160999D01*
X651854D01*
X655767Y159570D02*
Y159856D01*
X656053Y160427D01*
X656338Y160713D01*
X656910Y160999D01*
X658052D01*
X658624Y160713D01*
X658909Y160427D01*
X659195Y159856D01*
Y159285D01*
X658909Y158714D01*
X658338Y157857D01*
X655481Y155000D01*
X659481D01*
X766001Y169000D02*
X772000D01*
X766001D02*
Y172714D01*
X768858Y169000D02*
Y171285D01*
X766001Y173399D02*
X772000D01*
X766001D02*
Y175970D01*
X766287Y176827D01*
X766573Y177113D01*
X767144Y177398D01*
X767715D01*
X768287Y177113D01*
X768572Y176827D01*
X768858Y175970D01*
Y173399D02*
Y175970D01*
X769144Y176827D01*
X769429Y177113D01*
X770000Y177398D01*
X770857D01*
X771429Y177113D01*
X771714Y176827D01*
X772000Y175970D01*
Y173399D01*
X767144Y178741D02*
X766858Y179312D01*
X766001Y180169D01*
X772000D01*
X766001Y184854D02*
X766287Y183997D01*
X767144Y183425D01*
X768572Y183140D01*
X769429D01*
X770857Y183425D01*
X771714Y183997D01*
X772000Y184854D01*
Y185425D01*
X771714Y186282D01*
X770857Y186853D01*
X769429Y187139D01*
X768572D01*
X767144Y186853D01*
X766287Y186282D01*
X766001Y185425D01*
Y184854D01*
Y191338D02*
X770000Y188482D01*
Y192766D01*
X766001Y191338D02*
X772000D01*
X806501Y170000D02*
X812500D01*
X806501D02*
Y173713D01*
X809358Y170000D02*
Y172285D01*
X806501Y174399D02*
X812500D01*
X806501D02*
Y176970D01*
X806787Y177827D01*
X807073Y178113D01*
X807644Y178398D01*
X808215D01*
X808786Y178113D01*
X809072Y177827D01*
X809358Y176970D01*
Y174399D02*
Y176970D01*
X809643Y177827D01*
X809929Y178113D01*
X810500Y178398D01*
X811357D01*
X811929Y178113D01*
X812214Y177827D01*
X812500Y176970D01*
Y174399D01*
X807644Y179741D02*
X807358Y180312D01*
X806501Y181169D01*
X812500D01*
X806501Y185854D02*
X806787Y184997D01*
X807644Y184425D01*
X809072Y184140D01*
X809929D01*
X811357Y184425D01*
X812214Y184997D01*
X812500Y185854D01*
Y186425D01*
X812214Y187282D01*
X811357Y187853D01*
X809929Y188139D01*
X809072D01*
X807644Y187853D01*
X806787Y187282D01*
X806501Y186425D01*
Y185854D01*
Y192909D02*
Y190053D01*
X809072Y189767D01*
X808786Y190053D01*
X808501Y190910D01*
Y191767D01*
X808786Y192624D01*
X809358Y193195D01*
X810215Y193481D01*
X810786D01*
X811643Y193195D01*
X812214Y192624D01*
X812500Y191767D01*
Y190910D01*
X812214Y190053D01*
X811929Y189767D01*
X811357Y189482D01*
X597000Y273999D02*
Y268000D01*
Y273999D02*
X600714D01*
X597000Y271142D02*
X599285D01*
X601399Y273999D02*
Y268000D01*
Y273999D02*
X603970D01*
X604827Y273713D01*
X605112Y273427D01*
X605398Y272856D01*
Y272285D01*
X605112Y271714D01*
X604827Y271428D01*
X603970Y271142D01*
X601399D02*
X603970D01*
X604827Y270856D01*
X605112Y270571D01*
X605398Y270000D01*
Y269143D01*
X605112Y268571D01*
X604827Y268286D01*
X603970Y268000D01*
X601399D01*
X606741Y272856D02*
X607312Y273142D01*
X608169Y273999D01*
Y268000D01*
X612854Y273999D02*
X611997Y273713D01*
X611425Y272856D01*
X611140Y271428D01*
Y270571D01*
X611425Y269143D01*
X611997Y268286D01*
X612854Y268000D01*
X613425D01*
X614282Y268286D01*
X614853Y269143D01*
X615139Y270571D01*
Y271428D01*
X614853Y272856D01*
X614282Y273713D01*
X613425Y273999D01*
X612854D01*
X619909Y273142D02*
X619624Y273713D01*
X618767Y273999D01*
X618195D01*
X617338Y273713D01*
X616767Y272856D01*
X616482Y271428D01*
Y270000D01*
X616767Y268857D01*
X617338Y268286D01*
X618195Y268000D01*
X618481D01*
X619338Y268286D01*
X619909Y268857D01*
X620195Y269714D01*
Y270000D01*
X619909Y270856D01*
X619338Y271428D01*
X618481Y271714D01*
X618195D01*
X617338Y271428D01*
X616767Y270856D01*
X616482Y270000D01*
X632001Y348000D02*
X638000D01*
X632001D02*
Y351713D01*
X634858Y348000D02*
Y350285D01*
X632001Y352399D02*
X638000D01*
X632001D02*
Y354970D01*
X632287Y355827D01*
X632573Y356113D01*
X633144Y356398D01*
X633715D01*
X634286Y356113D01*
X634572Y355827D01*
X634858Y354970D01*
Y352399D02*
Y354970D01*
X635144Y355827D01*
X635429Y356113D01*
X636000Y356398D01*
X636857D01*
X637429Y356113D01*
X637714Y355827D01*
X638000Y354970D01*
Y352399D01*
X633144Y357741D02*
X632858Y358312D01*
X632001Y359169D01*
X638000D01*
X633144Y362140D02*
X632858Y362711D01*
X632001Y363568D01*
X638000D01*
X632001Y367110D02*
Y370252D01*
X634286Y368538D01*
Y369395D01*
X634572Y369967D01*
X634858Y370252D01*
X635715Y370538D01*
X636286D01*
X637143Y370252D01*
X637714Y369681D01*
X638000Y368824D01*
Y367967D01*
X637714Y367110D01*
X637429Y366824D01*
X636857Y366539D01*
X381200Y376199D02*
Y370200D01*
X384628D01*
X385285Y375056D02*
X385856Y375342D01*
X386713Y376199D01*
Y370200D01*
X391398Y376199D02*
X390541Y375913D01*
X389969Y375056D01*
X389684Y373628D01*
Y372771D01*
X389969Y371343D01*
X390541Y370486D01*
X391398Y370200D01*
X391969D01*
X392826Y370486D01*
X393397Y371343D01*
X393683Y372771D01*
Y373628D01*
X393397Y375056D01*
X392826Y375913D01*
X391969Y376199D01*
X391398D01*
X396740D02*
X395882Y375913D01*
X395311Y375056D01*
X395026Y373628D01*
Y372771D01*
X395311Y371343D01*
X395882Y370486D01*
X396740Y370200D01*
X397311D01*
X398168Y370486D01*
X398739Y371343D01*
X399025Y372771D01*
Y373628D01*
X398739Y375056D01*
X398168Y375913D01*
X397311Y376199D01*
X396740D01*
X519914Y169770D02*
X519343Y169484D01*
X518771Y168913D01*
X518486Y168342D01*
X518200Y167485D01*
Y166056D01*
X518486Y165200D01*
X518771Y164628D01*
X519343Y164057D01*
X519914Y163771D01*
X521057D01*
X521628Y164057D01*
X522199Y164628D01*
X522485Y165200D01*
X522771Y166056D01*
Y167485D01*
X522485Y168342D01*
X522199Y168913D01*
X521628Y169484D01*
X521057Y169770D01*
X519914D01*
X520771Y164914D02*
X522485Y163200D01*
X524170Y168627D02*
X524741Y168913D01*
X525598Y169770D01*
Y163771D01*
X530283Y169770D02*
X529426Y169484D01*
X528855Y168627D01*
X528569Y167199D01*
Y166342D01*
X528855Y164914D01*
X529426Y164057D01*
X530283Y163771D01*
X530854D01*
X531711Y164057D01*
X532283Y164914D01*
X532568Y166342D01*
Y167199D01*
X532283Y168627D01*
X531711Y169484D01*
X530854Y169770D01*
X530283D01*
X535625D02*
X534768Y169484D01*
X534197Y168627D01*
X533911Y167199D01*
Y166342D01*
X534197Y164914D01*
X534768Y164057D01*
X535625Y163771D01*
X536196D01*
X537053Y164057D01*
X537624Y164914D01*
X537910Y166342D01*
Y167199D01*
X537624Y168627D01*
X537053Y169484D01*
X536196Y169770D01*
X535625D01*
X518200Y185056D02*
X518771Y185342D01*
X519628Y186199D01*
Y180200D01*
X630000Y427999D02*
Y422000D01*
Y427999D02*
X632571D01*
X633428Y427713D01*
X633713Y427427D01*
X633999Y426856D01*
Y426285D01*
X633713Y425714D01*
X633428Y425428D01*
X632571Y425142D01*
X630000D01*
X632000D02*
X633999Y422000D01*
X635342Y426856D02*
X635913Y427142D01*
X636770Y427999D01*
Y422000D01*
X641455Y427999D02*
X640598Y427713D01*
X640026Y426856D01*
X639741Y425428D01*
Y424571D01*
X640026Y423143D01*
X640598Y422286D01*
X641455Y422000D01*
X642026D01*
X642883Y422286D01*
X643454Y423143D01*
X643740Y424571D01*
Y425428D01*
X643454Y426856D01*
X642883Y427713D01*
X642026Y427999D01*
X641455D01*
X649082D02*
X646225Y422000D01*
X645082Y427999D02*
X649082D01*
X240000Y311999D02*
Y306000D01*
Y311999D02*
X242571D01*
X243428Y311713D01*
X243713Y311427D01*
X243999Y310856D01*
Y310285D01*
X243713Y309713D01*
X243428Y309428D01*
X242571Y309142D01*
X240000D01*
X242000D02*
X243999Y306000D01*
X245342Y310856D02*
X245913Y311142D01*
X246770Y311999D01*
Y306000D01*
X251455Y311999D02*
X250598Y311713D01*
X250026Y310856D01*
X249741Y309428D01*
Y308571D01*
X250026Y307143D01*
X250598Y306286D01*
X251455Y306000D01*
X252026D01*
X252883Y306286D01*
X253454Y307143D01*
X253740Y308571D01*
Y309428D01*
X253454Y310856D01*
X252883Y311713D01*
X252026Y311999D01*
X251455D01*
X258796Y309999D02*
X258510Y309142D01*
X257939Y308571D01*
X257082Y308285D01*
X256796D01*
X255939Y308571D01*
X255368Y309142D01*
X255082Y309999D01*
Y310285D01*
X255368Y311142D01*
X255939Y311713D01*
X256796Y311999D01*
X257082D01*
X257939Y311713D01*
X258510Y311142D01*
X258796Y309999D01*
Y308571D01*
X258510Y307143D01*
X257939Y306286D01*
X257082Y306000D01*
X256511D01*
X255654Y306286D01*
X255368Y306857D01*
X201000Y313999D02*
Y308000D01*
Y313999D02*
X203571D01*
X204428Y313713D01*
X204713Y313427D01*
X204999Y312856D01*
Y312285D01*
X204713Y311714D01*
X204428Y311428D01*
X203571Y311142D01*
X201000D01*
X203000D02*
X204999Y308000D01*
X206342Y312856D02*
X206913Y313142D01*
X207770Y313999D01*
Y308000D01*
X210741Y312856D02*
X211312Y313142D01*
X212169Y313999D01*
Y308000D01*
X216854Y313999D02*
X215997Y313713D01*
X215425Y312856D01*
X215140Y311428D01*
Y310571D01*
X215425Y309143D01*
X215997Y308286D01*
X216854Y308000D01*
X217425D01*
X218282Y308286D01*
X218853Y309143D01*
X219139Y310571D01*
Y311428D01*
X218853Y312856D01*
X218282Y313713D01*
X217425Y313999D01*
X216854D01*
X71000Y291999D02*
Y286000D01*
Y291999D02*
X73571D01*
X74428Y291713D01*
X74714Y291427D01*
X74999Y290856D01*
Y290285D01*
X74714Y289713D01*
X74428Y289428D01*
X73571Y289142D01*
X71000D01*
X73000D02*
X74999Y286000D01*
X76342Y290856D02*
X76913Y291142D01*
X77770Y291999D01*
Y286000D01*
X80741Y290856D02*
X81312Y291142D01*
X82169Y291999D01*
Y286000D01*
X85140Y290856D02*
X85711Y291142D01*
X86568Y291999D01*
Y286000D01*
X300001Y55000D02*
X306000D01*
X300001D02*
Y57571D01*
X300287Y58428D01*
X300573Y58713D01*
X301144Y58999D01*
X301715D01*
X302286Y58713D01*
X302572Y58428D01*
X302858Y57571D01*
Y55000D01*
Y57000D02*
X306000Y58999D01*
X301144Y60342D02*
X300858Y60913D01*
X300001Y61770D01*
X306000D01*
X301430Y65026D02*
X301144D01*
X300573Y65312D01*
X300287Y65598D01*
X300001Y66169D01*
Y67312D01*
X300287Y67883D01*
X300573Y68169D01*
X301144Y68454D01*
X301715D01*
X302286Y68169D01*
X303144Y67597D01*
X306000Y64741D01*
Y68740D01*
X300001Y70654D02*
Y73796D01*
X302286Y72082D01*
Y72939D01*
X302572Y73510D01*
X302858Y73796D01*
X303715Y74082D01*
X304286D01*
X305143Y73796D01*
X305714Y73225D01*
X306000Y72368D01*
Y71511D01*
X305714Y70654D01*
X305429Y70368D01*
X304857Y70082D01*
X216000Y74999D02*
Y69000D01*
Y74999D02*
X218571D01*
X219428Y74713D01*
X219713Y74427D01*
X219999Y73856D01*
Y73285D01*
X219713Y72713D01*
X219428Y72428D01*
X218571Y72142D01*
X216000D01*
X218000D02*
X219999Y69000D01*
X221342Y73856D02*
X221913Y74142D01*
X222770Y74999D01*
Y69000D01*
X226026Y73570D02*
Y73856D01*
X226312Y74427D01*
X226598Y74713D01*
X227169Y74999D01*
X228312D01*
X228883Y74713D01*
X229169Y74427D01*
X229454Y73856D01*
Y73285D01*
X229169Y72713D01*
X228597Y71856D01*
X225741Y69000D01*
X229740D01*
X233939Y74999D02*
X231082Y71000D01*
X235367D01*
X233939Y74999D02*
Y69000D01*
X286001Y54000D02*
X292000D01*
X286001D02*
Y56571D01*
X286287Y57428D01*
X286573Y57713D01*
X287144Y57999D01*
X287715D01*
X288286Y57713D01*
X288572Y57428D01*
X288858Y56571D01*
Y54000D01*
Y56000D02*
X292000Y57999D01*
X287144Y59342D02*
X286858Y59913D01*
X286001Y60770D01*
X292000D01*
X287430Y64026D02*
X287144D01*
X286573Y64312D01*
X286287Y64598D01*
X286001Y65169D01*
Y66312D01*
X286287Y66883D01*
X286573Y67169D01*
X287144Y67454D01*
X287715D01*
X288286Y67169D01*
X289144Y66597D01*
X292000Y63741D01*
Y67740D01*
X286001Y72510D02*
Y69654D01*
X288572Y69368D01*
X288286Y69654D01*
X288001Y70511D01*
Y71368D01*
X288286Y72225D01*
X288858Y72796D01*
X289715Y73082D01*
X290286D01*
X291143Y72796D01*
X291714Y72225D01*
X292000Y71368D01*
Y70511D01*
X291714Y69654D01*
X291429Y69368D01*
X290857Y69082D01*
X302001Y15000D02*
X308000D01*
X302001D02*
Y17571D01*
X302287Y18428D01*
X302573Y18714D01*
X303144Y18999D01*
X303715D01*
X304286Y18714D01*
X304572Y18428D01*
X304858Y17571D01*
Y15000D01*
Y17000D02*
X308000Y18999D01*
X303144Y20342D02*
X302858Y20913D01*
X302001Y21770D01*
X308000D01*
X303430Y25026D02*
X303144D01*
X302573Y25312D01*
X302287Y25598D01*
X302001Y26169D01*
Y27312D01*
X302287Y27883D01*
X302573Y28169D01*
X303144Y28454D01*
X303715D01*
X304286Y28169D01*
X305144Y27597D01*
X308000Y24741D01*
Y28740D01*
X302858Y33510D02*
X302287Y33225D01*
X302001Y32368D01*
Y31796D01*
X302287Y30939D01*
X303144Y30368D01*
X304572Y30082D01*
X306000D01*
X307143Y30368D01*
X307714Y30939D01*
X308000Y31796D01*
Y32082D01*
X307714Y32939D01*
X307143Y33510D01*
X306286Y33796D01*
X306000D01*
X305144Y33510D01*
X304572Y32939D01*
X304286Y32082D01*
Y31796D01*
X304572Y30939D01*
X305144Y30368D01*
X306000Y30082D01*
X216000Y26999D02*
Y21000D01*
Y26999D02*
X218571D01*
X219428Y26713D01*
X219713Y26427D01*
X219999Y25856D01*
Y25285D01*
X219713Y24713D01*
X219428Y24428D01*
X218571Y24142D01*
X216000D01*
X218000D02*
X219999Y21000D01*
X221342Y25856D02*
X221913Y26142D01*
X222770Y26999D01*
Y21000D01*
X226026Y25570D02*
Y25856D01*
X226312Y26427D01*
X226598Y26713D01*
X227169Y26999D01*
X228312D01*
X228883Y26713D01*
X229169Y26427D01*
X229454Y25856D01*
Y25285D01*
X229169Y24713D01*
X228597Y23856D01*
X225741Y21000D01*
X229740D01*
X235082Y26999D02*
X232225Y21000D01*
X231082Y26999D02*
X235082D01*
X286001Y15000D02*
X292000D01*
X286001D02*
Y17571D01*
X286287Y18428D01*
X286573Y18714D01*
X287144Y18999D01*
X287715D01*
X288286Y18714D01*
X288572Y18428D01*
X288858Y17571D01*
Y15000D01*
Y17000D02*
X292000Y18999D01*
X287144Y20342D02*
X286858Y20913D01*
X286001Y21770D01*
X292000D01*
X287430Y25026D02*
X287144D01*
X286573Y25312D01*
X286287Y25598D01*
X286001Y26169D01*
Y27312D01*
X286287Y27883D01*
X286573Y28169D01*
X287144Y28454D01*
X287715D01*
X288286Y28169D01*
X289144Y27597D01*
X292000Y24741D01*
Y28740D01*
X286001Y31511D02*
X286287Y30654D01*
X286858Y30368D01*
X287430D01*
X288001Y30654D01*
X288286Y31225D01*
X288572Y32368D01*
X288858Y33225D01*
X289429Y33796D01*
X290000Y34082D01*
X290857D01*
X291429Y33796D01*
X291714Y33510D01*
X292000Y32653D01*
Y31511D01*
X291714Y30654D01*
X291429Y30368D01*
X290857Y30082D01*
X290000D01*
X289429Y30368D01*
X288858Y30939D01*
X288572Y31796D01*
X288286Y32939D01*
X288001Y33510D01*
X287430Y33796D01*
X286858D01*
X286287Y33510D01*
X286001Y32653D01*
Y31511D01*
X448000Y47999D02*
Y42000D01*
Y47999D02*
X450571D01*
X451428Y47713D01*
X451713Y47427D01*
X451999Y46856D01*
Y46285D01*
X451713Y45714D01*
X451428Y45428D01*
X450571Y45142D01*
X448000D01*
X450000D02*
X451999Y42000D01*
X453342Y46856D02*
X453913Y47142D01*
X454770Y47999D01*
Y42000D01*
X458312Y47999D02*
X461454D01*
X459740Y45714D01*
X460597D01*
X461169Y45428D01*
X461454Y45142D01*
X461740Y44285D01*
Y43714D01*
X461454Y42857D01*
X460883Y42286D01*
X460026Y42000D01*
X459169D01*
X458312Y42286D01*
X458026Y42571D01*
X457741Y43143D01*
X463654Y47999D02*
X466796D01*
X465082Y45714D01*
X465939D01*
X466510Y45428D01*
X466796Y45142D01*
X467082Y44285D01*
Y43714D01*
X466796Y42857D01*
X466225Y42286D01*
X465368Y42000D01*
X464511D01*
X463654Y42286D01*
X463368Y42571D01*
X463082Y43143D01*
X448000Y18999D02*
Y13000D01*
Y18999D02*
X450571D01*
X451428Y18713D01*
X451713Y18427D01*
X451999Y17856D01*
Y17285D01*
X451713Y16714D01*
X451428Y16428D01*
X450571Y16142D01*
X448000D01*
X450000D02*
X451999Y13000D01*
X453342Y17856D02*
X453913Y18142D01*
X454770Y18999D01*
Y13000D01*
X458312Y18999D02*
X461454D01*
X459740Y16714D01*
X460597D01*
X461169Y16428D01*
X461454Y16142D01*
X461740Y15285D01*
Y14714D01*
X461454Y13857D01*
X460883Y13286D01*
X460026Y13000D01*
X459169D01*
X458312Y13286D01*
X458026Y13571D01*
X457741Y14143D01*
X466510Y18142D02*
X466225Y18713D01*
X465368Y18999D01*
X464796D01*
X463939Y18713D01*
X463368Y17856D01*
X463082Y16428D01*
Y15000D01*
X463368Y13857D01*
X463939Y13286D01*
X464796Y13000D01*
X465082D01*
X465939Y13286D01*
X466510Y13857D01*
X466796Y14714D01*
Y15000D01*
X466510Y15856D01*
X465939Y16428D01*
X465082Y16714D01*
X464796D01*
X463939Y16428D01*
X463368Y15856D01*
X463082Y15000D01*
X453001Y150000D02*
X459000D01*
X453001D02*
Y152571D01*
X453287Y153428D01*
X453573Y153714D01*
X454144Y153999D01*
X454715D01*
X455286Y153714D01*
X455572Y153428D01*
X455858Y152571D01*
Y150000D01*
Y152000D02*
X459000Y153999D01*
X454144Y155342D02*
X453858Y155913D01*
X453001Y156770D01*
X459000D01*
X453858Y163169D02*
X453287Y162883D01*
X453001Y162026D01*
Y161455D01*
X453287Y160598D01*
X454144Y160026D01*
X455572Y159741D01*
X457000D01*
X458143Y160026D01*
X458714Y160598D01*
X459000Y161455D01*
Y161740D01*
X458714Y162597D01*
X458143Y163169D01*
X457286Y163454D01*
X457000D01*
X456143Y163169D01*
X455572Y162597D01*
X455286Y161740D01*
Y161455D01*
X455572Y160598D01*
X456143Y160026D01*
X457000Y159741D01*
X453001Y167625D02*
X457000Y164768D01*
Y169053D01*
X453001Y167625D02*
X459000D01*
X499001Y166000D02*
X505000D01*
X499001D02*
Y168571D01*
X499287Y169428D01*
X499573Y169713D01*
X500144Y169999D01*
X500715D01*
X501287Y169713D01*
X501572Y169428D01*
X501858Y168571D01*
Y166000D01*
Y168000D02*
X505000Y169999D01*
X500144Y171342D02*
X499858Y171913D01*
X499001Y172770D01*
X505000D01*
X499858Y179169D02*
X499287Y178883D01*
X499001Y178026D01*
Y177455D01*
X499287Y176598D01*
X500144Y176026D01*
X501572Y175741D01*
X503000D01*
X504143Y176026D01*
X504714Y176598D01*
X505000Y177455D01*
Y177740D01*
X504714Y178597D01*
X504143Y179169D01*
X503286Y179454D01*
X503000D01*
X502144Y179169D01*
X501572Y178597D01*
X501287Y177740D01*
Y177455D01*
X501572Y176598D01*
X502144Y176026D01*
X503000Y175741D01*
X499858Y184196D02*
X499287Y183910D01*
X499001Y183053D01*
Y182482D01*
X499287Y181625D01*
X500144Y181054D01*
X501572Y180768D01*
X503000D01*
X504143Y181054D01*
X504714Y181625D01*
X505000Y182482D01*
Y182768D01*
X504714Y183625D01*
X504143Y184196D01*
X503286Y184482D01*
X503000D01*
X502144Y184196D01*
X501572Y183625D01*
X501287Y182768D01*
Y182482D01*
X501572Y181625D01*
X502144Y181054D01*
X503000Y180768D01*
X296000Y191999D02*
Y186000D01*
Y191999D02*
X298571D01*
X299428Y191713D01*
X299713Y191427D01*
X299999Y190856D01*
Y190285D01*
X299713Y189713D01*
X299428Y189428D01*
X298571Y189142D01*
X296000D01*
X298000D02*
X299999Y186000D01*
X301342Y190856D02*
X301913Y191142D01*
X302770Y191999D01*
Y186000D01*
X309169Y191142D02*
X308883Y191713D01*
X308026Y191999D01*
X307455D01*
X306598Y191713D01*
X306026Y190856D01*
X305741Y189428D01*
Y188000D01*
X306026Y186857D01*
X306598Y186286D01*
X307455Y186000D01*
X307740D01*
X308597Y186286D01*
X309169Y186857D01*
X309454Y187714D01*
Y188000D01*
X309169Y188857D01*
X308597Y189428D01*
X307740Y189713D01*
X307455D01*
X306598Y189428D01*
X306026Y188857D01*
X305741Y188000D01*
X314767Y191999D02*
X311911Y186000D01*
X310768Y191999D02*
X314767D01*
X557001Y162000D02*
X563000D01*
X557001D02*
Y164571D01*
X557287Y165428D01*
X557573Y165714D01*
X558144Y165999D01*
X558715D01*
X559286Y165714D01*
X559572Y165428D01*
X559858Y164571D01*
Y162000D01*
Y164000D02*
X563000Y165999D01*
X558144Y167342D02*
X557858Y167913D01*
X557001Y168770D01*
X563000D01*
X557858Y175169D02*
X557287Y174883D01*
X557001Y174026D01*
Y173455D01*
X557287Y172598D01*
X558144Y172026D01*
X559572Y171741D01*
X561000D01*
X562143Y172026D01*
X562714Y172598D01*
X563000Y173455D01*
Y173740D01*
X562714Y174597D01*
X562143Y175169D01*
X561286Y175454D01*
X561000D01*
X560144Y175169D01*
X559572Y174597D01*
X559286Y173740D01*
Y173455D01*
X559572Y172598D01*
X560144Y172026D01*
X561000Y171741D01*
X557001Y178197D02*
X557287Y177339D01*
X557858Y177054D01*
X558429D01*
X559001Y177339D01*
X559286Y177911D01*
X559572Y179053D01*
X559858Y179910D01*
X560429Y180482D01*
X561000Y180767D01*
X561857D01*
X562429Y180482D01*
X562714Y180196D01*
X563000Y179339D01*
Y178197D01*
X562714Y177339D01*
X562429Y177054D01*
X561857Y176768D01*
X561000D01*
X560429Y177054D01*
X559858Y177625D01*
X559572Y178482D01*
X559286Y179625D01*
X559001Y180196D01*
X558429Y180482D01*
X557858D01*
X557287Y180196D01*
X557001Y179339D01*
Y178197D01*
X306000Y144999D02*
Y139000D01*
Y144999D02*
X308571D01*
X309428Y144713D01*
X309713Y144427D01*
X309999Y143856D01*
Y143285D01*
X309713Y142713D01*
X309428Y142428D01*
X308571Y142142D01*
X306000D01*
X308000D02*
X309999Y139000D01*
X311627Y143570D02*
Y143856D01*
X311913Y144427D01*
X312199Y144713D01*
X312770Y144999D01*
X313913D01*
X314484Y144713D01*
X314769Y144427D01*
X315055Y143856D01*
Y143285D01*
X314769Y142713D01*
X314198Y141856D01*
X311342Y139000D01*
X315341D01*
X318397Y144999D02*
X317540Y144713D01*
X316969Y143856D01*
X316683Y142428D01*
Y141571D01*
X316969Y140143D01*
X317540Y139286D01*
X318397Y139000D01*
X318969D01*
X319826Y139286D01*
X320397Y140143D01*
X320682Y141571D01*
Y142428D01*
X320397Y143856D01*
X319826Y144713D01*
X318969Y144999D01*
X318397D01*
X323739D02*
X322882Y144713D01*
X322311Y143856D01*
X322025Y142428D01*
Y141571D01*
X322311Y140143D01*
X322882Y139286D01*
X323739Y139000D01*
X324310D01*
X325167Y139286D01*
X325739Y140143D01*
X326024Y141571D01*
Y142428D01*
X325739Y143856D01*
X325167Y144713D01*
X324310Y144999D01*
X323739D01*
X319000Y159999D02*
Y154000D01*
Y159999D02*
X321571D01*
X322428Y159713D01*
X322714Y159427D01*
X322999Y158856D01*
Y158285D01*
X322714Y157713D01*
X322428Y157428D01*
X321571Y157142D01*
X319000D01*
X321000D02*
X322999Y154000D01*
X324627Y158570D02*
Y158856D01*
X324913Y159427D01*
X325199Y159713D01*
X325770Y159999D01*
X326913D01*
X327484Y159713D01*
X327770Y159427D01*
X328055Y158856D01*
Y158285D01*
X327770Y157713D01*
X327198Y156856D01*
X324342Y154000D01*
X328341D01*
X331397Y159999D02*
X330540Y159713D01*
X329969Y158856D01*
X329683Y157428D01*
Y156571D01*
X329969Y155143D01*
X330540Y154286D01*
X331397Y154000D01*
X331969D01*
X332826Y154286D01*
X333397Y155143D01*
X333683Y156571D01*
Y157428D01*
X333397Y158856D01*
X332826Y159713D01*
X331969Y159999D01*
X331397D01*
X335025Y158856D02*
X335596Y159142D01*
X336453Y159999D01*
Y154000D01*
X248000Y106999D02*
Y101000D01*
Y106999D02*
X250571D01*
X251428Y106713D01*
X251714Y106427D01*
X251999Y105856D01*
Y105285D01*
X251714Y104713D01*
X251428Y104428D01*
X250571Y104142D01*
X248000D01*
X250000D02*
X251999Y101000D01*
X253627Y105570D02*
Y105856D01*
X253913Y106427D01*
X254199Y106713D01*
X254770Y106999D01*
X255913D01*
X256484Y106713D01*
X256770Y106427D01*
X257055Y105856D01*
Y105285D01*
X256770Y104713D01*
X256198Y103856D01*
X253342Y101000D01*
X257341D01*
X258683Y105856D02*
X259255Y106142D01*
X260112Y106999D01*
Y101000D01*
X264796Y106999D02*
X263939Y106713D01*
X263368Y105856D01*
X263083Y104428D01*
Y103571D01*
X263368Y102143D01*
X263939Y101286D01*
X264796Y101000D01*
X265368D01*
X266225Y101286D01*
X266796Y102143D01*
X267082Y103571D01*
Y104428D01*
X266796Y105856D01*
X266225Y106713D01*
X265368Y106999D01*
X264796D01*
X248000Y182999D02*
Y177000D01*
Y182999D02*
X250571D01*
X251428Y182713D01*
X251714Y182427D01*
X251999Y181856D01*
Y181285D01*
X251714Y180714D01*
X251428Y180428D01*
X250571Y180142D01*
X248000D01*
X250000D02*
X251999Y177000D01*
X253627Y181570D02*
Y181856D01*
X253913Y182427D01*
X254199Y182713D01*
X254770Y182999D01*
X255913D01*
X256484Y182713D01*
X256770Y182427D01*
X257055Y181856D01*
Y181285D01*
X256770Y180714D01*
X256198Y179856D01*
X253342Y177000D01*
X257341D01*
X258683Y181856D02*
X259255Y182142D01*
X260112Y182999D01*
Y177000D01*
X263083Y181856D02*
X263654Y182142D01*
X264511Y182999D01*
Y177000D01*
X248000Y116999D02*
Y111000D01*
Y116999D02*
X250571D01*
X251428Y116713D01*
X251714Y116427D01*
X251999Y115856D01*
Y115285D01*
X251714Y114713D01*
X251428Y114428D01*
X250571Y114142D01*
X248000D01*
X250000D02*
X251999Y111000D01*
X253627Y115570D02*
Y115856D01*
X253913Y116427D01*
X254199Y116713D01*
X254770Y116999D01*
X255913D01*
X256484Y116713D01*
X256770Y116427D01*
X257055Y115856D01*
Y115285D01*
X256770Y114713D01*
X256198Y113856D01*
X253342Y111000D01*
X257341D01*
X258683Y115856D02*
X259255Y116142D01*
X260112Y116999D01*
Y111000D01*
X263368Y115570D02*
Y115856D01*
X263654Y116427D01*
X263939Y116713D01*
X264511Y116999D01*
X265653D01*
X266225Y116713D01*
X266510Y116427D01*
X266796Y115856D01*
Y115285D01*
X266510Y114713D01*
X265939Y113856D01*
X263083Y111000D01*
X267082D01*
X248000Y126999D02*
Y121000D01*
Y126999D02*
X250571D01*
X251428Y126713D01*
X251714Y126427D01*
X251999Y125856D01*
Y125285D01*
X251714Y124713D01*
X251428Y124428D01*
X250571Y124142D01*
X248000D01*
X250000D02*
X251999Y121000D01*
X253627Y125570D02*
Y125856D01*
X253913Y126427D01*
X254199Y126713D01*
X254770Y126999D01*
X255913D01*
X256484Y126713D01*
X256770Y126427D01*
X257055Y125856D01*
Y125285D01*
X256770Y124713D01*
X256198Y123856D01*
X253342Y121000D01*
X257341D01*
X258683Y125856D02*
X259255Y126142D01*
X260112Y126999D01*
Y121000D01*
X265939Y126999D02*
X263083Y123000D01*
X267367D01*
X265939Y126999D02*
Y121000D01*
X161001Y255000D02*
X167000D01*
X161001D02*
Y257571D01*
X161287Y258428D01*
X161573Y258713D01*
X162144Y258999D01*
X162715D01*
X163286Y258713D01*
X163572Y258428D01*
X163858Y257571D01*
Y255000D01*
Y257000D02*
X167000Y258999D01*
X162430Y260627D02*
X162144D01*
X161573Y260913D01*
X161287Y261199D01*
X161001Y261770D01*
Y262913D01*
X161287Y263484D01*
X161573Y263769D01*
X162144Y264055D01*
X162715D01*
X163286Y263769D01*
X164144Y263198D01*
X167000Y260342D01*
Y264341D01*
X162144Y265683D02*
X161858Y266255D01*
X161001Y267112D01*
X167000D01*
X161001Y273510D02*
Y270654D01*
X163572Y270368D01*
X163286Y270654D01*
X163001Y271511D01*
Y272368D01*
X163286Y273225D01*
X163858Y273796D01*
X164715Y274082D01*
X165286D01*
X166143Y273796D01*
X166714Y273225D01*
X167000Y272368D01*
Y271511D01*
X166714Y270654D01*
X166429Y270368D01*
X165857Y270082D01*
X151001Y257000D02*
X157000D01*
X151001D02*
Y259571D01*
X151287Y260428D01*
X151573Y260714D01*
X152144Y260999D01*
X152715D01*
X153287Y260714D01*
X153572Y260428D01*
X153858Y259571D01*
Y257000D01*
Y259000D02*
X157000Y260999D01*
X152430Y262627D02*
X152144D01*
X151573Y262913D01*
X151287Y263199D01*
X151001Y263770D01*
Y264913D01*
X151287Y265484D01*
X151573Y265770D01*
X152144Y266055D01*
X152715D01*
X153287Y265770D01*
X154143Y265198D01*
X157000Y262342D01*
Y266341D01*
X152144Y267683D02*
X151858Y268255D01*
X151001Y269112D01*
X157000D01*
X151858Y275510D02*
X151287Y275225D01*
X151001Y274368D01*
Y273796D01*
X151287Y272939D01*
X152144Y272368D01*
X153572Y272082D01*
X155000D01*
X156143Y272368D01*
X156714Y272939D01*
X157000Y273796D01*
Y274082D01*
X156714Y274939D01*
X156143Y275510D01*
X155286Y275796D01*
X155000D01*
X154143Y275510D01*
X153572Y274939D01*
X153287Y274082D01*
Y273796D01*
X153572Y272939D01*
X154143Y272368D01*
X155000Y272082D01*
X141001Y256000D02*
X147000D01*
X141001D02*
Y258571D01*
X141287Y259428D01*
X141573Y259713D01*
X142144Y259999D01*
X142715D01*
X143287Y259713D01*
X143572Y259428D01*
X143858Y258571D01*
Y256000D01*
Y258000D02*
X147000Y259999D01*
X142430Y261627D02*
X142144D01*
X141573Y261913D01*
X141287Y262199D01*
X141001Y262770D01*
Y263913D01*
X141287Y264484D01*
X141573Y264769D01*
X142144Y265055D01*
X142715D01*
X143287Y264769D01*
X144143Y264198D01*
X147000Y261342D01*
Y265341D01*
X142144Y266683D02*
X141858Y267255D01*
X141001Y268112D01*
X147000D01*
X141001Y272511D02*
X141287Y271654D01*
X141858Y271368D01*
X142430D01*
X143001Y271654D01*
X143287Y272225D01*
X143572Y273368D01*
X143858Y274225D01*
X144429Y274796D01*
X145000Y275082D01*
X145857D01*
X146429Y274796D01*
X146714Y274510D01*
X147000Y273653D01*
Y272511D01*
X146714Y271654D01*
X146429Y271368D01*
X145857Y271082D01*
X145000D01*
X144429Y271368D01*
X143858Y271939D01*
X143572Y272796D01*
X143287Y273939D01*
X143001Y274510D01*
X142430Y274796D01*
X141858D01*
X141287Y274510D01*
X141001Y273653D01*
Y272511D01*
X66000Y230999D02*
Y225000D01*
Y230999D02*
X68571D01*
X69428Y230713D01*
X69714Y230427D01*
X69999Y229856D01*
Y229285D01*
X69714Y228713D01*
X69428Y228428D01*
X68571Y228142D01*
X66000D01*
X68000D02*
X69999Y225000D01*
X71627Y229571D02*
Y229856D01*
X71913Y230427D01*
X72199Y230713D01*
X72770Y230999D01*
X73913D01*
X74484Y230713D01*
X74770Y230427D01*
X75055Y229856D01*
Y229285D01*
X74770Y228713D01*
X74198Y227857D01*
X71342Y225000D01*
X75341D01*
X76969Y229571D02*
Y229856D01*
X77255Y230427D01*
X77540Y230713D01*
X78112Y230999D01*
X79254D01*
X79826Y230713D01*
X80111Y230427D01*
X80397Y229856D01*
Y229285D01*
X80111Y228713D01*
X79540Y227857D01*
X76683Y225000D01*
X80682D01*
X83739Y230999D02*
X82882Y230713D01*
X82311Y229856D01*
X82025Y228428D01*
Y227571D01*
X82311Y226143D01*
X82882Y225286D01*
X83739Y225000D01*
X84310D01*
X85167Y225286D01*
X85739Y226143D01*
X86024Y227571D01*
Y228428D01*
X85739Y229856D01*
X85167Y230713D01*
X84310Y230999D01*
X83739D01*
X131001Y255000D02*
X137000D01*
X131001D02*
Y257571D01*
X131287Y258428D01*
X131573Y258713D01*
X132144Y258999D01*
X132715D01*
X133287Y258713D01*
X133572Y258428D01*
X133858Y257571D01*
Y255000D01*
Y257000D02*
X137000Y258999D01*
X132430Y260627D02*
X132144D01*
X131573Y260913D01*
X131287Y261199D01*
X131001Y261770D01*
Y262913D01*
X131287Y263484D01*
X131573Y263769D01*
X132144Y264055D01*
X132715D01*
X133287Y263769D01*
X134143Y263198D01*
X137000Y260342D01*
Y264341D01*
X132430Y265969D02*
X132144D01*
X131573Y266255D01*
X131287Y266540D01*
X131001Y267112D01*
Y268254D01*
X131287Y268826D01*
X131573Y269111D01*
X132144Y269397D01*
X132715D01*
X133287Y269111D01*
X134143Y268540D01*
X137000Y265683D01*
Y269683D01*
X132430Y271311D02*
X132144D01*
X131573Y271596D01*
X131287Y271882D01*
X131001Y272453D01*
Y273596D01*
X131287Y274167D01*
X131573Y274453D01*
X132144Y274739D01*
X132715D01*
X133287Y274453D01*
X134143Y273882D01*
X137000Y271025D01*
Y275024D01*
X121001Y255000D02*
X127000D01*
X121001D02*
Y257571D01*
X121287Y258428D01*
X121573Y258713D01*
X122144Y258999D01*
X122715D01*
X123287Y258713D01*
X123572Y258428D01*
X123858Y257571D01*
Y255000D01*
Y257000D02*
X127000Y258999D01*
X122430Y260627D02*
X122144D01*
X121573Y260913D01*
X121287Y261199D01*
X121001Y261770D01*
Y262913D01*
X121287Y263484D01*
X121573Y263769D01*
X122144Y264055D01*
X122715D01*
X123287Y263769D01*
X124143Y263198D01*
X127000Y260342D01*
Y264341D01*
X122430Y265969D02*
X122144D01*
X121573Y266255D01*
X121287Y266540D01*
X121001Y267112D01*
Y268254D01*
X121287Y268826D01*
X121573Y269111D01*
X122144Y269397D01*
X122715D01*
X123287Y269111D01*
X124143Y268540D01*
X127000Y265683D01*
Y269683D01*
X121001Y273882D02*
X125000Y271025D01*
Y275310D01*
X121001Y273882D02*
X127000D01*
X66000Y220999D02*
Y215000D01*
Y220999D02*
X68571D01*
X69428Y220713D01*
X69714Y220427D01*
X69999Y219856D01*
Y219285D01*
X69714Y218713D01*
X69428Y218428D01*
X68571Y218142D01*
X66000D01*
X68000D02*
X69999Y215000D01*
X71627Y219571D02*
Y219856D01*
X71913Y220427D01*
X72199Y220713D01*
X72770Y220999D01*
X73913D01*
X74484Y220713D01*
X74770Y220427D01*
X75055Y219856D01*
Y219285D01*
X74770Y218713D01*
X74198Y217857D01*
X71342Y215000D01*
X75341D01*
X76969Y219571D02*
Y219856D01*
X77255Y220427D01*
X77540Y220713D01*
X78112Y220999D01*
X79254D01*
X79826Y220713D01*
X80111Y220427D01*
X80397Y219856D01*
Y219285D01*
X80111Y218713D01*
X79540Y217857D01*
X76683Y215000D01*
X80682D01*
X85453Y220999D02*
X82596D01*
X82311Y218428D01*
X82596Y218713D01*
X83453Y218999D01*
X84310D01*
X85167Y218713D01*
X85739Y218142D01*
X86024Y217285D01*
Y216714D01*
X85739Y215857D01*
X85167Y215286D01*
X84310Y215000D01*
X83453D01*
X82596Y215286D01*
X82311Y215571D01*
X82025Y216143D01*
X248000Y136999D02*
Y131000D01*
Y136999D02*
X250571D01*
X251428Y136713D01*
X251714Y136427D01*
X251999Y135856D01*
Y135285D01*
X251714Y134713D01*
X251428Y134428D01*
X250571Y134142D01*
X248000D01*
X250000D02*
X251999Y131000D01*
X253627Y135570D02*
Y135856D01*
X253913Y136427D01*
X254199Y136713D01*
X254770Y136999D01*
X255913D01*
X256484Y136713D01*
X256770Y136427D01*
X257055Y135856D01*
Y135285D01*
X256770Y134713D01*
X256198Y133856D01*
X253342Y131000D01*
X257341D01*
X259255Y136999D02*
X262397D01*
X260683Y134713D01*
X261540D01*
X262111Y134428D01*
X262397Y134142D01*
X262682Y133285D01*
Y132714D01*
X262397Y131857D01*
X261826Y131286D01*
X260969Y131000D01*
X260112D01*
X259255Y131286D01*
X258969Y131571D01*
X258683Y132143D01*
X264311Y135570D02*
Y135856D01*
X264596Y136427D01*
X264882Y136713D01*
X265453Y136999D01*
X266596D01*
X267167Y136713D01*
X267453Y136427D01*
X267739Y135856D01*
Y135285D01*
X267453Y134713D01*
X266882Y133856D01*
X264025Y131000D01*
X268024D01*
X248000Y146999D02*
Y141000D01*
Y146999D02*
X250571D01*
X251428Y146713D01*
X251714Y146427D01*
X251999Y145856D01*
Y145285D01*
X251714Y144713D01*
X251428Y144428D01*
X250571Y144142D01*
X248000D01*
X250000D02*
X251999Y141000D01*
X253627Y145570D02*
Y145856D01*
X253913Y146427D01*
X254199Y146713D01*
X254770Y146999D01*
X255913D01*
X256484Y146713D01*
X256770Y146427D01*
X257055Y145856D01*
Y145285D01*
X256770Y144713D01*
X256198Y143856D01*
X253342Y141000D01*
X257341D01*
X259255Y146999D02*
X262397D01*
X260683Y144713D01*
X261540D01*
X262111Y144428D01*
X262397Y144142D01*
X262682Y143285D01*
Y142714D01*
X262397Y141857D01*
X261826Y141286D01*
X260969Y141000D01*
X260112D01*
X259255Y141286D01*
X258969Y141571D01*
X258683Y142143D01*
X266882Y146999D02*
X264025Y143000D01*
X268310D01*
X266882Y146999D02*
Y141000D01*
X170001Y255000D02*
X176000D01*
X170001D02*
Y257571D01*
X170287Y258428D01*
X170573Y258713D01*
X171144Y258999D01*
X171715D01*
X172286Y258713D01*
X172572Y258428D01*
X172858Y257571D01*
Y255000D01*
Y257000D02*
X176000Y258999D01*
X171430Y260627D02*
X171144D01*
X170573Y260913D01*
X170287Y261199D01*
X170001Y261770D01*
Y262913D01*
X170287Y263484D01*
X170573Y263769D01*
X171144Y264055D01*
X171715D01*
X172286Y263769D01*
X173144Y263198D01*
X176000Y260342D01*
Y264341D01*
X170001Y266255D02*
Y269397D01*
X172286Y267683D01*
Y268540D01*
X172572Y269111D01*
X172858Y269397D01*
X173715Y269683D01*
X174286D01*
X175143Y269397D01*
X175714Y268826D01*
X176000Y267969D01*
Y267112D01*
X175714Y266255D01*
X175429Y265969D01*
X174857Y265683D01*
X170001Y275024D02*
X176000Y272168D01*
X170001Y271025D02*
Y275024D01*
X181001Y255000D02*
X187000D01*
X181001D02*
Y257571D01*
X181287Y258428D01*
X181573Y258713D01*
X182144Y258999D01*
X182715D01*
X183286Y258713D01*
X183572Y258428D01*
X183858Y257571D01*
Y255000D01*
Y257000D02*
X187000Y258999D01*
X182430Y260627D02*
X182144D01*
X181573Y260913D01*
X181287Y261199D01*
X181001Y261770D01*
Y262913D01*
X181287Y263484D01*
X181573Y263769D01*
X182144Y264055D01*
X182715D01*
X183286Y263769D01*
X184144Y263198D01*
X187000Y260342D01*
Y264341D01*
X181001Y266255D02*
Y269397D01*
X183286Y267683D01*
Y268540D01*
X183572Y269111D01*
X183858Y269397D01*
X184715Y269683D01*
X185286D01*
X186143Y269397D01*
X186714Y268826D01*
X187000Y267969D01*
Y267112D01*
X186714Y266255D01*
X186429Y265969D01*
X185857Y265683D01*
X183001Y274739D02*
X183858Y274453D01*
X184429Y273882D01*
X184715Y273025D01*
Y272739D01*
X184429Y271882D01*
X183858Y271311D01*
X183001Y271025D01*
X182715D01*
X181858Y271311D01*
X181287Y271882D01*
X181001Y272739D01*
Y273025D01*
X181287Y273882D01*
X181858Y274453D01*
X183001Y274739D01*
X184429D01*
X185857Y274453D01*
X186714Y273882D01*
X187000Y273025D01*
Y272453D01*
X186714Y271596D01*
X186143Y271311D01*
X66000Y209999D02*
Y204000D01*
Y209999D02*
X68571D01*
X69428Y209713D01*
X69714Y209427D01*
X69999Y208856D01*
Y208285D01*
X69714Y207714D01*
X69428Y207428D01*
X68571Y207142D01*
X66000D01*
X68000D02*
X69999Y204000D01*
X71627Y208570D02*
Y208856D01*
X71913Y209427D01*
X72199Y209713D01*
X72770Y209999D01*
X73913D01*
X74484Y209713D01*
X74770Y209427D01*
X75055Y208856D01*
Y208285D01*
X74770Y207714D01*
X74198Y206856D01*
X71342Y204000D01*
X75341D01*
X79540Y209999D02*
X76683Y206000D01*
X80968D01*
X79540Y209999D02*
Y204000D01*
X82025Y208856D02*
X82596Y209142D01*
X83453Y209999D01*
Y204000D01*
X65000Y199999D02*
Y194000D01*
Y199999D02*
X67571D01*
X68428Y199713D01*
X68713Y199427D01*
X68999Y198856D01*
Y198285D01*
X68713Y197714D01*
X68428Y197428D01*
X67571Y197142D01*
X65000D01*
X67000D02*
X68999Y194000D01*
X70627Y198570D02*
Y198856D01*
X70913Y199427D01*
X71199Y199713D01*
X71770Y199999D01*
X72913D01*
X73484Y199713D01*
X73769Y199427D01*
X74055Y198856D01*
Y198285D01*
X73769Y197714D01*
X73198Y196856D01*
X70342Y194000D01*
X74341D01*
X78540Y199999D02*
X75683Y196000D01*
X79968D01*
X78540Y199999D02*
Y194000D01*
X81596Y199999D02*
X84739D01*
X83025Y197714D01*
X83882D01*
X84453Y197428D01*
X84739Y197142D01*
X85024Y196285D01*
Y195714D01*
X84739Y194857D01*
X84167Y194286D01*
X83310Y194000D01*
X82453D01*
X81596Y194286D01*
X81311Y194571D01*
X81025Y195143D01*
X161001Y54000D02*
X167000D01*
X161001D02*
Y56571D01*
X161287Y57428D01*
X161573Y57713D01*
X162144Y57999D01*
X162715D01*
X163286Y57713D01*
X163572Y57428D01*
X163858Y56571D01*
Y54000D01*
Y56000D02*
X167000Y57999D01*
X162430Y59627D02*
X162144D01*
X161573Y59913D01*
X161287Y60199D01*
X161001Y60770D01*
Y61913D01*
X161287Y62484D01*
X161573Y62769D01*
X162144Y63055D01*
X162715D01*
X163286Y62769D01*
X164144Y62198D01*
X167000Y59342D01*
Y63341D01*
X161001Y67540D02*
X165000Y64683D01*
Y68968D01*
X161001Y67540D02*
X167000D01*
X161001Y73453D02*
Y70596D01*
X163572Y70311D01*
X163286Y70596D01*
X163001Y71453D01*
Y72310D01*
X163286Y73167D01*
X163858Y73739D01*
X164715Y74024D01*
X165286D01*
X166143Y73739D01*
X166714Y73167D01*
X167000Y72310D01*
Y71453D01*
X166714Y70596D01*
X166429Y70311D01*
X165857Y70025D01*
X147001Y54000D02*
X153000D01*
X147001D02*
Y56571D01*
X147287Y57428D01*
X147573Y57713D01*
X148144Y57999D01*
X148715D01*
X149286Y57713D01*
X149572Y57428D01*
X149858Y56571D01*
Y54000D01*
Y56000D02*
X153000Y57999D01*
X148429Y59627D02*
X148144D01*
X147573Y59913D01*
X147287Y60199D01*
X147001Y60770D01*
Y61913D01*
X147287Y62484D01*
X147573Y62769D01*
X148144Y63055D01*
X148715D01*
X149286Y62769D01*
X150143Y62198D01*
X153000Y59342D01*
Y63341D01*
X147001Y67540D02*
X151000Y64683D01*
Y68968D01*
X147001Y67540D02*
X153000D01*
X147001Y74024D02*
X153000Y71168D01*
X147001Y70025D02*
Y74024D01*
X145000Y35999D02*
Y30000D01*
Y35999D02*
X147571D01*
X148428Y35713D01*
X148714Y35427D01*
X148999Y34856D01*
Y34285D01*
X148714Y33714D01*
X148428Y33428D01*
X147571Y33142D01*
X145000D01*
X147000D02*
X148999Y30000D01*
X150627Y34570D02*
Y34856D01*
X150913Y35427D01*
X151199Y35713D01*
X151770Y35999D01*
X152913D01*
X153484Y35713D01*
X153770Y35427D01*
X154055Y34856D01*
Y34285D01*
X153770Y33714D01*
X153198Y32857D01*
X150342Y30000D01*
X154341D01*
X159111Y35999D02*
X156255D01*
X155969Y33428D01*
X156255Y33714D01*
X157112Y33999D01*
X157969D01*
X158826Y33714D01*
X159397Y33142D01*
X159683Y32285D01*
Y31714D01*
X159397Y30857D01*
X158826Y30286D01*
X157969Y30000D01*
X157112D01*
X156255Y30286D01*
X155969Y30571D01*
X155683Y31143D01*
X164453Y35999D02*
X161596D01*
X161311Y33428D01*
X161596Y33714D01*
X162453Y33999D01*
X163310D01*
X164167Y33714D01*
X164739Y33142D01*
X165024Y32285D01*
Y31714D01*
X164739Y30857D01*
X164167Y30286D01*
X163310Y30000D01*
X162453D01*
X161596Y30286D01*
X161311Y30571D01*
X161025Y31143D01*
X116000Y33999D02*
Y28000D01*
Y33999D02*
X118571D01*
X119428Y33713D01*
X119713Y33427D01*
X119999Y32856D01*
Y32285D01*
X119713Y31714D01*
X119428Y31428D01*
X118571Y31142D01*
X116000D01*
X118000D02*
X119999Y28000D01*
X121627Y32570D02*
Y32856D01*
X121913Y33427D01*
X122199Y33713D01*
X122770Y33999D01*
X123913D01*
X124484Y33713D01*
X124769Y33427D01*
X125055Y32856D01*
Y32285D01*
X124769Y31714D01*
X124198Y30856D01*
X121342Y28000D01*
X125341D01*
X130111Y33999D02*
X127255D01*
X126969Y31428D01*
X127255Y31714D01*
X128112Y31999D01*
X128969D01*
X129826Y31714D01*
X130397Y31142D01*
X130682Y30285D01*
Y29714D01*
X130397Y28857D01*
X129826Y28286D01*
X128969Y28000D01*
X128112D01*
X127255Y28286D01*
X126969Y28571D01*
X126683Y29143D01*
X136024Y33999D02*
X133168Y28000D01*
X132025Y33999D02*
X136024D01*
X306000Y130999D02*
Y125000D01*
Y130999D02*
X308571D01*
X309428Y130713D01*
X309713Y130427D01*
X309999Y129856D01*
Y129285D01*
X309713Y128714D01*
X309428Y128428D01*
X308571Y128142D01*
X306000D01*
X308000D02*
X309999Y125000D01*
X311627Y129571D02*
Y129856D01*
X311913Y130427D01*
X312199Y130713D01*
X312770Y130999D01*
X313913D01*
X314484Y130713D01*
X314769Y130427D01*
X315055Y129856D01*
Y129285D01*
X314769Y128714D01*
X314198Y127857D01*
X311342Y125000D01*
X315341D01*
X320111Y130999D02*
X317255D01*
X316969Y128428D01*
X317255Y128714D01*
X318112Y128999D01*
X318969D01*
X319826Y128714D01*
X320397Y128142D01*
X320682Y127285D01*
Y126714D01*
X320397Y125857D01*
X319826Y125286D01*
X318969Y125000D01*
X318112D01*
X317255Y125286D01*
X316969Y125571D01*
X316683Y126143D01*
X325739Y128999D02*
X325453Y128142D01*
X324882Y127571D01*
X324025Y127285D01*
X323739D01*
X322882Y127571D01*
X322311Y128142D01*
X322025Y128999D01*
Y129285D01*
X322311Y130142D01*
X322882Y130713D01*
X323739Y130999D01*
X324025D01*
X324882Y130713D01*
X325453Y130142D01*
X325739Y128999D01*
Y127571D01*
X325453Y126143D01*
X324882Y125286D01*
X324025Y125000D01*
X323453D01*
X322596Y125286D01*
X322311Y125857D01*
X589001Y369000D02*
X595000D01*
X589001D02*
Y371571D01*
X589287Y372428D01*
X589573Y372714D01*
X590144Y372999D01*
X590715D01*
X591287Y372714D01*
X591572Y372428D01*
X591858Y371571D01*
Y369000D01*
Y371000D02*
X595000Y372999D01*
X589001Y374913D02*
Y378055D01*
X591287Y376341D01*
Y377198D01*
X591572Y377770D01*
X591858Y378055D01*
X592715Y378341D01*
X593286D01*
X594143Y378055D01*
X594714Y377484D01*
X595000Y376627D01*
Y375770D01*
X594714Y374913D01*
X594429Y374627D01*
X593857Y374342D01*
X589001Y381397D02*
X589287Y380540D01*
X590144Y379969D01*
X591572Y379683D01*
X592429D01*
X593857Y379969D01*
X594714Y380540D01*
X595000Y381397D01*
Y381969D01*
X594714Y382826D01*
X593857Y383397D01*
X592429Y383683D01*
X591572D01*
X590144Y383397D01*
X589287Y382826D01*
X589001Y381969D01*
Y381397D01*
Y385596D02*
Y388739D01*
X591287Y387025D01*
Y387882D01*
X591572Y388453D01*
X591858Y388739D01*
X592715Y389024D01*
X593286D01*
X594143Y388739D01*
X594714Y388167D01*
X595000Y387310D01*
Y386453D01*
X594714Y385596D01*
X594429Y385311D01*
X593857Y385025D01*
X542000Y353999D02*
Y348000D01*
Y353999D02*
X544571D01*
X545428Y353713D01*
X545714Y353427D01*
X545999Y352856D01*
Y352285D01*
X545714Y351713D01*
X545428Y351428D01*
X544571Y351142D01*
X542000D01*
X544000D02*
X545999Y348000D01*
X547913Y353999D02*
X551055D01*
X549341Y351713D01*
X550198D01*
X550770Y351428D01*
X551055Y351142D01*
X551341Y350285D01*
Y349714D01*
X551055Y348857D01*
X550484Y348286D01*
X549627Y348000D01*
X548770D01*
X547913Y348286D01*
X547627Y348571D01*
X547342Y349143D01*
X554397Y353999D02*
X553540Y353713D01*
X552969Y352856D01*
X552683Y351428D01*
Y350571D01*
X552969Y349143D01*
X553540Y348286D01*
X554397Y348000D01*
X554969D01*
X555826Y348286D01*
X556397Y349143D01*
X556683Y350571D01*
Y351428D01*
X556397Y352856D01*
X555826Y353713D01*
X554969Y353999D01*
X554397D01*
X560882D02*
X558025Y350000D01*
X562310D01*
X560882Y353999D02*
Y348000D01*
X576001Y398000D02*
X582000D01*
X576001D02*
Y400571D01*
X576287Y401428D01*
X576573Y401713D01*
X577144Y401999D01*
X577715D01*
X578287Y401713D01*
X578572Y401428D01*
X578858Y400571D01*
Y398000D01*
Y400000D02*
X582000Y401999D01*
X576001Y403913D02*
Y407055D01*
X578287Y405341D01*
Y406198D01*
X578572Y406769D01*
X578858Y407055D01*
X579715Y407341D01*
X580286D01*
X581143Y407055D01*
X581714Y406484D01*
X582000Y405627D01*
Y404770D01*
X581714Y403913D01*
X581429Y403627D01*
X580857Y403342D01*
X576001Y410397D02*
X576287Y409540D01*
X577144Y408969D01*
X578572Y408683D01*
X579429D01*
X580857Y408969D01*
X581714Y409540D01*
X582000Y410397D01*
Y410969D01*
X581714Y411826D01*
X580857Y412397D01*
X579429Y412682D01*
X578572D01*
X577144Y412397D01*
X576287Y411826D01*
X576001Y410969D01*
Y410397D01*
Y417453D02*
Y414596D01*
X578572Y414311D01*
X578287Y414596D01*
X578001Y415453D01*
Y416310D01*
X578287Y417167D01*
X578858Y417739D01*
X579715Y418024D01*
X580286D01*
X581143Y417739D01*
X581714Y417167D01*
X582000Y416310D01*
Y415453D01*
X581714Y414596D01*
X581429Y414311D01*
X580857Y414025D01*
X548001Y398000D02*
X554000D01*
X548001D02*
Y400571D01*
X548287Y401428D01*
X548573Y401713D01*
X549144Y401999D01*
X549715D01*
X550286Y401713D01*
X550572Y401428D01*
X550858Y400571D01*
Y398000D01*
Y400000D02*
X554000Y401999D01*
X548001Y403913D02*
Y407055D01*
X550286Y405341D01*
Y406198D01*
X550572Y406769D01*
X550858Y407055D01*
X551715Y407341D01*
X552286D01*
X553143Y407055D01*
X553714Y406484D01*
X554000Y405627D01*
Y404770D01*
X553714Y403913D01*
X553429Y403627D01*
X552857Y403342D01*
X548001Y410397D02*
X548287Y409540D01*
X549144Y408969D01*
X550572Y408683D01*
X551429D01*
X552857Y408969D01*
X553714Y409540D01*
X554000Y410397D01*
Y410969D01*
X553714Y411826D01*
X552857Y412397D01*
X551429Y412682D01*
X550572D01*
X549144Y412397D01*
X548287Y411826D01*
X548001Y410969D01*
Y410397D01*
X548858Y417453D02*
X548287Y417167D01*
X548001Y416310D01*
Y415739D01*
X548287Y414882D01*
X549144Y414311D01*
X550572Y414025D01*
X552000D01*
X553143Y414311D01*
X553714Y414882D01*
X554000Y415739D01*
Y416025D01*
X553714Y416882D01*
X553143Y417453D01*
X552286Y417739D01*
X552000D01*
X551143Y417453D01*
X550572Y416882D01*
X550286Y416025D01*
Y415739D01*
X550572Y414882D01*
X551143Y414311D01*
X552000Y414025D01*
X513000Y395999D02*
Y390000D01*
Y395999D02*
X515571D01*
X516428Y395713D01*
X516713Y395427D01*
X516999Y394856D01*
Y394285D01*
X516713Y393713D01*
X516428Y393428D01*
X515571Y393142D01*
X513000D01*
X515000D02*
X516999Y390000D01*
X518913Y395999D02*
X522055D01*
X520341Y393713D01*
X521198D01*
X521769Y393428D01*
X522055Y393142D01*
X522341Y392285D01*
Y391714D01*
X522055Y390857D01*
X521484Y390286D01*
X520627Y390000D01*
X519770D01*
X518913Y390286D01*
X518627Y390571D01*
X518342Y391143D01*
X525397Y395999D02*
X524540Y395713D01*
X523969Y394856D01*
X523683Y393428D01*
Y392571D01*
X523969Y391143D01*
X524540Y390286D01*
X525397Y390000D01*
X525969D01*
X526826Y390286D01*
X527397Y391143D01*
X527682Y392571D01*
Y393428D01*
X527397Y394856D01*
X526826Y395713D01*
X525969Y395999D01*
X525397D01*
X533024D02*
X530168Y390000D01*
X529025Y395999D02*
X533024D01*
X486000Y223999D02*
Y218000D01*
Y223999D02*
X488571D01*
X489428Y223713D01*
X489714Y223427D01*
X489999Y222856D01*
Y222285D01*
X489714Y221714D01*
X489428Y221428D01*
X488571Y221142D01*
X486000D01*
X488000D02*
X489999Y218000D01*
X491913Y223999D02*
X495055D01*
X493341Y221714D01*
X494198D01*
X494770Y221428D01*
X495055Y221142D01*
X495341Y220285D01*
Y219714D01*
X495055Y218857D01*
X494484Y218286D01*
X493627Y218000D01*
X492770D01*
X491913Y218286D01*
X491627Y218571D01*
X491342Y219143D01*
X496683Y222856D02*
X497255Y223142D01*
X498112Y223999D01*
Y218000D01*
X503939Y223999D02*
X501082Y220000D01*
X505367D01*
X503939Y223999D02*
Y218000D01*
X557000Y242999D02*
Y237000D01*
Y242999D02*
X559571D01*
X560428Y242713D01*
X560714Y242427D01*
X560999Y241856D01*
Y241285D01*
X560714Y240714D01*
X560428Y240428D01*
X559571Y240142D01*
X557000D01*
X559000D02*
X560999Y237000D01*
X562913Y242999D02*
X566055D01*
X564341Y240714D01*
X565198D01*
X565770Y240428D01*
X566055Y240142D01*
X566341Y239285D01*
Y238714D01*
X566055Y237857D01*
X565484Y237286D01*
X564627Y237000D01*
X563770D01*
X562913Y237286D01*
X562627Y237571D01*
X562342Y238143D01*
X567683Y241856D02*
X568255Y242142D01*
X569112Y242999D01*
Y237000D01*
X575510Y242999D02*
X572654D01*
X572368Y240428D01*
X572654Y240714D01*
X573511Y240999D01*
X574368D01*
X575225Y240714D01*
X575796Y240142D01*
X576082Y239285D01*
Y238714D01*
X575796Y237857D01*
X575225Y237286D01*
X574368Y237000D01*
X573511D01*
X572654Y237286D01*
X572368Y237571D01*
X572082Y238143D01*
X563000Y228999D02*
Y223000D01*
Y228999D02*
X565571D01*
X566428Y228713D01*
X566713Y228427D01*
X566999Y227856D01*
Y227285D01*
X566713Y226714D01*
X566428Y226428D01*
X565571Y226142D01*
X563000D01*
X565000D02*
X566999Y223000D01*
X568913Y228999D02*
X572055D01*
X570341Y226714D01*
X571198D01*
X571769Y226428D01*
X572055Y226142D01*
X572341Y225285D01*
Y224714D01*
X572055Y223857D01*
X571484Y223286D01*
X570627Y223000D01*
X569770D01*
X568913Y223286D01*
X568627Y223571D01*
X568342Y224143D01*
X573683Y227856D02*
X574255Y228142D01*
X575112Y228999D01*
Y223000D01*
X581510Y228142D02*
X581225Y228713D01*
X580368Y228999D01*
X579796D01*
X578939Y228713D01*
X578368Y227856D01*
X578082Y226428D01*
Y225000D01*
X578368Y223857D01*
X578939Y223286D01*
X579796Y223000D01*
X580082D01*
X580939Y223286D01*
X581510Y223857D01*
X581796Y224714D01*
Y225000D01*
X581510Y225856D01*
X580939Y226428D01*
X580082Y226714D01*
X579796D01*
X578939Y226428D01*
X578368Y225856D01*
X578082Y225000D01*
X562001Y252000D02*
X568000D01*
X562001D02*
Y254571D01*
X562287Y255428D01*
X562573Y255714D01*
X563144Y255999D01*
X563715D01*
X564286Y255714D01*
X564572Y255428D01*
X564858Y254571D01*
Y252000D01*
Y254000D02*
X568000Y255999D01*
X562001Y257913D02*
Y261055D01*
X564286Y259341D01*
Y260198D01*
X564572Y260770D01*
X564858Y261055D01*
X565715Y261341D01*
X566286D01*
X567143Y261055D01*
X567714Y260484D01*
X568000Y259627D01*
Y258770D01*
X567714Y257913D01*
X567429Y257627D01*
X566857Y257342D01*
X563144Y262683D02*
X562858Y263255D01*
X562001Y264112D01*
X568000D01*
X562001Y271082D02*
X568000Y268225D01*
X562001Y267082D02*
Y271082D01*
X591000Y233999D02*
Y228000D01*
Y233999D02*
X593571D01*
X594428Y233713D01*
X594714Y233427D01*
X594999Y232856D01*
Y232285D01*
X594714Y231714D01*
X594428Y231428D01*
X593571Y231142D01*
X591000D01*
X593000D02*
X594999Y228000D01*
X596913Y233999D02*
X600055D01*
X598341Y231714D01*
X599198D01*
X599770Y231428D01*
X600055Y231142D01*
X600341Y230285D01*
Y229714D01*
X600055Y228857D01*
X599484Y228286D01*
X598627Y228000D01*
X597770D01*
X596913Y228286D01*
X596627Y228571D01*
X596342Y229143D01*
X601683Y232856D02*
X602255Y233142D01*
X603112Y233999D01*
Y228000D01*
X607511Y233999D02*
X606654Y233713D01*
X606368Y233142D01*
Y232570D01*
X606654Y231999D01*
X607225Y231714D01*
X608368Y231428D01*
X609225Y231142D01*
X609796Y230571D01*
X610082Y230000D01*
Y229143D01*
X609796Y228571D01*
X609510Y228286D01*
X608653Y228000D01*
X607511D01*
X606654Y228286D01*
X606368Y228571D01*
X606082Y229143D01*
Y230000D01*
X606368Y230571D01*
X606939Y231142D01*
X607796Y231428D01*
X608939Y231714D01*
X609510Y231999D01*
X609796Y232570D01*
Y233142D01*
X609510Y233713D01*
X608653Y233999D01*
X607511D01*
X701000Y136999D02*
Y131000D01*
Y136999D02*
X703571D01*
X704428Y136713D01*
X704714Y136427D01*
X704999Y135856D01*
Y135285D01*
X704714Y134713D01*
X704428Y134428D01*
X703571Y134142D01*
X701000D01*
X703000D02*
X704999Y131000D01*
X709198Y136999D02*
X706342Y133000D01*
X710627D01*
X709198Y136999D02*
Y131000D01*
X713397Y136999D02*
X712540Y136713D01*
X711969Y135856D01*
X711683Y134428D01*
Y133571D01*
X711969Y132143D01*
X712540Y131286D01*
X713397Y131000D01*
X713969D01*
X714826Y131286D01*
X715397Y132143D01*
X715683Y133571D01*
Y134428D01*
X715397Y135856D01*
X714826Y136713D01*
X713969Y136999D01*
X713397D01*
X719882D02*
X717025Y133000D01*
X721310D01*
X719882Y136999D02*
Y131000D01*
X778000Y170999D02*
Y165000D01*
Y170999D02*
X780571D01*
X781428Y170713D01*
X781713Y170427D01*
X781999Y169856D01*
Y169285D01*
X781713Y168713D01*
X781428Y168428D01*
X780571Y168142D01*
X778000D01*
X780000D02*
X781999Y165000D01*
X786198Y170999D02*
X783342Y167000D01*
X787626D01*
X786198Y170999D02*
Y165000D01*
X790397Y170999D02*
X789540Y170713D01*
X788969Y169856D01*
X788683Y168428D01*
Y167571D01*
X788969Y166143D01*
X789540Y165286D01*
X790397Y165000D01*
X790969D01*
X791826Y165286D01*
X792397Y166143D01*
X792682Y167571D01*
Y168428D01*
X792397Y169856D01*
X791826Y170713D01*
X790969Y170999D01*
X790397D01*
X797453D02*
X794596D01*
X794311Y168428D01*
X794596Y168713D01*
X795453Y168999D01*
X796310D01*
X797167Y168713D01*
X797739Y168142D01*
X798024Y167285D01*
Y166714D01*
X797739Y165857D01*
X797167Y165286D01*
X796310Y165000D01*
X795453D01*
X794596Y165286D01*
X794311Y165571D01*
X794025Y166143D01*
X700001Y102000D02*
X706000D01*
X700001D02*
Y104571D01*
X700287Y105428D01*
X700573Y105714D01*
X701144Y105999D01*
X701715D01*
X702287Y105714D01*
X702572Y105428D01*
X702858Y104571D01*
Y102000D01*
Y104000D02*
X706000Y105999D01*
X700001Y110198D02*
X704000Y107342D01*
Y111627D01*
X700001Y110198D02*
X706000D01*
X700001Y114397D02*
X700287Y113540D01*
X701144Y112969D01*
X702572Y112683D01*
X703429D01*
X704857Y112969D01*
X705714Y113540D01*
X706000Y114397D01*
Y114969D01*
X705714Y115826D01*
X704857Y116397D01*
X703429Y116683D01*
X702572D01*
X701144Y116397D01*
X700287Y115826D01*
X700001Y114969D01*
Y114397D01*
X700858Y121453D02*
X700287Y121167D01*
X700001Y120310D01*
Y119739D01*
X700287Y118882D01*
X701144Y118311D01*
X702572Y118025D01*
X704000D01*
X705143Y118311D01*
X705714Y118882D01*
X706000Y119739D01*
Y120025D01*
X705714Y120882D01*
X705143Y121453D01*
X704286Y121739D01*
X704000D01*
X703143Y121453D01*
X702572Y120882D01*
X702287Y120025D01*
Y119739D01*
X702572Y118882D01*
X703143Y118311D01*
X704000Y118025D01*
X409200Y110056D02*
X409771Y110342D01*
X410628Y111199D01*
Y105200D01*
X376200Y129199D02*
Y124914D01*
X376486Y124057D01*
X377057Y123486D01*
X377914Y123200D01*
X378485D01*
X379342Y123486D01*
X379913Y124057D01*
X380199Y124914D01*
Y129199D01*
X382142Y127771D02*
Y128056D01*
X382427Y128627D01*
X382713Y128913D01*
X383284Y129199D01*
X384427D01*
X384998Y128913D01*
X385284Y128627D01*
X385569Y128056D01*
Y127485D01*
X385284Y126913D01*
X384712Y126056D01*
X381856Y123200D01*
X385855D01*
X388912Y129199D02*
X388055Y128913D01*
X387483Y128056D01*
X387198Y126628D01*
Y125771D01*
X387483Y124343D01*
X388055Y123486D01*
X388912Y123200D01*
X389483D01*
X390340Y123486D01*
X390911Y124343D01*
X391197Y125771D01*
Y126628D01*
X390911Y128056D01*
X390340Y128913D01*
X389483Y129199D01*
X388912D01*
X392825Y127771D02*
Y128056D01*
X393111Y128627D01*
X393396Y128913D01*
X393968Y129199D01*
X395110D01*
X395681Y128913D01*
X395967Y128627D01*
X396253Y128056D01*
Y127485D01*
X395967Y126913D01*
X395396Y126056D01*
X392539Y123200D01*
X396539D01*
X541200Y264056D02*
X541771Y264342D01*
X542628Y265199D01*
Y259200D01*
X522200Y247199D02*
Y242914D01*
X522486Y242057D01*
X523057Y241486D01*
X523914Y241200D01*
X524485D01*
X525342Y241486D01*
X525914Y242057D01*
X526199Y242914D01*
Y247199D01*
X528427D02*
X531569D01*
X529855Y244914D01*
X530713D01*
X531284Y244628D01*
X531569Y244342D01*
X531855Y243485D01*
Y242914D01*
X531569Y242057D01*
X530998Y241486D01*
X530141Y241200D01*
X529284D01*
X528427Y241486D01*
X528142Y241771D01*
X527856Y242343D01*
X534911Y247199D02*
X534055Y246913D01*
X533483Y246056D01*
X533198Y244628D01*
Y243771D01*
X533483Y242343D01*
X534055Y241486D01*
X534911Y241200D01*
X535483D01*
X536340Y241486D01*
X536911Y242343D01*
X537197Y243771D01*
Y244628D01*
X536911Y246056D01*
X536340Y246913D01*
X535483Y247199D01*
X534911D01*
X541396D02*
X538539Y243200D01*
X542824D01*
X541396Y247199D02*
Y241200D01*
X645000Y19749D02*
Y13750D01*
Y19749D02*
X647000D01*
X647857Y19463D01*
X648428Y18892D01*
X648714Y18320D01*
X648999Y17464D01*
Y16035D01*
X648714Y15178D01*
X648428Y14607D01*
X647857Y14036D01*
X647000Y13750D01*
X645000D01*
X650342Y18606D02*
X650913Y18892D01*
X651770Y19749D01*
Y13750D01*
X656455Y19749D02*
X655598Y19463D01*
X655026Y18606D01*
X654741Y17178D01*
Y16321D01*
X655026Y14893D01*
X655598Y14036D01*
X656455Y13750D01*
X657026D01*
X657883Y14036D01*
X658454Y14893D01*
X658740Y16321D01*
Y17178D01*
X658454Y18606D01*
X657883Y19463D01*
X657026Y19749D01*
X656455D01*
X661511D02*
X660654Y19463D01*
X660368Y18892D01*
Y18320D01*
X660654Y17749D01*
X661225Y17464D01*
X662368Y17178D01*
X663225Y16892D01*
X663796Y16321D01*
X664082Y15749D01*
Y14893D01*
X663796Y14321D01*
X663510Y14036D01*
X662653Y13750D01*
X661511D01*
X660654Y14036D01*
X660368Y14321D01*
X660082Y14893D01*
Y15749D01*
X660368Y16321D01*
X660939Y16892D01*
X661796Y17178D01*
X662939Y17464D01*
X663510Y17749D01*
X663796Y18320D01*
Y18892D01*
X663510Y19463D01*
X662653Y19749D01*
X661511D01*
D107*
X142500Y142498D02*
G03*
X142500Y142498I-2500J0D01*
G01*
D116*
X234000Y193500D02*
X264000D01*
X234000D02*
Y233500D01*
X264000Y193500D02*
Y233500D01*
X234000D02*
X264000D01*
X133500Y74500D02*
Y88500D01*
X109500D02*
X133500D01*
X109500Y74500D02*
Y88500D01*
Y74500D02*
X133500D01*
X107500Y164500D02*
Y182500D01*
X116500D01*
Y164500D02*
Y182500D01*
X107500Y164500D02*
X116500D01*
X222500Y214500D02*
Y232500D01*
X231500D01*
Y214500D02*
Y232500D01*
X222500Y214500D02*
X231500D01*
Y194500D02*
Y212500D01*
X222500Y194500D02*
X231500D01*
X222500D02*
Y212500D01*
X231500D01*
X122500Y101500D02*
X140500D01*
Y92500D02*
Y101500D01*
X122500Y92500D02*
X140500D01*
X122500D02*
Y101500D01*
X102497Y92500D02*
X120497D01*
X102497D02*
Y101500D01*
X120497D01*
Y92500D02*
Y101500D01*
X477000Y127000D02*
X505000D01*
X477000D02*
Y141000D01*
X505000D01*
Y127000D02*
Y141000D01*
X565000Y127500D02*
Y155500D01*
X551000Y127500D02*
X565000D01*
X551000D02*
Y155500D01*
X565000D01*
X661000Y151003D02*
Y165003D01*
X633000D02*
X661000D01*
X633000Y151003D02*
Y165003D01*
Y151003D02*
X661000D01*
X782000Y176000D02*
X792000D01*
Y196000D01*
X782000D02*
X792000D01*
X782000Y176000D02*
Y196000D01*
X795000Y176000D02*
X805000D01*
Y196000D01*
X795000D02*
X805000D01*
X795000Y176000D02*
Y196000D01*
X594000Y264000D02*
X622000D01*
X594000D02*
Y278000D01*
X622000D01*
Y264000D02*
Y278000D01*
X642000Y344000D02*
Y372000D01*
X628000Y344000D02*
X642000D01*
X628000D02*
Y372000D01*
X642000D01*
X155997Y111500D02*
X163997D01*
X155997Y92500D02*
Y111500D01*
Y92500D02*
X163997D01*
Y111500D01*
X166000Y92500D02*
X174000D01*
Y111500D01*
X166000D02*
X174000D01*
X166000Y92500D02*
Y111500D01*
X176000Y92500D02*
X184000D01*
Y111500D01*
X176000D02*
X184000D01*
X176000Y92500D02*
Y111500D01*
X245500Y101000D02*
Y109000D01*
X226500D02*
X245500D01*
X226500Y101000D02*
Y109000D01*
Y101000D02*
X245500D01*
X226500Y176010D02*
Y184010D01*
Y176010D02*
X245500D01*
Y184010D01*
X226500D02*
X245500D01*
X245500Y110000D02*
Y118000D01*
X226500D02*
X245500D01*
X226500Y110000D02*
Y118000D01*
Y110000D02*
X245500D01*
Y120000D02*
Y128000D01*
X226500D02*
X245500D01*
X226500Y120000D02*
Y128000D01*
Y120000D02*
X245500D01*
X160007Y251500D02*
X168008D01*
X160007Y232500D02*
Y251500D01*
Y232500D02*
X168008D01*
Y251500D01*
X150005D02*
X158005D01*
X150005Y232500D02*
Y251500D01*
Y232500D02*
X158005D01*
Y251500D01*
X140002D02*
X148003D01*
X140002Y232500D02*
Y251500D01*
Y232500D02*
X148003D01*
Y251500D01*
X90000Y223500D02*
Y231500D01*
Y223500D02*
X109000D01*
Y231500D01*
X90000D02*
X109000D01*
X130000Y232500D02*
X138000D01*
Y251500D01*
X130000D02*
X138000D01*
X130000Y232500D02*
Y251500D01*
X120000Y232500D02*
X128000D01*
Y251500D01*
X120000D02*
X128000D01*
X120000Y232500D02*
Y251500D01*
X90000Y213500D02*
Y221500D01*
Y213500D02*
X109000D01*
Y221500D01*
X90000D02*
X109000D01*
X145995Y111500D02*
X153995D01*
X145995Y92500D02*
Y111500D01*
Y92500D02*
X153995D01*
Y111500D01*
X245500Y130000D02*
Y138000D01*
X226500D02*
X245500D01*
X226500Y130000D02*
Y138000D01*
Y130000D02*
X245500D01*
Y140000D02*
Y148000D01*
X226500D02*
X245500D01*
X226500Y140000D02*
Y148000D01*
Y140000D02*
X245500D01*
X170010Y251500D02*
X178010D01*
X170010Y232500D02*
Y251500D01*
Y232500D02*
X178010D01*
Y251500D01*
X180013Y232500D02*
X188013D01*
Y251500D01*
X180013D02*
X188013D01*
X180013Y232500D02*
Y251500D01*
X109000Y203500D02*
Y211500D01*
X90000D02*
X109000D01*
X90000Y203500D02*
Y211500D01*
Y203500D02*
X109000D01*
Y193498D02*
Y201497D01*
X90000D02*
X109000D01*
X90000Y193498D02*
Y201497D01*
Y193498D02*
X109000D01*
D123*
X243462Y346540D02*
Y356537D01*
X238463Y351538D02*
X248460D01*
X66959Y344540D02*
Y354537D01*
X61961Y349538D02*
X71957D01*
D154*
X11000Y199200D02*
Y277675D01*
Y199200D02*
X39000D01*
X11000Y277675D02*
X39000D01*
Y199200D02*
Y277675D01*
X158001Y113000D02*
X163000D01*
X158001D02*
Y115142D01*
X158239Y115857D01*
X158477Y116095D01*
X158953Y116333D01*
X159429D01*
X159905Y116095D01*
X160144Y115857D01*
X160382Y115142D01*
Y113000D01*
Y114666D02*
X163000Y116333D01*
X159191Y117690D02*
X158953D01*
X158477Y117928D01*
X158239Y118166D01*
X158001Y118642D01*
Y119594D01*
X158239Y120070D01*
X158477Y120308D01*
X158953Y120546D01*
X159429D01*
X159905Y120308D01*
X160620Y119832D01*
X163000Y117451D01*
Y120784D01*
X158001Y123331D02*
X158239Y122617D01*
X158953Y122141D01*
X160144Y121903D01*
X160858D01*
X162048Y122141D01*
X162762Y122617D01*
X163000Y123331D01*
Y123807D01*
X162762Y124521D01*
X162048Y124997D01*
X160858Y125236D01*
X160144D01*
X158953Y124997D01*
X158239Y124521D01*
X158001Y123807D01*
Y123331D01*
Y128735D02*
X161334Y126354D01*
Y129925D01*
X158001Y128735D02*
X163000D01*
X168001Y113000D02*
X173000D01*
X168001D02*
Y115142D01*
X168239Y115857D01*
X168477Y116095D01*
X168953Y116333D01*
X169429D01*
X169905Y116095D01*
X170144Y115857D01*
X170382Y115142D01*
Y113000D01*
Y114666D02*
X173000Y116333D01*
X169191Y117690D02*
X168953D01*
X168477Y117928D01*
X168239Y118166D01*
X168001Y118642D01*
Y119594D01*
X168239Y120070D01*
X168477Y120308D01*
X168953Y120546D01*
X169429D01*
X169905Y120308D01*
X170620Y119832D01*
X173000Y117451D01*
Y120784D01*
X168001Y123331D02*
X168239Y122617D01*
X168953Y122141D01*
X170144Y121903D01*
X170858D01*
X172048Y122141D01*
X172762Y122617D01*
X173000Y123331D01*
Y123807D01*
X172762Y124521D01*
X172048Y124997D01*
X170858Y125236D01*
X170144D01*
X168953Y124997D01*
X168239Y124521D01*
X168001Y123807D01*
Y123331D01*
Y129687D02*
X173000Y127306D01*
X168001Y126354D02*
Y129687D01*
X178001Y113000D02*
X183000D01*
X178001D02*
Y115142D01*
X178239Y115857D01*
X178477Y116095D01*
X178953Y116333D01*
X179429D01*
X179905Y116095D01*
X180144Y115857D01*
X180382Y115142D01*
Y113000D01*
Y114666D02*
X183000Y116333D01*
X179191Y117690D02*
X178953D01*
X178477Y117928D01*
X178239Y118166D01*
X178001Y118642D01*
Y119594D01*
X178239Y120070D01*
X178477Y120308D01*
X178953Y120546D01*
X179429D01*
X179905Y120308D01*
X180620Y119832D01*
X183000Y117451D01*
Y120784D01*
X178001Y123331D02*
X178239Y122617D01*
X178953Y122141D01*
X180144Y121903D01*
X180858D01*
X182048Y122141D01*
X182762Y122617D01*
X183000Y123331D01*
Y123807D01*
X182762Y124521D01*
X182048Y124997D01*
X180858Y125236D01*
X180144D01*
X178953Y124997D01*
X178239Y124521D01*
X178001Y123807D01*
Y123331D01*
X179667Y129449D02*
X180382Y129211D01*
X180858Y128735D01*
X181096Y128021D01*
Y127782D01*
X180858Y127068D01*
X180382Y126592D01*
X179667Y126354D01*
X179429D01*
X178715Y126592D01*
X178239Y127068D01*
X178001Y127782D01*
Y128021D01*
X178239Y128735D01*
X178715Y129211D01*
X179667Y129449D01*
X180858D01*
X182048Y129211D01*
X182762Y128735D01*
X183000Y128021D01*
Y127544D01*
X182762Y126830D01*
X182286Y126592D01*
X148001Y113000D02*
X153000D01*
X148001D02*
Y115142D01*
X148239Y115857D01*
X148477Y116095D01*
X148953Y116333D01*
X149429D01*
X149905Y116095D01*
X150143Y115857D01*
X150381Y115142D01*
Y113000D01*
Y114666D02*
X153000Y116333D01*
X149191Y117690D02*
X148953D01*
X148477Y117928D01*
X148239Y118166D01*
X148001Y118642D01*
Y119594D01*
X148239Y120070D01*
X148477Y120308D01*
X148953Y120546D01*
X149429D01*
X149905Y120308D01*
X150620Y119832D01*
X153000Y117451D01*
Y120784D01*
X149191Y122141D02*
X148953D01*
X148477Y122379D01*
X148239Y122617D01*
X148001Y123093D01*
Y124045D01*
X148239Y124521D01*
X148477Y124759D01*
X148953Y124997D01*
X149429D01*
X149905Y124759D01*
X150620Y124283D01*
X153000Y121903D01*
Y125236D01*
X149667Y129449D02*
X150381Y129211D01*
X150858Y128735D01*
X151096Y128021D01*
Y127782D01*
X150858Y127068D01*
X150381Y126592D01*
X149667Y126354D01*
X149429D01*
X148715Y126592D01*
X148239Y127068D01*
X148001Y127782D01*
Y128021D01*
X148239Y128735D01*
X148715Y129211D01*
X149667Y129449D01*
X150858D01*
X152048Y129211D01*
X152762Y128735D01*
X153000Y128021D01*
Y127544D01*
X152762Y126830D01*
X152286Y126592D01*
D159*
X574000Y136500D02*
D03*
X574000Y16250D02*
D03*
X529000D02*
D03*
X514000Y133000D02*
D03*
X661000Y139000D02*
D03*
X658000Y240000D02*
D03*
Y261000D02*
D03*
Y198000D02*
D03*
Y219000D02*
D03*
Y283000D02*
D03*
Y177000D02*
D03*
X658000Y386000D02*
D03*
Y407000D02*
D03*
X638500Y16250D02*
D03*
D160*
X280497Y330000D02*
D03*
D161*
X291000Y420500D02*
D03*
X329000Y420500D02*
D03*
X455503Y418000D02*
D03*
X493502Y418000D02*
D03*
D162*
X248000Y413000D02*
D03*
X71497Y411000D02*
D03*
D163*
X804000Y382000D02*
D03*
X783004Y382004D02*
D03*
X653992Y369000D02*
D03*
X605000Y321492D02*
D03*
X251000Y59000D02*
D03*
X272000Y87008D02*
D03*
X251000Y44000D02*
D03*
X272008Y16000D02*
D03*
M02*
