G04*
G04 #@! TF.GenerationSoftware,Altium Limited,Altium Designer,22.6.1 (34)*
G04*
G04 Layer_Color=32896*
%FSLAX44Y44*%
%MOMM*%
G71*
G04*
G04 #@! TF.SameCoordinates,0BC7250A-E466-409B-9AFC-A4DADF5EADDD*
G04*
G04*
G04 #@! TF.FilePolarity,Positive*
G04*
G01*
G75*
%ADD155C,0.0100*%
D155*
X362500Y274500D02*
X407500D01*
X362500Y205500D02*
Y274500D01*
Y205500D02*
X407500D01*
Y274500D01*
X333500Y199100D02*
X341500D01*
X333500Y196400D02*
Y199100D01*
Y196400D02*
X341500D01*
Y199100D01*
X333500Y205600D02*
X341500D01*
X333500Y202900D02*
Y205600D01*
Y202900D02*
X341500D01*
Y205600D01*
X333500Y212100D02*
X341500D01*
X333500Y209400D02*
Y212100D01*
Y209400D02*
X341500D01*
Y212100D01*
X333500Y218600D02*
X341500D01*
X333500Y215900D02*
Y218600D01*
Y215900D02*
X341500D01*
Y218600D01*
X333500Y225100D02*
X341500D01*
X333500Y222400D02*
Y225100D01*
Y222400D02*
X341500D01*
Y225100D01*
X333500Y231600D02*
X341500D01*
X333500Y228900D02*
Y231600D01*
Y228900D02*
X341500D01*
Y231600D01*
X333500Y238100D02*
X341500D01*
X333500Y235400D02*
Y238100D01*
Y235400D02*
X341500D01*
Y238100D01*
X333500Y244600D02*
X341500D01*
X333500Y241900D02*
Y244600D01*
Y241900D02*
X341500D01*
Y244600D01*
X333500Y251100D02*
X341500D01*
X333500Y248400D02*
Y251100D01*
Y248400D02*
X341500D01*
Y251100D01*
X333500Y257600D02*
X341500D01*
X333500Y254900D02*
Y257600D01*
Y254900D02*
X341500D01*
Y257600D01*
X333500Y264100D02*
X341500D01*
X333500Y261400D02*
Y264100D01*
Y261400D02*
X341500D01*
Y264100D01*
X333500Y270600D02*
X341500D01*
X333500Y267900D02*
Y270600D01*
Y267900D02*
X341500D01*
Y270600D01*
X333500Y277100D02*
X341500D01*
X333500Y274400D02*
Y277100D01*
Y274400D02*
X341500D01*
Y277100D01*
X333500Y283600D02*
X341500D01*
X333500Y280900D02*
Y283600D01*
Y280900D02*
X341500D01*
Y283600D01*
X428500Y280900D02*
X436500D01*
Y283600D01*
X428500D02*
X436500D01*
X428500Y280900D02*
Y283600D01*
Y274400D02*
X436500D01*
Y277100D01*
X428500D02*
X436500D01*
X428500Y274400D02*
Y277100D01*
Y267900D02*
X436500D01*
Y270600D01*
X428500D02*
X436500D01*
X428500Y267900D02*
Y270600D01*
Y261400D02*
X436500D01*
Y264100D01*
X428500D02*
X436500D01*
X428500Y261400D02*
Y264100D01*
Y254900D02*
X436500D01*
Y257600D01*
X428500D02*
X436500D01*
X428500Y254900D02*
Y257600D01*
Y248400D02*
X436500D01*
Y251100D01*
X428500D02*
X436500D01*
X428500Y248400D02*
Y251100D01*
Y241900D02*
X436500D01*
Y244600D01*
X428500D02*
X436500D01*
X428500Y241900D02*
Y244600D01*
Y235400D02*
X436500D01*
Y238100D01*
X428500D02*
X436500D01*
X428500Y235400D02*
Y238100D01*
Y228900D02*
X436500D01*
Y231600D01*
X428500D02*
X436500D01*
X428500Y228900D02*
Y231600D01*
Y222400D02*
X436500D01*
Y225100D01*
X428500D02*
X436500D01*
X428500Y222400D02*
Y225100D01*
Y215900D02*
X436500D01*
Y218600D01*
X428500D02*
X436500D01*
X428500Y215900D02*
Y218600D01*
Y209400D02*
X436500D01*
Y212100D01*
X428500D02*
X436500D01*
X428500Y209400D02*
Y212100D01*
Y202900D02*
X436500D01*
Y205600D01*
X428500D02*
X436500D01*
X428500Y202900D02*
Y205600D01*
Y196400D02*
X436500D01*
Y199100D01*
X428500D02*
X436500D01*
X428500Y196400D02*
Y199100D01*
M02*
