M48
;Layer_Color=9474304
;FILE_FORMAT=4:4
METRIC,TZ
;TYPE=PLATED
T1F00S00C0.1250
%
T01
X168750Y146875
X195000Y147500
Y157500
Y165000
Y173750
X195625Y187500
X187500Y198500
X180000Y198323
X172500Y198500
X165000Y198323
X199500Y253500
X218000Y125000
X488000Y228000
X549000Y220000
X157500Y198500
X148125Y198125
X144374Y195001
X144375Y187500
Y181250
Y175000
Y166250
Y160000
Y153750
Y147500
X158750Y146875
X148895Y190770
M30
