M48
;Layer_Color=9474304
;FILE_FORMAT=4:4
METRIC,TZ
;TYPE=PLATED
T1F00S00C0.1250
%
T01
X567000Y177000
X581000Y208000
X560780Y220780
X561000Y311000
X729000Y95000
X745861Y88861
X527000Y180000
X528000Y213000
X531000Y226000
X555000Y224000
X412750Y242437
X407875
X401375Y247313
Y251375
X188500Y253500
X172000Y257500
X168000Y228500
X178000
X188000Y229000
X237000Y183000
Y170000
Y157000
X218000Y119000
X169000Y117000
X159000
X123000Y115000
X113000
X116000Y130500
X116500Y144500
X116000Y151500
X114500Y195000
Y205000
Y216000
X116000Y229500
X129000Y226500
X139000
X158000Y228500
X495000Y387000
X526000Y388000
X520000Y416000
X571048Y411625
X567000Y378000
M30
