M48
;Layer_Color=9474304
;FILE_FORMAT=4:4
METRIC,TZ
;TYPE=PLATED
T2F00S00C0.2000
T3F00S00C0.2200
T4F00S00C0.2500
T5F00S00C0.3000
T6F00S00C1.1000
%
T02
X600000Y77500
X642500
X687000Y128000
X695000
Y144000
X687000
X706000Y143250
X728934Y152066
X752000Y169750
X744000Y112000
X736000
X777000Y116000
X760000Y13000
X737000Y307883
X699500Y338750
Y346250
X582852Y359764
X599000Y283000
X607000Y244000
X617000Y234000
Y225000
Y212000
X610000Y184855
X452562Y197750
Y204250
X446063Y197750
X399000Y193000
X392000Y189000
X386000Y185000
X365000Y190000
X372938Y200187
X373000Y290000
X447868Y298132
X455934Y298066
X464000Y298000
X408000Y344000
X450000Y124000
X471000Y75000
X478000
Y82000
X465000Y61000
X425000Y45000
X401000Y77000
X329000Y58000
X317520Y58520
X315000Y65000
Y90250
X322000
X308000
X285000Y114000
X278000
X271000
X251000Y119000
X252000Y149000
X256000Y155000
X260000Y160124
X269000Y153000
X272000Y147000
X276069Y141931
X268123Y176000
X263000Y180000
X256500Y180010
X220000Y194500
X219750Y158000
X213000
X192500Y152500
X187571Y147641
X186250Y156250
Y167500
X173750Y168750
Y176250
X166250
Y168750
X170000Y172500
Y188500
X181000
X192500Y180000
X167500Y158000
X170000Y83000
X174000Y52000
X165000Y45000
X201000Y39000
X202000Y60000
X207000Y103000
X234000Y96000
X304000Y42000
X325000Y20000
X332500Y12500
X317500
X542500Y77500
X202000Y234000
X197500Y239750
X164000Y259000
X158000Y255000
X149740Y256073
X141000Y256000
X145500Y261000
X154500
X133000
X126000Y260000
X119000Y261000
X99000
X92000
X85000
X77000
X66000
X60000Y256000
X54000Y261000
X57500Y207500
X47500
X42500Y202500
X80000Y218000
X75000Y224000
X90000Y182000
Y163000
X112000Y186000
X127000Y176000
X153750Y178125
X153620Y166830
X151250Y147500
X144497Y119997
X121500Y138500
X102000Y108000
X97000Y113000
X92000Y108000
X84000
X73000
X78000Y113000
X109000Y62000
X123000Y52000
X134000Y57750
X149000Y45000
X159050Y188550
X149000Y227000
X462961Y429021
X527000Y428000
X539000Y386000
X591000Y410000
X603000
X614999Y406000
X625000Y394000
X656000
T03
X316875Y210750
Y219688
Y227812
X317687Y235938
Y244062
X316875Y252188
Y260312
Y269250
X449313Y259500
Y251375
Y228625
Y220500
T04
X571250Y76250
X611250Y77500
X621250Y81250
X651250Y77500
X673750Y16250
X599000Y148000
X591000
X563000Y188000
Y196500
X574000Y358000
X549000Y290000
X541000
X545000Y282000
X524000Y290000
X514000Y258000
X507000Y241000
X509000Y201000
Y193000
X519000Y176000
X487000Y176500
X524000Y143000
X532000Y142000
X540000Y143000
X517500Y76250
X393000Y77000
X323000Y64000
X236000Y59000
Y39000
X219000Y141000
X180000Y116000
X197000Y225000
X469000Y275000
X140000Y112500
X126000Y59000
X113000Y55000
X541000Y399000
X564000Y392000
T05
X581250Y12500
X588750Y7500
X596250Y21250
Y31250
X583750
X608750Y21250
X621250
X632500Y12500
X652500Y7500
X675000
X692500Y7500
X719000Y25000
X706000Y68000
X696000Y82000
X685000
X658750Y72500
Y62500
X646250
X645999Y120000
X633750Y120000
X608750
X596250
X583750
X571250
X558750
X588750Y77500
X625000Y142000
X623000Y177000
Y198000
Y219000
Y240000
Y261000
Y283000
X613000
X616000Y320000
X623000
X659000
X667000
X695000Y320000
X705000
X714500Y320000
X717000Y331250
X704500
Y353750
X717000
X729500
Y371250
X717000
X704500
X668250Y367500
X608000Y366000
Y356000
X595000Y346500
X600234Y338205
X667500Y290000
X667000Y271250
Y261250
X665750Y242500
X667500Y230000
X667000Y211250
X677000Y190000
X680000Y166000
X672000
X689000
X705000Y171000
X699500Y180000
X703250Y198750
Y213750
Y228750
Y243750
X724500Y237500
Y226250
Y211250
Y195000
X713250Y206250
X767500Y200000
X760750Y190000
X752244Y160245
X812500Y170000
Y195000
Y215000
Y237500
Y270000
Y290000
Y310000
Y325000
X813000Y347000
X794000Y355000
X768250Y350000
Y365000
X779000Y335000
X767000Y320000
Y300000
Y290000
X767500Y275000
Y260000
Y245000
X796000Y281000
X739500Y290000
X722000
Y275000
X703250
Y290000
X723250Y340000
X691000Y136000
X658750Y120000
X745000Y80000
X771000Y53000
Y44000
X767682Y7682
X786000Y93000
Y103000
X812500Y100000
Y112500
Y80000
X553750Y77500
X546250Y61250
X521250Y62000
X527500Y73750
X521250Y31250
X546250
X532500Y7500
X475000Y8000
Y31000
Y47000
Y62000
X436000Y74000
X425000Y100000
X427000Y165000
X417000
X378000Y143000
X356000Y166000
X346000
X286000
X277000
X270000Y268000
X250000Y296000
X240500Y295500
X234000
X227500
X205500Y227000
X315000Y307000
X282000Y367000
X274000
X266000
X389000Y351000
X397000
X412000Y314000
Y306000
Y298000
X434000Y327000
X441000Y321000
X448000Y313000
X460000Y312750
Y339000
X453000Y347000
X529000Y358000
X521000Y368000
X480000Y274000
X470000Y142000
X459500Y141500
X493500Y116000
X533750Y120000
X546250
X430000Y35000
X440000Y20000
X442682Y7682
X410000Y47500
X367500
X350000Y35000
X340000Y20000
X325000Y10000
X297682Y7682
X280180Y7000
X260182Y7682
X240182
X220182
X200182
X180182
X160182
X246500Y51500
X267000
X287000Y45000
X325500Y73000
X334000
X344000
X157000Y45000
X140182Y7682
X120182
X100182
X80182
X52682
X47500Y27500
X37500Y40000
X95000
X84000Y71000
X7500Y80000
Y100000
Y120000
X50000Y140000
Y152500
Y177500
X60000Y292000
X90000Y288750
X99000Y289000
Y299000
X90000
X132000Y301000
X158000
X7500Y290000
Y327500
X16000Y335000
X7500Y360000
Y385000
X27500Y392500
X40000Y402500
X50000Y415000
X52500Y432500
X80000
X100000
X120000
X140000
X110000Y408000
X95000
X103000Y385000
X114000
X132000
X56000Y384000
X166000Y424000
X160000Y432500
X180000
Y420000
X200000Y432500
X220000
X240000
X260000
X270000Y423000
X280000Y432500
X297500
X289000Y422000
X330000
X340000Y415000
Y432500
X322500
X360000
Y415000
X387500Y417500
X402500
X417500
X432500
X453000Y415000
X458000Y404000
X453000Y396000
X455000Y432500
X442500
X492500
X377500
X388500Y390000
X395500
X282000Y385000
Y378000
X274000
Y385000
X266000
Y378000
X255000Y385000
X245000
X235000
X632000Y377000
X622999Y405999
X620000Y432500
X600000
X665000
X685000
X707500
X727500
X747500
X767500
X770000Y417500
X777500Y405000
X792000Y375000
X813000
X812500Y387500
X729500Y388750
X717000
X704500
Y405000
X717000
X729500
X668250Y398750
Y382500
T06
X25000Y213100
Y238500
Y263900
M30
