M48
;Layer_Color=9474304
;FILE_FORMAT=4:4
METRIC,TZ
;TYPE=PLATED
T2F00S00C0.2000
%
T02
X563000Y180000
X574000Y208000
X564000Y225000
X723000Y95000
X740000Y89000
X522653Y182262
X528000Y208000
X525000Y226000
X549000Y224000
X493000Y228000
X556000Y311000
X194000Y253500
X175500Y261000
X178000Y222500
X168000
X165000Y207500
X172500Y203125
X180000Y207500
X187500Y203125
X188000Y223000
X201250Y187500
X198665Y177540
Y168720
X198350Y154230
X195000Y141250
X168750
X169000Y122500
X212000Y119000
X214000Y129000
X231000Y157000
Y170000
Y183000
X152045Y193920
X157500Y203125
X148125Y207500
X138750Y197500
Y190000
Y183125
Y175000
Y166875
Y158125
Y150000
X144375Y142500
X158750Y141250
X159000Y122500
X119000Y118000
X109000
X120500Y130500
X121500Y144500
X121500Y151500
X120000Y195000
Y205000
Y216000
Y226000
X132500Y222500
X142500
X158000
X495000Y393000
X531000Y388000
X523000Y412000
X571000Y402000
X563000Y374000
M30
