%TF.GenerationSoftware,Altium Limited,Altium Designer,22.6.1 (34)*%
G04 Layer_Color=128*
%FSLAX45Y45*%
%MOMM*%
%TF.SameCoordinates,07F994AE-BB1C-4BEA-A643-928B9DFDCC76*%
%TF.FilePolarity,Positive*%
%TF.FileFunction,Drillmap*%
%TF.Part,Single*%
G01*
G75*
%TA.AperFunction,NonConductor*%
%ADD191C,0.12700*%
D191*
X5216531Y1822624D02*
X5236531D01*
X5226531Y1812624D02*
Y1832624D01*
X1195000Y1305000D02*
X1215000D01*
X1205000Y1295000D02*
Y1315000D01*
X1205000Y1445000D02*
X1225000D01*
X1215000Y1435000D02*
Y1455000D01*
X1080000Y1180000D02*
X1100000D01*
X1090000Y1170000D02*
Y1190000D01*
X1180000Y1180000D02*
X1200000D01*
X1190000Y1170000D02*
Y1190000D01*
X1745000Y2610000D02*
X1765000D01*
X1755000Y2600000D02*
Y2620000D01*
X1930000Y2535000D02*
X1950000D01*
X1940000Y2525000D02*
Y2545000D01*
X5620000Y1800000D02*
X5640000D01*
X5630000Y1790000D02*
Y1810000D01*
X5480000Y2240000D02*
X5500000D01*
X5490000Y2230000D02*
Y2250000D01*
X5630000D02*
X5650000D01*
X5640000Y2240000D02*
Y2260000D01*
X7220000Y950000D02*
X7240000D01*
X7230000Y940000D02*
Y960000D01*
X7390000Y890000D02*
X7410000D01*
X7400000Y880000D02*
Y900000D01*
X4920000Y2280000D02*
X4940000D01*
X4930000Y2270000D02*
Y2290000D01*
X5240000Y2260000D02*
X5260000D01*
X5250000Y2250000D02*
Y2270000D01*
X5270000Y2080000D02*
X5290000D01*
X5280000Y2070000D02*
Y2090000D01*
X5220000Y4120000D02*
X5240000D01*
X5230000Y4110000D02*
Y4130000D01*
X5700000Y4020000D02*
X5720000D01*
X5710000Y4010000D02*
Y4030000D01*
X5620000Y3740000D02*
X5640000D01*
X5630000Y3730000D02*
Y3750000D01*
X1973499Y1542300D02*
X1993499D01*
X1983499Y1532300D02*
Y1552300D01*
X1976649Y1687200D02*
X1996649D01*
X1986649Y1677200D02*
Y1697200D01*
X1976649Y1775400D02*
X1996649D01*
X1986649Y1765400D02*
Y1785400D01*
X1510449Y1939200D02*
X1530449D01*
X1520449Y1929200D02*
Y1949200D01*
X2002499Y1875000D02*
X2022499D01*
X2012499Y1865000D02*
Y1885000D01*
X1580000Y1225000D02*
X1600000D01*
X1590000Y1215000D02*
Y1235000D01*
X1680000Y1225000D02*
X1700000D01*
X1690000Y1215000D02*
Y1235000D01*
X1190000Y2260000D02*
X1210000D01*
X1200000Y2250000D02*
Y2270000D01*
X1190000Y2160000D02*
X1210000D01*
X1200000Y2150000D02*
Y2170000D01*
X1315000Y2225000D02*
X1335000D01*
X1325000Y2215000D02*
Y2235000D01*
X1415000Y2225000D02*
X1435000D01*
X1425000Y2215000D02*
Y2235000D01*
X1190000Y2050000D02*
X1210000D01*
X1200000Y2040000D02*
Y2060000D01*
X1190000Y1950000D02*
X1210000D01*
X1200000Y1940000D02*
Y1960000D01*
X1471250Y2075000D02*
X1491249D01*
X1481250Y2065000D02*
Y2085000D01*
X1640000Y2075000D02*
X1659999D01*
X1649999Y2065000D02*
Y2085000D01*
X1789999Y2075000D02*
X1809999D01*
X1799999Y2065000D02*
Y2085000D01*
X1864999Y2031250D02*
X1884999D01*
X1874999Y2021250D02*
Y2041250D01*
X1714999Y2031250D02*
X1734999D01*
X1724999Y2021250D02*
Y2041250D01*
X1564999Y2031250D02*
X1584999D01*
X1574999Y2021250D02*
Y2041250D01*
X1939999Y1412500D02*
X1959999D01*
X1949999Y1402500D02*
Y1422500D01*
X1677499Y1412500D02*
X1697499D01*
X1687499Y1402500D02*
Y1422500D01*
X1577500Y1412500D02*
X1597499D01*
X1587499Y1402500D02*
Y1422500D01*
X1433749Y1425000D02*
X1453749D01*
X1443749Y1415000D02*
Y1435000D01*
X1377499Y1500000D02*
X1397499D01*
X1387499Y1490000D02*
Y1510000D01*
X1377499Y1581250D02*
X1397499D01*
X1387499Y1571250D02*
Y1591250D01*
X1377499Y1668750D02*
X1397499D01*
X1387499Y1658750D02*
Y1678750D01*
X1377499Y1750000D02*
X1397499D01*
X1387499Y1740000D02*
Y1760000D01*
X1377499Y1831250D02*
X1397499D01*
X1387499Y1821250D02*
Y1841250D01*
X1377499Y1900000D02*
X1397499D01*
X1387499Y1890000D02*
Y1910000D01*
X1377499Y1975000D02*
X1397499D01*
X1387499Y1965000D02*
Y1985000D01*
X5730000Y2080000D02*
X5750000D01*
X5740000Y2070000D02*
Y2090000D01*
X2300000Y1830000D02*
X2320000D01*
X2310000Y1820000D02*
Y1840000D01*
X2300000Y1700000D02*
X2320000D01*
X2310000Y1690000D02*
Y1710000D01*
X2300000Y1570000D02*
X2320000D01*
X2310000Y1560000D02*
Y1580000D01*
X4940000Y3930000D02*
X4960000D01*
X4950000Y3920000D02*
Y3940000D01*
X1870000Y2230000D02*
X1890000D01*
X1880000Y2220000D02*
Y2240000D01*
X2110000Y1190000D02*
X2130000D01*
X2120000Y1180000D02*
Y1200000D01*
X2130000Y1290000D02*
X2150000D01*
X2140000Y1280000D02*
Y1300000D01*
X5550000Y3110000D02*
X5570000D01*
X5560000Y3100000D02*
Y3120000D01*
X5300000Y3880000D02*
X5320000D01*
X5310000Y3870000D02*
Y3890000D01*
X1770000Y2225000D02*
X1789999D01*
X1779999Y2215000D02*
Y2235000D01*
X1669999Y2225000D02*
X1689999D01*
X1679999Y2215000D02*
Y2235000D01*
X1569999Y2225000D02*
X1589999D01*
X1579999Y2215000D02*
Y2235000D01*
X1205000Y1515000D02*
X1225000D01*
X1215000Y1505000D02*
Y1525000D01*
%TF.MD5,a80b7a959c99754dbe397bb5d7ed90f6*%
M02*
