%TF.GenerationSoftware,Altium Limited,Altium Designer,22.6.1 (34)*%
G04 Layer_Color=2752767*
%FSLAX45Y45*%
%MOMM*%
%TF.SameCoordinates,07F994AE-BB1C-4BEA-A643-928B9DFDCC76*%
%TF.FilePolarity,Positive*%
%TF.FileFunction,Drawing*%
%TF.Part,Single*%
G01*
G75*
%TA.AperFunction,NonConductor*%
%ADD191C,0.12700*%
D191*
X1944200Y2484200D02*
X1969600Y2535000D01*
X1944200Y2585800D01*
X1995000Y2560400D01*
X2045800Y2585800D01*
X2020400Y2535000D01*
X2045800Y2484200D01*
X1995000Y2509600D01*
X1944200Y2484200D01*
X4829200Y2229200D02*
X4854600Y2280000D01*
X4829200Y2330800D01*
X4880000Y2305400D01*
X4930800Y2330800D01*
X4905400Y2280000D01*
X4930800Y2229200D01*
X4880000Y2254600D01*
X4829200Y2229200D01*
X1438149Y1856900D02*
X1463549Y1907700D01*
X1438149Y1958500D01*
X1488949Y1933100D01*
X1539749Y1958500D01*
X1514349Y1907700D01*
X1539749Y1856900D01*
X1488949Y1882300D01*
X1438149Y1856900D01*
X1905449Y1824200D02*
X1930849Y1875000D01*
X1905449Y1925800D01*
X1956249Y1900400D01*
X2007049Y1925800D01*
X1981649Y1875000D01*
X2007049Y1824200D01*
X1956249Y1849600D01*
X1905449Y1824200D01*
X1430450Y1930450D02*
X1455850Y1981250D01*
X1430450Y2032050D01*
X1481250Y2006650D01*
X1532050Y2032050D01*
X1506650Y1981250D01*
X1532050Y1930450D01*
X1481250Y1955850D01*
X1430450Y1930450D01*
X1392942Y1899207D02*
X1418342Y1950007D01*
X1392942Y2000807D01*
X1443742Y1975407D01*
X1494542Y2000807D01*
X1469142Y1950007D01*
X1494542Y1899207D01*
X1443742Y1924607D01*
X1392942Y1899207D01*
X1899199Y1424200D02*
X1924599Y1475000D01*
X1899199Y1525800D01*
X1949999Y1500400D01*
X2000799Y1525800D01*
X1975399Y1475000D01*
X2000799Y1424200D01*
X1949999Y1449600D01*
X1899199Y1424200D01*
Y1524200D02*
X1924599Y1575000D01*
X1899199Y1625800D01*
X1949999Y1600400D01*
X2000799Y1625800D01*
X1975399Y1575000D01*
X2000799Y1524200D01*
X1949999Y1549600D01*
X1899199Y1524200D01*
Y1599200D02*
X1924599Y1650000D01*
X1899199Y1700800D01*
X1949999Y1675400D01*
X2000799Y1700800D01*
X1975399Y1650000D01*
X2000799Y1599200D01*
X1949999Y1624600D01*
X1899199Y1599200D01*
Y1686700D02*
X1924599Y1737500D01*
X1899199Y1788300D01*
X1949999Y1762900D01*
X2000799Y1788300D01*
X1975399Y1737500D01*
X2000799Y1686700D01*
X1949999Y1712100D01*
X1899199Y1686700D01*
X1636699Y1417950D02*
X1662099Y1468750D01*
X1636699Y1519550D01*
X1687499Y1494150D01*
X1738299Y1519550D01*
X1712899Y1468750D01*
X1738299Y1417950D01*
X1687499Y1443350D01*
X1636699Y1417950D01*
X1536699D02*
X1562099Y1468750D01*
X1536699Y1519550D01*
X1587499Y1494150D01*
X1638299Y1519550D01*
X1612899Y1468750D01*
X1638299Y1417950D01*
X1587499Y1443350D01*
X1536699Y1417950D01*
X1392949Y1424200D02*
X1418349Y1475000D01*
X1392949Y1525800D01*
X1443749Y1500400D01*
X1494549Y1525800D01*
X1469149Y1475000D01*
X1494549Y1424200D01*
X1443749Y1449600D01*
X1392949Y1424200D01*
Y1486700D02*
X1418349Y1537500D01*
X1392949Y1588300D01*
X1443749Y1562900D01*
X1494549Y1588300D01*
X1469149Y1537500D01*
X1494549Y1486700D01*
X1443749Y1512100D01*
X1392949Y1486700D01*
Y1549200D02*
X1418349Y1600000D01*
X1392949Y1650800D01*
X1443749Y1625400D01*
X1494549Y1650800D01*
X1469149Y1600000D01*
X1494549Y1549200D01*
X1443749Y1574600D01*
X1392949Y1549200D01*
Y1611700D02*
X1418349Y1662500D01*
X1392949Y1713300D01*
X1443749Y1687900D01*
X1494549Y1713300D01*
X1469149Y1662500D01*
X1494549Y1611700D01*
X1443749Y1637100D01*
X1392949Y1611700D01*
Y1699200D02*
X1418349Y1750000D01*
X1392949Y1800800D01*
X1443749Y1775400D01*
X1494549Y1800800D01*
X1469149Y1750000D01*
X1494549Y1699200D01*
X1443749Y1724600D01*
X1392949Y1699200D01*
Y1824200D02*
X1418349Y1875000D01*
X1392949Y1925800D01*
X1443749Y1900400D01*
X1494549Y1925800D01*
X1469149Y1875000D01*
X1494549Y1824200D01*
X1443749Y1849600D01*
X1392949Y1824200D01*
Y1761700D02*
X1418349Y1812500D01*
X1392949Y1863300D01*
X1443749Y1837900D01*
X1494549Y1863300D01*
X1469149Y1812500D01*
X1494549Y1761700D01*
X1443749Y1787100D01*
X1392949Y1761700D01*
X1524199Y1934200D02*
X1549599Y1985000D01*
X1524199Y2035800D01*
X1574999Y2010400D01*
X1625799Y2035800D01*
X1600399Y1985000D01*
X1625799Y1934200D01*
X1574999Y1959600D01*
X1524199Y1934200D01*
X5439200Y2149200D02*
X5464600Y2200000D01*
X5439200Y2250800D01*
X5490000Y2225400D01*
X5540800Y2250800D01*
X5515400Y2200000D01*
X5540800Y2149200D01*
X5490000Y2174600D01*
X5439200Y2149200D01*
X2129200Y1199200D02*
X2154600Y1250000D01*
X2129200Y1300800D01*
X2180000Y1275400D01*
X2230800Y1300800D01*
X2205400Y1250000D01*
X2230800Y1199200D01*
X2180000Y1224600D01*
X2129200Y1199200D01*
X1674200Y1934200D02*
X1699600Y1985000D01*
X1674200Y2035800D01*
X1725000Y2010400D01*
X1775800Y2035800D01*
X1750400Y1985000D01*
X1775800Y1934200D01*
X1725000Y1959600D01*
X1674200Y1934200D01*
X1824200D02*
X1849600Y1985000D01*
X1824200Y2035800D01*
X1875000Y2010400D01*
X1925800Y2035800D01*
X1900400Y1985000D01*
X1925800Y1934200D01*
X1875000Y1959600D01*
X1824200Y1934200D01*
X1749199Y1932431D02*
X1774599Y1983231D01*
X1749199Y2034031D01*
X1799999Y2008631D01*
X1850799Y2034031D01*
X1825399Y1983231D01*
X1850799Y1932431D01*
X1799999Y1957831D01*
X1749199Y1932431D01*
X1599199D02*
X1624599Y1983231D01*
X1599199Y2034031D01*
X1649999Y2008631D01*
X1700799Y2034031D01*
X1675399Y1983231D01*
X1700799Y1932431D01*
X1649999Y1957831D01*
X1599199Y1932431D01*
%TF.MD5,48302b13e74d7eb6bbaf2952b1aa41b9*%
M02*
