%TF.GenerationSoftware,Altium Limited,Altium Designer,22.6.1 (34)*%
G04 Layer_Color=0*
%FSLAX45Y45*%
%MOMM*%
%TF.SameCoordinates,07F994AE-BB1C-4BEA-A643-928B9DFDCC76*%
%TF.FilePolarity,Positive*%
%TF.FileFunction,Profile,NP*%
%TF.Part,Single*%
G01*
G75*
%TA.AperFunction,Profile*%
%ADD179C,0.02540*%
D179*
X50000Y450000D02*
G02*
X450000Y50000I-50000J-450000D01*
G01*
D02*
G03*
X500000Y0I50000J-0D01*
G01*
X3400000D01*
D02*
G03*
X3450000Y50000I0J50000D01*
G01*
D02*
G02*
X3900000Y452769I450000J-50000D01*
G01*
D02*
G02*
X4350000Y50000I0J-452769D01*
G01*
D02*
G03*
X4400000Y0I50000J0D01*
G01*
X7700000D01*
D02*
G03*
X7750000Y50000I0J50000D01*
G01*
D02*
G02*
X8150000Y450000I450000J-50000D01*
G01*
D02*
G03*
X8200000Y500000I0J50000D01*
G01*
X8200000Y3900000D01*
D02*
G03*
X8150000Y3950000I-50000J-0D01*
G01*
D02*
G02*
X7750000Y4350000I50000J450000D01*
G01*
D02*
G03*
X7700000Y4400000I-50000J0D01*
G01*
X4400000Y4400000D01*
D02*
G03*
X4350000Y4350000I0J-50000D01*
G01*
X4350000Y4300000D01*
D02*
G02*
X4300000Y4250000I-50000J0D01*
G01*
X3900000Y4250000D01*
D02*
G02*
X3850000Y4300000I0J50000D01*
G01*
X3850000Y4350000D01*
D02*
G03*
X3800000Y4400000I-50000J0D01*
G01*
X500000Y4400000D01*
D02*
G03*
X450000Y4350000I0J-50000D01*
G01*
D02*
G02*
X50000Y3950000I-450000J50000D01*
G01*
D02*
G03*
X0Y3900000I-0J-50000D01*
G01*
Y500000D01*
D02*
G03*
X50000Y450000I50000J0D01*
G01*
%TF.MD5,e7c30734bd8dcda2fda74e4e14ff1af2*%
M02*
