%TF.GenerationSoftware,Altium Limited,Altium Designer,22.6.1 (34)*%
G04 Layer_Color=0*
%FSLAX45Y45*%
%MOMM*%
%TF.SameCoordinates,07F994AE-BB1C-4BEA-A643-928B9DFDCC76*%
%TF.FilePolarity,Positive*%
%TF.FileFunction,Plated,2,5,Blind,Drill*%
%TF.Part,Single*%
G01*
G75*
%TA.AperFunction,ViaDrill,NotFilled*%
%ADD187C,0.20000*%
D187*
X5226531Y1822624D02*
D03*
X1205000Y1305000D02*
D03*
X1215000Y1445000D02*
D03*
X1090000Y1180000D02*
D03*
X1190000D02*
D03*
X1755000Y2610000D02*
D03*
X1940000Y2535000D02*
D03*
X5630000Y1800000D02*
D03*
X5490000Y2240000D02*
D03*
X5640000Y2250000D02*
D03*
X7230000Y950000D02*
D03*
X7400000Y890000D02*
D03*
X4930000Y2280000D02*
D03*
X5250000Y2260000D02*
D03*
X5280000Y2080000D02*
D03*
X5230000Y4120000D02*
D03*
X5710000Y4020000D02*
D03*
X5630000Y3740000D02*
D03*
X1983499Y1542300D02*
D03*
X1986649Y1687200D02*
D03*
Y1775400D02*
D03*
X1520449Y1939200D02*
D03*
X2012499Y1875000D02*
D03*
X1590000Y1225000D02*
D03*
X1690000D02*
D03*
X1200000Y2260000D02*
D03*
Y2160000D02*
D03*
X1325000Y2225000D02*
D03*
X1425000D02*
D03*
X1200000Y2050000D02*
D03*
Y1950000D02*
D03*
X1481250Y2075000D02*
D03*
X1649999D02*
D03*
X1799999D02*
D03*
X1874999Y2031250D02*
D03*
X1724999D02*
D03*
X1574999D02*
D03*
X1949999Y1412500D02*
D03*
X1687499D02*
D03*
X1587499D02*
D03*
X1443749Y1425000D02*
D03*
X1387499Y1500000D02*
D03*
Y1581250D02*
D03*
Y1668750D02*
D03*
Y1750000D02*
D03*
Y1831250D02*
D03*
Y1900000D02*
D03*
Y1975000D02*
D03*
X5740000Y2080000D02*
D03*
X2310000Y1830000D02*
D03*
Y1700000D02*
D03*
Y1570000D02*
D03*
X4950000Y3930000D02*
D03*
X1880000Y2230000D02*
D03*
X2120000Y1190000D02*
D03*
X2140000Y1290000D02*
D03*
X5560000Y3110000D02*
D03*
X5310000Y3880000D02*
D03*
X1779999Y2225000D02*
D03*
X1679999D02*
D03*
X1579999D02*
D03*
X1215000Y1515000D02*
D03*
%TF.MD5,63199e1c1c7e4bf0a81c1c91bd229d3b*%
M02*
