%TF.GenerationSoftware,Altium Limited,Altium Designer,22.6.1 (34)*%
G04 Layer_Color=2752767*
%FSLAX45Y45*%
%MOMM*%
%TF.SameCoordinates,07F994AE-BB1C-4BEA-A643-928B9DFDCC76*%
%TF.FilePolarity,Positive*%
%TF.FileFunction,Drawing*%
%TF.Part,Single*%
G01*
G75*
%TA.AperFunction,NonConductor*%
%ADD191C,0.12700*%
%ADD192C,0.16933*%
D191*
X199200Y2334200D02*
Y2435800D01*
X300799D01*
Y2334200D01*
X199200D01*
Y2588200D02*
Y2689800D01*
X300799D01*
Y2588200D01*
X199200D01*
Y2080200D02*
Y2181800D01*
X300799D01*
Y2080200D01*
X199200D01*
X199193Y549197D02*
X224593D01*
X249993Y574597D01*
X275393Y549197D01*
X300793D01*
Y574597D01*
X275393Y599997D01*
X300793Y625397D01*
Y650797D01*
X275393D01*
X249993Y625397D01*
X224593Y650797D01*
X199193D01*
Y625397D01*
X224593Y599997D01*
X199193Y574597D01*
Y549197D01*
X7899197D02*
X7924597D01*
X7949997Y574597D01*
X7975397Y549197D01*
X8000797D01*
Y574597D01*
X7975397Y599997D01*
X8000797Y625397D01*
Y650797D01*
X7975397D01*
X7949997Y625397D01*
X7924597Y650797D01*
X7899197D01*
Y625397D01*
X7924597Y599997D01*
X7899197Y574597D01*
Y549197D01*
Y2499198D02*
X7924597D01*
X7949997Y2524598D01*
X7975397Y2499198D01*
X8000797D01*
Y2524598D01*
X7975397Y2549998D01*
X8000797Y2575398D01*
Y2600798D01*
X7975397D01*
X7949997Y2575398D01*
X7924597Y2600798D01*
X7899197D01*
Y2575398D01*
X7924597Y2549998D01*
X7899197Y2524598D01*
Y2499198D01*
X219193Y3049197D02*
X244593D01*
X269993Y3074597D01*
X295393Y3049197D01*
X320793D01*
Y3074597D01*
X295393Y3099997D01*
X320793Y3125397D01*
Y3150797D01*
X295393D01*
X269993Y3125397D01*
X244593Y3150797D01*
X219193D01*
Y3125397D01*
X244593Y3099997D01*
X219193Y3074597D01*
Y3049197D01*
X6686700Y162500D02*
X6737500Y213300D01*
X6788300Y162500D01*
X6737500Y111700D01*
X6686700Y162500D01*
X6461700Y775000D02*
X6512500Y825800D01*
X6563300Y775000D01*
X6512500Y724200D01*
X6461700Y775000D01*
X6161700Y812500D02*
X6212500Y863300D01*
X6263300Y812500D01*
X6212500Y761700D01*
X6161700Y812500D01*
X6061700Y775000D02*
X6112500Y825800D01*
X6163300Y775000D01*
X6112500Y724200D01*
X6061700Y775000D01*
X5661700Y762500D02*
X5712500Y813300D01*
X5763300Y762500D01*
X5712500Y711700D01*
X5661700Y762500D01*
X5124200D02*
X5175000Y813300D01*
X5225800Y762500D01*
X5175000Y711700D01*
X5124200Y762500D01*
X3730000Y2849200D02*
X3679200Y2950800D01*
X3780800D01*
X3730000Y2849200D01*
X3729375Y1951075D02*
X3678575Y2052675D01*
X3780175D01*
X3729375Y1951075D01*
X6995000Y3411700D02*
X6944200Y3513300D01*
X7045800D01*
X6995000Y3411700D01*
Y3336700D02*
X6944200Y3438300D01*
X7045800D01*
X6995000Y3336700D01*
X1875706Y1425613D02*
X1824906Y1527213D01*
X1926506D01*
X1875706Y1425613D01*
X7370000Y3028026D02*
X7319200Y3129626D01*
X7420800D01*
X7370000Y3028026D01*
X3151475Y2333975D02*
Y2308575D01*
X3202275D01*
Y2333975D01*
X3227675D01*
Y2384775D01*
X3202275D01*
Y2410175D01*
X3151475D01*
Y2384775D01*
X3126075D01*
Y2333975D01*
X3151475D01*
Y2415225D02*
Y2389825D01*
X3202275D01*
Y2415225D01*
X3227675D01*
Y2466025D01*
X3202275D01*
Y2491425D01*
X3151475D01*
Y2466025D01*
X3126075D01*
Y2415225D01*
X3151475D01*
X6070000Y2389200D02*
X6019200Y2490800D01*
X6120800D01*
X6070000Y2389200D01*
X1215000Y1334200D02*
X1164200Y1435800D01*
X1265800D01*
X1215000Y1334200D01*
X1919200Y2250000D02*
X1970000Y2300800D01*
X2020800Y2250000D01*
X1970000Y2199200D01*
X1919200Y2250000D01*
X5139200Y1760000D02*
X5190000Y1810800D01*
X5240800Y1760000D01*
X5190000Y1709200D01*
X5139200Y1760000D01*
X1340000Y526700D02*
X1289200Y628300D01*
X1390800D01*
X1340000Y526700D01*
X1740000Y469200D02*
X1689200Y570800D01*
X1790800D01*
X1740000Y469200D01*
X1230000D02*
X1179200Y570800D01*
X1280800D01*
X1230000Y469200D01*
X2681235Y1709200D02*
X2630435Y1810800D01*
X2732035D01*
X2681235Y1709200D01*
X2309200Y590000D02*
X2360000Y640800D01*
X2410800Y590000D01*
X2360000Y539200D01*
X2309200Y590000D01*
Y390000D02*
X2360000Y440800D01*
X2410800Y390000D01*
X2360000Y339200D01*
X2309200Y390000D01*
X1640000Y2539200D02*
X1589200Y2640800D01*
X1690800D01*
X1640000Y2539200D01*
X1545000Y2559200D02*
X1494200Y2660800D01*
X1595800D01*
X1545000Y2559200D01*
X1497402Y2509935D02*
X1446602Y2611535D01*
X1548202D01*
X1497402Y2509935D01*
X1410000Y2509200D02*
X1359200Y2610800D01*
X1460800D01*
X1410000Y2509200D01*
X1975000Y2346700D02*
X1924200Y2448300D01*
X2025800D01*
X1975000Y2346700D01*
X2020000Y2289200D02*
X1969200Y2390800D01*
X2070800D01*
X2020000Y2289200D01*
X7770000Y1109200D02*
X7719200Y1210800D01*
X7820800D01*
X7770000Y1109200D01*
X7520000Y1646700D02*
X7469200Y1748300D01*
X7570800D01*
X7520000Y1646700D01*
X5859200Y1480000D02*
X5910000Y1530800D01*
X5960800Y1480000D01*
X5910000Y1429200D01*
X5859200Y1480000D01*
X6100000Y1797751D02*
X6049200Y1899351D01*
X6150800D01*
X6100000Y1797751D01*
X6870000Y1389200D02*
X6819200Y1490800D01*
X6920800D01*
X6870000Y1389200D01*
X6950000D02*
X6899200Y1490800D01*
X7000800D01*
X6950000Y1389200D01*
Y1229200D02*
X6899200Y1330800D01*
X7000800D01*
X6950000Y1229200D01*
X6870000D02*
X6819200Y1330800D01*
X6920800D01*
X6870000Y1229200D01*
X5189200Y1430000D02*
X5240000Y1480800D01*
X5290800Y1430000D01*
X5240000Y1379200D01*
X5189200Y1430000D01*
X4819200Y1765000D02*
X4870000Y1815800D01*
X4920800Y1765000D01*
X4870000Y1714200D01*
X4819200Y1765000D01*
X4467725Y2260850D02*
Y2235450D01*
X4518525D01*
Y2260850D01*
X4543925D01*
Y2311650D01*
X4518525D01*
Y2337050D01*
X4467725D01*
Y2311650D01*
X4442325D01*
Y2260850D01*
X4467725D01*
Y2179600D02*
Y2154200D01*
X4518525D01*
Y2179600D01*
X4543925D01*
Y2230400D01*
X4518525D01*
Y2255800D01*
X4467725D01*
Y2230400D01*
X4442325D01*
Y2179600D01*
X4467725D01*
Y2488350D02*
Y2462950D01*
X4518525D01*
Y2488350D01*
X4543925D01*
Y2539150D01*
X4518525D01*
Y2564550D01*
X4467725D01*
Y2539150D01*
X4442325D01*
Y2488350D01*
X4467725D01*
Y2569600D02*
Y2544200D01*
X4518525D01*
Y2569600D01*
X4543925D01*
Y2620400D01*
X4518525D01*
Y2645800D01*
X4467725D01*
Y2620400D01*
X4442325D01*
Y2569600D01*
X4467725D01*
X4525625Y1991700D02*
X4474825Y2093300D01*
X4576425D01*
X4525625Y1991700D01*
X4460625Y1926700D02*
X4409825Y2028300D01*
X4511425D01*
X4460625Y1926700D01*
X3143350Y2082100D02*
Y2056700D01*
X3194150D01*
Y2082100D01*
X3219550D01*
Y2132900D01*
X3194150D01*
Y2158300D01*
X3143350D01*
Y2132900D01*
X3117950D01*
Y2082100D01*
X3143350D01*
Y2667100D02*
Y2641700D01*
X3194150D01*
Y2667100D01*
X3219550D01*
Y2717900D01*
X3194150D01*
Y2743300D01*
X3143350D01*
Y2717900D01*
X3117950D01*
Y2667100D01*
X3143350D01*
Y2171475D02*
Y2146075D01*
X3194150D01*
Y2171475D01*
X3219550D01*
Y2222275D01*
X3194150D01*
Y2247675D01*
X3143350D01*
Y2222275D01*
X3117950D01*
Y2171475D01*
X3143350D01*
Y2577725D02*
Y2552325D01*
X3194150D01*
Y2577725D01*
X3219550D01*
Y2628525D01*
X3194150D01*
Y2653925D01*
X3143350D01*
Y2628525D01*
X3117950D01*
Y2577725D01*
X3143350D01*
Y2496475D02*
Y2471075D01*
X3194150D01*
Y2496475D01*
X3219550D01*
Y2547275D01*
X3194150D01*
Y2572675D01*
X3143350D01*
Y2547275D01*
X3117950D01*
Y2496475D01*
X3143350D01*
Y2252725D02*
Y2227325D01*
X3194150D01*
Y2252725D01*
X3219550D01*
Y2303525D01*
X3194150D01*
Y2328925D01*
X3143350D01*
Y2303525D01*
X3117950D01*
Y2252725D01*
X3143350D01*
X4639200Y2750000D02*
X4690000Y2800800D01*
X4740800Y2750000D01*
X4690000Y2699200D01*
X4639200Y2750000D01*
X4478683Y2930517D02*
X4427883Y3032117D01*
X4529483D01*
X4478683Y2930517D01*
X4559341Y2929858D02*
X4508541Y3031458D01*
X4610141D01*
X4559341Y2929858D01*
X4640000Y2929200D02*
X4589200Y3030800D01*
X4690800D01*
X4640000Y2929200D01*
X5189200Y2900000D02*
X5240000Y2950800D01*
X5290800Y2900000D01*
X5240000Y2849200D01*
X5189200Y2900000D01*
X5039200Y2010000D02*
X5090000Y2060800D01*
X5140800Y2010000D01*
X5090000Y1959200D01*
X5039200Y2010000D01*
X5019200Y2410000D02*
X5070000Y2460800D01*
X5120800Y2410000D01*
X5070000Y2359200D01*
X5019200Y2410000D01*
X5089200Y2580000D02*
X5140000Y2630800D01*
X5190800Y2580000D01*
X5140000Y2529200D01*
X5089200Y2580000D01*
X5269200Y1420000D02*
X5320000Y1470800D01*
X5370800Y1420000D01*
X5320000Y1369200D01*
X5269200Y1420000D01*
X5579200Y1965000D02*
X5630000Y2015800D01*
X5680800Y1965000D01*
X5630000Y1914200D01*
X5579200Y1965000D01*
X4080000Y3389200D02*
X4029200Y3490800D01*
X4130800D01*
X4080000Y3389200D01*
X5390000Y3809200D02*
X5339200Y3910800D01*
X5440800D01*
X5390000Y3809200D01*
X5359200Y3990000D02*
X5410000Y4040800D01*
X5460800Y3990000D01*
X5410000Y3939200D01*
X5359200Y3990000D01*
X6030000Y4049200D02*
X5979200Y4150800D01*
X6080800D01*
X6030000Y4049200D01*
X5910000D02*
X5859200Y4150800D01*
X5960800D01*
X5910000Y4049200D01*
X5589200Y3920000D02*
X5640000Y3970800D01*
X5690800Y3920000D01*
X5640000Y3869200D01*
X5589200Y3920000D01*
X5689200Y3580000D02*
X5740000Y3630800D01*
X5790800Y3580000D01*
X5740000Y3529200D01*
X5689200Y3580000D01*
X2760689Y1368511D02*
X2709889Y1470111D01*
X2811489D01*
X2760689Y1368511D01*
X2690000Y1479200D02*
X2639200Y1580800D01*
X2740800D01*
X2690000Y1479200D01*
X2600000Y1550435D02*
X2549200Y1652035D01*
X2650800D01*
X2600000Y1550435D01*
X2520000Y1439200D02*
X2469200Y1540800D01*
X2570800D01*
X2520000Y1439200D01*
X2510000Y1139200D02*
X2459200Y1240800D01*
X2560800D01*
X2510000Y1139200D01*
X3179200Y640000D02*
X3230000Y690800D01*
X3280800Y640000D01*
X3230000Y589200D01*
X3179200Y640000D01*
X1862499Y1624200D02*
X1811699Y1725800D01*
X1913299D01*
X1862499Y1624200D01*
Y1511700D02*
X1811699Y1613300D01*
X1913299D01*
X1862499Y1511700D01*
X1924999Y1749200D02*
X1874199Y1850800D01*
X1975799D01*
X1924999Y1749200D01*
X1537499Y1730450D02*
X1486699Y1832050D01*
X1588299D01*
X1537499Y1730450D01*
X1536199Y1617500D02*
X1485399Y1719100D01*
X1586999D01*
X1536199Y1617500D01*
X1662499Y1711700D02*
X1611699Y1813300D01*
X1713299D01*
X1662499Y1711700D01*
X1737499D02*
X1686699Y1813300D01*
X1788299D01*
X1737499Y1711700D01*
X1662499Y1636700D02*
X1611699Y1738300D01*
X1713299D01*
X1662499Y1636700D01*
X1737499D02*
X1686699Y1738300D01*
X1788299D01*
X1737499Y1636700D01*
X1349200Y1125000D02*
X1400000Y1175800D01*
X1450800Y1125000D01*
X1400000Y1074200D01*
X1349200Y1125000D01*
X1444973Y1149173D02*
X1394173Y1250773D01*
X1495773D01*
X1444973Y1149173D01*
X5399200Y2820000D02*
X5450000Y2870800D01*
X5500800Y2820000D01*
X5450000Y2769200D01*
X5399200Y2820000D01*
X4010000Y719200D02*
X3959200Y820800D01*
X4060800D01*
X4010000Y719200D01*
X3150000Y599200D02*
X3099200Y700800D01*
X3200800D01*
X3150000Y599200D01*
X6149987Y4009200D02*
X6099187Y4110800D01*
X6200787D01*
X6149987Y4009200D01*
X850000Y2559200D02*
X799200Y2660800D01*
X900800D01*
X850000Y2559200D01*
X920000D02*
X869200Y2660800D01*
X970800D01*
X920000Y2559200D01*
X990000D02*
X939200Y2660800D01*
X1040800D01*
X990000Y2559200D01*
X1330000D02*
X1279200Y2660800D01*
X1380800D01*
X1330000Y2559200D01*
X1190000D02*
X1139200Y2660800D01*
X1240800D01*
X1190000Y2559200D01*
X770000D02*
X719200Y2660800D01*
X820800D01*
X770000Y2559200D01*
X540000D02*
X489200Y2660800D01*
X590800D01*
X540000Y2559200D01*
X660000D02*
X609200Y2660800D01*
X710800D01*
X660000Y2559200D01*
X5439200Y2900000D02*
X5490000Y2950800D01*
X5540800Y2900000D01*
X5490000Y2849200D01*
X5439200Y2900000D01*
X5359200D02*
X5410000Y2950800D01*
X5460800Y2900000D01*
X5410000Y2849200D01*
X5359200Y2900000D01*
X1809999Y1834200D02*
X1759199Y1935800D01*
X1860799D01*
X1809999Y1834200D01*
X7289341Y1469858D02*
X7238541Y1571458D01*
X7340141D01*
X7289341Y1469858D01*
X4250000Y399200D02*
X4199200Y500800D01*
X4300800D01*
X4250000Y399200D01*
X3879200Y770000D02*
X3930000Y820800D01*
X3980800Y770000D01*
X3930000Y719200D01*
X3879200Y770000D01*
X2710000Y1089200D02*
X2659200Y1190800D01*
X2760800D01*
X2710000Y1089200D01*
X2850000D02*
X2799200Y1190800D01*
X2900800D01*
X2850000Y1089200D01*
X3990000Y1879200D02*
X3939200Y1980800D01*
X4040800D01*
X3990000Y1879200D01*
X4500000Y1189200D02*
X4449200Y1290800D01*
X4550800D01*
X4500000Y1189200D01*
X4629614Y4239413D02*
X4578814Y4341013D01*
X4680414D01*
X4629614Y4239413D01*
X6170000Y2069200D02*
X6119200Y2170800D01*
X6220800D01*
X6170000Y2069200D01*
Y2199200D02*
X6119200Y2300800D01*
X6220800D01*
X6170000Y2199200D01*
Y2289200D02*
X6119200Y2390800D01*
X6220800D01*
X6170000Y2289200D01*
X5990000Y2779200D02*
X5939200Y2880800D01*
X6040800D01*
X5990000Y2779200D01*
X1209200Y590000D02*
X1260000Y640800D01*
X1310800Y590000D01*
X1260000Y539200D01*
X1209200Y590000D01*
X1090000Y569200D02*
X1039200Y670800D01*
X1140800D01*
X1090000Y569200D01*
X1079200Y550000D02*
X1130000Y600800D01*
X1180800Y550000D01*
X1130000Y499200D01*
X1079200Y550000D01*
X1700000Y779200D02*
X1649200Y880800D01*
X1750800D01*
X1700000Y779200D01*
X2020000Y549200D02*
X1969200Y650800D01*
X2070800D01*
X2020000Y549200D01*
X2010000Y339200D02*
X1959200Y440800D01*
X2060800D01*
X2010000Y339200D01*
X1490000Y399200D02*
X1439200Y500800D01*
X1540800D01*
X1490000Y399200D01*
X1650000D02*
X1599200Y500800D01*
X1700800D01*
X1650000Y399200D01*
X3175199Y534399D02*
X3124399Y635999D01*
X3225999D01*
X3175199Y534399D01*
X3290000Y529200D02*
X3239200Y630800D01*
X3340800D01*
X3290000Y529200D01*
X3040000Y369200D02*
X2989200Y470800D01*
X3090800D01*
X3040000Y369200D01*
X5270000Y4229200D02*
X5219200Y4330800D01*
X5320800D01*
X5270000Y4229200D01*
X2780000Y1089200D02*
X2729200Y1190800D01*
X2830800D01*
X2780000Y1089200D01*
X1512499Y1424200D02*
X1461699Y1525800D01*
X1563299D01*
X1512499Y1424200D01*
X1590498Y1834699D02*
X1539698Y1936299D01*
X1641298D01*
X1590498Y1834699D01*
X2139200Y1410000D02*
X2190000Y1460800D01*
X2240800Y1410000D01*
X2190000Y1359200D01*
X2139200Y1410000D01*
X1749200Y1160000D02*
X1800000Y1210800D01*
X1850800Y1160000D01*
X1800000Y1109200D01*
X1749200Y1160000D01*
X1490000Y2219200D02*
X1439200Y2320800D01*
X1540800D01*
X1490000Y2219200D01*
X730000Y1029200D02*
X679200Y1130800D01*
X780800D01*
X730000Y1029200D01*
X840000D02*
X789200Y1130800D01*
X890800D01*
X840000Y1029200D01*
X920000D02*
X869200Y1130800D01*
X970800D01*
X920000Y1029200D01*
X1020000D02*
X969200Y1130800D01*
X1070800D01*
X1020000Y1029200D01*
X970000Y1079200D02*
X919200Y1180800D01*
X1020800D01*
X970000Y1079200D01*
X2070000Y979200D02*
X2019200Y1080800D01*
X2120800D01*
X2070000Y979200D01*
X2340000Y909200D02*
X2289200Y1010800D01*
X2390800D01*
X2340000Y909200D01*
X3150000Y851700D02*
X3099200Y953300D01*
X3200800D01*
X3150000Y851700D01*
X3080000D02*
X3029200Y953300D01*
X3130800D01*
X3080000Y851700D01*
X3220000D02*
X3169200Y953300D01*
X3270800D01*
X3220000Y851700D01*
X3650000Y1849200D02*
X3599200Y1950800D01*
X3700800D01*
X3650000Y1849200D01*
X3860000Y1799200D02*
X3809200Y1900800D01*
X3910800D01*
X3860000Y1799200D01*
X2565000Y1749301D02*
X2514200Y1850901D01*
X2615800D01*
X2565000Y1749301D01*
X2720000Y1419200D02*
X2669200Y1520800D01*
X2770800D01*
X2720000Y1419200D01*
X5039200Y1930000D02*
X5090000Y1980800D01*
X5140800Y1930000D01*
X5090000Y1879200D01*
X5039200Y1930000D01*
X6425000Y724200D02*
X6374200Y825800D01*
X6475800D01*
X6425000Y724200D01*
X5579200Y1880000D02*
X5630000Y1930800D01*
X5680800Y1880000D01*
X5630000Y1829200D01*
X5579200Y1880000D01*
X7600000Y79200D02*
X7549200Y180800D01*
X7650800D01*
X7600000Y79200D01*
X2630000Y1749200D02*
X2579200Y1850800D01*
X2680800D01*
X2630000Y1749200D01*
X2560000Y1499200D02*
X2509200Y1600800D01*
X2610800D01*
X2560000Y1499200D01*
X2197500Y1529200D02*
X2146700Y1630800D01*
X2248300D01*
X2197500Y1529200D01*
X2130000D02*
X2079200Y1630800D01*
X2180800D01*
X2130000Y1529200D01*
X4525625Y1926700D02*
X4474825Y2028300D01*
X4576425D01*
X4525625Y1926700D01*
X3920000Y1839200D02*
X3869200Y1940800D01*
X3970800D01*
X3920000Y1839200D01*
X2199999Y1894200D02*
X2149199Y1995800D01*
X2250799D01*
X2199999Y1894200D01*
X7060000Y1381700D02*
X7009200Y1483300D01*
X7110800D01*
X7060000Y1381700D01*
X4710000Y699200D02*
X4659200Y800800D01*
X4760800D01*
X4710000Y699200D01*
X6000000Y724200D02*
X5949200Y825800D01*
X6050800D01*
X6000000Y724200D01*
X5425000D02*
X5374200Y825800D01*
X5475800D01*
X5425000Y724200D01*
X4650000Y559200D02*
X4599200Y660800D01*
X4700800D01*
X4650000Y559200D01*
X4780000Y699200D02*
X4729200Y800800D01*
X4830800D01*
X4780000Y699200D01*
X3325000Y74200D02*
X3274200Y175800D01*
X3375800D01*
X3325000Y74200D01*
X3250000Y149200D02*
X3199200Y250800D01*
X3300800D01*
X3250000Y149200D01*
X3175000Y74200D02*
X3124200Y175800D01*
X3225800D01*
X3175000Y74200D01*
X5349200Y1430000D02*
X5400000Y1480800D01*
X5450800Y1430000D01*
X5400000Y1379200D01*
X5349200Y1430000D01*
X5939200Y1480000D02*
X5990000Y1530800D01*
X6040800Y1480000D01*
X5990000Y1429200D01*
X5939200Y1480000D01*
X7360000Y1069200D02*
X7309200Y1170800D01*
X7410800D01*
X7360000Y1069200D01*
X7440000D02*
X7389200Y1170800D01*
X7490800D01*
X7440000Y1069200D01*
X1260000Y2549200D02*
X1209200Y2650800D01*
X1310800D01*
X1260000Y2549200D01*
X1455000Y2559200D02*
X1404200Y2660800D01*
X1505800D01*
X1455000Y2559200D01*
X1580000Y2499200D02*
X1529200Y2600800D01*
X1630800D01*
X1580000Y2499200D01*
X600000Y2509200D02*
X549200Y2610800D01*
X650800D01*
X600000Y2509200D01*
X750000Y2189200D02*
X699200Y2290800D01*
X800800D01*
X750000Y2189200D01*
X800000Y2129200D02*
X749200Y2230800D01*
X850800D01*
X800000Y2129200D01*
X575000Y2024200D02*
X524200Y2125800D01*
X625800D01*
X575000Y2024200D01*
X475000D02*
X424200Y2125800D01*
X525800D01*
X475000Y2024200D01*
X425000Y1974200D02*
X374200Y2075800D01*
X475800D01*
X425000Y1974200D01*
X780000Y1079200D02*
X729200Y1180800D01*
X830800D01*
X780000Y1079200D01*
X900000Y1769200D02*
X849200Y1870800D01*
X950800D01*
X900000Y1769200D01*
X1270000Y1709200D02*
X1219200Y1810800D01*
X1320800D01*
X1270000Y1709200D01*
X900000Y1579200D02*
X849200Y1680800D01*
X950800D01*
X900000Y1579200D01*
X5828520Y3546844D02*
X5777720Y3648444D01*
X5879320D01*
X5828520Y3546844D01*
X6250000Y3889200D02*
X6199200Y3990800D01*
X6300800D01*
X6250000Y3889200D01*
X6560000D02*
X6509200Y3990800D01*
X6610800D01*
X6560000Y3889200D01*
X4780000Y769200D02*
X4729200Y870800D01*
X4830800D01*
X4780000Y769200D01*
X1120000Y1809200D02*
X1069200Y1910800D01*
X1170800D01*
X1120000Y1809200D01*
X1699999Y1834200D02*
X1649199Y1935800D01*
X1750799D01*
X1699999Y1834200D01*
X1924999Y1474200D02*
X1874199Y1575800D01*
X1975799D01*
X1924999Y1474200D01*
X1674999Y1529200D02*
X1624199Y1630800D01*
X1725799D01*
X1674999Y1529200D01*
X1699999Y1674200D02*
X1649199Y1775800D01*
X1750799D01*
X1699999Y1674200D01*
D192*
X5513300Y612500D02*
G03*
X5513300Y612500I-50800J0D01*
G01*
X4170800Y2980000D02*
G03*
X4170800Y2980000I-50800J0D01*
G01*
X4850800Y2740000D02*
G03*
X4850800Y2740000I-50800J0D01*
G01*
X6000800Y3465000D02*
G03*
X6000800Y3465000I-50800J0D01*
G01*
X6053143Y3382053D02*
G03*
X6053143Y3382053I-50800J0D01*
G01*
X6130800Y3560000D02*
G03*
X6130800Y3560000I-50800J0D01*
G01*
X6708300Y2425000D02*
G03*
X6708300Y2425000I-50800J0D01*
G01*
X6280800Y2610000D02*
G03*
X6280800Y2610000I-50800J0D01*
G01*
Y2400000D02*
G03*
X6280800Y2400000I-50800J0D01*
G01*
X4020800Y3510000D02*
G03*
X4020800Y3510000I-50800J0D01*
G01*
X3940800D02*
G03*
X3940800Y3510000I-50800J0D01*
G01*
X4005800Y3900000D02*
G03*
X4005800Y3900000I-50800J0D01*
G01*
X3935800D02*
G03*
X3935800Y3900000I-50800J0D01*
G01*
X2790800Y3670000D02*
G03*
X2790800Y3670000I-50800J0D01*
G01*
X2750800Y4230000D02*
G03*
X2750800Y4230000I-50800J0D01*
G01*
X2390800Y2955000D02*
G03*
X2390800Y2955000I-50800J0D01*
G01*
X2325800D02*
G03*
X2325800Y2955000I-50800J0D01*
G01*
X2455800D02*
G03*
X2455800Y2955000I-50800J0D01*
G01*
X7045800Y1800000D02*
G03*
X7045800Y1800000I-50800J0D01*
G01*
X7100800Y1710000D02*
G03*
X7100800Y1710000I-50800J0D01*
G01*
X7295800Y2375000D02*
G03*
X7295800Y2375000I-50800J0D01*
G01*
Y2262500D02*
G03*
X7295800Y2262500I-50800J0D01*
G01*
X7183300Y2062500D02*
G03*
X7183300Y2062500I-50800J0D01*
G01*
X7083300Y1987500D02*
G03*
X7083300Y1987500I-50800J0D01*
G01*
Y2137500D02*
G03*
X7083300Y2137500I-50800J0D01*
G01*
Y2287500D02*
G03*
X7083300Y2287500I-50800J0D01*
G01*
Y2437500D02*
G03*
X7083300Y2437500I-50800J0D01*
G01*
X7270800Y2900000D02*
G03*
X7270800Y2900000I-50800J0D01*
G01*
X7283300Y3400000D02*
G03*
X7283300Y3400000I-50800J0D01*
G01*
X7095800Y3312500D02*
G03*
X7095800Y3312500I-50800J0D01*
G01*
X7220800D02*
G03*
X7220800Y3312500I-50800J0D01*
G01*
X7345800Y3537500D02*
G03*
X7345800Y3537500I-50800J0D01*
G01*
X7220800D02*
G03*
X7220800Y3537500I-50800J0D01*
G01*
X7095800D02*
G03*
X7095800Y3537500I-50800J0D01*
G01*
X7220800Y4050000D02*
G03*
X7220800Y4050000I-50800J0D01*
G01*
Y3887500D02*
G03*
X7220800Y3887500I-50800J0D01*
G01*
Y3712500D02*
G03*
X7220800Y3712500I-50800J0D01*
G01*
X7345800D02*
G03*
X7345800Y3712500I-50800J0D01*
G01*
Y3887500D02*
G03*
X7345800Y3887500I-50800J0D01*
G01*
Y4050000D02*
G03*
X7345800Y4050000I-50800J0D01*
G01*
X7095800Y3712500D02*
G03*
X7095800Y3712500I-50800J0D01*
G01*
Y3887500D02*
G03*
X7095800Y3887500I-50800J0D01*
G01*
Y4050000D02*
G03*
X7095800Y4050000I-50800J0D01*
G01*
X7195800Y3200000D02*
G03*
X7195800Y3200000I-50800J0D01*
G01*
X2910800Y1660000D02*
G03*
X2910800Y1660000I-50800J0D01*
G01*
X2515800Y515000D02*
G03*
X2515800Y515000I-50800J0D01*
G01*
X3305800Y730000D02*
G03*
X3305800Y730000I-50800J0D01*
G01*
X6850800Y1660000D02*
G03*
X6850800Y1660000I-50800J0D01*
G01*
X6770800D02*
G03*
X6770800Y1660000I-50800J0D01*
G01*
X6720800Y2712500D02*
G03*
X6720800Y2712500I-50800J0D01*
G01*
Y2612500D02*
G03*
X6720800Y2612500I-50800J0D01*
G01*
X4460800Y3210000D02*
G03*
X4460800Y3210000I-50800J0D01*
G01*
X4170800Y3060000D02*
G03*
X4170800Y3060000I-50800J0D01*
G01*
X6280788Y4059992D02*
G03*
X6280788Y4059992I-50800J0D01*
G01*
X4170800Y3140000D02*
G03*
X4170800Y3140000I-50800J0D01*
G01*
X950800Y2887500D02*
G03*
X950800Y2887500I-50800J0D01*
G01*
X3200800Y3070000D02*
G03*
X3200800Y3070000I-50800J0D01*
G01*
X4580800Y4150000D02*
G03*
X4580800Y4150000I-50800J0D01*
G01*
X3350800Y4220000D02*
G03*
X3350800Y4220000I-50800J0D01*
G01*
X3650800Y4150000D02*
G03*
X3650800Y4150000I-50800J0D01*
G01*
X3450800D02*
G03*
X3450800Y4150000I-50800J0D01*
G01*
X2940800Y4220000D02*
G03*
X2940800Y4220000I-50800J0D01*
G01*
X610800Y3840000D02*
G03*
X610800Y3840000I-50800J0D01*
G01*
X1150800Y4080000D02*
G03*
X1150800Y4080000I-50800J0D01*
G01*
X1710800Y4240000D02*
G03*
X1710800Y4240000I-50800J0D01*
G01*
X1850800Y4200000D02*
G03*
X1850800Y4200000I-50800J0D01*
G01*
X210800Y3350000D02*
G03*
X210800Y3350000I-50800J0D01*
G01*
X2870800Y3780000D02*
G03*
X2870800Y3780000I-50800J0D01*
G01*
Y3670000D02*
G03*
X2870800Y3670000I-50800J0D01*
G01*
X2600800Y3850000D02*
G03*
X2600800Y3850000I-50800J0D01*
G01*
X2790800D02*
G03*
X2790800Y3850000I-50800J0D01*
G01*
X2870800D02*
G03*
X2870800Y3850000I-50800J0D01*
G01*
X2710800D02*
G03*
X2710800Y3850000I-50800J0D01*
G01*
X2500800D02*
G03*
X2500800Y3850000I-50800J0D01*
G01*
X2400800D02*
G03*
X2400800Y3850000I-50800J0D01*
G01*
X950800Y2990000D02*
G03*
X950800Y2990000I-50800J0D01*
G01*
X1370800Y3010000D02*
G03*
X1370800Y3010000I-50800J0D01*
G01*
X1040800Y2990000D02*
G03*
X1040800Y2990000I-50800J0D01*
G01*
X650800Y2920000D02*
G03*
X650800Y2920000I-50800J0D01*
G01*
X1040800Y2890000D02*
G03*
X1040800Y2890000I-50800J0D01*
G01*
X1190800Y3850000D02*
G03*
X1190800Y3850000I-50800J0D01*
G01*
X2550800Y2960000D02*
G03*
X2550800Y2960000I-50800J0D01*
G01*
X2710800Y3670000D02*
G03*
X2710800Y3670000I-50800J0D01*
G01*
X4390800Y3270000D02*
G03*
X4390800Y3270000I-50800J0D01*
G01*
X1080800Y3850000D02*
G03*
X1080800Y3850000I-50800J0D01*
G01*
X1000800Y4080000D02*
G03*
X1000800Y4080000I-50800J0D01*
G01*
X1370800Y3850000D02*
G03*
X1370800Y3850000I-50800J0D01*
G01*
X6960800Y1360000D02*
G03*
X6960800Y1360000I-50800J0D01*
G01*
X5888300Y1200000D02*
G03*
X5888300Y1200000I-50800J0D01*
G01*
X5513300D02*
G03*
X5513300Y1200000I-50800J0D01*
G01*
X5763300D02*
G03*
X5763300Y1200000I-50800J0D01*
G01*
X6138300D02*
G03*
X6138300Y1200000I-50800J0D01*
G01*
X6638300D02*
G03*
X6638300Y1200000I-50800J0D01*
G01*
X6388300D02*
G03*
X6388300Y1200000I-50800J0D01*
G01*
X4650800Y3127500D02*
G03*
X4650800Y3127500I-50800J0D01*
G01*
X4580800Y3470000D02*
G03*
X4580800Y3470000I-50800J0D01*
G01*
X4650800Y3390000D02*
G03*
X4650800Y3390000I-50800J0D01*
G01*
X4580800Y3960000D02*
G03*
X4580800Y3960000I-50800J0D01*
G01*
X4630800Y4040000D02*
G03*
X4630800Y4040000I-50800J0D01*
G01*
X2750800Y2680000D02*
G03*
X2750800Y2680000I-50800J0D01*
G01*
X7720800Y3000000D02*
G03*
X7720800Y3000000I-50800J0D01*
G01*
X8175800Y3250000D02*
G03*
X8175800Y3250000I-50800J0D01*
G01*
Y3100000D02*
G03*
X8175800Y3100000I-50800J0D01*
G01*
Y2900000D02*
G03*
X8175800Y2900000I-50800J0D01*
G01*
Y2700000D02*
G03*
X8175800Y2700000I-50800J0D01*
G01*
Y2375000D02*
G03*
X8175800Y2375000I-50800J0D01*
G01*
Y2150000D02*
G03*
X8175800Y2150000I-50800J0D01*
G01*
Y1950000D02*
G03*
X8175800Y1950000I-50800J0D01*
G01*
Y1700000D02*
G03*
X8175800Y1700000I-50800J0D01*
G01*
Y1125000D02*
G03*
X8175800Y1125000I-50800J0D01*
G01*
Y1000000D02*
G03*
X8175800Y1000000I-50800J0D01*
G01*
Y800000D02*
G03*
X8175800Y800000I-50800J0D01*
G01*
X425800Y400000D02*
G03*
X425800Y400000I-50800J0D01*
G01*
X525800Y275000D02*
G03*
X525800Y275000I-50800J0D01*
G01*
X8175800Y3875000D02*
G03*
X8175800Y3875000I-50800J0D01*
G01*
X7825800Y4050000D02*
G03*
X7825800Y4050000I-50800J0D01*
G01*
X7750800Y4175000D02*
G03*
X7750800Y4175000I-50800J0D01*
G01*
X450800Y4025000D02*
G03*
X450800Y4025000I-50800J0D01*
G01*
X550800Y4150000D02*
G03*
X550800Y4150000I-50800J0D01*
G01*
X325800Y3925000D02*
G03*
X325800Y3925000I-50800J0D01*
G01*
X125800Y3275000D02*
G03*
X125800Y3275000I-50800J0D01*
G01*
Y3600000D02*
G03*
X125800Y3600000I-50800J0D01*
G01*
Y3850000D02*
G03*
X125800Y3850000I-50800J0D01*
G01*
Y2900000D02*
G03*
X125800Y2900000I-50800J0D01*
G01*
X550800Y1775000D02*
G03*
X550800Y1775000I-50800J0D01*
G01*
Y1525000D02*
G03*
X550800Y1525000I-50800J0D01*
G01*
Y1400000D02*
G03*
X550800Y1400000I-50800J0D01*
G01*
X125800Y1200000D02*
G03*
X125800Y1200000I-50800J0D01*
G01*
Y1000000D02*
G03*
X125800Y1000000I-50800J0D01*
G01*
Y800000D02*
G03*
X125800Y800000I-50800J0D01*
G01*
X1000800Y400000D02*
G03*
X1000800Y400000I-50800J0D01*
G01*
X3390800Y730000D02*
G03*
X3390800Y730000I-50800J0D01*
G01*
X4350800Y350000D02*
G03*
X4350800Y350000I-50800J0D01*
G01*
X5863300Y125000D02*
G03*
X5863300Y125000I-50800J0D01*
G01*
X6375800D02*
G03*
X6375800Y125000I-50800J0D01*
G01*
X2852598Y70000D02*
G03*
X2852598Y70000I-50800J0D01*
G01*
X577617Y76822D02*
G03*
X577617Y76822I-50800J0D01*
G01*
X852617D02*
G03*
X852617Y76822I-50800J0D01*
G01*
X1052617D02*
G03*
X1052617Y76822I-50800J0D01*
G01*
X1252617D02*
G03*
X1252617Y76822I-50800J0D01*
G01*
X1452617D02*
G03*
X1452617Y76822I-50800J0D01*
G01*
X1652617D02*
G03*
X1652617Y76822I-50800J0D01*
G01*
X1852617D02*
G03*
X1852617Y76822I-50800J0D01*
G01*
X2052617D02*
G03*
X2052617Y76822I-50800J0D01*
G01*
X2252617D02*
G03*
X2252617Y76822I-50800J0D01*
G01*
X2452617D02*
G03*
X2452617Y76822I-50800J0D01*
G01*
X2652617D02*
G03*
X2652617Y76822I-50800J0D01*
G01*
X3027617D02*
G03*
X3027617Y76822I-50800J0D01*
G01*
X3450800Y200000D02*
G03*
X3450800Y200000I-50800J0D01*
G01*
X3725800Y475000D02*
G03*
X3725800Y475000I-50800J0D01*
G01*
X4150800D02*
G03*
X4150800Y475000I-50800J0D01*
G01*
X4477617Y76822D02*
G03*
X4477617Y76822I-50800J0D01*
G01*
X4450800Y200000D02*
G03*
X4450800Y200000I-50800J0D01*
G01*
X5375800Y75000D02*
G03*
X5375800Y75000I-50800J0D01*
G01*
X5938300D02*
G03*
X5938300Y75000I-50800J0D01*
G01*
X3550800Y350000D02*
G03*
X3550800Y350000I-50800J0D01*
G01*
X6575800Y75000D02*
G03*
X6575800Y75000I-50800J0D01*
G01*
X6975800Y75000D02*
G03*
X6975800Y75000I-50800J0D01*
G01*
X7727617Y76822D02*
G03*
X7727617Y76822I-50800J0D01*
G01*
X7725800Y4325000D02*
G03*
X7725800Y4325000I-50800J0D01*
G01*
X7525800D02*
G03*
X7525800Y4325000I-50800J0D01*
G01*
X7325800D02*
G03*
X7325800Y4325000I-50800J0D01*
G01*
X7125800D02*
G03*
X7125800Y4325000I-50800J0D01*
G01*
X6900800D02*
G03*
X6900800Y4325000I-50800J0D01*
G01*
X6700800D02*
G03*
X6700800Y4325000I-50800J0D01*
G01*
X6250800D02*
G03*
X6250800Y4325000I-50800J0D01*
G01*
X4975800D02*
G03*
X4975800Y4325000I-50800J0D01*
G01*
X4600800D02*
G03*
X4600800Y4325000I-50800J0D01*
G01*
X4375800Y4175000D02*
G03*
X4375800Y4175000I-50800J0D01*
G01*
X4475800Y4325000D02*
G03*
X4475800Y4325000I-50800J0D01*
G01*
X4225800Y4175000D02*
G03*
X4225800Y4175000I-50800J0D01*
G01*
X4075800D02*
G03*
X4075800Y4175000I-50800J0D01*
G01*
X3925800D02*
G03*
X3925800Y4175000I-50800J0D01*
G01*
X3825800Y4325000D02*
G03*
X3825800Y4325000I-50800J0D01*
G01*
X3650800D02*
G03*
X3650800Y4325000I-50800J0D01*
G01*
X3450800D02*
G03*
X3450800Y4325000I-50800J0D01*
G01*
X3275800D02*
G03*
X3275800Y4325000I-50800J0D01*
G01*
X3025800D02*
G03*
X3025800Y4325000I-50800J0D01*
G01*
X2850800D02*
G03*
X2850800Y4325000I-50800J0D01*
G01*
X2650800D02*
G03*
X2650800Y4325000I-50800J0D01*
G01*
X2450800D02*
G03*
X2450800Y4325000I-50800J0D01*
G01*
X2250800D02*
G03*
X2250800Y4325000I-50800J0D01*
G01*
X2050800D02*
G03*
X2050800Y4325000I-50800J0D01*
G01*
X1850800D02*
G03*
X1850800Y4325000I-50800J0D01*
G01*
X1650800D02*
G03*
X1650800Y4325000I-50800J0D01*
G01*
X1450800D02*
G03*
X1450800Y4325000I-50800J0D01*
G01*
X1250800D02*
G03*
X1250800Y4325000I-50800J0D01*
G01*
X1050800D02*
G03*
X1050800Y4325000I-50800J0D01*
G01*
X850800D02*
G03*
X850800Y4325000I-50800J0D01*
G01*
X575800D02*
G03*
X575800Y4325000I-50800J0D01*
G01*
X1630800Y3010000D02*
G03*
X1630800Y3010000I-50800J0D01*
G01*
X3610800Y1660000D02*
G03*
X3610800Y1660000I-50800J0D01*
G01*
X3510800D02*
G03*
X3510800Y1660000I-50800J0D01*
G01*
X2105800Y2270000D02*
G03*
X2105800Y2270000I-50800J0D01*
G01*
X4220800Y1650000D02*
G03*
X4220800Y1650000I-50800J0D01*
G01*
X4320800D02*
G03*
X4320800Y1650000I-50800J0D01*
G01*
X4750800Y1420000D02*
G03*
X4750800Y1420000I-50800J0D01*
G01*
X4645800Y1415000D02*
G03*
X4645800Y1415000I-50800J0D01*
G01*
X4530800Y3130000D02*
G03*
X4530800Y3130000I-50800J0D01*
G01*
X2790800Y3780000D02*
G03*
X2790800Y3780000I-50800J0D01*
G01*
X2710800D02*
G03*
X2710800Y3780000I-50800J0D01*
G01*
X7573236Y1602446D02*
G03*
X7573236Y1602446I-50800J0D01*
G01*
X6210800Y3200000D02*
G03*
X6210800Y3200000I-50800J0D01*
G01*
X8010800Y2810000D02*
G03*
X8010800Y2810000I-50800J0D01*
G01*
X6900800Y820000D02*
G03*
X6900800Y820000I-50800J0D01*
G01*
X7010800D02*
G03*
X7010800Y820000I-50800J0D01*
G01*
X7110800Y680000D02*
G03*
X7110800Y680000I-50800J0D01*
G01*
X7970800Y3750000D02*
G03*
X7970800Y3750000I-50800J0D01*
G01*
X7733300Y3650000D02*
G03*
X7733300Y3650000I-50800J0D01*
G01*
X3830800Y1430000D02*
G03*
X3830800Y1430000I-50800J0D01*
G01*
X2820800Y1660000D02*
G03*
X2820800Y1660000I-50800J0D01*
G01*
X4985800Y1160000D02*
G03*
X4985800Y1160000I-50800J0D01*
G01*
X4410800Y740000D02*
G03*
X4410800Y740000I-50800J0D01*
G01*
X6513300Y625000D02*
G03*
X6513300Y625000I-50800J0D01*
G01*
X5888300Y312500D02*
G03*
X5888300Y312500I-50800J0D01*
G01*
X6638300Y725000D02*
G03*
X6638300Y725000I-50800J0D01*
G01*
X6013300Y312500D02*
G03*
X6013300Y312500I-50800J0D01*
G01*
X5588300Y775000D02*
G03*
X5588300Y775000I-50800J0D01*
G01*
X5263300Y620000D02*
G03*
X5263300Y620000I-50800J0D01*
G01*
X4800800D02*
G03*
X4800800Y620000I-50800J0D01*
G01*
Y470000D02*
G03*
X4800800Y470000I-50800J0D01*
G01*
Y310000D02*
G03*
X4800800Y310000I-50800J0D01*
G01*
Y80000D02*
G03*
X4800800Y80000I-50800J0D01*
G01*
X4300800Y1000000D02*
G03*
X4300800Y1000000I-50800J0D01*
G01*
X3490800Y730000D02*
G03*
X3490800Y730000I-50800J0D01*
G01*
X3300800Y100000D02*
G03*
X3300800Y100000I-50800J0D01*
G01*
X6510787Y1199998D02*
G03*
X6510787Y1199998I-50800J0D01*
G01*
X6013300Y1200000D02*
G03*
X6013300Y1200000I-50800J0D01*
G01*
X5388300D02*
G03*
X5388300Y1200000I-50800J0D01*
G01*
X5638300D02*
G03*
X5638300Y1200000I-50800J0D01*
G01*
X7720800Y2900000D02*
G03*
X7720800Y2900000I-50800J0D01*
G01*
Y3200000D02*
G03*
X7720800Y3200000I-50800J0D01*
G01*
X7445800Y2900000D02*
G03*
X7445800Y2900000I-50800J0D01*
G01*
X7725799Y2750000D02*
G03*
X7725799Y2750000I-50800J0D01*
G01*
X6940800Y1660000D02*
G03*
X6940800Y1660000I-50800J0D01*
G01*
X7760800Y530000D02*
G03*
X7760800Y530000I-50800J0D01*
G01*
X7500800Y800000D02*
G03*
X7500800Y800000I-50800J0D01*
G01*
X6280800Y1770000D02*
G03*
X6280800Y1770000I-50800J0D01*
G01*
X7760800Y440000D02*
G03*
X7760800Y440000I-50800J0D01*
G01*
X7910800Y1030000D02*
G03*
X7910800Y1030000I-50800J0D01*
G01*
Y930000D02*
G03*
X7910800Y930000I-50800J0D01*
G01*
X6300800Y1420000D02*
G03*
X6300800Y1420000I-50800J0D01*
G01*
X7295800Y2112500D02*
G03*
X7295800Y2112500I-50800J0D01*
G01*
X7658300Y1900000D02*
G03*
X7658300Y1900000I-50800J0D01*
G01*
X7295800Y1950000D02*
G03*
X7295800Y1950000I-50800J0D01*
G01*
X6180800Y2830000D02*
G03*
X6180800Y2830000I-50800J0D01*
G01*
X890800Y710000D02*
G03*
X890800Y710000I-50800J0D01*
G01*
X1620800Y450000D02*
G03*
X1620800Y450000I-50800J0D01*
G01*
X6280800Y2190000D02*
G03*
X6280800Y2190000I-50800J0D01*
G01*
X6820800Y1900000D02*
G03*
X6820800Y1900000I-50800J0D01*
G01*
X6720800Y2112500D02*
G03*
X6720800Y2112500I-50800J0D01*
G01*
X6280800Y2830000D02*
G03*
X6280800Y2830000I-50800J0D01*
G01*
X7270800Y2750000D02*
G03*
X7270800Y2750000I-50800J0D01*
G01*
X7083300D02*
G03*
X7083300Y2750000I-50800J0D01*
G01*
Y2900000D02*
G03*
X7083300Y2900000I-50800J0D01*
G01*
X7100800Y3200000D02*
G03*
X7100800Y3200000I-50800J0D01*
G01*
X6280800Y3200000D02*
G03*
X6280800Y3200000I-50800J0D01*
G01*
Y1980000D02*
G03*
X6280800Y1980000I-50800J0D01*
G01*
X5260800Y3680000D02*
G03*
X5260800Y3680000I-50800J0D01*
G01*
X5340800Y3580000D02*
G03*
X5340800Y3580000I-50800J0D01*
G01*
X6130800Y3660000D02*
G03*
X6130800Y3660000I-50800J0D01*
G01*
X6640800Y3200000D02*
G03*
X6640800Y3200000I-50800J0D01*
G01*
X6733300Y3675000D02*
G03*
X6733300Y3675000I-50800J0D01*
G01*
X6050800Y4325000D02*
G03*
X6050800Y4325000I-50800J0D01*
G01*
X6733300Y3987500D02*
G03*
X6733300Y3987500I-50800J0D01*
G01*
Y3825000D02*
G03*
X6733300Y3825000I-50800J0D01*
G01*
X7733300Y3500000D02*
G03*
X7733300Y3500000I-50800J0D01*
G01*
X7840800Y3350000D02*
G03*
X7840800Y3350000I-50800J0D01*
G01*
X7990800Y3550000D02*
G03*
X7990800Y3550000I-50800J0D01*
G01*
X8180800Y3750000D02*
G03*
X8180800Y3750000I-50800J0D01*
G01*
Y3470000D02*
G03*
X8180800Y3470000I-50800J0D01*
G01*
X2920800Y450000D02*
G03*
X2920800Y450000I-50800J0D01*
G01*
X2720800Y515000D02*
G03*
X2720800Y515000I-50800J0D01*
G01*
X5938300Y775000D02*
G03*
X5938300Y775000I-50800J0D01*
G01*
X5325800Y737500D02*
G03*
X5325800Y737500I-50800J0D01*
G01*
X7240800Y250000D02*
G03*
X7240800Y250000I-50800J0D01*
G01*
X6013300Y212500D02*
G03*
X6013300Y212500I-50800J0D01*
G01*
X6138300D02*
G03*
X6138300Y212500I-50800J0D01*
G01*
X6263300D02*
G03*
X6263300Y212500I-50800J0D01*
G01*
X5513300Y312500D02*
G03*
X5513300Y312500I-50800J0D01*
G01*
X6800800Y75000D02*
G03*
X6800800Y75000I-50800J0D01*
G01*
X6638300Y625000D02*
G03*
X6638300Y625000I-50800J0D01*
G01*
X5263300Y312500D02*
G03*
X5263300Y312500I-50800J0D01*
G01*
X7000800Y3200000D02*
G03*
X7000800Y3200000I-50800J0D01*
G01*
X6720800Y3200000D02*
G03*
X6720800Y3200000I-50800J0D01*
G01*
X6370800Y3770000D02*
G03*
X6370800Y3770000I-50800J0D01*
G01*
X6725800Y2900000D02*
G03*
X6725800Y2900000I-50800J0D01*
G01*
Y2300000D02*
G03*
X6725800Y2300000I-50800J0D01*
G01*
X7725799Y2000000D02*
G03*
X7725799Y2000000I-50800J0D01*
G01*
Y2450000D02*
G03*
X7725799Y2450000I-50800J0D01*
G01*
Y2600000D02*
G03*
X7725799Y2600000I-50800J0D01*
G01*
%TF.MD5,908e5b7db8566057653f04877af23094*%
M02*
