%TF.GenerationSoftware,Altium Limited,Altium Designer,22.6.1 (34)*%
G04 Layer_Color=128*
%FSLAX45Y45*%
%MOMM*%
%TF.SameCoordinates,07F994AE-BB1C-4BEA-A643-928B9DFDCC76*%
%TF.FilePolarity,Positive*%
%TF.FileFunction,Drillmap*%
%TF.Part,Single*%
G01*
G75*
%TA.AperFunction,NonConductor*%
%ADD191C,0.12700*%
D191*
X4121250Y2424375D02*
X4133750D01*
X4127500Y2418125D02*
Y2430625D01*
X4072500Y2424375D02*
X4085000D01*
X4078750Y2418125D02*
Y2430625D01*
X4007500Y2473125D02*
X4020000D01*
X4013750Y2466875D02*
Y2479375D01*
X4007500Y2513750D02*
X4020000D01*
X4013750Y2507500D02*
Y2520000D01*
X5803750Y2080000D02*
X5816250D01*
X5810000Y2073750D02*
Y2086250D01*
X1153750Y1305000D02*
X1166250D01*
X1160000Y1298750D02*
Y1311250D01*
X1158750Y1445000D02*
X1171250D01*
X1165000Y1438750D02*
Y1451250D01*
X1223750Y1150000D02*
X1236250D01*
X1230000Y1143750D02*
Y1156250D01*
X1123750Y1150000D02*
X1136250D01*
X1130000Y1143750D02*
Y1156250D01*
X1878750Y2535000D02*
X1891250D01*
X1885000Y2528750D02*
Y2541250D01*
X1713750Y2575000D02*
X1726250D01*
X1720000Y2568750D02*
Y2581250D01*
X5663750Y1770000D02*
X5676250D01*
X5670000Y1763750D02*
Y1776250D01*
X5543750Y2240000D02*
X5556250D01*
X5550000Y2233750D02*
Y2246250D01*
X5601549Y2207799D02*
X5614049D01*
X5607799Y2201549D02*
Y2214049D01*
X7283750Y950000D02*
X7296250D01*
X7290000Y943750D02*
Y956250D01*
X7452364Y888613D02*
X7464863D01*
X7458613Y882363D02*
Y894863D01*
X5303750Y2260000D02*
X5316250D01*
X5310000Y2253750D02*
Y2266250D01*
X5273750Y2130000D02*
X5286250D01*
X5280000Y2123750D02*
Y2136250D01*
X5263750Y1800000D02*
X5276250D01*
X5270000Y1793750D02*
Y1806250D01*
X5704228Y4116250D02*
X5716728D01*
X5710478Y4110000D02*
Y4122500D01*
X5663750Y3780000D02*
X5676250D01*
X5670000Y3773750D02*
Y3786250D01*
X1153750Y1515000D02*
X1166250D01*
X1160000Y1508750D02*
Y1521250D01*
X1683750Y1170000D02*
X1696250D01*
X1690000Y1163750D02*
Y1176250D01*
X1583750Y1170000D02*
X1596250D01*
X1590000Y1163750D02*
Y1176250D01*
X1283750Y2265000D02*
X1296250D01*
X1290000Y2258750D02*
Y2271250D01*
X1383750Y2265000D02*
X1396250D01*
X1390000Y2258750D02*
Y2271250D01*
X1138750Y2160000D02*
X1151250D01*
X1145000Y2153750D02*
Y2166250D01*
X1138750Y2050000D02*
X1151250D01*
X1145000Y2043750D02*
Y2056250D01*
X1138750Y1950000D02*
X1151250D01*
X1145000Y1943750D02*
Y1956250D01*
X1153750Y2295000D02*
X1166250D01*
X1160000Y2288750D02*
Y2301250D01*
X5193750Y4160000D02*
X5206250D01*
X5200000Y4153750D02*
Y4166250D01*
X2363750Y1830000D02*
X2376250D01*
X2370000Y1823750D02*
Y1836250D01*
X2363750Y1700000D02*
X2376250D01*
X2370000Y1693750D02*
Y1706250D01*
X2363750Y1570000D02*
X2376250D01*
X2370000Y1563750D02*
Y1576250D01*
X4943750Y3870000D02*
X4956250D01*
X4950000Y3863750D02*
Y3876250D01*
X1873750Y2290000D02*
X1886250D01*
X1880000Y2283750D02*
Y2296250D01*
X2173750Y1190000D02*
X2186250D01*
X2180000Y1183750D02*
Y1196250D01*
X5603750Y3110000D02*
X5616250D01*
X5610000Y3103750D02*
Y3116250D01*
X5253750Y3880000D02*
X5266250D01*
X5260000Y3873750D02*
Y3886250D01*
X1773750Y2285000D02*
X1786249D01*
X1779999Y2278750D02*
Y2291250D01*
X1673750Y2285000D02*
X1686249D01*
X1679999Y2278750D02*
Y2291250D01*
X1573749Y2285000D02*
X1586249D01*
X1579999Y2278750D02*
Y2291250D01*
%TF.MD5,e5edfb2dfe4e64114caabaa9cb47af31*%
M02*
