%TF.GenerationSoftware,Altium Limited,Altium Designer,22.6.1 (34)*%
G04 Layer_Color=128*
%FSLAX45Y45*%
%MOMM*%
%TF.SameCoordinates,07F994AE-BB1C-4BEA-A643-928B9DFDCC76*%
%TF.FilePolarity,Positive*%
%TF.FileFunction,Drillmap*%
%TF.Part,Single*%
G01*
G75*
%TA.AperFunction,NonConductor*%
%ADD191C,0.12700*%
D191*
X195000Y2385000D02*
X304999D01*
X250000Y2330000D02*
Y2440000D01*
X195000Y2639000D02*
X304999D01*
X250000Y2584000D02*
Y2694000D01*
X195000Y2131000D02*
X304999D01*
X250000Y2076000D02*
Y2186000D01*
X139993Y599997D02*
X359993D01*
X249993Y489997D02*
Y709997D01*
X7839997Y599997D02*
X8059997D01*
X7949997Y489997D02*
Y709997D01*
X7839997Y2549998D02*
X8059997D01*
X7949997Y2439998D02*
Y2659998D01*
X159993Y3099997D02*
X379993D01*
X269993Y2989997D02*
Y3209997D01*
X6725000Y162500D02*
X6750000D01*
X6737500Y150000D02*
Y175000D01*
X6500000Y775000D02*
X6525000D01*
X6512500Y762500D02*
Y787500D01*
X6200000Y812500D02*
X6225000D01*
X6212500Y800000D02*
Y825000D01*
X6100000Y775000D02*
X6125000D01*
X6112500Y762500D02*
Y787500D01*
X5700000Y762500D02*
X5725000D01*
X5712500Y750000D02*
Y775000D01*
X5162500Y762500D02*
X5187500D01*
X5175000Y750000D02*
Y775000D01*
X5447500Y612500D02*
X5477500D01*
X5462500Y597500D02*
Y627500D01*
X3720000Y2900000D02*
X3740000D01*
X3730000Y2890000D02*
Y2910000D01*
X3719375Y2001875D02*
X3739375D01*
X3729375Y1991875D02*
Y2011875D01*
X4105000Y2980000D02*
X4135000D01*
X4120000Y2965000D02*
Y2995000D01*
X6985000Y3462500D02*
X7005000D01*
X6995000Y3452500D02*
Y3472500D01*
X6985000Y3387500D02*
X7005000D01*
X6995000Y3377500D02*
Y3397500D01*
X1865706Y1476413D02*
X1885706D01*
X1875706Y1466413D02*
Y1486413D01*
X4785000Y2740000D02*
X4815000D01*
X4800000Y2725000D02*
Y2755000D01*
X7360000Y3078826D02*
X7380000D01*
X7370000Y3068826D02*
Y3088826D01*
X5935000Y3465000D02*
X5965000D01*
X5950000Y3450000D02*
Y3480000D01*
X5987343Y3382053D02*
X6017343D01*
X6002343Y3367053D02*
Y3397053D01*
X6065000Y3560000D02*
X6095000D01*
X6080000Y3545000D02*
Y3575000D01*
X3165875Y2359375D02*
X3187875D01*
X3176875Y2348375D02*
Y2370375D01*
X3165875Y2440625D02*
X3187875D01*
X3176875Y2429625D02*
Y2451625D01*
X6642500Y2425000D02*
X6672500D01*
X6657500Y2410000D02*
Y2440000D01*
X6060000D02*
X6080000D01*
X6070000Y2430000D02*
Y2450000D01*
X6215000Y2610000D02*
X6245000D01*
X6230000Y2595000D02*
Y2625000D01*
X6215000Y2400000D02*
X6245000D01*
X6230000Y2385000D02*
Y2415000D01*
X3955000Y3510000D02*
X3985000D01*
X3970000Y3495000D02*
Y3525000D01*
X3875000Y3510000D02*
X3905000D01*
X3890000Y3495000D02*
Y3525000D01*
X3940000Y3900000D02*
X3970000D01*
X3955000Y3885000D02*
Y3915000D01*
X3870000Y3900000D02*
X3900000D01*
X3885000Y3885000D02*
Y3915000D01*
X2725000Y3670000D02*
X2755000D01*
X2740000Y3655000D02*
Y3685000D01*
X1205000Y1385000D02*
X1225000D01*
X1215000Y1375000D02*
Y1395000D01*
X2685000Y4230000D02*
X2715000D01*
X2700000Y4215000D02*
Y4245000D01*
X2325000Y2955000D02*
X2355000D01*
X2340000Y2940000D02*
Y2970000D01*
X2260000Y2955000D02*
X2290000D01*
X2275000Y2940000D02*
Y2970000D01*
X2390000Y2955000D02*
X2420000D01*
X2405000Y2940000D02*
Y2970000D01*
X1957500Y2250000D02*
X1982500D01*
X1970000Y2237500D02*
Y2262500D01*
X5177500Y1760000D02*
X5202500D01*
X5190000Y1747500D02*
Y1772500D01*
X6980000Y1800000D02*
X7010000D01*
X6995000Y1785000D02*
Y1815000D01*
X7035000Y1710000D02*
X7065000D01*
X7050000Y1695000D02*
Y1725000D01*
X7230000Y2375000D02*
X7260000D01*
X7245000Y2360000D02*
Y2390000D01*
X7230000Y2262500D02*
X7260000D01*
X7245000Y2247500D02*
Y2277500D01*
X7117500Y2062500D02*
X7147500D01*
X7132500Y2047500D02*
Y2077500D01*
X7017500Y1987500D02*
X7047500D01*
X7032500Y1972500D02*
Y2002500D01*
X7017500Y2137500D02*
X7047500D01*
X7032500Y2122500D02*
Y2152500D01*
X7017500Y2287500D02*
X7047500D01*
X7032500Y2272500D02*
Y2302500D01*
X7017500Y2437500D02*
X7047500D01*
X7032500Y2422500D02*
Y2452500D01*
X7205000Y2900000D02*
X7235000D01*
X7220000Y2885000D02*
Y2915000D01*
X7217500Y3400000D02*
X7247500D01*
X7232500Y3385000D02*
Y3415000D01*
X7030000Y3312500D02*
X7060000D01*
X7045000Y3297500D02*
Y3327500D01*
X7155000Y3312500D02*
X7185000D01*
X7170000Y3297500D02*
Y3327500D01*
X7280000Y3537500D02*
X7310000D01*
X7295000Y3522500D02*
Y3552500D01*
X7155000Y3537500D02*
X7185000D01*
X7170000Y3522500D02*
Y3552500D01*
X7030000Y3537500D02*
X7060000D01*
X7045000Y3522500D02*
Y3552500D01*
X7155000Y4050000D02*
X7185000D01*
X7170000Y4035000D02*
Y4065000D01*
X7155000Y3887500D02*
X7185000D01*
X7170000Y3872500D02*
Y3902500D01*
X7155000Y3712500D02*
X7185000D01*
X7170000Y3697500D02*
Y3727500D01*
X7280000Y3712500D02*
X7310000D01*
X7295000Y3697500D02*
Y3727500D01*
X7280000Y3887500D02*
X7310000D01*
X7295000Y3872500D02*
Y3902500D01*
X7280000Y4050000D02*
X7310000D01*
X7295000Y4035000D02*
Y4065000D01*
X7030000Y3712500D02*
X7060000D01*
X7045000Y3697500D02*
Y3727500D01*
X7030000Y3887500D02*
X7060000D01*
X7045000Y3872500D02*
Y3902500D01*
X7030000Y4050000D02*
X7060000D01*
X7045000Y4035000D02*
Y4065000D01*
X7130000Y3200000D02*
X7160000D01*
X7145000Y3185000D02*
Y3215000D01*
X1330000Y577500D02*
X1350000D01*
X1340000Y567500D02*
Y587500D01*
X1730000Y520000D02*
X1750000D01*
X1740000Y510000D02*
Y530000D01*
X1220000Y520000D02*
X1240000D01*
X1230000Y510000D02*
Y530000D01*
X2845000Y1660000D02*
X2875000D01*
X2860000Y1645000D02*
Y1675000D01*
X2671235Y1760000D02*
X2691235D01*
X2681235Y1750000D02*
Y1770000D01*
X2347500Y590000D02*
X2372500D01*
X2360000Y577500D02*
Y602500D01*
X2347500Y390000D02*
X2372500D01*
X2360000Y377500D02*
Y402500D01*
X2450000Y515000D02*
X2480000D01*
X2465000Y500000D02*
Y530000D01*
X1630000Y2590000D02*
X1650000D01*
X1640000Y2580000D02*
Y2600000D01*
X1535000Y2610000D02*
X1555000D01*
X1545000Y2600000D02*
Y2620000D01*
X1487402Y2560735D02*
X1507402D01*
X1497402Y2550735D02*
Y2570735D01*
X1400000Y2560000D02*
X1420000D01*
X1410000Y2550000D02*
Y2570000D01*
X1965000Y2397500D02*
X1985000D01*
X1975000Y2387500D02*
Y2407500D01*
X2010000Y2340000D02*
X2030000D01*
X2020000Y2330000D02*
Y2350000D01*
X7760000Y1160000D02*
X7780000D01*
X7770000Y1150000D02*
Y1170000D01*
X7510000Y1697500D02*
X7530000D01*
X7520000Y1687500D02*
Y1707500D01*
X3240000Y730000D02*
X3270000D01*
X3255000Y715000D02*
Y745000D01*
X5897500Y1480000D02*
X5922500D01*
X5910000Y1467500D02*
Y1492500D01*
X6090000Y1848551D02*
X6110000D01*
X6100000Y1838551D02*
Y1858551D01*
X6860000Y1440000D02*
X6880000D01*
X6870000Y1430000D02*
Y1450000D01*
X6940000Y1440000D02*
X6960000D01*
X6950000Y1430000D02*
Y1450000D01*
X6940000Y1280000D02*
X6960000D01*
X6950000Y1270000D02*
Y1290000D01*
X6860000Y1280000D02*
X6880000D01*
X6870000Y1270000D02*
Y1290000D01*
X6785000Y1660000D02*
X6815000D01*
X6800000Y1645000D02*
Y1675000D01*
X6705000Y1660000D02*
X6735000D01*
X6720000Y1645000D02*
Y1675000D01*
X5227500Y1430000D02*
X5252500D01*
X5240000Y1417500D02*
Y1442500D01*
X4857500Y1765000D02*
X4882500D01*
X4870000Y1752500D02*
Y1777500D01*
X6655000Y2712500D02*
X6685000D01*
X6670000Y2697500D02*
Y2727500D01*
X6655000Y2612500D02*
X6685000D01*
X6670000Y2597500D02*
Y2627500D01*
X4482125Y2286250D02*
X4504125D01*
X4493125Y2275250D02*
Y2297250D01*
X4482125Y2205000D02*
X4504125D01*
X4493125Y2194000D02*
Y2216000D01*
X4482125Y2513750D02*
X4504125D01*
X4493125Y2502750D02*
Y2524750D01*
X4482125Y2595000D02*
X4504125D01*
X4493125Y2584000D02*
Y2606000D01*
X4515625Y2042500D02*
X4535625D01*
X4525625Y2032500D02*
Y2052500D01*
X4450625Y1977500D02*
X4470625D01*
X4460625Y1967500D02*
Y1987500D01*
X3157750Y2107500D02*
X3179750D01*
X3168750Y2096500D02*
Y2118500D01*
X3157750Y2692500D02*
X3179750D01*
X3168750Y2681500D02*
Y2703500D01*
X3157750Y2196875D02*
X3179750D01*
X3168750Y2185875D02*
Y2207875D01*
X3157750Y2603125D02*
X3179750D01*
X3168750Y2592125D02*
Y2614125D01*
X3157750Y2521875D02*
X3179750D01*
X3168750Y2510875D02*
Y2532875D01*
X3157750Y2278125D02*
X3179750D01*
X3168750Y2267125D02*
Y2289125D01*
X4677500Y2750000D02*
X4702500D01*
X4690000Y2737500D02*
Y2762500D01*
X4468683Y2981317D02*
X4488683D01*
X4478683Y2971317D02*
Y2991317D01*
X4549341Y2980658D02*
X4569341D01*
X4559341Y2970658D02*
Y2990658D01*
X4630000Y2980000D02*
X4650000D01*
X4640000Y2970000D02*
Y2990000D01*
X5227500Y2900000D02*
X5252500D01*
X5240000Y2887500D02*
Y2912500D01*
X4395000Y3210000D02*
X4425000D01*
X4410000Y3195000D02*
Y3225000D01*
X5077500Y2010000D02*
X5102500D01*
X5090000Y1997500D02*
Y2022500D01*
X5057500Y2410000D02*
X5082500D01*
X5070000Y2397500D02*
Y2422500D01*
X5127500Y2580000D02*
X5152500D01*
X5140000Y2567500D02*
Y2592500D01*
X5307500Y1420000D02*
X5332500D01*
X5320000Y1407500D02*
Y1432500D01*
X5617500Y1965000D02*
X5642500D01*
X5630000Y1952500D02*
Y1977500D01*
X4070000Y3440000D02*
X4090000D01*
X4080000Y3430000D02*
Y3450000D01*
X4105000Y3060000D02*
X4135000D01*
X4120000Y3045000D02*
Y3075000D01*
X5380000Y3860000D02*
X5400000D01*
X5390000Y3850000D02*
Y3870000D01*
X5397500Y3990000D02*
X5422500D01*
X5410000Y3977500D02*
Y4002500D01*
X6214988Y4059992D02*
X6244988D01*
X6229988Y4044992D02*
Y4074992D01*
X6020000Y4100000D02*
X6040000D01*
X6030000Y4090000D02*
Y4110000D01*
X5900000Y4100000D02*
X5920000D01*
X5910000Y4090000D02*
Y4110000D01*
X5627500Y3920000D02*
X5652500D01*
X5640000Y3907500D02*
Y3932500D01*
X5727500Y3580000D02*
X5752500D01*
X5740000Y3567500D02*
Y3592500D01*
X4105000Y3140000D02*
X4135000D01*
X4120000Y3125000D02*
Y3155000D01*
X2750689Y1419311D02*
X2770689D01*
X2760689Y1409311D02*
Y1429311D01*
X2680000Y1530000D02*
X2700000D01*
X2690000Y1520000D02*
Y1540000D01*
X2590000Y1601235D02*
X2610000D01*
X2600000Y1591235D02*
Y1611235D01*
X2510000Y1490000D02*
X2530000D01*
X2520000Y1480000D02*
Y1500000D01*
X2500000Y1190000D02*
X2520000D01*
X2510000Y1180000D02*
Y1200000D01*
X3217500Y640000D02*
X3242500D01*
X3230000Y627500D02*
Y652500D01*
X885000Y2887500D02*
X915000D01*
X900000Y2872500D02*
Y2902500D01*
X1852499Y1675000D02*
X1872499D01*
X1862499Y1665000D02*
Y1685000D01*
X1852499Y1562500D02*
X1872499D01*
X1862499Y1552500D02*
Y1572500D01*
X1914999Y1800000D02*
X1934999D01*
X1924999Y1790000D02*
Y1810000D01*
X1527499Y1781250D02*
X1547499D01*
X1537499Y1771250D02*
Y1791250D01*
X1526199Y1668300D02*
X1546199D01*
X1536199Y1658300D02*
Y1678300D01*
X1652499Y1762500D02*
X1672499D01*
X1662499Y1752500D02*
Y1772500D01*
X1727499Y1762500D02*
X1747499D01*
X1737499Y1752500D02*
Y1772500D01*
X1652499Y1687500D02*
X1672499D01*
X1662499Y1677500D02*
Y1697500D01*
X1727499Y1687500D02*
X1747499D01*
X1737499Y1677500D02*
Y1697500D01*
X1387500Y1125000D02*
X1412500D01*
X1400000Y1112500D02*
Y1137500D01*
X1434973Y1199973D02*
X1454973D01*
X1444973Y1189973D02*
Y1209973D01*
X3135000Y3070000D02*
X3165000D01*
X3150000Y3055000D02*
Y3085000D01*
X5437500Y2820000D02*
X5462500D01*
X5450000Y2807500D02*
Y2832500D01*
X4000000Y770000D02*
X4020000D01*
X4010000Y760000D02*
Y780000D01*
X3140000Y650000D02*
X3160000D01*
X3150000Y640000D02*
Y660000D01*
X6139987Y4060000D02*
X6159987D01*
X6149987Y4050000D02*
Y4070000D01*
X4515000Y4150000D02*
X4545000D01*
X4530000Y4135000D02*
Y4165000D01*
X3285000Y4220000D02*
X3315000D01*
X3300000Y4205000D02*
Y4235000D01*
X3585000Y4150000D02*
X3615000D01*
X3600000Y4135000D02*
Y4165000D01*
X3385000Y4150000D02*
X3415000D01*
X3400000Y4135000D02*
Y4165000D01*
X2875000Y4220000D02*
X2905000D01*
X2890000Y4205000D02*
Y4235000D01*
X545000Y3840000D02*
X575000D01*
X560000Y3825000D02*
Y3855000D01*
X1085000Y4080000D02*
X1115000D01*
X1100000Y4065000D02*
Y4095000D01*
X1645000Y4240000D02*
X1675000D01*
X1660000Y4225000D02*
Y4255000D01*
X1785000Y4200000D02*
X1815000D01*
X1800000Y4185000D02*
Y4215000D01*
X145000Y3350000D02*
X175000D01*
X160000Y3335000D02*
Y3365000D01*
X2805000Y3780000D02*
X2835000D01*
X2820000Y3765000D02*
Y3795000D01*
X2805000Y3670000D02*
X2835000D01*
X2820000Y3655000D02*
Y3685000D01*
X2535000Y3850000D02*
X2565000D01*
X2550000Y3835000D02*
Y3865000D01*
X2725000Y3850000D02*
X2755000D01*
X2740000Y3835000D02*
Y3865000D01*
X2805000Y3850000D02*
X2835000D01*
X2820000Y3835000D02*
Y3865000D01*
X2645000Y3850000D02*
X2675000D01*
X2660000Y3835000D02*
Y3865000D01*
X2435000Y3850000D02*
X2465000D01*
X2450000Y3835000D02*
Y3865000D01*
X2335000Y3850000D02*
X2365000D01*
X2350000Y3835000D02*
Y3865000D01*
X885000Y2990000D02*
X915000D01*
X900000Y2975000D02*
Y3005000D01*
X840000Y2610000D02*
X860000D01*
X850000Y2600000D02*
Y2620000D01*
X910000Y2610000D02*
X930000D01*
X920000Y2600000D02*
Y2620000D01*
X980000Y2610000D02*
X1000000D01*
X990000Y2600000D02*
Y2620000D01*
X1305000Y3010000D02*
X1335000D01*
X1320000Y2995000D02*
Y3025000D01*
X975000Y2990000D02*
X1005000D01*
X990000Y2975000D02*
Y3005000D01*
X585000Y2920000D02*
X615000D01*
X600000Y2905000D02*
Y2935000D01*
X975000Y2890000D02*
X1005000D01*
X990000Y2875000D02*
Y2905000D01*
X1125000Y3850000D02*
X1155000D01*
X1140000Y3835000D02*
Y3865000D01*
X1320000Y2610000D02*
X1340000D01*
X1330000Y2600000D02*
Y2620000D01*
X1180000Y2610000D02*
X1200000D01*
X1190000Y2600000D02*
Y2620000D01*
X760000Y2610000D02*
X780000D01*
X770000Y2600000D02*
Y2620000D01*
X530000Y2610000D02*
X550000D01*
X540000Y2600000D02*
Y2620000D01*
X650000Y2610000D02*
X670000D01*
X660000Y2600000D02*
Y2620000D01*
X2485000Y2960000D02*
X2515000D01*
X2500000Y2945000D02*
Y2975000D01*
X2645000Y3670000D02*
X2675000D01*
X2660000Y3655000D02*
Y3685000D01*
X4325000Y3270000D02*
X4355000D01*
X4340000Y3255000D02*
Y3285000D01*
X1015000Y3850000D02*
X1045000D01*
X1030000Y3835000D02*
Y3865000D01*
X935000Y4080000D02*
X965000D01*
X950000Y4065000D02*
Y4095000D01*
X1305000Y3850000D02*
X1335000D01*
X1320000Y3835000D02*
Y3865000D01*
X5477500Y2900000D02*
X5502500D01*
X5490000Y2887500D02*
Y2912500D01*
X5397500Y2900000D02*
X5422500D01*
X5410000Y2887500D02*
Y2912500D01*
X1799999Y1885000D02*
X1819999D01*
X1809999Y1875000D02*
Y1895000D01*
X7279341Y1520658D02*
X7299341D01*
X7289341Y1510658D02*
Y1530658D01*
X4240000Y450000D02*
X4260000D01*
X4250000Y440000D02*
Y460000D01*
X3917500Y770000D02*
X3942500D01*
X3930000Y757500D02*
Y782500D01*
X2700000Y1140000D02*
X2720000D01*
X2710000Y1130000D02*
Y1150000D01*
X2840000Y1140000D02*
X2860000D01*
X2850000Y1130000D02*
Y1150000D01*
X6895000Y1360000D02*
X6925000D01*
X6910000Y1345000D02*
Y1375000D01*
X3980000Y1930000D02*
X4000000D01*
X3990000Y1920000D02*
Y1940000D01*
X4490000Y1240000D02*
X4510000D01*
X4500000Y1230000D02*
Y1250000D01*
X5822500Y1200000D02*
X5852500D01*
X5837500Y1185000D02*
Y1215000D01*
X5447500Y1200000D02*
X5477500D01*
X5462500Y1185000D02*
Y1215000D01*
X5697500Y1200000D02*
X5727500D01*
X5712500Y1185000D02*
Y1215000D01*
X6072500Y1200000D02*
X6102500D01*
X6087500Y1185000D02*
Y1215000D01*
X6572500Y1200000D02*
X6602500D01*
X6587500Y1185000D02*
Y1215000D01*
X6322500Y1200000D02*
X6352500D01*
X6337500Y1185000D02*
Y1215000D01*
X4585000Y3127500D02*
X4615000D01*
X4600000Y3112500D02*
Y3142500D01*
X4515000Y3470000D02*
X4545000D01*
X4530000Y3455000D02*
Y3485000D01*
X4585000Y3390000D02*
X4615000D01*
X4600000Y3375000D02*
Y3405000D01*
X4515000Y3960000D02*
X4545000D01*
X4530000Y3945000D02*
Y3975000D01*
X4565000Y4040000D02*
X4595000D01*
X4580000Y4025000D02*
Y4055000D01*
X4619614Y4290213D02*
X4639614D01*
X4629614Y4280213D02*
Y4300213D01*
X6160000Y2120000D02*
X6180000D01*
X6170000Y2110000D02*
Y2130000D01*
X6160000Y2250000D02*
X6180000D01*
X6170000Y2240000D02*
Y2260000D01*
X6160000Y2340000D02*
X6180000D01*
X6170000Y2330000D02*
Y2350000D01*
X5980000Y2830000D02*
X6000000D01*
X5990000Y2820000D02*
Y2840000D01*
X2685000Y2680000D02*
X2715000D01*
X2700000Y2665000D02*
Y2695000D01*
X7655000Y3000000D02*
X7685000D01*
X7670000Y2985000D02*
Y3015000D01*
X8110000Y3250000D02*
X8140000D01*
X8125000Y3235000D02*
Y3265000D01*
X8110000Y3100000D02*
X8140000D01*
X8125000Y3085000D02*
Y3115000D01*
X8110000Y2900000D02*
X8140000D01*
X8125000Y2885000D02*
Y2915000D01*
X8110000Y2700000D02*
X8140000D01*
X8125000Y2685000D02*
Y2715000D01*
X8110000Y2375000D02*
X8140000D01*
X8125000Y2360000D02*
Y2390000D01*
X8110000Y2150000D02*
X8140000D01*
X8125000Y2135000D02*
Y2165000D01*
X8110000Y1950000D02*
X8140000D01*
X8125000Y1935000D02*
Y1965000D01*
X8110000Y1700000D02*
X8140000D01*
X8125000Y1685000D02*
Y1715000D01*
X8110000Y1125000D02*
X8140000D01*
X8125000Y1110000D02*
Y1140000D01*
X8110000Y1000000D02*
X8140000D01*
X8125000Y985000D02*
Y1015000D01*
X8110000Y800000D02*
X8140000D01*
X8125000Y785000D02*
Y815000D01*
X360000Y400000D02*
X390000D01*
X375000Y385000D02*
Y415000D01*
X460000Y275000D02*
X490000D01*
X475000Y260000D02*
Y290000D01*
X8110000Y3875000D02*
X8140000D01*
X8125000Y3860000D02*
Y3890000D01*
X7760000Y4050000D02*
X7790000D01*
X7775000Y4035000D02*
Y4065000D01*
X7685000Y4175000D02*
X7715000D01*
X7700000Y4160000D02*
Y4190000D01*
X385000Y4025000D02*
X415000D01*
X400000Y4010000D02*
Y4040000D01*
X485000Y4150000D02*
X515000D01*
X500000Y4135000D02*
Y4165000D01*
X260000Y3925000D02*
X290000D01*
X275000Y3910000D02*
Y3940000D01*
X60000Y3275000D02*
X90000D01*
X75000Y3260000D02*
Y3290000D01*
X60000Y3600000D02*
X90000D01*
X75000Y3585000D02*
Y3615000D01*
X60000Y3850000D02*
X90000D01*
X75000Y3835000D02*
Y3865000D01*
X60000Y2900000D02*
X90000D01*
X75000Y2885000D02*
Y2915000D01*
X485000Y1775000D02*
X515000D01*
X500000Y1760000D02*
Y1790000D01*
X485000Y1525000D02*
X515000D01*
X500000Y1510000D02*
Y1540000D01*
X485000Y1400000D02*
X515000D01*
X500000Y1385000D02*
Y1415000D01*
X60000Y1200000D02*
X90000D01*
X75000Y1185000D02*
Y1215000D01*
X60000Y1000000D02*
X90000D01*
X75000Y985000D02*
Y1015000D01*
X60000Y800000D02*
X90000D01*
X75000Y785000D02*
Y815000D01*
X935000Y400000D02*
X965000D01*
X950000Y385000D02*
Y415000D01*
X1247500Y590000D02*
X1272500D01*
X1260000Y577500D02*
Y602500D01*
X1080000Y620000D02*
X1100000D01*
X1090000Y610000D02*
Y630000D01*
X1117500Y550000D02*
X1142500D01*
X1130000Y537500D02*
Y562500D01*
X1690000Y830000D02*
X1710000D01*
X1700000Y820000D02*
Y840000D01*
X2010000Y600000D02*
X2030000D01*
X2020000Y590000D02*
Y610000D01*
X2000000Y390000D02*
X2020000D01*
X2010000Y380000D02*
Y400000D01*
X1480000Y450000D02*
X1500000D01*
X1490000Y440000D02*
Y460000D01*
X1640000Y450000D02*
X1660000D01*
X1650000Y440000D02*
Y460000D01*
X3165199Y585199D02*
X3185199D01*
X3175199Y575199D02*
Y595199D01*
X3280000Y580000D02*
X3300000D01*
X3290000Y570000D02*
Y590000D01*
X3325000Y730000D02*
X3355000D01*
X3340000Y715000D02*
Y745000D01*
X4285000Y350000D02*
X4315000D01*
X4300000Y335000D02*
Y365000D01*
X5797500Y125000D02*
X5827500D01*
X5812500Y110000D02*
Y140000D01*
X6310000Y125000D02*
X6340000D01*
X6325000Y110000D02*
Y140000D01*
X3030000Y420000D02*
X3050000D01*
X3040000Y410000D02*
Y430000D01*
X2786798Y70000D02*
X2816798D01*
X2801798Y55000D02*
Y85000D01*
X511817Y76822D02*
X541817D01*
X526817Y61822D02*
Y91822D01*
X786817Y76822D02*
X816817D01*
X801817Y61822D02*
Y91822D01*
X986817Y76822D02*
X1016817D01*
X1001817Y61822D02*
Y91822D01*
X1186817Y76822D02*
X1216817D01*
X1201817Y61822D02*
Y91822D01*
X1386817Y76822D02*
X1416817D01*
X1401817Y61822D02*
Y91822D01*
X1586817Y76822D02*
X1616817D01*
X1601817Y61822D02*
Y91822D01*
X1786817Y76822D02*
X1816817D01*
X1801817Y61822D02*
Y91822D01*
X1986817Y76822D02*
X2016817D01*
X2001817Y61822D02*
Y91822D01*
X2186817Y76822D02*
X2216817D01*
X2201817Y61822D02*
Y91822D01*
X2386817Y76822D02*
X2416817D01*
X2401817Y61822D02*
Y91822D01*
X2586817Y76822D02*
X2616817D01*
X2601817Y61822D02*
Y91822D01*
X2961817Y76822D02*
X2991817D01*
X2976817Y61822D02*
Y91822D01*
X3385000Y200000D02*
X3415000D01*
X3400000Y185000D02*
Y215000D01*
X3660000Y475000D02*
X3690000D01*
X3675000Y460000D02*
Y490000D01*
X4085000Y475000D02*
X4115000D01*
X4100000Y460000D02*
Y490000D01*
X4411817Y76822D02*
X4441817D01*
X4426817Y61822D02*
Y91822D01*
X4385000Y200000D02*
X4415000D01*
X4400000Y185000D02*
Y215000D01*
X5310000Y75000D02*
X5340000D01*
X5325000Y60000D02*
Y90000D01*
X5872500Y75000D02*
X5902500D01*
X5887500Y60000D02*
Y90000D01*
X3485000Y350000D02*
X3515000D01*
X3500000Y335000D02*
Y365000D01*
X6510000Y75000D02*
X6540000D01*
X6525000Y60000D02*
Y90000D01*
X6910000Y75000D02*
X6940000D01*
X6925000Y60000D02*
Y90000D01*
X7661817Y76822D02*
X7691817D01*
X7676817Y61822D02*
Y91822D01*
X7660000Y4325000D02*
X7690000D01*
X7675000Y4310000D02*
Y4340000D01*
X7460000Y4325000D02*
X7490000D01*
X7475000Y4310000D02*
Y4340000D01*
X7260000Y4325000D02*
X7290000D01*
X7275000Y4310000D02*
Y4340000D01*
X7060000Y4325000D02*
X7090000D01*
X7075000Y4310000D02*
Y4340000D01*
X6835000Y4325000D02*
X6865000D01*
X6850000Y4310000D02*
Y4340000D01*
X6635000Y4325000D02*
X6665000D01*
X6650000Y4310000D02*
Y4340000D01*
X6185000Y4325000D02*
X6215000D01*
X6200000Y4310000D02*
Y4340000D01*
X5260000Y4280000D02*
X5280000D01*
X5270000Y4270000D02*
Y4290000D01*
X4910000Y4325000D02*
X4940000D01*
X4925000Y4310000D02*
Y4340000D01*
X4535000Y4325000D02*
X4565000D01*
X4550000Y4310000D02*
Y4340000D01*
X4310000Y4175000D02*
X4340000D01*
X4325000Y4160000D02*
Y4190000D01*
X4410000Y4325000D02*
X4440000D01*
X4425000Y4310000D02*
Y4340000D01*
X4160000Y4175000D02*
X4190000D01*
X4175000Y4160000D02*
Y4190000D01*
X4010000Y4175000D02*
X4040000D01*
X4025000Y4160000D02*
Y4190000D01*
X3860000Y4175000D02*
X3890000D01*
X3875000Y4160000D02*
Y4190000D01*
X3760000Y4325000D02*
X3790000D01*
X3775000Y4310000D02*
Y4340000D01*
X3585000Y4325000D02*
X3615000D01*
X3600000Y4310000D02*
Y4340000D01*
X3385000Y4325000D02*
X3415000D01*
X3400000Y4310000D02*
Y4340000D01*
X3210000Y4325000D02*
X3240000D01*
X3225000Y4310000D02*
Y4340000D01*
X2960000Y4325000D02*
X2990000D01*
X2975000Y4310000D02*
Y4340000D01*
X2785000Y4325000D02*
X2815000D01*
X2800000Y4310000D02*
Y4340000D01*
X2585000Y4325000D02*
X2615000D01*
X2600000Y4310000D02*
Y4340000D01*
X2385000Y4325000D02*
X2415000D01*
X2400000Y4310000D02*
Y4340000D01*
X2185000Y4325000D02*
X2215000D01*
X2200000Y4310000D02*
Y4340000D01*
X1985000Y4325000D02*
X2015000D01*
X2000000Y4310000D02*
Y4340000D01*
X1785000Y4325000D02*
X1815000D01*
X1800000Y4310000D02*
Y4340000D01*
X1585000Y4325000D02*
X1615000D01*
X1600000Y4310000D02*
Y4340000D01*
X1385000Y4325000D02*
X1415000D01*
X1400000Y4310000D02*
Y4340000D01*
X1185000Y4325000D02*
X1215000D01*
X1200000Y4310000D02*
Y4340000D01*
X985000Y4325000D02*
X1015000D01*
X1000000Y4310000D02*
Y4340000D01*
X785000Y4325000D02*
X815000D01*
X800000Y4310000D02*
Y4340000D01*
X510000Y4325000D02*
X540000D01*
X525000Y4310000D02*
Y4340000D01*
X1565000Y3010000D02*
X1595000D01*
X1580000Y2995000D02*
Y3025000D01*
X2770000Y1140000D02*
X2790000D01*
X2780000Y1130000D02*
Y1150000D01*
X1502499Y1475000D02*
X1522499D01*
X1512499Y1465000D02*
Y1485000D01*
X1580498Y1885499D02*
X1600498D01*
X1590498Y1875499D02*
Y1895499D01*
X2177500Y1410000D02*
X2202500D01*
X2190000Y1397500D02*
Y1422500D01*
X1787500Y1160000D02*
X1812500D01*
X1800000Y1147500D02*
Y1172500D01*
X1480000Y2270000D02*
X1500000D01*
X1490000Y2260000D02*
Y2280000D01*
X720000Y1080000D02*
X740000D01*
X730000Y1070000D02*
Y1090000D01*
X830000Y1080000D02*
X850000D01*
X840000Y1070000D02*
Y1090000D01*
X910000Y1080000D02*
X930000D01*
X920000Y1070000D02*
Y1090000D01*
X1010000Y1080000D02*
X1030000D01*
X1020000Y1070000D02*
Y1090000D01*
X960000Y1130000D02*
X980000D01*
X970000Y1120000D02*
Y1140000D01*
X2060000Y1030000D02*
X2080000D01*
X2070000Y1020000D02*
Y1040000D01*
X2330000Y960000D02*
X2350000D01*
X2340000Y950000D02*
Y970000D01*
X3140000Y902500D02*
X3160000D01*
X3150000Y892500D02*
Y912500D01*
X3070000Y902500D02*
X3090000D01*
X3080000Y892500D02*
Y912500D01*
X3210000Y902500D02*
X3230000D01*
X3220000Y892500D02*
Y912500D01*
X3640000Y1900000D02*
X3660000D01*
X3650000Y1890000D02*
Y1910000D01*
X3545000Y1660000D02*
X3575000D01*
X3560000Y1645000D02*
Y1675000D01*
X3445000Y1660000D02*
X3475000D01*
X3460000Y1645000D02*
Y1675000D01*
X2040000Y2270000D02*
X2070000D01*
X2055000Y2255000D02*
Y2285000D01*
X4155000Y1650000D02*
X4185000D01*
X4170000Y1635000D02*
Y1665000D01*
X4255000Y1650000D02*
X4285000D01*
X4270000Y1635000D02*
Y1665000D01*
X4685000Y1420000D02*
X4715000D01*
X4700000Y1405000D02*
Y1435000D01*
X4580000Y1415000D02*
X4610000D01*
X4595000Y1400000D02*
Y1430000D01*
X3850000Y1850000D02*
X3870000D01*
X3860000Y1840000D02*
Y1860000D01*
X2555000Y1800101D02*
X2575000D01*
X2565000Y1790101D02*
Y1810101D01*
X2710000Y1470000D02*
X2730000D01*
X2720000Y1460000D02*
Y1480000D01*
X5077500Y1930000D02*
X5102500D01*
X5090000Y1917500D02*
Y1942500D01*
X6415000Y775000D02*
X6435000D01*
X6425000Y765000D02*
Y785000D01*
X5617500Y1880000D02*
X5642500D01*
X5630000Y1867500D02*
Y1892500D01*
X4465000Y3130000D02*
X4495000D01*
X4480000Y3115000D02*
Y3145000D01*
X2725000Y3780000D02*
X2755000D01*
X2740000Y3765000D02*
Y3795000D01*
X2645000Y3780000D02*
X2675000D01*
X2660000Y3765000D02*
Y3795000D01*
X7590000Y130000D02*
X7610000D01*
X7600000Y120000D02*
Y140000D01*
X2620000Y1800000D02*
X2640000D01*
X2630000Y1790000D02*
Y1810000D01*
X2550000Y1550000D02*
X2570000D01*
X2560000Y1540000D02*
Y1560000D01*
X2187500Y1580000D02*
X2207500D01*
X2197500Y1570000D02*
Y1590000D01*
X2120000Y1580000D02*
X2140000D01*
X2130000Y1570000D02*
Y1590000D01*
X4515625Y1977500D02*
X4535625D01*
X4525625Y1967500D02*
Y1987500D01*
X3910000Y1890000D02*
X3930000D01*
X3920000Y1880000D02*
Y1900000D01*
X2189999Y1945000D02*
X2209999D01*
X2199999Y1935000D02*
Y1955000D01*
X7507436Y1602446D02*
X7537436D01*
X7522436Y1587446D02*
Y1617446D01*
X7050000Y1432500D02*
X7070000D01*
X7060000Y1422500D02*
Y1442500D01*
X6145000Y3200000D02*
X6175000D01*
X6160000Y3185000D02*
Y3215000D01*
X7945000Y2810000D02*
X7975000D01*
X7960000Y2795000D02*
Y2825000D01*
X6835000Y820000D02*
X6865000D01*
X6850000Y805000D02*
Y835000D01*
X6945000Y820000D02*
X6975000D01*
X6960000Y805000D02*
Y835000D01*
X7045000Y680000D02*
X7075000D01*
X7060000Y665000D02*
Y695000D01*
X7905000Y3750000D02*
X7935000D01*
X7920000Y3735000D02*
Y3765000D01*
X7667500Y3650000D02*
X7697500D01*
X7682500Y3635000D02*
Y3665000D01*
X3765000Y1430000D02*
X3795000D01*
X3780000Y1415000D02*
Y1445000D01*
X2755000Y1660000D02*
X2785000D01*
X2770000Y1645000D02*
Y1675000D01*
X4920000Y1160000D02*
X4950000D01*
X4935000Y1145001D02*
Y1175000D01*
X4345000Y740000D02*
X4375000D01*
X4360000Y725000D02*
Y755000D01*
X4700000Y750000D02*
X4720000D01*
X4710000Y740000D02*
Y760000D01*
X6447500Y625000D02*
X6477500D01*
X6462500Y610000D02*
Y640000D01*
X5822500Y312500D02*
X5852500D01*
X5837500Y297500D02*
Y327500D01*
X6572500Y725000D02*
X6602500D01*
X6587500Y710000D02*
Y740000D01*
X5947500Y312500D02*
X5977500D01*
X5962500Y297500D02*
Y327500D01*
X5990000Y775000D02*
X6010000D01*
X6000000Y765000D02*
Y785000D01*
X5415000Y775000D02*
X5435000D01*
X5425000Y765000D02*
Y785000D01*
X5522500Y775000D02*
X5552500D01*
X5537500Y760000D02*
Y790000D01*
X5197500Y620000D02*
X5227500D01*
X5212500Y605000D02*
Y635000D01*
X4735000Y620000D02*
X4765000D01*
X4750000Y605000D02*
Y635000D01*
X4640000Y610000D02*
X4660000D01*
X4650000Y600000D02*
Y620000D01*
X4735000Y470000D02*
X4765000D01*
X4750000Y455000D02*
Y485000D01*
X4735000Y310000D02*
X4765000D01*
X4750000Y295000D02*
Y325000D01*
X4735000Y80000D02*
X4765000D01*
X4750000Y65000D02*
Y95000D01*
X4770000Y750000D02*
X4790000D01*
X4780000Y740000D02*
Y760000D01*
X4235000Y1000000D02*
X4265000D01*
X4250000Y985000D02*
Y1015000D01*
X3425000Y730000D02*
X3455000D01*
X3440000Y715000D02*
Y745000D01*
X3315000Y125000D02*
X3335000D01*
X3325000Y115000D02*
Y135000D01*
X3240000Y200000D02*
X3260000D01*
X3250000Y190000D02*
Y210000D01*
X3235000Y100000D02*
X3265000D01*
X3250000Y85000D02*
Y115000D01*
X3165000Y125000D02*
X3185000D01*
X3175000Y115000D02*
Y135000D01*
X5387500Y1430000D02*
X5412500D01*
X5400000Y1417500D02*
Y1442500D01*
X6444987Y1199998D02*
X6474987D01*
X6459987Y1184998D02*
Y1214998D01*
X5947500Y1200000D02*
X5977500D01*
X5962500Y1185000D02*
Y1215000D01*
X5322500Y1200000D02*
X5352500D01*
X5337500Y1185000D02*
Y1215000D01*
X5572500Y1200000D02*
X5602500D01*
X5587500Y1185000D02*
Y1215000D01*
X5977500Y1480000D02*
X6002500D01*
X5990000Y1467500D02*
Y1492500D01*
X7655000Y2900000D02*
X7685000D01*
X7670000Y2885000D02*
Y2915000D01*
X7655000Y3200000D02*
X7685000D01*
X7670000Y3185000D02*
Y3215000D01*
X7380000Y2900000D02*
X7410000D01*
X7395000Y2885000D02*
Y2915000D01*
X7659999Y2750000D02*
X7689999D01*
X7674999Y2735000D02*
Y2765000D01*
X6875000Y1660000D02*
X6905000D01*
X6890000Y1645000D02*
Y1675000D01*
X7695000Y530000D02*
X7725000D01*
X7710000Y515000D02*
Y545000D01*
X7435000Y800000D02*
X7465000D01*
X7450000Y785000D02*
Y815000D01*
X6215000Y1770000D02*
X6245000D01*
X6230000Y1755000D02*
Y1785000D01*
X7695000Y440000D02*
X7725000D01*
X7710000Y425000D02*
Y455000D01*
X7845000Y1030000D02*
X7875000D01*
X7860000Y1015000D02*
Y1045000D01*
X7845000Y930000D02*
X7875000D01*
X7860000Y915000D02*
Y945000D01*
X7350000Y1120000D02*
X7370000D01*
X7360000Y1110000D02*
Y1130000D01*
X7430000Y1120000D02*
X7450000D01*
X7440000Y1110000D02*
Y1130000D01*
X6235000Y1420000D02*
X6265000D01*
X6250000Y1405000D02*
Y1435000D01*
X7230000Y2112500D02*
X7260000D01*
X7245000Y2097500D02*
Y2127500D01*
X7592500Y1900000D02*
X7622500D01*
X7607500Y1885000D02*
Y1915000D01*
X7230000Y1950000D02*
X7260000D01*
X7245000Y1935000D02*
Y1965000D01*
X6115000Y2830000D02*
X6145000D01*
X6130000Y2815000D02*
Y2845000D01*
X1250000Y2600000D02*
X1270000D01*
X1260000Y2590000D02*
Y2610000D01*
X1445000Y2610000D02*
X1465000D01*
X1455000Y2600000D02*
Y2620000D01*
X1570000Y2550000D02*
X1590000D01*
X1580000Y2540000D02*
Y2560000D01*
X590000D02*
X610000D01*
X600000Y2550000D02*
Y2570000D01*
X740000Y2240000D02*
X760000D01*
X750000Y2230000D02*
Y2250000D01*
X790000Y2180000D02*
X810000D01*
X800000Y2170000D02*
Y2190000D01*
X565000Y2075000D02*
X585000D01*
X575000Y2065000D02*
Y2085000D01*
X465000Y2075000D02*
X485000D01*
X475000Y2065000D02*
Y2085000D01*
X415000Y2025000D02*
X435000D01*
X425000Y2015000D02*
Y2035000D01*
X825000Y710000D02*
X855000D01*
X840000Y695000D02*
Y725000D01*
X770000Y1130000D02*
X790000D01*
X780000Y1120000D02*
Y1140000D01*
X890000Y1820000D02*
X910000D01*
X900000Y1810000D02*
Y1830000D01*
X1260000Y1760000D02*
X1280000D01*
X1270000Y1750000D02*
Y1770000D01*
X890000Y1630000D02*
X910000D01*
X900000Y1620000D02*
Y1640000D01*
X1555000Y450000D02*
X1585000D01*
X1570000Y435000D02*
Y465000D01*
X6215000Y2190000D02*
X6245000D01*
X6230000Y2175000D02*
Y2205000D01*
X6755000Y1900000D02*
X6785000D01*
X6770000Y1885000D02*
Y1915000D01*
X6655000Y2112500D02*
X6685000D01*
X6670000Y2097500D02*
Y2127500D01*
X6215000Y2830000D02*
X6245000D01*
X6230000Y2815000D02*
Y2845000D01*
X7205000Y2750000D02*
X7235000D01*
X7220000Y2735000D02*
Y2765000D01*
X7017500Y2750000D02*
X7047500D01*
X7032500Y2735000D02*
Y2765000D01*
X7017500Y2900000D02*
X7047500D01*
X7032500Y2885000D02*
Y2915000D01*
X5818520Y3597644D02*
X5838520D01*
X5828520Y3587644D02*
Y3607644D01*
X7035000Y3200000D02*
X7065000D01*
X7050000Y3185000D02*
Y3215000D01*
X6215000Y3200000D02*
X6245000D01*
X6230000Y3185000D02*
Y3215000D01*
X6215000Y1980000D02*
X6245000D01*
X6230000Y1965000D02*
Y1995000D01*
X5195000Y3680000D02*
X5225000D01*
X5210000Y3665000D02*
Y3695000D01*
X5275000Y3580000D02*
X5305000D01*
X5290000Y3565000D02*
Y3595000D01*
X6065000Y3660000D02*
X6095000D01*
X6080000Y3645000D02*
Y3675000D01*
X6575000Y3200000D02*
X6605000D01*
X6590000Y3185000D02*
Y3215000D01*
X6667500Y3675000D02*
X6697500D01*
X6682500Y3660000D02*
Y3690000D01*
X6240000Y3940000D02*
X6260000D01*
X6250000Y3930000D02*
Y3950000D01*
X5985000Y4325000D02*
X6015000D01*
X6000000Y4310000D02*
Y4340000D01*
X6550000Y3940000D02*
X6570000D01*
X6560000Y3930000D02*
Y3950000D01*
X6667500Y3987500D02*
X6697500D01*
X6682500Y3972500D02*
Y4002500D01*
X6667500Y3825000D02*
X6697500D01*
X6682500Y3810000D02*
Y3840000D01*
X7667500Y3500000D02*
X7697500D01*
X7682500Y3485000D02*
Y3515000D01*
X7775000Y3350000D02*
X7805000D01*
X7790000Y3335000D02*
Y3365000D01*
X7925000Y3550000D02*
X7955000D01*
X7940000Y3535000D02*
Y3565000D01*
X8115000Y3750000D02*
X8145000D01*
X8130000Y3735000D02*
Y3765000D01*
X8115000Y3470000D02*
X8145000D01*
X8130000Y3455000D02*
Y3485000D01*
X4770000Y820000D02*
X4790000D01*
X4780000Y810000D02*
Y830000D01*
X2855000Y450000D02*
X2885000D01*
X2870000Y435000D02*
Y465000D01*
X2655000Y515000D02*
X2685000D01*
X2670000Y500000D02*
Y530000D01*
X5872500Y775000D02*
X5902500D01*
X5887500Y760000D02*
Y790000D01*
X5260000Y737500D02*
X5290000D01*
X5275000Y722500D02*
Y752500D01*
X7175000Y250000D02*
X7205000D01*
X7190000Y235000D02*
Y265000D01*
X5947500Y212500D02*
X5977500D01*
X5962500Y197500D02*
Y227500D01*
X6072500Y212500D02*
X6102500D01*
X6087500Y197500D02*
Y227500D01*
X6197500Y212500D02*
X6227500D01*
X6212500Y197500D02*
Y227500D01*
X5447500Y312500D02*
X5477500D01*
X5462500Y297500D02*
Y327500D01*
X6735000Y75000D02*
X6765000D01*
X6750000Y60000D02*
Y90000D01*
X6572500Y625000D02*
X6602500D01*
X6587500Y610000D02*
Y640000D01*
X5197500Y312500D02*
X5227500D01*
X5212500Y297500D02*
Y327500D01*
X6935000Y3200000D02*
X6965000D01*
X6950000Y3185000D02*
Y3215000D01*
X6655000Y3200000D02*
X6685000D01*
X6670000Y3185000D02*
Y3215000D01*
X6305000Y3770000D02*
X6335000D01*
X6320000Y3755000D02*
Y3785000D01*
X6660000Y2900000D02*
X6690000D01*
X6675000Y2885000D02*
Y2915000D01*
X6660000Y2300000D02*
X6690000D01*
X6675000Y2285000D02*
Y2315000D01*
X7659999Y2000000D02*
X7689999D01*
X7674999Y1985000D02*
Y2015000D01*
X7659999Y2450000D02*
X7689999D01*
X7674999Y2435000D02*
Y2465000D01*
X7659999Y2600000D02*
X7689999D01*
X7674999Y2585000D02*
Y2615000D01*
X1110000Y1860000D02*
X1130000D01*
X1120000Y1850000D02*
Y1870000D01*
X1689999Y1885000D02*
X1709999D01*
X1699999Y1875000D02*
Y1895000D01*
X1914999Y1525000D02*
X1934999D01*
X1924999Y1515000D02*
Y1535000D01*
X1664999Y1580000D02*
X1684999D01*
X1674999Y1570000D02*
Y1590000D01*
X1689999Y1725000D02*
X1709999D01*
X1699999Y1715000D02*
Y1735000D01*
%TF.MD5,ba0d6a1b6929afabd8437a85f9f77cd7*%
M02*
