%TF.GenerationSoftware,Altium Limited,Altium Designer,22.6.1 (34)*%
G04 Layer_Physical_Order=3*
G04 Layer_Color=3326705*
%FSLAX45Y45*%
%MOMM*%
%TF.SameCoordinates,07F994AE-BB1C-4BEA-A643-928B9DFDCC76*%
%TF.FilePolarity,Positive*%
%TF.FileFunction,Copper,L3,Inr,Signal*%
%TF.Part,Single*%
G01*
G75*
%TA.AperFunction,Conductor*%
%ADD15C,0.40000*%
%ADD16C,0.70000*%
%ADD17C,0.60000*%
%ADD18C,0.45000*%
%ADD19C,0.25000*%
%ADD20C,0.50000*%
%ADD69C,0.55000*%
%TA.AperFunction,ComponentPad*%
%ADD72O,1.90000X1.80000*%
G04:AMPARAMS|DCode=73|XSize=1.8mm|YSize=1.9mm|CornerRadius=0.36mm|HoleSize=0mm|Usage=FLASHONLY|Rotation=270.000|XOffset=0mm|YOffset=0mm|HoleType=Round|Shape=RoundedRectangle|*
%AMROUNDEDRECTD73*
21,1,1.80000,1.18000,0,0,270.0*
21,1,1.08000,1.90000,0,0,270.0*
1,1,0.72000,-0.59000,-0.54000*
1,1,0.72000,-0.59000,0.54000*
1,1,0.72000,0.59000,0.54000*
1,1,0.72000,0.59000,-0.54000*
%
%ADD73ROUNDEDRECTD73*%
%TA.AperFunction,WasherPad*%
%ADD74C,2.20000*%
%TA.AperFunction,ViaPad*%
%ADD75C,0.60000*%
%ADD76C,0.70000*%
%ADD78C,0.45000*%
%ADD79C,0.50000*%
%ADD80C,0.56000*%
%ADD81C,0.25000*%
%ADD83C,0.20000*%
%ADD84C,0.30000*%
%ADD87C,0.22000*%
G36*
X5940000Y4280000D02*
X5960147D01*
X5966013Y4274134D01*
X5988065Y4265000D01*
X6011935D01*
X6033987Y4274134D01*
X6039853Y4280000D01*
X6160147D01*
X6166013Y4274134D01*
X6188065Y4265000D01*
X6211935D01*
X6233987Y4274134D01*
X6239853Y4280000D01*
X6610147D01*
X6616013Y4274134D01*
X6638065Y4265000D01*
X6661935D01*
X6683987Y4274134D01*
X6689853Y4280000D01*
X6810147D01*
X6816013Y4274134D01*
X6838065Y4265000D01*
X6861935D01*
X6883987Y4274134D01*
X6889853Y4280000D01*
X7035147D01*
X7041013Y4274134D01*
X7063065Y4265000D01*
X7086935D01*
X7108987Y4274134D01*
X7114853Y4280000D01*
X7235147D01*
X7241013Y4274134D01*
X7263065Y4265000D01*
X7286935D01*
X7308987Y4274134D01*
X7314853Y4280000D01*
X7435147D01*
X7441013Y4274134D01*
X7463065Y4265000D01*
X7486935D01*
X7508987Y4274134D01*
X7514853Y4280000D01*
X7520000D01*
X7620000Y4180000D01*
Y3234853D01*
X7619134Y3233987D01*
X7610000Y3211935D01*
Y3188065D01*
X7619134Y3166013D01*
X7620000Y3165147D01*
Y3041924D01*
X7617987Y3039911D01*
X7609430Y3025089D01*
X7605000Y3008557D01*
Y2991442D01*
X7609430Y2974911D01*
X7617987Y2960089D01*
X7620000Y2958076D01*
Y2934853D01*
X7619134Y2933987D01*
X7610000Y2911934D01*
Y2888065D01*
X7619134Y2866013D01*
X7620000Y2865147D01*
Y2774007D01*
X7615000Y2761935D01*
Y2738065D01*
X7620000Y2725993D01*
Y2634738D01*
X7614429Y2625089D01*
X7610000Y2608558D01*
Y2591443D01*
X7614429Y2574911D01*
X7620000Y2565262D01*
Y2474007D01*
X7615000Y2461935D01*
Y2438065D01*
X7620000Y2425993D01*
Y2420000D01*
X8068827Y1971173D01*
X8065000Y1961935D01*
Y1938065D01*
X8074134Y1916013D01*
X8080000Y1910147D01*
Y1739853D01*
X8074134Y1733987D01*
X8065000Y1711935D01*
Y1688065D01*
X8074134Y1666013D01*
X8080000Y1660147D01*
Y1164853D01*
X8074134Y1158987D01*
X8065000Y1136935D01*
Y1113065D01*
X8074134Y1091013D01*
X8080000Y1085147D01*
Y1039853D01*
X8074134Y1033987D01*
X8065000Y1011935D01*
Y988065D01*
X8074134Y966013D01*
X8080000Y960147D01*
Y839853D01*
X8074134Y833987D01*
X8065000Y811935D01*
Y788065D01*
X8071756Y771756D01*
X8019999Y720000D01*
X8002146D01*
X8000175Y721138D01*
X7967112Y729997D01*
X7932882D01*
X7899819Y721138D01*
X7870175Y704023D01*
X7845971Y679819D01*
X7828856Y650175D01*
X7819997Y617112D01*
Y582882D01*
X7820000Y582870D01*
X7820000Y420000D01*
X7720000Y320000D01*
X7067500D01*
X6645332Y742167D01*
X6638365Y758987D01*
X6621487Y775866D01*
X6604667Y782833D01*
X6525000Y862500D01*
X6235511D01*
X6223440Y867500D01*
X6201560D01*
X6189489Y862500D01*
X4801519D01*
X4789448Y867500D01*
X4770552D01*
X4758481Y862500D01*
X4322500D01*
X4280000Y819999D01*
X3953012D01*
X3940940Y825000D01*
X3919060D01*
X3906988Y819999D01*
X3420000Y820000D01*
X3400000Y800000D01*
Y774853D01*
X3389134Y763987D01*
X3380000Y741935D01*
Y718065D01*
X3389134Y696013D01*
X3392574Y692573D01*
X3380000Y680000D01*
X3267781D01*
X3261155Y686627D01*
X3240940Y695000D01*
X3219060D01*
X3209118Y690882D01*
X3200000Y700000D01*
Y760000D01*
X3360000Y920000D01*
X4240000D01*
X4260000Y940000D01*
X4261935D01*
X4283987Y949134D01*
X4300865Y966013D01*
X4310000Y988065D01*
Y990000D01*
X4332500Y1012500D01*
X6607500D01*
X6790000Y830000D01*
Y808065D01*
X6799134Y786013D01*
X6816013Y769134D01*
X6838065Y760000D01*
X6860000D01*
X7000000Y620000D01*
X7340000D01*
X7460000Y740000D01*
X7461935D01*
X7483987Y749134D01*
X7500866Y766013D01*
X7510000Y788065D01*
Y790000D01*
X7540000Y820000D01*
X7540000Y980000D01*
X7680000Y1120000D01*
X7742825D01*
X7743093Y1119732D01*
X7760552Y1112500D01*
X7779448D01*
X7796906Y1119732D01*
X7810268Y1133093D01*
X7817500Y1150552D01*
Y1169448D01*
X7810268Y1186906D01*
X7800000Y1197175D01*
Y1500000D01*
X7495000Y1805000D01*
X7495000Y3950000D01*
X7320000Y4125000D01*
X6073764Y4125000D01*
X6072388Y4128323D01*
X6058323Y4142388D01*
X6039946Y4150000D01*
X6020054D01*
X6001677Y4142388D01*
X5987612Y4128323D01*
X5986235Y4125000D01*
X5953765D01*
X5952388Y4128323D01*
X5938323Y4142388D01*
X5919946Y4150000D01*
X5900054D01*
X5881677Y4142388D01*
X5867612Y4128323D01*
X5866236Y4125000D01*
X5781862D01*
X5763431Y4143431D01*
X5752681Y4150614D01*
X5740000Y4153136D01*
X5264038D01*
X5256906Y4160268D01*
X5239448Y4167500D01*
X5220552D01*
X5203093Y4160268D01*
X5189732Y4146906D01*
X5182500Y4129448D01*
Y4110552D01*
X5184858Y4104858D01*
X5160000Y4080000D01*
X4624853D01*
X4613987Y4090866D01*
X4591935Y4100000D01*
X4568065D01*
X4546013Y4090866D01*
X4535147Y4080000D01*
X4480000D01*
X4460000Y4100000D01*
Y4180000D01*
X4480000Y4200000D01*
X4640000D01*
X4720000Y4280000D01*
X4885147D01*
X4891013Y4274134D01*
X4913065Y4265000D01*
X4936935D01*
X4958987Y4274134D01*
X4964853Y4280000D01*
X5120000D01*
X5160000Y4320000D01*
X5900000D01*
X5940000Y4280000D01*
D02*
G37*
G36*
X1990006Y2290000D02*
X2000000Y2280940D01*
Y2259060D01*
X2008373Y2238845D01*
X2012500Y2234719D01*
Y1937501D01*
X1912499Y1837500D01*
Y1819176D01*
X1912254Y1819075D01*
X1905925Y1812745D01*
X1902499Y1804476D01*
Y1795525D01*
X1905925Y1787255D01*
X1912254Y1780926D01*
X1912499Y1780824D01*
Y1762500D01*
X1887499Y1737500D01*
X1799999D01*
X1787499Y1725000D01*
Y1637500D01*
X1774999Y1625000D01*
X1500000D01*
X1487499Y1637500D01*
Y1862500D01*
X1530464Y1905465D01*
X1540275Y1909529D01*
X1550121Y1919374D01*
X1554185Y1929186D01*
X1562499Y1937500D01*
X1887499D01*
X1924999Y1975000D01*
Y2274999D01*
X1940000Y2290000D01*
X1990006Y2290000D01*
D02*
G37*
G36*
X1912499Y1700000D02*
Y1662500D01*
X1924999Y1650000D01*
X2183138D01*
X2225000Y1608138D01*
Y1525000D01*
X2212500Y1512500D01*
X2087500D01*
X2025000Y1575000D01*
X1996014D01*
X1990461Y1577300D01*
X1976538D01*
X1970985Y1575000D01*
X1924999D01*
X1912499Y1562500D01*
Y1550000D01*
X1887499Y1525000D01*
X1812500D01*
X1799999Y1537500D01*
Y1621162D01*
X1801919Y1623081D01*
X1806339Y1629697D01*
X1807891Y1637500D01*
Y1707892D01*
X1812499Y1712500D01*
X1900000D01*
X1912499Y1700000D01*
D02*
G37*
G36*
X1774999Y1587500D02*
Y1525000D01*
X1799999Y1500000D01*
X1887500D01*
X1900000Y1487500D01*
Y1450000D01*
X1887499Y1437500D01*
X1711997D01*
X1707325Y1442172D01*
X1694461Y1447500D01*
X1680537D01*
X1678389Y1446610D01*
X1637499Y1487500D01*
Y1587500D01*
X1649999Y1600000D01*
X1762499D01*
X1774999Y1587500D01*
D02*
G37*
%LPC*%
G36*
X7683557Y2065000D02*
X7666442D01*
X7649910Y2060570D01*
X7635089Y2052013D01*
X7622987Y2039911D01*
X7614429Y2025089D01*
X7610000Y2008558D01*
Y1991443D01*
X7614429Y1974911D01*
X7615706Y1972700D01*
X7608373Y1960000D01*
X7595565D01*
X7573513Y1950866D01*
X7556634Y1933987D01*
X7547500Y1911935D01*
Y1888065D01*
X7556634Y1866013D01*
X7573513Y1849134D01*
X7595565Y1840000D01*
X7619435D01*
X7641487Y1849134D01*
X7658365Y1866013D01*
X7667500Y1888065D01*
Y1911935D01*
X7663011Y1922772D01*
X7663742Y1925378D01*
X7671692Y1935000D01*
X7683557D01*
X7700088Y1939430D01*
X7714910Y1947987D01*
X7727012Y1960090D01*
X7735569Y1974911D01*
X7739999Y1991443D01*
Y2008558D01*
X7735569Y2025089D01*
X7727012Y2039911D01*
X7714910Y2052013D01*
X7700088Y2060570D01*
X7683557Y2065000D01*
D02*
G37*
G36*
X7871935Y990000D02*
X7848065D01*
X7826013Y980865D01*
X7809134Y963987D01*
X7800000Y941935D01*
Y918065D01*
X7809134Y896013D01*
X7826013Y879134D01*
X7848065Y870000D01*
X7871935D01*
X7893987Y879134D01*
X7910866Y896013D01*
X7920000Y918065D01*
Y941935D01*
X7910866Y963987D01*
X7893987Y980865D01*
X7871935Y990000D01*
D02*
G37*
G36*
X7721935Y590000D02*
X7698065D01*
X7676013Y580865D01*
X7659135Y563987D01*
X7650000Y541935D01*
Y518065D01*
X7659135Y496013D01*
X7676013Y479134D01*
X7698065Y470000D01*
X7721935D01*
X7743987Y479134D01*
X7760866Y496013D01*
X7770000Y518065D01*
Y541935D01*
X7760866Y563987D01*
X7743987Y580865D01*
X7721935Y590000D01*
D02*
G37*
G36*
X1741975Y1785000D02*
X1733024D01*
X1724754Y1781575D01*
X1718425Y1775245D01*
X1714999Y1766976D01*
Y1758025D01*
X1715568Y1756652D01*
X1705848Y1746931D01*
X1704475Y1747500D01*
X1695524D01*
X1694151Y1746931D01*
X1684431Y1756652D01*
X1684999Y1758025D01*
Y1766976D01*
X1681574Y1775245D01*
X1675245Y1781575D01*
X1666975Y1785000D01*
X1658024D01*
X1649754Y1781575D01*
X1643425Y1775245D01*
X1639999Y1766976D01*
Y1758025D01*
X1643425Y1749755D01*
X1649754Y1743426D01*
X1658024Y1740000D01*
X1666975D01*
X1668348Y1740569D01*
X1678068Y1730848D01*
X1677499Y1729476D01*
Y1720525D01*
X1678068Y1719152D01*
X1668348Y1709431D01*
X1666975Y1710000D01*
X1658024D01*
X1649754Y1706575D01*
X1643425Y1700245D01*
X1639999Y1691976D01*
Y1683025D01*
X1643425Y1674755D01*
X1649754Y1668425D01*
X1658024Y1665000D01*
X1666975D01*
X1675245Y1668425D01*
X1681574Y1674755D01*
X1684999Y1683025D01*
Y1691976D01*
X1684431Y1693348D01*
X1693442Y1702359D01*
X1706557D01*
X1715568Y1693348D01*
X1714999Y1691976D01*
Y1683025D01*
X1718425Y1674755D01*
X1724754Y1668425D01*
X1733024Y1665000D01*
X1741975D01*
X1750245Y1668425D01*
X1756574Y1674755D01*
X1760000Y1683025D01*
Y1691976D01*
X1756574Y1700245D01*
X1750245Y1706575D01*
X1741975Y1710000D01*
X1733024D01*
X1731651Y1709431D01*
X1721931Y1719152D01*
X1722499Y1720525D01*
Y1729476D01*
X1721931Y1730848D01*
X1731651Y1740569D01*
X1733024Y1740000D01*
X1741975D01*
X1750245Y1743426D01*
X1756574Y1749755D01*
X1760000Y1758025D01*
Y1766976D01*
X1756574Y1775245D01*
X1750245Y1781575D01*
X1741975Y1785000D01*
D02*
G37*
G36*
X2134476Y1602500D02*
X2125525D01*
X2117255Y1599075D01*
X2110925Y1592745D01*
X2107500Y1584475D01*
Y1575524D01*
X2110925Y1567255D01*
X2117255Y1560925D01*
X2125525Y1557500D01*
X2134476D01*
X2142745Y1560925D01*
X2149075Y1567255D01*
X2152500Y1575524D01*
Y1584475D01*
X2149075Y1592745D01*
X2142745Y1599075D01*
X2134476Y1602500D01*
D02*
G37*
%LPD*%
D15*
X1753399Y1470000D02*
X1793399D01*
X1874749Y1475457D02*
X1875706Y1476413D01*
X1798856Y1475457D02*
X1874749D01*
X1793399Y1470000D02*
X1798856Y1475457D01*
X1675956Y1547443D02*
Y1579044D01*
Y1547443D02*
X1753399Y1470000D01*
X1674999Y1580000D02*
X1675956Y1579044D01*
D16*
X2860000Y1660000D02*
X3460000D01*
X2465000Y515000D02*
Y625000D01*
X3255000Y730000D02*
X3340000D01*
X2570000D02*
X3255000D01*
X2465000Y625000D02*
X2570000Y730000D01*
X4290000Y890000D02*
X4337500Y937500D01*
X6572500D01*
X3420000Y890000D02*
X4290000D01*
X7070000Y440000D02*
X7620000D01*
X6572500Y937500D02*
X7070000Y440000D01*
X7375000Y4220000D02*
X7545000Y4050000D01*
X5332706Y4220000D02*
X7375000D01*
X5180000Y4280000D02*
X5272706D01*
X5332706Y4220000D01*
X7860000Y1030000D02*
X7938995D01*
X7730000D02*
X7860000D01*
X3340000Y810000D02*
X3420000Y890000D01*
X7620000Y440000D02*
Y920000D01*
Y440000D02*
X7710000D01*
X7938995Y1030000D02*
X7980000Y1071005D01*
Y1900000D01*
X7620000Y920000D02*
X7730000Y1030000D01*
X7545000Y2335000D02*
X7980000Y1900000D01*
X7545000Y2335000D02*
Y4050000D01*
X5050000Y4150000D02*
X5180000Y4280000D01*
X4530000Y4150000D02*
X5050000D01*
X3340000Y730000D02*
Y810000D01*
D17*
X5321670Y1413742D02*
G03*
X5320000Y1420000I-58723J-12315D01*
G01*
X5321670Y1413742D02*
G03*
X5400000Y1350000I78331J16258D01*
G01*
X5240000D02*
G03*
X5308598Y1388838I0J80000D01*
G01*
Y1388838D02*
G03*
X5319992Y1419894I-48448J35394D01*
G01*
X3276026Y2446875D02*
X3456651Y2627500D01*
X4403750D02*
X4444375Y2668125D01*
X3456651Y2627500D02*
X4403750D01*
X3461250Y2481250D02*
X4403750D01*
X3339375Y2359375D02*
X3461250Y2481250D01*
X3233750Y2107500D02*
X3488906Y2362656D01*
X4351718D01*
X6617978Y2517000D02*
X6620478Y2519500D01*
X6708522D01*
X6191478Y2517000D02*
X6617978D01*
X6183479Y2525000D02*
X6191478Y2517000D01*
X6708522Y2519500D02*
X6714021Y2525000D01*
X5940000Y2450000D02*
X6015000Y2525000D01*
X6714021D02*
X6820000D01*
X6015000D02*
X6183479D01*
X6820000D02*
X6907500Y2437500D01*
X5883444Y3085000D02*
X6130000Y3331556D01*
X5705000Y3085000D02*
X5883444D01*
X6130000Y3331556D02*
Y3510000D01*
X6081913Y3558087D02*
X6130000Y3510000D01*
X5831376Y2920000D02*
X6040000D01*
X5611376Y2700000D02*
X5831376Y2920000D01*
X5108202Y2700000D02*
X5611376D01*
X4593750Y2600000D02*
X5008202D01*
X5108202Y2700000D01*
X4931057Y2740000D02*
X5011057Y2820000D01*
X5450000D01*
X4940983Y3010000D02*
X5630000D01*
X4810983Y2880000D02*
X4940983Y3010000D01*
X4670000Y2880000D02*
X4810983D01*
X4800000Y2740000D02*
X4931057D01*
X5630000Y3010000D02*
X5705000Y3085000D01*
X4525625Y2668125D02*
X4593750Y2600000D01*
X4444375Y2668125D02*
X4525625D01*
X4652656Y2362656D02*
X5014813D01*
X5039970Y2337500D01*
X5132531Y2370000D02*
X5430000D01*
X5039970Y2337500D02*
X5100030D01*
X5132531Y2370000D01*
X3274375Y2446875D02*
X3276026D01*
X6631478Y2805500D02*
X6708522D01*
X6709021Y2805000D01*
X6827500D02*
X7132500Y2500000D01*
X6630978Y2805000D02*
X6631478Y2805500D01*
X6709021Y2805000D02*
X6827500D01*
X6390000Y2720000D02*
X6475000Y2805000D01*
X6630978D01*
X5510000Y2450000D02*
X5940000D01*
X6040000Y2920000D02*
X6130000Y2830000D01*
X4610000Y2490000D02*
X5270000D01*
X6995000Y1800000D02*
Y1801776D01*
X6907500Y1889276D02*
Y2437500D01*
Y1889276D02*
X6995000Y1801776D01*
X7132500Y2225000D02*
X7245000Y2112500D01*
X7132500Y2225000D02*
Y2500000D01*
X5880000Y2720000D02*
X6390000D01*
X5730000Y2570000D02*
X5880000Y2720000D01*
X5270000Y2490000D02*
X5350000Y2570000D01*
X5730000D01*
X5430000Y2370000D02*
X5510000Y2450000D01*
X4555625Y2765625D02*
X4670000Y2880000D01*
X3355625Y2765625D02*
X4555625D01*
X3282500Y2692500D02*
X3355625Y2765625D01*
X5320000Y1350000D02*
X5874853D01*
X5180000D02*
X5320000D01*
Y1420000D02*
Y1420000D01*
X5319992Y1419894D02*
X5320000Y1420000D01*
Y1350000D02*
Y1420000D01*
X5910000Y1450000D02*
Y1480000D01*
X5110000Y1420000D02*
X5180000Y1350000D01*
X4700000Y1420000D02*
X5110000D01*
X5910000Y1385147D02*
Y1450000D01*
X5874853Y1350000D02*
X5910000Y1385147D01*
X3168750Y2692500D02*
X3282500D01*
D18*
X1862499Y1614750D02*
X2068549D01*
X2091299Y1637500D01*
X2153817D01*
X2156317Y1635000D02*
X2165000D01*
X2153817Y1637500D02*
X2156317Y1635000D01*
X2197500Y1580000D02*
Y1602500D01*
X2165000Y1635000D02*
X2197500Y1602500D01*
D19*
X4628683Y550000D02*
X5287500D01*
X5425000Y687500D02*
Y775000D01*
X5287500Y550000D02*
X5425000Y687500D01*
X1450000Y2420000D02*
X1497402Y2467401D01*
Y2560735D01*
X4020000Y2973934D02*
X4093934Y2900000D01*
X3980000Y3160000D02*
X4020000Y3120000D01*
Y2973934D02*
Y3120000D01*
X1840000Y3160000D02*
X3980000D01*
X4093934Y2900000D02*
X4478683D01*
X4559341Y2980658D01*
X5135000Y1780000D02*
X5174754Y1819754D01*
X5223661D01*
X5226531Y1822624D01*
X5005000Y1865000D02*
X5125943D01*
X5160943Y1900000D02*
X5443932D01*
X5125943Y1865000D02*
X5160943Y1900000D01*
X4960000Y1780000D02*
X5135000D01*
X5915000Y2060000D02*
X6420000D01*
X5805000Y2170000D02*
X5915000Y2060000D01*
X5430000Y2170000D02*
X5805000D01*
X2342870Y962870D02*
X2353477D01*
X2355073Y964467D02*
X4115472D01*
X4281005Y1130000D01*
X2340000Y960000D02*
X2342870Y962870D01*
X2353477D02*
X2355073Y964467D01*
X3627194Y1737194D02*
X3851250Y1961250D01*
X2683502Y1760000D02*
X2706309Y1737194D01*
X2681235Y1760000D02*
X2683502D01*
X2706309Y1737194D02*
X3627194D01*
X4433505Y3057500D02*
X4692965D01*
X4745465Y3110000D02*
X5560000D01*
X4692965Y3057500D02*
X4745465Y3110000D01*
X7307500Y2812500D02*
Y3016326D01*
X7370000Y3078826D01*
X5985877Y3755000D02*
X6175000D01*
X6355000Y3575000D01*
X6605000D01*
X5828520Y3597644D02*
X5985877Y3755000D01*
X2941790Y1977500D02*
X3304460D01*
X2780000Y2139290D02*
X2941790Y1977500D01*
X3304460D02*
X3548210Y2221250D01*
X3283750Y2027500D02*
X3542500Y2286250D01*
X2900000Y2200000D02*
X3072500Y2027500D01*
X3283750D01*
X2880000Y1880000D02*
X3404375D01*
X2680000Y2080000D02*
X2880000Y1880000D01*
X3404375D02*
X3615625Y2091250D01*
X1060000Y3320000D02*
X1330000Y3590000D01*
X4090000D02*
X4180000Y3500000D01*
X1330000Y3590000D02*
X4090000D01*
X1204997Y1240000D02*
X1235000D01*
X1387499Y1392499D02*
Y1500000D01*
X1150000Y1240000D02*
X1204997D01*
X1235000D02*
X1387499Y1392499D01*
X1205000Y1305000D02*
X1324999Y1424999D01*
Y1518750D01*
X1090000Y1180000D02*
X1150000Y1240000D01*
X1218692Y1448692D02*
X1246161D01*
X1215000Y1445000D02*
X1218692Y1448692D01*
X1246161D02*
X1280000Y1482531D01*
Y1561251D01*
X1387499Y1668750D01*
X1324999Y1518750D02*
X1387499Y1581250D01*
X6700000Y1780000D02*
X6870000D01*
X7060000Y1432500D02*
Y1590000D01*
X6870000Y1780000D02*
X7060000Y1590000D01*
X7357500Y1937500D02*
Y2487500D01*
X7160000Y1740000D02*
X7357500Y1937500D01*
X7132500Y2712500D02*
X7357500Y2487500D01*
X7432500Y1792500D02*
Y2687500D01*
X7307500Y2812500D02*
X7432500Y2687500D01*
X7289341Y1649341D02*
X7432500Y1792500D01*
X7132500Y2712500D02*
Y3000000D01*
X6920000Y3037500D02*
X7095000D01*
X6807500Y3150000D02*
X6920000Y3037500D01*
X7095000D02*
X7132500Y3000000D01*
X6605000Y3575000D02*
X6807500Y3372500D01*
Y3150000D02*
Y3372500D01*
X1309981Y1229981D02*
X1439923Y1359923D01*
X1263827Y1183827D02*
X1309981Y1229981D01*
X1193827Y1183827D02*
X1263827D01*
X1439923Y1359923D02*
Y1421173D01*
X1190000Y1180000D02*
X1193827Y1183827D01*
X1439923Y1421173D02*
X1443749Y1425000D01*
X250000Y960000D02*
Y1650000D01*
Y960000D02*
X450000Y760000D01*
Y570000D02*
Y760000D01*
X6675000Y1050000D02*
X6825000Y900000D01*
X6978994D02*
X7078994Y800000D01*
X6825000Y900000D02*
X6978994D01*
X7078994Y800000D02*
X7310000D01*
X7400000Y890000D01*
X6805000Y1020000D02*
X7160000D01*
X6712500Y1112500D02*
X6805000Y1020000D01*
X7160000D02*
X7230000Y950000D01*
X7452436Y1257564D02*
Y1631440D01*
Y1257564D02*
X7550000Y1160000D01*
X7770000D01*
X7289341Y1520658D02*
Y1649341D01*
X7160000Y1180000D02*
Y1740000D01*
X5740000Y3686164D02*
X5828520Y3597644D01*
X5700000Y3800000D02*
X5740000Y3760000D01*
Y3686164D02*
Y3760000D01*
X5450000Y3800000D02*
X5700000D01*
X5705000Y3855000D02*
X5790000Y3940000D01*
X5530962Y3855000D02*
X5705000D01*
X5790000Y3940000D02*
X6250000D01*
X5460962Y3925000D02*
X5530962Y3855000D01*
X5355000Y3925000D02*
X5460962D01*
X5140000Y3570000D02*
Y3950000D01*
X4820000Y3250000D02*
X5140000Y3570000D01*
X4720711Y3250000D02*
X4820000D01*
X6420000Y2060000D02*
X6700000Y1780000D01*
X6947270Y1227270D02*
Y1277270D01*
X6920000Y1200000D02*
X6947270Y1227270D01*
X6833211Y1200000D02*
X6920000D01*
X6583211Y1450000D02*
X6833211Y1200000D01*
X6790000Y1360000D02*
X6870000Y1280000D01*
X6743921Y1360000D02*
X6790000D01*
X6493921Y1610000D02*
X6743921Y1360000D01*
X6840000Y1470000D02*
X6870000Y1440000D01*
X6394631Y1780000D02*
X6704631Y1470000D01*
X6840000D01*
X6950000Y1440000D02*
Y1542426D01*
X6361450Y1908550D02*
X6710000Y1560000D01*
X6932426D01*
X6950000Y1542426D01*
X6840000Y1110000D02*
X7090000D01*
X6450000Y1320000D02*
X6630000D01*
X6840000Y1110000D01*
X6450000Y1450000D02*
X6583211D01*
X6280000Y1620000D02*
X6450000Y1450000D01*
X6420000Y1610000D02*
X6493921D01*
X6330000Y1700000D02*
X6420000Y1610000D01*
X5830000Y1620000D02*
X6280000D01*
X5800000Y1700000D02*
X6330000D01*
X6320000Y1780000D02*
X6394631D01*
X6260000Y1840000D02*
X6320000Y1780000D01*
X5778550Y1908550D02*
X6361450D01*
X6220000Y1550000D02*
X6450000Y1320000D01*
X5870000Y1550000D02*
X6220000D01*
X5760000Y1550000D02*
X5830000Y1620000D01*
X5700000Y1600000D02*
X5800000Y1700000D01*
X6120000Y1780000D02*
X6180000Y1840000D01*
X5790000Y1780000D02*
X6120000D01*
X5660000Y1650000D02*
X5790000Y1780000D01*
X5820001Y1500001D02*
X5870000Y1550000D01*
X4580000Y1320000D02*
X5030000D01*
X5237500Y1112500D01*
X6712500D01*
X5150000Y1050000D02*
X6675000D01*
X4970000Y1230000D02*
X5150000Y1050000D01*
X4720000Y1230000D02*
X4970000D01*
X2090000Y930000D02*
X2270000Y1110000D01*
X2540000D01*
X1680000Y930000D02*
X2090000D01*
X2070000Y1030000D02*
X2430000Y1390000D01*
Y1810000D01*
X1670000Y1030000D02*
X2070000D01*
X1490000Y740000D02*
X1680000Y930000D01*
X2120000Y830000D02*
X2310000Y1020000D01*
X1700000Y830000D02*
X2120000D01*
X980000Y740000D02*
X1490000D01*
X1440000Y800000D02*
X1670000Y1030000D01*
X1050000Y800000D02*
X1440000D01*
X840000Y1010000D02*
X1050000Y800000D01*
X730000Y990000D02*
X980000Y740000D01*
X2140000Y670000D02*
X2372500Y902500D01*
X3080000D01*
X1220000Y670000D02*
X2140000D01*
Y490000D02*
X2480000Y830000D01*
X3200000D01*
X1930000Y490000D02*
X2140000D01*
X1170000Y620000D02*
X1220000Y670000D01*
X1842500Y577500D02*
X1930000Y490000D01*
X1340000Y577500D02*
X1842500D01*
X1230000Y520000D02*
X1740000D01*
X1740000Y520000D01*
X1230000D02*
X1230000Y520000D01*
X1090000Y620000D02*
X1170000D01*
X390000Y1180000D02*
Y1540000D01*
X480000Y910000D02*
Y1090000D01*
X390000Y1180000D02*
X480000Y1090000D01*
X590000Y650000D02*
Y800000D01*
X480000Y910000D02*
X590000Y800000D01*
Y650000D02*
X1000000Y240000D01*
X610000Y990000D02*
Y1435000D01*
X710000Y740000D02*
Y890000D01*
X610000Y990000D02*
X710000Y890000D01*
X610000Y1435000D02*
X1090000Y1915000D01*
X710000Y740000D02*
X1130000Y320000D01*
X730000Y990000D02*
Y1080000D01*
X840000Y1010000D02*
Y1080000D01*
X4078750Y2221250D02*
X4257500Y2042500D01*
X4525625D01*
X3548210Y2221250D02*
X4078750D01*
X4750710Y2030000D02*
X4860710Y2140000D01*
X4570000Y1900000D02*
X4700000Y2030000D01*
X4750710D01*
X4650000Y1850000D02*
X4730000Y1930000D01*
X4760000D01*
X4850000Y2020000D01*
X4090000Y1850000D02*
X4650000D01*
X4850000Y2020000D02*
X4950000D01*
X4860710Y2140000D02*
X5340000D01*
X4050000Y1900000D02*
X4570000D01*
X4730000Y1800000D02*
X4860000Y1930000D01*
X4940000D02*
X5005000Y1865000D01*
X4860000Y1930000D02*
X4940000D01*
X5010000Y2080000D02*
X5280000D01*
X4950000Y2020000D02*
X5010000Y2080000D01*
X4900000Y1840000D02*
X4960000Y1780000D01*
X4850000Y1840000D02*
X4900000D01*
X5720000Y1850000D02*
X5778550Y1908550D01*
X5720000Y1800000D02*
Y1850000D01*
X5620000Y1700000D02*
X5720000Y1800000D01*
X4418995Y1700000D02*
X5620000D01*
X4450000Y1650000D02*
X5660000D01*
X4480000Y1600000D02*
X5700000D01*
X4510000Y1550000D02*
X5760000D01*
X4550001Y1500001D02*
X5820001D01*
X4620000Y1130000D02*
X4720000Y1230000D01*
X4281005Y1130000D02*
X4620000D01*
X4500000Y1240000D02*
X4580000Y1320000D01*
X3860000Y1310000D02*
X4080000Y1530000D01*
X2590000Y1310000D02*
X3860000D01*
X4080000Y1530000D02*
Y1660000D01*
X3910000Y1260000D02*
X4230000Y1580000D01*
X2580000Y1260000D02*
X3910000D01*
X4230000Y1580000D02*
X4298995D01*
X2630000Y1200000D02*
X3950000D01*
X4170000Y1420000D01*
X4220000D01*
X3980000Y1140000D02*
X4120000Y1280000D01*
X2850000Y1140000D02*
X3980000D01*
X4120000Y1280000D02*
X4160000D01*
X4220000Y1420000D02*
X4450000Y1650000D01*
X4160000Y1280000D02*
X4480000Y1600000D01*
X2800000Y1480000D02*
X3630000D01*
X4050000Y1900000D01*
X3910000Y1580000D02*
X4130000Y1800000D01*
X3808995Y1360000D02*
X3910000Y1461005D01*
Y1580000D01*
X4080000Y1660000D02*
X4170000Y1750000D01*
X4042500Y1082500D02*
X4510000Y1550000D01*
X2738107Y1082500D02*
X4042500D01*
X4298995Y1580000D02*
X4418995Y1700000D01*
X4070000Y1020000D02*
X4550001Y1500001D01*
X2310000Y1020000D02*
X4070000D01*
X1000000Y240000D02*
X2650000D01*
X2770000Y360000D02*
Y550000D01*
X2650000Y240000D02*
X2770000Y360000D01*
Y550000D02*
X2805199Y585199D01*
X2980000Y500000D02*
X3210000D01*
X2950000Y470000D02*
X2980000Y500000D01*
X3210000D02*
X3290000Y580000D01*
X2810000Y170000D02*
X2950000Y310000D01*
Y470000D01*
X850001Y170000D02*
X2810000D01*
X2570000Y380000D02*
Y570000D01*
X2650000Y650000D01*
X2510000Y320000D02*
X2570000Y380000D01*
X450000Y570000D02*
X850001Y170000D01*
X1130000Y320000D02*
X2510000D01*
X390000Y1540000D02*
X450000Y1600000D01*
X250000Y1650000D02*
X300000Y1700000D01*
X450000Y1600000D02*
X590000D01*
X300000Y1700000D02*
X550000D01*
X590000Y1600000D02*
X1000000Y2010000D01*
Y2330000D01*
X1090000Y2420000D02*
X1450000D01*
X1000000Y2330000D02*
X1090000Y2420000D01*
X910000Y2060000D02*
Y2370000D01*
X550000Y1700000D02*
X910000Y2060000D01*
Y2370000D02*
X1030000Y2490000D01*
X1380000D01*
X1407130Y2517130D01*
X1150000Y2350000D02*
X1500000D01*
X1580000Y2430000D01*
X1090000Y2290000D02*
X1150000Y2350000D01*
X1090000Y1915000D02*
Y2290000D01*
X2540000Y1110000D02*
X2630000Y1200000D01*
X2600000Y1421715D02*
X2661715Y1360000D01*
X3808995D01*
X2600000Y1421715D02*
Y1508683D01*
Y1597175D02*
X2630000Y1567175D01*
Y1538683D02*
Y1567175D01*
X2600000Y1508683D02*
X2630000Y1538683D01*
X3550000Y1800000D02*
X3650000Y1900000D01*
X2810000Y1800000D02*
X3550000D01*
X2720000Y1890000D02*
X2810000Y1800000D01*
X3615625Y2091250D02*
X4013750D01*
X4127500Y1977500D01*
X3542500Y2286250D02*
X4192500D01*
X4346875Y2131875D01*
X2565000Y1735000D02*
Y1800101D01*
Y1735000D02*
X2710000Y1590000D01*
X2810000D01*
X2830000Y1570000D01*
X3580000D01*
X2595000Y2665000D02*
X2900000Y2360000D01*
X2155000Y2610000D02*
X2210000Y2665000D01*
X2595000D01*
X2067500Y2397500D02*
X2220000Y2550000D01*
X2570000D02*
X2780000Y2340000D01*
X2220000Y2550000D02*
X2570000D01*
X1975000Y2397500D02*
X2067500D01*
X1755000Y2610000D02*
X2155000D01*
X1407130Y2517130D02*
Y2557130D01*
X1410000Y2560000D01*
X2250000Y2440000D02*
X2520000D01*
X2020000Y2340000D02*
X2150000D01*
X2250000Y2440000D01*
X2020000Y2340000D02*
X2020000Y2340000D01*
X5090000Y3200000D02*
X5630000Y3740000D01*
X4520000Y3200000D02*
X5090000D01*
X4260000Y3460000D02*
X4520000Y3200000D01*
X4950000Y3630000D02*
Y3930000D01*
X4640000Y3320000D02*
X4950000Y3630000D01*
X4561006Y3320000D02*
X4640000D01*
X670000Y2870000D02*
Y3020000D01*
X630000Y3060000D02*
Y3860000D01*
Y3060000D02*
X670000Y3020000D01*
X480000Y3020000D02*
Y3920000D01*
X410000Y2044059D02*
Y2950000D01*
X480000Y3020000D01*
X410000Y2044059D02*
X425000Y2029059D01*
Y2025000D02*
Y2029059D01*
X482501Y2547499D02*
X575000Y2455000D01*
Y2075000D02*
Y2455000D01*
X482501Y2547499D02*
Y2682501D01*
X920000Y3120000D02*
Y3480000D01*
X820000Y3020000D02*
X920000Y3120000D01*
X820000Y2770000D02*
Y3020000D01*
X920000Y3480000D02*
X1220000Y3780000D01*
X482501Y2682501D02*
X670000Y2870000D01*
X630000Y3860000D02*
X920000Y4150000D01*
X1150000D01*
X1230000Y4070000D01*
X3170000D01*
X810000Y4250000D02*
X1430000D01*
X1550000Y4130000D01*
X480000Y3920000D02*
X810000Y4250000D01*
X1000000Y3920000D02*
X1980000D01*
X2060000Y4000000D01*
X750000Y3670000D02*
X1000000Y3920000D01*
X1550000Y4130000D02*
X1830000D01*
X1850000Y4150000D01*
X3300000D02*
X3370000Y4080000D01*
X1850000Y4150000D02*
X3300000D01*
X4262426Y3820000D02*
X4350000Y3732426D01*
X3200000Y3820000D02*
X4262426D01*
X3020000Y4000000D02*
X3200000Y3820000D01*
X2060000Y4000000D02*
X3020000D01*
X3270000Y3970000D02*
X4330000D01*
X3170000Y4070000D02*
X3270000Y3970000D01*
X2140000Y3780000D02*
X2280000Y3920000D01*
X2860000D02*
X3060000Y3720000D01*
X2280000Y3920000D02*
X2860000D01*
X3060000Y3720000D02*
X4140000D01*
X750000Y2820000D02*
Y3670000D01*
X1220000Y3780000D02*
X2140000D01*
X1160000Y3220000D02*
X1380000Y3440000D01*
X1160000Y2840000D02*
Y3220000D01*
X1380000Y3440000D02*
X4080000D01*
X1040000Y2720000D02*
X1160000Y2840000D01*
X862500Y2633817D02*
X948683Y2720000D01*
X1040000D01*
X1052870Y2612870D02*
X1240000Y2800000D01*
X992870Y2612870D02*
X1052870D01*
X1240000Y2800000D02*
Y3060000D01*
X812501Y2654527D02*
X957974Y2800000D01*
X1000000D01*
X1060000Y2860000D01*
Y3320000D01*
X1240000Y3060000D02*
X1480000Y3300000D01*
X4080000D01*
X4396182Y2983818D01*
X1620000Y2940000D02*
X1840000Y3160000D01*
X1518684Y2940000D02*
X1620000D01*
X1190000Y2611316D02*
X1518684Y2940000D01*
X1190000Y2610000D02*
Y2611316D01*
X2900000Y2200000D02*
Y2360000D01*
X2780000Y2139290D02*
Y2340000D01*
X2680000Y2080000D02*
Y2280000D01*
X2520000Y2440000D02*
X2680000Y2280000D01*
X1520000Y2800000D02*
X2580000D01*
X2780000Y3000000D02*
X3810000D01*
X2580000Y2800000D02*
X2780000Y3000000D01*
X1330000Y2610000D02*
X1520000Y2800000D01*
X3810000Y3000000D02*
X3960000Y2850000D01*
X4260000Y3460000D02*
Y3600000D01*
X4140000Y3720000D02*
X4260000Y3600000D01*
X4440000Y3441006D02*
X4561006Y3320000D01*
X4440000Y3441006D02*
Y3860000D01*
X4410000Y4150000D02*
Y4200000D01*
X3370000Y4080000D02*
X4340000D01*
X4410000Y4150000D01*
X4330000Y3970000D02*
X4440000Y3860000D01*
X4350000Y3460296D02*
Y3732426D01*
Y3460296D02*
X4560296Y3250000D01*
X4180000Y3311005D02*
X4433505Y3057500D01*
X4180000Y3311005D02*
Y3500000D01*
X4592500Y586183D02*
X4628683Y550000D01*
X5800000Y462500D02*
X6112500D01*
X6425000Y775000D01*
X5567500Y230000D02*
X5800000Y462500D01*
X4690000Y230000D02*
X5567500D01*
X4640000Y400000D02*
X5437500D01*
X5625000Y587500D02*
X5812500D01*
X5437500Y400000D02*
X5625000Y587500D01*
X5812500D02*
X6000000Y775000D01*
X5687500Y150000D02*
X5750000Y212500D01*
X4638874Y150000D02*
X5687500D01*
X5750000Y212500D02*
X5863505D01*
X5951005Y125000D01*
X4238874Y550000D02*
X4638874Y150000D01*
X4370295Y560000D02*
X4480000D01*
X4640000Y400000D01*
X4460000Y460000D02*
X4690000Y230000D01*
X4259584Y600000D02*
X4399584Y460000D01*
X4460000D01*
X4280295Y650000D02*
X4370295Y560000D01*
X4520000Y660000D02*
X4592500Y587500D01*
Y586183D02*
Y587500D01*
X4341005Y660000D02*
X4520000D01*
X4301005Y700000D02*
X4341005Y660000D01*
X7493441Y1672446D02*
X7494926D01*
X7519980Y1697500D02*
X7520000D01*
X7494926Y1672446D02*
X7519980Y1697500D01*
X7452436Y1631440D02*
X7493441Y1672446D01*
X4460000Y4250000D02*
X4589401D01*
X4410000Y4200000D02*
X4460000Y4250000D01*
X4589401D02*
X4629614Y4290213D01*
X3960000Y2850000D02*
X4510000D01*
X4640000Y2980000D01*
X5492870Y2292870D02*
X5540000Y2340000D01*
X6170000D01*
X5492870Y2242870D02*
Y2292870D01*
X5546802Y1797130D02*
X5627130D01*
X5630000Y1800000D01*
X5443932Y1900000D02*
X5546802Y1797130D01*
X5490000Y2240000D02*
X5492870Y2242870D01*
X5640000Y2250000D02*
X6170000D01*
X6947270Y1277270D02*
X6950000Y1280000D01*
X7090000Y1110000D02*
X7160000Y1180000D01*
X6180000Y1840000D02*
X6260000D01*
X4760000Y1750000D02*
X4850000Y1840000D01*
X4170000Y1750000D02*
X4760000D01*
X4130000Y1800000D02*
X4730000D01*
X4346875Y2131875D02*
X4781875D01*
X4127500Y1977500D02*
X4460625D01*
X4396182Y2983818D02*
X4476182D01*
X4478683Y2981317D01*
X5400000Y2080000D02*
X5740000D01*
X5340000Y2140000D02*
X5400000Y2080000D01*
Y2200000D02*
X5430000Y2170000D01*
X4934059Y2280000D02*
X4954059Y2260000D01*
X4930000Y2280000D02*
X4934059D01*
X4954059Y2260000D02*
X5250000D01*
X4850000Y2200000D02*
X5400000D01*
X4781875Y2131875D02*
X4850000Y2200000D01*
X4560296Y3250000D02*
X4720710D01*
X4720711Y3250000D01*
X5955412Y4020000D02*
X6030000Y4094588D01*
X5840000Y4020000D02*
X5955412D01*
X5740000Y4120000D02*
X5840000Y4020000D01*
X5230000Y4120000D02*
X5740000D01*
X5248787Y4058787D02*
X5675273D01*
X5140000Y3950000D02*
X5248787Y4058787D01*
X5675273D02*
X5710000Y4024059D01*
X5390000Y3860000D02*
X5450000Y3800000D01*
X5310000Y3880000D02*
X5355000Y3925000D01*
X6030000Y4094588D02*
Y4100000D01*
X5710000Y4020000D02*
Y4024059D01*
X2690000Y1530000D02*
X2692500Y1527500D01*
X2752500D02*
X2800000Y1480000D01*
X2692500Y1527500D02*
X2752500D01*
X2510000Y1190000D02*
X2580000Y1260000D01*
X2762500Y1417500D02*
X3657500D01*
X2760689Y1419311D02*
X2762500Y1417500D01*
X2600000Y1597175D02*
Y1601235D01*
X3657500Y1417500D02*
X4090000Y1850000D01*
X2520000Y1380000D02*
X2590000Y1310000D01*
X2520000Y1380000D02*
Y1490000D01*
X2430000Y1810000D02*
X2510000Y1890000D01*
X1983499Y1542300D02*
X2024449Y1501350D01*
Y1405551D02*
Y1501350D01*
Y1405551D02*
X2140000Y1290000D01*
X1986649Y1687200D02*
X2192800D01*
X2194997Y1685003D01*
X2310000Y1570000D01*
X2194997Y1775400D02*
X2234600D01*
X2310000Y1700000D01*
X1986649Y1775400D02*
X2194997D01*
X1200000Y2260000D02*
X1520449Y1939551D01*
Y1939200D02*
Y1939551D01*
X2194997Y1830000D02*
X2310000D01*
X2012499Y1875000D02*
X2057500Y1830000D01*
X2194997D01*
X1949999Y1360001D02*
X2080019Y1229981D01*
X2120000Y1190000D01*
X1949999Y1360001D02*
Y1412500D01*
X1588750Y1226250D02*
Y1229981D01*
Y1411250D01*
X1587499Y1412500D02*
X1588750Y1411250D01*
Y1226250D02*
X1590000Y1225000D01*
X1688750Y1229981D02*
Y1411250D01*
Y1226250D02*
Y1229981D01*
Y1226250D02*
X1690000Y1225000D01*
X1687499Y1412500D02*
X1688750Y1411250D01*
X1215000Y1577500D02*
X1387499Y1750000D01*
X1215000Y1515000D02*
Y1577500D01*
X1200000Y2160000D02*
X1202500D01*
X1204997Y2157502D01*
X1387499Y1975000D01*
X1333144Y2219981D02*
X1478125Y2075000D01*
X1328125Y2225000D02*
X1333144Y2219981D01*
X1325000Y2225000D02*
X1328125D01*
X1478125Y2075000D02*
X1481250D01*
X1491265Y2188735D02*
X1574999Y2105001D01*
X1435431Y2219981D02*
X1466677Y2188735D01*
X1430412Y2225000D02*
X1435431Y2219981D01*
X1466677Y2188735D02*
X1491265D01*
X1425000Y2225000D02*
X1430412D01*
X1204997Y2045003D02*
X1346173Y1903827D01*
X1200000Y2050000D02*
X1204997Y2045003D01*
X1346173Y1903827D02*
X1383673D01*
X1200000Y1950000D02*
X1204997Y1945003D01*
X1318750Y1831250D01*
X1387499D01*
X1383673Y1903827D02*
X1387499Y1900000D01*
X1646882Y2078118D02*
Y2158118D01*
Y2078118D02*
X1649999Y2075000D01*
X1579999Y2225000D02*
X1646882Y2158118D01*
X1779999Y2219588D02*
Y2219981D01*
Y2225000D01*
X1799999Y2075000D02*
Y2199588D01*
X1779999Y2219588D02*
X1799999Y2199588D01*
X1877500Y2219981D02*
Y2227500D01*
Y2033751D02*
Y2219981D01*
X1874999Y2031250D02*
X1877500Y2033751D01*
Y2227500D02*
X1880000Y2230000D01*
X1725000Y2031250D02*
Y2180000D01*
X1724999Y2031250D02*
X1725000Y2031250D01*
X1574999Y2031250D02*
Y2105001D01*
X4291005Y770000D02*
X4331005Y810000D01*
X4650000D01*
X4010000Y770000D02*
X4291005D01*
X4650000Y810000D02*
X4710000Y750000D01*
X3325000Y273995D02*
X3601005Y550000D01*
X4238874D01*
X3520000Y700000D02*
X4301005D01*
X3240000Y420000D02*
X3520000Y700000D01*
X3570710Y600000D02*
X4259584D01*
X3252870Y282160D02*
X3570710Y600000D01*
X2650000Y650000D02*
X3150000D01*
X2805199Y585199D02*
X3175199D01*
X2712870Y1107737D02*
X2738107Y1082500D01*
X2712870Y1107737D02*
Y1137130D01*
X540000Y2610000D02*
X750000Y2820000D01*
X660000Y2610000D02*
X820000Y2770000D01*
X812501Y2653818D02*
Y2654527D01*
X770000Y2611317D02*
X812501Y2653818D01*
X770000Y2610000D02*
Y2611317D01*
X850000Y2610000D02*
Y2614059D01*
X862500Y2626559D02*
Y2633817D01*
X850000Y2614059D02*
X862500Y2626559D01*
X990000Y2610000D02*
X992870Y2612870D01*
X900000Y1390000D02*
X1270000Y1760000D01*
X900000Y1104059D02*
Y1390000D01*
Y1104059D02*
X920000Y1084059D01*
Y1080000D02*
Y1084059D01*
X3550000Y650000D02*
X4280295D01*
X3175000Y275000D02*
X3550000Y650000D01*
X2710000Y1140000D02*
X2712870Y1137130D01*
X3958750Y1961250D02*
X3990000Y1930000D01*
X3851250Y1961250D02*
X3958750D01*
X3040000Y420000D02*
X3240000D01*
X3325000Y125000D02*
Y273995D01*
X3252870Y202870D02*
Y282160D01*
X3175000Y125000D02*
Y275000D01*
X5951005Y125000D02*
X6325000D01*
X3250000Y200000D02*
X3252870Y202870D01*
X3220000Y850000D02*
Y902500D01*
X3200000Y830000D02*
X3220000Y850000D01*
X2510000Y1890000D02*
X2720000D01*
X3580000Y1570000D02*
X3860000Y1850000D01*
X1580000Y2430000D02*
Y2550000D01*
X1679999Y2225000D02*
X1725000Y2180000D01*
D20*
X1590498Y1885499D02*
G03*
X1537499Y1832500I0J-52999D01*
G01*
X1809999Y1885000D02*
G03*
X1980000Y2055000I0J170000D01*
G01*
X4403750Y2481250D02*
X4439844Y2445156D01*
X4530156D01*
X4575000Y2490000D01*
X1970000Y2250000D02*
Y2250000D01*
Y2250000D02*
X1980000Y2240000D01*
X1590498Y1885000D02*
X1699999D01*
X1809999D01*
X1590498D02*
Y1885499D01*
X1537499Y1781250D02*
Y1832500D01*
X1536199Y1668300D02*
Y1781250D01*
X1862499Y1568750D02*
Y1614750D01*
Y1675000D01*
X1980000Y2055000D02*
Y2240000D01*
X4530000Y3470000D02*
Y3960000D01*
D69*
X3176875Y2359375D02*
X3339375D01*
X3176875Y2440625D02*
X3274375D01*
X3168750Y2107500D02*
X3233750D01*
X4351718Y2362656D02*
X4652656D01*
X4575000Y2490000D02*
X4610000D01*
X5090804Y2009196D02*
X5256059D01*
X5090000Y2010000D02*
X5090804Y2009196D01*
X5300254Y1965000D02*
X5630000D01*
X5256059Y2009196D02*
X5300254Y1965000D01*
D72*
X250000Y2385000D02*
D03*
Y2131000D02*
D03*
D73*
Y2639000D02*
D03*
D74*
X249993Y599997D02*
D03*
X7949997D02*
D03*
Y2549998D02*
D03*
X269993Y3099997D02*
D03*
D75*
X6737500Y162500D02*
D03*
X6512500Y775000D02*
D03*
X6212500Y812500D02*
D03*
X6112500Y775000D02*
D03*
X5712500Y762500D02*
D03*
X5175000D02*
D03*
X1970000Y2250000D02*
D03*
X2360000Y590000D02*
D03*
Y390000D02*
D03*
X5910000Y1480000D02*
D03*
X5240000Y1430000D02*
D03*
X5090000Y2010000D02*
D03*
X5320000Y1420000D02*
D03*
X5630000Y1965000D02*
D03*
X5410000Y3990000D02*
D03*
X5640000Y3920000D02*
D03*
X5740000Y3580000D02*
D03*
X3230000Y640000D02*
D03*
X1400000Y1125000D02*
D03*
X5450000Y2820000D02*
D03*
X3930000Y770000D02*
D03*
X1260000Y590000D02*
D03*
X1130000Y550000D02*
D03*
X2190000Y1410000D02*
D03*
X1800000Y1160000D02*
D03*
X5630000Y1880000D02*
D03*
X5400000Y1430000D02*
D03*
X5990000Y1480000D02*
D03*
D76*
X5462500Y612500D02*
D03*
X4120000Y2980000D02*
D03*
X4800000Y2740000D02*
D03*
X5950000Y3465000D02*
D03*
X6002343Y3382053D02*
D03*
X6080000Y3560000D02*
D03*
X6657500Y2425000D02*
D03*
X6230000Y2610000D02*
D03*
Y2400000D02*
D03*
X3970000Y3510000D02*
D03*
X3890000D02*
D03*
X3955000Y3900000D02*
D03*
X3885000D02*
D03*
X2700000Y4230000D02*
D03*
X2340000Y2955000D02*
D03*
X2275000D02*
D03*
X2405000D02*
D03*
X6995000Y1800000D02*
D03*
X7050000Y1710000D02*
D03*
X7245000Y2375000D02*
D03*
Y2262500D02*
D03*
X7132500Y2062500D02*
D03*
X7032500Y1987500D02*
D03*
Y2137500D02*
D03*
Y2287500D02*
D03*
Y2437500D02*
D03*
X7220000Y2900000D02*
D03*
X7232500Y3400000D02*
D03*
X7045000Y3312500D02*
D03*
X7170000D02*
D03*
X7295000Y3537500D02*
D03*
X7170000D02*
D03*
X7045000D02*
D03*
X7170000Y4050000D02*
D03*
Y3887500D02*
D03*
Y3712500D02*
D03*
X7295000D02*
D03*
Y3887500D02*
D03*
Y4050000D02*
D03*
X7045000Y3712500D02*
D03*
Y3887500D02*
D03*
Y4050000D02*
D03*
X7145000Y3200000D02*
D03*
X2860000Y1660000D02*
D03*
X2465000Y515000D02*
D03*
X3255000Y730000D02*
D03*
X6800000Y1660000D02*
D03*
X6720000D02*
D03*
X6670000Y2712500D02*
D03*
Y2612500D02*
D03*
X4410000Y3210000D02*
D03*
X4120000Y3060000D02*
D03*
X6229988Y4059992D02*
D03*
X4120000Y3140000D02*
D03*
X900000Y2887500D02*
D03*
X3150000Y3070000D02*
D03*
X4530000Y4150000D02*
D03*
X3300000Y4220000D02*
D03*
X3600000Y4150000D02*
D03*
X3400000D02*
D03*
X2890000Y4220000D02*
D03*
X560000Y3840000D02*
D03*
X1100000Y4080000D02*
D03*
X1660000Y4240000D02*
D03*
X1800000Y4200000D02*
D03*
X160000Y3350000D02*
D03*
X2820000Y3780000D02*
D03*
X2550000Y3850000D02*
D03*
X2740000D02*
D03*
X2820000D02*
D03*
X2660000D02*
D03*
X2450000D02*
D03*
X2350000D02*
D03*
X900000Y2990000D02*
D03*
X1320000Y3010000D02*
D03*
X990000Y2990000D02*
D03*
X600000Y2920000D02*
D03*
X990000Y2890000D02*
D03*
X1140000Y3850000D02*
D03*
X2500000Y2960000D02*
D03*
X4340000Y3270000D02*
D03*
X1030000Y3850000D02*
D03*
X950000Y4080000D02*
D03*
X1320000Y3850000D02*
D03*
X6910000Y1360000D02*
D03*
X5837500Y1200000D02*
D03*
X5462500D02*
D03*
X5712500D02*
D03*
X6087500D02*
D03*
X6587500D02*
D03*
X6337500D02*
D03*
X4600000Y3127500D02*
D03*
X4530000Y3470000D02*
D03*
X4600000Y3390000D02*
D03*
X4530000Y3960000D02*
D03*
X4580000Y4040000D02*
D03*
X2700000Y2680000D02*
D03*
X7670000Y3000000D02*
D03*
X8125000Y3250000D02*
D03*
Y3100000D02*
D03*
Y2900000D02*
D03*
Y2700000D02*
D03*
Y2375000D02*
D03*
Y2150000D02*
D03*
Y1950000D02*
D03*
Y1700000D02*
D03*
Y1125000D02*
D03*
Y1000000D02*
D03*
Y800000D02*
D03*
X375000Y400000D02*
D03*
X475000Y275000D02*
D03*
X8125000Y3875000D02*
D03*
X7775000Y4050000D02*
D03*
X7700000Y4175000D02*
D03*
X400000Y4025000D02*
D03*
X500000Y4150000D02*
D03*
X275000Y3925000D02*
D03*
X75000Y3275000D02*
D03*
Y3600000D02*
D03*
Y3850000D02*
D03*
Y2900000D02*
D03*
X500000Y1775000D02*
D03*
Y1525000D02*
D03*
Y1400000D02*
D03*
X75000Y1200000D02*
D03*
Y1000000D02*
D03*
Y800000D02*
D03*
X950000Y400000D02*
D03*
X3340000Y730000D02*
D03*
X4300000Y350000D02*
D03*
X5812500Y125000D02*
D03*
X6325000D02*
D03*
X2801798Y70000D02*
D03*
X526817Y76822D02*
D03*
X801817D02*
D03*
X1001817D02*
D03*
X1201817D02*
D03*
X1401817D02*
D03*
X1601817D02*
D03*
X1801817D02*
D03*
X2001817D02*
D03*
X2201817D02*
D03*
X2401817D02*
D03*
X2601817D02*
D03*
X2976817D02*
D03*
X3400000Y200000D02*
D03*
X3675000Y475000D02*
D03*
X4100000D02*
D03*
X4426817Y76822D02*
D03*
X4400000Y200000D02*
D03*
X5325000Y75000D02*
D03*
X5887500D02*
D03*
X3500000Y350000D02*
D03*
X6525000Y75000D02*
D03*
X6925000Y75000D02*
D03*
X7676817Y76822D02*
D03*
X7675000Y4325000D02*
D03*
X7475000D02*
D03*
X7275000D02*
D03*
X7075000D02*
D03*
X6850000D02*
D03*
X6650000D02*
D03*
X6200000D02*
D03*
X4925000D02*
D03*
X4550000D02*
D03*
X4325000Y4175000D02*
D03*
X4425000Y4325000D02*
D03*
X4175000Y4175000D02*
D03*
X4025000D02*
D03*
X3875000D02*
D03*
X3775000Y4325000D02*
D03*
X3600000D02*
D03*
X3400000D02*
D03*
X3225000D02*
D03*
X2975000D02*
D03*
X2800000D02*
D03*
X2600000D02*
D03*
X2400000D02*
D03*
X2200000D02*
D03*
X2000000D02*
D03*
X1800000D02*
D03*
X1600000D02*
D03*
X1400000D02*
D03*
X1200000D02*
D03*
X1000000D02*
D03*
X800000D02*
D03*
X525000D02*
D03*
X1580000Y3010000D02*
D03*
X3560000Y1660000D02*
D03*
X3460000D02*
D03*
X2055000Y2270000D02*
D03*
X4170000Y1650000D02*
D03*
X4270000D02*
D03*
X4700000Y1420000D02*
D03*
X4595000Y1415000D02*
D03*
X4480000Y3130000D02*
D03*
X2740000Y3780000D02*
D03*
X2660000D02*
D03*
X7522436Y1602446D02*
D03*
X6160000Y3200000D02*
D03*
X7960000Y2810000D02*
D03*
X6850000Y820000D02*
D03*
X6960000D02*
D03*
X7060000Y680000D02*
D03*
X7920000Y3750000D02*
D03*
X7682500Y3650000D02*
D03*
X3780000Y1430000D02*
D03*
X2770000Y1660000D02*
D03*
X4935000Y1160000D02*
D03*
X4360000Y740000D02*
D03*
X6462500Y625000D02*
D03*
X5837500Y312500D02*
D03*
X6587500Y725000D02*
D03*
X5962500Y312500D02*
D03*
X5537500Y775000D02*
D03*
X5212500Y620000D02*
D03*
X4750000D02*
D03*
Y470000D02*
D03*
Y310000D02*
D03*
Y80000D02*
D03*
X4250000Y1000000D02*
D03*
X3440000Y730000D02*
D03*
X3250000Y100000D02*
D03*
X6459987Y1199998D02*
D03*
X5962500Y1200000D02*
D03*
X5337500D02*
D03*
X5587500D02*
D03*
X7670000Y2900000D02*
D03*
Y3200000D02*
D03*
X7395000Y2900000D02*
D03*
X7674999Y2750000D02*
D03*
X6890000Y1660000D02*
D03*
X7710000Y530000D02*
D03*
X7450000Y800000D02*
D03*
X6230000Y1770000D02*
D03*
X7710000Y440000D02*
D03*
X7860000Y1030000D02*
D03*
Y930000D02*
D03*
X6250000Y1420000D02*
D03*
X7245000Y2112500D02*
D03*
X7607500Y1900000D02*
D03*
X7245000Y1950000D02*
D03*
X6130000Y2830000D02*
D03*
X840000Y710000D02*
D03*
X1570000Y450000D02*
D03*
X6230000Y2190000D02*
D03*
X6770000Y1900000D02*
D03*
X6670000Y2112500D02*
D03*
X6230000Y2830000D02*
D03*
X7220000Y2750000D02*
D03*
X7032500D02*
D03*
Y2900000D02*
D03*
X7050000Y3200000D02*
D03*
X6230000Y3200000D02*
D03*
Y1980000D02*
D03*
X5210000Y3680000D02*
D03*
X5290000Y3580000D02*
D03*
X6080000Y3660000D02*
D03*
X6590000Y3200000D02*
D03*
X6682500Y3675000D02*
D03*
X6000000Y4325000D02*
D03*
X6682500Y3987500D02*
D03*
Y3825000D02*
D03*
X7682500Y3500000D02*
D03*
X7790000Y3350000D02*
D03*
X7940000Y3550000D02*
D03*
X8130000Y3750000D02*
D03*
Y3470000D02*
D03*
X2870000Y450000D02*
D03*
X2670000Y515000D02*
D03*
X5887500Y775000D02*
D03*
X5275000Y737500D02*
D03*
X7190000Y250000D02*
D03*
X5962500Y212500D02*
D03*
X6087500D02*
D03*
X6212500D02*
D03*
X5462500Y312500D02*
D03*
X6750000Y75000D02*
D03*
X6587500Y625000D02*
D03*
X5212500Y312500D02*
D03*
X6950000Y3200000D02*
D03*
X6670000Y3200000D02*
D03*
X6320000Y3770000D02*
D03*
X6675000Y2900000D02*
D03*
Y2300000D02*
D03*
X7674999Y2000000D02*
D03*
Y2450000D02*
D03*
Y2600000D02*
D03*
D78*
X6995000Y3462500D02*
D03*
Y3387500D02*
D03*
X1875706Y1476413D02*
D03*
X5226531Y1822624D02*
D03*
X1205000Y1305000D02*
D03*
X1215000Y1445000D02*
D03*
Y1385000D02*
D03*
X1090000Y1180000D02*
D03*
X1190000D02*
D03*
X1340000Y577500D02*
D03*
X1740000Y520000D02*
D03*
X1230000D02*
D03*
X2681235Y1760000D02*
D03*
X1640000Y2590000D02*
D03*
X1755000Y2610000D02*
D03*
X1940000Y2535000D02*
D03*
X1545000Y2610000D02*
D03*
X1497402Y2560735D02*
D03*
X1410000Y2560000D02*
D03*
X1975000Y2397500D02*
D03*
X2020000Y2340000D02*
D03*
X7770000Y1160000D02*
D03*
X7520000Y1697500D02*
D03*
X5630000Y1800000D02*
D03*
X5490000Y2240000D02*
D03*
X5640000Y2250000D02*
D03*
X6870000Y1440000D02*
D03*
X6950000D02*
D03*
Y1280000D02*
D03*
X6870000D02*
D03*
X7230000Y950000D02*
D03*
X7400000Y890000D02*
D03*
X4525625Y2042500D02*
D03*
X4460625Y1977500D02*
D03*
X4478683Y2981317D02*
D03*
X4559341Y2980658D02*
D03*
X4640000Y2980000D02*
D03*
X4930000Y2280000D02*
D03*
X5250000Y2260000D02*
D03*
X5280000Y2080000D02*
D03*
X4080000Y3440000D02*
D03*
X5230000Y4120000D02*
D03*
X5710000Y4020000D02*
D03*
X5630000Y3740000D02*
D03*
X2760689Y1419311D02*
D03*
X2690000Y1530000D02*
D03*
X2600000Y1601235D02*
D03*
X2520000Y1490000D02*
D03*
X2510000Y1190000D02*
D03*
X1983499Y1542300D02*
D03*
X1862499Y1675000D02*
D03*
Y1562500D02*
D03*
X1986649Y1687200D02*
D03*
Y1775400D02*
D03*
X1520449Y1939200D02*
D03*
X1537499Y1781250D02*
D03*
X1536199Y1668300D02*
D03*
X2012499Y1875000D02*
D03*
X1590000Y1225000D02*
D03*
X1690000D02*
D03*
X1444973Y1199973D02*
D03*
X1200000Y2260000D02*
D03*
Y2160000D02*
D03*
X1325000Y2225000D02*
D03*
X1425000D02*
D03*
X1200000Y2050000D02*
D03*
Y1950000D02*
D03*
X1481250Y2075000D02*
D03*
X1649999D02*
D03*
X1799999D02*
D03*
X1874999Y2031250D02*
D03*
X1724999D02*
D03*
X1574999D02*
D03*
X1949999Y1412500D02*
D03*
X1687499D02*
D03*
X1587499D02*
D03*
X1443749Y1425000D02*
D03*
X1387499Y1500000D02*
D03*
Y1581250D02*
D03*
Y1668750D02*
D03*
Y1750000D02*
D03*
Y1831250D02*
D03*
Y1900000D02*
D03*
Y1975000D02*
D03*
X4010000Y770000D02*
D03*
X3150000Y650000D02*
D03*
X850000Y2610000D02*
D03*
X920000D02*
D03*
X990000D02*
D03*
X1330000D02*
D03*
X1190000D02*
D03*
X770000D02*
D03*
X540000D02*
D03*
X660000D02*
D03*
X1809999Y1885000D02*
D03*
X7289341Y1520658D02*
D03*
X4250000Y450000D02*
D03*
X2710000Y1140000D02*
D03*
X2850000D02*
D03*
X3990000Y1930000D02*
D03*
X4500000Y1240000D02*
D03*
X5740000Y2080000D02*
D03*
X2310000Y1830000D02*
D03*
Y1700000D02*
D03*
Y1570000D02*
D03*
X4950000Y3930000D02*
D03*
X1090000Y620000D02*
D03*
X1700000Y830000D02*
D03*
X2020000Y600000D02*
D03*
X2010000Y390000D02*
D03*
X1490000Y450000D02*
D03*
X1650000D02*
D03*
X3175199Y585199D02*
D03*
X3290000Y580000D02*
D03*
X3040000Y420000D02*
D03*
X2780000Y1140000D02*
D03*
X1512499Y1475000D02*
D03*
X1590498Y1885499D02*
D03*
X1490000Y2270000D02*
D03*
X1880000Y2230000D02*
D03*
X730000Y1080000D02*
D03*
X840000D02*
D03*
X920000D02*
D03*
X1020000D02*
D03*
X970000Y1130000D02*
D03*
X2070000Y1030000D02*
D03*
X2120000Y1190000D02*
D03*
X2340000Y960000D02*
D03*
X3150000Y902500D02*
D03*
X3080000D02*
D03*
X3220000D02*
D03*
X2140000Y1290000D02*
D03*
X3650000Y1900000D02*
D03*
X3860000Y1850000D02*
D03*
X2565000Y1800101D02*
D03*
X2720000Y1470000D02*
D03*
X6425000Y775000D02*
D03*
X7600000Y130000D02*
D03*
X2630000Y1800000D02*
D03*
X2560000Y1550000D02*
D03*
X2197500Y1580000D02*
D03*
X4525625Y1977500D02*
D03*
X3920000Y1890000D02*
D03*
X2199999Y1945000D02*
D03*
X7060000Y1432500D02*
D03*
X4710000Y750000D02*
D03*
X6000000Y775000D02*
D03*
X5425000D02*
D03*
X4650000Y610000D02*
D03*
X4780000Y750000D02*
D03*
X3325000Y125000D02*
D03*
X3250000Y200000D02*
D03*
X3175000Y125000D02*
D03*
X7360000Y1120000D02*
D03*
X7440000D02*
D03*
X1260000Y2600000D02*
D03*
X1455000Y2610000D02*
D03*
X1580000Y2550000D02*
D03*
X600000Y2560000D02*
D03*
X750000Y2240000D02*
D03*
X800000Y2180000D02*
D03*
X575000Y2075000D02*
D03*
X475000D02*
D03*
X425000Y2025000D02*
D03*
X780000Y1130000D02*
D03*
X900000Y1820000D02*
D03*
X1270000Y1760000D02*
D03*
X5560000Y3110000D02*
D03*
X5310000Y3880000D02*
D03*
X4780000Y820000D02*
D03*
X1120000Y1860000D02*
D03*
X1699999Y1885000D02*
D03*
X1779999Y2225000D02*
D03*
X1679999D02*
D03*
X1579999D02*
D03*
X1674999Y1580000D02*
D03*
X1215000Y1515000D02*
D03*
D79*
X7370000Y3078826D02*
D03*
X6070000Y2440000D02*
D03*
X6100000Y1848551D02*
D03*
X5390000Y3860000D02*
D03*
X6030000Y4100000D02*
D03*
X5910000D02*
D03*
X6149987Y4060000D02*
D03*
X4629614Y4290213D02*
D03*
X6170000Y2120000D02*
D03*
Y2250000D02*
D03*
Y2340000D02*
D03*
X5990000Y2830000D02*
D03*
X5270000Y4280000D02*
D03*
X5828520Y3597644D02*
D03*
X6250000Y3940000D02*
D03*
X6560000D02*
D03*
D80*
X3176875Y2359375D02*
D03*
Y2440625D02*
D03*
X3168750Y2107500D02*
D03*
Y2692500D02*
D03*
Y2196875D02*
D03*
Y2603125D02*
D03*
Y2521875D02*
D03*
Y2278125D02*
D03*
D81*
X5190000Y1760000D02*
D03*
X4870000Y1765000D02*
D03*
X4690000Y2750000D02*
D03*
X5240000Y2900000D02*
D03*
X5070000Y2410000D02*
D03*
X5140000Y2580000D02*
D03*
X5490000Y2900000D02*
D03*
X5410000D02*
D03*
X5090000Y1930000D02*
D03*
D83*
X3730000Y2900000D02*
D03*
X3729375Y2001875D02*
D03*
X1924999Y1800000D02*
D03*
X1662499Y1762500D02*
D03*
X1737499D02*
D03*
X1662499Y1687500D02*
D03*
X1737499D02*
D03*
X2130000Y1580000D02*
D03*
X900000Y1630000D02*
D03*
X1924999Y1525000D02*
D03*
X1699999Y1725000D02*
D03*
D84*
X2740000Y3670000D02*
D03*
X2820000D02*
D03*
X2660000D02*
D03*
D87*
X4493125Y2286250D02*
D03*
Y2205000D02*
D03*
Y2513750D02*
D03*
Y2595000D02*
D03*
%TF.MD5,433471cf9767da79b5403251b31d2586*%
M02*
