%TF.GenerationSoftware,Altium Limited,Altium Designer,22.6.1 (34)*%
G04 Layer_Color=255*
%FSLAX45Y45*%
%MOMM*%
%TF.SameCoordinates,07F994AE-BB1C-4BEA-A643-928B9DFDCC76*%
%TF.FilePolarity,Positive*%
%TF.FileFunction,Pads,Top*%
%TF.Part,Single*%
G01*
G75*
%TA.AperFunction,SMDPad,CuDef*%
G04:AMPARAMS|DCode=21|XSize=3.6mm|YSize=2.4mm|CornerRadius=0.3mm|HoleSize=0mm|Usage=FLASHONLY|Rotation=270.000|XOffset=0mm|YOffset=0mm|HoleType=Round|Shape=RoundedRectangle|*
%AMROUNDEDRECTD21*
21,1,3.60000,1.80000,0,0,270.0*
21,1,3.00000,2.40000,0,0,270.0*
1,1,0.60000,-0.90000,-1.50000*
1,1,0.60000,-0.90000,1.50000*
1,1,0.60000,0.90000,1.50000*
1,1,0.60000,0.90000,-1.50000*
%
%ADD21ROUNDEDRECTD21*%
%ADD22C,1.00000*%
G04:AMPARAMS|DCode=23|XSize=1.3mm|YSize=1.3mm|CornerRadius=0.1625mm|HoleSize=0mm|Usage=FLASHONLY|Rotation=45.000|XOffset=0mm|YOffset=0mm|HoleType=Round|Shape=RoundedRectangle|*
%AMROUNDEDRECTD23*
21,1,1.30000,0.97500,0,0,45.0*
21,1,0.97500,1.30000,0,0,45.0*
1,1,0.32500,0.68943,0.00000*
1,1,0.32500,0.00000,-0.68943*
1,1,0.32500,-0.68943,0.00000*
1,1,0.32500,0.00000,0.68943*
%
%ADD23ROUNDEDRECTD23*%
%ADD24R,4.50000X6.90000*%
G04:AMPARAMS|DCode=25|XSize=1.75mm|YSize=0.43mm|CornerRadius=0.1075mm|HoleSize=0mm|Usage=FLASHONLY|Rotation=180.000|XOffset=0mm|YOffset=0mm|HoleType=Round|Shape=RoundedRectangle|*
%AMROUNDEDRECTD25*
21,1,1.75000,0.21500,0,0,180.0*
21,1,1.53500,0.43000,0,0,180.0*
1,1,0.21500,-0.76750,0.10750*
1,1,0.21500,0.76750,0.10750*
1,1,0.21500,0.76750,-0.10750*
1,1,0.21500,-0.76750,-0.10750*
%
%ADD25ROUNDEDRECTD25*%
G04:AMPARAMS|DCode=26|XSize=0.6mm|YSize=1mm|CornerRadius=0.15mm|HoleSize=0mm|Usage=FLASHONLY|Rotation=180.000|XOffset=0mm|YOffset=0mm|HoleType=Round|Shape=RoundedRectangle|*
%AMROUNDEDRECTD26*
21,1,0.60000,0.70000,0,0,180.0*
21,1,0.30000,1.00000,0,0,180.0*
1,1,0.30000,-0.15000,0.35000*
1,1,0.30000,0.15000,0.35000*
1,1,0.30000,0.15000,-0.35000*
1,1,0.30000,-0.15000,-0.35000*
%
%ADD26ROUNDEDRECTD26*%
G04:AMPARAMS|DCode=27|XSize=0.65mm|YSize=1.45mm|CornerRadius=0.1625mm|HoleSize=0mm|Usage=FLASHONLY|Rotation=180.000|XOffset=0mm|YOffset=0mm|HoleType=Round|Shape=RoundedRectangle|*
%AMROUNDEDRECTD27*
21,1,0.65000,1.12500,0,0,180.0*
21,1,0.32500,1.45000,0,0,180.0*
1,1,0.32500,-0.16250,0.56250*
1,1,0.32500,0.16250,0.56250*
1,1,0.32500,0.16250,-0.56250*
1,1,0.32500,-0.16250,-0.56250*
%
%ADD27ROUNDEDRECTD27*%
G04:AMPARAMS|DCode=28|XSize=0.75mm|YSize=0.85mm|CornerRadius=0.1875mm|HoleSize=0mm|Usage=FLASHONLY|Rotation=90.000|XOffset=0mm|YOffset=0mm|HoleType=Round|Shape=RoundedRectangle|*
%AMROUNDEDRECTD28*
21,1,0.75000,0.47500,0,0,90.0*
21,1,0.37500,0.85000,0,0,90.0*
1,1,0.37500,0.23750,0.18750*
1,1,0.37500,0.23750,-0.18750*
1,1,0.37500,-0.23750,-0.18750*
1,1,0.37500,-0.23750,0.18750*
%
%ADD28ROUNDEDRECTD28*%
G04:AMPARAMS|DCode=29|XSize=0.7mm|YSize=1.75mm|CornerRadius=0mm|HoleSize=0mm|Usage=FLASHONLY|Rotation=90.000|XOffset=0mm|YOffset=0mm|HoleType=Round|Shape=Octagon|*
%AMOCTAGOND29*
4,1,8,-0.87500,-0.17500,-0.87500,0.17500,-0.70000,0.35000,0.70000,0.35000,0.87500,0.17500,0.87500,-0.17500,0.70000,-0.35000,-0.70000,-0.35000,-0.87500,-0.17500,0.0*
%
%ADD29OCTAGOND29*%

G04:AMPARAMS|DCode=30|XSize=1mm|YSize=2.8mm|CornerRadius=0mm|HoleSize=0mm|Usage=FLASHONLY|Rotation=90.000|XOffset=0mm|YOffset=0mm|HoleType=Round|Shape=Octagon|*
%AMOCTAGOND30*
4,1,8,-1.40000,-0.25000,-1.40000,0.25000,-1.15000,0.50000,1.15000,0.50000,1.40000,0.25000,1.40000,-0.25000,1.15000,-0.50000,-1.15000,-0.50000,-1.40000,-0.25000,0.0*
%
%ADD30OCTAGOND30*%

G04:AMPARAMS|DCode=31|XSize=1mm|YSize=2.8mm|CornerRadius=0mm|HoleSize=0mm|Usage=FLASHONLY|Rotation=0.000|XOffset=0mm|YOffset=0mm|HoleType=Round|Shape=Octagon|*
%AMOCTAGOND31*
4,1,8,-0.25000,1.40000,0.25000,1.40000,0.50000,1.15000,0.50000,-1.15000,0.25000,-1.40000,-0.25000,-1.40000,-0.50000,-1.15000,-0.50000,1.15000,-0.25000,1.40000,0.0*
%
%ADD31OCTAGOND31*%

G04:AMPARAMS|DCode=32|XSize=0.6mm|YSize=1.75mm|CornerRadius=0mm|HoleSize=0mm|Usage=FLASHONLY|Rotation=0.000|XOffset=0mm|YOffset=0mm|HoleType=Round|Shape=Octagon|*
%AMOCTAGOND32*
4,1,8,-0.15000,0.87500,0.15000,0.87500,0.30000,0.72500,0.30000,-0.72500,0.15000,-0.87500,-0.15000,-0.87500,-0.30000,-0.72500,-0.30000,0.72500,-0.15000,0.87500,0.0*
%
%ADD32OCTAGOND32*%

G04:AMPARAMS|DCode=33|XSize=1.4mm|YSize=1.15mm|CornerRadius=0.14375mm|HoleSize=0mm|Usage=FLASHONLY|Rotation=270.000|XOffset=0mm|YOffset=0mm|HoleType=Round|Shape=RoundedRectangle|*
%AMROUNDEDRECTD33*
21,1,1.40000,0.86250,0,0,270.0*
21,1,1.11250,1.15000,0,0,270.0*
1,1,0.28750,-0.43125,-0.55625*
1,1,0.28750,-0.43125,0.55625*
1,1,0.28750,0.43125,0.55625*
1,1,0.28750,0.43125,-0.55625*
%
%ADD33ROUNDEDRECTD33*%
G04:AMPARAMS|DCode=34|XSize=1.7mm|YSize=1.05mm|CornerRadius=0.2625mm|HoleSize=0mm|Usage=FLASHONLY|Rotation=270.000|XOffset=0mm|YOffset=0mm|HoleType=Round|Shape=RoundedRectangle|*
%AMROUNDEDRECTD34*
21,1,1.70000,0.52500,0,0,270.0*
21,1,1.17500,1.05000,0,0,270.0*
1,1,0.52500,-0.26250,-0.58750*
1,1,0.52500,-0.26250,0.58750*
1,1,0.52500,0.26250,0.58750*
1,1,0.52500,0.26250,-0.58750*
%
%ADD34ROUNDEDRECTD34*%
G04:AMPARAMS|DCode=35|XSize=0.8mm|YSize=1.3mm|CornerRadius=0.1mm|HoleSize=0mm|Usage=FLASHONLY|Rotation=180.000|XOffset=0mm|YOffset=0mm|HoleType=Round|Shape=RoundedRectangle|*
%AMROUNDEDRECTD35*
21,1,0.80000,1.10000,0,0,180.0*
21,1,0.60000,1.30000,0,0,180.0*
1,1,0.20000,-0.30000,0.55000*
1,1,0.20000,0.30000,0.55000*
1,1,0.20000,0.30000,-0.55000*
1,1,0.20000,-0.30000,-0.55000*
%
%ADD35ROUNDEDRECTD35*%
G04:AMPARAMS|DCode=36|XSize=1.9mm|YSize=2.4mm|CornerRadius=0.475mm|HoleSize=0mm|Usage=FLASHONLY|Rotation=90.000|XOffset=0mm|YOffset=0mm|HoleType=Round|Shape=RoundedRectangle|*
%AMROUNDEDRECTD36*
21,1,1.90000,1.45000,0,0,90.0*
21,1,0.95000,2.40000,0,0,90.0*
1,1,0.95000,0.72500,0.47500*
1,1,0.95000,0.72500,-0.47500*
1,1,0.95000,-0.72500,-0.47500*
1,1,0.95000,-0.72500,0.47500*
%
%ADD36ROUNDEDRECTD36*%
G04:AMPARAMS|DCode=37|XSize=1.6mm|YSize=2.7mm|CornerRadius=0.32mm|HoleSize=0mm|Usage=FLASHONLY|Rotation=180.000|XOffset=0mm|YOffset=0mm|HoleType=Round|Shape=RoundedRectangle|*
%AMROUNDEDRECTD37*
21,1,1.60000,2.06000,0,0,180.0*
21,1,0.96000,2.70000,0,0,180.0*
1,1,0.64000,-0.48000,1.03000*
1,1,0.64000,0.48000,1.03000*
1,1,0.64000,0.48000,-1.03000*
1,1,0.64000,-0.48000,-1.03000*
%
%ADD37ROUNDEDRECTD37*%
%TA.AperFunction,BGAPad,CuDef*%
%ADD38C,0.26000*%
%TA.AperFunction,SMDPad,CuDef*%
G04:AMPARAMS|DCode=39|XSize=0.9mm|YSize=2mm|CornerRadius=0.1125mm|HoleSize=0mm|Usage=FLASHONLY|Rotation=0.000|XOffset=0mm|YOffset=0mm|HoleType=Round|Shape=RoundedRectangle|*
%AMROUNDEDRECTD39*
21,1,0.90000,1.77500,0,0,0.0*
21,1,0.67500,2.00000,0,0,0.0*
1,1,0.22500,0.33750,-0.88750*
1,1,0.22500,-0.33750,-0.88750*
1,1,0.22500,-0.33750,0.88750*
1,1,0.22500,0.33750,0.88750*
%
%ADD39ROUNDEDRECTD39*%
G04:AMPARAMS|DCode=40|XSize=0.95mm|YSize=0.85mm|CornerRadius=0.2125mm|HoleSize=0mm|Usage=FLASHONLY|Rotation=0.000|XOffset=0mm|YOffset=0mm|HoleType=Round|Shape=RoundedRectangle|*
%AMROUNDEDRECTD40*
21,1,0.95000,0.42500,0,0,0.0*
21,1,0.52500,0.85000,0,0,0.0*
1,1,0.42500,0.26250,-0.21250*
1,1,0.42500,-0.26250,-0.21250*
1,1,0.42500,-0.26250,0.21250*
1,1,0.42500,0.26250,0.21250*
%
%ADD40ROUNDEDRECTD40*%
G04:AMPARAMS|DCode=41|XSize=0.95mm|YSize=0.85mm|CornerRadius=0.2125mm|HoleSize=0mm|Usage=FLASHONLY|Rotation=270.000|XOffset=0mm|YOffset=0mm|HoleType=Round|Shape=RoundedRectangle|*
%AMROUNDEDRECTD41*
21,1,0.95000,0.42500,0,0,270.0*
21,1,0.52500,0.85000,0,0,270.0*
1,1,0.42500,-0.21250,-0.26250*
1,1,0.42500,-0.21250,0.26250*
1,1,0.42500,0.21250,0.26250*
1,1,0.42500,0.21250,-0.26250*
%
%ADD41ROUNDEDRECTD41*%
G04:AMPARAMS|DCode=42|XSize=2.5mm|YSize=2.45mm|CornerRadius=0.42875mm|HoleSize=0mm|Usage=FLASHONLY|Rotation=180.000|XOffset=0mm|YOffset=0mm|HoleType=Round|Shape=RoundedRectangle|*
%AMROUNDEDRECTD42*
21,1,2.50000,1.59250,0,0,180.0*
21,1,1.64250,2.45000,0,0,180.0*
1,1,0.85750,-0.82125,0.79625*
1,1,0.85750,0.82125,0.79625*
1,1,0.85750,0.82125,-0.79625*
1,1,0.85750,-0.82125,-0.79625*
%
%ADD42ROUNDEDRECTD42*%
G04:AMPARAMS|DCode=43|XSize=2.7mm|YSize=1.35mm|CornerRadius=0.3375mm|HoleSize=0mm|Usage=FLASHONLY|Rotation=180.000|XOffset=0mm|YOffset=0mm|HoleType=Round|Shape=RoundedRectangle|*
%AMROUNDEDRECTD43*
21,1,2.70000,0.67500,0,0,180.0*
21,1,2.02500,1.35000,0,0,180.0*
1,1,0.67500,-1.01250,0.33750*
1,1,0.67500,1.01250,0.33750*
1,1,0.67500,1.01250,-0.33750*
1,1,0.67500,-1.01250,-0.33750*
%
%ADD43ROUNDEDRECTD43*%
G04:AMPARAMS|DCode=44|XSize=0.65mm|YSize=0.55mm|CornerRadius=0.1375mm|HoleSize=0mm|Usage=FLASHONLY|Rotation=180.000|XOffset=0mm|YOffset=0mm|HoleType=Round|Shape=RoundedRectangle|*
%AMROUNDEDRECTD44*
21,1,0.65000,0.27500,0,0,180.0*
21,1,0.37500,0.55000,0,0,180.0*
1,1,0.27500,-0.18750,0.13750*
1,1,0.27500,0.18750,0.13750*
1,1,0.27500,0.18750,-0.13750*
1,1,0.27500,-0.18750,-0.13750*
%
%ADD44ROUNDEDRECTD44*%
G04:AMPARAMS|DCode=45|XSize=0.65mm|YSize=0.55mm|CornerRadius=0.1375mm|HoleSize=0mm|Usage=FLASHONLY|Rotation=90.000|XOffset=0mm|YOffset=0mm|HoleType=Round|Shape=RoundedRectangle|*
%AMROUNDEDRECTD45*
21,1,0.65000,0.27500,0,0,90.0*
21,1,0.37500,0.55000,0,0,90.0*
1,1,0.27500,0.13750,0.18750*
1,1,0.27500,0.13750,-0.18750*
1,1,0.27500,-0.13750,-0.18750*
1,1,0.27500,-0.13750,0.18750*
%
%ADD45ROUNDEDRECTD45*%
G04:AMPARAMS|DCode=46|XSize=0.95mm|YSize=0.85mm|CornerRadius=0.2125mm|HoleSize=0mm|Usage=FLASHONLY|Rotation=45.000|XOffset=0mm|YOffset=0mm|HoleType=Round|Shape=RoundedRectangle|*
%AMROUNDEDRECTD46*
21,1,0.95000,0.42500,0,0,45.0*
21,1,0.52500,0.85000,0,0,45.0*
1,1,0.42500,0.33587,0.03535*
1,1,0.42500,-0.03535,-0.33587*
1,1,0.42500,-0.33587,-0.03535*
1,1,0.42500,0.03535,0.33587*
%
%ADD46ROUNDEDRECTD46*%
G04:AMPARAMS|DCode=47|XSize=0.65mm|YSize=0.85mm|CornerRadius=0.1625mm|HoleSize=0mm|Usage=FLASHONLY|Rotation=90.000|XOffset=0mm|YOffset=0mm|HoleType=Round|Shape=RoundedRectangle|*
%AMROUNDEDRECTD47*
21,1,0.65000,0.52500,0,0,90.0*
21,1,0.32500,0.85000,0,0,90.0*
1,1,0.32500,0.26250,0.16250*
1,1,0.32500,0.26250,-0.16250*
1,1,0.32500,-0.26250,-0.16250*
1,1,0.32500,-0.26250,0.16250*
%
%ADD47ROUNDEDRECTD47*%
G04:AMPARAMS|DCode=48|XSize=0.75mm|YSize=0.85mm|CornerRadius=0.1875mm|HoleSize=0mm|Usage=FLASHONLY|Rotation=0.000|XOffset=0mm|YOffset=0mm|HoleType=Round|Shape=RoundedRectangle|*
%AMROUNDEDRECTD48*
21,1,0.75000,0.47500,0,0,0.0*
21,1,0.37500,0.85000,0,0,0.0*
1,1,0.37500,0.18750,-0.23750*
1,1,0.37500,-0.18750,-0.23750*
1,1,0.37500,-0.18750,0.23750*
1,1,0.37500,0.18750,0.23750*
%
%ADD48ROUNDEDRECTD48*%
G04:AMPARAMS|DCode=49|XSize=0.98mm|YSize=0.92mm|CornerRadius=0.23mm|HoleSize=0mm|Usage=FLASHONLY|Rotation=270.000|XOffset=0mm|YOffset=0mm|HoleType=Round|Shape=RoundedRectangle|*
%AMROUNDEDRECTD49*
21,1,0.98000,0.46000,0,0,270.0*
21,1,0.52000,0.92000,0,0,270.0*
1,1,0.46000,-0.23000,-0.26000*
1,1,0.46000,-0.23000,0.26000*
1,1,0.46000,0.23000,0.26000*
1,1,0.46000,0.23000,-0.26000*
%
%ADD49ROUNDEDRECTD49*%
G04:AMPARAMS|DCode=50|XSize=0.98mm|YSize=0.92mm|CornerRadius=0.23mm|HoleSize=0mm|Usage=FLASHONLY|Rotation=0.000|XOffset=0mm|YOffset=0mm|HoleType=Round|Shape=RoundedRectangle|*
%AMROUNDEDRECTD50*
21,1,0.98000,0.46000,0,0,0.0*
21,1,0.52000,0.92000,0,0,0.0*
1,1,0.46000,0.26000,-0.23000*
1,1,0.46000,-0.26000,-0.23000*
1,1,0.46000,-0.26000,0.23000*
1,1,0.46000,0.26000,0.23000*
%
%ADD50ROUNDEDRECTD50*%
G04:AMPARAMS|DCode=51|XSize=0.62mm|YSize=0.56mm|CornerRadius=0.14mm|HoleSize=0mm|Usage=FLASHONLY|Rotation=180.000|XOffset=0mm|YOffset=0mm|HoleType=Round|Shape=RoundedRectangle|*
%AMROUNDEDRECTD51*
21,1,0.62000,0.28000,0,0,180.0*
21,1,0.34000,0.56000,0,0,180.0*
1,1,0.28000,-0.17000,0.14000*
1,1,0.28000,0.17000,0.14000*
1,1,0.28000,0.17000,-0.14000*
1,1,0.28000,-0.17000,-0.14000*
%
%ADD51ROUNDEDRECTD51*%
G04:AMPARAMS|DCode=52|XSize=0.65mm|YSize=0.9mm|CornerRadius=0.1625mm|HoleSize=0mm|Usage=FLASHONLY|Rotation=90.000|XOffset=0mm|YOffset=0mm|HoleType=Round|Shape=RoundedRectangle|*
%AMROUNDEDRECTD52*
21,1,0.65000,0.57500,0,0,90.0*
21,1,0.32500,0.90000,0,0,90.0*
1,1,0.32500,0.28750,0.16250*
1,1,0.32500,0.28750,-0.16250*
1,1,0.32500,-0.28750,-0.16250*
1,1,0.32500,-0.28750,0.16250*
%
%ADD52ROUNDEDRECTD52*%
G04:AMPARAMS|DCode=53|XSize=0.9mm|YSize=0.8mm|CornerRadius=0.2mm|HoleSize=0mm|Usage=FLASHONLY|Rotation=270.000|XOffset=0mm|YOffset=0mm|HoleType=Round|Shape=RoundedRectangle|*
%AMROUNDEDRECTD53*
21,1,0.90000,0.40000,0,0,270.0*
21,1,0.50000,0.80000,0,0,270.0*
1,1,0.40000,-0.20000,-0.25000*
1,1,0.40000,-0.20000,0.25000*
1,1,0.40000,0.20000,0.25000*
1,1,0.40000,0.20000,-0.25000*
%
%ADD53ROUNDEDRECTD53*%
G04:AMPARAMS|DCode=54|XSize=1.35mm|YSize=0.95mm|CornerRadius=0.2375mm|HoleSize=0mm|Usage=FLASHONLY|Rotation=270.000|XOffset=0mm|YOffset=0mm|HoleType=Round|Shape=RoundedRectangle|*
%AMROUNDEDRECTD54*
21,1,1.35000,0.47500,0,0,270.0*
21,1,0.87500,0.95000,0,0,270.0*
1,1,0.47500,-0.23750,-0.43750*
1,1,0.47500,-0.23750,0.43750*
1,1,0.47500,0.23750,0.43750*
1,1,0.47500,0.23750,-0.43750*
%
%ADD54ROUNDEDRECTD54*%
G04:AMPARAMS|DCode=55|XSize=1.35mm|YSize=0.95mm|CornerRadius=0.2375mm|HoleSize=0mm|Usage=FLASHONLY|Rotation=180.000|XOffset=0mm|YOffset=0mm|HoleType=Round|Shape=RoundedRectangle|*
%AMROUNDEDRECTD55*
21,1,1.35000,0.47500,0,0,180.0*
21,1,0.87500,0.95000,0,0,180.0*
1,1,0.47500,-0.43750,0.23750*
1,1,0.47500,0.43750,0.23750*
1,1,0.47500,0.43750,-0.23750*
1,1,0.47500,-0.43750,-0.23750*
%
%ADD55ROUNDEDRECTD55*%
G04:AMPARAMS|DCode=56|XSize=0.9mm|YSize=0.8mm|CornerRadius=0.2mm|HoleSize=0mm|Usage=FLASHONLY|Rotation=0.000|XOffset=0mm|YOffset=0mm|HoleType=Round|Shape=RoundedRectangle|*
%AMROUNDEDRECTD56*
21,1,0.90000,0.40000,0,0,0.0*
21,1,0.50000,0.80000,0,0,0.0*
1,1,0.40000,0.25000,-0.20000*
1,1,0.40000,-0.25000,-0.20000*
1,1,0.40000,-0.25000,0.20000*
1,1,0.40000,0.25000,0.20000*
%
%ADD56ROUNDEDRECTD56*%
G04:AMPARAMS|DCode=57|XSize=0.6mm|YSize=0.6mm|CornerRadius=0.075mm|HoleSize=0mm|Usage=FLASHONLY|Rotation=0.000|XOffset=0mm|YOffset=0mm|HoleType=Round|Shape=RoundedRectangle|*
%AMROUNDEDRECTD57*
21,1,0.60000,0.45000,0,0,0.0*
21,1,0.45000,0.60000,0,0,0.0*
1,1,0.15000,0.22500,-0.22500*
1,1,0.15000,-0.22500,-0.22500*
1,1,0.15000,-0.22500,0.22500*
1,1,0.15000,0.22500,0.22500*
%
%ADD57ROUNDEDRECTD57*%
G04:AMPARAMS|DCode=58|XSize=0.6mm|YSize=0.6mm|CornerRadius=0.075mm|HoleSize=0mm|Usage=FLASHONLY|Rotation=270.000|XOffset=0mm|YOffset=0mm|HoleType=Round|Shape=RoundedRectangle|*
%AMROUNDEDRECTD58*
21,1,0.60000,0.45000,0,0,270.0*
21,1,0.45000,0.60000,0,0,270.0*
1,1,0.15000,-0.22500,-0.22500*
1,1,0.15000,-0.22500,0.22500*
1,1,0.15000,0.22500,0.22500*
1,1,0.15000,0.22500,-0.22500*
%
%ADD58ROUNDEDRECTD58*%
G04:AMPARAMS|DCode=59|XSize=0.65mm|YSize=1.45mm|CornerRadius=0.1625mm|HoleSize=0mm|Usage=FLASHONLY|Rotation=270.000|XOffset=0mm|YOffset=0mm|HoleType=Round|Shape=RoundedRectangle|*
%AMROUNDEDRECTD59*
21,1,0.65000,1.12500,0,0,270.0*
21,1,0.32500,1.45000,0,0,270.0*
1,1,0.32500,-0.56250,-0.16250*
1,1,0.32500,-0.56250,0.16250*
1,1,0.32500,0.56250,0.16250*
1,1,0.32500,0.56250,-0.16250*
%
%ADD59ROUNDEDRECTD59*%
G04:AMPARAMS|DCode=60|XSize=0.45mm|YSize=1mm|CornerRadius=0.1125mm|HoleSize=0mm|Usage=FLASHONLY|Rotation=90.000|XOffset=0mm|YOffset=0mm|HoleType=Round|Shape=RoundedRectangle|*
%AMROUNDEDRECTD60*
21,1,0.45000,0.77500,0,0,90.0*
21,1,0.22500,1.00000,0,0,90.0*
1,1,0.22500,0.38750,0.11250*
1,1,0.22500,0.38750,-0.11250*
1,1,0.22500,-0.38750,-0.11250*
1,1,0.22500,-0.38750,0.11250*
%
%ADD60ROUNDEDRECTD60*%
G04:AMPARAMS|DCode=61|XSize=0.4mm|YSize=1.1mm|CornerRadius=0.1mm|HoleSize=0mm|Usage=FLASHONLY|Rotation=0.000|XOffset=0mm|YOffset=0mm|HoleType=Round|Shape=RoundedRectangle|*
%AMROUNDEDRECTD61*
21,1,0.40000,0.90000,0,0,0.0*
21,1,0.20000,1.10000,0,0,0.0*
1,1,0.20000,0.10000,-0.45000*
1,1,0.20000,-0.10000,-0.45000*
1,1,0.20000,-0.10000,0.45000*
1,1,0.20000,0.10000,0.45000*
%
%ADD61ROUNDEDRECTD61*%
%TA.AperFunction,ComponentPad*%
%ADD72O,1.90000X1.80000*%
G04:AMPARAMS|DCode=73|XSize=1.8mm|YSize=1.9mm|CornerRadius=0.36mm|HoleSize=0mm|Usage=FLASHONLY|Rotation=270.000|XOffset=0mm|YOffset=0mm|HoleType=Round|Shape=RoundedRectangle|*
%AMROUNDEDRECTD73*
21,1,1.80000,1.18000,0,0,270.0*
21,1,1.08000,1.90000,0,0,270.0*
1,1,0.72000,-0.59000,-0.54000*
1,1,0.72000,-0.59000,0.54000*
1,1,0.72000,0.59000,0.54000*
1,1,0.72000,0.59000,-0.54000*
%
%ADD73ROUNDEDRECTD73*%
%TA.AperFunction,WasherPad*%
%ADD74C,2.20000*%
D21*
X1185000Y3300000D02*
D03*
X1770000D02*
D03*
X3635000Y3760000D02*
D03*
X4219999D02*
D03*
D22*
X3920000Y3040000D02*
D03*
X4749999Y3475000D02*
D03*
X2080000Y3020000D02*
D03*
Y3600000D02*
D03*
X780000Y2850000D02*
D03*
X6150000Y125000D02*
D03*
X7630000Y250000D02*
D03*
X2190000Y960000D02*
D03*
X3280000Y1020000D02*
D03*
X4600000Y780000D02*
D03*
X1840000Y420000D02*
D03*
X2025000Y725000D02*
D03*
X2000000Y250000D02*
D03*
X1900000Y600000D02*
D03*
X4500000Y650000D02*
D03*
X4350000Y450000D02*
D03*
X4690000Y920000D02*
D03*
X4730000Y1600000D02*
D03*
X4250000Y3050000D02*
D03*
X6210000Y1580000D02*
D03*
X3030000Y2280000D02*
D03*
Y2120000D02*
D03*
Y2600000D02*
D03*
Y2440000D02*
D03*
X4870000Y1900000D02*
D03*
X5750000Y1730000D02*
D03*
X4620000Y2670000D02*
D03*
X5850000Y2770000D02*
D03*
X1260000Y320000D02*
D03*
X3060000Y1560000D02*
D03*
X2960000Y1210000D02*
D03*
X840000Y950000D02*
D03*
X775000Y2350000D02*
D03*
X5750000Y3450000D02*
D03*
X1090000Y2550000D02*
D03*
X900000Y2450000D02*
D03*
X5950000Y3560000D02*
D03*
X5970000Y4230000D02*
D03*
X5300000Y4120000D02*
D03*
X660000Y2480000D02*
D03*
X6150000Y3950000D02*
D03*
X500000Y2400000D02*
D03*
X5970000Y4010000D02*
D03*
X6070000Y3830000D02*
D03*
X6140000Y4200000D02*
D03*
X675000Y2075000D02*
D03*
X520000Y1970000D02*
D03*
X5820000Y2610000D02*
D03*
X4980000Y2720000D02*
D03*
X4820000Y2580000D02*
D03*
X5870000Y2460000D02*
D03*
X2460000Y1550000D02*
D03*
X5900000Y2125000D02*
D03*
X2550000Y1290000D02*
D03*
X5430000Y2080000D02*
D03*
X6075000Y1950000D02*
D03*
Y2125000D02*
D03*
X2510000Y1690000D02*
D03*
X2630000Y1430000D02*
D03*
X7730000Y1380000D02*
D03*
X2610000Y1120000D02*
D03*
X7820000Y1260000D02*
D03*
X670000Y1890000D02*
D03*
X5750000Y1925000D02*
D03*
X8080000Y900000D02*
D03*
X1340000Y480000D02*
D03*
X4380000Y1240000D02*
D03*
X1025000Y525000D02*
D03*
X7190000Y1490000D02*
D03*
X2770000Y1020000D02*
D03*
X2950000Y1025000D02*
D03*
X800000Y550000D02*
D03*
X4380000Y1430000D02*
D03*
X600000Y2250000D02*
D03*
X2825000Y2700000D02*
D03*
D23*
X1069972Y1254975D02*
D03*
X857840Y1467107D02*
D03*
D24*
X3850000Y2400000D02*
D03*
D25*
X3380000Y1977500D02*
D03*
Y2042500D02*
D03*
Y2107500D02*
D03*
Y2172500D02*
D03*
Y2237500D02*
D03*
Y2302500D02*
D03*
Y2367500D02*
D03*
Y2432500D02*
D03*
Y2497500D02*
D03*
Y2562500D02*
D03*
Y2627500D02*
D03*
Y2692500D02*
D03*
Y2757500D02*
D03*
Y2822500D02*
D03*
X4320000D02*
D03*
Y2757500D02*
D03*
Y2692500D02*
D03*
Y2627500D02*
D03*
Y2562500D02*
D03*
Y2497500D02*
D03*
Y2432500D02*
D03*
Y2367500D02*
D03*
Y2302500D02*
D03*
Y2237500D02*
D03*
Y2172500D02*
D03*
Y2107500D02*
D03*
Y2042500D02*
D03*
Y1977500D02*
D03*
D26*
X1425000Y4125000D02*
D03*
X1520000D02*
D03*
X1615000D02*
D03*
Y3855000D02*
D03*
X1520000D02*
D03*
X1425000D02*
D03*
D27*
X7209500Y477500D02*
D03*
X7336500D02*
D03*
X7463500D02*
D03*
X7590500D02*
D03*
X7209500Y1022500D02*
D03*
X7336500D02*
D03*
X7463500D02*
D03*
X7590500D02*
D03*
D28*
X5759999Y1365000D02*
D03*
X5999999D02*
D03*
X5720000Y162500D02*
D03*
X5480000D02*
D03*
X5270000D02*
D03*
X5030000D02*
D03*
X5160000Y1330000D02*
D03*
X5400000D02*
D03*
X6590000Y1390000D02*
D03*
X6350000D02*
D03*
X6560000Y2400000D02*
D03*
X6320000D02*
D03*
X6560000Y2610000D02*
D03*
X6320000D02*
D03*
X6560000Y1980000D02*
D03*
X6320000D02*
D03*
X6560000Y2190000D02*
D03*
X6320000D02*
D03*
X6560000Y2830000D02*
D03*
X6320000D02*
D03*
X6560000Y1770000D02*
D03*
X6320000D02*
D03*
X6560000Y3860000D02*
D03*
X6320000D02*
D03*
X6560000Y4070000D02*
D03*
X6320000D02*
D03*
X6405000Y162500D02*
D03*
X6645000D02*
D03*
D29*
X7532499Y2000000D02*
D03*
X6807499D02*
D03*
X7532499Y2150000D02*
D03*
X6807499D02*
D03*
X7532499Y2300000D02*
D03*
X6807499D02*
D03*
X7532499Y2450000D02*
D03*
X6807499D02*
D03*
X7532499Y2600000D02*
D03*
X6807499D02*
D03*
X7532499Y2750000D02*
D03*
X6807499D02*
D03*
X7532499Y2900000D02*
D03*
X6807499D02*
D03*
X7532499Y3050000D02*
D03*
X6807499D02*
D03*
X7532499Y3200000D02*
D03*
X6807499D02*
D03*
X7532499Y3350000D02*
D03*
X6807499D02*
D03*
X7532499Y3500000D02*
D03*
X6807499D02*
D03*
X7532499Y3650000D02*
D03*
X6807499D02*
D03*
X7532499Y3800000D02*
D03*
X6807499D02*
D03*
X7532499Y3950000D02*
D03*
X6807499D02*
D03*
D30*
X7442499Y1790000D02*
D03*
Y4160000D02*
D03*
D31*
X6772500Y527500D02*
D03*
X5027500D02*
D03*
D32*
X6587500Y1043000D02*
D03*
Y457000D02*
D03*
X6462500Y1043000D02*
D03*
Y457000D02*
D03*
X6337500Y1043000D02*
D03*
Y457000D02*
D03*
X6212500Y1043000D02*
D03*
Y457000D02*
D03*
X6087500Y1043000D02*
D03*
Y457000D02*
D03*
X5962500Y1043000D02*
D03*
Y457000D02*
D03*
X5837500Y1043000D02*
D03*
Y457000D02*
D03*
X5712500Y1043000D02*
D03*
Y457000D02*
D03*
X5587500Y1043000D02*
D03*
Y457000D02*
D03*
X5462500Y1043000D02*
D03*
Y457000D02*
D03*
X5337500Y1043000D02*
D03*
Y457000D02*
D03*
X5212500Y1043000D02*
D03*
Y457000D02*
D03*
D33*
X2409999Y2245000D02*
D03*
Y2025000D02*
D03*
X2570000D02*
D03*
Y2245000D02*
D03*
D34*
X6257500Y3045000D02*
D03*
X6542499D02*
D03*
D35*
X1144999Y815000D02*
D03*
X1285000D02*
D03*
D36*
X3284974Y3300000D02*
D03*
X2864974D02*
D03*
D37*
X3100000Y3775000D02*
D03*
Y4175000D02*
D03*
X4745025Y3750000D02*
D03*
Y4150000D02*
D03*
D38*
X1349997Y1374981D02*
D03*
Y1424981D02*
D03*
Y1474981D02*
D03*
Y1524981D02*
D03*
Y1574981D02*
D03*
Y1624981D02*
D03*
Y1674981D02*
D03*
Y1724981D02*
D03*
Y1774981D02*
D03*
Y1824981D02*
D03*
Y1874981D02*
D03*
Y1924981D02*
D03*
Y1974981D02*
D03*
Y2024981D02*
D03*
Y2074981D02*
D03*
X1399997Y1374981D02*
D03*
Y1424981D02*
D03*
Y1474981D02*
D03*
Y1524981D02*
D03*
Y1574981D02*
D03*
Y1624981D02*
D03*
Y1674981D02*
D03*
Y1724981D02*
D03*
Y1774981D02*
D03*
Y1824981D02*
D03*
Y1874981D02*
D03*
Y1924981D02*
D03*
Y1974981D02*
D03*
Y2024981D02*
D03*
Y2074981D02*
D03*
X1449997Y1374981D02*
D03*
Y1424981D02*
D03*
Y2024981D02*
D03*
Y2074981D02*
D03*
X1499997Y1374981D02*
D03*
Y1424981D02*
D03*
Y2024981D02*
D03*
Y2074981D02*
D03*
X1549997Y1374981D02*
D03*
Y1424981D02*
D03*
Y2024981D02*
D03*
Y2074981D02*
D03*
X1599997Y1374981D02*
D03*
Y1424981D02*
D03*
Y1624981D02*
D03*
Y1674981D02*
D03*
Y1724981D02*
D03*
Y1774981D02*
D03*
Y1824981D02*
D03*
Y2024981D02*
D03*
Y2074981D02*
D03*
X1649997Y1374981D02*
D03*
Y1424981D02*
D03*
Y1624981D02*
D03*
Y1824981D02*
D03*
Y2024981D02*
D03*
Y2074981D02*
D03*
X1699997Y1374981D02*
D03*
Y1424981D02*
D03*
Y1624981D02*
D03*
Y1824981D02*
D03*
Y2024981D02*
D03*
Y2074981D02*
D03*
X1749997Y1374981D02*
D03*
Y1424981D02*
D03*
Y1624981D02*
D03*
Y1824981D02*
D03*
Y2024981D02*
D03*
Y2074981D02*
D03*
X1799997Y1374981D02*
D03*
Y1424981D02*
D03*
Y1624981D02*
D03*
Y1674981D02*
D03*
Y1724981D02*
D03*
Y1774981D02*
D03*
Y1824981D02*
D03*
Y2024981D02*
D03*
Y2074981D02*
D03*
X1849997Y1374981D02*
D03*
Y1424981D02*
D03*
Y2024981D02*
D03*
Y2074981D02*
D03*
X1899997Y1374981D02*
D03*
Y1424981D02*
D03*
Y2024981D02*
D03*
Y2074981D02*
D03*
X1949997Y1374981D02*
D03*
Y1424981D02*
D03*
Y2024981D02*
D03*
Y2074981D02*
D03*
X1999997Y1374981D02*
D03*
Y1424981D02*
D03*
Y1474981D02*
D03*
Y1524981D02*
D03*
Y1574981D02*
D03*
Y1624981D02*
D03*
Y1674981D02*
D03*
Y1724981D02*
D03*
Y1774981D02*
D03*
Y1824981D02*
D03*
Y1874981D02*
D03*
Y1924981D02*
D03*
Y1974981D02*
D03*
Y2024981D02*
D03*
Y2074981D02*
D03*
X2049997Y1374981D02*
D03*
Y1424981D02*
D03*
Y1474981D02*
D03*
Y1524981D02*
D03*
Y1574981D02*
D03*
Y1624981D02*
D03*
Y1674981D02*
D03*
Y1724981D02*
D03*
Y1774981D02*
D03*
Y1824981D02*
D03*
Y1874981D02*
D03*
Y1924981D02*
D03*
Y1974981D02*
D03*
Y2024981D02*
D03*
Y2074981D02*
D03*
D39*
X1025000Y250000D02*
D03*
X595000D02*
D03*
D40*
X4840000Y155000D02*
D03*
Y305000D02*
D03*
X1260000Y3995000D02*
D03*
Y4145000D02*
D03*
X1800000Y3895000D02*
D03*
Y4045000D02*
D03*
X580000Y3175000D02*
D03*
Y3025000D02*
D03*
X4870000Y1525000D02*
D03*
Y1675000D02*
D03*
X6040000Y1735000D02*
D03*
Y1585000D02*
D03*
X6190000Y3655000D02*
D03*
Y3505000D02*
D03*
X990000Y1820000D02*
D03*
Y1670000D02*
D03*
X5650000Y4015000D02*
D03*
Y4165000D02*
D03*
X4980000Y2395000D02*
D03*
Y2545000D02*
D03*
X7760000Y905000D02*
D03*
Y1055000D02*
D03*
D41*
X5015000Y1510000D02*
D03*
X5165000D02*
D03*
X2275000Y580000D02*
D03*
X2125000D02*
D03*
X2275000Y390000D02*
D03*
X2125000D02*
D03*
X4655736Y300000D02*
D03*
X4505736D02*
D03*
X4145000Y1760000D02*
D03*
X4295000D02*
D03*
X3585000D02*
D03*
X3435000D02*
D03*
X5895000Y1580000D02*
D03*
X5745000D02*
D03*
X1475000Y180000D02*
D03*
X1625000D02*
D03*
X3925000Y870000D02*
D03*
X3775000D02*
D03*
X5145000Y3790000D02*
D03*
X5295000D02*
D03*
X5705000Y2820000D02*
D03*
X5555000D02*
D03*
X5355000D02*
D03*
X5205000D02*
D03*
X6155000Y2550000D02*
D03*
X6005000D02*
D03*
X7325000Y250000D02*
D03*
X7475000D02*
D03*
X8075000Y1540000D02*
D03*
X7925000D02*
D03*
X7625000D02*
D03*
X7775000D02*
D03*
D42*
X2480000Y3512500D02*
D03*
Y4127500D02*
D03*
X714975Y3492500D02*
D03*
Y4107500D02*
D03*
D43*
X2050000Y4160000D02*
D03*
Y3840000D02*
D03*
X284949Y3810000D02*
D03*
Y3490000D02*
D03*
D44*
X1120000Y1685000D02*
D03*
Y1785000D02*
D03*
X2270000Y2185000D02*
D03*
Y2285000D02*
D03*
Y2085000D02*
D03*
Y1985000D02*
D03*
D45*
X1265000Y970000D02*
D03*
X1364999D02*
D03*
X1164974D02*
D03*
X1064974D02*
D03*
D46*
X7503033Y1276967D02*
D03*
X7396967Y1383033D02*
D03*
D47*
X7817500Y2235000D02*
D03*
Y2045000D02*
D03*
X8042500Y2140000D02*
D03*
D48*
X8040000Y3800000D02*
D03*
Y3560000D02*
D03*
X7830000Y3800000D02*
D03*
Y3560000D02*
D03*
X6540000Y3670000D02*
D03*
Y3430000D02*
D03*
X6050000Y3195000D02*
D03*
Y2955000D02*
D03*
X2510000Y610000D02*
D03*
Y850000D02*
D03*
X2720000D02*
D03*
Y610000D02*
D03*
X2510000Y420000D02*
D03*
Y180000D02*
D03*
X2720000D02*
D03*
Y420000D02*
D03*
D49*
X4836000Y1340000D02*
D03*
X4984000D02*
D03*
X6544000Y1580026D02*
D03*
X6396000D02*
D03*
X6006000Y2710000D02*
D03*
X6154000D02*
D03*
D50*
X5580000Y1341000D02*
D03*
Y1489000D02*
D03*
X6350000Y3506000D02*
D03*
Y3654000D02*
D03*
D51*
X7870000Y1810000D02*
D03*
Y1910000D02*
D03*
X8000000Y1810000D02*
D03*
Y1910000D02*
D03*
D52*
X5192500Y1845000D02*
D03*
Y1655000D02*
D03*
X5427500Y1750000D02*
D03*
D53*
X6315000Y4250000D02*
D03*
X6465000D02*
D03*
X2175000Y725000D02*
D03*
X2325000D02*
D03*
X2175000Y245000D02*
D03*
X2325000D02*
D03*
X4645736Y450000D02*
D03*
X4495736D02*
D03*
X4495000Y159974D02*
D03*
X4645000D02*
D03*
X3125000Y1890000D02*
D03*
X2975000D02*
D03*
X3235000Y1420000D02*
D03*
X3085000D02*
D03*
X3205000Y1570000D02*
D03*
X3355000D02*
D03*
X1625000Y330000D02*
D03*
X1475000D02*
D03*
X1185000Y180000D02*
D03*
X1335000D02*
D03*
X3235000Y1280000D02*
D03*
X3085000D02*
D03*
X5435000Y3510000D02*
D03*
X5585000D02*
D03*
X5305000Y3930000D02*
D03*
X5155000D02*
D03*
X4880000Y2210000D02*
D03*
X5030000D02*
D03*
X5585000Y2400000D02*
D03*
X5735000D02*
D03*
X5795000Y2260000D02*
D03*
X5645000D02*
D03*
X6075000Y2310000D02*
D03*
X5925000D02*
D03*
X7035000Y1340000D02*
D03*
X7185000D02*
D03*
X7805000Y1680000D02*
D03*
X7955000D02*
D03*
D54*
X2412500Y3100000D02*
D03*
X2587500D02*
D03*
D55*
X2100000Y3407500D02*
D03*
Y3232500D02*
D03*
X760000Y3012500D02*
D03*
Y3187500D02*
D03*
D56*
X3030000Y565000D02*
D03*
Y715000D02*
D03*
X2890000Y715000D02*
D03*
Y565000D02*
D03*
X3050000Y315000D02*
D03*
Y165000D02*
D03*
X2890000Y165000D02*
D03*
Y315000D02*
D03*
X4560000Y1515000D02*
D03*
Y1665000D02*
D03*
X5020000Y1675000D02*
D03*
Y1825000D02*
D03*
X5600000Y1635000D02*
D03*
Y1785000D02*
D03*
X1640025Y560000D02*
D03*
Y710000D02*
D03*
X1500000Y710000D02*
D03*
Y560000D02*
D03*
X5920000Y3715000D02*
D03*
Y3865000D02*
D03*
X5790000Y4155000D02*
D03*
Y4005000D02*
D03*
X5510000Y4155000D02*
D03*
Y4005000D02*
D03*
X5650000Y2685000D02*
D03*
Y2535000D02*
D03*
X7030000Y1045000D02*
D03*
Y1195000D02*
D03*
D57*
X1599974Y972000D02*
D03*
Y1068000D02*
D03*
X1699999D02*
D03*
Y972000D02*
D03*
X1799999Y1068000D02*
D03*
Y972000D02*
D03*
X1640075Y2372000D02*
D03*
Y2468000D02*
D03*
X1540050Y2372000D02*
D03*
Y2468000D02*
D03*
X1440025Y2372000D02*
D03*
Y2468000D02*
D03*
X1340000D02*
D03*
Y2372000D02*
D03*
X1240000Y2468000D02*
D03*
Y2372000D02*
D03*
X1499949Y972000D02*
D03*
Y1068000D02*
D03*
X1740100Y2372000D02*
D03*
Y2468000D02*
D03*
X1840126D02*
D03*
Y2372000D02*
D03*
D58*
X2312000Y1050000D02*
D03*
X2408000D02*
D03*
X2408000Y1800101D02*
D03*
X2312000D02*
D03*
X2312000Y1140000D02*
D03*
X2408000D02*
D03*
X2312000Y1240000D02*
D03*
X2408000D02*
D03*
X1042999Y2275000D02*
D03*
X947000D02*
D03*
X1042999Y2175000D02*
D03*
X947000D02*
D03*
X2312000Y1340000D02*
D03*
X2408000D02*
D03*
X2312000Y1440000D02*
D03*
X2408000D02*
D03*
X947000Y2075000D02*
D03*
X1042999D02*
D03*
X947000Y1974975D02*
D03*
X1042999D02*
D03*
D59*
X4122500Y1049500D02*
D03*
Y1176500D02*
D03*
Y1303500D02*
D03*
Y1430500D02*
D03*
X3577500Y1049500D02*
D03*
Y1176500D02*
D03*
Y1303500D02*
D03*
Y1430500D02*
D03*
D60*
X5479997Y3857505D02*
D03*
Y3792505D02*
D03*
Y3727505D02*
D03*
X5739997D02*
D03*
Y3792505D02*
D03*
Y3857505D02*
D03*
X5479997Y3662505D02*
D03*
X5739997D02*
D03*
D61*
X5222500Y2256250D02*
D03*
X5287500D02*
D03*
X5352500D02*
D03*
X5417500D02*
D03*
X5222500Y2643750D02*
D03*
X5287500D02*
D03*
X5352500D02*
D03*
X5417500D02*
D03*
D72*
X250000Y2385000D02*
D03*
Y2131000D02*
D03*
D73*
Y2639000D02*
D03*
D74*
X249993Y599997D02*
D03*
X7949997D02*
D03*
Y2549998D02*
D03*
X269993Y3099997D02*
D03*
%TF.MD5,a68c33b454a16ee92db5e966180bb075*%
M02*
