%TF.GenerationSoftware,Altium Limited,Altium Designer,22.6.1 (34)*%
G04 Layer_Color=32896*
%FSLAX45Y45*%
%MOMM*%
%TF.SameCoordinates,07F994AE-BB1C-4BEA-A643-928B9DFDCC76*%
%TF.FilePolarity,Positive*%
%TF.FileFunction,Other,Mechanical_12*%
%TF.Part,Single*%
G01*
G75*
%TA.AperFunction,NonConductor*%
%ADD174C,0.01000*%
D174*
X3625000Y2745000D02*
X4075000D01*
X3625000Y2055000D02*
Y2745000D01*
Y2055000D02*
X4075000D01*
Y2745000D01*
X3335000Y1991000D02*
X3415000D01*
X3335000Y1964000D02*
Y1991000D01*
Y1964000D02*
X3415000D01*
Y1991000D01*
X3335000Y2056000D02*
X3415000D01*
X3335000Y2029000D02*
Y2056000D01*
Y2029000D02*
X3415000D01*
Y2056000D01*
X3335000Y2121000D02*
X3415000D01*
X3335000Y2094000D02*
Y2121000D01*
Y2094000D02*
X3415000D01*
Y2121000D01*
X3335000Y2186000D02*
X3415000D01*
X3335000Y2159000D02*
Y2186000D01*
Y2159000D02*
X3415000D01*
Y2186000D01*
X3335000Y2251000D02*
X3415000D01*
X3335000Y2224000D02*
Y2251000D01*
Y2224000D02*
X3415000D01*
Y2251000D01*
X3335000Y2316000D02*
X3415000D01*
X3335000Y2289000D02*
Y2316000D01*
Y2289000D02*
X3415000D01*
Y2316000D01*
X3335000Y2381000D02*
X3415000D01*
X3335000Y2354000D02*
Y2381000D01*
Y2354000D02*
X3415000D01*
Y2381000D01*
X3335000Y2446000D02*
X3415000D01*
X3335000Y2419000D02*
Y2446000D01*
Y2419000D02*
X3415000D01*
Y2446000D01*
X3335000Y2511000D02*
X3415000D01*
X3335000Y2484000D02*
Y2511000D01*
Y2484000D02*
X3415000D01*
Y2511000D01*
X3335000Y2576000D02*
X3415000D01*
X3335000Y2549000D02*
Y2576000D01*
Y2549000D02*
X3415000D01*
Y2576000D01*
X3335000Y2641000D02*
X3415000D01*
X3335000Y2614000D02*
Y2641000D01*
Y2614000D02*
X3415000D01*
Y2641000D01*
X3335000Y2706000D02*
X3415000D01*
X3335000Y2679000D02*
Y2706000D01*
Y2679000D02*
X3415000D01*
Y2706000D01*
X3335000Y2771000D02*
X3415000D01*
X3335000Y2744000D02*
Y2771000D01*
Y2744000D02*
X3415000D01*
Y2771000D01*
X3335000Y2836000D02*
X3415000D01*
X3335000Y2809000D02*
Y2836000D01*
Y2809000D02*
X3415000D01*
Y2836000D01*
X4285000Y2809000D02*
X4365000D01*
Y2836000D01*
X4285000D02*
X4365000D01*
X4285000Y2809000D02*
Y2836000D01*
Y2744000D02*
X4365000D01*
Y2771000D01*
X4285000D02*
X4365000D01*
X4285000Y2744000D02*
Y2771000D01*
Y2679000D02*
X4365000D01*
Y2706000D01*
X4285000D02*
X4365000D01*
X4285000Y2679000D02*
Y2706000D01*
Y2614000D02*
X4365000D01*
Y2641000D01*
X4285000D02*
X4365000D01*
X4285000Y2614000D02*
Y2641000D01*
Y2549000D02*
X4365000D01*
Y2576000D01*
X4285000D02*
X4365000D01*
X4285000Y2549000D02*
Y2576000D01*
Y2484000D02*
X4365000D01*
Y2511000D01*
X4285000D02*
X4365000D01*
X4285000Y2484000D02*
Y2511000D01*
Y2419000D02*
X4365000D01*
Y2446000D01*
X4285000D02*
X4365000D01*
X4285000Y2419000D02*
Y2446000D01*
Y2354000D02*
X4365000D01*
Y2381000D01*
X4285000D02*
X4365000D01*
X4285000Y2354000D02*
Y2381000D01*
Y2289000D02*
X4365000D01*
Y2316000D01*
X4285000D02*
X4365000D01*
X4285000Y2289000D02*
Y2316000D01*
Y2224000D02*
X4365000D01*
Y2251000D01*
X4285000D02*
X4365000D01*
X4285000Y2224000D02*
Y2251000D01*
Y2159000D02*
X4365000D01*
Y2186000D01*
X4285000D02*
X4365000D01*
X4285000Y2159000D02*
Y2186000D01*
Y2094000D02*
X4365000D01*
Y2121000D01*
X4285000D02*
X4365000D01*
X4285000Y2094000D02*
Y2121000D01*
Y2029000D02*
X4365000D01*
Y2056000D01*
X4285000D02*
X4365000D01*
X4285000Y2029000D02*
Y2056000D01*
Y1964000D02*
X4365000D01*
Y1991000D01*
X4285000D02*
X4365000D01*
X4285000Y1964000D02*
Y1991000D01*
%TF.MD5,b1cb6816aed5ed43165f302a82610553*%
M02*
