%TF.GenerationSoftware,Altium Limited,Altium Designer,22.6.1 (34)*%
G04 Layer_Color=16711833*
%FSLAX45Y45*%
%MOMM*%
%TF.SameCoordinates,07F994AE-BB1C-4BEA-A643-928B9DFDCC76*%
%TF.FilePolarity,Positive*%
%TF.FileFunction,Other,Bottom_Courtyard*%
%TF.Part,Single*%
G01*
G75*
%TA.AperFunction,NonConductor*%
%ADD164C,0.10000*%
D164*
X1145711Y3165000D02*
G03*
X1145711Y3165000I-70711J0D01*
G01*
X3637474Y2690000D02*
X4017474D01*
X3827474Y2300000D02*
Y2400000D01*
X3777474Y2350000D02*
X3877474D01*
X4017474Y2010000D02*
Y2690000D01*
X3637474Y2010000D02*
Y2690000D01*
Y2010000D02*
X4017474D01*
X5805000Y1650000D02*
X6195000D01*
X5805000Y2250000D02*
X6195000D01*
Y1650000D02*
Y2250000D01*
X5805000Y1650000D02*
Y2250000D01*
X6000000Y1900000D02*
Y2000000D01*
X5950000Y1950000D02*
X6050000D01*
X7619998Y1375000D02*
X7719998D01*
X7489998Y1135000D02*
Y1615000D01*
X7849998Y1135000D02*
Y1615000D01*
X7489998D02*
X7849998D01*
X7489998Y1135000D02*
X7849998D01*
X7669998Y1325000D02*
Y1425000D01*
X595005Y899921D02*
X1055005D01*
Y519922D02*
Y899921D01*
X595005Y519922D02*
Y899921D01*
Y519922D02*
X1055005D01*
X775005Y709922D02*
X875005D01*
X825005Y659922D02*
Y759922D01*
X1485024Y3425000D02*
Y3525000D01*
X1435024Y3475000D02*
X1535024D01*
X1245024Y3665000D02*
X1725023D01*
X1245024Y3285000D02*
X1725023D01*
Y3665000D01*
X1245024Y3285000D02*
Y3665000D01*
X5650000Y2500000D02*
Y2840000D01*
X6090000Y2500000D02*
Y2840000D01*
X5650000Y2500000D02*
X6090000D01*
X5650000Y2840000D02*
X6090000D01*
X5820000Y2670000D02*
X5920000D01*
X5870000Y2620000D02*
Y2720000D01*
X6800000Y3595000D02*
X7240000D01*
X7020000Y3375000D02*
Y3475000D01*
X6970000Y3425000D02*
X7070000D01*
X7240000Y3255000D02*
Y3595000D01*
X6800000Y3255000D02*
Y3595000D01*
Y3255000D02*
X7240000D01*
X450000Y1530000D02*
X549999D01*
X500000Y1480000D02*
Y1580000D01*
X49999Y1160000D02*
X950000D01*
X49999D02*
Y1900000D01*
X950000D01*
Y1160000D02*
Y1900000D01*
X1910000Y2840000D02*
X2010000D01*
X1960000Y2790000D02*
Y2890000D01*
X2050000Y2670000D02*
Y3010000D01*
X1870000Y2670000D02*
Y3010000D01*
Y2670000D02*
X2050000D01*
X1870000Y3010000D02*
X2050000D01*
X3060000Y1405000D02*
Y1495000D01*
X3015000Y1450000D02*
X3105000D01*
X2920000Y1380000D02*
X3200000D01*
X2920000Y1520000D02*
X3200000D01*
X2920000Y1380000D02*
Y1520000D01*
X3200000Y1380000D02*
Y1520000D01*
X944999Y1360000D02*
Y1460000D01*
X1154999Y1360000D02*
Y1460000D01*
X944999Y1360000D02*
X1154999D01*
X944999Y1460000D02*
X1154999D01*
X1019999Y1410000D02*
X1079999D01*
X1049999Y1380000D02*
Y1440000D01*
X1890024Y1232419D02*
Y1327419D01*
X1842524Y1279919D02*
X1937524D01*
X1735024Y1364919D02*
X2045024D01*
X1735024Y1194919D02*
X2045024D01*
Y1364919D01*
X1735024Y1194919D02*
Y1364919D01*
X6772499Y3430000D02*
Y3550000D01*
X6562499Y3430000D02*
Y3550000D01*
X6772499D01*
X6562499Y3430000D02*
X6772499D01*
X6637499Y3490000D02*
X6697499D01*
X6667499Y3460000D02*
Y3520000D01*
X3670000Y2890000D02*
X4200000D01*
X3670000Y3930000D02*
X4200000D01*
Y2890000D02*
Y3930000D01*
X3670000Y2890000D02*
Y3930000D01*
X3930000Y3360000D02*
Y3460000D01*
X3880000Y3410000D02*
X3980000D01*
X4749999Y3300000D02*
X4849999D01*
X4799999Y3250000D02*
Y3350000D01*
X4959999Y3040000D02*
Y3560000D01*
X4639999Y3040000D02*
Y3560000D01*
Y3040000D02*
X4959999D01*
X4639999Y3560000D02*
X4959999D01*
X7639998Y834975D02*
Y1134975D01*
X7664998Y984975D02*
X7754998D01*
X7709998Y939975D02*
Y1029975D01*
X7779998Y834975D02*
Y1134975D01*
X7639998Y834975D02*
X7779998D01*
X7639998Y1134975D02*
X7779998D01*
X1694998Y1775000D02*
Y1975000D01*
X1644998Y1847500D02*
Y1902500D01*
X1617499Y1875000D02*
X1672499D01*
X1594999Y1775000D02*
X1694998D01*
X1594999Y1975000D02*
X1694998D01*
X1594999Y1775000D02*
Y1975000D01*
X5450000Y92500D02*
X5750000D01*
X5600000Y117500D02*
Y207500D01*
X5555000Y162500D02*
X5645000D01*
X5450000Y232500D02*
X5750000D01*
Y92500D02*
Y232500D01*
X5450000Y92500D02*
Y232500D01*
X5030000Y837500D02*
X5170000D01*
X5030000Y1137500D02*
X5170000D01*
X5030000Y837500D02*
Y1137500D01*
X5100000Y942500D02*
Y1032500D01*
X5055000Y987500D02*
X5145000D01*
X5170000Y837500D02*
Y1137500D01*
X5649999Y450000D02*
Y750000D01*
X5674999Y600000D02*
X5764999D01*
X5719999Y555000D02*
Y645000D01*
X5789999Y450000D02*
Y750000D01*
X5649999Y450000D02*
X5789999D01*
X5649999Y750000D02*
X5789999D01*
X5607524Y812500D02*
Y1112500D01*
X5492524Y962500D02*
X5582524D01*
X5537524Y917500D02*
Y1007500D01*
X5467524Y812500D02*
Y1112500D01*
X5607524D01*
X5467524Y812500D02*
X5607524D01*
X5817575D02*
Y1112500D01*
X5842576Y962500D02*
X5932575D01*
X5887575Y917500D02*
Y1007500D01*
X5957576Y812500D02*
Y1112500D01*
X5817575Y812500D02*
X5957576D01*
X5817575Y1112500D02*
X5957576D01*
X6410000Y1380000D02*
X6710000D01*
X6560000Y1265000D02*
Y1355000D01*
X6515000Y1310000D02*
X6605000D01*
X6410000Y1240000D02*
X6710000D01*
X6410000D02*
Y1380000D01*
X6710000Y1240000D02*
Y1380000D01*
X6109999Y1240000D02*
X6409999D01*
X6259999Y1265000D02*
Y1355000D01*
X6214999Y1310000D02*
X6304999D01*
X6109999Y1380000D02*
X6409999D01*
Y1240000D02*
Y1380000D01*
X6109999Y1240000D02*
Y1380000D01*
X6442499Y812500D02*
Y1112500D01*
X6467499Y962500D02*
X6557499D01*
X6512499Y917500D02*
Y1007500D01*
X6582499Y812500D02*
Y1112500D01*
X6442499Y812500D02*
X6582499D01*
X6442499Y1112500D02*
X6582499D01*
X6375000Y92500D02*
X6675000D01*
X6525000Y117500D02*
Y207500D01*
X6480000Y162500D02*
X6570000D01*
X6375000Y232500D02*
X6675000D01*
Y92500D02*
Y232500D01*
X6375000Y92500D02*
Y232500D01*
X6695000Y2507500D02*
X6995000D01*
X6845000Y2392500D02*
Y2482500D01*
X6800000Y2437500D02*
X6890000D01*
X6695000Y2367500D02*
X6995000D01*
X6695000D02*
Y2507500D01*
X6995000Y2367500D02*
Y2507500D01*
X6707499Y2820000D02*
X7007499D01*
X6857499Y2705000D02*
Y2795000D01*
X6812499Y2750000D02*
X6902499D01*
X6707499Y2680000D02*
X7007499D01*
X6707499D02*
Y2820000D01*
X7007499Y2680000D02*
Y2820000D01*
X6695000Y2207500D02*
X6995000D01*
X6845000Y2092500D02*
Y2182500D01*
X6800000Y2137500D02*
X6890000D01*
X6695000Y2067500D02*
X6995000D01*
X6695000D02*
Y2207500D01*
X6995000Y2067500D02*
Y2207500D01*
X7184974Y3244949D02*
X7324974D01*
X7184974Y2944949D02*
X7324974D01*
Y3244949D01*
X7254974Y3049949D02*
Y3139949D01*
X7209974Y3094949D02*
X7299974D01*
X7184974Y2944949D02*
Y3244949D01*
X6695000Y2357500D02*
X6995000D01*
X6845000Y2242500D02*
Y2332500D01*
X6800000Y2287500D02*
X6890000D01*
X6695000Y2217500D02*
X6995000D01*
X6695000D02*
Y2357500D01*
X6995000Y2217500D02*
Y2357500D01*
X7287499Y1725000D02*
Y2025000D01*
X7312499Y1875000D02*
X7402499D01*
X7357499Y1830000D02*
Y1920000D01*
X7427499Y1725000D02*
Y2025000D01*
X7287499Y1725000D02*
X7427499D01*
X7287499Y2025000D02*
X7427499D01*
X6707499Y2970000D02*
X7007499D01*
X6857499Y2855000D02*
Y2945000D01*
X6812499Y2900000D02*
X6902499D01*
X6707499Y2830000D02*
X7007499D01*
X6707499D02*
Y2970000D01*
X7007499Y2830000D02*
Y2970000D01*
X6695000Y2057500D02*
X6995000D01*
X6845000Y1942500D02*
Y2032500D01*
X6800000Y1987500D02*
X6890000D01*
X6695000Y1917500D02*
X6995000D01*
X6695000D02*
Y2057500D01*
X6995000Y1917500D02*
Y2057500D01*
X7979999Y3480000D02*
Y3780000D01*
X8004999Y3630000D02*
X8094999D01*
X8049999Y3585000D02*
Y3675000D01*
X8119999Y3480000D02*
Y3780000D01*
X7979999Y3480000D02*
X8119999D01*
X7979999Y3780000D02*
X8119999D01*
X7325000Y2384924D02*
X7624999D01*
X7475000Y2269924D02*
Y2359923D01*
X7430000Y2314923D02*
X7519999D01*
X7325000Y2244923D02*
X7624999D01*
X7325000D02*
Y2384924D01*
X7624999Y2244923D02*
Y2384924D01*
X7325000Y3244949D02*
X7624999D01*
X7475000Y3129949D02*
Y3219949D01*
X7430000Y3174949D02*
X7519999D01*
X7325000Y3104949D02*
X7624999D01*
X7325000D02*
Y3244949D01*
X7624999Y3104949D02*
Y3244949D01*
X6707499Y3817500D02*
X7007499D01*
X6857499Y3842500D02*
Y3932500D01*
X6812499Y3887500D02*
X6902499D01*
X6707499Y3957500D02*
X7007499D01*
Y3817500D02*
Y3957500D01*
X6707499Y3817500D02*
Y3957500D01*
X7760000Y3780000D02*
X7900000D01*
X7760000Y3480000D02*
X7900000D01*
Y3780000D01*
X7830000Y3585000D02*
Y3675000D01*
X7785000Y3630000D02*
X7875000D01*
X7760000Y3480000D02*
Y3780000D01*
X7100000Y2712500D02*
X7240000D01*
X7100000Y2412500D02*
X7240000D01*
Y2712500D01*
X7170000Y2517500D02*
Y2607500D01*
X7125000Y2562500D02*
X7215000D01*
X7100000Y2412500D02*
Y2712500D01*
X6707499Y3642500D02*
X7007499D01*
X6857499Y3667500D02*
Y3757500D01*
X6812499Y3712500D02*
X6902499D01*
X6707499Y3782500D02*
X7007499D01*
Y3642500D02*
Y3782500D01*
X6707499Y3642500D02*
Y3782500D01*
Y3980000D02*
X7007499D01*
X6857499Y4005000D02*
Y4095000D01*
X6812499Y4050000D02*
X6902499D01*
X6707499Y4120000D02*
X7007499D01*
Y3980000D02*
Y4120000D01*
X6707499Y3980000D02*
Y4120000D01*
X7639999Y3450000D02*
Y3750000D01*
X7524999Y3600000D02*
X7614999D01*
X7569999Y3555000D02*
Y3645000D01*
X7499999Y3450000D02*
Y3750000D01*
X7639999D01*
X7499999Y3450000D02*
X7639999D01*
X2439999Y3205000D02*
X2969999D01*
X2439999Y4245000D02*
X2969999D01*
Y3205000D02*
Y4245000D01*
X2439999Y3205000D02*
Y4245000D01*
X2699999Y3675000D02*
Y3775000D01*
X2650000Y3725000D02*
X2749999D01*
X1154998Y3975000D02*
Y4275000D01*
X1179999Y4125000D02*
X1269998D01*
X1224999Y4080000D02*
Y4170000D01*
X1294999Y3975000D02*
Y4275000D01*
X1154998Y3975000D02*
X1294999D01*
X1154998Y4275000D02*
X1294999D01*
X6775024Y505000D02*
X6875023D01*
X6825023Y455000D02*
Y555000D01*
X6665023Y245000D02*
Y765000D01*
X6985023Y245000D02*
Y765000D01*
X6665023D02*
X6985023D01*
X6665023Y245000D02*
X6985023D01*
X6990049Y365000D02*
Y665000D01*
X7015049Y515000D02*
X7105049D01*
X7060049Y470000D02*
Y560000D01*
X7130049Y365000D02*
Y665000D01*
X6990049Y365000D02*
X7130049D01*
X6990049Y665000D02*
X7130049D01*
X7099998Y865025D02*
X7399998D01*
X7249998Y750025D02*
Y840025D01*
X7204999Y795025D02*
X7294998D01*
X7099998Y725025D02*
X7399998D01*
X7099998D02*
Y865025D01*
X7399998Y725025D02*
Y865025D01*
X1885075Y3205000D02*
X2415075D01*
X1885075Y4245000D02*
X2415075D01*
Y3205000D02*
Y4245000D01*
X1885075Y3205000D02*
Y4245000D01*
X2145075Y3675000D02*
Y3775000D01*
X2095075Y3725000D02*
X2195075D01*
X1735049Y3325000D02*
Y3625000D01*
X1760049Y3475000D02*
X1850049D01*
X1805049Y3430000D02*
Y3520000D01*
X1875049Y3325000D02*
Y3625000D01*
X1735049Y3325000D02*
X1875049D01*
X1735049Y3625000D02*
X1875049D01*
X2039999Y315026D02*
X2339999D01*
X2189999Y340026D02*
Y430026D01*
X2144999Y385026D02*
X2234999D01*
X2039999Y455026D02*
X2339999D01*
Y315026D02*
Y455026D01*
X2039999Y315026D02*
Y455026D01*
Y530000D02*
X2339999D01*
X2189999Y555000D02*
Y645000D01*
X2144999Y600000D02*
X2234999D01*
X2039999Y670000D02*
X2339999D01*
Y530000D02*
Y670000D01*
X2039999Y530000D02*
Y670000D01*
X5030000Y100000D02*
X5170000D01*
X5030000Y400000D02*
X5170000D01*
X5030000Y100000D02*
Y400000D01*
X5100000Y205000D02*
Y295000D01*
X5055000Y250000D02*
X5145000D01*
X5170000Y100000D02*
Y400000D01*
X4862500Y692500D02*
X5162500D01*
X5012500Y717500D02*
Y807500D01*
X4967500Y762500D02*
X5057500D01*
X4862500Y832500D02*
X5162500D01*
Y692500D02*
Y832500D01*
X4862500Y692500D02*
Y832500D01*
X3240000Y760000D02*
X3540000D01*
X3390000Y785000D02*
Y875000D01*
X3345000Y830000D02*
X3435000D01*
X3240000Y900000D02*
X3540000D01*
Y760000D02*
Y900000D01*
X3240000Y760000D02*
Y900000D01*
X3589999Y1660000D02*
X3730000D01*
X3589999Y1360000D02*
X3730000D01*
Y1660000D01*
X3660000Y1465000D02*
Y1555000D01*
X3615000Y1510000D02*
X3704999D01*
X3589999Y1360000D02*
Y1660000D01*
Y1060000D02*
X3730000D01*
X3589999Y1360000D02*
X3730000D01*
X3589999Y1060000D02*
Y1360000D01*
X3660000Y1165000D02*
Y1255000D01*
X3615000Y1210000D02*
X3704999D01*
X3730000Y1060000D02*
Y1360000D01*
X3590000Y760000D02*
Y1060000D01*
X3615000Y910000D02*
X3705000D01*
X3660000Y865000D02*
Y955000D01*
X3730000Y760000D02*
Y1060000D01*
X3590000Y760000D02*
X3730000D01*
X3590000Y1060000D02*
X3730000D01*
X3730076Y1370000D02*
X4030076D01*
X3880076Y1255000D02*
Y1345000D01*
X3835076Y1300000D02*
X3925075D01*
X3730076Y1230000D02*
X4030076D01*
X3730076D02*
Y1370000D01*
X4030076Y1230000D02*
Y1370000D01*
X3730000Y940000D02*
X4030000D01*
X3880000Y825000D02*
Y915000D01*
X3835000Y870000D02*
X3925000D01*
X3730000Y800000D02*
X4030000D01*
X3730000D02*
Y940000D01*
X4030000Y800000D02*
Y940000D01*
X2982525Y2825052D02*
Y3125052D01*
X3007526Y2975052D02*
X3097525D01*
X3052526Y2930052D02*
Y3020052D01*
X3122526Y2825052D02*
Y3125052D01*
X2982525Y2825052D02*
X3122526D01*
X2982525Y3125052D02*
X3122526D01*
X2842500Y2825052D02*
X2982501D01*
X2842500Y3125052D02*
X2982501D01*
X2842500Y2825052D02*
Y3125052D01*
X2912500Y2930052D02*
Y3020052D01*
X2867500Y2975052D02*
X2957500D01*
X2982501Y2825052D02*
Y3125052D01*
X3480000Y2980000D02*
Y3120000D01*
X3180000Y2980000D02*
Y3120000D01*
Y2980000D02*
X3480000D01*
X3285000Y3050000D02*
X3375000D01*
X3330000Y3005000D02*
Y3095000D01*
X3180000Y3120000D02*
X3480000D01*
X7437500Y1887500D02*
X7577500D01*
X7437500Y2187500D02*
X7577500D01*
X7437500Y1887500D02*
Y2187500D01*
X7507500Y1992500D02*
Y2082500D01*
X7462500Y2037500D02*
X7552500D01*
X7577500Y1887500D02*
Y2187500D01*
X6270000Y2644975D02*
X6570000D01*
X6420000Y2669975D02*
Y2759975D01*
X6375000Y2714975D02*
X6465000D01*
X6270000Y2784975D02*
X6570000D01*
Y2644975D02*
Y2784975D01*
X6270000Y2644975D02*
Y2784975D01*
X7062500Y1725000D02*
X7202500D01*
X7062500Y2025000D02*
X7202500D01*
X7062500Y1725000D02*
Y2025000D01*
X7132500Y1830000D02*
Y1920000D01*
X7087500Y1875000D02*
X7177500D01*
X7202500Y1725000D02*
Y2025000D01*
X6277475Y2960000D02*
X6417475D01*
X6277475Y3260000D02*
X6417475D01*
X6277475Y2960000D02*
Y3260000D01*
X6347475Y3065000D02*
Y3155000D01*
X6302475Y3110000D02*
X6392475D01*
X6417475Y2960000D02*
Y3260000D01*
X1240000Y1710000D02*
Y1910000D01*
X1140000Y1710000D02*
X1240000D01*
X1140000Y1910000D02*
X1240000D01*
X1162500Y1810000D02*
X1217500D01*
X1190000Y1782500D02*
Y1837500D01*
X1140000Y1710000D02*
Y1910000D01*
X1735046Y1364944D02*
Y1564945D01*
X1785045Y1437445D02*
Y1492445D01*
X1757545Y1464944D02*
X1812545D01*
X1735046Y1564945D02*
X1835045D01*
X1735046Y1364944D02*
X1835045D01*
Y1564945D01*
X1534999Y1465000D02*
X1735000D01*
X1607499Y1515000D02*
X1662499D01*
X1635000Y1487500D02*
Y1542500D01*
X1534999Y1465000D02*
Y1565000D01*
X1735000Y1465000D02*
Y1565000D01*
X1534999D02*
X1735000D01*
X1434998Y1465000D02*
X1734998D01*
X1584998Y1350000D02*
Y1440000D01*
X1539998Y1395000D02*
X1629998D01*
X1434998Y1325000D02*
X1734998D01*
X1434998D02*
Y1465000D01*
X1734998Y1325000D02*
Y1465000D01*
X1755000Y1565000D02*
X1955000D01*
X1827500Y1615000D02*
X1882499D01*
X1855000Y1587500D02*
Y1642500D01*
X1755000Y1565000D02*
Y1665000D01*
X1955000Y1565000D02*
Y1665000D01*
X1755000D02*
X1955000D01*
X1755000Y1675000D02*
X1955000D01*
X1827500Y1725000D02*
X1882499D01*
X1855000Y1697500D02*
Y1752500D01*
X1755000Y1675000D02*
Y1775000D01*
X1955000Y1675000D02*
Y1775000D01*
X1755000D02*
X1955000D01*
X1955025Y1734975D02*
X2095025D01*
X1955025Y1434975D02*
X2095025D01*
Y1734975D01*
X2025025Y1539975D02*
Y1629975D01*
X1980025Y1584975D02*
X2070025D01*
X1955025Y1434975D02*
Y1734975D01*
X1914998Y1775000D02*
Y1975000D01*
X1864999Y1847500D02*
Y1902500D01*
X1837499Y1875000D02*
X1892499D01*
X1814999Y1775000D02*
X1914998D01*
X1814999Y1975000D02*
X1914998D01*
X1814999Y1775000D02*
Y1975000D01*
X1705000Y1775000D02*
Y1975000D01*
X1804999D01*
X1705000Y1775000D02*
X1804999D01*
X1727500Y1875000D02*
X1782500D01*
X1755000Y1847500D02*
Y1902500D01*
X1804999Y1775000D02*
Y1975000D01*
X1449999Y1665000D02*
X1649999D01*
X1522500Y1615000D02*
X1577500D01*
X1549999Y1587501D02*
Y1642500D01*
X1649999Y1565000D02*
Y1665000D01*
X1449999Y1565000D02*
Y1665000D01*
Y1565000D02*
X1649999D01*
X1449999Y1775000D02*
X1649999D01*
X1522500Y1725000D02*
X1577500D01*
X1549999Y1697500D02*
Y1752500D01*
X1649999Y1675000D02*
Y1775000D01*
X1449999Y1675000D02*
Y1775000D01*
Y1675000D02*
X1649999D01*
X1915024Y1785000D02*
Y2085000D01*
X1940024Y1935000D02*
X2030024D01*
X1985024Y1890000D02*
Y1980000D01*
X2055024Y1785000D02*
Y2085000D01*
X1915024Y1785000D02*
X2055024D01*
X1915024Y2085000D02*
X2055024D01*
X599999Y1045000D02*
X899999D01*
X749999Y930000D02*
Y1020000D01*
X704999Y975000D02*
X794999D01*
X599999Y905000D02*
X899999D01*
X599999D02*
Y1045000D01*
X899999Y905000D02*
Y1045000D01*
X949999Y1700000D02*
X1249999D01*
X1099999Y1585000D02*
Y1675000D01*
X1054999Y1630000D02*
X1144999D01*
X949999Y1560000D02*
X1249999D01*
X949999D02*
Y1700000D01*
X1249999Y1560000D02*
Y1700000D01*
X589999Y235000D02*
X889999D01*
X739999Y260000D02*
Y350000D01*
X694999Y305000D02*
X784999D01*
X589999Y375000D02*
X889999D01*
Y235000D02*
Y375000D01*
X589999Y235000D02*
Y375000D01*
X599999Y519897D02*
X899998D01*
X749998Y404897D02*
Y494896D01*
X704999Y449896D02*
X794998D01*
X599999Y379896D02*
X899998D01*
X599999D02*
Y519897D01*
X899998Y379896D02*
Y519897D01*
X4033125Y2720625D02*
X4173125D01*
X4033125Y2420625D02*
X4173125D01*
Y2720625D01*
X4103125Y2525625D02*
Y2615625D01*
X4058125Y2570625D02*
X4148125D01*
X4033125Y2420625D02*
Y2720625D01*
X5470000Y3600000D02*
X5610000D01*
X5470000Y3900000D02*
X5610000D01*
X5470000Y3600000D02*
Y3900000D01*
X5540000Y3705000D02*
Y3795000D01*
X5495000Y3750000D02*
X5585000D01*
X5610000Y3600000D02*
Y3900000D01*
X6137475Y3260000D02*
X6277475D01*
X6137475Y3560000D02*
X6277475D01*
X6137475Y3260000D02*
Y3560000D01*
X6207475Y3365000D02*
Y3455000D01*
X6162475Y3410000D02*
X6252475D01*
X6277475Y3260000D02*
Y3560000D01*
X6417500Y3430000D02*
X6557500D01*
X6417500Y3730000D02*
X6557500D01*
X6417500Y3430000D02*
Y3730000D01*
X6487500Y3535000D02*
Y3625000D01*
X6442500Y3580000D02*
X6532500D01*
X6557500Y3430000D02*
Y3730000D01*
X6417500Y3420000D02*
X6557500D01*
X6417500Y3120000D02*
X6557500D01*
Y3420000D01*
X6487500Y3225000D02*
Y3315000D01*
X6442500Y3270000D02*
X6532500D01*
X6417500Y3120000D02*
Y3420000D01*
X4900000Y3610000D02*
X5200000D01*
X5050000Y3635000D02*
Y3725000D01*
X5005000Y3680000D02*
X5095000D01*
X4900000Y3750000D02*
X5200000D01*
Y3610000D02*
Y3750000D01*
X4900000Y3610000D02*
Y3750000D01*
X5470000Y3900000D02*
Y4200000D01*
X5495000Y4050000D02*
X5585000D01*
X5540000Y4005000D02*
Y4095000D01*
X5610000Y3900000D02*
Y4200000D01*
X5470000Y3900000D02*
X5610000D01*
X5470000Y4200000D02*
X5610000D01*
X4609999Y4110000D02*
X4909999D01*
X4759999Y3995000D02*
Y4085000D01*
X4714999Y4040000D02*
X4804999D01*
X4609999Y3970000D02*
X4909999D01*
X4609999D02*
Y4110000D01*
X4909999Y3970000D02*
Y4110000D01*
X5660000Y3610000D02*
X5960000D01*
X5810000Y3635000D02*
Y3725000D01*
X5765000Y3680000D02*
X5855000D01*
X5660000Y3750000D02*
X5960000D01*
Y3610000D02*
Y3750000D01*
X5660000Y3610000D02*
Y3750000D01*
X5800000Y1510000D02*
X6100000D01*
X5950000Y1535000D02*
Y1625000D01*
X5905000Y1580000D02*
X5995000D01*
X5800000Y1650000D02*
X6100000D01*
Y1510000D02*
Y1650000D01*
X5800000Y1510000D02*
Y1650000D01*
X5300000Y1530000D02*
Y1670000D01*
X5600000Y1530000D02*
Y1670000D01*
X5300000D02*
X5600000D01*
X5405000Y1600000D02*
X5495000D01*
X5450000Y1555000D02*
Y1645000D01*
X5300000Y1530000D02*
X5600000D01*
X5110000Y1820000D02*
Y2120000D01*
X5135000Y1970000D02*
X5225000D01*
X5180000Y1925000D02*
Y2015000D01*
X5250000Y1820000D02*
Y2120000D01*
X5110000Y1820000D02*
X5250000D01*
X5110000Y2120000D02*
X5250000D01*
X5660000Y1780000D02*
Y2080000D01*
X5685000Y1930000D02*
X5775000D01*
X5730000Y1885000D02*
Y1975000D01*
X5800000Y1780000D02*
Y2080000D01*
X5660000Y1780000D02*
X5800000D01*
X5660000Y2080000D02*
X5800000D01*
X7850023Y1445759D02*
X8150023D01*
X8000023Y1330759D02*
Y1420759D01*
X7955023Y1375759D02*
X8045023D01*
X7850023Y1305759D02*
X8150023D01*
X7850023D02*
Y1445759D01*
X8150023Y1305759D02*
Y1445759D01*
X5225026Y962500D02*
X5325025D01*
X5275026Y912500D02*
Y1012500D01*
X5380026Y752500D02*
Y1172500D01*
X5170025Y752500D02*
Y1172500D01*
Y752500D02*
X5380026D01*
X5170025Y1172500D02*
X5380026D01*
X5794999Y330000D02*
X6004999D01*
X5794999Y750000D02*
X6004999D01*
Y330000D02*
Y750000D01*
X5794999Y330000D02*
Y750000D01*
X5899999Y490000D02*
Y590000D01*
X5849999Y540000D02*
X5949999D01*
X5607550Y1172500D02*
X5817550D01*
X5607550Y752500D02*
X5817550D01*
X5607550D02*
Y1172500D01*
X5817550Y752500D02*
Y1172500D01*
X5712550Y912500D02*
Y1012500D01*
X5662550Y962500D02*
X5762550D01*
X5994999Y1185000D02*
X6204999D01*
X5994999Y765000D02*
X6204999D01*
X5994999D02*
Y1185000D01*
X6204999Y765000D02*
Y1185000D01*
X6099999Y925000D02*
Y1025000D01*
X6049999Y975000D02*
X6149999D01*
X6207499Y1185000D02*
X6417499D01*
X6207499Y765000D02*
X6417499D01*
X6207499D02*
Y1185000D01*
X6417499Y765000D02*
Y1185000D01*
X6312499Y925000D02*
Y1025000D01*
X6262499Y975000D02*
X6362499D01*
X7719999Y2895000D02*
Y3105000D01*
X8139999Y2895000D02*
Y3105000D01*
X7719999Y2895000D02*
X8139999D01*
X7719999Y3105000D02*
X8139999D01*
X7879999Y3000000D02*
X7979999D01*
X7929999Y2950000D02*
Y3050000D01*
X7679999Y1859974D02*
Y2069974D01*
X8100000Y1859974D02*
Y2069974D01*
X7679999Y1859974D02*
X8100000D01*
X7679999Y2069974D02*
X8100000D01*
X7840000Y1964974D02*
X7939999D01*
X7889999Y1914974D02*
Y2014974D01*
X7655000Y2395000D02*
Y2605000D01*
X7235000Y2395000D02*
Y2605000D01*
X7655000D01*
X7235000Y2395000D02*
X7655000D01*
X7395000Y2500000D02*
X7495000D01*
X7445000Y2450000D02*
Y2550000D01*
X7660000Y3244975D02*
Y3454975D01*
X7239999Y3244975D02*
Y3454975D01*
X7660000D01*
X7239999Y3244975D02*
X7660000D01*
X7400000Y3349975D02*
X7499999D01*
X7450000Y3299975D02*
Y3399975D01*
X7667499Y2645000D02*
Y2855000D01*
X7247499Y2645000D02*
Y2855000D01*
X7667499D01*
X7247499Y2645000D02*
X7667499D01*
X7407499Y2750000D02*
X7507499D01*
X7457499Y2700000D02*
Y2800000D01*
X2410000Y300000D02*
X2510000D01*
X2460000Y250000D02*
Y350000D01*
X2565000Y90000D02*
Y510000D01*
X2355000Y90000D02*
Y510000D01*
Y90000D02*
X2565000D01*
X2355000Y510000D02*
X2565000D01*
X2620000Y300000D02*
X2720000D01*
X2670000Y250000D02*
Y350000D01*
X2565000Y90000D02*
Y510000D01*
X2775000Y90000D02*
Y510000D01*
X2565000D02*
X2775000D01*
X2565000Y90000D02*
X2775000D01*
X2410000Y730000D02*
X2510000D01*
X2460000Y680000D02*
Y780000D01*
X2355000Y520000D02*
Y940000D01*
X2565000Y520000D02*
Y940000D01*
X2355000D02*
X2565000D01*
X2355000Y520000D02*
X2565000D01*
X2620000Y730000D02*
X2720000D01*
X2670000Y680000D02*
Y780000D01*
X2775000Y520000D02*
Y940000D01*
X2565000Y520000D02*
Y940000D01*
Y520000D02*
X2775000D01*
X2565000Y940000D02*
X2775000D01*
X4254999Y950000D02*
X4464999D01*
X4254999Y1370000D02*
X4464999D01*
Y950000D02*
Y1370000D01*
X4254999Y950000D02*
Y1370000D01*
X4359999Y1110000D02*
Y1210000D01*
X4309999Y1160000D02*
X4409999D01*
X4529999Y920000D02*
X4629999D01*
X4579999Y870000D02*
Y970000D01*
X4684999Y710000D02*
Y1130000D01*
X4474999Y710000D02*
Y1130000D01*
Y710000D02*
X4684999D01*
X4474999Y1130000D02*
X4684999D01*
X4090000Y1160000D02*
X4190000D01*
X4140000Y1110000D02*
Y1210000D01*
X4245000Y950000D02*
Y1370000D01*
X4035000Y950000D02*
Y1370000D01*
Y950000D02*
X4245000D01*
X4035000Y1370000D02*
X4245000D01*
X4030076Y735000D02*
Y945000D01*
X4450076Y735000D02*
Y945000D01*
X4030076Y735000D02*
X4450076D01*
X4030076Y945000D02*
X4450076D01*
X4190076Y840000D02*
X4290076D01*
X4240076Y790000D02*
Y890000D01*
X7239999Y1592475D02*
Y1687474D01*
X7192499Y1639974D02*
X7287499D01*
X7084999Y1724974D02*
X7394999D01*
X7084999Y1554975D02*
X7394999D01*
Y1724974D01*
X7084999Y1554975D02*
Y1724974D01*
X6420000Y2822500D02*
Y2917500D01*
X6372500Y2870000D02*
X6467500D01*
X6265000Y2785000D02*
X6575000D01*
X6265000Y2955000D02*
X6575000D01*
X6265000Y2785000D02*
Y2955000D01*
X6575000Y2785000D02*
Y2955000D01*
X7625024Y2070000D02*
X7795024D01*
X7625024Y2380000D02*
X7795024D01*
Y2070000D02*
Y2380000D01*
X7625024Y2070000D02*
Y2380000D01*
X7710024Y2177500D02*
Y2272500D01*
X7662524Y2225000D02*
X7757524D01*
X6772499Y3300000D02*
Y3420000D01*
X6562499Y3300000D02*
Y3420000D01*
X6772499D01*
X6562499Y3300000D02*
X6772499D01*
X6637499Y3360000D02*
X6697499D01*
X6667499Y3330000D02*
Y3390000D01*
X6882500Y2552500D02*
Y2647500D01*
X6835000Y2600000D02*
X6930000D01*
X6727500Y2685000D02*
X7037500D01*
X6727500Y2515000D02*
X7037500D01*
Y2685000D01*
X6727500Y2515000D02*
Y2685000D01*
X6572500Y2987475D02*
Y3082475D01*
X6525000Y3034975D02*
X6620000D01*
X6417500Y3119975D02*
X6727500D01*
X6417500Y2949975D02*
X6727500D01*
Y3119975D01*
X6417500Y2949975D02*
Y3119975D01*
X6449999Y1934923D02*
Y2024923D01*
X6404999Y1979923D02*
X6494999D01*
X6309999Y1909923D02*
X6589999D01*
X6309999Y2049923D02*
X6589999D01*
X6309999Y1909923D02*
Y2049923D01*
X6589999Y1909923D02*
Y2049923D01*
X6449999Y2074949D02*
Y2164949D01*
X6404999Y2119949D02*
X6494999D01*
X6309999Y2049949D02*
X6589999D01*
X6309999Y2189949D02*
X6589999D01*
X6309999Y2049949D02*
Y2189949D01*
X6589999Y2049949D02*
Y2189949D01*
X6449999Y2214974D02*
Y2304974D01*
X6404999Y2259974D02*
X6494999D01*
X6309999Y2189974D02*
X6589999D01*
X6309999Y2329975D02*
X6589999D01*
X6309999Y2189974D02*
Y2329975D01*
X6589999Y2189974D02*
Y2329975D01*
X6449999Y2355000D02*
Y2445000D01*
X6404999Y2400000D02*
X6494999D01*
X6309999Y2330000D02*
X6589999D01*
X6309999Y2470000D02*
X6589999D01*
X6309999Y2330000D02*
Y2470000D01*
X6589999Y2330000D02*
Y2470000D01*
X6489999Y4065000D02*
Y4155000D01*
X6444999Y4110000D02*
X6534999D01*
X6349999Y4180000D02*
X6629999D01*
X6349999Y4040000D02*
X6629999D01*
Y4180000D01*
X6349999Y4040000D02*
Y4180000D01*
X6489999Y4205000D02*
Y4295000D01*
X6444999Y4250000D02*
X6534999D01*
X6349999Y4320000D02*
X6629999D01*
X6349999Y4180000D02*
X6629999D01*
Y4320000D01*
X6349999Y4180000D02*
Y4320000D01*
X6400000Y3895000D02*
Y3985000D01*
X6355000Y3940000D02*
X6445000D01*
X6260000Y3870000D02*
X6540000D01*
X6260000Y4010000D02*
X6540000D01*
X6260000Y3870000D02*
Y4010000D01*
X6540000Y3870000D02*
Y4010000D01*
X7350000Y3740000D02*
X7490000D01*
X7350000Y3460000D02*
X7490000D01*
X7350000D02*
Y3740000D01*
X7490000Y3460000D02*
Y3740000D01*
X7420000Y3555000D02*
Y3645000D01*
X7375000Y3600000D02*
X7465000D01*
X1340024Y4125000D02*
X1430024D01*
X1385024Y4080000D02*
Y4170000D01*
X1315024Y3985000D02*
Y4265000D01*
X1455024Y3985000D02*
Y4265000D01*
X1315024D02*
X1455024D01*
X1315024Y3985000D02*
X1455024D01*
X1485000Y4120000D02*
X1575000D01*
X1530000Y4075000D02*
Y4165000D01*
X1600000Y3980000D02*
Y4260000D01*
X1460000Y3980000D02*
Y4260000D01*
Y3980000D02*
X1600000D01*
X1460000Y4260000D02*
X1600000D01*
X7530025Y165000D02*
X7670025D01*
X7530025Y445000D02*
X7670025D01*
Y165000D02*
Y445000D01*
X7530025Y165000D02*
Y445000D01*
X7600025Y260000D02*
Y350000D01*
X7555025Y305000D02*
X7645025D01*
X7530025Y725025D02*
X7670025D01*
X7530025Y445026D02*
X7670025D01*
X7530025D02*
Y725025D01*
X7670025Y445026D02*
Y725025D01*
X7600025Y540026D02*
Y630026D01*
X7555025Y585025D02*
X7645025D01*
X6487499Y287500D02*
Y387500D01*
X6437499Y337500D02*
X6537499D01*
X6317499Y247500D02*
X6657499D01*
X6317499Y427500D02*
X6657499D01*
X6317499Y247500D02*
Y427500D01*
X6657499Y247500D02*
Y427500D01*
X7259999Y115000D02*
Y205000D01*
X7214999Y160000D02*
X7304999D01*
X7119999Y230000D02*
X7399999D01*
X7119999Y90000D02*
X7399999D01*
Y230000D01*
X7119999Y90000D02*
Y230000D01*
X730000Y3100000D02*
X830000D01*
X780000Y3050000D02*
Y3150000D01*
X690000Y2930000D02*
Y3270000D01*
X870000Y2930000D02*
Y3270000D01*
X690000D02*
X870000D01*
X690000Y2930000D02*
X870000D01*
X2920000Y120000D02*
X3060000D01*
X2920000Y400000D02*
X3060000D01*
Y120000D02*
Y400000D01*
X2920000Y120000D02*
Y400000D01*
X2990000Y215000D02*
Y305000D01*
X2945000Y260000D02*
X3035000D01*
X2189999Y200000D02*
Y290000D01*
X2144999Y245000D02*
X2234999D01*
X2049999Y175000D02*
X2329999D01*
X2049999Y315000D02*
X2329999D01*
X2049999Y175000D02*
Y315000D01*
X2329999Y175000D02*
Y315000D01*
X2780000Y420000D02*
X2920000D01*
X2780000Y140000D02*
X2920000D01*
X2780000D02*
Y420000D01*
X2920000Y140000D02*
Y420000D01*
X2850000Y235000D02*
Y325000D01*
X2805000Y280000D02*
X2895000D01*
X2944999Y570000D02*
X3034999D01*
X2989999Y525000D02*
Y615000D01*
X3059999Y430000D02*
Y710000D01*
X2919999Y430000D02*
Y710000D01*
Y430000D02*
X3059999D01*
X2919999Y710000D02*
X3059999D01*
X2179999Y695000D02*
Y785000D01*
X2134999Y740000D02*
X2224999D01*
X2039999Y670000D02*
X2319999D01*
X2039999Y810000D02*
X2319999D01*
X2039999Y670000D02*
Y810000D01*
X2319999Y670000D02*
Y810000D01*
X2780000Y500000D02*
X2920000D01*
X2780000Y780000D02*
X2920000D01*
Y500000D02*
Y780000D01*
X2780000Y500000D02*
Y780000D01*
X2850000Y595000D02*
Y685000D01*
X2805000Y640000D02*
X2895000D01*
X4889974Y110000D02*
X5029974D01*
X4889974Y390000D02*
X5029974D01*
Y110000D02*
Y390000D01*
X4889974Y110000D02*
Y390000D01*
X4959974Y205000D02*
Y295000D01*
X4914974Y250000D02*
X5004974D01*
X4710000Y850000D02*
X4850000D01*
X4710000Y1130000D02*
X4850000D01*
Y850000D02*
Y1130000D01*
X4710000Y850000D02*
Y1130000D01*
X4780000Y945000D02*
Y1035000D01*
X4735000Y990000D02*
X4825000D01*
X5312500Y117500D02*
Y207500D01*
X5267500Y162500D02*
X5357500D01*
X5172500Y92500D02*
X5452500D01*
X5172500Y232500D02*
X5452500D01*
X5172500Y92500D02*
Y232500D01*
X5452500Y92500D02*
Y232500D01*
X4884999Y990000D02*
X4974999D01*
X4929999Y945000D02*
Y1035000D01*
X4999999Y850000D02*
Y1130000D01*
X4859999Y850000D02*
Y1130000D01*
Y850000D02*
X4999999D01*
X4859999Y1130000D02*
X4999999D01*
X3059999Y1545000D02*
Y1635000D01*
X3014999Y1590000D02*
X3104999D01*
X2919999Y1660000D02*
X3199999D01*
X2919999Y1520000D02*
X3199999D01*
Y1660000D01*
X2919999Y1520000D02*
Y1660000D01*
X3869999Y1545000D02*
Y1635000D01*
X3824999Y1590000D02*
X3915000D01*
X3729999Y1520000D02*
X4009999D01*
X3729999Y1660000D02*
X4009999D01*
X3729999Y1520000D02*
Y1660000D01*
X4009999Y1520000D02*
Y1660000D01*
X3879999Y965000D02*
Y1055000D01*
X3834999Y1010000D02*
X3924999D01*
X3739999Y1080000D02*
X4019999D01*
X3739999Y940000D02*
X4019999D01*
Y1080000D01*
X3739999Y940000D02*
Y1080000D01*
X5650000Y335000D02*
Y425000D01*
X5605000Y380000D02*
X5695000D01*
X5510000Y450000D02*
X5790000D01*
X5510000Y310000D02*
X5790000D01*
Y450000D01*
X5510000Y310000D02*
Y450000D01*
X3880000Y1114974D02*
Y1204974D01*
X3834999Y1159974D02*
X3925000D01*
X3740000Y1229974D02*
X4020000D01*
X3740000Y1089974D02*
X4020000D01*
Y1229974D01*
X3740000Y1089974D02*
Y1229974D01*
X7860000Y3187314D02*
Y3277314D01*
X7815000Y3232314D02*
X7905000D01*
X7720000Y3162314D02*
X7999999D01*
X7720000Y3302314D02*
X7999999D01*
X7720000Y3162314D02*
Y3302314D01*
X7999999Y3162314D02*
Y3302314D01*
X8009998Y3327340D02*
Y3417340D01*
X7964999Y3372340D02*
X8054999D01*
X7869998Y3302340D02*
X8149998D01*
X7869998Y3442340D02*
X8149998D01*
X7869998Y3302340D02*
Y3442340D01*
X8149998Y3302340D02*
Y3442340D01*
X5500000Y740000D02*
X5640000D01*
X5500000Y460000D02*
X5640000D01*
X5500000D02*
Y740000D01*
X5640000Y460000D02*
Y740000D01*
X5570000Y555000D02*
Y645000D01*
X5525000Y600000D02*
X5615000D01*
X4660000Y2125000D02*
Y2215000D01*
X4615000Y2170000D02*
X4705000D01*
X4520000Y2100000D02*
X4800000D01*
X4520000Y2240000D02*
X4800000D01*
X4520000Y2100000D02*
Y2240000D01*
X4800000Y2100000D02*
Y2240000D01*
X4660000Y2435000D02*
Y2525000D01*
X4615000Y2480000D02*
X4705000D01*
X4520000Y2410000D02*
X4800000D01*
X4520000Y2550000D02*
X4800000D01*
X4520000Y2410000D02*
Y2550000D01*
X4800000Y2410000D02*
Y2550000D01*
X3000000Y2565000D02*
Y2655000D01*
X2955000Y2610000D02*
X3045000D01*
X2860000Y2680000D02*
X3140000D01*
X2860000Y2540000D02*
X3140000D01*
Y2680000D01*
X2860000Y2540000D02*
Y2680000D01*
X3000000Y2285000D02*
Y2375000D01*
X2955000Y2330000D02*
X3045000D01*
X2860000Y2400000D02*
X3140000D01*
X2860000Y2260000D02*
X3140000D01*
Y2400000D01*
X2860000Y2260000D02*
Y2400000D01*
X4322500Y2127500D02*
Y2217500D01*
X4277500Y2172500D02*
X4367500D01*
X4182500Y2242500D02*
X4462500D01*
X4182500Y2102500D02*
X4462500D01*
Y2242500D01*
X4182500Y2102500D02*
Y2242500D01*
X4322500Y2436250D02*
Y2526250D01*
X4277500Y2481250D02*
X4367500D01*
X4182500Y2551250D02*
X4462500D01*
X4182500Y2411250D02*
X4462500D01*
Y2551250D01*
X4182500Y2411250D02*
Y2551250D01*
X3437500Y2565000D02*
Y2655000D01*
X3392500Y2610000D02*
X3482500D01*
X3297500Y2540000D02*
X3577500D01*
X3297500Y2680000D02*
X3577500D01*
X3297500Y2540000D02*
Y2680000D01*
X3577500Y2540000D02*
Y2680000D01*
X3437500Y2285000D02*
Y2375000D01*
X3392500Y2330000D02*
X3482500D01*
X3297500Y2260000D02*
X3577500D01*
X3297500Y2400000D02*
X3577500D01*
X3297500Y2260000D02*
Y2400000D01*
X3577500Y2260000D02*
Y2400000D01*
X4660000Y2275000D02*
Y2365000D01*
X4615000Y2320000D02*
X4705000D01*
X4520000Y2250000D02*
X4800000D01*
X4520000Y2390000D02*
X4800000D01*
X4520000Y2250000D02*
Y2390000D01*
X4800000Y2250000D02*
Y2390000D01*
X4660000Y2585000D02*
Y2675000D01*
X4615000Y2630000D02*
X4705000D01*
X4520000Y2560000D02*
X4800000D01*
X4520000Y2700000D02*
X4800000D01*
X4520000Y2560000D02*
Y2700000D01*
X4800000Y2560000D02*
Y2700000D01*
X3000000Y2425000D02*
Y2515000D01*
X2955000Y2470000D02*
X3045000D01*
X2860000Y2540000D02*
X3140000D01*
X2860000Y2400000D02*
X3140000D01*
Y2540000D01*
X2860000Y2400000D02*
Y2540000D01*
X3000000Y2145000D02*
Y2235000D01*
X2955000Y2190000D02*
X3045000D01*
X2860000Y2260000D02*
X3140000D01*
X2860000Y2120000D02*
X3140000D01*
Y2260000D01*
X2860000Y2120000D02*
Y2260000D01*
X4322500Y2273750D02*
Y2363750D01*
X4277500Y2318750D02*
X4367500D01*
X4182500Y2388750D02*
X4462500D01*
X4182500Y2248750D02*
X4462500D01*
Y2388750D01*
X4182500Y2248750D02*
Y2388750D01*
X4322500Y2582500D02*
Y2672500D01*
X4277500Y2627500D02*
X4367500D01*
X4182500Y2697500D02*
X4462500D01*
X4182500Y2557500D02*
X4462500D01*
Y2697500D01*
X4182500Y2557500D02*
Y2697500D01*
X3437500Y2425000D02*
Y2515000D01*
X3392500Y2470000D02*
X3482500D01*
X3297500Y2400000D02*
X3577500D01*
X3297500Y2540000D02*
X3577500D01*
X3297500Y2400000D02*
Y2540000D01*
X3577500Y2400000D02*
Y2540000D01*
X3437499Y2145000D02*
Y2235000D01*
X3392499Y2190000D02*
X3482500D01*
X3297499Y2120000D02*
X3577499D01*
X3297499Y2260000D02*
X3577499D01*
X3297499Y2120000D02*
Y2260000D01*
X3577499Y2120000D02*
Y2260000D01*
X3260000Y2855000D02*
Y2945000D01*
X3214999Y2900000D02*
X3304999D01*
X3120000Y2970000D02*
X3400000D01*
X3120000Y2830000D02*
X3400000D01*
Y2970000D01*
X3120000Y2830000D02*
Y2970000D01*
X1595000Y2760000D02*
X1685000D01*
X1640000Y2715000D02*
Y2805000D01*
X1570000Y2620000D02*
Y2900000D01*
X1710000Y2620000D02*
Y2900000D01*
X1570000D02*
X1710000D01*
X1570000Y2620000D02*
X1710000D01*
X5880000Y2385000D02*
Y2475000D01*
X5835000Y2430000D02*
X5925000D01*
X5740000Y2500000D02*
X6020000D01*
X5740000Y2360000D02*
X6020000D01*
Y2500000D01*
X5740000Y2360000D02*
Y2500000D01*
X5507473Y2824999D02*
X5647473D01*
X5507473Y2544999D02*
X5647473D01*
X5507473D02*
Y2824999D01*
X5647473Y2544999D02*
Y2824999D01*
X5577473Y2640000D02*
Y2730000D01*
X5532473Y2684999D02*
X5622473D01*
X1239999Y930000D02*
X1339998D01*
X1239999Y1140000D02*
X1339998D01*
Y930000D02*
Y1140000D01*
X1239999Y930000D02*
Y1140000D01*
X1289998Y1005000D02*
Y1065000D01*
X1259998Y1035000D02*
X1319998D01*
X1059974D02*
X1119974D01*
X1089974Y1005000D02*
Y1065000D01*
X1039974Y930000D02*
Y1140000D01*
X1139974Y930000D02*
Y1140000D01*
X1039974D02*
X1139974D01*
X1039974Y930000D02*
X1139974D01*
X1155000Y2622500D02*
X1295000D01*
X1155000Y2902500D02*
X1295000D01*
Y2622500D02*
Y2902500D01*
X1155000Y2622500D02*
Y2902500D01*
X1225000Y2717500D02*
Y2807500D01*
X1180000Y2762500D02*
X1270000D01*
X1354999D02*
X1444999D01*
X1399999Y2717500D02*
Y2807500D01*
X1329999Y2622500D02*
Y2902500D01*
X1469999Y2622500D02*
Y2902500D01*
X1329999D02*
X1469999D01*
X1329999Y2622500D02*
X1469999D01*
X1114999Y2280000D02*
Y2380000D01*
X904999Y2280000D02*
Y2380000D01*
X1114999D01*
X904999Y2280000D02*
X1114999D01*
X979999Y2330000D02*
X1039999D01*
X1009999Y2300000D02*
Y2360000D01*
X2325000Y1720000D02*
Y1820000D01*
X2535000Y1720000D02*
Y1820000D01*
X2325000Y1720000D02*
X2535000D01*
X2325000Y1820000D02*
X2535000D01*
X2400000Y1770000D02*
X2460000D01*
X2430000Y1740000D02*
Y1800000D01*
X1550050Y2400000D02*
X1610050D01*
X1580050Y2370000D02*
Y2430000D01*
X1630050Y2295000D02*
Y2505000D01*
X1530050Y2295000D02*
Y2505000D01*
Y2295000D02*
X1630050D01*
X1530050Y2505000D02*
X1630050D01*
X1340024Y2295000D02*
X1440024D01*
X1340024Y2505000D02*
X1440024D01*
Y2295000D02*
Y2505000D01*
X1340024Y2295000D02*
Y2505000D01*
X1390024Y2370000D02*
Y2430000D01*
X1360024Y2400000D02*
X1420024D01*
X1239999Y2295000D02*
X1339998D01*
X1239999Y2505000D02*
X1339998D01*
Y2295000D02*
Y2505000D01*
X1239999Y2295000D02*
Y2505000D01*
X1289998Y2370000D02*
Y2430000D01*
X1259998Y2400000D02*
X1319998D01*
X904999Y2180000D02*
Y2280000D01*
X1114999Y2180000D02*
Y2280000D01*
X904999Y2180000D02*
X1114999D01*
X904999Y2280000D02*
X1114999D01*
X979999Y2230000D02*
X1039999D01*
X1009999Y2200000D02*
Y2260000D01*
X904999Y2080000D02*
Y2180000D01*
X1114999Y2080000D02*
Y2180000D01*
X904999Y2080000D02*
X1114999D01*
X904999Y2180000D02*
X1114999D01*
X979999Y2130000D02*
X1039999D01*
X1009999Y2100000D02*
Y2160000D01*
X944999Y1260000D02*
Y1360000D01*
X1154999Y1260000D02*
Y1360000D01*
X944999Y1260000D02*
X1154999D01*
X944999Y1360000D02*
X1154999D01*
X1019999Y1310000D02*
X1079999D01*
X1049999Y1280000D02*
Y1340000D01*
X1670025Y1035000D02*
X1730025D01*
X1700025Y1005000D02*
Y1065000D01*
X1650025Y930000D02*
Y1140000D01*
X1750025Y930000D02*
Y1140000D01*
X1650025D02*
X1750025D01*
X1650025Y930000D02*
X1750025D01*
X1570000Y1035000D02*
X1630000D01*
X1600000Y1005000D02*
Y1065000D01*
X1649999Y930000D02*
Y1140000D01*
X1550000Y930000D02*
Y1140000D01*
Y930000D02*
X1649999D01*
X1550000Y1140000D02*
X1649999D01*
X2150000Y1080000D02*
X2210000D01*
X2180000Y1050000D02*
Y1110000D01*
X2230000Y975000D02*
Y1185000D01*
X2130000Y975000D02*
Y1185000D01*
Y975000D02*
X2230000D01*
X2130000Y1185000D02*
X2230000D01*
X2535000Y1460000D02*
Y1560000D01*
X2325000Y1460000D02*
Y1560000D01*
X2535000D01*
X2325000Y1460000D02*
X2535000D01*
X2400000Y1510000D02*
X2460000D01*
X2430000Y1480000D02*
Y1540000D01*
X2535000Y1590000D02*
Y1690000D01*
X2325000Y1590000D02*
Y1690000D01*
X2535000D01*
X2325000Y1590000D02*
X2535000D01*
X2400000Y1640000D02*
X2460000D01*
X2430000Y1610000D02*
Y1670000D01*
X1850126Y2400000D02*
X1910125D01*
X1880126Y2370000D02*
Y2430000D01*
X1830126Y2295000D02*
Y2505000D01*
X1930125Y2295000D02*
Y2505000D01*
X1830126D02*
X1930125D01*
X1830126Y2295000D02*
X1930125D01*
X1650075Y2400000D02*
X1710075D01*
X1680075Y2370000D02*
Y2430000D01*
X1730075Y2295000D02*
Y2505000D01*
X1630075Y2295000D02*
Y2505000D01*
Y2295000D02*
X1730075D01*
X1630075Y2505000D02*
X1730075D01*
X1750100Y2400000D02*
X1810100D01*
X1780100Y2370000D02*
Y2430000D01*
X1730100Y2295000D02*
Y2505000D01*
X1830100Y2295000D02*
Y2505000D01*
X1730100D02*
X1830100D01*
X1730100Y2295000D02*
X1830100D01*
X1114999Y1980000D02*
Y2080000D01*
X904999Y1980000D02*
Y2080000D01*
X1114999D01*
X904999Y1980000D02*
X1114999D01*
X979999Y2030000D02*
X1039999D01*
X1009999Y2000000D02*
Y2060000D01*
X1159999Y1035000D02*
X1219999D01*
X1189999Y1005000D02*
Y1065000D01*
X1239999Y930000D02*
Y1140000D01*
X1139999Y930000D02*
Y1140000D01*
Y930000D02*
X1239999D01*
X1139999Y1140000D02*
X1239999D01*
X1554999Y775000D02*
X1644999D01*
X1599999Y730000D02*
Y820000D01*
X1669999Y635000D02*
Y915000D01*
X1529998Y635000D02*
Y915000D01*
Y635000D02*
X1669999D01*
X1529998Y915000D02*
X1669999D01*
X1414973Y775000D02*
X1504973D01*
X1459973Y730000D02*
Y820000D01*
X1389973Y635000D02*
Y915000D01*
X1529973Y635000D02*
Y915000D01*
X1389973D02*
X1529973D01*
X1389973Y635000D02*
X1529973D01*
X2095051Y1600000D02*
X2235051D01*
X2095051Y1880000D02*
X2235051D01*
Y1600000D02*
Y1880000D01*
X2095051Y1600000D02*
Y1880000D01*
X2165051Y1695000D02*
Y1785000D01*
X2120051Y1740000D02*
X2210051D01*
X2054998Y2110026D02*
Y2200026D01*
X2009998Y2155026D02*
X2099998D01*
X1914998Y2225026D02*
X2194998D01*
X1914998Y2085026D02*
X2194998D01*
Y2225026D01*
X1914998Y2085026D02*
Y2225026D01*
X950000Y1700000D02*
X1090000D01*
X950000Y1980000D02*
X1090000D01*
Y1700000D02*
Y1980000D01*
X950000Y1700000D02*
Y1980000D01*
X1020000Y1795000D02*
Y1885000D01*
X975000Y1840000D02*
X1065000D01*
X409974Y879974D02*
X549974D01*
X409974Y1159974D02*
X549974D01*
Y879974D02*
Y1159974D01*
X409974Y879974D02*
Y1159974D01*
X479974Y974974D02*
Y1064974D01*
X434974Y1019974D02*
X524974D01*
X269948Y879974D02*
X409948D01*
X269948Y1159974D02*
X409948D01*
Y879974D02*
Y1159974D01*
X269948Y879974D02*
Y1159974D01*
X339948Y974974D02*
Y1064974D01*
X294948Y1019974D02*
X384948D01*
X749999Y120000D02*
Y210000D01*
X704999Y165000D02*
X794999D01*
X609999Y95000D02*
X889999D01*
X609999Y235000D02*
X889999D01*
X609999Y95000D02*
Y235000D01*
X889999Y95000D02*
Y235000D01*
X1990000Y1075000D02*
Y1165000D01*
X1945000Y1120000D02*
X2035000D01*
X1850000Y1050000D02*
X2130000D01*
X1850000Y1190000D02*
X2130000D01*
X1850000Y1050000D02*
Y1190000D01*
X2130000Y1050000D02*
Y1190000D01*
X4005624Y2745000D02*
Y2835000D01*
X3960624Y2790000D02*
X4050624D01*
X3865624Y2860000D02*
X4145624D01*
X3865624Y2720000D02*
X4145624D01*
Y2860000D01*
X3865624Y2720000D02*
Y2860000D01*
X4157499Y1940026D02*
Y2030026D01*
X4112500Y1985026D02*
X4202500D01*
X4017499Y1915026D02*
X4297499D01*
X4017499Y2055026D02*
X4297499D01*
X4017499Y1915026D02*
Y2055026D01*
X4297499Y1915026D02*
Y2055026D01*
X3465000Y2822500D02*
X3555000D01*
X3510000Y2777500D02*
Y2867500D01*
X3580000Y2682500D02*
Y2962500D01*
X3440000Y2682500D02*
Y2962500D01*
Y2682500D02*
X3580000D01*
X3440000Y2962500D02*
X3580000D01*
X3721249Y2745000D02*
Y2835000D01*
X3676249Y2790000D02*
X3766249D01*
X3581249Y2860000D02*
X3861249D01*
X3581249Y2720000D02*
X3861249D01*
Y2860000D01*
X3581249Y2720000D02*
Y2860000D01*
X5730000Y2865000D02*
Y2955000D01*
X5685000Y2910000D02*
X5775000D01*
X5590000Y2840000D02*
X5870000D01*
X5590000Y2980000D02*
X5870000D01*
X5590000Y2840000D02*
Y2980000D01*
X5870000Y2840000D02*
Y2980000D01*
X6277500Y3570000D02*
X6417500D01*
X6277500Y3290000D02*
X6417500D01*
X6277500D02*
Y3570000D01*
X6417500Y3290000D02*
Y3570000D01*
X6347500Y3385000D02*
Y3475000D01*
X6302500Y3430000D02*
X6392500D01*
X4200000Y3350000D02*
X4340000D01*
X4200000Y3630000D02*
X4340000D01*
Y3350000D02*
Y3630000D01*
X4200000Y3350000D02*
Y3630000D01*
X4270000Y3445000D02*
Y3535000D01*
X4225000Y3490000D02*
X4315000D01*
X4619999Y3815000D02*
Y3905000D01*
X4574999Y3860000D02*
X4664999D01*
X4479999Y3930000D02*
X4759999D01*
X4479999Y3790000D02*
X4759999D01*
Y3930000D01*
X4479999Y3790000D02*
Y3930000D01*
X4759999Y3650000D02*
X4899999D01*
X4759999Y3930000D02*
X4899999D01*
Y3650000D02*
Y3930000D01*
X4759999Y3650000D02*
Y3930000D01*
X4829999Y3745000D02*
Y3835000D01*
X4784999Y3790000D02*
X4874999D01*
X5449999Y4225000D02*
Y4315000D01*
X5404999Y4270000D02*
X5494999D01*
X5309999Y4200000D02*
X5589999D01*
X5309999Y4340000D02*
X5589999D01*
X5309999Y4200000D02*
Y4340000D01*
X5589999Y4200000D02*
Y4340000D01*
X4729999Y4135000D02*
Y4225000D01*
X4684999Y4180000D02*
X4774999D01*
X4589999Y4110000D02*
X4869999D01*
X4589999Y4250000D02*
X4869999D01*
X4589999Y4110000D02*
Y4250000D01*
X4869999Y4110000D02*
Y4250000D01*
X5065000Y2635000D02*
Y2725000D01*
X5020000Y2680000D02*
X5110000D01*
X4925000Y2750000D02*
X5205000D01*
X4925000Y2610000D02*
X5205000D01*
Y2750000D01*
X4925000Y2610000D02*
Y2750000D01*
X5230000Y2435000D02*
Y2525000D01*
X5185000Y2480000D02*
X5275000D01*
X5090000Y2410000D02*
X5370000D01*
X5090000Y2550000D02*
X5370000D01*
X5090000Y2410000D02*
Y2550000D01*
X5370000Y2410000D02*
Y2550000D01*
X5080000Y2145000D02*
Y2235000D01*
X5035000Y2190000D02*
X5125000D01*
X4940000Y2260000D02*
X5220000D01*
X4940000Y2120000D02*
X5220000D01*
Y2260000D01*
X4940000Y2120000D02*
Y2260000D01*
X5395000Y2410000D02*
X5485000D01*
X5440000Y2365000D02*
Y2455000D01*
X5370000Y2270000D02*
Y2550000D01*
X5510000Y2270000D02*
Y2550000D01*
X5370000D02*
X5510000D01*
X5370000Y2270000D02*
X5510000D01*
X5685000Y2220000D02*
X5775000D01*
X5730000Y2175000D02*
Y2265000D01*
X5800000Y2080000D02*
Y2360000D01*
X5660000Y2080000D02*
Y2360000D01*
Y2080000D02*
X5800000D01*
X5660000Y2360000D02*
X5800000D01*
X5370000Y2270000D02*
Y2410000D01*
X5090000Y2270000D02*
Y2410000D01*
X5370000D01*
X5090000Y2270000D02*
X5370000D01*
X5185000Y2340000D02*
X5275000D01*
X5230000Y2295000D02*
Y2385000D01*
X7769999Y1645000D02*
Y1735000D01*
X7725000Y1690000D02*
X7815000D01*
X7629999Y1620000D02*
X7909999D01*
X7629999Y1760000D02*
X7909999D01*
X7629999Y1620000D02*
Y1760000D01*
X7909999Y1620000D02*
Y1760000D01*
X7349999Y1420000D02*
X7489999D01*
X7349999Y1140000D02*
X7489999D01*
X7349999D02*
Y1420000D01*
X7489999Y1140000D02*
Y1420000D01*
X7419999Y1235000D02*
Y1325000D01*
X7374999Y1280000D02*
X7465000D01*
X7990024Y1475785D02*
Y1565785D01*
X7945024Y1520785D02*
X8035024D01*
X7850024Y1590785D02*
X8130024D01*
X7850024Y1450784D02*
X8130024D01*
Y1590785D01*
X7850024Y1450784D02*
Y1590785D01*
X7899999Y840000D02*
X8040000D01*
X7899999Y1120000D02*
X8040000D01*
Y840000D02*
Y1120000D01*
X7899999Y840000D02*
Y1120000D01*
X7970000Y935000D02*
Y1025000D01*
X7924999Y980000D02*
X8014999D01*
X7990023Y1185733D02*
Y1275734D01*
X7945023Y1230733D02*
X8035023D01*
X7850023Y1300733D02*
X8130023D01*
X7850023Y1160733D02*
X8130023D01*
Y1300733D01*
X7850023Y1160733D02*
Y1300733D01*
X3345025Y1199974D02*
X3445025D01*
X3395025Y1149974D02*
Y1249974D01*
X3200025Y899974D02*
Y1499974D01*
X3590025Y899974D02*
Y1499974D01*
X3200025D02*
X3590025D01*
X3200025Y899974D02*
X3590025D01*
X5020000Y2980000D02*
Y3580000D01*
X5880000Y2980000D02*
Y3580000D01*
X5020000Y2980000D02*
X5880000D01*
X5020000Y3580000D02*
X5880000D01*
X5400000Y3280000D02*
X5500000D01*
X5450000Y3230000D02*
Y3330000D01*
X5760000Y4050026D02*
X5860000D01*
X5810000Y4000026D02*
Y4100026D01*
X5615000Y3750026D02*
Y4350026D01*
X6005000Y3750026D02*
Y4350026D01*
X5615000D02*
X6005000D01*
X5615000Y3750026D02*
X6005000D01*
X4910050Y3750000D02*
X5300050D01*
X4910050Y4350000D02*
X5300050D01*
Y3750000D02*
Y4350000D01*
X4910050Y3750000D02*
Y4350000D01*
X5105050Y4000000D02*
Y4100000D01*
X5055050Y4050000D02*
X5155050D01*
X5400000Y1970000D02*
X5500000D01*
X5450000Y1920000D02*
Y2020000D01*
X5255000Y1670000D02*
Y2270000D01*
X5645000Y1670000D02*
Y2270000D01*
X5255000D02*
X5645000D01*
X5255000Y1670000D02*
X5645000D01*
X7289999Y485000D02*
X7389999D01*
X7339999Y435000D02*
Y535000D01*
X7529999Y255000D02*
Y715000D01*
X7149999Y255000D02*
Y715000D01*
Y255000D02*
X7529999D01*
X7149999Y715000D02*
X7529999D01*
X944999Y1460000D02*
Y1560000D01*
X1154999Y1460000D02*
Y1560000D01*
X944999Y1460000D02*
X1154999D01*
X944999Y1560000D02*
X1154999D01*
X1019999Y1510000D02*
X1079999D01*
X1049999Y1480000D02*
Y1540000D01*
X5999974Y244975D02*
X6319974D01*
X5999974Y764975D02*
X6319974D01*
Y244975D02*
Y764975D01*
X5999974Y244975D02*
Y764975D01*
X6159974Y454975D02*
Y554975D01*
X6109974Y504975D02*
X6209974D01*
X1024998Y3525000D02*
X1124998D01*
X1074998Y3475000D02*
Y3575000D01*
X914998Y3265000D02*
Y3785000D01*
X1234998Y3265000D02*
Y3785000D01*
X914998D02*
X1234998D01*
X914998Y3265000D02*
X1234998D01*
X1615049Y3064975D02*
Y3164975D01*
X1565049Y3114975D02*
X1665049D01*
X1355049Y2954975D02*
X1875049D01*
X1355049Y3274975D02*
X1875049D01*
X1355049Y2954975D02*
Y3274975D01*
X1875049Y2954975D02*
Y3274975D01*
%TF.MD5,5f6f18cb15a1fd9c650b2986d6c01aec*%
M02*
