%TF.GenerationSoftware,Altium Limited,Altium Designer,22.6.1 (34)*%
G04 Layer_Color=16711935*
%FSLAX45Y45*%
%MOMM*%
%TF.SameCoordinates,07F994AE-BB1C-4BEA-A643-928B9DFDCC76*%
%TF.FilePolarity,Positive*%
%TF.FileFunction,Other,Board_Shape*%
%TF.Part,Single*%
G01*
G75*
%TA.AperFunction,NonConductor*%
%ADD141C,0.40000*%
D141*
X450000Y50000D02*
G03*
X50000Y450000I-450000J-50000D01*
G01*
Y3950000D02*
G03*
X450000Y4350000I-50000J450000D01*
G01*
X8150000Y450000D02*
G03*
X7750000Y50000I50000J-450000D01*
G01*
Y4350000D02*
G03*
X8150000Y3950000I450000J50000D01*
G01*
X4350000Y50000D02*
G03*
X3900000Y452769I-450000J-50000D01*
G01*
D02*
G03*
X3450000Y50000I0J-452769D01*
G01*
X500000Y4400000D02*
G03*
X450000Y4350000I0J-50000D01*
G01*
X50000Y3950000D02*
G03*
X0Y3900000I0J-50000D01*
G01*
X4400000Y4400000D02*
G03*
X4350000Y4350000I0J-50000D01*
G01*
X4300000Y4250000D02*
G03*
X4350000Y4300000I0J50000D01*
G01*
X3850000Y4350000D02*
G03*
X3800000Y4400000I-50000J0D01*
G01*
X3850000Y4300000D02*
G03*
X3900000Y4250000I50000J0D01*
G01*
X7750000Y4350000D02*
G03*
X7700000Y4400000I-50000J0D01*
G01*
X8200000Y3900000D02*
G03*
X8150000Y3950000I-50000J0D01*
G01*
Y450000D02*
G03*
X8200000Y500000I0J50000D01*
G01*
X7700000Y0D02*
G03*
X7750000Y50000I0J50000D01*
G01*
X4350000D02*
G03*
X4400000Y0I50000J0D01*
G01*
X3400000D02*
G03*
X3450000Y50000I0J50000D01*
G01*
X0Y500000D02*
G03*
X50000Y450000I50000J0D01*
G01*
X450000Y50000D02*
G03*
X500000Y0I50000J0D01*
G01*
X3400000D01*
X4400000D02*
X7700000D01*
X8200000Y500000D02*
Y3900000D01*
X4400000Y4400000D02*
X7700000D01*
X4350000Y4300000D02*
Y4350000D01*
X3900000Y4250000D02*
X4300000D01*
X3850000Y4300000D02*
Y4350000D01*
X500000Y4400000D02*
X3800000D01*
X0Y500000D02*
Y3900000D01*
%TF.MD5,bf3930e3ef3ee4978b422cee67990726*%
M02*
