%TF.GenerationSoftware,Altium Limited,Altium Designer,22.6.1 (34)*%
G04 Layer_Color=32768*
%FSLAX45Y45*%
%MOMM*%
%TF.SameCoordinates,07F994AE-BB1C-4BEA-A643-928B9DFDCC76*%
%TF.FilePolarity,Positive*%
%TF.FileFunction,Other,Mechanical_11*%
%TF.Part,Single*%
G01*
G75*
%TA.AperFunction,NonConductor*%
%ADD164C,0.10000*%
%ADD174C,0.01000*%
%ADD175C,0.14000*%
%ADD176R,0.60525X1.39500*%
%ADD177R,0.60525X2.79000*%
%ADD178R,1.39500X0.60525*%
D164*
X3942473Y2285000D02*
G03*
X3942473Y2285000I-50000J0D01*
G01*
X7290000Y640000D02*
G03*
X7290000Y640000I-50000J0D01*
G01*
X2435019Y2244985D02*
G03*
X2435019Y2244985I-20000J0D01*
G01*
X4010000Y1080000D02*
G03*
X4010000Y1080000I-50000J0D01*
G01*
X5390000Y3120000D02*
G03*
X5390000Y3120000I-50000J0D01*
G01*
X3672474Y2195000D02*
X3982474D01*
X3672474Y2505000D02*
X3982474D01*
Y2195000D02*
Y2505000D01*
X3672474Y2195000D02*
Y2505000D01*
X1800000Y2975000D02*
Y3625000D01*
X1150000D02*
X1800000D01*
X1150000Y2975000D02*
Y3625000D01*
Y2975000D02*
X1800000D01*
X869972Y1504975D02*
X1119972D01*
X819972Y1454975D02*
X869972Y1504975D01*
X819972Y1204975D02*
Y1454975D01*
Y1204975D02*
X1069972D01*
X1119972Y1254975D01*
Y1504975D01*
X5840000Y1805000D02*
X6160000D01*
X5840000Y2095000D02*
X6160000D01*
Y1805000D02*
Y2095000D01*
X5840000Y1805000D02*
Y2095000D01*
X3475000Y1885000D02*
X4225000D01*
X3475000D02*
Y2915000D01*
X4225000D01*
Y1885000D02*
Y2915000D01*
X7519998Y1287500D02*
Y1462500D01*
X7819998Y1287500D02*
Y1462500D01*
X7519998D02*
X7819998D01*
X7519998Y1287500D02*
X7819998D01*
X745005Y854922D02*
X905005D01*
Y564922D02*
Y854922D01*
X745005Y564922D02*
Y854922D01*
Y564922D02*
X905005D01*
X1675000Y3902500D02*
Y4077500D01*
X1365000Y3902500D02*
Y4077500D01*
X1675000D01*
X1365000Y3902500D02*
X1675000D01*
X1397523Y3627500D02*
X1572524D01*
X1397523Y3322500D02*
X1572524D01*
Y3627500D01*
X1397523Y3322500D02*
Y3627500D01*
X5800000Y2518000D02*
Y2822000D01*
X5940000Y2518000D02*
Y2822000D01*
X5800000Y2518000D02*
X5940000D01*
X5800000Y2822000D02*
X5940000D01*
X6950000Y3575000D02*
X7090000D01*
X6950000Y3275000D02*
X7090000D01*
Y3575000D01*
X6950000Y3275000D02*
Y3575000D01*
X7150000Y550000D02*
X7650000D01*
X7150000Y950000D02*
X7650000D01*
X7150000Y550000D02*
Y950000D01*
X7650000Y550000D02*
Y950000D01*
X671450Y1784000D02*
X671450Y1847500D01*
X671450Y1784000D02*
X754000D01*
Y1276000D02*
Y1784000D01*
X671450Y1276000D02*
X754000D01*
X671450D02*
X671450Y1212500D01*
X328549Y1847500D02*
X671450D01*
X328549D02*
X328550Y1784000D01*
X246000D02*
X328550D01*
X246000Y1276000D02*
Y1784000D01*
Y1276000D02*
X328550D01*
X328549Y1212500D02*
X328550Y1276000D01*
X328549Y1212500D02*
X671450D01*
X2027500Y2735000D02*
Y2945000D01*
X1892500Y2735000D02*
Y2945000D01*
Y2735000D02*
X2027500D01*
X1892500Y2945000D02*
X2027500D01*
X2975000Y1405000D02*
X3145000D01*
X2975000Y1495000D02*
X3145000D01*
X2975000Y1405000D02*
Y1495000D01*
X3145000Y1405000D02*
Y1495000D01*
X992499Y1380000D02*
Y1440000D01*
X1107499Y1380000D02*
Y1440000D01*
X992499Y1380000D02*
X1107499D01*
X992499Y1440000D02*
X1107499D01*
X5789999Y1295000D02*
Y1435000D01*
X5969999Y1295000D02*
Y1435000D01*
X5789999D02*
X5969999D01*
X5789999Y1295000D02*
X5969999D01*
X4985000Y360000D02*
Y1100000D01*
Y360000D02*
X5190000D01*
Y400000D01*
X6610000D01*
Y360000D02*
Y400000D01*
Y360000D02*
X6815000D01*
Y1100000D01*
X4985000D02*
X6815000D01*
X2365000Y2295000D02*
X2615000D01*
X2365000Y1975000D02*
Y2295000D01*
Y1975000D02*
X2615000D01*
Y2295000D01*
Y1975000D02*
Y2295000D01*
X2365000D02*
X2615000D01*
X2365000Y1975000D02*
Y2295000D01*
Y1975000D02*
X2615000D01*
X1802524Y1327419D02*
X1977524D01*
X1802524Y1232419D02*
X1977524D01*
Y1327419D01*
X1802524Y1232419D02*
Y1327419D01*
X6722499Y3460000D02*
Y3520000D01*
X6612499Y3460000D02*
Y3520000D01*
X6722499D01*
X6612499Y3460000D02*
X6722499D01*
X120000Y2002001D02*
Y2772001D01*
Y2002001D02*
X382999D01*
X120000Y2772001D02*
X382999D01*
Y2002001D02*
Y2772001D01*
X6239999Y3130000D02*
X6560000D01*
X6239999Y2960000D02*
X6560000D01*
X6239999D02*
Y3130000D01*
X6560000Y2960000D02*
Y3130000D01*
X1315000Y755000D02*
Y875000D01*
X1115000D02*
X1315000D01*
X1115000Y755000D02*
Y875000D01*
Y755000D02*
X1315000D01*
X2849974Y3160500D02*
X3299974D01*
X2849974Y3439500D02*
X3299974D01*
Y3160500D02*
Y3439500D01*
X2849974Y3160500D02*
Y3439500D01*
X2825000Y3797500D02*
X2922500Y3700000D01*
X2825000Y3797500D02*
Y4250000D01*
X3375000D01*
Y3797500D02*
Y4250000D01*
X3277500Y3700000D02*
X3375000Y3797500D01*
X2922500Y3700000D02*
X3277500D01*
X3705000Y3030000D02*
X4155000D01*
X3705000Y3790000D02*
X4155000D01*
Y3030000D02*
Y3790000D01*
X3705000Y3030000D02*
Y3790000D01*
X4939999Y3120000D02*
Y3480000D01*
X4659999Y3120000D02*
Y3480000D01*
Y3120000D02*
X4939999D01*
X4659999Y3480000D02*
X4939999D01*
X7754998Y899975D02*
Y1069975D01*
X7664998Y899975D02*
Y1069975D01*
Y899975D02*
X7754998D01*
X7664998Y1069975D02*
X7754998D01*
X1617499Y1927500D02*
X1672499D01*
X1617499Y1822500D02*
X1672499D01*
X1617499D02*
Y1927500D01*
X1672499Y1822500D02*
Y1927500D01*
X1299997Y1324981D02*
X2099997D01*
X1299997Y2124981D02*
X2099997D01*
X1299997Y1324981D02*
Y2124981D01*
X2099997Y1324981D02*
Y2124981D01*
X615000Y105000D02*
Y395000D01*
Y105000D02*
X1005000D01*
Y395000D01*
X615000D02*
X1005000D01*
X5515000Y207500D02*
X5685000D01*
X5515000Y117500D02*
X5685000D01*
Y207500D01*
X5515000Y117500D02*
Y207500D01*
X5055000Y902500D02*
X5145000D01*
X5055000Y1072500D02*
X5145000D01*
Y902500D02*
Y1072500D01*
X5055000Y902500D02*
Y1072500D01*
X5764999Y515000D02*
Y685000D01*
X5674999Y515000D02*
Y685000D01*
Y515000D02*
X5764999D01*
X5674999Y685000D02*
X5764999D01*
X4795000Y145000D02*
Y315000D01*
X4885000Y145000D02*
Y315000D01*
X4795000Y145000D02*
X4885000D01*
X4795000Y315000D02*
X4885000D01*
X5005000Y1555000D02*
X5175000D01*
X5005000Y1465000D02*
X5175000D01*
X5005000D02*
Y1555000D01*
X5175000Y1465000D02*
Y1555000D01*
X5492524Y877500D02*
Y1047500D01*
X5582524Y877500D02*
Y1047500D01*
X5492524D02*
X5582524D01*
X5492524Y877500D02*
X5582524D01*
X5932575D02*
Y1047500D01*
X5842576Y877500D02*
Y1047500D01*
Y877500D02*
X5932575D01*
X5842576Y1047500D02*
X5932575D01*
X6475000Y1265000D02*
X6645000D01*
X6475000Y1355000D02*
X6645000D01*
X6475000Y1265000D02*
Y1355000D01*
X6645000Y1265000D02*
Y1355000D01*
X6174999D02*
X6344999D01*
X6174999Y1265000D02*
X6344999D01*
Y1355000D01*
X6174999Y1265000D02*
Y1355000D01*
X6557499Y877500D02*
Y1047500D01*
X6467499Y877500D02*
Y1047500D01*
Y877500D02*
X6557499D01*
X6467499Y1047500D02*
X6557499D01*
X6440000Y207500D02*
X6610000D01*
X6440000Y117500D02*
X6610000D01*
Y207500D01*
X6440000Y117500D02*
Y207500D01*
X6760000Y2392500D02*
X6930000D01*
X6760000Y2482500D02*
X6930000D01*
X6760000Y2392500D02*
Y2482500D01*
X6930000Y2392500D02*
Y2482500D01*
X6772499Y2705000D02*
X6942499D01*
X6772499Y2795000D02*
X6942499D01*
X6772499Y2705000D02*
Y2795000D01*
X6942499Y2705000D02*
Y2795000D01*
X6760000Y2092500D02*
X6930000D01*
X6760000Y2182500D02*
X6930000D01*
X6760000Y2092500D02*
Y2182500D01*
X6930000Y2092500D02*
Y2182500D01*
X7209974Y3179949D02*
X7299974D01*
X7209974Y3009949D02*
X7299974D01*
X7209974D02*
Y3179949D01*
X7299974Y3009949D02*
Y3179949D01*
X6760000Y2242500D02*
X6930000D01*
X6760000Y2332500D02*
X6930000D01*
X6760000Y2242500D02*
Y2332500D01*
X6930000Y2242500D02*
Y2332500D01*
X7402499Y1790000D02*
Y1960000D01*
X7312499Y1790000D02*
Y1960000D01*
Y1790000D02*
X7402499D01*
X7312499Y1960000D02*
X7402499D01*
X6772499Y2855000D02*
X6942499D01*
X6772499Y2945000D02*
X6942499D01*
X6772499Y2855000D02*
Y2945000D01*
X6942499Y2855000D02*
Y2945000D01*
X6760000Y1942500D02*
X6930000D01*
X6760000Y2032500D02*
X6930000D01*
X6760000Y1942500D02*
Y2032500D01*
X6930000Y1942500D02*
Y2032500D01*
X8094999Y3545000D02*
Y3715000D01*
X8004999Y3545000D02*
Y3715000D01*
Y3545000D02*
X8094999D01*
X8004999Y3715000D02*
X8094999D01*
X7389999Y2269924D02*
X7560000D01*
X7389999Y2359923D02*
X7560000D01*
X7389999Y2269924D02*
Y2359923D01*
X7560000Y2269924D02*
Y2359923D01*
X7389999Y3129949D02*
X7560000D01*
X7389999Y3219949D02*
X7560000D01*
X7389999Y3129949D02*
Y3219949D01*
X7560000Y3129949D02*
Y3219949D01*
X6772499Y3932500D02*
X6942499D01*
X6772499Y3842500D02*
X6942499D01*
Y3932500D01*
X6772499Y3842500D02*
Y3932500D01*
X7785000Y3715000D02*
X7875000D01*
X7785000Y3545000D02*
X7875000D01*
X7785000D02*
Y3715000D01*
X7875000Y3545000D02*
Y3715000D01*
X7125000Y2647500D02*
X7215000D01*
X7125000Y2477500D02*
X7215000D01*
X7125000D02*
Y2647500D01*
X7215000Y2477500D02*
Y2647500D01*
X6772499Y3757500D02*
X6942499D01*
X6772499Y3667500D02*
X6942499D01*
Y3757500D01*
X6772499Y3667500D02*
Y3757500D01*
Y4095000D02*
X6942499D01*
X6772499Y4005000D02*
X6942499D01*
Y4095000D01*
X6772499Y4005000D02*
Y4095000D01*
X7524999Y3515000D02*
Y3685000D01*
X7614999Y3515000D02*
Y3685000D01*
X7524999D02*
X7614999D01*
X7524999Y3515000D02*
X7614999D01*
X4470025Y3772500D02*
X4567525Y3675000D01*
X4470025Y3772500D02*
Y4225000D01*
X5020025D01*
Y3772500D02*
Y4225000D01*
X4922525Y3675000D02*
X5020025Y3772500D01*
X4567525Y3675000D02*
X4922525D01*
X2474999Y3345000D02*
X2924999D01*
X2474999Y4105000D02*
X2924999D01*
Y3345000D02*
Y4105000D01*
X2474999Y3345000D02*
Y4105000D01*
X2255000Y3440000D02*
X2705000D01*
X2255000Y4200000D02*
X2705000D01*
X2255000Y3440000D02*
Y4200000D01*
X2705000Y3440000D02*
Y4200000D01*
X1215000Y3985000D02*
Y4155000D01*
X1305000Y3985000D02*
Y4155000D01*
X1215000Y3985000D02*
X1305000D01*
X1215000Y4155000D02*
X1305000D01*
X1269998Y4040000D02*
Y4210000D01*
X1179999Y4040000D02*
Y4210000D01*
Y4040000D02*
X1269998D01*
X1179999Y4210000D02*
X1269998D01*
X1755000Y3885000D02*
Y4055000D01*
X1845000Y3885000D02*
Y4055000D01*
X1755000Y3885000D02*
X1845000D01*
X1755000Y4055000D02*
X1845000D01*
X2190000Y3820000D02*
Y4180000D01*
X1910000Y3820000D02*
Y4180000D01*
X2190000D01*
X1910000Y3820000D02*
X2190000D01*
X489975Y3420000D02*
X939975D01*
X489975Y4180000D02*
X939975D01*
X489975Y3420000D02*
Y4180000D01*
X939975Y3420000D02*
Y4180000D01*
X424949Y3470000D02*
Y3830000D01*
X144949Y3470000D02*
Y3830000D01*
X424949D01*
X144949Y3470000D02*
X424949D01*
X625000Y3015000D02*
Y3185000D01*
X535000Y3015000D02*
Y3185000D01*
X625000D01*
X535000Y3015000D02*
X625000D01*
X6685023Y325000D02*
Y685000D01*
X6965023Y325000D02*
Y685000D01*
X6685023D02*
X6965023D01*
X6685023Y325000D02*
X6965023D01*
X7105049Y430000D02*
Y600000D01*
X7015049Y430000D02*
Y600000D01*
Y430000D02*
X7105049D01*
X7015049Y600000D02*
X7105049D01*
X7164998Y750025D02*
X7334999D01*
X7164998Y840025D02*
X7334999D01*
X7164998Y750025D02*
Y840025D01*
X7334999Y750025D02*
Y840025D01*
X1920075Y3345000D02*
X2370075D01*
X1920075Y4105000D02*
X2370075D01*
Y3345000D02*
Y4105000D01*
X1920075Y3345000D02*
Y4105000D01*
X1850049Y3390000D02*
Y3560000D01*
X1760049Y3390000D02*
Y3560000D01*
Y3390000D02*
X1850049D01*
X1760049Y3560000D02*
X1850049D01*
X2104999Y430026D02*
X2274999D01*
X2104999Y340026D02*
X2274999D01*
Y430026D01*
X2104999Y340026D02*
Y430026D01*
X2115000Y535000D02*
X2285000D01*
X2115000Y625000D02*
X2285000D01*
Y535000D02*
Y625000D01*
X2115000Y535000D02*
Y625000D01*
Y345000D02*
X2285000D01*
X2115000Y435000D02*
X2285000D01*
Y345000D02*
Y435000D01*
X2115000Y345000D02*
Y435000D01*
X2104999Y645000D02*
X2274999D01*
X2104999Y555000D02*
X2274999D01*
Y645000D01*
X2104999Y555000D02*
Y645000D01*
X5055000Y165000D02*
X5145000D01*
X5055000Y335000D02*
X5145000D01*
Y165000D02*
Y335000D01*
X5055000Y165000D02*
Y335000D01*
X4495736Y255000D02*
X4665736D01*
X4495736Y345000D02*
X4665736D01*
Y255000D02*
Y345000D01*
X4495736Y255000D02*
Y345000D01*
X4927500Y807500D02*
X5097500D01*
X4927500Y717500D02*
X5097500D01*
Y807500D01*
X4927500Y717500D02*
Y807500D01*
X3305000Y875000D02*
X3475000D01*
X3305000Y785000D02*
X3475000D01*
Y875000D01*
X3305000Y785000D02*
Y875000D01*
X3615000Y1595000D02*
X3704999D01*
X3615000Y1425000D02*
X3704999D01*
X3615000D02*
Y1595000D01*
X3704999Y1425000D02*
Y1595000D01*
X3615000Y1125000D02*
X3704999D01*
X3615000Y1295000D02*
X3704999D01*
Y1125000D02*
Y1295000D01*
X3615000Y1125000D02*
Y1295000D01*
X3705000Y825000D02*
Y995000D01*
X3615000Y825000D02*
Y995000D01*
Y825000D02*
X3705000D01*
X3615000Y995000D02*
X3705000D01*
X3795075Y1255000D02*
X3965076D01*
X3795075Y1345000D02*
X3965076D01*
X3795075Y1255000D02*
Y1345000D01*
X3965076Y1255000D02*
Y1345000D01*
X3795000Y825000D02*
X3965000D01*
X3795000Y915000D02*
X3965000D01*
X3795000Y825000D02*
Y915000D01*
X3965000Y825000D02*
Y915000D01*
X3097525Y2890052D02*
Y3060052D01*
X3007526Y2890052D02*
Y3060052D01*
Y2890052D02*
X3097525D01*
X3007526Y3060052D02*
X3097525D01*
X2867500Y2890052D02*
X2957500D01*
X2867500Y3060052D02*
X2957500D01*
Y2890052D02*
Y3060052D01*
X2867500Y2890052D02*
Y3060052D01*
X3415000Y3005000D02*
Y3095000D01*
X3245000Y3005000D02*
Y3095000D01*
X3415000D01*
X3245000Y3005000D02*
X3415000D01*
X4135000Y1805000D02*
X4305000D01*
X4135000Y1715000D02*
X4305000D01*
X4135000D02*
Y1805000D01*
X4305000Y1715000D02*
Y1805000D01*
X4825000Y1515000D02*
Y1685000D01*
X4915000Y1515000D02*
Y1685000D01*
X4825000Y1515000D02*
X4915000D01*
X4825000Y1685000D02*
X4915000D01*
X6085000Y1575000D02*
Y1745000D01*
X5995000Y1575000D02*
Y1745000D01*
X6085000D01*
X5995000Y1575000D02*
X6085000D01*
X7462500Y1952500D02*
X7552500D01*
X7462500Y2122500D02*
X7552500D01*
Y1952500D02*
Y2122500D01*
X7462500Y1952500D02*
Y2122500D01*
X3425000Y1715000D02*
X3595000D01*
X3425000Y1805000D02*
X3595000D01*
Y1715000D02*
Y1805000D01*
X3425000Y1715000D02*
Y1805000D01*
X6335000Y2759975D02*
X6505000D01*
X6335000Y2669975D02*
X6505000D01*
Y2759975D01*
X6335000Y2669975D02*
Y2759975D01*
X6235000Y3495000D02*
Y3665000D01*
X6145000Y3495000D02*
Y3665000D01*
X6235000D01*
X6145000Y3495000D02*
X6235000D01*
X7087500Y1790000D02*
X7177500D01*
X7087500Y1960000D02*
X7177500D01*
Y1790000D02*
Y1960000D01*
X7087500Y1790000D02*
Y1960000D01*
X6302475Y3025000D02*
X6392475D01*
X6302475Y3195000D02*
X6392475D01*
Y3025000D02*
Y3195000D01*
X6302475Y3025000D02*
Y3195000D01*
X5735000Y1535000D02*
X5905000D01*
X5735000Y1625000D02*
X5905000D01*
Y1535000D02*
Y1625000D01*
X5735000Y1535000D02*
Y1625000D01*
X1092500Y1682500D02*
X1147500D01*
X1092500Y1787500D02*
X1147500D01*
X1092500Y1682500D02*
Y1787500D01*
X1147500Y1682500D02*
Y1787500D01*
X1034999Y1660000D02*
Y1830000D01*
X945000Y1660000D02*
Y1830000D01*
X1034999D01*
X945000Y1660000D02*
X1034999D01*
X1162500Y1757500D02*
Y1862500D01*
X1217500Y1757500D02*
Y1862500D01*
X1162500D02*
X1217500D01*
X1162500Y1757500D02*
X1217500D01*
X1757545Y1412444D02*
X1812545D01*
X1757545Y1517445D02*
X1812545D01*
Y1412444D02*
Y1517445D01*
X1757545Y1412444D02*
Y1517445D01*
X1687500Y1487500D02*
Y1542500D01*
X1582500Y1487500D02*
Y1542500D01*
X1687500D01*
X1582500Y1487500D02*
X1687500D01*
X1499998Y1350000D02*
X1669998D01*
X1499998Y1440000D02*
X1669998D01*
X1499998Y1350000D02*
Y1440000D01*
X1669998Y1350000D02*
Y1440000D01*
X2242500Y2182500D02*
X2297500D01*
X2242500Y2287500D02*
X2297500D01*
X2242500Y2182500D02*
Y2287500D01*
X2297500Y2182500D02*
Y2287500D01*
X2242499Y2087500D02*
X2297499D01*
X2242499Y1982500D02*
X2297499D01*
Y2087500D01*
X2242499Y1982500D02*
Y2087500D01*
X1262499Y942500D02*
Y997500D01*
X1367499Y942500D02*
Y997500D01*
X1262499D02*
X1367499D01*
X1262499Y942500D02*
X1367499D01*
X1167474Y942500D02*
Y997500D01*
X1062474Y942500D02*
Y997500D01*
Y942500D02*
X1167474D01*
X1062474Y997500D02*
X1167474D01*
X1907500Y1587500D02*
Y1642500D01*
X1802500Y1587500D02*
Y1642500D01*
X1907500D01*
X1802500Y1587500D02*
X1907500D01*
Y1697500D02*
Y1752500D01*
X1802500Y1697500D02*
Y1752500D01*
X1907500D01*
X1802500Y1697500D02*
X1907500D01*
X1980025Y1669975D02*
X2070025D01*
X1980025Y1499975D02*
X2070025D01*
X1980025D02*
Y1669975D01*
X2070025Y1499975D02*
Y1669975D01*
X1837499Y1927500D02*
X1892499D01*
X1837499Y1822500D02*
X1892499D01*
X1837499D02*
Y1927500D01*
X1892499Y1822500D02*
Y1927500D01*
X1782500Y1822500D02*
Y1927500D01*
X1727500Y1822500D02*
Y1927500D01*
Y1822500D02*
X1782500D01*
X1727500Y1927500D02*
X1782500D01*
X1497499Y1587501D02*
Y1642500D01*
X1602499Y1587501D02*
Y1642500D01*
X1497499Y1587501D02*
X1602499D01*
X1497499Y1642500D02*
X1602499D01*
X1497499Y1697500D02*
Y1752500D01*
X1602499Y1697500D02*
Y1752500D01*
X1497499Y1697500D02*
X1602499D01*
X1497499Y1752500D02*
X1602499D01*
X2030024Y1850000D02*
Y2020000D01*
X1940024Y1850000D02*
Y2020000D01*
Y1850000D02*
X2030024D01*
X1940024Y2020000D02*
X2030024D01*
X664999Y930000D02*
X834999D01*
X664999Y1020000D02*
X834999D01*
X664999Y930000D02*
Y1020000D01*
X834999Y930000D02*
Y1020000D01*
X1014999Y1585000D02*
X1184999D01*
X1014999Y1675000D02*
X1184999D01*
X1014999Y1585000D02*
Y1675000D01*
X1184999Y1585000D02*
Y1675000D01*
X1465000Y225000D02*
X1635000D01*
X1465000Y135000D02*
X1635000D01*
X1465000D02*
Y225000D01*
X1635000Y135000D02*
Y225000D01*
X654999Y350000D02*
X824999D01*
X654999Y260000D02*
X824999D01*
Y350000D01*
X654999Y260000D02*
Y350000D01*
X664998Y404897D02*
X834999D01*
X664998Y494896D02*
X834999D01*
X664998Y404897D02*
Y494896D01*
X834999Y404897D02*
Y494896D01*
X3765000Y825000D02*
X3935000D01*
X3765000Y915000D02*
X3935000D01*
Y825000D02*
Y915000D01*
X3765000Y825000D02*
Y915000D01*
X4058125Y2655625D02*
X4148125D01*
X4058125Y2485625D02*
X4148125D01*
X4058125D02*
Y2655625D01*
X4148125Y2485625D02*
Y2655625D01*
X5495000Y3665000D02*
X5585000D01*
X5495000Y3835000D02*
X5585000D01*
Y3665000D02*
Y3835000D01*
X5495000Y3665000D02*
Y3835000D01*
X6162475Y3325000D02*
X6252475D01*
X6162475Y3495000D02*
X6252475D01*
Y3325000D02*
Y3495000D01*
X6162475Y3325000D02*
Y3495000D01*
X6442500Y3495000D02*
X6532500D01*
X6442500Y3665000D02*
X6532500D01*
Y3495000D02*
Y3665000D01*
X6442500Y3495000D02*
Y3665000D01*
Y3355000D02*
X6532500D01*
X6442500Y3185000D02*
X6532500D01*
X6442500D02*
Y3355000D01*
X6532500Y3185000D02*
Y3355000D01*
X5605000Y4005000D02*
Y4175000D01*
X5695000Y4005000D02*
Y4175000D01*
X5605000Y4005000D02*
X5695000D01*
X5605000Y4175000D02*
X5695000D01*
X5135000Y3835000D02*
X5305000D01*
X5135000Y3745000D02*
X5305000D01*
X5135000D02*
Y3835000D01*
X5305000Y3745000D02*
Y3835000D01*
X4965000Y3725000D02*
X5135000D01*
X4965000Y3635000D02*
X5135000D01*
Y3725000D01*
X4965000Y3635000D02*
Y3725000D01*
X5585000Y3965000D02*
Y4135000D01*
X5495000Y3965000D02*
Y4135000D01*
Y3965000D02*
X5585000D01*
X5495000Y4135000D02*
X5585000D01*
X4674999Y3995000D02*
X4844999D01*
X4674999Y4085000D02*
X4844999D01*
X4674999Y3995000D02*
Y4085000D01*
X4844999Y3995000D02*
Y4085000D01*
X5725000Y3725000D02*
X5895000D01*
X5725000Y3635000D02*
X5895000D01*
Y3725000D01*
X5725000Y3635000D02*
Y3725000D01*
X5545000Y2775000D02*
X5715000D01*
X5545000Y2865000D02*
X5715000D01*
Y2775000D02*
Y2865000D01*
X5545000Y2775000D02*
Y2865000D01*
X5195000Y2775000D02*
X5365000D01*
X5195000Y2865000D02*
X5365000D01*
Y2775000D02*
Y2865000D01*
X5195000Y2775000D02*
Y2865000D01*
X4935000Y2385000D02*
Y2555000D01*
X5025000Y2385000D02*
Y2555000D01*
X4935000Y2385000D02*
X5025000D01*
X4935000Y2555000D02*
X5025000D01*
X5995000Y2505000D02*
X6165000D01*
X5995000Y2595000D02*
X6165000D01*
Y2505000D02*
Y2595000D01*
X5995000Y2505000D02*
Y2595000D01*
X5865000Y1625000D02*
X6035000D01*
X5865000Y1535000D02*
X6035000D01*
Y1625000D01*
X5865000Y1535000D02*
Y1625000D01*
X5365000Y1555000D02*
Y1645000D01*
X5535000Y1555000D02*
Y1645000D01*
X5365000Y1555000D02*
X5535000D01*
X5365000Y1645000D02*
X5535000D01*
X5225000Y1885000D02*
Y2055000D01*
X5135000Y1885000D02*
Y2055000D01*
Y1885000D02*
X5225000D01*
X5135000Y2055000D02*
X5225000D01*
X5775000Y1845000D02*
Y2015000D01*
X5685000Y1845000D02*
Y2015000D01*
Y1845000D02*
X5775000D01*
X5685000Y2015000D02*
X5775000D01*
X7315000Y295000D02*
X7485000D01*
X7315000Y205000D02*
X7485000D01*
X7315000D02*
Y295000D01*
X7485000Y205000D02*
Y295000D01*
X7715000Y895000D02*
Y1065000D01*
X7805000Y895000D02*
Y1065000D01*
X7715000Y895000D02*
X7805000D01*
X7715000Y1065000D02*
X7805000D01*
X7358076Y1358284D02*
X7478285Y1238076D01*
X7421716Y1421924D02*
X7541924Y1301715D01*
X7478285Y1238076D02*
X7541924Y1301715D01*
X7358076Y1358284D02*
X7421716Y1421924D01*
X7915000Y1495000D02*
X8085000D01*
X7915000Y1585000D02*
X8085000D01*
Y1495000D02*
Y1585000D01*
X7915000Y1495000D02*
Y1585000D01*
X7615000D02*
X7785000D01*
X7615000Y1495000D02*
X7785000D01*
X7615000D02*
Y1585000D01*
X7785000Y1495000D02*
Y1585000D01*
X7915023Y1330759D02*
X8085023D01*
X7915023Y1420759D02*
X8085023D01*
X7915023Y1330759D02*
Y1420759D01*
X8085023Y1330759D02*
Y1420759D01*
X5690000Y92500D02*
Y232500D01*
X5510000Y92500D02*
Y232500D01*
Y92500D02*
X5690000D01*
X5510000Y232500D02*
X5690000D01*
X5345026Y872500D02*
Y1052500D01*
X5205025Y872500D02*
Y1052500D01*
Y872500D02*
X5345026D01*
X5205025Y1052500D02*
X5345026D01*
X5829999Y450000D02*
X5969999D01*
X5829999Y630000D02*
X5969999D01*
Y450000D02*
Y630000D01*
X5829999Y450000D02*
Y630000D01*
X5240000Y92500D02*
Y232500D01*
X5060000Y92500D02*
Y232500D01*
Y92500D02*
X5240000D01*
X5060000Y232500D02*
X5240000D01*
X5190000Y1260000D02*
Y1400000D01*
X5370000Y1260000D02*
Y1400000D01*
X5190000D02*
X5370000D01*
X5190000Y1260000D02*
X5370000D01*
X5642550Y1052500D02*
X5782550D01*
X5642550Y872500D02*
X5782550D01*
X5642550D02*
Y1052500D01*
X5782550Y872500D02*
Y1052500D01*
X6560000Y1320000D02*
Y1460000D01*
X6380000Y1320000D02*
Y1460000D01*
Y1320000D02*
X6560000D01*
X6380000Y1460000D02*
X6560000D01*
X6029999Y1065000D02*
X6169999D01*
X6029999Y885000D02*
X6169999D01*
X6029999D02*
Y1065000D01*
X6169999Y885000D02*
Y1065000D01*
X6242499D02*
X6382499D01*
X6242499Y885000D02*
X6382499D01*
X6242499D02*
Y1065000D01*
X6382499Y885000D02*
Y1065000D01*
X6530000Y2330000D02*
Y2470000D01*
X6350000Y2330000D02*
Y2470000D01*
Y2330000D02*
X6530000D01*
X6350000Y2470000D02*
X6530000D01*
Y2540000D02*
Y2680000D01*
X6350000Y2540000D02*
Y2680000D01*
Y2540000D02*
X6530000D01*
X6350000Y2680000D02*
X6530000D01*
Y1910000D02*
Y2050000D01*
X6350000Y1910000D02*
Y2050000D01*
Y1910000D02*
X6530000D01*
X6350000Y2050000D02*
X6530000D01*
X7839999Y2930000D02*
Y3070000D01*
X8019999Y2930000D02*
Y3070000D01*
X7839999Y2930000D02*
X8019999D01*
X7839999Y3070000D02*
X8019999D01*
X7860000Y1990000D02*
X8000000D01*
X7860000Y2290000D02*
X8000000D01*
Y1990000D02*
Y2290000D01*
X7860000Y1990000D02*
Y2290000D01*
X6530000Y2120000D02*
Y2260000D01*
X6350000Y2120000D02*
Y2260000D01*
Y2120000D02*
X6530000D01*
X6350000Y2260000D02*
X6530000D01*
X7799999Y1894974D02*
Y2034974D01*
X7980000Y1894974D02*
Y2034974D01*
X7799999Y1894974D02*
X7980000D01*
X7799999Y2034974D02*
X7980000D01*
X6530000Y2760000D02*
Y2900000D01*
X6350000Y2760000D02*
Y2900000D01*
Y2760000D02*
X6530000D01*
X6350000Y2900000D02*
X6530000D01*
Y1700000D02*
Y1840000D01*
X6350000Y1700000D02*
Y1840000D01*
Y1700000D02*
X6530000D01*
X6350000Y1840000D02*
X6530000D01*
X7970000Y3770000D02*
X8110000D01*
X7970000Y3590000D02*
X8110000D01*
Y3770000D01*
X7970000Y3590000D02*
Y3770000D01*
X7535000Y2430000D02*
Y2570000D01*
X7355000Y2430000D02*
Y2570000D01*
X7535000D01*
X7355000Y2430000D02*
X7535000D01*
X7540000Y3279975D02*
Y3419975D01*
X7360000Y3279975D02*
Y3419975D01*
X7540000D01*
X7360000Y3279975D02*
X7540000D01*
X6530000Y3790000D02*
Y3930000D01*
X6350000Y3790000D02*
Y3930000D01*
Y3790000D02*
X6530000D01*
X6350000Y3930000D02*
X6530000D01*
X7760000Y3770000D02*
X7900000D01*
X7760000Y3590000D02*
X7900000D01*
Y3770000D01*
X7760000Y3590000D02*
Y3770000D01*
X7547499Y2680000D02*
Y2820000D01*
X7367499Y2680000D02*
Y2820000D01*
X7547499D01*
X7367499Y2680000D02*
X7547499D01*
X6470000Y3640000D02*
X6610000D01*
X6470000Y3460000D02*
X6610000D01*
Y3640000D01*
X6470000Y3460000D02*
Y3640000D01*
X6530000Y4000000D02*
Y4140000D01*
X6350000Y4000000D02*
Y4140000D01*
Y4000000D02*
X6530000D01*
X6350000Y4140000D02*
X6530000D01*
X5980000Y3165000D02*
X6120000D01*
X5980000Y2985000D02*
X6120000D01*
Y3165000D01*
X5980000Y2985000D02*
Y3165000D01*
X2530000Y210000D02*
Y390000D01*
X2390000Y210000D02*
Y390000D01*
Y210000D02*
X2530000D01*
X2390000Y390000D02*
X2530000D01*
X2600000Y210000D02*
Y390000D01*
X2740000Y210000D02*
Y390000D01*
X2600000D02*
X2740000D01*
X2600000Y210000D02*
X2740000D01*
X2440000Y640000D02*
X2580000D01*
X2440000Y820000D02*
X2580000D01*
X2440000Y640000D02*
Y820000D01*
X2580000Y640000D02*
Y820000D01*
X2650000D02*
X2790000D01*
X2650000Y640000D02*
X2790000D01*
Y820000D01*
X2650000Y640000D02*
Y820000D01*
X2440000Y390000D02*
X2580000D01*
X2440000Y210000D02*
X2580000D01*
Y390000D01*
X2440000Y210000D02*
Y390000D01*
X2650000Y210000D02*
X2790000D01*
X2650000Y390000D02*
X2790000D01*
X2650000Y210000D02*
Y390000D01*
X2790000Y210000D02*
Y390000D01*
X2390000Y640000D02*
Y820000D01*
X2530000Y640000D02*
Y820000D01*
X2390000D02*
X2530000D01*
X2390000Y640000D02*
X2530000D01*
X2740000D02*
Y820000D01*
X2600000Y640000D02*
Y820000D01*
Y640000D02*
X2740000D01*
X2600000Y820000D02*
X2740000D01*
X4289999Y1070000D02*
X4429999D01*
X4289999Y1250000D02*
X4429999D01*
Y1070000D02*
Y1250000D01*
X4289999Y1070000D02*
Y1250000D01*
X4649999Y830000D02*
Y1010000D01*
X4509999Y830000D02*
Y1010000D01*
Y830000D02*
X4649999D01*
X4509999Y1010000D02*
X4649999D01*
X4210000Y1070000D02*
Y1250000D01*
X4070000Y1070000D02*
Y1250000D01*
Y1070000D02*
X4210000D01*
X4070000Y1250000D02*
X4210000D01*
X4150076Y770000D02*
Y910000D01*
X4330076Y770000D02*
Y910000D01*
X4150076Y770000D02*
X4330076D01*
X4150076Y910000D02*
X4330076D01*
X4822500Y1387500D02*
X4997500D01*
X4822500Y1292500D02*
X4997500D01*
X4822500D02*
Y1387500D01*
X4997500Y1292500D02*
Y1387500D01*
X5532499Y1327500D02*
Y1502500D01*
X5627499Y1327500D02*
Y1502500D01*
X5532499Y1327500D02*
X5627499D01*
X5532499Y1502500D02*
X5627499D01*
X6557500Y1532526D02*
Y1627526D01*
X6382500Y1532526D02*
Y1627526D01*
Y1532526D02*
X6557500D01*
X6382500Y1627526D02*
X6557500D01*
X7152499Y1687474D02*
X7327499D01*
X7152499Y1592475D02*
X7327499D01*
Y1687474D01*
X7152499Y1592475D02*
Y1687474D01*
X7840000Y1805000D02*
X7900000D01*
X7840000Y1915000D02*
X7900000D01*
X7840000Y1805000D02*
Y1915000D01*
X7900000Y1805000D02*
Y1915000D01*
X7970000Y1805000D02*
X8030000D01*
X7970000Y1915000D02*
X8030000D01*
X7970000Y1805000D02*
Y1915000D01*
X8030000Y1805000D02*
Y1915000D01*
X5992500Y2757500D02*
X6167500D01*
X5992500Y2662500D02*
X6167500D01*
X5992500D02*
Y2757500D01*
X6167500Y2662500D02*
Y2757500D01*
X6332500Y2822500D02*
X6507500D01*
X6332500Y2917500D02*
X6507500D01*
X6332500Y2822500D02*
Y2917500D01*
X6507500Y2822500D02*
Y2917500D01*
X7662524Y2137500D02*
X7757524D01*
X7662524Y2312500D02*
X7757524D01*
Y2137500D02*
Y2312500D01*
X7662524Y2137500D02*
Y2312500D01*
X6722499Y3330000D02*
Y3390000D01*
X6612499Y3330000D02*
Y3390000D01*
X6722499D01*
X6612499Y3330000D02*
X6722499D01*
X6795000Y2647500D02*
X6970000D01*
X6795000Y2552500D02*
X6970000D01*
Y2647500D01*
X6795000Y2552500D02*
Y2647500D01*
X6485000Y3082475D02*
X6660000D01*
X6485000Y2987475D02*
X6660000D01*
Y3082475D01*
X6485000Y2987475D02*
Y3082475D01*
X6302500Y3492500D02*
Y3667500D01*
X6397500Y3492500D02*
Y3667500D01*
X6302500Y3492500D02*
X6397500D01*
X6302500Y3667500D02*
X6397500D01*
X4250000Y3435000D02*
Y4085000D01*
X3599999D02*
X4250000D01*
X3599999Y3435000D02*
Y4085000D01*
Y3435000D02*
X4250000D01*
X5240000Y1598000D02*
Y1902000D01*
X5380000Y1598000D02*
Y1902000D01*
X5240000D02*
X5380000D01*
X5240000Y1598000D02*
X5380000D01*
X6364999Y1934923D02*
X6534999D01*
X6364999Y2024923D02*
X6534999D01*
X6364999Y1934923D02*
Y2024923D01*
X6534999Y1934923D02*
Y2024923D01*
X6364999Y2074949D02*
X6534999D01*
X6364999Y2164949D02*
X6534999D01*
X6364999Y2074949D02*
Y2164949D01*
X6534999Y2074949D02*
Y2164949D01*
X6364999Y2214974D02*
X6534999D01*
X6364999Y2304974D02*
X6534999D01*
X6364999Y2214974D02*
Y2304974D01*
X6534999Y2214974D02*
Y2304974D01*
X6364999Y2355000D02*
X6534999D01*
X6364999Y2445000D02*
X6534999D01*
X6364999Y2355000D02*
Y2445000D01*
X6534999Y2355000D02*
Y2445000D01*
X6404999Y4155000D02*
X6574999D01*
X6404999Y4065000D02*
X6574999D01*
Y4155000D01*
X6404999Y4065000D02*
Y4155000D01*
Y4295000D02*
X6574999D01*
X6404999Y4205000D02*
X6574999D01*
Y4295000D01*
X6404999Y4205000D02*
Y4295000D01*
X6315000Y3895000D02*
X6485000D01*
X6315000Y3985000D02*
X6485000D01*
X6315000Y3895000D02*
Y3985000D01*
X6485000Y3895000D02*
Y3985000D01*
X6305000Y4295000D02*
X6475000D01*
X6305000Y4205000D02*
X6475000D01*
X6305000D02*
Y4295000D01*
X6475000Y4205000D02*
Y4295000D01*
X7375000Y3685000D02*
X7465000D01*
X7375000Y3515000D02*
X7465000D01*
X7375000D02*
Y3685000D01*
X7465000Y3515000D02*
Y3685000D01*
X2395000Y3167500D02*
X2605000D01*
X2395000Y3032500D02*
X2605000D01*
X2395000D02*
Y3167500D01*
X2605000Y3032500D02*
Y3167500D01*
X2167500Y3215000D02*
Y3425000D01*
X2032500Y3215000D02*
Y3425000D01*
X2167500D01*
X2032500Y3215000D02*
X2167500D01*
X692500Y2995000D02*
Y3205000D01*
X827500Y2995000D02*
Y3205000D01*
X692500Y2995000D02*
X827500D01*
X692500Y3205000D02*
X827500D01*
X1340024Y4040000D02*
Y4210000D01*
X1430024Y4040000D02*
Y4210000D01*
X1340024D02*
X1430024D01*
X1340024Y4040000D02*
X1430024D01*
X1575000Y4035000D02*
Y4205000D01*
X1485000Y4035000D02*
Y4205000D01*
Y4035000D02*
X1575000D01*
X1485000Y4205000D02*
X1575000D01*
X7555025Y220000D02*
X7645025D01*
X7555025Y390000D02*
X7645025D01*
Y220000D02*
Y390000D01*
X7555025Y220000D02*
Y390000D01*
X7555025Y670026D02*
X7645025D01*
X7555025Y500026D02*
X7645025D01*
X7555025D02*
Y670026D01*
X7645025Y500026D02*
Y670026D01*
X6382499Y270000D02*
X6592499D01*
X6382499Y405000D02*
X6592499D01*
X6382499Y270000D02*
Y405000D01*
X6592499Y270000D02*
Y405000D01*
X7174999Y205000D02*
X7344999D01*
X7174999Y115000D02*
X7344999D01*
Y205000D01*
X7174999Y115000D02*
Y205000D01*
X712500Y2995000D02*
Y3205000D01*
X847500Y2995000D02*
Y3205000D01*
X712500D02*
X847500D01*
X712500Y2995000D02*
X847500D01*
X2945000Y175000D02*
X3035000D01*
X2945000Y345000D02*
X3035000D01*
Y175000D02*
Y345000D01*
X2945000Y175000D02*
Y345000D01*
X2104999Y200000D02*
X2274999D01*
X2104999Y290000D02*
X2274999D01*
X2104999Y200000D02*
Y290000D01*
X2274999Y200000D02*
Y290000D01*
X2805000Y365000D02*
X2895000D01*
X2805000Y195000D02*
X2895000D01*
X2805000D02*
Y365000D01*
X2895000Y195000D02*
Y365000D01*
X2985000Y555000D02*
Y725000D01*
X3075000Y555000D02*
Y725000D01*
X2985000Y555000D02*
X3075000D01*
X2985000Y725000D02*
X3075000D01*
X2165000Y770000D02*
X2335000D01*
X2165000Y680000D02*
X2335000D01*
X2165000D02*
Y770000D01*
X2335000Y680000D02*
Y770000D01*
X2935000Y555000D02*
Y725000D01*
X2845000Y555000D02*
Y725000D01*
X2935000D01*
X2845000Y555000D02*
X2935000D01*
X3095000Y155000D02*
Y325000D01*
X3005000Y155000D02*
Y325000D01*
X3095000D01*
X3005000Y155000D02*
X3095000D01*
X2165000Y290000D02*
X2335000D01*
X2165000Y200000D02*
X2335000D01*
X2165000D02*
Y290000D01*
X2335000Y200000D02*
Y290000D01*
X2845000Y155000D02*
Y325000D01*
X2935000Y155000D02*
Y325000D01*
X2845000Y155000D02*
X2935000D01*
X2845000Y325000D02*
X2935000D01*
X3034999Y485000D02*
Y655000D01*
X2944999Y485000D02*
Y655000D01*
Y485000D02*
X3034999D01*
X2944999Y655000D02*
X3034999D01*
X2094999Y695000D02*
X2264999D01*
X2094999Y785000D02*
X2264999D01*
X2094999Y695000D02*
Y785000D01*
X2264999Y695000D02*
Y785000D01*
X2805000Y555000D02*
X2895000D01*
X2805000Y725000D02*
X2895000D01*
Y555000D02*
Y725000D01*
X2805000Y555000D02*
Y725000D01*
X4914974Y165000D02*
X5004974D01*
X4914974Y335000D02*
X5004974D01*
Y165000D02*
Y335000D01*
X4914974Y165000D02*
Y335000D01*
X4485736Y405000D02*
X4655736D01*
X4485736Y495000D02*
X4655736D01*
Y405000D02*
Y495000D01*
X4485736Y405000D02*
Y495000D01*
X4735000Y905000D02*
X4825000D01*
X4735000Y1075000D02*
X4825000D01*
Y905000D02*
Y1075000D01*
X4735000Y905000D02*
Y1075000D01*
X5227500Y117500D02*
X5397500D01*
X5227500Y207500D02*
X5397500D01*
X5227500Y117500D02*
Y207500D01*
X5397500Y117500D02*
Y207500D01*
X4485000Y204974D02*
X4655000D01*
X4485000Y114974D02*
X4655000D01*
X4485000D02*
Y204974D01*
X4655000Y114974D02*
Y204974D01*
X4974999Y905000D02*
Y1075000D01*
X4884999Y905000D02*
Y1075000D01*
Y905000D02*
X4974999D01*
X4884999Y1075000D02*
X4974999D01*
X2974999Y1635000D02*
X3144999D01*
X2974999Y1545000D02*
X3144999D01*
Y1635000D01*
X2974999Y1545000D02*
Y1635000D01*
X3785000Y1545000D02*
X3954999D01*
X3785000Y1635000D02*
X3954999D01*
X3785000Y1545000D02*
Y1635000D01*
X3954999Y1545000D02*
Y1635000D01*
X3794999Y1055000D02*
X3964999D01*
X3794999Y965000D02*
X3964999D01*
Y1055000D01*
X3794999Y965000D02*
Y1055000D01*
X5565000Y425000D02*
X5735000D01*
X5565000Y335000D02*
X5735000D01*
Y425000D01*
X5565000Y335000D02*
Y425000D01*
X3795000Y1204974D02*
X3964999D01*
X3795000Y1114974D02*
X3964999D01*
Y1204974D01*
X3795000Y1114974D02*
Y1204974D01*
X7775000Y3187314D02*
X7945000D01*
X7775000Y3277314D02*
X7945000D01*
X7775000Y3187314D02*
Y3277314D01*
X7945000Y3187314D02*
Y3277314D01*
X7924999Y3327340D02*
X8094999D01*
X7924999Y3417340D02*
X8094999D01*
X7924999Y3327340D02*
Y3417340D01*
X8094999Y3327340D02*
Y3417340D01*
X5525000Y685000D02*
X5615000D01*
X5525000Y515000D02*
X5615000D01*
X5525000D02*
Y685000D01*
X5615000Y515000D02*
Y685000D01*
X4575000Y2125000D02*
X4745000D01*
X4575000Y2215000D02*
X4745000D01*
X4575000Y2125000D02*
Y2215000D01*
X4745000Y2125000D02*
Y2215000D01*
X4575000Y2435000D02*
X4745000D01*
X4575000Y2525000D02*
X4745000D01*
X4575000Y2435000D02*
Y2525000D01*
X4745000Y2435000D02*
Y2525000D01*
X2915000Y2655000D02*
X3085000D01*
X2915000Y2565000D02*
X3085000D01*
Y2655000D01*
X2915000Y2565000D02*
Y2655000D01*
Y2375000D02*
X3085000D01*
X2915000Y2285000D02*
X3085000D01*
Y2375000D01*
X2915000Y2285000D02*
Y2375000D01*
X4237500Y2217500D02*
X4407500D01*
X4237500Y2127500D02*
X4407500D01*
Y2217500D01*
X4237500Y2127500D02*
Y2217500D01*
Y2526250D02*
X4407500D01*
X4237500Y2436250D02*
X4407500D01*
Y2526250D01*
X4237500Y2436250D02*
Y2526250D01*
X3352500Y2565000D02*
X3522500D01*
X3352500Y2655000D02*
X3522500D01*
X3352500Y2565000D02*
Y2655000D01*
X3522500Y2565000D02*
Y2655000D01*
X3352500Y2285000D02*
X3522500D01*
X3352500Y2375000D02*
X3522500D01*
X3352500Y2285000D02*
Y2375000D01*
X3522500Y2285000D02*
Y2375000D01*
X4575000Y2275000D02*
X4745000D01*
X4575000Y2365000D02*
X4745000D01*
X4575000Y2275000D02*
Y2365000D01*
X4745000Y2275000D02*
Y2365000D01*
X4575000Y2585000D02*
X4745000D01*
X4575000Y2675000D02*
X4745000D01*
X4575000Y2585000D02*
Y2675000D01*
X4745000Y2585000D02*
Y2675000D01*
X2915000Y2515000D02*
X3085000D01*
X2915000Y2425000D02*
X3085000D01*
Y2515000D01*
X2915000Y2425000D02*
Y2515000D01*
Y2235000D02*
X3085000D01*
X2915000Y2145000D02*
X3085000D01*
Y2235000D01*
X2915000Y2145000D02*
Y2235000D01*
X4237500Y2363750D02*
X4407500D01*
X4237500Y2273750D02*
X4407500D01*
Y2363750D01*
X4237500Y2273750D02*
Y2363750D01*
Y2672500D02*
X4407500D01*
X4237500Y2582500D02*
X4407500D01*
Y2672500D01*
X4237500Y2582500D02*
Y2672500D01*
X3352500Y2425000D02*
X3522500D01*
X3352500Y2515000D02*
X3522500D01*
X3352500Y2425000D02*
Y2515000D01*
X3522500Y2425000D02*
Y2515000D01*
X3352500Y2145000D02*
X3522499D01*
X3352500Y2235000D02*
X3522499D01*
X3352500Y2145000D02*
Y2235000D01*
X3522499Y2145000D02*
Y2235000D01*
X3174999Y2945000D02*
X3344999D01*
X3174999Y2855000D02*
X3344999D01*
Y2945000D01*
X3174999Y2855000D02*
Y2945000D01*
X4515000Y1505000D02*
Y1675000D01*
X4605000Y1505000D02*
Y1675000D01*
X4515000Y1505000D02*
X4605000D01*
X4515000Y1675000D02*
X4605000D01*
X1595000Y2675000D02*
Y2845000D01*
X1685000Y2675000D02*
Y2845000D01*
X1595000D02*
X1685000D01*
X1595000Y2675000D02*
X1685000D01*
X4975000Y1665000D02*
Y1835000D01*
X5065000Y1665000D02*
Y1835000D01*
X4975000Y1665000D02*
X5065000D01*
X4975000Y1835000D02*
X5065000D01*
X2965000Y1845000D02*
X3135000D01*
X2965000Y1935000D02*
X3135000D01*
Y1845000D02*
Y1935000D01*
X2965000Y1845000D02*
Y1935000D01*
X5555000Y1625000D02*
Y1795000D01*
X5645000Y1625000D02*
Y1795000D01*
X5555000Y1625000D02*
X5645000D01*
X5555000Y1795000D02*
X5645000D01*
X5795000Y2475000D02*
X5965000D01*
X5795000Y2385000D02*
X5965000D01*
Y2475000D01*
X5795000Y2385000D02*
Y2475000D01*
X5532473Y2770000D02*
X5622473D01*
X5532473Y2600000D02*
X5622473D01*
X5532473D02*
Y2770000D01*
X5622473Y2600000D02*
Y2770000D01*
X3075000Y1375000D02*
X3245000D01*
X3075000Y1465000D02*
X3245000D01*
Y1375000D02*
Y1465000D01*
X3075000Y1375000D02*
Y1465000D01*
X3195000Y1615000D02*
X3365000D01*
X3195000Y1525000D02*
X3365000D01*
X3195000D02*
Y1615000D01*
X3365000Y1525000D02*
Y1615000D01*
X1259998Y977500D02*
X1319998D01*
X1259998Y1092500D02*
X1319998D01*
Y977500D02*
Y1092500D01*
X1259998Y977500D02*
Y1092500D01*
X1059974Y977500D02*
Y1092500D01*
X1119974Y977500D02*
Y1092500D01*
X1059974D02*
X1119974D01*
X1059974Y977500D02*
X1119974D01*
X1569974Y1077500D02*
X1629974D01*
X1569974Y962500D02*
X1629974D01*
Y1077500D01*
X1569974Y962500D02*
Y1077500D01*
X1180000Y2677500D02*
X1270000D01*
X1180000Y2847500D02*
X1270000D01*
Y2677500D02*
Y2847500D01*
X1180000Y2677500D02*
Y2847500D01*
X1354999Y2677500D02*
Y2847500D01*
X1444999Y2677500D02*
Y2847500D01*
X1354999D02*
X1444999D01*
X1354999Y2677500D02*
X1444999D01*
X1669999Y962500D02*
X1729999D01*
X1669999Y1077500D02*
X1729999D01*
X1669999Y962500D02*
Y1077500D01*
X1729999Y962500D02*
Y1077500D01*
X1067499Y2300000D02*
Y2360000D01*
X952499Y2300000D02*
Y2360000D01*
X1067499D01*
X952499Y2300000D02*
X1067499D01*
X1770000Y962500D02*
X1829999D01*
X1770000Y1077500D02*
X1829999D01*
X1770000Y962500D02*
Y1077500D01*
X1829999Y962500D02*
Y1077500D01*
X2417500Y1020000D02*
Y1080000D01*
X2302500Y1020000D02*
Y1080000D01*
Y1020000D02*
X2417500D01*
X2302500Y1080000D02*
X2417500D01*
X2302500Y1770101D02*
Y1830101D01*
X2417500Y1770101D02*
Y1830101D01*
X2302500D02*
X2417500D01*
X2302500Y1770101D02*
X2417500D01*
X2417500Y1110000D02*
Y1170000D01*
X2302500Y1110000D02*
Y1170000D01*
Y1110000D02*
X2417500D01*
X2302500Y1170000D02*
X2417500D01*
X2372500Y1740000D02*
Y1800000D01*
X2487500Y1740000D02*
Y1800000D01*
X2372500Y1740000D02*
X2487500D01*
X2372500Y1800000D02*
X2487500D01*
X2417500Y1210000D02*
Y1270000D01*
X2302500Y1210000D02*
Y1270000D01*
Y1210000D02*
X2417500D01*
X2302500Y1270000D02*
X2417500D01*
X1610075Y2477500D02*
X1670075D01*
X1610075Y2362500D02*
X1670075D01*
Y2477500D01*
X1610075Y2362500D02*
Y2477500D01*
X1510050D02*
X1570050D01*
X1510050Y2362500D02*
X1570050D01*
Y2477500D01*
X1510050Y2362500D02*
Y2477500D01*
X1610050Y2342500D02*
Y2457500D01*
X1550050Y2342500D02*
Y2457500D01*
Y2342500D02*
X1610050D01*
X1550050Y2457500D02*
X1610050D01*
X1410025Y2477500D02*
X1470025D01*
X1410025Y2362500D02*
X1470025D01*
Y2477500D01*
X1410025Y2362500D02*
Y2477500D01*
X1360024Y2342500D02*
X1420024D01*
X1360024Y2457500D02*
X1420024D01*
Y2342500D02*
Y2457500D01*
X1360024Y2342500D02*
Y2457500D01*
X937500Y2245000D02*
Y2305000D01*
X1052500Y2245000D02*
Y2305000D01*
X937500D02*
X1052500D01*
X937500Y2245000D02*
X1052500D01*
X1259998Y2342500D02*
X1319998D01*
X1259998Y2457500D02*
X1319998D01*
Y2342500D02*
Y2457500D01*
X1259998Y2342500D02*
Y2457500D01*
X1310000Y2362500D02*
X1370000D01*
X1310000Y2477500D02*
X1370000D01*
X1310000Y2362500D02*
Y2477500D01*
X1370000Y2362500D02*
Y2477500D01*
X952499Y2200000D02*
Y2260000D01*
X1067499Y2200000D02*
Y2260000D01*
X952499Y2200000D02*
X1067499D01*
X952499Y2260000D02*
X1067499D01*
X1210000Y2362500D02*
X1269999D01*
X1210000Y2477500D02*
X1269999D01*
X1210000Y2362500D02*
Y2477500D01*
X1269999Y2362500D02*
Y2477500D01*
X937500Y2145000D02*
Y2205000D01*
X1052500Y2145000D02*
Y2205000D01*
X937500D02*
X1052500D01*
X937500Y2145000D02*
X1052500D01*
X952499Y2100000D02*
Y2160000D01*
X1067499Y2100000D02*
Y2160000D01*
X952499Y2100000D02*
X1067499D01*
X952499Y2160000D02*
X1067499D01*
X992499Y1280000D02*
Y1340000D01*
X1107499Y1280000D02*
Y1340000D01*
X992499Y1280000D02*
X1107499D01*
X992499Y1340000D02*
X1107499D01*
X1670025Y977500D02*
Y1092500D01*
X1730025Y977500D02*
Y1092500D01*
X1670025D02*
X1730025D01*
X1670025Y977500D02*
X1730025D01*
X1469949Y1077500D02*
X1529949D01*
X1469949Y962500D02*
X1529949D01*
Y1077500D01*
X1469949Y962500D02*
Y1077500D01*
X1630000Y977500D02*
Y1092500D01*
X1570000Y977500D02*
Y1092500D01*
Y977500D02*
X1630000D01*
X1570000Y1092500D02*
X1630000D01*
X2210000Y1022500D02*
Y1137500D01*
X2150000Y1022500D02*
Y1137500D01*
Y1022500D02*
X2210000D01*
X2150000Y1137500D02*
X2210000D01*
X2417500Y1310000D02*
Y1370000D01*
X2302500Y1310000D02*
Y1370000D01*
Y1310000D02*
X2417500D01*
X2302500Y1370000D02*
X2417500D01*
X2487500Y1480000D02*
Y1540000D01*
X2372500Y1480000D02*
Y1540000D01*
X2487500D01*
X2372500Y1480000D02*
X2487500D01*
X2417500Y1410000D02*
Y1470000D01*
X2302500Y1410000D02*
Y1470000D01*
Y1410000D02*
X2417500D01*
X2302500Y1470000D02*
X2417500D01*
X2487500Y1610000D02*
Y1670000D01*
X2372500Y1610000D02*
Y1670000D01*
X2487500D01*
X2372500Y1610000D02*
X2487500D01*
X1850126Y2342500D02*
Y2457500D01*
X1910125Y2342500D02*
Y2457500D01*
X1850126D02*
X1910125D01*
X1850126Y2342500D02*
X1910125D01*
X1710100Y2477500D02*
X1770100D01*
X1710100Y2362500D02*
X1770100D01*
Y2477500D01*
X1710100Y2362500D02*
Y2477500D01*
X1710075Y2342500D02*
Y2457500D01*
X1650075Y2342500D02*
Y2457500D01*
Y2342500D02*
X1710075D01*
X1650075Y2457500D02*
X1710075D01*
X1810126Y2362500D02*
X1870126D01*
X1810126Y2477500D02*
X1870126D01*
X1810126Y2362500D02*
Y2477500D01*
X1870126Y2362500D02*
Y2477500D01*
X1750100Y2342500D02*
Y2457500D01*
X1810100Y2342500D02*
Y2457500D01*
X1750100D02*
X1810100D01*
X1750100Y2342500D02*
X1810100D01*
X1052500Y2045000D02*
Y2105000D01*
X937500Y2045000D02*
Y2105000D01*
Y2045000D02*
X1052500D01*
X937500Y2105000D02*
X1052500D01*
X1067499Y2000000D02*
Y2060000D01*
X952499Y2000000D02*
Y2060000D01*
X1067499D01*
X952499Y2000000D02*
X1067499D01*
X1052500Y1944975D02*
Y2004975D01*
X937500Y1944975D02*
Y2004975D01*
Y1944975D02*
X1052500D01*
X937500Y2004975D02*
X1052500D01*
X1219999Y977500D02*
Y1092500D01*
X1159999Y977500D02*
Y1092500D01*
Y977500D02*
X1219999D01*
X1159999Y1092500D02*
X1219999D01*
X1595025Y550000D02*
Y720000D01*
X1685025Y550000D02*
Y720000D01*
X1595025Y550000D02*
X1685025D01*
X1595025Y720000D02*
X1685025D01*
X1644999Y690000D02*
Y860000D01*
X1554999Y690000D02*
Y860000D01*
Y690000D02*
X1644999D01*
X1554999Y860000D02*
X1644999D01*
X1545000Y550000D02*
Y720000D01*
X1455000Y550000D02*
Y720000D01*
X1545000D01*
X1455000Y550000D02*
X1545000D01*
X1414973Y690000D02*
Y860000D01*
X1504973Y690000D02*
Y860000D01*
X1414973D02*
X1504973D01*
X1414973Y690000D02*
X1504973D01*
X2120051Y1655000D02*
X2210051D01*
X2120051Y1825000D02*
X2210051D01*
Y1655000D02*
Y1825000D01*
X2120051Y1655000D02*
Y1825000D01*
X1969998Y2200026D02*
X2139998D01*
X1969998Y2110026D02*
X2139998D01*
Y2200026D01*
X1969998Y2110026D02*
Y2200026D01*
X975000Y1755000D02*
X1065000D01*
X975000Y1925000D02*
X1065000D01*
Y1755000D02*
Y1925000D01*
X975000Y1755000D02*
Y1925000D01*
X434974Y934974D02*
X524974D01*
X434974Y1104974D02*
X524974D01*
Y934974D02*
Y1104974D01*
X434974Y934974D02*
Y1104974D01*
X1465000Y285000D02*
X1635000D01*
X1465000Y375000D02*
X1635000D01*
Y285000D02*
Y375000D01*
X1465000Y285000D02*
Y375000D01*
X294948Y934974D02*
X384948D01*
X294948Y1104974D02*
X384948D01*
Y934974D02*
Y1104974D01*
X294948Y934974D02*
Y1104974D01*
X1175000Y225000D02*
X1345000D01*
X1175000Y135000D02*
X1345000D01*
X1175000D02*
Y225000D01*
X1345000Y135000D02*
Y225000D01*
X664999Y120000D02*
X834999D01*
X664999Y210000D02*
X834999D01*
X664999Y120000D02*
Y210000D01*
X834999Y120000D02*
Y210000D01*
X3075000Y1235000D02*
X3245000D01*
X3075000Y1325000D02*
X3245000D01*
Y1235000D02*
Y1325000D01*
X3075000Y1235000D02*
Y1325000D01*
X1905000Y1075000D02*
X2075000D01*
X1905000Y1165000D02*
X2075000D01*
X1905000Y1075000D02*
Y1165000D01*
X2075000Y1075000D02*
Y1165000D01*
X3920624Y2835000D02*
X4090624D01*
X3920624Y2745000D02*
X4090624D01*
Y2835000D01*
X3920624Y2745000D02*
Y2835000D01*
X4072500Y1940026D02*
X4242500D01*
X4072500Y2030026D02*
X4242500D01*
X4072500Y1940026D02*
Y2030026D01*
X4242500Y1940026D02*
Y2030026D01*
X3555000Y2737500D02*
Y2907500D01*
X3465000Y2737500D02*
Y2907500D01*
Y2737500D02*
X3555000D01*
X3465000Y2907500D02*
X3555000D01*
X3636249Y2835000D02*
X3806249D01*
X3636249Y2745000D02*
X3806249D01*
Y2835000D01*
X3636249Y2745000D02*
Y2835000D01*
X5645000Y2865000D02*
X5815000D01*
X5645000Y2955000D02*
X5815000D01*
X5645000Y2865000D02*
Y2955000D01*
X5815000Y2865000D02*
Y2955000D01*
X6302500Y3515000D02*
X6392500D01*
X6302500Y3345000D02*
X6392500D01*
X6302500D02*
Y3515000D01*
X6392500Y3345000D02*
Y3515000D01*
X4225000Y3405000D02*
X4315000D01*
X4225000Y3575000D02*
X4315000D01*
Y3405000D02*
Y3575000D01*
X4225000Y3405000D02*
Y3575000D01*
X5874999Y3705000D02*
Y3875000D01*
X5964999Y3705000D02*
Y3875000D01*
X5874999Y3705000D02*
X5964999D01*
X5874999Y3875000D02*
X5964999D01*
X5425000Y3555000D02*
X5595000D01*
X5425000Y3465000D02*
X5595000D01*
X5425000D02*
Y3555000D01*
X5595000Y3465000D02*
Y3555000D01*
X5835000Y3995000D02*
Y4165000D01*
X5745000Y3995000D02*
Y4165000D01*
X5835000D01*
X5745000Y3995000D02*
X5835000D01*
X5555000D02*
Y4165000D01*
X5465000Y3995000D02*
Y4165000D01*
X5555000D01*
X5465000Y3995000D02*
X5555000D01*
X5145000Y3885000D02*
X5315000D01*
X5145000Y3975000D02*
X5315000D01*
Y3885000D02*
Y3975000D01*
X5145000Y3885000D02*
Y3975000D01*
X4534999Y3905000D02*
X4704999D01*
X4534999Y3815000D02*
X4704999D01*
Y3905000D01*
X4534999Y3815000D02*
Y3905000D01*
X4784999Y3705000D02*
X4874999D01*
X4784999Y3875000D02*
X4874999D01*
Y3705000D02*
Y3875000D01*
X4784999Y3705000D02*
Y3875000D01*
X5364999Y4225000D02*
X5534999D01*
X5364999Y4315000D02*
X5534999D01*
X5364999Y4225000D02*
Y4315000D01*
X5534999Y4225000D02*
Y4315000D01*
X4644999Y4135000D02*
X4814999D01*
X4644999Y4225000D02*
X4814999D01*
X4644999Y4135000D02*
Y4225000D01*
X4814999Y4135000D02*
Y4225000D01*
X4980000Y2725000D02*
X5150000D01*
X4980000Y2635000D02*
X5150000D01*
Y2725000D01*
X4980000Y2635000D02*
Y2725000D01*
X5145000Y2435000D02*
X5315000D01*
X5145000Y2525000D02*
X5315000D01*
X5145000Y2435000D02*
Y2525000D01*
X5315000Y2435000D02*
Y2525000D01*
X4870000Y2255000D02*
X5040000D01*
X4870000Y2165000D02*
X5040000D01*
X4870000D02*
Y2255000D01*
X5040000Y2165000D02*
Y2255000D01*
X5575000Y2445000D02*
X5745000D01*
X5575000Y2355000D02*
X5745000D01*
X5575000D02*
Y2445000D01*
X5745000Y2355000D02*
Y2445000D01*
X5805000Y2215000D02*
Y2305000D01*
X5635000Y2215000D02*
Y2305000D01*
Y2215000D02*
X5805000D01*
X5635000Y2305000D02*
X5805000D01*
X5695000Y2525000D02*
Y2695000D01*
X5605000Y2525000D02*
Y2695000D01*
X5695000D01*
X5605000Y2525000D02*
X5695000D01*
X5915000Y2265000D02*
X6085000D01*
X5915000Y2355000D02*
X6085000D01*
Y2265000D02*
Y2355000D01*
X5915000Y2265000D02*
Y2355000D01*
X4995000Y2235000D02*
X5165000D01*
X4995000Y2145000D02*
X5165000D01*
Y2235000D01*
X4995000Y2145000D02*
Y2235000D01*
X5395000Y2325000D02*
Y2495000D01*
X5485000Y2325000D02*
Y2495000D01*
X5395000D02*
X5485000D01*
X5395000Y2325000D02*
X5485000D01*
X5775000Y2135000D02*
Y2305000D01*
X5685000Y2135000D02*
Y2305000D01*
Y2135000D02*
X5775000D01*
X5685000Y2305000D02*
X5775000D01*
X5315000Y2295000D02*
Y2385000D01*
X5145000Y2295000D02*
Y2385000D01*
X5315000D01*
X5145000Y2295000D02*
X5315000D01*
X7025000Y1385000D02*
X7195000D01*
X7025000Y1295000D02*
X7195000D01*
X7025000D02*
Y1385000D01*
X7195000Y1295000D02*
Y1385000D01*
X7795000Y1725000D02*
X7965000D01*
X7795000Y1635000D02*
X7965000D01*
X7795000D02*
Y1725000D01*
X7965000Y1635000D02*
Y1725000D01*
X6985000Y1035000D02*
Y1205000D01*
X7075000Y1035000D02*
Y1205000D01*
X6985000Y1035000D02*
X7075000D01*
X6985000Y1205000D02*
X7075000D01*
X7685000Y1645000D02*
X7855000D01*
X7685000Y1735000D02*
X7855000D01*
X7685000Y1645000D02*
Y1735000D01*
X7855000Y1645000D02*
Y1735000D01*
X7374999Y1365000D02*
X7465000D01*
X7374999Y1195000D02*
X7465000D01*
X7374999D02*
Y1365000D01*
X7465000Y1195000D02*
Y1365000D01*
X7905024Y1565785D02*
X8075024D01*
X7905024Y1475785D02*
X8075024D01*
Y1565785D01*
X7905024Y1475785D02*
Y1565785D01*
X7924999Y895000D02*
X8014999D01*
X7924999Y1065000D02*
X8014999D01*
Y895000D02*
Y1065000D01*
X7924999Y895000D02*
Y1065000D01*
X7905023Y1275734D02*
X8075023D01*
X7905023Y1185733D02*
X8075023D01*
Y1275734D01*
X7905023Y1185733D02*
Y1275734D01*
X3235025Y1054974D02*
Y1344974D01*
X3555025Y1054974D02*
Y1344974D01*
X3235025D02*
X3555025D01*
X3235025Y1054974D02*
X3555025D01*
X4050000Y990000D02*
Y1490000D01*
X3650000Y990000D02*
Y1490000D01*
Y990000D02*
X4050000D01*
X3650000Y1490000D02*
X4050000D01*
X5250000Y3030000D02*
Y3530000D01*
X5650000Y3030000D02*
Y3530000D01*
X5250000Y3030000D02*
X5650000D01*
X5250000Y3530000D02*
X5650000D01*
X5522497Y3610005D02*
Y3910005D01*
X5697497Y3610005D02*
Y3910005D01*
X5522497D02*
X5697497D01*
X5522497Y3610005D02*
X5697497D01*
X5650000Y3905026D02*
Y4195026D01*
X5970000Y3905026D02*
Y4195026D01*
X5650000D02*
X5970000D01*
X5650000Y3905026D02*
X5970000D01*
X4945050Y3905000D02*
X5265050D01*
X4945050Y4195000D02*
X5265050D01*
Y3905000D02*
Y4195000D01*
X4945050Y3905000D02*
Y4195000D01*
X5160000Y2305000D02*
Y2595000D01*
X5480000Y2305000D02*
Y2595000D01*
X5160000Y2305000D02*
X5480000D01*
X5160000Y2595000D02*
X5480000D01*
X5290000Y1825000D02*
Y2115000D01*
X5610000Y1825000D02*
Y2115000D01*
X5290000D02*
X5610000D01*
X5290000Y1825000D02*
X5610000D01*
X7494999Y397500D02*
Y572500D01*
X7184999Y397500D02*
Y572500D01*
Y397500D02*
X7494999D01*
X7184999Y572500D02*
X7494999D01*
X6435000Y92500D02*
Y232500D01*
X6615000Y92500D02*
Y232500D01*
X6435000D02*
X6615000D01*
X6435000Y92500D02*
X6615000D01*
X992499Y1480000D02*
Y1540000D01*
X1107499Y1480000D02*
Y1540000D01*
X992499Y1480000D02*
X1107499D01*
X992499Y1540000D02*
X1107499D01*
X6019974Y324975D02*
X6299974D01*
X6019974Y684975D02*
X6299974D01*
Y324975D02*
Y684975D01*
X6019974Y324975D02*
Y684975D01*
X934998Y3345000D02*
Y3705000D01*
X1214998Y3345000D02*
Y3705000D01*
X934998D02*
X1214998D01*
X934998Y3345000D02*
X1214998D01*
X1435049Y2974975D02*
X1795049D01*
X1435049Y3254975D02*
X1795049D01*
X1435049Y2974975D02*
Y3254975D01*
X1795049Y2974975D02*
Y3254975D01*
D174*
X563500Y1821000D02*
X843000D01*
Y1747000D02*
Y1821000D01*
X563500Y1747000D02*
X843000D01*
X563500Y1694000D02*
X843000D01*
Y1620000D02*
Y1694000D01*
X563500Y1620000D02*
X843000D01*
X563500Y1567000D02*
X843000D01*
Y1493000D02*
Y1567000D01*
X563500Y1493000D02*
Y1567000D01*
Y1493000D02*
X843000D01*
X563500Y1440000D02*
X843000D01*
Y1366000D02*
Y1440000D01*
X563500Y1366000D02*
X843000D01*
X563500Y1313000D02*
X843000D01*
Y1239000D02*
Y1313000D01*
X563500Y1239000D02*
X843000D01*
X157100Y1821000D02*
X436600D01*
X563500Y1747000D02*
Y1821000D01*
X436600Y1747000D02*
Y1821000D01*
X157100Y1747000D02*
Y1821000D01*
Y1747000D02*
X436600D01*
X157100Y1694000D02*
X436600D01*
X563500Y1620000D02*
Y1694000D01*
X436600Y1620000D02*
Y1694000D01*
X157100Y1620000D02*
Y1694000D01*
Y1620000D02*
X436600D01*
X157100Y1567000D02*
X436599D01*
X157100Y1493000D02*
Y1567000D01*
X436599Y1493000D02*
Y1567000D01*
X157100Y1493000D02*
X436599D01*
X157100Y1440000D02*
X436600D01*
X563500Y1366000D02*
Y1440000D01*
X157100Y1366000D02*
Y1440000D01*
X436600Y1366000D02*
Y1440000D01*
X157100Y1366000D02*
X436600D01*
X157100Y1313000D02*
X436600D01*
X563500Y1239000D02*
Y1313000D01*
X157100Y1239000D02*
Y1313000D01*
X436600Y1239000D02*
Y1313000D01*
X157100Y1239000D02*
X436600D01*
D175*
X6757499Y1737500D02*
X7619999D01*
Y1962500D01*
X7563749D02*
X7619999D01*
X7563749D02*
Y3987500D01*
X7619999D01*
Y4212500D01*
X6757499D02*
X7619999D01*
X6757499Y1737500D02*
Y4212500D01*
D176*
X5815263Y1364749D02*
D03*
X5664736Y162750D02*
D03*
X5214736D02*
D03*
X5215262Y1329750D02*
D03*
X6534737Y1390251D02*
D03*
X6504736Y2400250D02*
D03*
Y2610250D02*
D03*
Y1980250D02*
D03*
X7865265Y3000250D02*
D03*
X6504736Y2190250D02*
D03*
X7825266Y1965224D02*
D03*
X6504736Y2830250D02*
D03*
Y1770250D02*
D03*
X7509733Y2499750D02*
D03*
X7514733Y3349725D02*
D03*
X6504737Y3860251D02*
D03*
X7522232Y2749750D02*
D03*
X6504737Y4070251D02*
D03*
X4175343Y840250D02*
D03*
X6460264Y162250D02*
D03*
D177*
X2880237Y3300000D02*
D03*
D178*
X5275275Y1027233D02*
D03*
X5899749Y475266D02*
D03*
X5712800Y1027233D02*
D03*
X6100248Y1039733D02*
D03*
X6312748D02*
D03*
X8039748Y3744737D02*
D03*
X7829748D02*
D03*
X6539750Y3614738D02*
D03*
X6049749Y3139737D02*
D03*
X2460250Y364733D02*
D03*
X2669750Y235266D02*
D03*
X2510249Y665263D02*
D03*
X2719749Y794737D02*
D03*
X2509749Y364737D02*
D03*
X2720249Y235262D02*
D03*
X2459750Y665266D02*
D03*
X2670250Y794733D02*
D03*
X4359749Y1095266D02*
D03*
X4580249Y984734D02*
D03*
X4140250Y1224734D02*
D03*
%TF.MD5,e8e91c9b0bb9ccda416e903213e4adc7*%
M02*
