%TF.GenerationSoftware,Altium Limited,Altium Designer,22.6.1 (34)*%
G04 Layer_Color=2752767*
%FSLAX45Y45*%
%MOMM*%
%TF.SameCoordinates,07F994AE-BB1C-4BEA-A643-928B9DFDCC76*%
%TF.FilePolarity,Positive*%
%TF.FileFunction,Drawing*%
%TF.Part,Single*%
G01*
G75*
%TA.AperFunction,NonConductor*%
%ADD191C,0.12700*%
D191*
X5226531Y1771824D02*
X5175731Y1873424D01*
X5277331D01*
X5226531Y1771824D01*
X1205000Y1254200D02*
X1154200Y1355800D01*
X1255800D01*
X1205000Y1254200D01*
X1215000Y1394200D02*
X1164200Y1495800D01*
X1265800D01*
X1215000Y1394200D01*
X1090000Y1129200D02*
X1039200Y1230800D01*
X1140800D01*
X1090000Y1129200D01*
X1190000D02*
X1139200Y1230800D01*
X1240800D01*
X1190000Y1129200D01*
X1755000Y2559200D02*
X1704200Y2660800D01*
X1805800D01*
X1755000Y2559200D01*
X1940000Y2484200D02*
X1889200Y2585800D01*
X1990800D01*
X1940000Y2484200D01*
X5630000Y1749200D02*
X5579200Y1850800D01*
X5680800D01*
X5630000Y1749200D01*
X5490000Y2189200D02*
X5439200Y2290800D01*
X5540800D01*
X5490000Y2189200D01*
X5640000Y2199200D02*
X5589200Y2300800D01*
X5690800D01*
X5640000Y2199200D01*
X7230000Y899200D02*
X7179200Y1000800D01*
X7280800D01*
X7230000Y899200D01*
X7400000Y839200D02*
X7349200Y940800D01*
X7450800D01*
X7400000Y839200D01*
X4930000Y2229200D02*
X4879200Y2330800D01*
X4980800D01*
X4930000Y2229200D01*
X5250000Y2209200D02*
X5199200Y2310800D01*
X5300800D01*
X5250000Y2209200D01*
X5280000Y2029200D02*
X5229200Y2130800D01*
X5330800D01*
X5280000Y2029200D01*
X5230000Y4069200D02*
X5179200Y4170800D01*
X5280800D01*
X5230000Y4069200D01*
X5710000Y3969200D02*
X5659200Y4070800D01*
X5760800D01*
X5710000Y3969200D01*
X5630000Y3689200D02*
X5579200Y3790800D01*
X5680800D01*
X5630000Y3689200D01*
X1983499Y1491500D02*
X1932699Y1593100D01*
X2034299D01*
X1983499Y1491500D01*
X1986649Y1636400D02*
X1935849Y1738000D01*
X2037449D01*
X1986649Y1636400D01*
Y1724600D02*
X1935849Y1826200D01*
X2037449D01*
X1986649Y1724600D01*
X1520449Y1888400D02*
X1469649Y1990000D01*
X1571249D01*
X1520449Y1888400D01*
X2012499Y1824200D02*
X1961699Y1925800D01*
X2063299D01*
X2012499Y1824200D01*
X1590000Y1174200D02*
X1539200Y1275800D01*
X1640800D01*
X1590000Y1174200D01*
X1690000D02*
X1639200Y1275800D01*
X1740800D01*
X1690000Y1174200D01*
X1200000Y2209200D02*
X1149200Y2310800D01*
X1250800D01*
X1200000Y2209200D01*
Y2109200D02*
X1149200Y2210800D01*
X1250800D01*
X1200000Y2109200D01*
X1325000Y2174200D02*
X1274200Y2275800D01*
X1375800D01*
X1325000Y2174200D01*
X1425000D02*
X1374200Y2275800D01*
X1475800D01*
X1425000Y2174200D01*
X1200000Y1999200D02*
X1149200Y2100800D01*
X1250800D01*
X1200000Y1999200D01*
Y1899200D02*
X1149200Y2000800D01*
X1250800D01*
X1200000Y1899200D01*
X1481250Y2024200D02*
X1430450Y2125800D01*
X1532050D01*
X1481250Y2024200D01*
X1649999D02*
X1599199Y2125800D01*
X1700799D01*
X1649999Y2024200D01*
X1799999D02*
X1749199Y2125800D01*
X1850799D01*
X1799999Y2024200D01*
X1874999Y1980450D02*
X1824199Y2082050D01*
X1925799D01*
X1874999Y1980450D01*
X1724999D02*
X1674199Y2082050D01*
X1775799D01*
X1724999Y1980450D01*
X1574999D02*
X1524199Y2082050D01*
X1625799D01*
X1574999Y1980450D01*
X1949999Y1361700D02*
X1899199Y1463300D01*
X2000799D01*
X1949999Y1361700D01*
X1687499D02*
X1636699Y1463300D01*
X1738299D01*
X1687499Y1361700D01*
X1587499D02*
X1536699Y1463300D01*
X1638299D01*
X1587499Y1361700D01*
X1443749Y1374200D02*
X1392949Y1475800D01*
X1494549D01*
X1443749Y1374200D01*
X1387499Y1449200D02*
X1336699Y1550800D01*
X1438299D01*
X1387499Y1449200D01*
Y1530450D02*
X1336699Y1632050D01*
X1438299D01*
X1387499Y1530450D01*
Y1617950D02*
X1336699Y1719550D01*
X1438299D01*
X1387499Y1617950D01*
Y1699200D02*
X1336699Y1800800D01*
X1438299D01*
X1387499Y1699200D01*
Y1780450D02*
X1336699Y1882050D01*
X1438299D01*
X1387499Y1780450D01*
Y1849200D02*
X1336699Y1950800D01*
X1438299D01*
X1387499Y1849200D01*
Y1924200D02*
X1336699Y2025800D01*
X1438299D01*
X1387499Y1924200D01*
X5740000Y2029200D02*
X5689200Y2130800D01*
X5790800D01*
X5740000Y2029200D01*
X2310000Y1779200D02*
X2259200Y1880800D01*
X2360800D01*
X2310000Y1779200D01*
Y1649200D02*
X2259200Y1750800D01*
X2360800D01*
X2310000Y1649200D01*
Y1519200D02*
X2259200Y1620800D01*
X2360800D01*
X2310000Y1519200D01*
X4950000Y3879200D02*
X4899200Y3980800D01*
X5000800D01*
X4950000Y3879200D01*
X1880000Y2179200D02*
X1829200Y2280800D01*
X1930800D01*
X1880000Y2179200D01*
X2120000Y1139200D02*
X2069200Y1240800D01*
X2170800D01*
X2120000Y1139200D01*
X2140000Y1239200D02*
X2089200Y1340800D01*
X2190800D01*
X2140000Y1239200D01*
X5560000Y3059200D02*
X5509200Y3160800D01*
X5610800D01*
X5560000Y3059200D01*
X5310000Y3829200D02*
X5259200Y3930800D01*
X5360800D01*
X5310000Y3829200D01*
X1779999Y2174200D02*
X1729199Y2275800D01*
X1830799D01*
X1779999Y2174200D01*
X1679999D02*
X1629199Y2275800D01*
X1730799D01*
X1679999Y2174200D01*
X1579999D02*
X1529199Y2275800D01*
X1630799D01*
X1579999Y2174200D01*
X1215000Y1464200D02*
X1164200Y1565800D01*
X1265800D01*
X1215000Y1464200D01*
%TF.MD5,cc0b03b878dff743c0c9b232951f597e*%
M02*
