%TF.GenerationSoftware,Altium Limited,Altium Designer,22.6.1 (34)*%
G04 Layer_Physical_Order=5*
G04 Layer_Color=12811406*
%FSLAX45Y45*%
%MOMM*%
%TF.SameCoordinates,07F994AE-BB1C-4BEA-A643-928B9DFDCC76*%
%TF.FilePolarity,Positive*%
%TF.FileFunction,Copper,L5,Inr,Signal*%
%TF.Part,Single*%
G01*
G75*
%TA.AperFunction,Conductor*%
%ADD13C,0.20000*%
%ADD19C,0.25000*%
%TA.AperFunction,ComponentPad*%
%ADD72O,1.90000X1.80000*%
G04:AMPARAMS|DCode=73|XSize=1.8mm|YSize=1.9mm|CornerRadius=0.36mm|HoleSize=0mm|Usage=FLASHONLY|Rotation=270.000|XOffset=0mm|YOffset=0mm|HoleType=Round|Shape=RoundedRectangle|*
%AMROUNDEDRECTD73*
21,1,1.80000,1.18000,0,0,270.0*
21,1,1.08000,1.90000,0,0,270.0*
1,1,0.72000,-0.59000,-0.54000*
1,1,0.72000,-0.59000,0.54000*
1,1,0.72000,0.59000,0.54000*
1,1,0.72000,0.59000,-0.54000*
%
%ADD73ROUNDEDRECTD73*%
%TA.AperFunction,WasherPad*%
%ADD74C,2.20000*%
%TA.AperFunction,ViaPad*%
%ADD75C,0.60000*%
%ADD76C,0.70000*%
%ADD77C,0.55000*%
%ADD78C,0.45000*%
%ADD79C,0.50000*%
%ADD80C,0.56000*%
%ADD81C,0.25000*%
%ADD82C,0.32500*%
%ADD83C,0.20000*%
%ADD84C,0.30000*%
%ADD86C,0.12500*%
G36*
X7700000Y4375000D02*
X7704973D01*
X7714161Y4371193D01*
X7721193Y4364161D01*
X7725000Y4354973D01*
X7725000Y4350000D01*
X7729679Y4323597D01*
X7743201Y4271719D01*
X7762140Y4221565D01*
X7786283Y4173699D01*
X7815358Y4128657D01*
X7849040Y4086948D01*
X7886948Y4049040D01*
X7928657Y4015358D01*
X7973699Y3986283D01*
X8021565Y3962140D01*
X8071719Y3943201D01*
X8123597Y3929679D01*
X8150000Y3925000D01*
X8154973D01*
X8164161Y3921194D01*
X8171194Y3914161D01*
X8175000Y3904973D01*
Y3799375D01*
X8163267Y3794515D01*
X8161155Y3796627D01*
X8140940Y3805000D01*
X8119060D01*
X8098845Y3796627D01*
X8083373Y3781155D01*
X8075000Y3760940D01*
Y3739060D01*
X8083373Y3718845D01*
X8098845Y3703374D01*
X8119060Y3695000D01*
X8140940D01*
X8161155Y3703374D01*
X8163267Y3705485D01*
X8175000Y3700625D01*
Y500000D01*
Y495027D01*
X8171194Y485839D01*
X8164161Y478806D01*
X8154973Y475000D01*
X8150000Y475000D01*
X8123596Y470320D01*
X8071719Y456799D01*
X8021565Y437860D01*
X7973698Y413717D01*
X7928657Y384641D01*
X7886948Y350960D01*
X7849039Y313051D01*
X7815358Y271342D01*
X7786283Y226301D01*
X7762140Y178434D01*
X7743201Y128280D01*
X7729679Y76403D01*
X7725000Y50000D01*
Y45027D01*
X7721194Y35838D01*
X7714161Y28806D01*
X7704973Y25000D01*
X4395027D01*
X4385838Y28806D01*
X4378806Y35838D01*
X4376619Y41118D01*
X4374704Y52735D01*
X4374703Y52745D01*
X4374703Y52745D01*
X4370608Y81566D01*
X4357194Y138195D01*
X4336994Y192772D01*
X4310306Y244487D01*
X4277526Y292572D01*
X4239142Y336314D01*
X4195723Y375063D01*
X4147913Y408244D01*
X4096424Y435364D01*
X4042018Y456021D01*
X3985503Y469908D01*
X3927720Y476819D01*
X3869524Y476651D01*
X3811782Y469406D01*
X3755349Y455193D01*
X3701063Y434222D01*
X3649731Y406804D01*
X3602114Y373348D01*
X3558919Y334348D01*
X3520789Y290385D01*
X3488288Y242111D01*
X3461899Y190242D01*
X3442014Y135550D01*
X3428929Y78844D01*
X3425000Y49999D01*
Y45027D01*
X3421194Y35838D01*
X3414161Y28806D01*
X3404973Y25000D01*
X495027D01*
X485839Y28806D01*
X478806Y35838D01*
X477732Y38431D01*
X475000Y49998D01*
Y50000D01*
X475000D01*
X475000Y50000D01*
X470320Y76403D01*
X456798Y128280D01*
X437860Y178434D01*
X413717Y226301D01*
X384641Y271342D01*
X350960Y313051D01*
X313051Y350960D01*
X271342Y384641D01*
X226301Y413717D01*
X178434Y437860D01*
X128280Y456799D01*
X76403Y470320D01*
X50000Y475000D01*
X50000Y475000D01*
X50000Y475000D01*
X38431Y477732D01*
X35838Y478806D01*
X28806Y485839D01*
X25000Y495027D01*
Y500000D01*
Y3900000D01*
Y3904973D01*
X28806Y3914161D01*
X35838Y3921194D01*
X45027Y3925000D01*
X50000Y3925000D01*
X76403Y3929679D01*
X128280Y3943201D01*
X178434Y3962140D01*
X226301Y3986283D01*
X271342Y4015358D01*
X313051Y4049039D01*
X350960Y4086948D01*
X384641Y4128657D01*
X413717Y4173698D01*
X437860Y4221565D01*
X456798Y4271719D01*
X470320Y4323596D01*
X475000Y4350000D01*
Y4354972D01*
X478806Y4364161D01*
X485839Y4371194D01*
X495027Y4375000D01*
X3804973D01*
X3814161Y4371194D01*
X3821194Y4364161D01*
X3825000Y4354972D01*
Y4300000D01*
X3825000D01*
X3825361Y4292649D01*
X3828230Y4278229D01*
X3833856Y4264645D01*
X3842024Y4252421D01*
X3852421Y4242024D01*
X3864645Y4233856D01*
X3878229Y4228230D01*
X3892649Y4225361D01*
X3900000Y4225000D01*
X4300000Y4225000D01*
Y4225000D01*
X4307351Y4225361D01*
X4321771Y4228230D01*
X4335354Y4233856D01*
X4347579Y4242024D01*
X4357975Y4252421D01*
X4366144Y4264645D01*
X4371770Y4278229D01*
X4374638Y4292649D01*
X4375000Y4300000D01*
X4375000Y4354972D01*
X4378806Y4364161D01*
X4385839Y4371194D01*
X4395027Y4375000D01*
X7700000D01*
Y4375000D01*
D02*
G37*
%LPC*%
G36*
X5275967Y4310000D02*
X5264032D01*
X5253006Y4305433D01*
X5244567Y4296994D01*
X5240000Y4285968D01*
Y4274033D01*
X5244567Y4263006D01*
X5253006Y4254567D01*
X5264032Y4250000D01*
X5275967D01*
X5286993Y4254567D01*
X5295433Y4263006D01*
X5300000Y4274033D01*
Y4285968D01*
X5295433Y4296994D01*
X5286993Y4305433D01*
X5275967Y4310000D01*
D02*
G37*
G36*
X4638565Y4335213D02*
X4620663D01*
X4604124Y4328362D01*
X4591465Y4315703D01*
X4584614Y4299164D01*
Y4281262D01*
X4591465Y4264722D01*
X4604124Y4252064D01*
X4620663Y4245213D01*
X4638565D01*
X4655104Y4252064D01*
X4667763Y4264722D01*
X4674614Y4281262D01*
Y4299164D01*
X4667763Y4315703D01*
X4655104Y4328362D01*
X4638565Y4335213D01*
D02*
G37*
G36*
X1670940Y4295000D02*
X1649060D01*
X1628845Y4286626D01*
X1613373Y4271155D01*
X1605000Y4250940D01*
Y4229060D01*
X1613373Y4208845D01*
X1628845Y4193373D01*
X1649060Y4185000D01*
X1670940D01*
X1691155Y4193373D01*
X1706627Y4208845D01*
X1715000Y4229060D01*
Y4250940D01*
X1706627Y4271155D01*
X1691155Y4286626D01*
X1670940Y4295000D01*
D02*
G37*
G36*
X4536962Y4185000D02*
X4523038D01*
X4510174Y4179672D01*
X4500329Y4169826D01*
X4495000Y4156962D01*
Y4143038D01*
X4500329Y4130174D01*
X4510174Y4120329D01*
X4523038Y4115000D01*
X4536962D01*
X4549826Y4120329D01*
X4559672Y4130174D01*
X4565000Y4143038D01*
Y4156962D01*
X4559672Y4169826D01*
X4549826Y4179672D01*
X4536962Y4185000D01*
D02*
G37*
G36*
X5207211Y4196250D02*
X5192789D01*
X5179466Y4190731D01*
X5169269Y4180534D01*
X5163750Y4167211D01*
Y4152790D01*
X5169269Y4139466D01*
X5179466Y4129269D01*
X5187500Y4125941D01*
Y4111546D01*
X5193970Y4095926D01*
X5205926Y4083970D01*
X5221546Y4077500D01*
X5238454D01*
X5254074Y4083970D01*
X5266030Y4095926D01*
X5272500Y4111546D01*
Y4128454D01*
X5266030Y4144074D01*
X5254074Y4156030D01*
X5241232Y4161349D01*
X5236250Y4166331D01*
Y4167211D01*
X5230731Y4180534D01*
X5220534Y4190731D01*
X5207211Y4196250D01*
D02*
G37*
G36*
X6038951Y4145000D02*
X6021049D01*
X6004509Y4138149D01*
X5991851Y4125490D01*
X5985000Y4108951D01*
Y4091049D01*
X5991851Y4074510D01*
X6004509Y4061851D01*
X6021049Y4055000D01*
X6038951D01*
X6055490Y4061851D01*
X6068149Y4074510D01*
X6075000Y4091049D01*
Y4108951D01*
X6068149Y4125490D01*
X6055490Y4138149D01*
X6038951Y4145000D01*
D02*
G37*
G36*
X5918951D02*
X5901049D01*
X5884510Y4138149D01*
X5871851Y4125490D01*
X5865000Y4108951D01*
Y4091049D01*
X5871851Y4074510D01*
X5884510Y4061851D01*
X5901049Y4055000D01*
X5918951D01*
X5935491Y4061851D01*
X5948149Y4074510D01*
X5955000Y4091049D01*
Y4108951D01*
X5948149Y4125490D01*
X5935491Y4138149D01*
X5918951Y4145000D01*
D02*
G37*
G36*
X6158938Y4105000D02*
X6141036D01*
X6124497Y4098149D01*
X6111838Y4085490D01*
X6104988Y4068951D01*
Y4051049D01*
X6111838Y4034510D01*
X6124497Y4021851D01*
X6141036Y4015000D01*
X6158938D01*
X6175478Y4021851D01*
X6188136Y4034510D01*
X6194987Y4051049D01*
Y4068951D01*
X6188136Y4085490D01*
X6175478Y4098149D01*
X6158938Y4105000D01*
D02*
G37*
G36*
X5717689Y4152500D02*
X5703268D01*
X5689944Y4146981D01*
X5679747Y4136784D01*
X5674228Y4123461D01*
Y4109040D01*
X5679651Y4095947D01*
Y4049755D01*
X5673970Y4044074D01*
X5667500Y4028454D01*
Y4011546D01*
X5673970Y3995926D01*
X5685926Y3983970D01*
X5701546Y3977500D01*
X5718454D01*
X5734074Y3983970D01*
X5746030Y3995926D01*
X5752500Y4011546D01*
Y4028454D01*
X5746030Y4044074D01*
X5740827Y4049277D01*
Y4095333D01*
X5741209Y4095716D01*
X5746728Y4109040D01*
Y4123461D01*
X5741209Y4136784D01*
X5731012Y4146981D01*
X5717689Y4152500D01*
D02*
G37*
G36*
X6693440Y4042500D02*
X6671560D01*
X6651345Y4034126D01*
X6635873Y4018655D01*
X6627500Y3998440D01*
Y3976560D01*
X6635873Y3956345D01*
X6651345Y3940873D01*
X6671560Y3932500D01*
X6693440D01*
X6713655Y3940873D01*
X6729126Y3956345D01*
X6737500Y3976560D01*
Y3998440D01*
X6729126Y4018655D01*
X6713655Y4034126D01*
X6693440Y4042500D01*
D02*
G37*
G36*
X4536962Y3995000D02*
X4523038D01*
X4510174Y3989671D01*
X4500329Y3979826D01*
X4495000Y3966962D01*
Y3953038D01*
X4500329Y3940174D01*
X4510174Y3930328D01*
X4523038Y3925000D01*
X4536962D01*
X4549826Y3930328D01*
X4559672Y3940174D01*
X4565000Y3953038D01*
Y3966962D01*
X4559672Y3979826D01*
X4549826Y3989671D01*
X4536962Y3995000D01*
D02*
G37*
G36*
X5318454Y3922500D02*
X5301546D01*
X5285926Y3916030D01*
X5280581Y3910684D01*
X5280534Y3910731D01*
X5267210Y3916250D01*
X5252789D01*
X5239466Y3910731D01*
X5229269Y3900534D01*
X5223750Y3887211D01*
Y3872790D01*
X5229269Y3859466D01*
X5239466Y3849269D01*
X5252789Y3843750D01*
X5267210D01*
X5280534Y3849269D01*
X5280581Y3849316D01*
X5285926Y3843970D01*
X5301546Y3837500D01*
X5318454D01*
X5334074Y3843970D01*
X5334153Y3844049D01*
X5349134Y3841069D01*
X5351851Y3834509D01*
X5364509Y3821851D01*
X5381049Y3815000D01*
X5398951D01*
X5415490Y3821851D01*
X5428149Y3834509D01*
X5435000Y3851049D01*
Y3868951D01*
X5428149Y3885490D01*
X5415490Y3898149D01*
X5398951Y3905000D01*
X5381049D01*
X5364509Y3898149D01*
X5362898Y3896538D01*
X5347917Y3899517D01*
X5346030Y3904074D01*
X5334074Y3916030D01*
X5318454Y3922500D01*
D02*
G37*
G36*
X6568951Y3985000D02*
X6551049D01*
X6534510Y3978149D01*
X6521851Y3965490D01*
X6515000Y3948951D01*
Y3931049D01*
X6521851Y3914510D01*
X6534510Y3901851D01*
X6551049Y3895000D01*
X6568951D01*
X6585491Y3901851D01*
X6598149Y3914510D01*
X6605000Y3931049D01*
Y3948951D01*
X6598149Y3965490D01*
X6585491Y3978149D01*
X6568951Y3985000D01*
D02*
G37*
G36*
X6258951D02*
X6241049D01*
X6224510Y3978149D01*
X6211851Y3965490D01*
X6205000Y3948951D01*
Y3931049D01*
X6211851Y3914510D01*
X6224510Y3901851D01*
X6241049Y3895000D01*
X6258951D01*
X6275490Y3901851D01*
X6288149Y3914510D01*
X6295000Y3931049D01*
Y3948951D01*
X6288149Y3965490D01*
X6275490Y3978149D01*
X6258951Y3985000D01*
D02*
G37*
G36*
X4958454Y3972500D02*
X4941546D01*
X4925926Y3966030D01*
X4913970Y3954074D01*
X4907500Y3938454D01*
Y3921546D01*
X4913970Y3905926D01*
X4919412Y3900484D01*
Y3890677D01*
X4919269Y3890534D01*
X4913750Y3877210D01*
Y3862789D01*
X4919269Y3849466D01*
X4929466Y3839269D01*
X4942789Y3833750D01*
X4957211D01*
X4970534Y3839269D01*
X4980731Y3849466D01*
X4986250Y3862789D01*
Y3877210D01*
X4980731Y3890534D01*
X4980588Y3890677D01*
Y3900484D01*
X4986030Y3905926D01*
X4992500Y3921546D01*
Y3938454D01*
X4986030Y3954074D01*
X4974074Y3966030D01*
X4958454Y3972500D01*
D02*
G37*
G36*
X6693440Y3880000D02*
X6671560D01*
X6651345Y3871626D01*
X6635873Y3856155D01*
X6627500Y3835940D01*
Y3814060D01*
X6635873Y3793845D01*
X6651345Y3778373D01*
X6671560Y3770000D01*
X6693440D01*
X6713655Y3778373D01*
X6729126Y3793845D01*
X6737500Y3814060D01*
Y3835940D01*
X6729126Y3856155D01*
X6713655Y3871626D01*
X6693440Y3880000D01*
D02*
G37*
G36*
X5677211Y3816250D02*
X5662790D01*
X5649466Y3810731D01*
X5639269Y3800534D01*
X5633750Y3787211D01*
Y3787008D01*
X5629242Y3782500D01*
X5621546D01*
X5605926Y3776030D01*
X5593970Y3764074D01*
X5587500Y3748454D01*
Y3731546D01*
X5593970Y3715926D01*
X5605926Y3703970D01*
X5621546Y3697500D01*
X5638454D01*
X5654074Y3703970D01*
X5666030Y3715926D01*
X5672500Y3731546D01*
Y3739242D01*
X5677008Y3743750D01*
X5677211D01*
X5690534Y3749269D01*
X5700731Y3759466D01*
X5706250Y3772790D01*
Y3787211D01*
X5700731Y3800534D01*
X5690534Y3810731D01*
X5677211Y3816250D01*
D02*
G37*
G36*
X2828951Y3715000D02*
X2811049D01*
X2794510Y3708149D01*
X2788297Y3701936D01*
X2780000Y3696666D01*
X2771703Y3701936D01*
X2765491Y3708149D01*
X2748951Y3715000D01*
X2731049D01*
X2714510Y3708149D01*
X2708297Y3701936D01*
X2700000Y3696666D01*
X2691703Y3701936D01*
X2685490Y3708149D01*
X2668951Y3715000D01*
X2651049D01*
X2634510Y3708149D01*
X2621851Y3695490D01*
X2615000Y3678951D01*
Y3661049D01*
X2621851Y3644510D01*
X2634510Y3631851D01*
X2651049Y3625000D01*
X2668951D01*
X2685490Y3631851D01*
X2691703Y3638064D01*
X2700000Y3643334D01*
X2708297Y3638064D01*
X2714510Y3631851D01*
X2731049Y3625000D01*
X2748951D01*
X2765491Y3631851D01*
X2771703Y3638064D01*
X2780000Y3643334D01*
X2788297Y3638064D01*
X2794510Y3631851D01*
X2811049Y3625000D01*
X2828951D01*
X2845490Y3631851D01*
X2858149Y3644510D01*
X2865000Y3661049D01*
Y3678951D01*
X2858149Y3695490D01*
X2845490Y3708149D01*
X2828951Y3715000D01*
D02*
G37*
G36*
X7930940Y3805000D02*
X7909060D01*
X7888845Y3796627D01*
X7873373Y3781155D01*
X7865000Y3760940D01*
Y3739060D01*
X7873373Y3718845D01*
X7888845Y3703374D01*
X7909060Y3695000D01*
X7930940D01*
X7951155Y3703374D01*
X7966626Y3718845D01*
X7975000Y3739060D01*
Y3760940D01*
X7966626Y3781155D01*
X7951155Y3796627D01*
X7930940Y3805000D01*
D02*
G37*
G36*
X6691057Y3740000D02*
X6673942D01*
X6657411Y3735570D01*
X6642589Y3727013D01*
X6630487Y3714911D01*
X6621930Y3700089D01*
X6617500Y3683558D01*
Y3666443D01*
X6621930Y3649911D01*
X6630487Y3635089D01*
X6642589Y3622987D01*
X6657411Y3614430D01*
X6673942Y3610000D01*
X6691057D01*
X6707589Y3614430D01*
X6722411Y3622987D01*
X6734513Y3635089D01*
X6743070Y3649911D01*
X6747500Y3666443D01*
Y3683558D01*
X6743070Y3700089D01*
X6734513Y3714911D01*
X6722411Y3727013D01*
X6707589Y3735570D01*
X6691057Y3740000D01*
D02*
G37*
G36*
X5837471Y3642643D02*
X5819570D01*
X5803030Y3635793D01*
X5790371Y3623134D01*
X5783521Y3606595D01*
Y3588693D01*
X5790371Y3572153D01*
X5803030Y3559495D01*
X5819570Y3552644D01*
X5837471D01*
X5854011Y3559495D01*
X5866669Y3572153D01*
X5873520Y3588693D01*
Y3606595D01*
X5866669Y3623134D01*
X5854011Y3635793D01*
X5837471Y3642643D01*
D02*
G37*
G36*
X5296962Y3615000D02*
X5283038D01*
X5270174Y3609671D01*
X5260329Y3599826D01*
X5255000Y3586962D01*
Y3573038D01*
X5260329Y3560174D01*
X5270174Y3550328D01*
X5283038Y3545000D01*
X5296962D01*
X5309826Y3550328D01*
X5319672Y3560174D01*
X5325000Y3573038D01*
Y3586962D01*
X5319672Y3599826D01*
X5309826Y3609671D01*
X5296962Y3615000D01*
D02*
G37*
G36*
X6088558Y3625000D02*
X6071443D01*
X6054911Y3620570D01*
X6040089Y3612013D01*
X6027987Y3599911D01*
X6019430Y3585089D01*
X6015000Y3568558D01*
Y3551442D01*
X6019430Y3534911D01*
X6027987Y3520089D01*
X6040089Y3507987D01*
X6054911Y3499430D01*
X6071443Y3495000D01*
X6088558D01*
X6105089Y3499430D01*
X6119911Y3507987D01*
X6132013Y3520089D01*
X6140570Y3534911D01*
X6145000Y3551442D01*
Y3568558D01*
X6140570Y3585089D01*
X6132013Y3599911D01*
X6119911Y3612013D01*
X6105089Y3620570D01*
X6088558Y3625000D01*
D02*
G37*
G36*
X7693440Y3555000D02*
X7671560D01*
X7651345Y3546626D01*
X7635873Y3531155D01*
X7627500Y3510940D01*
Y3489060D01*
X7635873Y3468845D01*
X7651345Y3453373D01*
X7671560Y3445000D01*
X7693440D01*
X7713655Y3453373D01*
X7729127Y3468845D01*
X7737500Y3489060D01*
Y3510940D01*
X7729127Y3531155D01*
X7713655Y3546626D01*
X7693440Y3555000D01*
D02*
G37*
G36*
X4536962Y3505000D02*
X4523038D01*
X4510174Y3499671D01*
X4500329Y3489826D01*
X4495000Y3476962D01*
Y3463038D01*
X4500329Y3450174D01*
X4510174Y3440328D01*
X4523038Y3435000D01*
X4536962D01*
X4549826Y3440328D01*
X4559672Y3450174D01*
X4565000Y3463038D01*
Y3476962D01*
X4559672Y3489826D01*
X4549826Y3499671D01*
X4536962Y3505000D01*
D02*
G37*
G36*
X4088454Y3482500D02*
X4071546D01*
X4055926Y3476030D01*
X4043970Y3464074D01*
X4037500Y3448454D01*
Y3431546D01*
X4043970Y3415926D01*
X4055926Y3403970D01*
X4071546Y3397500D01*
X4088454D01*
X4104074Y3403970D01*
X4116030Y3415926D01*
X4122500Y3431546D01*
Y3448454D01*
X4116030Y3464074D01*
X4104074Y3476030D01*
X4088454Y3482500D01*
D02*
G37*
G36*
X7003454Y3505000D02*
X6986546D01*
X6970926Y3498529D01*
X6958970Y3486574D01*
X6952500Y3470953D01*
Y3454046D01*
X6958970Y3438426D01*
X6964099Y3433297D01*
X6969898Y3425000D01*
X6964099Y3416703D01*
X6958970Y3411574D01*
X6952500Y3395954D01*
Y3379046D01*
X6958970Y3363426D01*
X6970926Y3351470D01*
X6986546Y3345000D01*
X7003454D01*
X7019074Y3351470D01*
X7031030Y3363426D01*
X7037500Y3379046D01*
Y3395954D01*
X7031030Y3411574D01*
X7025901Y3416703D01*
X7020102Y3425000D01*
X7025901Y3433297D01*
X7031030Y3438426D01*
X7037500Y3454046D01*
Y3470953D01*
X7031030Y3486574D01*
X7019074Y3498529D01*
X7003454Y3505000D01*
D02*
G37*
G36*
X5960940Y3520000D02*
X5939060D01*
X5918845Y3511626D01*
X5903374Y3496155D01*
X5895000Y3475940D01*
Y3454060D01*
X5903374Y3433845D01*
X5918845Y3418373D01*
X5939060Y3410000D01*
X5942958D01*
X5950014Y3399440D01*
X5947343Y3392993D01*
Y3371113D01*
X5955717Y3350899D01*
X5971188Y3335427D01*
X5991403Y3327054D01*
X6013283D01*
X6033498Y3335427D01*
X6048970Y3350899D01*
X6057343Y3371113D01*
Y3392993D01*
X6048970Y3413208D01*
X6033498Y3428680D01*
X6013283Y3437053D01*
X6009385D01*
X6002330Y3447613D01*
X6005000Y3454060D01*
Y3475940D01*
X5996627Y3496155D01*
X5981155Y3511626D01*
X5960940Y3520000D01*
D02*
G37*
G36*
X7800940Y3405000D02*
X7779060D01*
X7758845Y3396626D01*
X7743373Y3381155D01*
X7735000Y3360940D01*
Y3339060D01*
X7743373Y3318845D01*
X7758845Y3303373D01*
X7779060Y3295000D01*
X7800940D01*
X7821155Y3303373D01*
X7836626Y3318845D01*
X7845000Y3339060D01*
Y3360940D01*
X7836626Y3381155D01*
X7821155Y3396626D01*
X7800940Y3405000D01*
D02*
G37*
G36*
X170940D02*
X149060D01*
X128845Y3396626D01*
X113373Y3381155D01*
X105000Y3360940D01*
Y3339060D01*
X113373Y3318845D01*
X128845Y3303373D01*
X149060Y3295000D01*
X170940D01*
X191155Y3303373D01*
X206626Y3318845D01*
X215000Y3339060D01*
Y3360940D01*
X206626Y3381155D01*
X191155Y3396626D01*
X170940Y3405000D01*
D02*
G37*
G36*
X4346962Y3305000D02*
X4333038D01*
X4320174Y3299672D01*
X4310328Y3289826D01*
X4305000Y3276962D01*
Y3263038D01*
X4310328Y3250174D01*
X4320174Y3240329D01*
X4333038Y3235000D01*
X4346962D01*
X4359826Y3240329D01*
X4369671Y3250174D01*
X4375000Y3263038D01*
Y3276962D01*
X4369671Y3289826D01*
X4359826Y3299672D01*
X4346962Y3305000D01*
D02*
G37*
G36*
X4416962Y3245000D02*
X4403038D01*
X4390174Y3239671D01*
X4380329Y3229826D01*
X4375000Y3216962D01*
Y3203038D01*
X4380329Y3190174D01*
X4390174Y3180328D01*
X4403038Y3175000D01*
X4416962D01*
X4429826Y3180328D01*
X4439672Y3190174D01*
X4445000Y3203038D01*
Y3216962D01*
X4439672Y3229826D01*
X4429826Y3239671D01*
X4416962Y3245000D01*
D02*
G37*
G36*
X5568453Y3152500D02*
X5551546D01*
X5535926Y3146030D01*
X5523970Y3134074D01*
X5517500Y3118454D01*
Y3101546D01*
X5523970Y3085926D01*
X5535926Y3073970D01*
X5551546Y3067500D01*
X5568453D01*
X5584074Y3073970D01*
X5589419Y3079315D01*
X5589466Y3079269D01*
X5602789Y3073750D01*
X5617211D01*
X5630534Y3079269D01*
X5640731Y3089466D01*
X5646250Y3102789D01*
Y3117210D01*
X5640731Y3130534D01*
X5630534Y3140731D01*
X5617211Y3146250D01*
X5602789D01*
X5589466Y3140731D01*
X5589419Y3140684D01*
X5584074Y3146030D01*
X5568453Y3152500D01*
D02*
G37*
G36*
X7378951Y3123826D02*
X7361049D01*
X7344510Y3116975D01*
X7331851Y3104317D01*
X7325000Y3087777D01*
Y3069875D01*
X7331851Y3053336D01*
X7344510Y3040677D01*
X7361049Y3033827D01*
X7378951D01*
X7395490Y3040677D01*
X7408149Y3053336D01*
X7415000Y3069875D01*
Y3087777D01*
X7408149Y3104317D01*
X7395490Y3116975D01*
X7378951Y3123826D01*
D02*
G37*
G36*
X2413951Y3000000D02*
X2396049D01*
X2379510Y2993149D01*
X2372500Y2986139D01*
X2365490Y2993149D01*
X2348951Y3000000D01*
X2331049D01*
X2314509Y2993149D01*
X2307500Y2986140D01*
X2300490Y2993149D01*
X2283951Y3000000D01*
X2266049D01*
X2249510Y2993149D01*
X2236851Y2980490D01*
X2230000Y2963951D01*
Y2946049D01*
X2236851Y2929510D01*
X2249510Y2916851D01*
X2266049Y2910000D01*
X2283951D01*
X2300490Y2916851D01*
X2307500Y2923860D01*
X2314509Y2916851D01*
X2331049Y2910000D01*
X2348951D01*
X2365490Y2916851D01*
X2372500Y2923861D01*
X2379510Y2916851D01*
X2396049Y2910000D01*
X2413951D01*
X2430490Y2916851D01*
X2443149Y2929510D01*
X2450000Y2946049D01*
Y2963951D01*
X2443149Y2980490D01*
X2430490Y2993149D01*
X2413951Y3000000D01*
D02*
G37*
G36*
X287108Y3229997D02*
X252878D01*
X219815Y3221138D01*
X190171Y3204023D01*
X165967Y3179819D01*
X148852Y3150175D01*
X139993Y3117112D01*
Y3082882D01*
X148852Y3049819D01*
X165967Y3020175D01*
X190171Y2995971D01*
X219815Y2978856D01*
X252878Y2969997D01*
X287108D01*
X320171Y2978856D01*
X349815Y2995971D01*
X374019Y3020175D01*
X391134Y3049819D01*
X399993Y3082882D01*
Y3117112D01*
X391134Y3150175D01*
X374019Y3179819D01*
X349815Y3204023D01*
X320171Y3221138D01*
X287108Y3229997D01*
D02*
G37*
G36*
X906962Y3025000D02*
X893038D01*
X880174Y3019672D01*
X870328Y3009826D01*
X865000Y2996962D01*
Y2983038D01*
X870328Y2970174D01*
X880174Y2960329D01*
X893038Y2955000D01*
X906962D01*
X919826Y2960329D01*
X929671Y2970174D01*
X935000Y2983038D01*
Y2996962D01*
X929671Y3009826D01*
X919826Y3019672D01*
X906962Y3025000D01*
D02*
G37*
G36*
X4487137Y3023817D02*
X4470229D01*
X4454609Y3017347D01*
X4442653Y3005391D01*
X4436183Y2989770D01*
Y2972863D01*
X4442653Y2957243D01*
X4454609Y2945287D01*
X4470229Y2938817D01*
X4487137D01*
X4502757Y2945287D01*
X4510880Y2953410D01*
X4519500Y2955611D01*
X4526759Y2953137D01*
X4535267Y2944629D01*
X4550888Y2938158D01*
X4567795D01*
X4583416Y2944629D01*
X4591539Y2952752D01*
X4600159Y2954952D01*
X4607417Y2952479D01*
X4615926Y2943970D01*
X4631546Y2937500D01*
X4648454D01*
X4664074Y2943970D01*
X4676030Y2955926D01*
X4682500Y2971546D01*
Y2988454D01*
X4676030Y3004074D01*
X4664074Y3016030D01*
X4648454Y3022500D01*
X4631546D01*
X4615926Y3016030D01*
X4607803Y3007906D01*
X4599183Y3005706D01*
X4591924Y3008179D01*
X4583416Y3016688D01*
X4567795Y3023158D01*
X4550888D01*
X4535267Y3016688D01*
X4527144Y3008565D01*
X4518524Y3006364D01*
X4511266Y3008838D01*
X4502757Y3017347D01*
X4487137Y3023817D01*
D02*
G37*
G36*
X7678557Y3065000D02*
X7661442D01*
X7644911Y3060570D01*
X7630089Y3052013D01*
X7617987Y3039911D01*
X7609430Y3025089D01*
X7605000Y3008557D01*
Y2991442D01*
X7609430Y2974911D01*
X7617987Y2960089D01*
X7630089Y2947987D01*
X7644911Y2939430D01*
X7661442Y2935000D01*
X7678557D01*
X7695089Y2939430D01*
X7709911Y2947987D01*
X7722013Y2960089D01*
X7730570Y2974911D01*
X7735000Y2991442D01*
Y3008557D01*
X7730570Y3025089D01*
X7722013Y3039911D01*
X7709911Y3052013D01*
X7695089Y3060570D01*
X7678557Y3065000D01*
D02*
G37*
G36*
X4128951Y3185000D02*
X4111049D01*
X4094509Y3178149D01*
X4081851Y3165490D01*
X4075000Y3148951D01*
Y3131049D01*
X4081851Y3114510D01*
X4088064Y3108297D01*
X4093333Y3100000D01*
X4088064Y3091703D01*
X4081851Y3085490D01*
X4075000Y3068951D01*
Y3051049D01*
X4081851Y3034510D01*
X4088064Y3028297D01*
X4093333Y3020000D01*
X4088064Y3011703D01*
X4081851Y3005490D01*
X4075000Y2988951D01*
Y2971049D01*
X4081851Y2954509D01*
X4094509Y2941851D01*
X4111049Y2935000D01*
X4128951D01*
X4145490Y2941851D01*
X4158149Y2954509D01*
X4165000Y2971049D01*
Y2988951D01*
X4158149Y3005490D01*
X4151936Y3011703D01*
X4146666Y3020000D01*
X4151936Y3028297D01*
X4158149Y3034510D01*
X4165000Y3051049D01*
Y3068951D01*
X4158149Y3085490D01*
X4151936Y3091703D01*
X4146666Y3100000D01*
X4151936Y3108297D01*
X4158149Y3114510D01*
X4165000Y3131049D01*
Y3148951D01*
X4158149Y3165490D01*
X4145490Y3178149D01*
X4128951Y3185000D01*
D02*
G37*
G36*
X5246464Y2932500D02*
X5233535D01*
X5221590Y2927552D01*
X5212448Y2918410D01*
X5207500Y2906465D01*
Y2893535D01*
X5212448Y2881590D01*
X5221590Y2872448D01*
X5233535Y2867500D01*
X5246464D01*
X5258410Y2872448D01*
X5267552Y2881590D01*
X5272500Y2893535D01*
Y2906465D01*
X5267552Y2918410D01*
X5258410Y2927552D01*
X5246464Y2932500D01*
D02*
G37*
G36*
X906962Y2922500D02*
X893038D01*
X880174Y2917171D01*
X870328Y2907326D01*
X865000Y2894462D01*
Y2880538D01*
X870328Y2867674D01*
X880174Y2857828D01*
X893038Y2852500D01*
X906962D01*
X919826Y2857828D01*
X929671Y2867674D01*
X935000Y2880538D01*
Y2894462D01*
X929671Y2907326D01*
X919826Y2917171D01*
X906962Y2922500D01*
D02*
G37*
G36*
X6683557Y2965000D02*
X6666442D01*
X6649910Y2960570D01*
X6635089Y2952013D01*
X6622987Y2939911D01*
X6614429Y2925089D01*
X6610000Y2908558D01*
Y2891443D01*
X6614429Y2874911D01*
X6622987Y2860090D01*
X6635089Y2847987D01*
X6649910Y2839430D01*
X6666442Y2835000D01*
X6683557D01*
X6700089Y2839430D01*
X6714910Y2847987D01*
X6727012Y2860090D01*
X6735570Y2874911D01*
X6739999Y2891443D01*
Y2908558D01*
X6735570Y2925089D01*
X6727012Y2939911D01*
X6714910Y2952013D01*
X6700089Y2960570D01*
X6683557Y2965000D01*
D02*
G37*
G36*
X6000940Y2885000D02*
X5979060D01*
X5958845Y2876626D01*
X5943373Y2861155D01*
X5935000Y2840940D01*
Y2819060D01*
X5943373Y2798845D01*
X5958845Y2783373D01*
X5979060Y2775000D01*
X6000940D01*
X6021155Y2783373D01*
X6036626Y2798845D01*
X6045000Y2819060D01*
Y2840940D01*
X6036626Y2861155D01*
X6021155Y2876626D01*
X6000940Y2885000D01*
D02*
G37*
G36*
X5459946Y2870000D02*
X5440054D01*
X5421677Y2862388D01*
X5407612Y2848323D01*
X5400000Y2829946D01*
Y2810054D01*
X5407612Y2791677D01*
X5421677Y2777612D01*
X5440054Y2770000D01*
X5459946D01*
X5478323Y2777612D01*
X5492388Y2791677D01*
X5500000Y2810054D01*
Y2829946D01*
X5492388Y2848323D01*
X5478323Y2862388D01*
X5459946Y2870000D01*
D02*
G37*
G36*
X6138557Y2895000D02*
X6121442D01*
X6104911Y2890570D01*
X6090089Y2882013D01*
X6077987Y2869911D01*
X6069430Y2855089D01*
X6065000Y2838557D01*
Y2821442D01*
X6069430Y2804911D01*
X6077987Y2790089D01*
X6090089Y2777987D01*
X6104911Y2769430D01*
X6121442Y2765000D01*
X6138557D01*
X6155089Y2769430D01*
X6169911Y2777987D01*
X6182013Y2790089D01*
X6190570Y2804911D01*
X6195000Y2821442D01*
Y2838557D01*
X6190570Y2855089D01*
X6182013Y2869911D01*
X6169911Y2882013D01*
X6155089Y2890570D01*
X6138557Y2895000D01*
D02*
G37*
G36*
X7685939Y2805000D02*
X7664059D01*
X7643845Y2796627D01*
X7628373Y2781155D01*
X7619999Y2760940D01*
Y2739060D01*
X7628373Y2718845D01*
X7643845Y2703374D01*
X7664059Y2695000D01*
X7685939D01*
X7706154Y2703374D01*
X7721626Y2718845D01*
X7729999Y2739060D01*
Y2760940D01*
X7721626Y2781155D01*
X7706154Y2796627D01*
X7685939Y2805000D01*
D02*
G37*
G36*
X4810940Y2795000D02*
X4789060D01*
X4768845Y2786627D01*
X4753374Y2771155D01*
X4745000Y2750940D01*
Y2729060D01*
X4753374Y2708845D01*
X4768845Y2693374D01*
X4789060Y2685000D01*
X4810940D01*
X4831155Y2693374D01*
X4846627Y2708845D01*
X4855000Y2729060D01*
Y2750940D01*
X4846627Y2771155D01*
X4831155Y2786627D01*
X4810940Y2795000D01*
D02*
G37*
G36*
X6680940Y2767500D02*
X6659060D01*
X6638845Y2759126D01*
X6623373Y2743655D01*
X6615000Y2723440D01*
Y2701560D01*
X6623373Y2681345D01*
X6638845Y2665873D01*
X6659060Y2657500D01*
X6680940D01*
X6701155Y2665873D01*
X6716626Y2681345D01*
X6725000Y2701560D01*
Y2723440D01*
X6716626Y2743655D01*
X6701155Y2759126D01*
X6680940Y2767500D01*
D02*
G37*
G36*
X858454Y2652500D02*
X841546D01*
X825926Y2646030D01*
X818076Y2638179D01*
X810000Y2635428D01*
X801924Y2638179D01*
X794074Y2646030D01*
X778454Y2652500D01*
X761546D01*
X745926Y2646030D01*
X733970Y2634074D01*
X727500Y2618454D01*
Y2601546D01*
X733970Y2585926D01*
X745926Y2573970D01*
X761546Y2567500D01*
X778454D01*
X794074Y2573970D01*
X801924Y2581821D01*
X810000Y2584573D01*
X818076Y2581821D01*
X825926Y2573970D01*
X841546Y2567500D01*
X858454D01*
X874074Y2573970D01*
X886030Y2585926D01*
X892500Y2601546D01*
Y2618454D01*
X886030Y2634074D01*
X874074Y2646030D01*
X858454Y2652500D01*
D02*
G37*
G36*
X1763454D02*
X1746546D01*
X1730926Y2646030D01*
X1718970Y2634074D01*
X1712500Y2618454D01*
Y2614362D01*
X1706982Y2608844D01*
X1699466Y2605731D01*
X1694318Y2600583D01*
X1694075Y2600539D01*
X1680139Y2604153D01*
X1676030Y2614074D01*
X1664074Y2626030D01*
X1648454Y2632500D01*
X1631546D01*
X1615926Y2626030D01*
X1603970Y2614074D01*
X1598931Y2601907D01*
X1588453Y2592500D01*
X1571546D01*
X1555926Y2586030D01*
X1549382Y2579486D01*
X1534574Y2582050D01*
X1533431Y2584809D01*
X1521476Y2596764D01*
X1505855Y2603235D01*
X1488948D01*
X1473328Y2596764D01*
X1461372Y2584809D01*
X1460422Y2582515D01*
X1446675D01*
X1446030Y2584074D01*
X1434074Y2596030D01*
X1418454Y2602500D01*
X1401546D01*
X1385926Y2596030D01*
X1382572Y2592675D01*
X1371805Y2599869D01*
X1372500Y2601546D01*
Y2618454D01*
X1366030Y2634074D01*
X1354074Y2646030D01*
X1338454Y2652500D01*
X1321546D01*
X1305926Y2646030D01*
X1293970Y2634074D01*
X1287500Y2618454D01*
Y2601546D01*
X1293970Y2585926D01*
X1305926Y2573970D01*
X1321546Y2567500D01*
X1338454D01*
X1354074Y2573970D01*
X1357428Y2577325D01*
X1368195Y2570131D01*
X1367500Y2568454D01*
Y2551546D01*
X1373970Y2535926D01*
X1385926Y2523970D01*
X1401546Y2517500D01*
X1418454D01*
X1434074Y2523970D01*
X1446030Y2535926D01*
X1446980Y2538220D01*
X1460726D01*
X1461372Y2536661D01*
X1473328Y2524705D01*
X1488948Y2518235D01*
X1505855D01*
X1521476Y2524705D01*
X1528019Y2531248D01*
X1542827Y2528685D01*
X1543970Y2525926D01*
X1555926Y2513970D01*
X1571546Y2507500D01*
X1588454D01*
X1604074Y2513970D01*
X1616030Y2525926D01*
X1621069Y2538093D01*
X1631547Y2547500D01*
X1648454D01*
X1664074Y2553970D01*
X1672314Y2562211D01*
X1685451Y2560959D01*
X1686895Y2560198D01*
X1689269Y2554466D01*
X1699466Y2544269D01*
X1712790Y2538750D01*
X1727211D01*
X1740534Y2544269D01*
X1750731Y2554466D01*
X1753845Y2561983D01*
X1759362Y2567500D01*
X1763454D01*
X1779074Y2573970D01*
X1791030Y2585926D01*
X1797500Y2601546D01*
Y2618454D01*
X1791030Y2634074D01*
X1779074Y2646030D01*
X1763454Y2652500D01*
D02*
G37*
G36*
X1948454Y2577500D02*
X1931546D01*
X1915926Y2571030D01*
X1913033Y2568137D01*
X1899727D01*
X1892211Y2571250D01*
X1877789D01*
X1864466Y2565731D01*
X1854269Y2555534D01*
X1848750Y2542211D01*
Y2527789D01*
X1854269Y2514466D01*
X1864466Y2504269D01*
X1877789Y2498750D01*
X1892211D01*
X1899727Y2501863D01*
X1913033D01*
X1915926Y2498970D01*
X1931546Y2492500D01*
X1948454D01*
X1964074Y2498970D01*
X1976030Y2510926D01*
X1982500Y2526546D01*
Y2543454D01*
X1976030Y2559074D01*
X1964074Y2571030D01*
X1948454Y2577500D01*
D02*
G37*
G36*
X1198454Y2652500D02*
X1181546D01*
X1165926Y2646030D01*
X1153970Y2634074D01*
X1147500Y2618454D01*
Y2601546D01*
X1153970Y2585926D01*
X1165926Y2573970D01*
X1181546Y2567500D01*
X1198454D01*
X1214074Y2573970D01*
X1226030Y2585926D01*
X1232500Y2601546D01*
Y2618454D01*
X1226030Y2634074D01*
X1214074Y2646030D01*
X1198454Y2652500D01*
D02*
G37*
G36*
X998454D02*
X981546D01*
X965926Y2646030D01*
X953970Y2634074D01*
X947500Y2618454D01*
Y2601546D01*
X953970Y2585926D01*
X965926Y2573970D01*
X981546Y2567500D01*
X998454D01*
X1014074Y2573970D01*
X1026030Y2585926D01*
X1032500Y2601546D01*
Y2618454D01*
X1026030Y2634074D01*
X1014074Y2646030D01*
X998454Y2652500D01*
D02*
G37*
G36*
X668454D02*
X651546D01*
X635926Y2646030D01*
X623970Y2634074D01*
X617500Y2618454D01*
Y2601546D01*
X623970Y2585926D01*
X635926Y2573970D01*
X651546Y2567500D01*
X668454D01*
X684074Y2573970D01*
X696030Y2585926D01*
X702500Y2601546D01*
Y2618454D01*
X696030Y2634074D01*
X684074Y2646030D01*
X668454Y2652500D01*
D02*
G37*
G36*
X548454D02*
X531546D01*
X515926Y2646030D01*
X503970Y2634074D01*
X497500Y2618454D01*
Y2601546D01*
X503970Y2585926D01*
X515926Y2573970D01*
X531546Y2567500D01*
X548454D01*
X564074Y2573970D01*
X576030Y2585926D01*
X582500Y2601546D01*
Y2618454D01*
X576030Y2634074D01*
X564074Y2646030D01*
X548454Y2652500D01*
D02*
G37*
G36*
X7683557Y2665000D02*
X7666442D01*
X7649910Y2660570D01*
X7635089Y2652013D01*
X7622987Y2639911D01*
X7614429Y2625089D01*
X7610000Y2608558D01*
Y2591443D01*
X7614429Y2574911D01*
X7622987Y2560089D01*
X7635089Y2547987D01*
X7649910Y2539430D01*
X7666442Y2535000D01*
X7683557D01*
X7700088Y2539430D01*
X7714910Y2547987D01*
X7727012Y2560089D01*
X7735569Y2574911D01*
X7739999Y2591443D01*
Y2608558D01*
X7735569Y2625089D01*
X7727012Y2639911D01*
X7714910Y2652013D01*
X7700088Y2660570D01*
X7683557Y2665000D01*
D02*
G37*
G36*
X5149946Y2630000D02*
X5130054D01*
X5111677Y2622388D01*
X5097612Y2608323D01*
X5090000Y2589946D01*
Y2570054D01*
X5097612Y2551677D01*
X5111677Y2537612D01*
X5130054Y2530000D01*
X5149946D01*
X5168323Y2537612D01*
X5182388Y2551677D01*
X5190000Y2570054D01*
Y2589946D01*
X5182388Y2608323D01*
X5168323Y2622388D01*
X5149946Y2630000D01*
D02*
G37*
G36*
X308999Y2750097D02*
X191000D01*
X169150Y2745751D01*
X150626Y2733374D01*
X138249Y2714850D01*
X133903Y2693000D01*
Y2585000D01*
X138249Y2563150D01*
X150626Y2544627D01*
X169150Y2532250D01*
X191000Y2527904D01*
X308999D01*
X330849Y2532250D01*
X349373Y2544627D01*
X361750Y2563150D01*
X366096Y2585000D01*
Y2693000D01*
X361750Y2714850D01*
X349373Y2733374D01*
X330849Y2745751D01*
X308999Y2750097D01*
D02*
G37*
G36*
X4502673Y2643000D02*
X4483577D01*
X4465935Y2635692D01*
X4452433Y2622190D01*
X4445125Y2604548D01*
Y2585452D01*
X4452433Y2567810D01*
X4465868Y2554375D01*
X4452433Y2540940D01*
X4445125Y2523298D01*
Y2504202D01*
X4452433Y2486560D01*
X4465935Y2473058D01*
X4483577Y2465750D01*
X4502673D01*
X4520315Y2473058D01*
X4533817Y2486560D01*
X4541125Y2504202D01*
Y2523298D01*
X4533817Y2540940D01*
X4520382Y2554375D01*
X4533817Y2567810D01*
X4541125Y2585452D01*
Y2604548D01*
X4533817Y2622190D01*
X4520315Y2635692D01*
X4502673Y2643000D01*
D02*
G37*
G36*
X7967112Y2679998D02*
X7932882D01*
X7899819Y2671138D01*
X7870175Y2654023D01*
X7845971Y2629819D01*
X7828856Y2600176D01*
X7819997Y2567112D01*
Y2532883D01*
X7828856Y2499819D01*
X7845971Y2470176D01*
X7870175Y2445972D01*
X7899819Y2428857D01*
X7932882Y2419998D01*
X7967112D01*
X8000175Y2428857D01*
X8029819Y2445972D01*
X8054023Y2470176D01*
X8071138Y2499819D01*
X8079997Y2532883D01*
Y2567112D01*
X8071138Y2600176D01*
X8054023Y2629819D01*
X8029819Y2654023D01*
X8000175Y2671138D01*
X7967112Y2679998D01*
D02*
G37*
G36*
X6078951Y2485000D02*
X6061049D01*
X6044510Y2478149D01*
X6031851Y2465490D01*
X6025000Y2448951D01*
Y2431049D01*
X6031851Y2414510D01*
X6044510Y2401851D01*
X6061049Y2395000D01*
X6078951D01*
X6095490Y2401851D01*
X6108149Y2414510D01*
X6115000Y2431049D01*
Y2448951D01*
X6108149Y2465490D01*
X6095490Y2478149D01*
X6078951Y2485000D01*
D02*
G37*
G36*
X6668440Y2480000D02*
X6646560D01*
X6626345Y2471627D01*
X6610873Y2456155D01*
X6602500Y2435940D01*
Y2414060D01*
X6610873Y2393845D01*
X6626345Y2378373D01*
X6646560Y2370000D01*
X6668440D01*
X6688655Y2378373D01*
X6704126Y2393845D01*
X6712500Y2414060D01*
Y2435940D01*
X6704126Y2456155D01*
X6688655Y2471627D01*
X6668440Y2480000D01*
D02*
G37*
G36*
X1983454Y2440000D02*
X1966546D01*
X1950926Y2433530D01*
X1938970Y2421574D01*
X1932500Y2405954D01*
Y2389046D01*
X1938970Y2373426D01*
X1950926Y2361470D01*
X1966477Y2355029D01*
X1975788Y2351016D01*
X1977500Y2348453D01*
Y2331546D01*
X1983970Y2315926D01*
X1990537Y2309360D01*
X1983342Y2298593D01*
X1979946Y2300000D01*
X1960054D01*
X1941677Y2292388D01*
X1927612Y2278323D01*
X1916250Y2282790D01*
Y2297211D01*
X1910731Y2310534D01*
X1900534Y2320731D01*
X1887211Y2326250D01*
X1872789D01*
X1859466Y2320731D01*
X1849269Y2310534D01*
X1843750Y2297211D01*
Y2282789D01*
X1849269Y2269466D01*
X1849412Y2269323D01*
Y2259516D01*
X1843970Y2254074D01*
X1837500Y2238454D01*
Y2221546D01*
X1843970Y2205926D01*
X1855926Y2193970D01*
X1871546Y2187500D01*
X1888454D01*
X1904074Y2193970D01*
X1916030Y2205926D01*
X1918775Y2212554D01*
X1933756Y2215534D01*
X1941677Y2207612D01*
X1960054Y2200000D01*
X1979946D01*
X1998323Y2207612D01*
X2012388Y2221677D01*
X2020000Y2240054D01*
Y2259946D01*
X2012388Y2278323D01*
X2003713Y2286998D01*
X2010906Y2297765D01*
X2011546Y2297500D01*
X2028454D01*
X2044074Y2303970D01*
X2056030Y2315926D01*
X2062500Y2331546D01*
Y2348454D01*
X2056030Y2364074D01*
X2044074Y2376030D01*
X2028523Y2382471D01*
X2019212Y2386484D01*
X2017500Y2389047D01*
Y2405954D01*
X2011030Y2421574D01*
X1999074Y2433530D01*
X1983454Y2440000D01*
D02*
G37*
G36*
X254999Y2495949D02*
X245000D01*
X216284Y2492169D01*
X189525Y2481085D01*
X166547Y2463453D01*
X148915Y2440475D01*
X137831Y2413716D01*
X134051Y2385000D01*
X137831Y2356285D01*
X148915Y2329526D01*
X166547Y2306548D01*
X189525Y2288916D01*
X216284Y2277832D01*
X245000Y2274051D01*
X254999D01*
X283715Y2277832D01*
X310474Y2288916D01*
X333452Y2306548D01*
X351084Y2329526D01*
X362168Y2356285D01*
X365948Y2385000D01*
X362168Y2413716D01*
X351084Y2440475D01*
X333452Y2463453D01*
X310474Y2481085D01*
X283715Y2492169D01*
X254999Y2495949D01*
D02*
G37*
G36*
X5648454Y2292500D02*
X5631546D01*
X5615926Y2286030D01*
X5603970Y2274074D01*
X5597500Y2258454D01*
Y2253237D01*
X5585070Y2250765D01*
X5584608Y2251176D01*
X5580731Y2260534D01*
X5570534Y2270731D01*
X5557211Y2276250D01*
X5542790D01*
X5529466Y2270731D01*
X5529323Y2270588D01*
X5519516D01*
X5514074Y2276030D01*
X5498454Y2282500D01*
X5481546D01*
X5465926Y2276030D01*
X5453970Y2264074D01*
X5447500Y2248454D01*
Y2231546D01*
X5453970Y2215926D01*
X5465926Y2203970D01*
X5481546Y2197500D01*
X5498454D01*
X5514074Y2203970D01*
X5519516Y2209412D01*
X5529323D01*
X5529466Y2209269D01*
X5542790Y2203750D01*
X5557211D01*
X5558849Y2204429D01*
X5571549Y2200588D01*
X5577068Y2187265D01*
X5587265Y2177068D01*
X5600588Y2171549D01*
X5615010D01*
X5628333Y2177068D01*
X5638530Y2187265D01*
X5644049Y2200588D01*
Y2204173D01*
X5647376Y2207500D01*
X5648454D01*
X5664074Y2213970D01*
X5676030Y2225926D01*
X5682500Y2241546D01*
Y2258454D01*
X5676030Y2274074D01*
X5664074Y2286030D01*
X5648454Y2292500D01*
D02*
G37*
G36*
X4935968Y2310000D02*
X4924033D01*
X4913006Y2305433D01*
X4904567Y2296994D01*
X4900000Y2285967D01*
Y2274033D01*
X4904567Y2263006D01*
X4913006Y2254567D01*
X4924033Y2250000D01*
X4935968D01*
X4946994Y2254567D01*
X4955433Y2263006D01*
X4960000Y2274033D01*
Y2285967D01*
X4955433Y2296994D01*
X4946994Y2305433D01*
X4935968Y2310000D01*
D02*
G37*
G36*
X6685940Y2355000D02*
X6664060D01*
X6643845Y2346627D01*
X6628373Y2331155D01*
X6620000Y2310940D01*
Y2289060D01*
X6628373Y2268845D01*
X6643845Y2253374D01*
X6664060Y2245000D01*
X6685940D01*
X6706154Y2253374D01*
X6721626Y2268845D01*
X6729999Y2289060D01*
Y2310940D01*
X6721626Y2331155D01*
X6706154Y2346627D01*
X6685940Y2355000D01*
D02*
G37*
G36*
X5255967Y2290000D02*
X5244032D01*
X5233006Y2285433D01*
X5224567Y2276994D01*
X5220000Y2265968D01*
Y2254033D01*
X5224567Y2243006D01*
X5233006Y2234567D01*
X5244032Y2230000D01*
X5255967D01*
X5266994Y2234567D01*
X5275432Y2243006D01*
X5278748Y2243578D01*
X5289382Y2243495D01*
X5295131Y2237746D01*
X5304779Y2233750D01*
X5315222D01*
X5324869Y2237746D01*
X5332254Y2245131D01*
X5336250Y2254779D01*
Y2265222D01*
X5332254Y2274869D01*
X5324869Y2282254D01*
X5315222Y2286250D01*
X5304779D01*
X5295131Y2282254D01*
X5289382Y2276505D01*
X5278748Y2276422D01*
X5275432Y2276994D01*
X5266994Y2285433D01*
X5255967Y2290000D01*
D02*
G37*
G36*
X6178951Y2385000D02*
X6161049D01*
X6144510Y2378149D01*
X6131851Y2365490D01*
X6125000Y2348951D01*
Y2331049D01*
X6131851Y2314509D01*
X6144510Y2301851D01*
X6145719Y2301350D01*
Y2288650D01*
X6144510Y2288149D01*
X6131851Y2275490D01*
X6125000Y2258951D01*
Y2241049D01*
X6131851Y2224510D01*
X6144510Y2211851D01*
X6161049Y2205000D01*
X6178951D01*
X6195491Y2211851D01*
X6208149Y2224510D01*
X6215000Y2241049D01*
Y2258951D01*
X6208149Y2275490D01*
X6195491Y2288149D01*
X6194281Y2288650D01*
Y2301350D01*
X6195491Y2301851D01*
X6208149Y2314509D01*
X6215000Y2331049D01*
Y2348951D01*
X6208149Y2365490D01*
X6195491Y2378149D01*
X6178951Y2385000D01*
D02*
G37*
G36*
X1208454Y2202500D02*
X1191546D01*
X1175926Y2196030D01*
X1170484Y2190588D01*
X1165677D01*
X1165534Y2190731D01*
X1152211Y2196250D01*
X1137789D01*
X1124466Y2190731D01*
X1114269Y2180534D01*
X1108750Y2167211D01*
Y2152789D01*
X1114269Y2139466D01*
X1124466Y2129269D01*
X1137789Y2123750D01*
X1152211D01*
X1165534Y2129269D01*
X1165677Y2129412D01*
X1170484D01*
X1175926Y2123970D01*
X1191546Y2117500D01*
X1208454D01*
X1224074Y2123970D01*
X1236030Y2135926D01*
X1242500Y2151546D01*
Y2168454D01*
X1236030Y2184074D01*
X1224074Y2196030D01*
X1208454Y2202500D01*
D02*
G37*
G36*
X1787210Y2321250D02*
X1772789D01*
X1759466Y2315731D01*
X1749268Y2305534D01*
X1743750Y2292211D01*
Y2277790D01*
X1749268Y2264466D01*
X1749412Y2264323D01*
Y2254516D01*
X1743970Y2249074D01*
X1737500Y2233454D01*
Y2216546D01*
X1743970Y2200926D01*
X1755925Y2188970D01*
X1771546Y2182500D01*
X1788453D01*
X1804074Y2188970D01*
X1816029Y2200926D01*
X1822499Y2216546D01*
Y2233454D01*
X1816029Y2249074D01*
X1810587Y2254516D01*
Y2264323D01*
X1810731Y2264466D01*
X1816249Y2277790D01*
Y2292211D01*
X1810731Y2305534D01*
X1800533Y2315731D01*
X1787210Y2321250D01*
D02*
G37*
G36*
X1687210D02*
X1672789D01*
X1659466Y2315731D01*
X1649268Y2305534D01*
X1643750Y2292211D01*
Y2277790D01*
X1649268Y2264466D01*
X1649412Y2264323D01*
Y2254516D01*
X1643970Y2249074D01*
X1637500Y2233454D01*
Y2216546D01*
X1643970Y2200926D01*
X1655925Y2188970D01*
X1671546Y2182500D01*
X1688453D01*
X1704074Y2188970D01*
X1716029Y2200926D01*
X1722499Y2216546D01*
Y2233454D01*
X1716029Y2249074D01*
X1710587Y2254516D01*
Y2264323D01*
X1710731Y2264466D01*
X1716249Y2277790D01*
Y2292211D01*
X1710731Y2305534D01*
X1700533Y2315731D01*
X1687210Y2321250D01*
D02*
G37*
G36*
X1587210D02*
X1572789D01*
X1559466Y2315731D01*
X1549268Y2305534D01*
X1543750Y2292211D01*
Y2277790D01*
X1549268Y2264466D01*
X1549412Y2264323D01*
Y2254516D01*
X1543970Y2249074D01*
X1537500Y2233454D01*
Y2216546D01*
X1543970Y2200926D01*
X1555925Y2188970D01*
X1571546Y2182500D01*
X1588453D01*
X1604074Y2188970D01*
X1616029Y2200926D01*
X1622499Y2216546D01*
Y2233454D01*
X1616029Y2249074D01*
X1610587Y2254516D01*
Y2264323D01*
X1610731Y2264466D01*
X1616249Y2277790D01*
Y2292211D01*
X1610731Y2305534D01*
X1600533Y2315731D01*
X1587210Y2321250D01*
D02*
G37*
G36*
X1167211Y2331250D02*
X1152789D01*
X1139466Y2325731D01*
X1129269Y2315534D01*
X1123750Y2302211D01*
Y2287789D01*
X1129269Y2274466D01*
X1139466Y2264269D01*
X1152789Y2258750D01*
X1155492D01*
X1157500Y2256742D01*
Y2251546D01*
X1163970Y2235926D01*
X1175926Y2223970D01*
X1191546Y2217500D01*
X1208454D01*
X1224074Y2223970D01*
X1236030Y2235926D01*
X1242500Y2251546D01*
Y2251764D01*
X1255200Y2254290D01*
X1259269Y2244466D01*
X1269466Y2234269D01*
X1278868Y2230375D01*
X1282500Y2226742D01*
Y2216546D01*
X1288970Y2200926D01*
X1300926Y2188970D01*
X1316546Y2182500D01*
X1333454D01*
X1349074Y2188970D01*
X1361030Y2200926D01*
X1365300Y2211236D01*
X1377775Y2217842D01*
X1380200Y2218147D01*
X1382300Y2217134D01*
X1382500Y2216742D01*
Y2216546D01*
X1388970Y2200926D01*
X1400926Y2188970D01*
X1416546Y2182500D01*
X1433454D01*
X1449074Y2188970D01*
X1461030Y2200926D01*
X1467500Y2216546D01*
Y2233454D01*
X1461030Y2249074D01*
X1449074Y2261030D01*
X1433454Y2267500D01*
X1428258D01*
X1426250Y2269508D01*
Y2272211D01*
X1420731Y2285534D01*
X1410534Y2295731D01*
X1397211Y2301250D01*
X1382789D01*
X1369466Y2295731D01*
X1359269Y2285534D01*
X1353750Y2272211D01*
X1341050Y2264353D01*
X1333454Y2267500D01*
X1328258D01*
X1326250Y2269508D01*
Y2272211D01*
X1320731Y2285534D01*
X1310534Y2295731D01*
X1297211Y2301250D01*
X1282789D01*
X1269466Y2295731D01*
X1259269Y2285534D01*
X1254220Y2273345D01*
X1250274Y2272140D01*
X1241050Y2271954D01*
X1236030Y2284074D01*
X1224074Y2296030D01*
X1208454Y2302500D01*
X1198258D01*
X1194625Y2306132D01*
X1190731Y2315534D01*
X1180534Y2325731D01*
X1167211Y2331250D01*
D02*
G37*
G36*
X4502673Y2334250D02*
X4483577D01*
X4465935Y2326942D01*
X4452433Y2313440D01*
X4445125Y2295798D01*
Y2276702D01*
X4452433Y2259060D01*
X4465868Y2245625D01*
X4452433Y2232190D01*
X4445125Y2214548D01*
Y2195452D01*
X4452433Y2177810D01*
X4465935Y2164308D01*
X4483577Y2157000D01*
X4502673D01*
X4520315Y2164308D01*
X4533817Y2177810D01*
X4541125Y2195452D01*
Y2214548D01*
X4533817Y2232190D01*
X4520382Y2245625D01*
X4533817Y2259060D01*
X4541125Y2276702D01*
Y2295798D01*
X4533817Y2313440D01*
X4520315Y2326942D01*
X4502673Y2334250D01*
D02*
G37*
G36*
X808454Y2222500D02*
X791546D01*
X775926Y2216030D01*
X763970Y2204074D01*
X757500Y2188454D01*
Y2171546D01*
X763970Y2155926D01*
X775926Y2143970D01*
X791546Y2137500D01*
X808454D01*
X824074Y2143970D01*
X836030Y2155926D01*
X842500Y2171546D01*
Y2188454D01*
X836030Y2204074D01*
X824074Y2216030D01*
X808454Y2222500D01*
D02*
G37*
G36*
X1208454Y2092500D02*
X1191546D01*
X1175926Y2086030D01*
X1170484Y2080588D01*
X1165677D01*
X1165534Y2080731D01*
X1152211Y2086250D01*
X1137789D01*
X1124466Y2080731D01*
X1114269Y2070534D01*
X1108750Y2057211D01*
Y2042789D01*
X1114269Y2029466D01*
X1124466Y2019269D01*
X1137789Y2013750D01*
X1152211D01*
X1165534Y2019269D01*
X1165677Y2019412D01*
X1170484D01*
X1175926Y2013970D01*
X1191546Y2007500D01*
X1208454D01*
X1224074Y2013970D01*
X1236030Y2025926D01*
X1242500Y2041546D01*
Y2058454D01*
X1236030Y2074074D01*
X1224074Y2086030D01*
X1208454Y2092500D01*
D02*
G37*
G36*
X6178951Y2165000D02*
X6161049D01*
X6144510Y2158149D01*
X6131851Y2145491D01*
X6125000Y2128951D01*
Y2111049D01*
X6131851Y2094510D01*
X6144510Y2081851D01*
X6161049Y2075000D01*
X6178951D01*
X6195491Y2081851D01*
X6208149Y2094510D01*
X6215000Y2111049D01*
Y2128951D01*
X6208149Y2145491D01*
X6195491Y2158149D01*
X6178951Y2165000D01*
D02*
G37*
G36*
X6680940Y2167500D02*
X6659060D01*
X6638845Y2159126D01*
X6623373Y2143655D01*
X6615000Y2123440D01*
Y2101560D01*
X6623373Y2081345D01*
X6638845Y2065873D01*
X6659060Y2057500D01*
X6680940D01*
X6701155Y2065873D01*
X6716626Y2081345D01*
X6725000Y2101560D01*
Y2123440D01*
X6716626Y2143655D01*
X6701155Y2159126D01*
X6680940Y2167500D01*
D02*
G37*
G36*
X3180287Y2750500D02*
X3157213D01*
X3135895Y2741670D01*
X3119580Y2725354D01*
X3110750Y2704037D01*
Y2680963D01*
X3119580Y2659646D01*
X3129504Y2649722D01*
X3130576Y2632833D01*
X3128057Y2630315D01*
X3120750Y2612673D01*
Y2593577D01*
X3128057Y2575935D01*
X3141493Y2562500D01*
X3128057Y2549065D01*
X3120750Y2531423D01*
Y2512327D01*
X3128057Y2494685D01*
X3138484Y2484259D01*
X3127705Y2473479D01*
X3118875Y2452162D01*
Y2429088D01*
X3127705Y2407771D01*
X3135475Y2400000D01*
X3127705Y2392229D01*
X3118875Y2370912D01*
Y2347838D01*
X3127705Y2326521D01*
X3138484Y2315741D01*
X3128057Y2305315D01*
X3120750Y2287673D01*
Y2268577D01*
X3128057Y2250935D01*
X3141493Y2237500D01*
X3128057Y2224065D01*
X3120750Y2206423D01*
Y2187327D01*
X3128057Y2169685D01*
X3130576Y2167167D01*
X3129504Y2150278D01*
X3119580Y2140354D01*
X3110750Y2119037D01*
Y2095963D01*
X3119580Y2074646D01*
X3135895Y2058330D01*
X3157213Y2049500D01*
X3180287D01*
X3201604Y2058330D01*
X3217920Y2074646D01*
X3226750Y2095963D01*
Y2119037D01*
X3217920Y2140354D01*
X3207996Y2150278D01*
X3206924Y2167167D01*
X3209442Y2169685D01*
X3216750Y2187327D01*
Y2206423D01*
X3209442Y2224065D01*
X3196007Y2237500D01*
X3209442Y2250935D01*
X3216750Y2268577D01*
Y2287673D01*
X3212615Y2297654D01*
X3210459Y2307032D01*
X3216121Y2316597D01*
X3226045Y2326521D01*
X3234875Y2347838D01*
Y2370912D01*
X3226045Y2392229D01*
X3218274Y2400000D01*
X3226045Y2407771D01*
X3234875Y2429088D01*
Y2452162D01*
X3226045Y2473479D01*
X3216121Y2483403D01*
X3210459Y2492968D01*
X3212615Y2502346D01*
X3216750Y2512327D01*
Y2531423D01*
X3209442Y2549065D01*
X3196007Y2562500D01*
X3209442Y2575935D01*
X3216750Y2593577D01*
Y2612673D01*
X3209442Y2630315D01*
X3206924Y2632833D01*
X3207996Y2649722D01*
X3217920Y2659646D01*
X3226750Y2680963D01*
Y2704037D01*
X3217920Y2725354D01*
X3201604Y2741670D01*
X3180287Y2750500D01*
D02*
G37*
G36*
X7253558Y2177500D02*
X7236442D01*
X7219911Y2173070D01*
X7205089Y2164513D01*
X7192987Y2152411D01*
X7184430Y2137589D01*
X7180000Y2121057D01*
Y2103942D01*
X7184430Y2087411D01*
X7192987Y2072589D01*
X7205089Y2060487D01*
X7219911Y2051930D01*
X7236442Y2047500D01*
X7253558D01*
X7270089Y2051930D01*
X7284911Y2060487D01*
X7297013Y2072589D01*
X7305570Y2087411D01*
X7310000Y2103942D01*
Y2121057D01*
X7305570Y2137589D01*
X7297013Y2152411D01*
X7284911Y2164513D01*
X7270089Y2173070D01*
X7253558Y2177500D01*
D02*
G37*
G36*
X5748454Y2122500D02*
X5731546D01*
X5715926Y2116030D01*
X5703970Y2104074D01*
X5697500Y2088454D01*
Y2071546D01*
X5703970Y2055926D01*
X5715926Y2043970D01*
X5731546Y2037500D01*
X5748454D01*
X5764074Y2043970D01*
X5769516Y2049412D01*
X5789323D01*
X5789466Y2049269D01*
X5802790Y2043750D01*
X5817211D01*
X5830534Y2049269D01*
X5840731Y2059466D01*
X5846250Y2072789D01*
Y2087210D01*
X5840731Y2100534D01*
X5830534Y2110731D01*
X5817211Y2116250D01*
X5802790D01*
X5789466Y2110731D01*
X5789323Y2110588D01*
X5769516D01*
X5764074Y2116030D01*
X5748454Y2122500D01*
D02*
G37*
G36*
X1806961Y2110000D02*
X1793038D01*
X1780173Y2104672D01*
X1770328Y2094826D01*
X1765000Y2081962D01*
Y2068038D01*
X1770328Y2055174D01*
X1780173Y2045329D01*
X1793038Y2040000D01*
X1806961D01*
X1819825Y2045329D01*
X1829671Y2055174D01*
X1834999Y2068038D01*
Y2081962D01*
X1829671Y2094826D01*
X1819825Y2104672D01*
X1806961Y2110000D01*
D02*
G37*
G36*
X1656961D02*
X1643038D01*
X1630174Y2104672D01*
X1620328Y2094826D01*
X1615000Y2081962D01*
Y2068038D01*
X1620328Y2055174D01*
X1630174Y2045329D01*
X1643038Y2040000D01*
X1656961D01*
X1669825Y2045329D01*
X1679671Y2055174D01*
X1684999Y2068038D01*
Y2081962D01*
X1679671Y2094826D01*
X1669825Y2104672D01*
X1656961Y2110000D01*
D02*
G37*
G36*
X1488211D02*
X1474288D01*
X1461424Y2104672D01*
X1451578Y2094826D01*
X1446250Y2081962D01*
Y2068038D01*
X1451578Y2055174D01*
X1461424Y2045329D01*
X1474288Y2040000D01*
X1488211D01*
X1501075Y2045329D01*
X1510921Y2055174D01*
X1516249Y2068038D01*
Y2081962D01*
X1510921Y2094826D01*
X1501075Y2104672D01*
X1488211Y2110000D01*
D02*
G37*
G36*
X5287211Y2166250D02*
X5272790D01*
X5259466Y2160731D01*
X5249269Y2150534D01*
X5243750Y2137211D01*
Y2122790D01*
X5249269Y2109466D01*
X5249316Y2109419D01*
X5243970Y2104074D01*
X5237500Y2088454D01*
Y2071546D01*
X5243970Y2055926D01*
X5255926Y2043970D01*
X5271546Y2037500D01*
X5288454D01*
X5304074Y2043970D01*
X5316030Y2055926D01*
X5322500Y2071546D01*
Y2088454D01*
X5316030Y2104074D01*
X5310684Y2109419D01*
X5310731Y2109466D01*
X5316250Y2122790D01*
Y2137211D01*
X5310731Y2150534D01*
X5300534Y2160731D01*
X5287211Y2166250D01*
D02*
G37*
G36*
X583454Y2117500D02*
X566546D01*
X550926Y2111030D01*
X538970Y2099074D01*
X532500Y2083454D01*
Y2066546D01*
X538970Y2050926D01*
X550926Y2038970D01*
X566546Y2032500D01*
X583454D01*
X599074Y2038970D01*
X611030Y2050926D01*
X617500Y2066546D01*
Y2083454D01*
X611030Y2099074D01*
X599074Y2111030D01*
X583454Y2117500D01*
D02*
G37*
G36*
X4534079Y2085000D02*
X4517171D01*
X4501551Y2078530D01*
X4489595Y2066574D01*
X4483125Y2050954D01*
Y2034046D01*
X4486184Y2026661D01*
X4476464Y2016941D01*
X4469078Y2020000D01*
X4452171D01*
X4436551Y2013530D01*
X4424595Y2001574D01*
X4418125Y1985954D01*
Y1969046D01*
X4424595Y1953426D01*
X4436551Y1941470D01*
X4452171Y1935000D01*
X4469078D01*
X4484699Y1941470D01*
X4496654Y1953426D01*
X4503125Y1969046D01*
Y1985954D01*
X4500065Y1993339D01*
X4509786Y2003059D01*
X4517171Y2000000D01*
X4534079D01*
X4549699Y2006470D01*
X4561655Y2018426D01*
X4568125Y2034046D01*
Y2050954D01*
X4561655Y2066574D01*
X4549699Y2078530D01*
X4534079Y2085000D01*
D02*
G37*
G36*
X1881961Y2066250D02*
X1868037D01*
X1855173Y2060922D01*
X1845328Y2051076D01*
X1839999Y2038212D01*
Y2024288D01*
X1845328Y2011424D01*
X1855173Y2001579D01*
X1868037Y1996250D01*
X1881961D01*
X1894825Y2001579D01*
X1904671Y2011424D01*
X1909999Y2024288D01*
Y2038212D01*
X1904671Y2051076D01*
X1894825Y2060922D01*
X1881961Y2066250D01*
D02*
G37*
G36*
X1731961D02*
X1718037D01*
X1705173Y2060922D01*
X1695328Y2051076D01*
X1689999Y2038212D01*
Y2024288D01*
X1695328Y2011424D01*
X1705173Y2001579D01*
X1718037Y1996250D01*
X1731961D01*
X1744825Y2001579D01*
X1754671Y2011424D01*
X1759999Y2024288D01*
Y2038212D01*
X1754671Y2051076D01*
X1744825Y2060922D01*
X1731961Y2066250D01*
D02*
G37*
G36*
X1581961D02*
X1568038D01*
X1555173Y2060922D01*
X1545328Y2051076D01*
X1539999Y2038212D01*
Y2024288D01*
X1545328Y2011424D01*
X1555173Y2001579D01*
X1568038Y1996250D01*
X1581961D01*
X1594825Y2001579D01*
X1604671Y2011424D01*
X1609999Y2024288D01*
Y2038212D01*
X1604671Y2051076D01*
X1594825Y2060922D01*
X1581961Y2066250D01*
D02*
G37*
G36*
X433454Y2067500D02*
X416546D01*
X400926Y2061030D01*
X388970Y2049074D01*
X382500Y2033454D01*
Y2016546D01*
X388970Y2000926D01*
X400926Y1988970D01*
X416546Y1982500D01*
X433454D01*
X449074Y1988970D01*
X461030Y2000926D01*
X467500Y2016546D01*
Y2033454D01*
X461030Y2049074D01*
X449074Y2061030D01*
X433454Y2067500D01*
D02*
G37*
G36*
X1208454Y1992500D02*
X1191546D01*
X1175926Y1986030D01*
X1170484Y1980588D01*
X1165677D01*
X1165534Y1980731D01*
X1152211Y1986250D01*
X1137789D01*
X1124466Y1980731D01*
X1114269Y1970534D01*
X1108750Y1957210D01*
Y1942789D01*
X1114269Y1929466D01*
X1124466Y1919269D01*
X1137789Y1913750D01*
X1152211D01*
X1165534Y1919269D01*
X1165677Y1919412D01*
X1170484D01*
X1175926Y1913970D01*
X1191546Y1907500D01*
X1208454D01*
X1224074Y1913970D01*
X1236030Y1925926D01*
X1242500Y1941546D01*
Y1958454D01*
X1236030Y1974074D01*
X1224074Y1986030D01*
X1208454Y1992500D01*
D02*
G37*
G36*
X5099946Y2060000D02*
X5080054D01*
X5061677Y2052388D01*
X5047612Y2038323D01*
X5040000Y2019946D01*
Y2000054D01*
X5047612Y1981677D01*
X5061677Y1967612D01*
X5080054Y1960000D01*
X5099946D01*
X5118323Y1967612D01*
X5132388Y1981677D01*
X5140000Y2000054D01*
Y2019946D01*
X5132388Y2038323D01*
X5118323Y2052388D01*
X5099946Y2060000D01*
D02*
G37*
G36*
X7683557Y2065000D02*
X7666442D01*
X7649910Y2060570D01*
X7635089Y2052013D01*
X7622987Y2039911D01*
X7614429Y2025089D01*
X7610000Y2008558D01*
Y1991443D01*
X7614429Y1974911D01*
X7622987Y1960090D01*
X7635089Y1947987D01*
X7649910Y1939430D01*
X7666442Y1935000D01*
X7683557D01*
X7700088Y1939430D01*
X7714910Y1947987D01*
X7727012Y1960090D01*
X7735569Y1974911D01*
X7739999Y1991443D01*
Y2008558D01*
X7735569Y2025089D01*
X7727012Y2039911D01*
X7714910Y2052013D01*
X7700088Y2060570D01*
X7683557Y2065000D01*
D02*
G37*
G36*
X5639946Y2015000D02*
X5620054D01*
X5601677Y2007388D01*
X5587612Y1993323D01*
X5580000Y1974946D01*
Y1955055D01*
X5587612Y1936677D01*
X5601677Y1922612D01*
X5620054Y1915000D01*
X5639946D01*
X5658323Y1922612D01*
X5672388Y1936677D01*
X5680000Y1955055D01*
Y1974946D01*
X5672388Y1993323D01*
X5658323Y2007388D01*
X5639946Y2015000D01*
D02*
G37*
G36*
X1527411Y1974200D02*
X1513487D01*
X1500623Y1968872D01*
X1490778Y1959026D01*
X1485449Y1946162D01*
Y1932238D01*
X1490778Y1919374D01*
X1500623Y1909529D01*
X1513487Y1904200D01*
X1527411D01*
X1540275Y1909529D01*
X1550121Y1919374D01*
X1555449Y1932238D01*
Y1946162D01*
X1550121Y1959026D01*
X1540275Y1968872D01*
X1527411Y1974200D01*
D02*
G37*
G36*
X3998454Y1972500D02*
X3981546D01*
X3965926Y1966030D01*
X3953970Y1954074D01*
X3947500Y1938454D01*
Y1921546D01*
X3953970Y1905926D01*
X3965926Y1893970D01*
X3981546Y1887500D01*
X3998454D01*
X4014074Y1893970D01*
X4026030Y1905926D01*
X4032500Y1921546D01*
Y1938454D01*
X4026030Y1954074D01*
X4014074Y1966030D01*
X3998454Y1972500D01*
D02*
G37*
G36*
X1594974Y1907999D02*
X1586023D01*
X1577753Y1904574D01*
X1571424Y1898244D01*
X1567998Y1889975D01*
Y1881024D01*
X1571424Y1872754D01*
X1577753Y1866425D01*
X1586023Y1862999D01*
X1594974D01*
X1603244Y1866425D01*
X1609573Y1872754D01*
X1612999Y1881024D01*
Y1889975D01*
X1609573Y1898244D01*
X1603244Y1904574D01*
X1594974Y1907999D01*
D02*
G37*
G36*
X1814475Y1907500D02*
X1805524D01*
X1797254Y1904075D01*
X1790925Y1897746D01*
X1787499Y1889476D01*
Y1880525D01*
X1790925Y1872255D01*
X1797254Y1865926D01*
X1805524Y1862500D01*
X1814475D01*
X1822745Y1865926D01*
X1829074Y1872255D01*
X1832500Y1880525D01*
Y1889476D01*
X1829074Y1897746D01*
X1822745Y1904075D01*
X1814475Y1907500D01*
D02*
G37*
G36*
X1704475D02*
X1695524D01*
X1687254Y1904075D01*
X1680925Y1897746D01*
X1677499Y1889476D01*
Y1880525D01*
X1680925Y1872255D01*
X1687254Y1865926D01*
X1695524Y1862500D01*
X1704475D01*
X1712745Y1865926D01*
X1719074Y1872255D01*
X1722499Y1880525D01*
Y1889476D01*
X1719074Y1897746D01*
X1712745Y1904075D01*
X1704475Y1907500D01*
D02*
G37*
G36*
X3658454Y1942500D02*
X3641546D01*
X3625926Y1936030D01*
X3613970Y1924074D01*
X3607500Y1908454D01*
Y1891546D01*
X3613970Y1875926D01*
X3625926Y1863970D01*
X3641546Y1857500D01*
X3658454D01*
X3674074Y1863970D01*
X3686030Y1875926D01*
X3692500Y1891546D01*
Y1908454D01*
X3686030Y1924074D01*
X3674074Y1936030D01*
X3658454Y1942500D01*
D02*
G37*
G36*
X6780940Y1955000D02*
X6759060D01*
X6738845Y1946627D01*
X6723373Y1931155D01*
X6715000Y1910940D01*
Y1889060D01*
X6723373Y1868845D01*
X6738845Y1853373D01*
X6759060Y1845000D01*
X6780940D01*
X6801155Y1853373D01*
X6816626Y1868845D01*
X6825000Y1889060D01*
Y1910940D01*
X6816626Y1931155D01*
X6801155Y1946627D01*
X6780940Y1955000D01*
D02*
G37*
G36*
X2019461Y1910000D02*
X2005538D01*
X1992673Y1904672D01*
X1982828Y1894826D01*
X1977499Y1881962D01*
Y1868038D01*
X1982828Y1855174D01*
X1992673Y1845329D01*
X2005538Y1840000D01*
X2019461D01*
X2032325Y1845329D01*
X2042171Y1855174D01*
X2047499Y1868038D01*
Y1881962D01*
X2042171Y1894826D01*
X2032325Y1904672D01*
X2019461Y1910000D01*
D02*
G37*
G36*
X3868454Y1892500D02*
X3851546D01*
X3835926Y1886030D01*
X3823970Y1874074D01*
X3817500Y1858454D01*
Y1841546D01*
X3823970Y1825926D01*
X3835926Y1813970D01*
X3851546Y1807500D01*
X3868454D01*
X3884074Y1813970D01*
X3896030Y1825926D01*
X3902500Y1841546D01*
Y1858454D01*
X3896030Y1874074D01*
X3884074Y1886030D01*
X3868454Y1892500D01*
D02*
G37*
G36*
X6108951Y1893550D02*
X6091049D01*
X6074510Y1886700D01*
X6061851Y1874041D01*
X6055000Y1857501D01*
Y1839600D01*
X6061851Y1823060D01*
X6074510Y1810402D01*
X6091049Y1803551D01*
X6108951D01*
X6125490Y1810402D01*
X6138149Y1823060D01*
X6145000Y1839600D01*
Y1857501D01*
X6138149Y1874041D01*
X6125490Y1886700D01*
X6108951Y1893550D01*
D02*
G37*
G36*
X2318454Y1872500D02*
X2301546D01*
X2285926Y1866030D01*
X2273970Y1854074D01*
X2267500Y1838454D01*
Y1821546D01*
X2273970Y1805926D01*
X2285926Y1793970D01*
X2301546Y1787500D01*
X2318454D01*
X2334074Y1793970D01*
X2339516Y1799412D01*
X2349323D01*
X2349466Y1799269D01*
X2362790Y1793750D01*
X2377211D01*
X2390534Y1799269D01*
X2400731Y1809466D01*
X2406250Y1822789D01*
Y1837210D01*
X2400731Y1850534D01*
X2390534Y1860731D01*
X2377211Y1866250D01*
X2362790D01*
X2349466Y1860731D01*
X2349323Y1860588D01*
X2339516D01*
X2334074Y1866030D01*
X2318454Y1872500D01*
D02*
G37*
G36*
X5234984Y1865124D02*
X5218077D01*
X5202456Y1858654D01*
X5190501Y1846698D01*
X5184031Y1831078D01*
Y1814170D01*
X5190501Y1798550D01*
X5202456Y1786594D01*
X5218077Y1780124D01*
X5234984D01*
X5238409Y1781543D01*
X5239269Y1779466D01*
X5249466Y1769269D01*
X5262789Y1763750D01*
X5277210D01*
X5290534Y1769269D01*
X5300731Y1779466D01*
X5306250Y1792789D01*
Y1807211D01*
X5300731Y1820534D01*
X5290534Y1830731D01*
X5277210Y1836250D01*
X5273625D01*
X5270406Y1839470D01*
X5263698Y1843951D01*
X5262560Y1846698D01*
X5250605Y1858654D01*
X5234984Y1865124D01*
D02*
G37*
G36*
X1541975Y1803750D02*
X1533024D01*
X1524754Y1800325D01*
X1518425Y1793995D01*
X1514999Y1785726D01*
Y1776775D01*
X1518425Y1768505D01*
X1524754Y1762176D01*
X1533024Y1758750D01*
X1541975D01*
X1550245Y1762176D01*
X1556574Y1768505D01*
X1559999Y1776775D01*
Y1785726D01*
X1556574Y1793995D01*
X1550245Y1800325D01*
X1541975Y1803750D01*
D02*
G37*
G36*
X2573454Y1842601D02*
X2556547D01*
X2540926Y1836131D01*
X2528971Y1824175D01*
X2522500Y1808555D01*
Y1791647D01*
X2528971Y1776027D01*
X2540926Y1764071D01*
X2556547Y1757601D01*
X2573454D01*
X2589074Y1764071D01*
X2601030Y1776027D01*
X2607500Y1791647D01*
Y1808555D01*
X2601030Y1824175D01*
X2589074Y1836131D01*
X2573454Y1842601D01*
D02*
G37*
G36*
X1993611Y1810400D02*
X1979687D01*
X1966823Y1805072D01*
X1956978Y1795226D01*
X1951649Y1782362D01*
Y1768438D01*
X1956978Y1755574D01*
X1966823Y1745729D01*
X1979687Y1740400D01*
X1993611D01*
X2006475Y1745729D01*
X2016321Y1755574D01*
X2021649Y1768438D01*
Y1782362D01*
X2016321Y1795226D01*
X2006475Y1805072D01*
X1993611Y1810400D01*
D02*
G37*
G36*
X7003557Y1865000D02*
X6986442D01*
X6969911Y1860570D01*
X6955089Y1852013D01*
X6942987Y1839911D01*
X6934430Y1825089D01*
X6930000Y1808557D01*
Y1791442D01*
X6934430Y1774911D01*
X6942987Y1760089D01*
X6955089Y1747987D01*
X6969911Y1739430D01*
X6986442Y1735000D01*
X7003557D01*
X7020089Y1739430D01*
X7034911Y1747987D01*
X7047013Y1760089D01*
X7055570Y1774911D01*
X7060000Y1791442D01*
Y1808557D01*
X7055570Y1825089D01*
X7047013Y1839911D01*
X7034911Y1852013D01*
X7020089Y1860570D01*
X7003557Y1865000D01*
D02*
G37*
G36*
X5638454Y1842500D02*
X5621546D01*
X5605926Y1836030D01*
X5593970Y1824074D01*
X5587500Y1808454D01*
Y1791546D01*
X5593970Y1775926D01*
X5605926Y1763970D01*
X5621546Y1757500D01*
X5635860D01*
X5635999Y1757361D01*
X5639269Y1749466D01*
X5649466Y1739269D01*
X5662790Y1733750D01*
X5677211D01*
X5690534Y1739269D01*
X5700731Y1749466D01*
X5706250Y1762789D01*
Y1777211D01*
X5700731Y1790534D01*
X5690534Y1800731D01*
X5677211Y1806250D01*
X5673625D01*
X5672500Y1807376D01*
Y1808454D01*
X5666030Y1824074D01*
X5654074Y1836030D01*
X5638454Y1842500D01*
D02*
G37*
G36*
X1276962Y1795000D02*
X1263038D01*
X1250174Y1789672D01*
X1240328Y1779826D01*
X1235000Y1766962D01*
Y1753038D01*
X1240328Y1740174D01*
X1250174Y1730329D01*
X1263038Y1725000D01*
X1276962D01*
X1289826Y1730329D01*
X1299672Y1740174D01*
X1305000Y1753038D01*
Y1766962D01*
X1299672Y1779826D01*
X1289826Y1789672D01*
X1276962Y1795000D01*
D02*
G37*
G36*
X2689688Y1802500D02*
X2672781D01*
X2657161Y1796030D01*
X2645205Y1784074D01*
X2638735Y1768454D01*
Y1751546D01*
X2645205Y1735926D01*
X2657161Y1723970D01*
X2672781Y1717500D01*
X2689688D01*
X2705309Y1723970D01*
X2717264Y1735926D01*
X2723734Y1751546D01*
Y1768454D01*
X2717264Y1784074D01*
X2705309Y1796030D01*
X2689688Y1802500D01*
D02*
G37*
G36*
X6806962Y1695000D02*
X6793038D01*
X6780174Y1689672D01*
X6770329Y1679826D01*
X6766733Y1671146D01*
X6753267D01*
X6749672Y1679826D01*
X6739826Y1689672D01*
X6726962Y1695000D01*
X6713038D01*
X6700174Y1689672D01*
X6690329Y1679826D01*
X6685000Y1666962D01*
Y1653038D01*
X6690329Y1640174D01*
X6700174Y1630328D01*
X6713038Y1625000D01*
X6726962D01*
X6739826Y1630328D01*
X6749672Y1640174D01*
X6753267Y1648854D01*
X6766733D01*
X6770329Y1640174D01*
X6780174Y1630328D01*
X6793038Y1625000D01*
X6806962D01*
X6819826Y1630328D01*
X6829672Y1640174D01*
X6835000Y1653038D01*
Y1666962D01*
X6829672Y1679826D01*
X6819826Y1689672D01*
X6806962Y1695000D01*
D02*
G37*
G36*
X2318454Y1742500D02*
X2301546D01*
X2285926Y1736030D01*
X2273970Y1724074D01*
X2267500Y1708454D01*
Y1691546D01*
X2273970Y1675926D01*
X2285926Y1663970D01*
X2301546Y1657500D01*
X2318454D01*
X2334074Y1663970D01*
X2339516Y1669412D01*
X2349323D01*
X2349466Y1669269D01*
X2362790Y1663750D01*
X2377211D01*
X2390534Y1669269D01*
X2400731Y1679466D01*
X2406250Y1692789D01*
Y1707210D01*
X2400731Y1720534D01*
X2390534Y1730731D01*
X2377211Y1736250D01*
X2362790D01*
X2349466Y1730731D01*
X2349323Y1730588D01*
X2339516D01*
X2334074Y1736030D01*
X2318454Y1742500D01*
D02*
G37*
G36*
X7528454Y1740000D02*
X7511546D01*
X7495926Y1733530D01*
X7483970Y1721574D01*
X7477500Y1705954D01*
Y1689046D01*
X7483970Y1673426D01*
X7495926Y1661470D01*
X7511546Y1655000D01*
X7528454D01*
X7544074Y1661470D01*
X7556030Y1673426D01*
X7562500Y1689046D01*
Y1705954D01*
X7556030Y1721574D01*
X7544074Y1733530D01*
X7528454Y1740000D01*
D02*
G37*
G36*
X1866975Y1697500D02*
X1858024D01*
X1849754Y1694075D01*
X1843425Y1687745D01*
X1839999Y1679476D01*
Y1670525D01*
X1843425Y1662255D01*
X1849754Y1655926D01*
X1858024Y1652500D01*
X1866975D01*
X1875245Y1655926D01*
X1881574Y1662255D01*
X1885000Y1670525D01*
Y1679476D01*
X1881574Y1687745D01*
X1875245Y1694075D01*
X1866975Y1697500D01*
D02*
G37*
G36*
X1993611Y1722200D02*
X1979687D01*
X1966823Y1716872D01*
X1956978Y1707026D01*
X1951649Y1694162D01*
Y1680238D01*
X1956978Y1667374D01*
X1966823Y1657529D01*
X1979687Y1652200D01*
X1993611D01*
X2006475Y1657529D01*
X2016321Y1667374D01*
X2021649Y1680238D01*
Y1694162D01*
X2016321Y1707026D01*
X2006475Y1716872D01*
X1993611Y1722200D01*
D02*
G37*
G36*
X1540675Y1690800D02*
X1531724D01*
X1523454Y1687375D01*
X1517125Y1681045D01*
X1513699Y1672776D01*
Y1663825D01*
X1517125Y1655555D01*
X1523454Y1649226D01*
X1531724Y1645800D01*
X1540675D01*
X1548945Y1649226D01*
X1555274Y1655555D01*
X1558699Y1663825D01*
Y1672776D01*
X1555274Y1681045D01*
X1548945Y1687375D01*
X1540675Y1690800D01*
D02*
G37*
G36*
X1394461Y2010000D02*
X1380537D01*
X1367673Y2004672D01*
X1357828Y1994826D01*
X1352499Y1981962D01*
Y1968038D01*
X1357828Y1955174D01*
X1367673Y1945329D01*
X1369980Y1944373D01*
Y1930627D01*
X1367673Y1929672D01*
X1357828Y1919826D01*
X1352499Y1906962D01*
Y1893038D01*
X1357828Y1880174D01*
X1364605Y1873397D01*
X1366516Y1865625D01*
X1364605Y1857853D01*
X1357828Y1851076D01*
X1352499Y1838212D01*
Y1824288D01*
X1357828Y1811424D01*
X1367673Y1801579D01*
X1378787Y1796975D01*
X1379371Y1792981D01*
Y1788269D01*
X1378787Y1784275D01*
X1367673Y1779672D01*
X1357828Y1769826D01*
X1352499Y1756962D01*
Y1743038D01*
X1357828Y1730174D01*
X1367673Y1720329D01*
X1378787Y1715725D01*
X1379371Y1711731D01*
Y1707019D01*
X1378787Y1703025D01*
X1367673Y1698422D01*
X1357828Y1688576D01*
X1352499Y1675712D01*
Y1661788D01*
X1357828Y1648924D01*
X1367673Y1639079D01*
X1380537Y1633750D01*
X1394461D01*
X1407325Y1639079D01*
X1417171Y1648924D01*
X1422499Y1661788D01*
Y1675712D01*
X1417171Y1688576D01*
X1407325Y1698422D01*
X1396212Y1703025D01*
X1395628Y1707019D01*
Y1711731D01*
X1396212Y1715725D01*
X1407325Y1720329D01*
X1417171Y1730174D01*
X1422499Y1743038D01*
Y1756962D01*
X1417171Y1769826D01*
X1407325Y1779672D01*
X1396212Y1784275D01*
X1395628Y1788269D01*
Y1792981D01*
X1396212Y1796975D01*
X1407325Y1801579D01*
X1417171Y1811424D01*
X1422499Y1824288D01*
Y1838212D01*
X1417171Y1851076D01*
X1410394Y1857853D01*
X1408482Y1865625D01*
X1410394Y1873397D01*
X1417171Y1880174D01*
X1422499Y1893038D01*
Y1906962D01*
X1417171Y1919826D01*
X1407325Y1929672D01*
X1405019Y1930627D01*
Y1944373D01*
X1407325Y1945329D01*
X1417171Y1955174D01*
X1422499Y1968038D01*
Y1981962D01*
X1417171Y1994826D01*
X1407325Y2004672D01*
X1394461Y2010000D01*
D02*
G37*
G36*
X3466962Y1695000D02*
X3453038D01*
X3440174Y1689672D01*
X3430328Y1679826D01*
X3425000Y1666962D01*
Y1653038D01*
X3430328Y1640174D01*
X3440174Y1630328D01*
X3453038Y1625000D01*
X3466962D01*
X3479826Y1630328D01*
X3489671Y1640174D01*
X3495000Y1653038D01*
Y1666962D01*
X3489671Y1679826D01*
X3479826Y1689672D01*
X3466962Y1695000D01*
D02*
G37*
G36*
X2866962D02*
X2853038D01*
X2840174Y1689672D01*
X2830329Y1679826D01*
X2825000Y1666962D01*
Y1653038D01*
X2830329Y1640174D01*
X2840174Y1630328D01*
X2853038Y1625000D01*
X2866962D01*
X2879826Y1630328D01*
X2889672Y1640174D01*
X2895000Y1653038D01*
Y1666962D01*
X2889672Y1679826D01*
X2879826Y1689672D01*
X2866962Y1695000D01*
D02*
G37*
G36*
X4276962Y1685000D02*
X4263038D01*
X4250174Y1679672D01*
X4240329Y1669826D01*
X4235000Y1656962D01*
Y1643038D01*
X4240329Y1630174D01*
X4250174Y1620328D01*
X4263038Y1615000D01*
X4276962D01*
X4289826Y1620328D01*
X4299672Y1630174D01*
X4305000Y1643038D01*
Y1656962D01*
X4299672Y1669826D01*
X4289826Y1679672D01*
X4276962Y1685000D01*
D02*
G37*
G36*
X2608454Y1643734D02*
X2591546D01*
X2575926Y1637264D01*
X2563970Y1625309D01*
X2557500Y1609688D01*
Y1592781D01*
X2563970Y1577160D01*
X2575926Y1565205D01*
X2591546Y1558735D01*
X2608454D01*
X2624074Y1565205D01*
X2636030Y1577160D01*
X2642500Y1592781D01*
Y1609688D01*
X2636030Y1625309D01*
X2624074Y1637264D01*
X2608454Y1643734D01*
D02*
G37*
G36*
X1679475Y1602500D02*
X1670524D01*
X1662254Y1599075D01*
X1655925Y1592745D01*
X1652499Y1584476D01*
Y1575525D01*
X1655925Y1567255D01*
X1662254Y1560926D01*
X1670524Y1557500D01*
X1679475D01*
X1687745Y1560926D01*
X1694074Y1567255D01*
X1697500Y1575525D01*
Y1584476D01*
X1694074Y1592745D01*
X1687745Y1599075D01*
X1679475Y1602500D01*
D02*
G37*
G36*
X1866975Y1585000D02*
X1858024D01*
X1849754Y1581575D01*
X1843425Y1575245D01*
X1839999Y1566976D01*
Y1558025D01*
X1843425Y1549755D01*
X1849754Y1543425D01*
X1858024Y1540000D01*
X1866975D01*
X1875245Y1543425D01*
X1881574Y1549755D01*
X1885000Y1558025D01*
Y1566976D01*
X1881574Y1575245D01*
X1875245Y1581575D01*
X1866975Y1585000D01*
D02*
G37*
G36*
X2205954Y1622500D02*
X2189046D01*
X2173426Y1616030D01*
X2161470Y1604074D01*
X2155000Y1588454D01*
Y1571546D01*
X2161470Y1555926D01*
X2173426Y1543970D01*
X2189046Y1537500D01*
X2205954D01*
X2221574Y1543970D01*
X2233530Y1555926D01*
X2240000Y1571546D01*
Y1588454D01*
X2233530Y1604074D01*
X2221574Y1616030D01*
X2205954Y1622500D01*
D02*
G37*
G36*
X2318454Y1612500D02*
X2301546D01*
X2285926Y1606030D01*
X2273970Y1594074D01*
X2267500Y1578454D01*
Y1561546D01*
X2273970Y1545926D01*
X2285926Y1533970D01*
X2301546Y1527500D01*
X2318454D01*
X2334074Y1533970D01*
X2339516Y1539412D01*
X2349323D01*
X2349466Y1539269D01*
X2362790Y1533750D01*
X2377211D01*
X2390534Y1539269D01*
X2400731Y1549466D01*
X2406250Y1562789D01*
Y1577210D01*
X2400731Y1590534D01*
X2390534Y1600731D01*
X2377211Y1606250D01*
X2362790D01*
X2349466Y1600731D01*
X2349323Y1600588D01*
X2339516D01*
X2334074Y1606030D01*
X2318454Y1612500D01*
D02*
G37*
G36*
X1990461Y1577300D02*
X1976538D01*
X1963673Y1571972D01*
X1953828Y1562126D01*
X1948500Y1549262D01*
Y1535338D01*
X1953828Y1522474D01*
X1963673Y1512629D01*
X1976538Y1507300D01*
X1990461D01*
X2003325Y1512629D01*
X2013171Y1522474D01*
X2018499Y1535338D01*
Y1549262D01*
X2013171Y1562126D01*
X2003325Y1571972D01*
X1990461Y1577300D01*
D02*
G37*
G36*
X2698454Y1572500D02*
X2681546D01*
X2665926Y1566030D01*
X2653970Y1554074D01*
X2647500Y1538454D01*
Y1521546D01*
X2653970Y1505926D01*
X2665926Y1493970D01*
X2681546Y1487500D01*
X2698454D01*
X2714074Y1493970D01*
X2726030Y1505926D01*
X2732500Y1521546D01*
Y1538454D01*
X2726030Y1554074D01*
X2714074Y1566030D01*
X2698454Y1572500D01*
D02*
G37*
G36*
X7297795Y1563158D02*
X7280888D01*
X7265267Y1556688D01*
X7253312Y1544732D01*
X7246841Y1529112D01*
Y1512205D01*
X7253312Y1496584D01*
X7265267Y1484629D01*
X7280888Y1478159D01*
X7297795D01*
X7313415Y1484629D01*
X7325371Y1496584D01*
X7331841Y1512205D01*
Y1529112D01*
X7325371Y1544732D01*
X7313415Y1556688D01*
X7297795Y1563158D01*
D02*
G37*
G36*
X6958454Y1482500D02*
X6941546D01*
X6925926Y1476030D01*
X6918076Y1468179D01*
X6910000Y1465427D01*
X6901924Y1468179D01*
X6894074Y1476030D01*
X6878454Y1482500D01*
X6861546D01*
X6845926Y1476030D01*
X6833970Y1464074D01*
X6827500Y1448454D01*
Y1431546D01*
X6833970Y1415926D01*
X6845926Y1403970D01*
X6861546Y1397500D01*
X6878454D01*
X6894074Y1403970D01*
X6901924Y1411821D01*
X6910000Y1414572D01*
X6918076Y1411821D01*
X6925926Y1403970D01*
X6941546Y1397500D01*
X6958454D01*
X6974074Y1403970D01*
X6986030Y1415926D01*
X6992500Y1431546D01*
Y1448454D01*
X6986030Y1464074D01*
X6974074Y1476030D01*
X6958454Y1482500D01*
D02*
G37*
G36*
X1394461Y1616250D02*
X1380537D01*
X1367673Y1610922D01*
X1357828Y1601076D01*
X1352499Y1588212D01*
Y1574288D01*
X1357828Y1561424D01*
X1367673Y1551579D01*
X1378787Y1546975D01*
X1379371Y1542981D01*
Y1538269D01*
X1378787Y1534275D01*
X1367673Y1529672D01*
X1357828Y1519826D01*
X1352499Y1506962D01*
Y1493038D01*
X1357828Y1480174D01*
X1367673Y1470329D01*
X1380537Y1465000D01*
X1394461D01*
X1407325Y1470329D01*
X1417171Y1480174D01*
X1422499Y1493038D01*
Y1506962D01*
X1417171Y1519826D01*
X1407325Y1529672D01*
X1396212Y1534275D01*
X1395628Y1538269D01*
Y1542981D01*
X1396212Y1546975D01*
X1407325Y1551579D01*
X1417171Y1561424D01*
X1422499Y1574288D01*
Y1588212D01*
X1417171Y1601076D01*
X1407325Y1610922D01*
X1394461Y1616250D01*
D02*
G37*
G36*
X1880181Y1498913D02*
X1871230D01*
X1862960Y1495488D01*
X1856631Y1489159D01*
X1853206Y1480889D01*
Y1471938D01*
X1856631Y1463668D01*
X1862960Y1457339D01*
X1871230Y1453913D01*
X1880181D01*
X1888451Y1457339D01*
X1894780Y1463668D01*
X1898206Y1471938D01*
Y1480889D01*
X1894780Y1489159D01*
X1888451Y1495488D01*
X1880181Y1498913D01*
D02*
G37*
G36*
X5916465Y1512500D02*
X5903536D01*
X5891590Y1507552D01*
X5882448Y1498410D01*
X5877500Y1486465D01*
Y1473536D01*
X5882448Y1461590D01*
X5891590Y1452448D01*
X5903536Y1447500D01*
X5916465D01*
X5928410Y1452448D01*
X5937552Y1461590D01*
X5942500Y1473536D01*
Y1486465D01*
X5937552Y1498410D01*
X5928410Y1507552D01*
X5916465Y1512500D01*
D02*
G37*
G36*
X2528454Y1532500D02*
X2511546D01*
X2495926Y1526030D01*
X2483970Y1514074D01*
X2477500Y1498454D01*
Y1481546D01*
X2483970Y1465926D01*
X2495926Y1453970D01*
X2511546Y1447500D01*
X2528454D01*
X2544074Y1453970D01*
X2556030Y1465926D01*
X2562500Y1481546D01*
Y1498454D01*
X2556030Y1514074D01*
X2544074Y1526030D01*
X2528454Y1532500D01*
D02*
G37*
G36*
X1167211Y1551250D02*
X1152789D01*
X1139466Y1545731D01*
X1129269Y1535534D01*
X1123750Y1522211D01*
Y1507789D01*
X1129269Y1494466D01*
X1137938Y1485797D01*
X1139457Y1483454D01*
X1139319Y1470584D01*
X1134269Y1465534D01*
X1128750Y1452210D01*
Y1437789D01*
X1134269Y1424466D01*
X1144466Y1414269D01*
X1157789Y1408750D01*
X1172211D01*
X1185534Y1414269D01*
X1185677Y1414412D01*
X1197386D01*
X1208038Y1410000D01*
X1221962D01*
X1234826Y1415328D01*
X1244672Y1425174D01*
X1250000Y1438038D01*
Y1451962D01*
X1244672Y1464826D01*
X1237010Y1472487D01*
X1235732Y1480000D01*
X1237010Y1487513D01*
X1244671Y1495174D01*
X1250000Y1508038D01*
Y1521962D01*
X1244671Y1534826D01*
X1234826Y1544672D01*
X1221961Y1550000D01*
X1208038D01*
X1197385Y1545588D01*
X1180677D01*
X1180534Y1545731D01*
X1167211Y1551250D01*
D02*
G37*
G36*
X7068454Y1475000D02*
X7051546D01*
X7035926Y1468530D01*
X7023970Y1456574D01*
X7017500Y1440954D01*
Y1424046D01*
X7023970Y1408426D01*
X7035926Y1396470D01*
X7051546Y1390000D01*
X7068454D01*
X7084074Y1396470D01*
X7096030Y1408426D01*
X7102500Y1424046D01*
Y1440954D01*
X7096030Y1456574D01*
X7084074Y1468530D01*
X7068454Y1475000D01*
D02*
G37*
G36*
X1450711Y1460000D02*
X1436788D01*
X1423923Y1454672D01*
X1414078Y1444826D01*
X1408750Y1431962D01*
Y1418038D01*
X1414078Y1405174D01*
X1423923Y1395329D01*
X1436788Y1390000D01*
X1450711D01*
X1463575Y1395329D01*
X1473421Y1405174D01*
X1478749Y1418038D01*
Y1431962D01*
X1473421Y1444826D01*
X1463575Y1454672D01*
X1450711Y1460000D01*
D02*
G37*
G36*
X5326465Y1452500D02*
X5313535D01*
X5301590Y1447552D01*
X5292448Y1438410D01*
X5287500Y1426465D01*
Y1413535D01*
X5292448Y1401590D01*
X5301590Y1392448D01*
X5313535Y1387500D01*
X5326465D01*
X5338410Y1392448D01*
X5347552Y1401590D01*
X5352500Y1413535D01*
Y1426465D01*
X5347552Y1438410D01*
X5338410Y1447552D01*
X5326465Y1452500D01*
D02*
G37*
G36*
X4706962Y1455000D02*
X4693038D01*
X4680174Y1449671D01*
X4670328Y1439826D01*
X4665000Y1426962D01*
Y1413038D01*
X4670328Y1400174D01*
X4680174Y1390328D01*
X4693038Y1385000D01*
X4706962D01*
X4719826Y1390328D01*
X4729672Y1400174D01*
X4735000Y1413038D01*
Y1426962D01*
X4729672Y1439826D01*
X4719826Y1449671D01*
X4706962Y1455000D01*
D02*
G37*
G36*
X1956961Y1447500D02*
X1943038D01*
X1930173Y1442172D01*
X1920328Y1432326D01*
X1914999Y1419462D01*
Y1405538D01*
X1920328Y1392674D01*
X1930173Y1382829D01*
X1943038Y1377500D01*
X1956961D01*
X1969825Y1382829D01*
X1979671Y1392674D01*
X1984999Y1405538D01*
Y1419462D01*
X1979671Y1432326D01*
X1969825Y1442172D01*
X1956961Y1447500D01*
D02*
G37*
G36*
X1694461D02*
X1680537D01*
X1667673Y1442172D01*
X1657828Y1432326D01*
X1652499Y1419462D01*
Y1405538D01*
X1657828Y1392674D01*
X1667673Y1382829D01*
X1680537Y1377500D01*
X1694461D01*
X1707325Y1382829D01*
X1717171Y1392674D01*
X1722499Y1405538D01*
Y1419462D01*
X1717171Y1432326D01*
X1707325Y1442172D01*
X1694461Y1447500D01*
D02*
G37*
G36*
X1594461D02*
X1580538D01*
X1567674Y1442172D01*
X1557828Y1432326D01*
X1552500Y1419462D01*
Y1405538D01*
X1557828Y1392674D01*
X1567674Y1382829D01*
X1580538Y1377500D01*
X1594461D01*
X1607325Y1382829D01*
X1617171Y1392674D01*
X1622499Y1405538D01*
Y1419462D01*
X1617171Y1432326D01*
X1607325Y1442172D01*
X1594461Y1447500D01*
D02*
G37*
G36*
X2769143Y1461811D02*
X2752235D01*
X2736615Y1455340D01*
X2724659Y1443385D01*
X2718189Y1427764D01*
Y1410857D01*
X2724659Y1395237D01*
X2736615Y1383281D01*
X2752235Y1376811D01*
X2769143D01*
X2784763Y1383281D01*
X2796719Y1395237D01*
X2803189Y1410857D01*
Y1427764D01*
X2796719Y1443385D01*
X2784763Y1455340D01*
X2769143Y1461811D01*
D02*
G37*
G36*
X6958454Y1322500D02*
X6941546D01*
X6925926Y1316030D01*
X6918076Y1308179D01*
X6910000Y1305427D01*
X6901924Y1308179D01*
X6894074Y1316030D01*
X6878454Y1322500D01*
X6861546D01*
X6845926Y1316030D01*
X6833970Y1304074D01*
X6827500Y1288454D01*
Y1271546D01*
X6833970Y1255926D01*
X6845926Y1243970D01*
X6861546Y1237500D01*
X6878454D01*
X6894074Y1243970D01*
X6901924Y1251821D01*
X6910000Y1254573D01*
X6918076Y1251821D01*
X6925926Y1243970D01*
X6941546Y1237500D01*
X6958454D01*
X6974074Y1243970D01*
X6986030Y1255926D01*
X6992500Y1271546D01*
Y1288454D01*
X6986030Y1304074D01*
X6974074Y1316030D01*
X6958454Y1322500D01*
D02*
G37*
G36*
X1167211Y1341250D02*
X1152789D01*
X1139466Y1335731D01*
X1129269Y1325534D01*
X1123750Y1312210D01*
Y1297789D01*
X1129269Y1284466D01*
X1139466Y1274269D01*
X1152789Y1268750D01*
X1167211D01*
X1180534Y1274269D01*
X1180677Y1274412D01*
X1187386D01*
X1198038Y1270000D01*
X1211962D01*
X1224826Y1275328D01*
X1234671Y1285174D01*
X1240000Y1298038D01*
Y1311962D01*
X1234671Y1324826D01*
X1224826Y1334671D01*
X1211962Y1340000D01*
X1198038D01*
X1187386Y1335588D01*
X1180677D01*
X1180534Y1335731D01*
X1167211Y1341250D01*
D02*
G37*
G36*
X2146962Y1325000D02*
X2133038D01*
X2120174Y1319671D01*
X2110329Y1309826D01*
X2105000Y1296962D01*
Y1283038D01*
X2110329Y1270174D01*
X2120174Y1260328D01*
X2133038Y1255000D01*
X2146962D01*
X2159826Y1260328D01*
X2169672Y1270174D01*
X2175000Y1283038D01*
Y1296962D01*
X2169672Y1309826D01*
X2159826Y1319671D01*
X2146962Y1325000D01*
D02*
G37*
G36*
X5846057Y1265000D02*
X5828942D01*
X5812411Y1260570D01*
X5797589Y1252013D01*
X5785487Y1239911D01*
X5776930Y1225089D01*
X5776323Y1222825D01*
X5762940Y1221948D01*
X5759126Y1231155D01*
X5743655Y1246626D01*
X5723440Y1255000D01*
X5701560D01*
X5681345Y1246626D01*
X5665873Y1231155D01*
X5657500Y1210940D01*
Y1189060D01*
X5665873Y1168845D01*
X5681345Y1153373D01*
X5701560Y1145000D01*
X5723440D01*
X5743655Y1153373D01*
X5759126Y1168845D01*
X5762940Y1178052D01*
X5776323Y1177175D01*
X5776930Y1174911D01*
X5785487Y1160089D01*
X5797589Y1147987D01*
X5812411Y1139430D01*
X5828942Y1135000D01*
X5846057D01*
X5862589Y1139430D01*
X5877411Y1147987D01*
X5889513Y1160089D01*
X5898070Y1174911D01*
X5902500Y1191442D01*
Y1208557D01*
X5898070Y1225089D01*
X5889513Y1239911D01*
X5877411Y1252013D01*
X5862589Y1260570D01*
X5846057Y1265000D01*
D02*
G37*
G36*
X4508454Y1282500D02*
X4491546D01*
X4475926Y1276030D01*
X4463970Y1264074D01*
X4457500Y1248454D01*
Y1231546D01*
X4463970Y1215926D01*
X4475926Y1203970D01*
X4491546Y1197500D01*
X4508454D01*
X4524074Y1203970D01*
X4536030Y1215926D01*
X4542500Y1231546D01*
Y1248454D01*
X4536030Y1264074D01*
X4524074Y1276030D01*
X4508454Y1282500D01*
D02*
G37*
G36*
X1198454Y1222500D02*
X1181546D01*
X1165926Y1216030D01*
X1153970Y1204074D01*
X1150074Y1194668D01*
X1144233Y1190846D01*
X1129481Y1195741D01*
X1126030Y1204074D01*
X1114074Y1216030D01*
X1098454Y1222500D01*
X1081546D01*
X1065926Y1216030D01*
X1053970Y1204074D01*
X1047500Y1188454D01*
Y1171546D01*
X1053970Y1155926D01*
X1065926Y1143970D01*
X1081546Y1137500D01*
X1095860D01*
X1095998Y1137362D01*
X1099269Y1129466D01*
X1109466Y1119269D01*
X1122789Y1113750D01*
X1137211D01*
X1150534Y1119269D01*
X1160731Y1129466D01*
X1166250Y1142789D01*
X1167217Y1143435D01*
X1181546Y1137500D01*
X1195860D01*
X1195999Y1137361D01*
X1199269Y1129466D01*
X1209466Y1119269D01*
X1222790Y1113750D01*
X1237211D01*
X1250534Y1119269D01*
X1260731Y1129466D01*
X1266250Y1142789D01*
Y1157211D01*
X1260731Y1170534D01*
X1250534Y1180731D01*
X1237211Y1186250D01*
X1233625D01*
X1232500Y1187376D01*
Y1188454D01*
X1226030Y1204074D01*
X1214074Y1216030D01*
X1198454Y1222500D01*
D02*
G37*
G36*
X2128454Y1232500D02*
X2111546D01*
X2095926Y1226030D01*
X2083970Y1214074D01*
X2077500Y1198454D01*
Y1181546D01*
X2083970Y1165926D01*
X2095926Y1153970D01*
X2111546Y1147500D01*
X2128454D01*
X2144074Y1153970D01*
X2149516Y1159412D01*
X2159323D01*
X2159466Y1159269D01*
X2172789Y1153750D01*
X2187211D01*
X2200534Y1159269D01*
X2210731Y1169466D01*
X2216250Y1182789D01*
Y1197210D01*
X2210731Y1210534D01*
X2200534Y1220731D01*
X2187211Y1226250D01*
X2172789D01*
X2159466Y1220731D01*
X2159323Y1220588D01*
X2149516D01*
X2144074Y1226030D01*
X2128454Y1232500D01*
D02*
G37*
G36*
X2518454D02*
X2501546D01*
X2485926Y1226030D01*
X2473970Y1214074D01*
X2467500Y1198454D01*
Y1181546D01*
X2473970Y1165926D01*
X2485926Y1153970D01*
X2501546Y1147500D01*
X2518454D01*
X2534074Y1153970D01*
X2546030Y1165926D01*
X2552500Y1181546D01*
Y1198454D01*
X2546030Y1214074D01*
X2534074Y1226030D01*
X2518454Y1232500D01*
D02*
G37*
G36*
X7448454Y1162500D02*
X7431546D01*
X7415926Y1156030D01*
X7408076Y1148179D01*
X7400000Y1145427D01*
X7391925Y1148179D01*
X7384074Y1156030D01*
X7368454Y1162500D01*
X7351546D01*
X7335926Y1156030D01*
X7323970Y1144074D01*
X7317500Y1128454D01*
Y1111546D01*
X7323970Y1095926D01*
X7335926Y1083970D01*
X7351546Y1077500D01*
X7368454D01*
X7384074Y1083970D01*
X7391925Y1091821D01*
X7400000Y1094573D01*
X7408076Y1091821D01*
X7415926Y1083970D01*
X7431546Y1077500D01*
X7448454D01*
X7464074Y1083970D01*
X7476030Y1095926D01*
X7482500Y1111546D01*
Y1128454D01*
X7476030Y1144074D01*
X7464074Y1156030D01*
X7448454Y1162500D01*
D02*
G37*
G36*
X6598440Y1255000D02*
X6576560D01*
X6556345Y1246626D01*
X6540873Y1231155D01*
X6532500Y1210940D01*
Y1189060D01*
X6540873Y1168845D01*
X6556345Y1153373D01*
X6576560Y1145000D01*
X6598440D01*
X6618655Y1153373D01*
X6634126Y1168845D01*
X6642500Y1189060D01*
Y1210940D01*
X6634126Y1231155D01*
X6618655Y1246626D01*
X6598440Y1255000D01*
D02*
G37*
G36*
X6348440D02*
X6326560D01*
X6306345Y1246626D01*
X6290873Y1231155D01*
X6282500Y1210940D01*
Y1189060D01*
X6290873Y1168845D01*
X6306345Y1153373D01*
X6326560Y1145000D01*
X6348440D01*
X6368655Y1153373D01*
X6384126Y1168845D01*
X6392500Y1189060D01*
Y1210940D01*
X6384126Y1231155D01*
X6368655Y1246626D01*
X6348440Y1255000D01*
D02*
G37*
G36*
X6098440D02*
X6076560D01*
X6056345Y1246626D01*
X6040873Y1231155D01*
X6032500Y1210940D01*
Y1189060D01*
X6040873Y1168845D01*
X6056345Y1153373D01*
X6076560Y1145000D01*
X6098440D01*
X6118655Y1153373D01*
X6134126Y1168845D01*
X6142500Y1189060D01*
Y1210940D01*
X6134126Y1231155D01*
X6118655Y1246626D01*
X6098440Y1255000D01*
D02*
G37*
G36*
X5473440D02*
X5451560D01*
X5431345Y1246626D01*
X5415873Y1231155D01*
X5407500Y1210940D01*
Y1189060D01*
X5415873Y1168845D01*
X5431345Y1153373D01*
X5451560Y1145000D01*
X5473440D01*
X5493655Y1153373D01*
X5509126Y1168845D01*
X5517500Y1189060D01*
Y1210940D01*
X5509126Y1231155D01*
X5493655Y1246626D01*
X5473440Y1255000D01*
D02*
G37*
G36*
X1698454Y1267500D02*
X1681546D01*
X1665926Y1261030D01*
X1653970Y1249074D01*
X1647500Y1233454D01*
Y1216546D01*
X1653970Y1200926D01*
X1659412Y1195484D01*
Y1190677D01*
X1659269Y1190534D01*
X1653750Y1177210D01*
Y1162789D01*
X1659269Y1149466D01*
X1669466Y1139269D01*
X1682789Y1133750D01*
X1697210D01*
X1710534Y1139269D01*
X1720731Y1149466D01*
X1726250Y1162789D01*
Y1177210D01*
X1720731Y1190534D01*
X1720588Y1190677D01*
Y1195484D01*
X1726030Y1200926D01*
X1732500Y1216546D01*
Y1233454D01*
X1726030Y1249074D01*
X1714074Y1261030D01*
X1698454Y1267500D01*
D02*
G37*
G36*
X1598454D02*
X1581546D01*
X1565926Y1261030D01*
X1553970Y1249074D01*
X1547500Y1233454D01*
Y1216546D01*
X1553970Y1200926D01*
X1559412Y1195484D01*
Y1190677D01*
X1559269Y1190534D01*
X1553750Y1177210D01*
Y1162789D01*
X1559269Y1149466D01*
X1569466Y1139269D01*
X1582790Y1133750D01*
X1597211D01*
X1610534Y1139269D01*
X1620731Y1149466D01*
X1626250Y1162789D01*
Y1177210D01*
X1620731Y1190534D01*
X1620588Y1190677D01*
Y1195484D01*
X1626030Y1200926D01*
X1632500Y1216546D01*
Y1233454D01*
X1626030Y1249074D01*
X1614074Y1261030D01*
X1598454Y1267500D01*
D02*
G37*
G36*
X7778454Y1202500D02*
X7761546D01*
X7745926Y1196030D01*
X7733970Y1184074D01*
X7727500Y1168454D01*
Y1151546D01*
X7733970Y1135926D01*
X7745926Y1123970D01*
X7761546Y1117500D01*
X7778454D01*
X7794074Y1123970D01*
X7806030Y1135926D01*
X7812500Y1151546D01*
Y1168454D01*
X7806030Y1184074D01*
X7794074Y1196030D01*
X7778454Y1202500D01*
D02*
G37*
G36*
X928454Y1122500D02*
X911546D01*
X895926Y1116030D01*
X888076Y1108180D01*
X880000Y1105428D01*
X871924Y1108180D01*
X864074Y1116030D01*
X848454Y1122500D01*
X831546D01*
X815926Y1116030D01*
X803970Y1104074D01*
X797500Y1088454D01*
Y1071546D01*
X803970Y1055926D01*
X815926Y1043970D01*
X831546Y1037500D01*
X848454D01*
X864074Y1043970D01*
X871924Y1051821D01*
X880000Y1054573D01*
X888076Y1051821D01*
X895926Y1043970D01*
X911546Y1037500D01*
X928454D01*
X944074Y1043970D01*
X956030Y1055926D01*
X962500Y1071546D01*
Y1088454D01*
X956030Y1104074D01*
X944074Y1116030D01*
X928454Y1122500D01*
D02*
G37*
G36*
X2858454Y1182500D02*
X2841546D01*
X2825926Y1176030D01*
X2813970Y1164074D01*
X2807500Y1148454D01*
Y1131546D01*
X2813970Y1115926D01*
X2825926Y1103970D01*
X2841546Y1097500D01*
X2858454D01*
X2874074Y1103970D01*
X2886030Y1115926D01*
X2892500Y1131546D01*
Y1148454D01*
X2886030Y1164074D01*
X2874074Y1176030D01*
X2858454Y1182500D01*
D02*
G37*
G36*
X2718454D02*
X2701546D01*
X2685926Y1176030D01*
X2673970Y1164074D01*
X2667500Y1148454D01*
Y1131546D01*
X2673970Y1115926D01*
X2685926Y1103970D01*
X2701546Y1097500D01*
X2718454D01*
X2734074Y1103970D01*
X2746030Y1115926D01*
X2752500Y1131546D01*
Y1148454D01*
X2746030Y1164074D01*
X2734074Y1176030D01*
X2718454Y1182500D01*
D02*
G37*
G36*
X1028454Y1122500D02*
X1011546D01*
X995926Y1116030D01*
X983970Y1104074D01*
X977500Y1088454D01*
Y1071546D01*
X983970Y1055926D01*
X995926Y1043970D01*
X1011546Y1037500D01*
X1028454D01*
X1044074Y1043970D01*
X1056030Y1055926D01*
X1062500Y1071546D01*
Y1088454D01*
X1056030Y1104074D01*
X1044074Y1116030D01*
X1028454Y1122500D01*
D02*
G37*
G36*
X738454D02*
X721546D01*
X705926Y1116030D01*
X693970Y1104074D01*
X687500Y1088454D01*
Y1071546D01*
X693970Y1055926D01*
X705926Y1043970D01*
X721546Y1037500D01*
X738454D01*
X754074Y1043970D01*
X766030Y1055926D01*
X772500Y1071546D01*
Y1088454D01*
X766030Y1104074D01*
X754074Y1116030D01*
X738454Y1122500D01*
D02*
G37*
G36*
X7866962Y1065000D02*
X7853038D01*
X7840174Y1059671D01*
X7830329Y1049826D01*
X7825000Y1036962D01*
Y1023038D01*
X7830329Y1010174D01*
X7840174Y1000328D01*
X7853038Y995000D01*
X7866962D01*
X7879826Y1000328D01*
X7889672Y1010174D01*
X7895000Y1023038D01*
Y1036962D01*
X7889672Y1049826D01*
X7879826Y1059671D01*
X7866962Y1065000D01*
D02*
G37*
G36*
X2078454Y1072500D02*
X2061546D01*
X2045926Y1066030D01*
X2033970Y1054074D01*
X2027500Y1038454D01*
Y1021546D01*
X2033970Y1005926D01*
X2045926Y993970D01*
X2061546Y987500D01*
X2078454D01*
X2094074Y993970D01*
X2106030Y1005926D01*
X2112500Y1021546D01*
Y1038454D01*
X2106030Y1054074D01*
X2094074Y1066030D01*
X2078454Y1072500D01*
D02*
G37*
G36*
X2348454Y1002500D02*
X2331546D01*
X2315926Y996030D01*
X2303970Y984074D01*
X2297500Y968454D01*
Y951546D01*
X2303970Y935926D01*
X2315926Y923970D01*
X2331546Y917500D01*
X2348454D01*
X2364074Y923970D01*
X2376030Y935926D01*
X2382500Y951546D01*
Y968454D01*
X2376030Y984074D01*
X2364074Y996030D01*
X2348454Y1002500D01*
D02*
G37*
G36*
X7238454Y992500D02*
X7221546D01*
X7205926Y986030D01*
X7193970Y974074D01*
X7187500Y958454D01*
Y941546D01*
X7193970Y925926D01*
X7205926Y913970D01*
X7221546Y907500D01*
X7238454D01*
X7254074Y913970D01*
X7264419Y924315D01*
X7269466Y919269D01*
X7282789Y913750D01*
X7297210D01*
X7310534Y919269D01*
X7320731Y929466D01*
X7326250Y942789D01*
Y957210D01*
X7320731Y970534D01*
X7310534Y980731D01*
X7297210Y986250D01*
X7282789D01*
X7269466Y980731D01*
X7264419Y975684D01*
X7254074Y986030D01*
X7238454Y992500D01*
D02*
G37*
G36*
X3228454Y945000D02*
X3211546D01*
X3195926Y938530D01*
X3183970Y926574D01*
X3177500Y910954D01*
Y894046D01*
X3183970Y878426D01*
X3195926Y866470D01*
X3211546Y860000D01*
X3228454D01*
X3244074Y866470D01*
X3256030Y878426D01*
X3262500Y894046D01*
Y910954D01*
X3256030Y926574D01*
X3244074Y938530D01*
X3228454Y945000D01*
D02*
G37*
G36*
X3088454D02*
X3071546D01*
X3055926Y938530D01*
X3043970Y926574D01*
X3037500Y910954D01*
Y894046D01*
X3043970Y878426D01*
X3055926Y866470D01*
X3071546Y860000D01*
X3088454D01*
X3104074Y866470D01*
X3116030Y878426D01*
X3122500Y894046D01*
Y910954D01*
X3116030Y926574D01*
X3104074Y938530D01*
X3088454Y945000D01*
D02*
G37*
G36*
X7408454Y932500D02*
X7391546D01*
X7375926Y926030D01*
X7363970Y914074D01*
X7357500Y898454D01*
Y881546D01*
X7363970Y865926D01*
X7375926Y853970D01*
X7391546Y847500D01*
X7408454D01*
X7424074Y853970D01*
X7433033Y862929D01*
X7438080Y857882D01*
X7451403Y852364D01*
X7465824D01*
X7479147Y857882D01*
X7489345Y868080D01*
X7494863Y881403D01*
Y895824D01*
X7489345Y909147D01*
X7479147Y919345D01*
X7465824Y924863D01*
X7451403D01*
X7438080Y919345D01*
X7434419Y915684D01*
X7424074Y926030D01*
X7408454Y932500D01*
D02*
G37*
G36*
X1708454Y872500D02*
X1691546D01*
X1675926Y866030D01*
X1663970Y854074D01*
X1657500Y838454D01*
Y821546D01*
X1663970Y805926D01*
X1675926Y793970D01*
X1691546Y787500D01*
X1708454D01*
X1724074Y793970D01*
X1736030Y805926D01*
X1742500Y821546D01*
Y838454D01*
X1736030Y854074D01*
X1724074Y866030D01*
X1708454Y872500D01*
D02*
G37*
G36*
X6966962Y855000D02*
X6953038D01*
X6940174Y849671D01*
X6930329Y839826D01*
X6925000Y826962D01*
Y813038D01*
X6930329Y800174D01*
X6940174Y790328D01*
X6953038Y785000D01*
X6966962D01*
X6979826Y790328D01*
X6989672Y800174D01*
X6995000Y813038D01*
Y826962D01*
X6989672Y839826D01*
X6979826Y849671D01*
X6966962Y855000D01*
D02*
G37*
G36*
X4788454Y862500D02*
X4771546D01*
X4755926Y856030D01*
X4743970Y844074D01*
X4737500Y828454D01*
Y811546D01*
X4743970Y795926D01*
X4755926Y783970D01*
X4771546Y777500D01*
X4788454D01*
X4804074Y783970D01*
X4816030Y795926D01*
X4822500Y811546D01*
Y828454D01*
X4816030Y844074D01*
X4804074Y856030D01*
X4788454Y862500D01*
D02*
G37*
G36*
X6433453Y817500D02*
X6416546D01*
X6400926Y811030D01*
X6388970Y799074D01*
X6382500Y783454D01*
Y766546D01*
X6388970Y750926D01*
X6400926Y738970D01*
X6416546Y732500D01*
X6433453D01*
X6449074Y738970D01*
X6461029Y750926D01*
X6467500Y766546D01*
Y783454D01*
X6461029Y799074D01*
X6449074Y811030D01*
X6433453Y817500D01*
D02*
G37*
G36*
X6008454D02*
X5991546D01*
X5975926Y811030D01*
X5963970Y799074D01*
X5957500Y783454D01*
Y766546D01*
X5963970Y750926D01*
X5975926Y738970D01*
X5991546Y732500D01*
X6008454D01*
X6024074Y738970D01*
X6036030Y750926D01*
X6042500Y766546D01*
Y783454D01*
X6036030Y799074D01*
X6024074Y811030D01*
X6008454Y817500D01*
D02*
G37*
G36*
X5433453D02*
X5416546D01*
X5400926Y811030D01*
X5388970Y799074D01*
X5382500Y783454D01*
Y766546D01*
X5388970Y750926D01*
X5400926Y738970D01*
X5416546Y732500D01*
X5433453D01*
X5449074Y738970D01*
X5461029Y750926D01*
X5467500Y766546D01*
Y783454D01*
X5461029Y799074D01*
X5449074Y811030D01*
X5433453Y817500D01*
D02*
G37*
G36*
X4018454Y812500D02*
X4001546D01*
X3985926Y806030D01*
X3973970Y794074D01*
X3967500Y778454D01*
Y761546D01*
X3973970Y745926D01*
X3985926Y733970D01*
X4001546Y727500D01*
X4018454D01*
X4034074Y733970D01*
X4046030Y745926D01*
X4052500Y761546D01*
Y778454D01*
X4046030Y794074D01*
X4034074Y806030D01*
X4018454Y812500D01*
D02*
G37*
G36*
X4718454Y792500D02*
X4701546D01*
X4685926Y786030D01*
X4673970Y774074D01*
X4667500Y758454D01*
Y741546D01*
X4673970Y725926D01*
X4685926Y713970D01*
X4701546Y707500D01*
X4718454D01*
X4734074Y713970D01*
X4746030Y725926D01*
X4752500Y741546D01*
Y758454D01*
X4746030Y774074D01*
X4734074Y786030D01*
X4718454Y792500D01*
D02*
G37*
G36*
X3346962Y765000D02*
X3333038D01*
X3320174Y759672D01*
X3310328Y749826D01*
X3305000Y736962D01*
Y723038D01*
X3310328Y710174D01*
X3320174Y700329D01*
X3333038Y695000D01*
X3346962D01*
X3359826Y700329D01*
X3369671Y710174D01*
X3375000Y723038D01*
Y736962D01*
X3369671Y749826D01*
X3359826Y759672D01*
X3346962Y765000D01*
D02*
G37*
G36*
X3261962D02*
X3248038D01*
X3235174Y759672D01*
X3225329Y749826D01*
X3220000Y736962D01*
Y723038D01*
X3225329Y710174D01*
X3235174Y700329D01*
X3248038Y695000D01*
X3261962D01*
X3274826Y700329D01*
X3284672Y710174D01*
X3290000Y723038D01*
Y736962D01*
X3284672Y749826D01*
X3274826Y759672D01*
X3261962Y765000D01*
D02*
G37*
G36*
X1098454Y662500D02*
X1081546D01*
X1065926Y656030D01*
X1053970Y644074D01*
X1047500Y628454D01*
Y611546D01*
X1053970Y595926D01*
X1065926Y583970D01*
X1081546Y577500D01*
X1098454D01*
X1114074Y583970D01*
X1126030Y595926D01*
X1132500Y611546D01*
Y628454D01*
X1126030Y644074D01*
X1114074Y656030D01*
X1098454Y662500D01*
D02*
G37*
G36*
X4658454Y652500D02*
X4641546D01*
X4625926Y646030D01*
X4613970Y634074D01*
X4607500Y618454D01*
Y601546D01*
X4613970Y585926D01*
X4625926Y573970D01*
X4641546Y567500D01*
X4658454D01*
X4674074Y573970D01*
X4686030Y585926D01*
X4692500Y601546D01*
Y618454D01*
X4686030Y634074D01*
X4674074Y646030D01*
X4658454Y652500D01*
D02*
G37*
G36*
X2028454Y642500D02*
X2011546D01*
X1995926Y636030D01*
X1983970Y624074D01*
X1977500Y608454D01*
Y591546D01*
X1983970Y575926D01*
X1995926Y563970D01*
X2011546Y557500D01*
X2028454D01*
X2044074Y563970D01*
X2056030Y575926D01*
X2062500Y591546D01*
Y608454D01*
X2056030Y624074D01*
X2044074Y636030D01*
X2028454Y642500D01*
D02*
G37*
G36*
X3158454Y692500D02*
X3141546D01*
X3125926Y686030D01*
X3113970Y674074D01*
X3107500Y658454D01*
Y641546D01*
X3113970Y625926D01*
X3125926Y613970D01*
X3138891Y608600D01*
X3132699Y593653D01*
Y576745D01*
X3139169Y561125D01*
X3151125Y549169D01*
X3166745Y542699D01*
X3183653D01*
X3199273Y549169D01*
X3211229Y561125D01*
X3217699Y576745D01*
Y593653D01*
X3211229Y609273D01*
X3199273Y621229D01*
X3186308Y626599D01*
X3192500Y641546D01*
Y658454D01*
X3186030Y674074D01*
X3174074Y686030D01*
X3158454Y692500D01*
D02*
G37*
G36*
X3298454Y622500D02*
X3281546D01*
X3265926Y616030D01*
X3253970Y604074D01*
X3247500Y588454D01*
Y571546D01*
X3253970Y555926D01*
X3265926Y543970D01*
X3281546Y537500D01*
X3298454D01*
X3314074Y543970D01*
X3326030Y555926D01*
X3332500Y571546D01*
Y588454D01*
X3326030Y604074D01*
X3314074Y616030D01*
X3298454Y622500D01*
D02*
G37*
G36*
X1348454Y620000D02*
X1331546D01*
X1315926Y613530D01*
X1303970Y601574D01*
X1297500Y585954D01*
Y569047D01*
X1303970Y553426D01*
X1315926Y541471D01*
X1331546Y535000D01*
X1348454D01*
X1364074Y541471D01*
X1376030Y553426D01*
X1382500Y569047D01*
Y585954D01*
X1376030Y601574D01*
X1364074Y613530D01*
X1348454Y620000D01*
D02*
G37*
G36*
X2471962Y550000D02*
X2458038D01*
X2445174Y544672D01*
X2435328Y534826D01*
X2430000Y521962D01*
Y508038D01*
X2435328Y495174D01*
X2445174Y485328D01*
X2458038Y480000D01*
X2471962D01*
X2484826Y485328D01*
X2494671Y495174D01*
X2500000Y508038D01*
Y521962D01*
X2494671Y534826D01*
X2484826Y544672D01*
X2471962Y550000D01*
D02*
G37*
G36*
X1748454Y562500D02*
X1731546D01*
X1715926Y556030D01*
X1703970Y544074D01*
X1697500Y528454D01*
Y511546D01*
X1703970Y495926D01*
X1715926Y483970D01*
X1731546Y477500D01*
X1748454D01*
X1764074Y483970D01*
X1776030Y495926D01*
X1782500Y511546D01*
Y528454D01*
X1776030Y544074D01*
X1764074Y556030D01*
X1748454Y562500D01*
D02*
G37*
G36*
X1238454D02*
X1221546D01*
X1205926Y556030D01*
X1193970Y544074D01*
X1187500Y528454D01*
Y511546D01*
X1193970Y495926D01*
X1205926Y483970D01*
X1221546Y477500D01*
X1238454D01*
X1254074Y483970D01*
X1266030Y495926D01*
X1272500Y511546D01*
Y528454D01*
X1266030Y544074D01*
X1254074Y556030D01*
X1238454Y562500D01*
D02*
G37*
G36*
X7967112Y729997D02*
X7932882D01*
X7899819Y721138D01*
X7870175Y704023D01*
X7845971Y679819D01*
X7828856Y650175D01*
X7819997Y617112D01*
Y582882D01*
X7828856Y549819D01*
X7845971Y520175D01*
X7870175Y495971D01*
X7899819Y478856D01*
X7932882Y469997D01*
X7967112D01*
X8000175Y478856D01*
X8029819Y495971D01*
X8054023Y520175D01*
X8071138Y549819D01*
X8079997Y582882D01*
Y617112D01*
X8071138Y650175D01*
X8054023Y679819D01*
X8029819Y704023D01*
X8000175Y721138D01*
X7967112Y729997D01*
D02*
G37*
G36*
X267108D02*
X232878D01*
X199815Y721138D01*
X170171Y704023D01*
X145967Y679819D01*
X128852Y650175D01*
X119993Y617112D01*
Y582882D01*
X128852Y549819D01*
X145967Y520175D01*
X170171Y495971D01*
X199815Y478856D01*
X232878Y469997D01*
X267108D01*
X300171Y478856D01*
X329815Y495971D01*
X354019Y520175D01*
X371134Y549819D01*
X379993Y582882D01*
Y617112D01*
X371134Y650175D01*
X354019Y679819D01*
X329815Y704023D01*
X300171Y721138D01*
X267108Y729997D01*
D02*
G37*
G36*
X4756962Y505000D02*
X4743038D01*
X4730174Y499672D01*
X4720328Y489826D01*
X4715000Y476962D01*
Y463038D01*
X4720328Y450174D01*
X4730174Y440329D01*
X4743038Y435000D01*
X4756962D01*
X4769826Y440329D01*
X4779671Y450174D01*
X4785000Y463038D01*
Y476962D01*
X4779671Y489826D01*
X4769826Y499672D01*
X4756962Y505000D01*
D02*
G37*
G36*
X1655967Y480000D02*
X1644033D01*
X1633006Y475433D01*
X1624567Y466994D01*
X1620000Y455968D01*
Y444033D01*
X1624567Y433007D01*
X1633006Y424567D01*
X1644033Y420000D01*
X1655967D01*
X1666994Y424567D01*
X1675433Y433007D01*
X1680000Y444033D01*
Y455968D01*
X1675433Y466994D01*
X1666994Y475433D01*
X1655967Y480000D01*
D02*
G37*
G36*
X4258454Y492500D02*
X4241546D01*
X4225926Y486030D01*
X4213970Y474074D01*
X4207500Y458454D01*
Y441546D01*
X4213970Y425926D01*
X4225926Y413970D01*
X4241546Y407500D01*
X4258454D01*
X4274074Y413970D01*
X4286030Y425926D01*
X4292500Y441546D01*
Y458454D01*
X4286030Y474074D01*
X4274074Y486030D01*
X4258454Y492500D01*
D02*
G37*
G36*
X1498454D02*
X1481546D01*
X1465926Y486030D01*
X1453970Y474074D01*
X1447500Y458454D01*
Y441546D01*
X1453970Y425926D01*
X1465926Y413970D01*
X1481546Y407500D01*
X1498454D01*
X1514074Y413970D01*
X1526030Y425926D01*
X1532500Y441546D01*
Y458454D01*
X1526030Y474074D01*
X1514074Y486030D01*
X1498454Y492500D01*
D02*
G37*
G36*
X7716962Y475000D02*
X7703038D01*
X7690174Y469671D01*
X7680329Y459826D01*
X7675000Y446962D01*
Y433038D01*
X7680329Y420174D01*
X7690174Y410328D01*
X7703038Y405000D01*
X7716962D01*
X7729826Y410328D01*
X7739672Y420174D01*
X7745000Y433038D01*
Y446962D01*
X7739672Y459826D01*
X7729826Y469671D01*
X7716962Y475000D01*
D02*
G37*
G36*
X3048454Y462500D02*
X3031546D01*
X3015926Y456030D01*
X3003970Y444074D01*
X2997500Y428454D01*
Y411546D01*
X3003970Y395926D01*
X3015926Y383970D01*
X3031546Y377500D01*
X3048454D01*
X3064074Y383970D01*
X3076030Y395926D01*
X3082500Y411546D01*
Y428454D01*
X3076030Y444074D01*
X3064074Y456030D01*
X3048454Y462500D01*
D02*
G37*
G36*
X2018454Y432500D02*
X2001546D01*
X1985926Y426030D01*
X1973970Y414074D01*
X1967500Y398454D01*
Y381546D01*
X1973970Y365926D01*
X1985926Y353970D01*
X2001546Y347500D01*
X2018454D01*
X2034074Y353970D01*
X2046030Y365926D01*
X2052500Y381546D01*
Y398454D01*
X2046030Y414074D01*
X2034074Y426030D01*
X2018454Y432500D01*
D02*
G37*
G36*
X5848440Y367500D02*
X5826560D01*
X5806345Y359127D01*
X5790873Y343655D01*
X5782500Y323440D01*
Y301560D01*
X5790873Y281345D01*
X5806345Y265873D01*
X5826560Y257500D01*
X5848440D01*
X5868655Y265873D01*
X5884126Y281345D01*
X5892500Y301560D01*
Y323440D01*
X5884126Y343655D01*
X5868655Y359127D01*
X5848440Y367500D01*
D02*
G37*
G36*
X3258454Y242500D02*
X3241546D01*
X3225926Y236030D01*
X3213970Y224074D01*
X3207500Y208454D01*
Y191546D01*
X3213970Y175926D01*
X3225926Y163970D01*
X3241546Y157500D01*
X3258454D01*
X3274074Y163970D01*
X3286030Y175926D01*
X3292500Y191546D01*
Y208454D01*
X3286030Y224074D01*
X3274074Y236030D01*
X3258454Y242500D01*
D02*
G37*
G36*
X6223440Y267500D02*
X6201560D01*
X6181345Y259126D01*
X6165873Y243655D01*
X6157500Y223440D01*
Y201560D01*
X6165873Y181345D01*
X6181345Y165873D01*
X6201560Y157500D01*
X6223440D01*
X6243655Y165873D01*
X6259126Y181345D01*
X6267500Y201560D01*
Y223440D01*
X6259126Y243655D01*
X6243655Y259126D01*
X6223440Y267500D01*
D02*
G37*
G36*
X6098440D02*
X6076560D01*
X6056345Y259126D01*
X6040873Y243655D01*
X6032500Y223440D01*
Y201560D01*
X6040873Y181345D01*
X6056345Y165873D01*
X6076560Y157500D01*
X6098440D01*
X6118655Y165873D01*
X6134126Y181345D01*
X6142500Y201560D01*
Y223440D01*
X6134126Y243655D01*
X6118655Y259126D01*
X6098440Y267500D01*
D02*
G37*
G36*
X5973440D02*
X5951560D01*
X5931345Y259126D01*
X5915873Y243655D01*
X5907500Y223440D01*
Y201560D01*
X5915873Y181345D01*
X5931345Y165873D01*
X5951560Y157500D01*
X5973440D01*
X5993655Y165873D01*
X6009126Y181345D01*
X6017500Y201560D01*
Y223440D01*
X6009126Y243655D01*
X5993655Y259126D01*
X5973440Y267500D01*
D02*
G37*
G36*
X7608454Y172500D02*
X7591546D01*
X7575926Y166030D01*
X7563970Y154074D01*
X7557500Y138454D01*
Y121546D01*
X7563970Y105926D01*
X7575926Y93970D01*
X7591546Y87500D01*
X7608454D01*
X7624074Y93970D01*
X7636030Y105926D01*
X7642500Y121546D01*
Y138454D01*
X7636030Y154074D01*
X7624074Y166030D01*
X7608454Y172500D01*
D02*
G37*
G36*
X3333454Y167500D02*
X3316546D01*
X3300926Y161030D01*
X3288970Y149074D01*
X3282500Y133454D01*
Y116546D01*
X3288970Y100926D01*
X3300926Y88970D01*
X3316546Y82500D01*
X3333454D01*
X3349074Y88970D01*
X3361030Y100926D01*
X3367500Y116546D01*
Y133454D01*
X3361030Y149074D01*
X3349074Y161030D01*
X3333454Y167500D01*
D02*
G37*
G36*
X3183454D02*
X3166546D01*
X3150926Y161030D01*
X3138970Y149074D01*
X3132500Y133454D01*
Y116546D01*
X3138970Y100926D01*
X3150926Y88970D01*
X3166546Y82500D01*
X3183454D01*
X3199074Y88970D01*
X3211030Y100926D01*
X3217500Y116546D01*
Y133454D01*
X3211030Y149074D01*
X3199074Y161030D01*
X3183454Y167500D01*
D02*
G37*
G36*
X6335940Y180000D02*
X6314060D01*
X6293845Y171627D01*
X6278373Y156155D01*
X6270000Y135940D01*
Y114060D01*
X6278373Y93845D01*
X6293845Y78373D01*
X6314060Y70000D01*
X6335940D01*
X6356155Y78373D01*
X6371626Y93845D01*
X6380000Y114060D01*
Y135940D01*
X6371626Y156155D01*
X6356155Y171627D01*
X6335940Y180000D01*
D02*
G37*
G36*
X5823440D02*
X5801560D01*
X5781345Y171627D01*
X5765873Y156155D01*
X5757500Y135940D01*
Y114060D01*
X5765873Y93845D01*
X5781345Y78373D01*
X5801560Y70000D01*
X5823440D01*
X5843655Y78373D01*
X5859126Y93845D01*
X5867500Y114060D01*
Y135940D01*
X5859126Y156155D01*
X5843655Y171627D01*
X5823440Y180000D01*
D02*
G37*
%LPD*%
D13*
X5231314Y1817841D02*
X5248777D01*
X5266617Y1800000D02*
X5270000D01*
X5248777Y1817841D02*
X5266617Y1800000D01*
X5226531Y1822624D02*
X5231314Y1817841D01*
X5740000Y2080000D02*
X5810000D01*
X1160000Y1305000D02*
X1204997D01*
X1205000D01*
X1204997Y1445000D02*
X1215000D01*
X1165000D02*
X1204997D01*
X1090000Y1180000D02*
X1096618D01*
X1126618Y1150000D01*
X1130000D01*
X1226618D02*
X1230000D01*
X1196618Y1180000D02*
X1226618Y1150000D01*
X1190000Y1180000D02*
X1196618D01*
X5666618Y1770000D02*
X5670000D01*
X5630000Y1800000D02*
X5636618D01*
X5666618Y1770000D01*
X5490000Y2240000D02*
X5550000D01*
X5607799Y2207799D02*
Y2211181D01*
X5640000Y2243382D01*
Y2250000D01*
X5280000Y2080000D02*
Y2130000D01*
X5200000Y4159323D02*
Y4160000D01*
Y4159323D02*
X5227130Y4132193D01*
Y4122870D02*
Y4132193D01*
Y4122870D02*
X5230000Y4120000D01*
X5710239Y4020239D02*
Y4116011D01*
X5710478Y4116250D01*
X5710000Y4020000D02*
X5710239Y4020239D01*
X5630000Y3740000D02*
X5670000Y3780000D01*
X1160000Y1515000D02*
X1204997D01*
X1215000D01*
X1160000Y1515000D02*
X1160000Y1515000D01*
X1690000Y1170000D02*
Y1225000D01*
X1590000Y1170000D02*
Y1225000D01*
X1162500Y2295000D02*
X1197500Y2260000D01*
X1200000D01*
X1160000Y2295000D02*
X1162500D01*
X1145000Y2160000D02*
X1200000D01*
X1325000Y2225000D02*
Y2227500D01*
X1290000Y2262500D02*
Y2265000D01*
Y2262500D02*
X1325000Y2227500D01*
X1390000Y2262500D02*
Y2265000D01*
X1425000Y2225000D02*
Y2227500D01*
X1390000Y2262500D02*
X1425000Y2227500D01*
X1145000Y2050000D02*
X1200000D01*
X1145000Y1950000D02*
X1200000D01*
X2310000Y1830000D02*
X2370000D01*
X2310000Y1700000D02*
X2370000D01*
X2310000Y1570000D02*
X2370000D01*
X4950000Y3870000D02*
Y3930000D01*
X1880000Y2230000D02*
Y2290000D01*
X2120000Y1190000D02*
X2180000D01*
X5560000Y3110000D02*
X5610000D01*
X5260000Y3880000D02*
X5310000D01*
X1579999Y2225000D02*
Y2285000D01*
X1679999Y2225000D02*
Y2285000D01*
X1779999Y2225000D02*
Y2285000D01*
D19*
X1885000Y2535000D02*
X1940000D01*
X1720000Y2575000D02*
X1755000Y2610000D01*
X1720000Y2575000D02*
Y2575000D01*
D72*
X250000Y2385000D02*
D03*
Y2131000D02*
D03*
D73*
Y2639000D02*
D03*
D74*
X249993Y599997D02*
D03*
X7949997D02*
D03*
Y2549998D02*
D03*
X269993Y3099997D02*
D03*
D75*
X6737500Y162500D02*
D03*
X6512500Y775000D02*
D03*
X6212500Y812500D02*
D03*
X6112500Y775000D02*
D03*
X5712500Y762500D02*
D03*
X5175000D02*
D03*
X1970000Y2250000D02*
D03*
X5190000Y1760000D02*
D03*
X2360000Y590000D02*
D03*
Y390000D02*
D03*
X5240000Y1430000D02*
D03*
X4870000Y1765000D02*
D03*
X4690000Y2750000D02*
D03*
X5090000Y2010000D02*
D03*
X5070000Y2410000D02*
D03*
X5140000Y2580000D02*
D03*
X5630000Y1965000D02*
D03*
X5410000Y3990000D02*
D03*
X5640000Y3920000D02*
D03*
X5740000Y3580000D02*
D03*
X3230000Y640000D02*
D03*
X1400000Y1125000D02*
D03*
X5450000Y2820000D02*
D03*
X5490000Y2900000D02*
D03*
X5410000D02*
D03*
X3930000Y770000D02*
D03*
X1260000Y590000D02*
D03*
X1130000Y550000D02*
D03*
X2190000Y1410000D02*
D03*
X1800000Y1160000D02*
D03*
X5090000Y1930000D02*
D03*
X5630000Y1880000D02*
D03*
X5400000Y1430000D02*
D03*
X5990000Y1480000D02*
D03*
D76*
X5462500Y612500D02*
D03*
X4800000Y2740000D02*
D03*
X5950000Y3465000D02*
D03*
X6002343Y3382053D02*
D03*
X6080000Y3560000D02*
D03*
X6657500Y2425000D02*
D03*
X6230000Y2610000D02*
D03*
Y2400000D02*
D03*
X3970000Y3510000D02*
D03*
X3890000D02*
D03*
X3955000Y3900000D02*
D03*
X3885000D02*
D03*
X2700000Y4230000D02*
D03*
X6995000Y1800000D02*
D03*
X7050000Y1710000D02*
D03*
X7245000Y2375000D02*
D03*
Y2262500D02*
D03*
X7132500Y2062500D02*
D03*
X7032500Y1987500D02*
D03*
Y2137500D02*
D03*
Y2287500D02*
D03*
Y2437500D02*
D03*
X7220000Y2900000D02*
D03*
X7232500Y3400000D02*
D03*
X7045000Y3312500D02*
D03*
X7170000D02*
D03*
X7295000Y3537500D02*
D03*
X7170000D02*
D03*
X7045000D02*
D03*
X7170000Y4050000D02*
D03*
Y3887500D02*
D03*
Y3712500D02*
D03*
X7295000D02*
D03*
Y3887500D02*
D03*
Y4050000D02*
D03*
X7045000Y3712500D02*
D03*
Y3887500D02*
D03*
Y4050000D02*
D03*
X7145000Y3200000D02*
D03*
X6670000Y2712500D02*
D03*
Y2612500D02*
D03*
X6229988Y4059992D02*
D03*
X3150000Y3070000D02*
D03*
X3300000Y4220000D02*
D03*
X3600000Y4150000D02*
D03*
X3400000D02*
D03*
X2890000Y4220000D02*
D03*
X560000Y3840000D02*
D03*
X1100000Y4080000D02*
D03*
X1660000Y4240000D02*
D03*
X1800000Y4200000D02*
D03*
X160000Y3350000D02*
D03*
X2820000Y3780000D02*
D03*
X2550000Y3850000D02*
D03*
X2740000D02*
D03*
X2820000D02*
D03*
X2660000D02*
D03*
X2450000D02*
D03*
X2350000D02*
D03*
X1320000Y3010000D02*
D03*
X990000Y2990000D02*
D03*
X600000Y2920000D02*
D03*
X990000Y2890000D02*
D03*
X1140000Y3850000D02*
D03*
X2500000Y2960000D02*
D03*
X1030000Y3850000D02*
D03*
X950000Y4080000D02*
D03*
X1320000Y3850000D02*
D03*
X6910000Y1360000D02*
D03*
X5837500Y1200000D02*
D03*
X5462500D02*
D03*
X5712500D02*
D03*
X6087500D02*
D03*
X6587500D02*
D03*
X6337500D02*
D03*
X4600000Y3127500D02*
D03*
Y3390000D02*
D03*
X4580000Y4040000D02*
D03*
X2700000Y2680000D02*
D03*
X7670000Y3000000D02*
D03*
X8125000Y3250000D02*
D03*
Y3100000D02*
D03*
Y2900000D02*
D03*
Y2700000D02*
D03*
Y2375000D02*
D03*
Y2150000D02*
D03*
Y1950000D02*
D03*
Y1700000D02*
D03*
Y1125000D02*
D03*
Y1000000D02*
D03*
Y800000D02*
D03*
X375000Y400000D02*
D03*
X475000Y275000D02*
D03*
X8125000Y3875000D02*
D03*
X7775000Y4050000D02*
D03*
X7700000Y4175000D02*
D03*
X400000Y4025000D02*
D03*
X500000Y4150000D02*
D03*
X275000Y3925000D02*
D03*
X75000Y3275000D02*
D03*
Y3600000D02*
D03*
Y3850000D02*
D03*
Y2900000D02*
D03*
X500000Y1775000D02*
D03*
Y1525000D02*
D03*
Y1400000D02*
D03*
X75000Y1200000D02*
D03*
Y1000000D02*
D03*
Y800000D02*
D03*
X950000Y400000D02*
D03*
X4300000Y350000D02*
D03*
X5812500Y125000D02*
D03*
X6325000D02*
D03*
X2801798Y70000D02*
D03*
X526817Y76822D02*
D03*
X801817D02*
D03*
X1001817D02*
D03*
X1201817D02*
D03*
X1401817D02*
D03*
X1601817D02*
D03*
X1801817D02*
D03*
X2001817D02*
D03*
X2201817D02*
D03*
X2401817D02*
D03*
X2601817D02*
D03*
X2976817D02*
D03*
X3400000Y200000D02*
D03*
X3675000Y475000D02*
D03*
X4100000D02*
D03*
X4426817Y76822D02*
D03*
X4400000Y200000D02*
D03*
X5325000Y75000D02*
D03*
X5887500D02*
D03*
X3500000Y350000D02*
D03*
X6525000Y75000D02*
D03*
X6925000Y75000D02*
D03*
X7676817Y76822D02*
D03*
X7675000Y4325000D02*
D03*
X7475000D02*
D03*
X7275000D02*
D03*
X7075000D02*
D03*
X6850000D02*
D03*
X6650000D02*
D03*
X6200000D02*
D03*
X4925000D02*
D03*
X4550000D02*
D03*
X4325000Y4175000D02*
D03*
X4425000Y4325000D02*
D03*
X4175000Y4175000D02*
D03*
X4025000D02*
D03*
X3875000D02*
D03*
X3775000Y4325000D02*
D03*
X3600000D02*
D03*
X3400000D02*
D03*
X3225000D02*
D03*
X2975000D02*
D03*
X2800000D02*
D03*
X2600000D02*
D03*
X2400000D02*
D03*
X2200000D02*
D03*
X2000000D02*
D03*
X1800000D02*
D03*
X1600000D02*
D03*
X1400000D02*
D03*
X1200000D02*
D03*
X1000000D02*
D03*
X800000D02*
D03*
X525000D02*
D03*
X1580000Y3010000D02*
D03*
X3560000Y1660000D02*
D03*
X2055000Y2270000D02*
D03*
X4170000Y1650000D02*
D03*
X4595000Y1415000D02*
D03*
X4480000Y3130000D02*
D03*
X2740000Y3780000D02*
D03*
X2660000D02*
D03*
X7522436Y1602446D02*
D03*
X6160000Y3200000D02*
D03*
X7960000Y2810000D02*
D03*
X6850000Y820000D02*
D03*
X7060000Y680000D02*
D03*
X7920000Y3750000D02*
D03*
X7682500Y3650000D02*
D03*
X3780000Y1430000D02*
D03*
X2770000Y1660000D02*
D03*
X4935000Y1160000D02*
D03*
X4360000Y740000D02*
D03*
X6462500Y625000D02*
D03*
X5837500Y312500D02*
D03*
X6587500Y725000D02*
D03*
X5962500Y312500D02*
D03*
X5537500Y775000D02*
D03*
X5212500Y620000D02*
D03*
X4750000D02*
D03*
Y310000D02*
D03*
Y80000D02*
D03*
X4250000Y1000000D02*
D03*
X3440000Y730000D02*
D03*
X3250000Y100000D02*
D03*
X6459987Y1199998D02*
D03*
X5962500Y1200000D02*
D03*
X5337500D02*
D03*
X5587500D02*
D03*
X7670000Y2900000D02*
D03*
Y3200000D02*
D03*
X7395000Y2900000D02*
D03*
X7674999Y2750000D02*
D03*
X6890000Y1660000D02*
D03*
X7710000Y530000D02*
D03*
X7450000Y800000D02*
D03*
X6230000Y1770000D02*
D03*
X7860000Y930000D02*
D03*
X6250000Y1420000D02*
D03*
X7245000Y2112500D02*
D03*
X7607500Y1900000D02*
D03*
X7245000Y1950000D02*
D03*
X6130000Y2830000D02*
D03*
X840000Y710000D02*
D03*
X1570000Y450000D02*
D03*
X6230000Y2190000D02*
D03*
X6770000Y1900000D02*
D03*
X6670000Y2112500D02*
D03*
X6230000Y2830000D02*
D03*
X7220000Y2750000D02*
D03*
X7032500D02*
D03*
Y2900000D02*
D03*
X7050000Y3200000D02*
D03*
X6230000Y3200000D02*
D03*
Y1980000D02*
D03*
X5210000Y3680000D02*
D03*
X6080000Y3660000D02*
D03*
X6590000Y3200000D02*
D03*
X6682500Y3675000D02*
D03*
X6000000Y4325000D02*
D03*
X6682500Y3987500D02*
D03*
Y3825000D02*
D03*
X7682500Y3500000D02*
D03*
X7790000Y3350000D02*
D03*
X7940000Y3550000D02*
D03*
X8130000Y3750000D02*
D03*
Y3470000D02*
D03*
X2870000Y450000D02*
D03*
X2670000Y515000D02*
D03*
X5887500Y775000D02*
D03*
X5275000Y737500D02*
D03*
X7190000Y250000D02*
D03*
X5962500Y212500D02*
D03*
X6087500D02*
D03*
X6212500D02*
D03*
X5462500Y312500D02*
D03*
X6750000Y75000D02*
D03*
X6587500Y625000D02*
D03*
X5212500Y312500D02*
D03*
X6950000Y3200000D02*
D03*
X6670000Y3200000D02*
D03*
X6320000Y3770000D02*
D03*
X6675000Y2900000D02*
D03*
Y2300000D02*
D03*
X7674999Y2000000D02*
D03*
Y2450000D02*
D03*
Y2600000D02*
D03*
D77*
X3730000Y2900000D02*
D03*
X3729375Y2001875D02*
D03*
D78*
X6995000Y3462500D02*
D03*
Y3387500D02*
D03*
X5226531Y1822624D02*
D03*
X1205000Y1305000D02*
D03*
X1215000Y1445000D02*
D03*
Y1385000D02*
D03*
X1090000Y1180000D02*
D03*
X1190000D02*
D03*
X1340000Y577500D02*
D03*
X1740000Y520000D02*
D03*
X1230000D02*
D03*
X2681235Y1760000D02*
D03*
X1640000Y2590000D02*
D03*
X1755000Y2610000D02*
D03*
X1940000Y2535000D02*
D03*
X1545000Y2610000D02*
D03*
X1497402Y2560735D02*
D03*
X1410000Y2560000D02*
D03*
X1975000Y2397500D02*
D03*
X2020000Y2340000D02*
D03*
X7770000Y1160000D02*
D03*
X7520000Y1697500D02*
D03*
X5630000Y1800000D02*
D03*
X5490000Y2240000D02*
D03*
X5640000Y2250000D02*
D03*
X6870000Y1440000D02*
D03*
X6950000D02*
D03*
Y1280000D02*
D03*
X6870000D02*
D03*
X7230000Y950000D02*
D03*
X7400000Y890000D02*
D03*
X4525625Y2042500D02*
D03*
X4460625Y1977500D02*
D03*
X4478683Y2981317D02*
D03*
X4559341Y2980658D02*
D03*
X4640000Y2980000D02*
D03*
X5280000Y2080000D02*
D03*
X4080000Y3440000D02*
D03*
X5230000Y4120000D02*
D03*
X5710000Y4020000D02*
D03*
X5630000Y3740000D02*
D03*
X2760689Y1419311D02*
D03*
X2690000Y1530000D02*
D03*
X2600000Y1601235D02*
D03*
X2520000Y1490000D02*
D03*
X2510000Y1190000D02*
D03*
X1983499Y1542300D02*
D03*
X1924999Y1800000D02*
D03*
X1986649Y1687200D02*
D03*
Y1775400D02*
D03*
X1520449Y1939200D02*
D03*
X1662499Y1762500D02*
D03*
X1737499D02*
D03*
X1662499Y1687500D02*
D03*
X1737499D02*
D03*
X2012499Y1875000D02*
D03*
X1590000Y1225000D02*
D03*
X1690000D02*
D03*
X1444973Y1199973D02*
D03*
X1200000Y2260000D02*
D03*
Y2160000D02*
D03*
X1325000Y2225000D02*
D03*
X1425000D02*
D03*
X1200000Y2050000D02*
D03*
Y1950000D02*
D03*
X1481250Y2075000D02*
D03*
X1649999D02*
D03*
X1799999D02*
D03*
X1874999Y2031250D02*
D03*
X1724999D02*
D03*
X1574999D02*
D03*
X1949999Y1412500D02*
D03*
X1687499D02*
D03*
X1587499D02*
D03*
X1443749Y1425000D02*
D03*
X1387499Y1500000D02*
D03*
Y1581250D02*
D03*
Y1668750D02*
D03*
Y1750000D02*
D03*
Y1831250D02*
D03*
Y1900000D02*
D03*
Y1975000D02*
D03*
X4010000Y770000D02*
D03*
X3150000Y650000D02*
D03*
X850000Y2610000D02*
D03*
X920000D02*
D03*
X990000D02*
D03*
X1330000D02*
D03*
X1190000D02*
D03*
X770000D02*
D03*
X540000D02*
D03*
X660000D02*
D03*
X7289341Y1520658D02*
D03*
X4250000Y450000D02*
D03*
X2710000Y1140000D02*
D03*
X2850000D02*
D03*
X3990000Y1930000D02*
D03*
X4500000Y1240000D02*
D03*
X5740000Y2080000D02*
D03*
X2310000Y1830000D02*
D03*
Y1700000D02*
D03*
Y1570000D02*
D03*
X4950000Y3930000D02*
D03*
X1090000Y620000D02*
D03*
X1700000Y830000D02*
D03*
X2020000Y600000D02*
D03*
X2010000Y390000D02*
D03*
X1490000Y450000D02*
D03*
X3175199Y585199D02*
D03*
X3290000Y580000D02*
D03*
X3040000Y420000D02*
D03*
X2780000Y1140000D02*
D03*
X1512499Y1475000D02*
D03*
X1490000Y2270000D02*
D03*
X1880000Y2230000D02*
D03*
X730000Y1080000D02*
D03*
X840000D02*
D03*
X920000D02*
D03*
X1020000D02*
D03*
X970000Y1130000D02*
D03*
X2070000Y1030000D02*
D03*
X2120000Y1190000D02*
D03*
X2340000Y960000D02*
D03*
X3150000Y902500D02*
D03*
X3080000D02*
D03*
X3220000D02*
D03*
X2140000Y1290000D02*
D03*
X3650000Y1900000D02*
D03*
X3860000Y1850000D02*
D03*
X2565000Y1800101D02*
D03*
X2720000Y1470000D02*
D03*
X6425000Y775000D02*
D03*
X7600000Y130000D02*
D03*
X2630000Y1800000D02*
D03*
X2560000Y1550000D02*
D03*
X2197500Y1580000D02*
D03*
X2130000D02*
D03*
X4525625Y1977500D02*
D03*
X3920000Y1890000D02*
D03*
X2199999Y1945000D02*
D03*
X7060000Y1432500D02*
D03*
X4710000Y750000D02*
D03*
X6000000Y775000D02*
D03*
X5425000D02*
D03*
X4650000Y610000D02*
D03*
X4780000Y750000D02*
D03*
X3325000Y125000D02*
D03*
X3250000Y200000D02*
D03*
X3175000Y125000D02*
D03*
X7360000Y1120000D02*
D03*
X7440000D02*
D03*
X1260000Y2600000D02*
D03*
X1455000Y2610000D02*
D03*
X1580000Y2550000D02*
D03*
X600000Y2560000D02*
D03*
X750000Y2240000D02*
D03*
X800000Y2180000D02*
D03*
X575000Y2075000D02*
D03*
X475000D02*
D03*
X425000Y2025000D02*
D03*
X780000Y1130000D02*
D03*
X900000Y1820000D02*
D03*
X1270000Y1760000D02*
D03*
X900000Y1630000D02*
D03*
X5560000Y3110000D02*
D03*
X5310000Y3880000D02*
D03*
X4780000Y820000D02*
D03*
X1120000Y1860000D02*
D03*
X1779999Y2225000D02*
D03*
X1679999D02*
D03*
X1579999D02*
D03*
X1924999Y1525000D02*
D03*
X1215000Y1515000D02*
D03*
X1699999Y1725000D02*
D03*
D79*
X7370000Y3078826D02*
D03*
X6070000Y2440000D02*
D03*
X6100000Y1848551D02*
D03*
X5390000Y3860000D02*
D03*
X6030000Y4100000D02*
D03*
X5910000D02*
D03*
X6149987Y4060000D02*
D03*
X4629614Y4290213D02*
D03*
X6170000Y2120000D02*
D03*
Y2250000D02*
D03*
Y2340000D02*
D03*
X5990000Y2830000D02*
D03*
X5828520Y3597644D02*
D03*
X6250000Y3940000D02*
D03*
X6560000D02*
D03*
D80*
X3176875Y2359375D02*
D03*
Y2440625D02*
D03*
X4493125Y2286250D02*
D03*
Y2205000D02*
D03*
Y2513750D02*
D03*
Y2595000D02*
D03*
X3168750Y2107500D02*
D03*
Y2692500D02*
D03*
Y2196875D02*
D03*
Y2603125D02*
D03*
Y2521875D02*
D03*
Y2278125D02*
D03*
D81*
X5910000Y1480000D02*
D03*
X5240000Y2900000D02*
D03*
X5320000Y1420000D02*
D03*
D82*
X4127500Y2424375D02*
D03*
X4078750D02*
D03*
X4013750Y2473125D02*
D03*
Y2513750D02*
D03*
X5810000Y2080000D02*
D03*
X1160000Y1305000D02*
D03*
X1165000Y1445000D02*
D03*
X1230000Y1150000D02*
D03*
X1130000D02*
D03*
X1885000Y2535000D02*
D03*
X1720000Y2575000D02*
D03*
X5670000Y1770000D02*
D03*
X5550000Y2240000D02*
D03*
X5607799Y2207799D02*
D03*
X7290000Y950000D02*
D03*
X7458613Y888613D02*
D03*
X5280000Y2130000D02*
D03*
X5270000Y1800000D02*
D03*
X5710478Y4116250D02*
D03*
X5670000Y3780000D02*
D03*
X1160000Y1515000D02*
D03*
X1690000Y1170000D02*
D03*
X1590000D02*
D03*
X1290000Y2265000D02*
D03*
X1390000D02*
D03*
X1145000Y2160000D02*
D03*
Y2050000D02*
D03*
Y1950000D02*
D03*
X1160000Y2295000D02*
D03*
X5200000Y4160000D02*
D03*
X2370000Y1830000D02*
D03*
Y1700000D02*
D03*
Y1570000D02*
D03*
X4950000Y3870000D02*
D03*
X1880000Y2290000D02*
D03*
X2180000Y1190000D02*
D03*
X5610000Y3110000D02*
D03*
X5260000Y3880000D02*
D03*
X1779999Y2285000D02*
D03*
X1679999D02*
D03*
X1579999D02*
D03*
D83*
X1875706Y1476413D02*
D03*
X4930000Y2280000D02*
D03*
X5250000Y2260000D02*
D03*
X1862499Y1675000D02*
D03*
Y1562500D02*
D03*
X1537499Y1781250D02*
D03*
X1536199Y1668300D02*
D03*
X1809999Y1885000D02*
D03*
X1650000Y450000D02*
D03*
X5270000Y4280000D02*
D03*
X1590498Y1885499D02*
D03*
X1699999Y1885000D02*
D03*
X1674999Y1580000D02*
D03*
D84*
X4120000Y2980000D02*
D03*
X2740000Y3670000D02*
D03*
X2340000Y2955000D02*
D03*
X2275000D02*
D03*
X2405000D02*
D03*
X2860000Y1660000D02*
D03*
X2465000Y515000D02*
D03*
X3255000Y730000D02*
D03*
X6800000Y1660000D02*
D03*
X6720000D02*
D03*
X4410000Y3210000D02*
D03*
X4120000Y3060000D02*
D03*
Y3140000D02*
D03*
X900000Y2887500D02*
D03*
X4530000Y4150000D02*
D03*
X2820000Y3670000D02*
D03*
X900000Y2990000D02*
D03*
X2660000Y3670000D02*
D03*
X4340000Y3270000D02*
D03*
X4530000Y3470000D02*
D03*
Y3960000D02*
D03*
X3340000Y730000D02*
D03*
X3460000Y1660000D02*
D03*
X4270000Y1650000D02*
D03*
X4700000Y1420000D02*
D03*
X6960000Y820000D02*
D03*
X4750000Y470000D02*
D03*
X7710000Y440000D02*
D03*
X7860000Y1030000D02*
D03*
X5290000Y3580000D02*
D03*
D86*
X5310000Y2260000D02*
D03*
%TF.MD5,b7ca91f14ac63c19c4447f5b3641e0ad*%
M02*
