%TF.GenerationSoftware,Altium Limited,Altium Designer,22.6.1 (34)*%
G04 Layer_Color=16711935*
%FSLAX45Y45*%
%MOMM*%
%TF.SameCoordinates,07F994AE-BB1C-4BEA-A643-928B9DFDCC76*%
%TF.FilePolarity,Negative*%
%TF.FileFunction,Soldermask,Bot*%
%TF.Part,Single*%
G01*
G75*
%TA.AperFunction,SMDPad,CuDef*%
G04:AMPARAMS|DCode=108|XSize=0.55mm|YSize=1.55mm|CornerRadius=0.19625mm|HoleSize=0mm|Usage=FLASHONLY|Rotation=0.000|XOffset=0mm|YOffset=0mm|HoleType=Round|Shape=RoundedRectangle|*
%AMROUNDEDRECTD108*
21,1,0.55000,1.15750,0,0,0.0*
21,1,0.15750,1.55000,0,0,0.0*
1,1,0.39250,0.07875,-0.57875*
1,1,0.39250,-0.07875,-0.57875*
1,1,0.39250,-0.07875,0.57875*
1,1,0.39250,0.07875,0.57875*
%
%ADD108ROUNDEDRECTD108*%
G04:AMPARAMS|DCode=109|XSize=0.48mm|YSize=1.18mm|CornerRadius=0.14mm|HoleSize=0mm|Usage=FLASHONLY|Rotation=0.000|XOffset=0mm|YOffset=0mm|HoleType=Round|Shape=RoundedRectangle|*
%AMROUNDEDRECTD109*
21,1,0.48000,0.90000,0,0,0.0*
21,1,0.20000,1.18000,0,0,0.0*
1,1,0.28000,0.10000,-0.45000*
1,1,0.28000,-0.10000,-0.45000*
1,1,0.28000,-0.10000,0.45000*
1,1,0.28000,0.10000,0.45000*
%
%ADD109ROUNDEDRECTD109*%
G04:AMPARAMS|DCode=110|XSize=0.55mm|YSize=1.1mm|CornerRadius=0.1625mm|HoleSize=0mm|Usage=FLASHONLY|Rotation=0.000|XOffset=0mm|YOffset=0mm|HoleType=Round|Shape=RoundedRectangle|*
%AMROUNDEDRECTD110*
21,1,0.55000,0.77500,0,0,0.0*
21,1,0.22500,1.10000,0,0,0.0*
1,1,0.32500,0.11250,-0.38750*
1,1,0.32500,-0.11250,-0.38750*
1,1,0.32500,-0.11250,0.38750*
1,1,0.32500,0.11250,0.38750*
%
%ADD110ROUNDEDRECTD110*%
G04:AMPARAMS|DCode=111|XSize=0.7mm|YSize=1.2mm|CornerRadius=0.2mm|HoleSize=0mm|Usage=FLASHONLY|Rotation=90.000|XOffset=0mm|YOffset=0mm|HoleType=Round|Shape=RoundedRectangle|*
%AMROUNDEDRECTD111*
21,1,0.70000,0.80000,0,0,90.0*
21,1,0.30000,1.20000,0,0,90.0*
1,1,0.40000,0.40000,0.15000*
1,1,0.40000,0.40000,-0.15000*
1,1,0.40000,-0.40000,-0.15000*
1,1,0.40000,-0.40000,0.15000*
%
%ADD111ROUNDEDRECTD111*%
G04:AMPARAMS|DCode=112|XSize=0.75mm|YSize=1mm|CornerRadius=0.2125mm|HoleSize=0mm|Usage=FLASHONLY|Rotation=270.000|XOffset=0mm|YOffset=0mm|HoleType=Round|Shape=RoundedRectangle|*
%AMROUNDEDRECTD112*
21,1,0.75000,0.57500,0,0,270.0*
21,1,0.32500,1.00000,0,0,270.0*
1,1,0.42500,-0.28750,-0.16250*
1,1,0.42500,-0.28750,0.16250*
1,1,0.42500,0.28750,0.16250*
1,1,0.42500,0.28750,-0.16250*
%
%ADD112ROUNDEDRECTD112*%
G04:AMPARAMS|DCode=113|XSize=0.75mm|YSize=0.95mm|CornerRadius=0.2125mm|HoleSize=0mm|Usage=FLASHONLY|Rotation=270.000|XOffset=0mm|YOffset=0mm|HoleType=Round|Shape=RoundedRectangle|*
%AMROUNDEDRECTD113*
21,1,0.75000,0.52500,0,0,270.0*
21,1,0.32500,0.95000,0,0,270.0*
1,1,0.42500,-0.26250,-0.16250*
1,1,0.42500,-0.26250,0.16250*
1,1,0.42500,0.26250,0.16250*
1,1,0.42500,0.26250,-0.16250*
%
%ADD113ROUNDEDRECTD113*%
G04:AMPARAMS|DCode=114|XSize=2.8956mm|YSize=0.8382mm|CornerRadius=0.23495mm|HoleSize=0mm|Usage=FLASHONLY|Rotation=0.000|XOffset=0mm|YOffset=0mm|HoleType=Round|Shape=RoundedRectangle|*
%AMROUNDEDRECTD114*
21,1,2.89560,0.36830,0,0,0.0*
21,1,2.42570,0.83820,0,0,0.0*
1,1,0.46990,1.21285,-0.18415*
1,1,0.46990,-1.21285,-0.18415*
1,1,0.46990,-1.21285,0.18415*
1,1,0.46990,1.21285,0.18415*
%
%ADD114ROUNDEDRECTD114*%
%ADD115R,2.89560X0.83820*%
G04:AMPARAMS|DCode=116|XSize=1.45mm|YSize=1.05mm|CornerRadius=0.2875mm|HoleSize=0mm|Usage=FLASHONLY|Rotation=180.000|XOffset=0mm|YOffset=0mm|HoleType=Round|Shape=RoundedRectangle|*
%AMROUNDEDRECTD116*
21,1,1.45000,0.47500,0,0,180.0*
21,1,0.87500,1.05000,0,0,180.0*
1,1,0.57500,-0.43750,0.23750*
1,1,0.57500,0.43750,0.23750*
1,1,0.57500,0.43750,-0.23750*
1,1,0.57500,-0.43750,-0.23750*
%
%ADD116ROUNDEDRECTD116*%
G04:AMPARAMS|DCode=117|XSize=1mm|YSize=0.9mm|CornerRadius=0.25mm|HoleSize=0mm|Usage=FLASHONLY|Rotation=90.000|XOffset=0mm|YOffset=0mm|HoleType=Round|Shape=RoundedRectangle|*
%AMROUNDEDRECTD117*
21,1,1.00000,0.40000,0,0,90.0*
21,1,0.50000,0.90000,0,0,90.0*
1,1,0.50000,0.20000,0.25000*
1,1,0.50000,0.20000,-0.25000*
1,1,0.50000,-0.20000,-0.25000*
1,1,0.50000,-0.20000,0.25000*
%
%ADD117ROUNDEDRECTD117*%
G04:AMPARAMS|DCode=118|XSize=0.7mm|YSize=0.7mm|CornerRadius=0.125mm|HoleSize=0mm|Usage=FLASHONLY|Rotation=270.000|XOffset=0mm|YOffset=0mm|HoleType=Round|Shape=RoundedRectangle|*
%AMROUNDEDRECTD118*
21,1,0.70000,0.45000,0,0,270.0*
21,1,0.45000,0.70000,0,0,270.0*
1,1,0.25000,-0.22500,-0.22500*
1,1,0.25000,-0.22500,0.22500*
1,1,0.25000,0.22500,0.22500*
1,1,0.25000,0.22500,-0.22500*
%
%ADD118ROUNDEDRECTD118*%
G04:AMPARAMS|DCode=119|XSize=1.08mm|YSize=1.02mm|CornerRadius=0.28mm|HoleSize=0mm|Usage=FLASHONLY|Rotation=270.000|XOffset=0mm|YOffset=0mm|HoleType=Round|Shape=RoundedRectangle|*
%AMROUNDEDRECTD119*
21,1,1.08000,0.46000,0,0,270.0*
21,1,0.52000,1.02000,0,0,270.0*
1,1,0.56000,-0.23000,-0.26000*
1,1,0.56000,-0.23000,0.26000*
1,1,0.56000,0.23000,0.26000*
1,1,0.56000,0.23000,-0.26000*
%
%ADD119ROUNDEDRECTD119*%
G04:AMPARAMS|DCode=120|XSize=0.72mm|YSize=0.66mm|CornerRadius=0.19mm|HoleSize=0mm|Usage=FLASHONLY|Rotation=90.000|XOffset=0mm|YOffset=0mm|HoleType=Round|Shape=RoundedRectangle|*
%AMROUNDEDRECTD120*
21,1,0.72000,0.28000,0,0,90.0*
21,1,0.34000,0.66000,0,0,90.0*
1,1,0.38000,0.14000,0.17000*
1,1,0.38000,0.14000,-0.17000*
1,1,0.38000,-0.14000,-0.17000*
1,1,0.38000,-0.14000,0.17000*
%
%ADD120ROUNDEDRECTD120*%
G04:AMPARAMS|DCode=121|XSize=2.6mm|YSize=2.55mm|CornerRadius=0.47875mm|HoleSize=0mm|Usage=FLASHONLY|Rotation=0.000|XOffset=0mm|YOffset=0mm|HoleType=Round|Shape=RoundedRectangle|*
%AMROUNDEDRECTD121*
21,1,2.60000,1.59250,0,0,0.0*
21,1,1.64250,2.55000,0,0,0.0*
1,1,0.95750,0.82125,-0.79625*
1,1,0.95750,-0.82125,-0.79625*
1,1,0.95750,-0.82125,0.79625*
1,1,0.95750,0.82125,0.79625*
%
%ADD121ROUNDEDRECTD121*%
G04:AMPARAMS|DCode=122|XSize=2.8mm|YSize=1.45mm|CornerRadius=0.3875mm|HoleSize=0mm|Usage=FLASHONLY|Rotation=180.000|XOffset=0mm|YOffset=0mm|HoleType=Round|Shape=RoundedRectangle|*
%AMROUNDEDRECTD122*
21,1,2.80000,0.67500,0,0,180.0*
21,1,2.02500,1.45000,0,0,180.0*
1,1,0.77500,-1.01250,0.33750*
1,1,0.77500,1.01250,0.33750*
1,1,0.77500,1.01250,-0.33750*
1,1,0.77500,-1.01250,-0.33750*
%
%ADD122ROUNDEDRECTD122*%
G04:AMPARAMS|DCode=123|XSize=1.05mm|YSize=0.95mm|CornerRadius=0.2625mm|HoleSize=0mm|Usage=FLASHONLY|Rotation=180.000|XOffset=0mm|YOffset=0mm|HoleType=Round|Shape=RoundedRectangle|*
%AMROUNDEDRECTD123*
21,1,1.05000,0.42500,0,0,180.0*
21,1,0.52500,0.95000,0,0,180.0*
1,1,0.52500,-0.26250,0.21250*
1,1,0.52500,0.26250,0.21250*
1,1,0.52500,0.26250,-0.21250*
1,1,0.52500,-0.26250,-0.21250*
%
%ADD123ROUNDEDRECTD123*%
G04:AMPARAMS|DCode=124|XSize=0.75mm|YSize=0.65mm|CornerRadius=0.1875mm|HoleSize=0mm|Usage=FLASHONLY|Rotation=180.000|XOffset=0mm|YOffset=0mm|HoleType=Round|Shape=RoundedRectangle|*
%AMROUNDEDRECTD124*
21,1,0.75000,0.27500,0,0,180.0*
21,1,0.37500,0.65000,0,0,180.0*
1,1,0.37500,-0.18750,0.13750*
1,1,0.37500,0.18750,0.13750*
1,1,0.37500,0.18750,-0.13750*
1,1,0.37500,-0.18750,-0.13750*
%
%ADD124ROUNDEDRECTD124*%
G04:AMPARAMS|DCode=125|XSize=1.05mm|YSize=0.95mm|CornerRadius=0.2625mm|HoleSize=0mm|Usage=FLASHONLY|Rotation=270.000|XOffset=0mm|YOffset=0mm|HoleType=Round|Shape=RoundedRectangle|*
%AMROUNDEDRECTD125*
21,1,1.05000,0.42500,0,0,270.0*
21,1,0.52500,0.95000,0,0,270.0*
1,1,0.52500,-0.21250,-0.26250*
1,1,0.52500,-0.21250,0.26250*
1,1,0.52500,0.21250,0.26250*
1,1,0.52500,0.21250,-0.26250*
%
%ADD125ROUNDEDRECTD125*%
G04:AMPARAMS|DCode=126|XSize=0.75mm|YSize=0.65mm|CornerRadius=0.1875mm|HoleSize=0mm|Usage=FLASHONLY|Rotation=90.000|XOffset=0mm|YOffset=0mm|HoleType=Round|Shape=RoundedRectangle|*
%AMROUNDEDRECTD126*
21,1,0.75000,0.27500,0,0,90.0*
21,1,0.37500,0.65000,0,0,90.0*
1,1,0.37500,0.13750,0.18750*
1,1,0.37500,0.13750,-0.18750*
1,1,0.37500,-0.13750,-0.18750*
1,1,0.37500,-0.13750,0.18750*
%
%ADD126ROUNDEDRECTD126*%
G04:AMPARAMS|DCode=127|XSize=0.85mm|YSize=0.95mm|CornerRadius=0.2375mm|HoleSize=0mm|Usage=FLASHONLY|Rotation=180.000|XOffset=0mm|YOffset=0mm|HoleType=Round|Shape=RoundedRectangle|*
%AMROUNDEDRECTD127*
21,1,0.85000,0.47500,0,0,180.0*
21,1,0.37500,0.95000,0,0,180.0*
1,1,0.47500,-0.18750,0.23750*
1,1,0.47500,0.18750,0.23750*
1,1,0.47500,0.18750,-0.23750*
1,1,0.47500,-0.18750,-0.23750*
%
%ADD127ROUNDEDRECTD127*%
G04:AMPARAMS|DCode=128|XSize=0.85mm|YSize=0.95mm|CornerRadius=0.2375mm|HoleSize=0mm|Usage=FLASHONLY|Rotation=270.000|XOffset=0mm|YOffset=0mm|HoleType=Round|Shape=RoundedRectangle|*
%AMROUNDEDRECTD128*
21,1,0.85000,0.47500,0,0,270.0*
21,1,0.37500,0.95000,0,0,270.0*
1,1,0.47500,-0.23750,-0.18750*
1,1,0.47500,-0.23750,0.18750*
1,1,0.47500,0.23750,0.18750*
1,1,0.47500,0.23750,-0.18750*
%
%ADD128ROUNDEDRECTD128*%
G04:AMPARAMS|DCode=129|XSize=1.08mm|YSize=1.02mm|CornerRadius=0.28mm|HoleSize=0mm|Usage=FLASHONLY|Rotation=0.000|XOffset=0mm|YOffset=0mm|HoleType=Round|Shape=RoundedRectangle|*
%AMROUNDEDRECTD129*
21,1,1.08000,0.46000,0,0,0.0*
21,1,0.52000,1.02000,0,0,0.0*
1,1,0.56000,0.26000,-0.23000*
1,1,0.56000,-0.26000,-0.23000*
1,1,0.56000,-0.26000,0.23000*
1,1,0.56000,0.26000,0.23000*
%
%ADD129ROUNDEDRECTD129*%
G04:AMPARAMS|DCode=130|XSize=1mm|YSize=0.9mm|CornerRadius=0.25mm|HoleSize=0mm|Usage=FLASHONLY|Rotation=180.000|XOffset=0mm|YOffset=0mm|HoleType=Round|Shape=RoundedRectangle|*
%AMROUNDEDRECTD130*
21,1,1.00000,0.40000,0,0,180.0*
21,1,0.50000,0.90000,0,0,180.0*
1,1,0.50000,-0.25000,0.20000*
1,1,0.50000,0.25000,0.20000*
1,1,0.50000,0.25000,-0.20000*
1,1,0.50000,-0.25000,-0.20000*
%
%ADD130ROUNDEDRECTD130*%
G04:AMPARAMS|DCode=131|XSize=1.45mm|YSize=1.05mm|CornerRadius=0.2875mm|HoleSize=0mm|Usage=FLASHONLY|Rotation=90.000|XOffset=0mm|YOffset=0mm|HoleType=Round|Shape=RoundedRectangle|*
%AMROUNDEDRECTD131*
21,1,1.45000,0.47500,0,0,90.0*
21,1,0.87500,1.05000,0,0,90.0*
1,1,0.57500,0.23750,0.43750*
1,1,0.57500,0.23750,-0.43750*
1,1,0.57500,-0.23750,-0.43750*
1,1,0.57500,-0.23750,0.43750*
%
%ADD131ROUNDEDRECTD131*%
G04:AMPARAMS|DCode=132|XSize=0.7mm|YSize=0.7mm|CornerRadius=0.125mm|HoleSize=0mm|Usage=FLASHONLY|Rotation=0.000|XOffset=0mm|YOffset=0mm|HoleType=Round|Shape=RoundedRectangle|*
%AMROUNDEDRECTD132*
21,1,0.70000,0.45000,0,0,0.0*
21,1,0.45000,0.70000,0,0,0.0*
1,1,0.25000,0.22500,-0.22500*
1,1,0.25000,-0.22500,-0.22500*
1,1,0.25000,-0.22500,0.22500*
1,1,0.25000,0.22500,0.22500*
%
%ADD132ROUNDEDRECTD132*%
%TA.AperFunction,ConnectorPad*%
G04:AMPARAMS|DCode=133|XSize=1mm|YSize=0.9mm|CornerRadius=0.25mm|HoleSize=0mm|Usage=FLASHONLY|Rotation=0.000|XOffset=0mm|YOffset=0mm|HoleType=Round|Shape=RoundedRectangle|*
%AMROUNDEDRECTD133*
21,1,1.00000,0.40000,0,0,0.0*
21,1,0.50000,0.90000,0,0,0.0*
1,1,0.50000,0.25000,-0.20000*
1,1,0.50000,-0.25000,-0.20000*
1,1,0.50000,-0.25000,0.20000*
1,1,0.50000,0.25000,0.20000*
%
%ADD133ROUNDEDRECTD133*%
%TA.AperFunction,SMDPad,CuDef*%
%ADD134C,1.10000*%
G04:AMPARAMS|DCode=135|XSize=0.75mm|YSize=1.55mm|CornerRadius=0.2125mm|HoleSize=0mm|Usage=FLASHONLY|Rotation=270.000|XOffset=0mm|YOffset=0mm|HoleType=Round|Shape=RoundedRectangle|*
%AMROUNDEDRECTD135*
21,1,0.75000,1.12500,0,0,270.0*
21,1,0.32500,1.55000,0,0,270.0*
1,1,0.42500,-0.56250,-0.16250*
1,1,0.42500,-0.56250,0.16250*
1,1,0.42500,0.56250,0.16250*
1,1,0.42500,0.56250,-0.16250*
%
%ADD135ROUNDEDRECTD135*%
G04:AMPARAMS|DCode=136|XSize=0.7mm|YSize=1.1mm|CornerRadius=0.2mm|HoleSize=0mm|Usage=FLASHONLY|Rotation=180.000|XOffset=0mm|YOffset=0mm|HoleType=Round|Shape=RoundedRectangle|*
%AMROUNDEDRECTD136*
21,1,0.70000,0.70000,0,0,180.0*
21,1,0.30000,1.10000,0,0,180.0*
1,1,0.40000,-0.15000,0.35000*
1,1,0.40000,0.15000,0.35000*
1,1,0.40000,0.15000,-0.35000*
1,1,0.40000,-0.15000,-0.35000*
%
%ADD136ROUNDEDRECTD136*%
G04:AMPARAMS|DCode=137|XSize=2.8mm|YSize=1.45mm|CornerRadius=0.3875mm|HoleSize=0mm|Usage=FLASHONLY|Rotation=90.000|XOffset=0mm|YOffset=0mm|HoleType=Round|Shape=RoundedRectangle|*
%AMROUNDEDRECTD137*
21,1,2.80000,0.67500,0,0,90.0*
21,1,2.02500,1.45000,0,0,90.0*
1,1,0.77500,0.33750,1.01250*
1,1,0.77500,0.33750,-1.01250*
1,1,0.77500,-0.33750,-1.01250*
1,1,0.77500,-0.33750,1.01250*
%
%ADD137ROUNDEDRECTD137*%
%TA.AperFunction,ComponentPad*%
%ADD138O,2.00000X1.90000*%
G04:AMPARAMS|DCode=139|XSize=1.9mm|YSize=2mm|CornerRadius=0.41mm|HoleSize=0mm|Usage=FLASHONLY|Rotation=270.000|XOffset=0mm|YOffset=0mm|HoleType=Round|Shape=RoundedRectangle|*
%AMROUNDEDRECTD139*
21,1,1.90000,1.18000,0,0,270.0*
21,1,1.08000,2.00000,0,0,270.0*
1,1,0.82000,-0.59000,-0.54000*
1,1,0.82000,-0.59000,0.54000*
1,1,0.82000,0.59000,0.54000*
1,1,0.82000,0.59000,-0.54000*
%
%ADD139ROUNDEDRECTD139*%
%TA.AperFunction,WasherPad*%
%ADD140C,2.30000*%
D108*
X3924974Y2130000D02*
D03*
X3859973D02*
D03*
X3794974D02*
D03*
X3729973D02*
D03*
X3924974Y2570000D02*
D03*
X3859973D02*
D03*
X3794974D02*
D03*
X3729973D02*
D03*
D109*
X6097500Y1756250D02*
D03*
X6032500D02*
D03*
X5967500D02*
D03*
X5902500D02*
D03*
X6097500Y2143750D02*
D03*
X6032500D02*
D03*
X5967500D02*
D03*
X5902500D02*
D03*
X3297525Y1393724D02*
D03*
X3362525D02*
D03*
X3427525D02*
D03*
X3492525D02*
D03*
X3297525Y1006224D02*
D03*
X3362525D02*
D03*
X3427525D02*
D03*
X3492525D02*
D03*
X5712500Y4243776D02*
D03*
X5777500D02*
D03*
X5842500D02*
D03*
X5907500D02*
D03*
X5712500Y3856276D02*
D03*
X5777500D02*
D03*
X5842500D02*
D03*
X5907500D02*
D03*
X5202550Y3856250D02*
D03*
X5137550D02*
D03*
X5072550D02*
D03*
X5007550D02*
D03*
X5202550Y4243750D02*
D03*
X5137550D02*
D03*
X5072550D02*
D03*
X5007550D02*
D03*
X5352500Y2163750D02*
D03*
X5417500D02*
D03*
X5482500D02*
D03*
X5547500D02*
D03*
X5352500Y1776250D02*
D03*
X5417500D02*
D03*
X5482500D02*
D03*
X5547500D02*
D03*
D110*
X7572498Y1505000D02*
D03*
Y1245000D02*
D03*
X7767498Y1505000D02*
D03*
X7702498D02*
D03*
X7637498D02*
D03*
Y1245000D02*
D03*
X7702498D02*
D03*
X7767498D02*
D03*
D111*
X955005Y804922D02*
D03*
Y709922D02*
D03*
Y614922D02*
D03*
X695005D02*
D03*
Y709922D02*
D03*
Y804922D02*
D03*
X1617524Y3380000D02*
D03*
Y3570000D02*
D03*
X1352524D02*
D03*
Y3475000D02*
D03*
Y3380000D02*
D03*
D112*
X5752500Y2575000D02*
D03*
Y2765000D02*
D03*
X5987500Y2670000D02*
D03*
D113*
X6907500Y3330000D02*
D03*
Y3520000D02*
D03*
X7132500Y3425000D02*
D03*
D114*
X703200Y1784000D02*
D03*
Y1657000D02*
D03*
X296800Y1530000D02*
D03*
X703200Y1403000D02*
D03*
Y1276000D02*
D03*
X703199Y1530000D02*
D03*
X296800Y1403000D02*
D03*
Y1657000D02*
D03*
Y1784000D02*
D03*
D115*
Y1276000D02*
D03*
D116*
X1960000Y2752500D02*
D03*
Y2927500D02*
D03*
X780000Y3187500D02*
D03*
Y3012500D02*
D03*
D117*
X2985000Y1450000D02*
D03*
X3135000D02*
D03*
X6374999Y1979923D02*
D03*
X6524999D02*
D03*
X6374999Y2119949D02*
D03*
X6524999D02*
D03*
X6374999Y2259974D02*
D03*
X6524999D02*
D03*
X6374999Y2400000D02*
D03*
X6524999D02*
D03*
X6564999Y4110000D02*
D03*
X6414999D02*
D03*
X6564999Y4250000D02*
D03*
X6414999D02*
D03*
X6325000Y3940000D02*
D03*
X6475000D02*
D03*
X7334999Y160000D02*
D03*
X7184999D02*
D03*
X2114999Y245000D02*
D03*
X2264999D02*
D03*
X2104999Y740000D02*
D03*
X2254999D02*
D03*
X5237500Y162500D02*
D03*
X5387500D02*
D03*
X3134999Y1590000D02*
D03*
X2984999D02*
D03*
X3795000D02*
D03*
X3944999D02*
D03*
X3954999Y1010000D02*
D03*
X3804999D02*
D03*
X5725000Y380000D02*
D03*
X5575000D02*
D03*
X3954999Y1159974D02*
D03*
X3805000D02*
D03*
X7785000Y3232314D02*
D03*
X7935000D02*
D03*
X7934999Y3372340D02*
D03*
X8084999D02*
D03*
X4585000Y2170000D02*
D03*
X4735000D02*
D03*
X4585000Y2480000D02*
D03*
X4735000D02*
D03*
X3075000Y2610000D02*
D03*
X2925000D02*
D03*
X3075000Y2330000D02*
D03*
X2925000D02*
D03*
X4397500Y2172500D02*
D03*
X4247500D02*
D03*
X4397500Y2481250D02*
D03*
X4247500D02*
D03*
X3362500Y2610000D02*
D03*
X3512500D02*
D03*
X3362500Y2330000D02*
D03*
X3512500D02*
D03*
X4585000Y2320000D02*
D03*
X4735000D02*
D03*
X4585000Y2630000D02*
D03*
X4735000D02*
D03*
X3075000Y2470000D02*
D03*
X2925000D02*
D03*
X3075000Y2190000D02*
D03*
X2925000D02*
D03*
X4397500Y2318750D02*
D03*
X4247500D02*
D03*
X4397500Y2627500D02*
D03*
X4247500D02*
D03*
X3362500Y2470000D02*
D03*
X3512500D02*
D03*
X3362499Y2190000D02*
D03*
X3512499D02*
D03*
X3334999Y2900000D02*
D03*
X3184999D02*
D03*
X5955000Y2430000D02*
D03*
X5805000D02*
D03*
X2129998Y2155026D02*
D03*
X1979998D02*
D03*
X674999Y165000D02*
D03*
X824999D02*
D03*
X1915000Y1120000D02*
D03*
X2065000D02*
D03*
X4080624Y2790000D02*
D03*
X3930624D02*
D03*
X4082500Y1985026D02*
D03*
X4232500D02*
D03*
X3796249Y2790000D02*
D03*
X3646249D02*
D03*
X5655000Y2910000D02*
D03*
X5805000D02*
D03*
X4694999Y3860000D02*
D03*
X4544999D02*
D03*
X5374999Y4270000D02*
D03*
X5524999D02*
D03*
X4654999Y4180000D02*
D03*
X4804999D02*
D03*
X5140000Y2680000D02*
D03*
X4990000D02*
D03*
X5155000Y2480000D02*
D03*
X5305000D02*
D03*
X5155000Y2190000D02*
D03*
X5005000D02*
D03*
X5305000Y2340000D02*
D03*
X5155000D02*
D03*
X7695000Y1690000D02*
D03*
X7845000D02*
D03*
X8065024Y1520785D02*
D03*
X7915024D02*
D03*
X8065023Y1230733D02*
D03*
X7915023D02*
D03*
D118*
X1097999Y1410000D02*
D03*
X1001999D02*
D03*
X961999Y2330000D02*
D03*
X1057999D02*
D03*
X2478000Y1770000D02*
D03*
X2382000D02*
D03*
X1057999Y2230000D02*
D03*
X961999D02*
D03*
X1057999Y2130000D02*
D03*
X961999D02*
D03*
X1097999Y1310000D02*
D03*
X1001999D02*
D03*
X2382000Y1510000D02*
D03*
X2478000D02*
D03*
X2382000Y1640000D02*
D03*
X2478000D02*
D03*
X961999Y2030000D02*
D03*
X1057999D02*
D03*
X1097999Y1510000D02*
D03*
X1001999D02*
D03*
D119*
X1964024Y1279919D02*
D03*
X1816024D02*
D03*
X7313999Y1639974D02*
D03*
X7165999D02*
D03*
X6346000Y2870000D02*
D03*
X6494000D02*
D03*
X6956500Y2600000D02*
D03*
X6808500D02*
D03*
X6646500Y3034975D02*
D03*
X6498500D02*
D03*
D120*
X6717499Y3490000D02*
D03*
X6617499D02*
D03*
X6717499Y3360000D02*
D03*
X6617499D02*
D03*
D121*
X3930000Y3102500D02*
D03*
Y3717500D02*
D03*
X2699999Y3417500D02*
D03*
Y4032500D02*
D03*
X2145075Y3417500D02*
D03*
Y4032500D02*
D03*
D122*
X4799999Y3140000D02*
D03*
Y3460000D02*
D03*
X6825023Y665000D02*
D03*
Y345000D02*
D03*
X6159974Y344975D02*
D03*
Y664975D02*
D03*
X1074998Y3685000D02*
D03*
Y3365000D02*
D03*
D123*
X7709998Y909975D02*
D03*
Y1059975D02*
D03*
X5100000Y912500D02*
D03*
Y1062500D02*
D03*
X5719999Y525000D02*
D03*
Y675000D02*
D03*
X5537524Y1037500D02*
D03*
Y887500D02*
D03*
X5887575D02*
D03*
Y1037500D02*
D03*
X6512499Y887500D02*
D03*
Y1037500D02*
D03*
X7254974Y3169949D02*
D03*
Y3019949D02*
D03*
X7357499Y1800000D02*
D03*
Y1950000D02*
D03*
X8049999Y3555000D02*
D03*
Y3705000D02*
D03*
X7830000D02*
D03*
Y3555000D02*
D03*
X7170000Y2637500D02*
D03*
Y2487500D02*
D03*
X7569999Y3675000D02*
D03*
Y3525000D02*
D03*
X1224999Y4050000D02*
D03*
Y4200000D02*
D03*
X7060049Y440000D02*
D03*
Y590000D02*
D03*
X1805049Y3400000D02*
D03*
Y3550000D02*
D03*
X5100000Y175000D02*
D03*
Y325000D02*
D03*
X3660000Y1585000D02*
D03*
Y1435000D02*
D03*
Y1135000D02*
D03*
Y1285000D02*
D03*
X3660000Y835000D02*
D03*
Y985000D02*
D03*
X3052526Y2900052D02*
D03*
Y3050052D02*
D03*
X2912500Y2900052D02*
D03*
Y3050052D02*
D03*
X7507500Y1962500D02*
D03*
Y2112500D02*
D03*
X7132500Y1800000D02*
D03*
Y1950000D02*
D03*
X6347475Y3035000D02*
D03*
Y3185000D02*
D03*
X2025025Y1659975D02*
D03*
Y1509975D02*
D03*
X1985024Y1860000D02*
D03*
Y2010000D02*
D03*
X4103125Y2645625D02*
D03*
Y2495625D02*
D03*
X5540000Y3675000D02*
D03*
Y3825000D02*
D03*
X6207475Y3335000D02*
D03*
Y3485000D02*
D03*
X6487500Y3505000D02*
D03*
Y3655000D02*
D03*
Y3345000D02*
D03*
Y3195000D02*
D03*
X5540000Y3975000D02*
D03*
Y4125000D02*
D03*
X5180000Y1895000D02*
D03*
Y2045000D02*
D03*
X5730000Y1855000D02*
D03*
Y2005000D02*
D03*
D124*
X1644998Y1925000D02*
D03*
Y1825000D02*
D03*
X1190000Y1860000D02*
D03*
Y1760000D02*
D03*
X1785045Y1414945D02*
D03*
Y1514944D02*
D03*
X1864999Y1925000D02*
D03*
Y1825000D02*
D03*
X1755000D02*
D03*
Y1925000D02*
D03*
D125*
X5675000Y162500D02*
D03*
X5525000D02*
D03*
X6485000Y1310000D02*
D03*
X6635000D02*
D03*
X6334999D02*
D03*
X6184999D02*
D03*
X6600000Y162500D02*
D03*
X6450000D02*
D03*
X6770000Y2437500D02*
D03*
X6920000D02*
D03*
X6782499Y2750000D02*
D03*
X6932499D02*
D03*
X6770000Y2137500D02*
D03*
X6920000D02*
D03*
X6770000Y2287500D02*
D03*
X6920000D02*
D03*
X6782499Y2900000D02*
D03*
X6932499D02*
D03*
X6770000Y1987500D02*
D03*
X6920000D02*
D03*
X7399999Y2314923D02*
D03*
X7550000D02*
D03*
X7399999Y3174949D02*
D03*
X7550000D02*
D03*
X6932499Y3887500D02*
D03*
X6782499D02*
D03*
X6932499Y3712500D02*
D03*
X6782499D02*
D03*
X6932499Y4050000D02*
D03*
X6782499D02*
D03*
X7174998Y795025D02*
D03*
X7324999D02*
D03*
X2264999Y385026D02*
D03*
X2114999D02*
D03*
X2264999Y600000D02*
D03*
X2114999D02*
D03*
X5087500Y762500D02*
D03*
X4937500D02*
D03*
X3465000Y830000D02*
D03*
X3315000D02*
D03*
X3805075Y1300000D02*
D03*
X3955076D02*
D03*
X3805000Y870000D02*
D03*
X3955000D02*
D03*
X3405000Y3050000D02*
D03*
X3255000D02*
D03*
X6495000Y2714975D02*
D03*
X6345000D02*
D03*
X1509998Y1395000D02*
D03*
X1659998D02*
D03*
X674999Y975000D02*
D03*
X824999D02*
D03*
X1024999Y1630000D02*
D03*
X1174999D02*
D03*
X814999Y305000D02*
D03*
X664999D02*
D03*
X674998Y449896D02*
D03*
X824999D02*
D03*
X5125000Y3680000D02*
D03*
X4975000D02*
D03*
X4684999Y4040000D02*
D03*
X4834999D02*
D03*
X5885000Y3680000D02*
D03*
X5735000D02*
D03*
X6025000Y1580000D02*
D03*
X5875000D02*
D03*
X5375000Y1600000D02*
D03*
X5525000D02*
D03*
X7925023Y1375759D02*
D03*
X8075023D02*
D03*
D126*
X1684999Y1515000D02*
D03*
X1585000D02*
D03*
X1904999Y1615000D02*
D03*
X1805000D02*
D03*
X1904999Y1725000D02*
D03*
X1805000D02*
D03*
X1500000Y1615000D02*
D03*
X1599999D02*
D03*
X1500000Y1725000D02*
D03*
X1599999D02*
D03*
D127*
X5275026Y842500D02*
D03*
Y1082500D02*
D03*
X5899999Y420000D02*
D03*
Y660000D02*
D03*
X5712550Y1082500D02*
D03*
Y842500D02*
D03*
X6099999Y1095000D02*
D03*
Y855000D02*
D03*
X6312499Y1095000D02*
D03*
Y855000D02*
D03*
X2460000Y180000D02*
D03*
Y420000D02*
D03*
X2670000D02*
D03*
Y180000D02*
D03*
X2460000Y850000D02*
D03*
Y610000D02*
D03*
X2670000D02*
D03*
Y850000D02*
D03*
X4359999Y1040000D02*
D03*
Y1280000D02*
D03*
X4579999Y800000D02*
D03*
Y1040000D02*
D03*
X4140000D02*
D03*
Y1280000D02*
D03*
D128*
X7809999Y3000000D02*
D03*
X8049999D02*
D03*
X7769999Y1964974D02*
D03*
X8009999D02*
D03*
X7565000Y2500000D02*
D03*
X7325000D02*
D03*
X7570000Y3349975D02*
D03*
X7330000D02*
D03*
X7577499Y2750000D02*
D03*
X7337499D02*
D03*
X4120076Y840000D02*
D03*
X4360076D02*
D03*
D129*
X7710024Y2151000D02*
D03*
Y2299000D02*
D03*
D130*
X7420000Y3675000D02*
D03*
Y3525000D02*
D03*
X1385024Y4200000D02*
D03*
Y4050000D02*
D03*
X1530000Y4045000D02*
D03*
Y4195000D02*
D03*
X7600025Y230000D02*
D03*
Y380000D02*
D03*
Y660026D02*
D03*
Y510026D02*
D03*
X2990000Y185000D02*
D03*
Y335000D02*
D03*
X2850000Y355000D02*
D03*
Y205000D02*
D03*
X2989999Y495000D02*
D03*
Y645000D02*
D03*
X2850000Y565000D02*
D03*
Y715000D02*
D03*
X4959974Y175000D02*
D03*
Y325000D02*
D03*
X4780000Y915000D02*
D03*
Y1065000D02*
D03*
X4929999Y915000D02*
D03*
Y1065000D02*
D03*
X5570000Y675000D02*
D03*
Y525000D02*
D03*
X1640000Y2835000D02*
D03*
Y2685000D02*
D03*
X5577473Y2760000D02*
D03*
Y2610000D02*
D03*
X1225000Y2687500D02*
D03*
Y2837500D02*
D03*
X1399999D02*
D03*
Y2687500D02*
D03*
X1599999Y700000D02*
D03*
Y850000D02*
D03*
X1459973Y850000D02*
D03*
Y700000D02*
D03*
X2165051Y1665000D02*
D03*
Y1815000D02*
D03*
X1020000Y1765000D02*
D03*
Y1915000D02*
D03*
X479974Y944974D02*
D03*
Y1094974D02*
D03*
X339948Y944974D02*
D03*
Y1094974D02*
D03*
X3510000Y2747500D02*
D03*
Y2897500D02*
D03*
X6347500Y3505000D02*
D03*
Y3355000D02*
D03*
X4270000Y3415000D02*
D03*
Y3565000D02*
D03*
X4829999Y3715000D02*
D03*
Y3865000D02*
D03*
X5440000Y2485000D02*
D03*
Y2335000D02*
D03*
X5730000Y2145000D02*
D03*
Y2295000D02*
D03*
X7419999Y1355000D02*
D03*
Y1205000D02*
D03*
D131*
X6399999Y337500D02*
D03*
X6574999D02*
D03*
D132*
X1289998Y1083000D02*
D03*
Y987000D02*
D03*
X1089974D02*
D03*
Y1083000D02*
D03*
X1580050Y2448000D02*
D03*
Y2352000D02*
D03*
X1390024Y2448000D02*
D03*
Y2352000D02*
D03*
X1289998Y2448000D02*
D03*
Y2352000D02*
D03*
X1700025Y987000D02*
D03*
Y1083000D02*
D03*
X1600000D02*
D03*
Y987000D02*
D03*
X2180000Y1128000D02*
D03*
Y1032000D02*
D03*
X1880126Y2352000D02*
D03*
Y2448000D02*
D03*
X1680075D02*
D03*
Y2352000D02*
D03*
X1780100D02*
D03*
Y2448000D02*
D03*
X1189999Y1083000D02*
D03*
Y987000D02*
D03*
D133*
X7970000Y905000D02*
D03*
Y1055000D02*
D03*
D134*
X1075000Y3165000D02*
D03*
D135*
X5177500Y3089500D02*
D03*
Y3216500D02*
D03*
Y3343500D02*
D03*
Y3470500D02*
D03*
X5722500Y3089500D02*
D03*
Y3216500D02*
D03*
Y3343500D02*
D03*
Y3470500D02*
D03*
D136*
X7244999Y350000D02*
D03*
X7339999D02*
D03*
X7434999D02*
D03*
Y620000D02*
D03*
X7339999D02*
D03*
X7244999D02*
D03*
D137*
X1455049Y3114975D02*
D03*
X1775049D02*
D03*
D138*
X250000Y2385000D02*
D03*
Y2131000D02*
D03*
D139*
Y2639000D02*
D03*
D140*
X249993Y599997D02*
D03*
X7949997D02*
D03*
Y2549998D02*
D03*
X269993Y3099997D02*
D03*
%TF.MD5,ccea258625ac0bb59ea0e30e8e064509*%
M02*
